<svg width="1920" height="1080" viewBox="0 0 1920 1080" preserveAspectRatio="xMidYMid slice" fill="none" xmlns="http://www.w3.org/2000/svg">
<g clip-path="url(#clip0_2:2)">
<rect width="1920" height="1080" fill="#FF6A56"/>
<path d="M171 535.5C171 390 272 206.5 732 0L1498 -0.5C1638 120.5 1692 267 1692 427C1692 637 1527 896 1390.5 1080.5H563.5C380 972.5 171 734.5 171 535.5Z" fill="#FF8368"/>
<circle cx="379" cy="540" r="49" fill="#FF957D"/>
<circle cx="1191.5" cy="91.5" r="19.5" fill="#FF957D"/>
<circle cx="1368.5" cy="932.5" r="31.5" fill="#FF957D"/>
<path d="M535.988 572.145C534.109 572.726 532.286 572.924 530.519 572.738C528.742 572.52 527.089 571.915 525.561 570.922C524.022 569.897 522.625 568.48 521.367 566.671C520.132 564.82 519.095 562.542 518.258 559.835C517.45 557.223 517.043 554.837 517.038 552.676C517.054 550.472 517.413 548.53 518.113 546.847C518.814 545.165 519.842 543.748 521.195 542.597C522.539 541.414 524.15 540.531 526.029 539.95C527.908 539.369 529.736 539.187 531.513 539.405C533.28 539.591 534.928 540.181 536.456 541.173C537.984 542.166 539.361 543.572 540.587 545.391C541.834 547.168 542.862 549.363 543.67 551.974C544.507 554.681 544.923 557.152 544.916 559.387C544.932 561.58 544.594 563.534 543.903 565.248C543.202 566.93 542.18 568.363 540.836 569.546C539.483 570.698 537.867 571.564 535.988 572.145ZM533.801 565.076C535.138 564.662 535.958 563.588 536.259 561.855C536.56 560.122 536.228 557.695 535.263 554.575C534.337 551.581 533.265 549.47 532.048 548.242C530.831 547.013 529.553 546.606 528.216 547.02C526.878 547.433 526.054 548.491 525.743 550.192C525.432 551.893 525.739 554.241 526.665 557.234C527.63 560.355 528.727 562.545 529.954 563.806C531.181 565.066 532.463 565.489 533.801 565.076ZM570.79 570.172C566.856 568.284 563.436 565.8 560.53 562.722C557.645 559.601 555.514 555.812 554.134 551.354C552.755 546.896 552.38 542.58 553.009 538.408C553.659 534.195 555.075 530.198 557.255 526.418L562.886 528.549C561.982 530.364 561.253 532.125 560.699 533.831C560.178 535.528 559.83 537.223 559.656 538.917C559.504 540.569 559.536 542.251 559.751 543.964C559.957 545.645 560.346 547.409 560.917 549.256C561.489 551.103 562.169 552.794 562.958 554.329C563.737 555.833 564.661 557.239 565.729 558.549C566.819 559.817 568.058 561.003 569.447 562.109C570.867 563.205 572.463 564.247 574.234 565.234L570.79 570.172ZM581.247 557.517L579.799 552.836C581.293 550.559 582.673 548.423 583.94 546.426C585.206 544.429 586.263 542.602 587.111 540.944C587.949 539.254 588.541 537.727 588.887 536.364C589.224 534.969 589.234 533.762 588.919 532.743C588.495 531.374 587.787 530.494 586.794 530.103C585.791 529.681 584.621 529.677 583.283 530.09C582.168 530.435 581.243 531.053 580.507 531.943C579.792 532.792 579.135 533.711 578.533 534.7L572.827 531.65C573.399 530.566 573.989 529.598 574.598 528.747C575.229 527.854 575.931 527.078 576.705 526.42C577.468 525.731 578.314 525.137 579.242 524.641C580.17 524.145 581.239 523.709 582.449 523.335C584.074 522.832 585.628 522.613 587.113 522.677C588.631 522.731 590 523.04 591.221 523.605C592.474 524.159 593.563 524.974 594.489 526.048C595.405 527.091 596.094 528.36 596.557 529.857C596.931 531.067 597.029 532.398 596.85 533.849C596.661 535.268 596.281 536.747 595.709 538.284C595.138 539.821 594.43 541.366 593.584 542.919C592.77 544.462 591.905 545.951 590.988 547.386C591.787 547.034 592.686 546.669 593.685 546.29C594.706 545.869 595.583 545.546 596.315 545.319L602.43 543.428L604.557 550.306L581.247 557.517ZM607.046 535.405L608.587 513.994L615.083 511.984L628.445 528.786L621.758 530.854L618.317 526.162L614.206 520.315L614.015 520.375L613.923 527.521L613.733 533.337L607.046 535.405ZM639.103 539.62L631.715 515.737L638.403 513.668L639.862 516.357L640.054 516.298C640.723 515.079 641.607 513.933 642.706 512.86C643.795 511.756 645.215 510.933 646.967 510.391C649.61 509.573 651.812 509.869 653.574 511.278C655.326 512.655 656.66 514.824 657.576 517.786L662.127 532.498L653.911 535.04L649.685 521.378C649.271 520.041 648.764 519.133 648.163 518.656C647.594 518.17 646.783 518.089 645.733 518.414C644.968 518.65 644.349 519.016 643.874 519.512C643.399 520.008 642.932 520.641 642.473 521.411L647.319 537.079L639.103 539.62ZM677.999 537.009L672.368 534.878C673.272 533.063 673.985 531.307 674.507 529.611C675.061 527.904 675.414 526.225 675.566 524.573C675.739 522.879 675.723 521.192 675.517 519.511C675.302 517.798 674.908 516.018 674.337 514.171C673.765 512.324 673.09 510.649 672.311 509.145C671.522 507.61 670.583 506.208 669.493 504.941C668.425 503.631 667.18 502.428 665.76 501.333C664.371 500.227 662.791 499.18 661.02 498.193L664.465 493.254C668.398 495.143 671.807 497.647 674.692 500.768C677.598 503.846 679.741 507.615 681.12 512.073C682.499 516.531 682.863 520.867 682.213 525.081C681.584 529.253 680.18 533.229 677.999 537.009Z" fill="#FF9A84"/>
<path d="M1072.39 805.773L1069 781.078L1266.15 754L1269.54 778.695C1270.23 783.706 1267.61 787.488 1262.48 788.193L1254.26 789.321L1172.12 800.603L1089.97 811.886L1081.76 813.014C1076.62 813.719 1073.08 810.784 1072.39 805.773Z" fill="#FF9A84"/>
<path d="M1101.94 1020.9L1105.33 1045.59L1302.48 1018.52L1299.09 993.822C1298.4 988.81 1294.86 985.875 1289.72 986.58L1281.51 987.709L1199.36 998.991L1117.22 1010.27L1109 1011.4C1103.87 1012.11 1101.25 1015.89 1101.94 1020.9Z" fill="#FF9A84"/>
<path d="M1169.31 902.054C1165.62 875.189 1100.97 891.964 1089.97 811.886L1254.26 789.321C1265.26 869.399 1198.48 870.676 1202.17 897.541L1169.31 902.054Z" fill="#FDAA9E"/>
<g clip-path="url(#clip1_2:2)">
<path d="M1242.48 833.049L1113.1 850.819C1144.17 886.558 1173.76 873.544 1177.53 900.925L1193.95 898.669C1190.19 871.287 1222.2 875.839 1242.48 833.049Z" fill="#FF9C8D"/>
</g>
<path d="M1169.31 902.054C1173 928.919 1106.22 930.195 1117.22 1010.27L1281.51 987.709C1270.51 907.63 1205.86 924.406 1202.17 897.541L1169.31 902.054Z" fill="#FDAA9E"/>
<path d="M1182 933.473C1185.12 956.205 1126.74 955.802 1125.69 1009.11L1273.04 988.872C1257.66 937.82 1201.55 953.949 1198.42 931.217L1193.95 898.669L1177.53 900.925L1182 933.473Z" fill="#FF9C8D"/>
<path d="M1145.66 300.771C1143.74 301.209 1141.91 301.268 1140.16 300.949C1138.41 300.598 1136.8 299.869 1135.36 298.764C1133.9 297.626 1132.61 296.108 1131.5 294.209C1130.4 292.27 1129.54 289.919 1128.91 287.157C1128.3 284.492 1128.08 282.082 1128.24 279.926C1128.42 277.73 1128.92 275.82 1129.75 274.196C1130.57 272.571 1131.71 271.236 1133.14 270.19C1134.57 269.112 1136.24 268.354 1138.16 267.916C1140.08 267.479 1141.92 267.436 1143.67 267.787C1145.42 268.106 1147.02 268.818 1148.47 269.924C1149.92 271.029 1151.18 272.535 1152.27 274.441C1153.38 276.308 1154.24 278.573 1154.84 281.238C1155.47 284 1155.7 286.496 1155.53 288.724C1155.38 290.912 1154.89 292.835 1154.07 294.492C1153.25 296.116 1152.12 297.468 1150.69 298.546C1149.25 299.592 1147.58 300.334 1145.66 300.771ZM1144.01 293.557C1145.38 293.245 1146.28 292.237 1146.71 290.531C1147.14 288.826 1146.99 286.381 1146.26 283.196C1145.57 280.141 1144.66 277.956 1143.54 276.639C1142.42 275.322 1141.17 274.819 1139.81 275.131C1138.44 275.442 1137.54 276.434 1137.1 278.107C1136.66 279.78 1136.79 282.144 1137.49 285.199C1138.22 288.384 1139.15 290.651 1140.27 292C1141.4 293.349 1142.65 293.868 1144.01 293.557ZM1180.51 301.433C1176.73 299.253 1173.51 296.518 1170.84 293.229C1168.2 289.899 1166.36 285.96 1165.33 281.41C1164.29 276.861 1164.24 272.529 1165.18 268.417C1166.15 264.264 1167.86 260.386 1170.32 256.781L1175.78 259.332C1174.74 261.073 1173.88 262.774 1173.2 264.434C1172.55 266.086 1172.07 267.75 1171.77 269.426C1171.49 271.062 1171.4 272.742 1171.49 274.466C1171.56 276.157 1171.82 277.946 1172.25 279.83C1172.68 281.715 1173.23 283.453 1173.9 285.044C1174.56 286.602 1175.38 288.074 1176.34 289.461C1177.33 290.807 1178.48 292.084 1179.78 293.292C1181.12 294.491 1182.63 295.651 1184.32 296.769L1180.51 301.433ZM1192.48 289.47L1186.92 265.097L1193.74 263.539L1194.99 266.331L1195.19 266.286C1195.95 265.121 1196.92 264.045 1198.09 263.059C1199.26 262.04 1200.74 261.326 1202.53 260.918C1205.23 260.303 1207.4 260.764 1209.05 262.302C1210.69 263.808 1211.86 266.072 1212.55 269.094L1215.98 284.108L1207.59 286.021L1204.41 272.08C1204.1 270.715 1203.66 269.772 1203.1 269.251C1202.57 268.722 1201.77 268.581 1200.69 268.825C1199.91 269.003 1199.27 269.322 1198.76 269.78C1198.25 270.239 1197.73 270.834 1197.22 271.568L1200.86 287.557L1192.48 289.47ZM1267.01 273.075C1265.39 273.446 1263.9 273.513 1262.54 273.274C1261.22 273.029 1260.04 272.548 1258.98 271.83C1257.96 271.073 1257.08 270.093 1256.36 268.89C1255.68 267.679 1255.15 266.277 1254.79 264.685L1250.83 247.331L1243.52 249L1242.03 242.468L1257.72 238.885L1263.24 263.064C1263.4 263.779 1263.65 264.338 1263.98 264.741C1264.31 265.144 1264.67 265.454 1265.07 265.673C1265.48 265.851 1265.92 265.957 1266.37 265.991C1266.85 265.984 1267.3 265.933 1267.72 265.837C1268.73 265.607 1269.84 265.112 1271.07 264.353L1274.28 270.084C1273.67 270.427 1273.1 270.746 1272.55 271.042C1272.03 271.331 1271.49 271.591 1270.93 271.822C1270.37 272.053 1269.77 272.275 1269.13 272.488C1268.5 272.702 1267.79 272.897 1267.01 273.075ZM1291.8 267.417C1290.18 267.788 1288.54 267.871 1286.89 267.667C1285.26 267.424 1283.74 266.899 1282.32 266.094C1280.9 265.256 1279.65 264.122 1278.57 262.693C1277.53 261.256 1276.77 259.53 1276.31 257.516C1275.85 255.501 1275.78 253.619 1276.1 251.871C1276.45 250.116 1277.09 248.568 1278.02 247.229C1278.93 245.857 1280.08 244.724 1281.45 243.83C1282.84 242.897 1284.35 242.245 1285.98 241.874C1287.57 241.51 1289.18 241.45 1290.81 241.694C1292.46 241.898 1294 242.419 1295.42 243.257C1296.83 244.062 1298.08 245.18 1299.16 246.609C1300.24 248.038 1301.01 249.76 1301.47 251.775C1301.93 253.79 1301.98 255.675 1301.63 257.431C1301.28 259.186 1300.64 260.75 1299.73 262.122C1298.8 263.461 1297.64 264.598 1296.25 265.531C1294.88 266.425 1293.4 267.053 1291.8 267.417ZM1290.27 260.69C1291.7 260.363 1292.6 259.594 1292.97 258.38C1293.34 257.134 1293.31 255.585 1292.89 253.733C1292.46 251.881 1291.82 250.489 1290.96 249.557C1290.09 248.593 1288.94 248.274 1287.51 248.601C1286.08 248.927 1285.18 249.713 1284.82 250.959C1284.44 252.172 1284.47 253.705 1284.89 255.558C1285.32 257.41 1285.96 258.818 1286.83 259.782C1287.69 260.714 1288.84 261.016 1290.27 260.69ZM1321.68 270.548C1320.15 270.896 1318.7 271.109 1317.31 271.186C1315.97 271.287 1314.74 271.209 1313.62 270.952C1312.5 270.694 1311.56 270.242 1310.8 269.596C1310.07 268.974 1309.59 268.111 1309.33 267.006C1308.89 265.056 1309.77 263.215 1311.97 261.481L1311.93 261.286C1311.14 260.987 1310.43 260.568 1309.79 260.029C1309.19 259.483 1308.77 258.69 1308.53 257.65C1308.34 256.805 1308.43 255.914 1308.79 254.975C1309.16 254.036 1309.7 253.178 1310.41 252.401L1310.37 252.206C1309.29 251.836 1308.3 251.189 1307.41 250.265C1306.55 249.333 1305.95 248.152 1305.63 246.722C1305.29 245.228 1305.28 243.861 1305.61 242.623C1305.94 241.352 1306.52 240.244 1307.37 239.299C1308.21 238.321 1309.22 237.509 1310.4 236.863C1311.62 236.209 1312.95 235.718 1314.38 235.392C1315.9 235.043 1317.33 234.923 1318.65 235.031L1328.5 232.784L1329.88 238.828L1325.49 239.83C1325.72 240.085 1325.95 240.425 1326.19 240.851C1326.45 241.269 1326.64 241.721 1326.75 242.209C1327.08 243.639 1327.1 244.933 1326.82 246.092C1326.53 247.218 1325.99 248.213 1325.19 249.078C1324.43 249.936 1323.45 250.672 1322.26 251.286C1321.09 251.86 1319.78 252.314 1318.31 252.648C1317.37 252.863 1316.32 252.983 1315.16 253.008C1314.92 253.302 1314.76 253.562 1314.68 253.786C1314.62 253.971 1314.63 254.242 1314.71 254.6C1314.83 255.152 1315.22 255.475 1315.85 255.569C1316.48 255.631 1317.48 255.506 1318.84 255.194L1322.99 254.248C1326.24 253.507 1328.85 253.439 1330.84 254.046C1332.82 254.621 1334.06 256.029 1334.57 258.271C1334.88 259.604 1334.79 260.888 1334.32 262.123C1333.89 263.384 1333.12 264.553 1332 265.629C1330.87 266.706 1329.43 267.667 1327.68 268.512C1325.95 269.35 1323.96 270.029 1321.68 270.548ZM1317.18 247.676C1317.99 247.491 1318.63 247.055 1319.09 246.369C1319.54 245.683 1319.64 244.755 1319.37 243.585C1319.11 242.448 1318.63 241.686 1317.93 241.299C1317.22 240.88 1316.46 240.764 1315.64 240.949C1314.83 241.134 1314.2 241.57 1313.74 242.256C1313.3 242.902 1313.22 243.794 1313.48 244.931C1313.74 246.101 1314.22 246.899 1314.89 247.326C1315.6 247.745 1316.37 247.861 1317.18 247.676ZM1321.82 265.08C1323.48 264.702 1324.78 264.183 1325.72 263.523C1326.7 262.888 1327.12 262.23 1326.96 261.547C1326.81 260.897 1326.39 260.565 1325.71 260.551C1325.02 260.537 1324.06 260.671 1322.82 260.953L1320.39 261.509C1319.44 261.724 1318.69 261.862 1318.12 261.923C1317.56 262.017 1317.06 262.063 1316.62 262.062C1316.26 262.451 1316.01 262.798 1315.88 263.102C1315.74 263.407 1315.72 263.738 1315.8 264.095C1315.98 264.875 1316.61 265.329 1317.7 265.456C1318.79 265.584 1320.16 265.458 1321.82 265.08ZM1367.85 249.445L1362.29 225.072L1369.12 223.514L1370.37 226.305L1370.56 226.261C1371.32 225.096 1372.29 224.02 1373.47 223.034C1374.64 222.015 1376.12 221.301 1377.9 220.893C1380.6 220.277 1382.77 220.739 1384.42 222.277C1386.07 223.782 1387.23 226.046 1387.92 229.068L1391.35 244.082L1382.97 245.996L1379.78 232.054C1379.47 230.69 1379.03 229.747 1378.47 229.226C1377.94 228.697 1377.14 228.555 1376.07 228.8C1375.29 228.978 1374.64 229.296 1374.13 229.755C1373.62 230.213 1373.11 230.809 1372.59 231.542L1376.24 247.531L1367.85 249.445ZM1406.84 249.779L1401.38 247.229C1402.42 245.488 1403.26 243.791 1403.91 242.138C1404.59 240.478 1405.07 238.831 1405.35 237.195C1405.65 235.519 1405.76 233.835 1405.68 232.144C1405.6 230.42 1405.34 228.615 1404.91 226.73C1404.48 224.845 1403.93 223.124 1403.27 221.566C1402.6 219.975 1401.77 218.507 1400.78 217.16C1399.81 215.774 1398.66 214.48 1397.33 213.28C1396.02 212.073 1394.53 210.91 1392.84 209.792L1396.65 205.128C1400.42 207.308 1403.64 210.063 1406.28 213.392C1408.94 216.681 1410.79 220.601 1411.83 225.15C1412.87 229.7 1412.91 234.051 1411.94 238.204C1411 242.317 1409.3 246.175 1406.84 249.779Z" fill="#FF9A84"/>
<path d="M745.725 1011.21C743.778 1010.93 742.044 1010.34 740.525 1009.42C739.01 1008.46 737.773 1007.21 736.813 1005.66C735.858 1004.08 735.197 1002.2 734.831 1000.03C734.502 997.826 734.535 995.323 734.931 992.518C735.313 989.811 735.962 987.479 736.878 985.521C737.831 983.535 738.983 981.93 740.334 980.707C741.685 979.484 743.218 978.64 744.933 978.175C746.653 977.677 748.487 977.565 750.434 977.84C752.381 978.115 754.112 978.729 755.627 979.684C757.147 980.605 758.386 981.84 759.346 983.39C760.306 984.939 760.952 986.797 761.286 988.965C761.657 991.105 761.652 993.528 761.27 996.234C760.874 999.04 760.197 1001.45 759.239 1003.47C758.318 1005.46 757.18 1007.09 755.825 1008.34C754.474 1009.57 752.939 1010.43 751.219 1010.92C749.504 1011.39 747.673 1011.48 745.725 1011.21ZM746.759 1003.88C748.145 1004.08 749.344 1003.46 750.355 1002.02C751.366 1000.58 752.1 998.239 752.556 995.005C752.994 991.902 752.924 989.536 752.346 987.906C751.768 986.276 750.786 985.363 749.4 985.167C748.014 984.972 746.817 985.577 745.811 986.984C744.805 988.39 744.082 990.645 743.645 993.747C743.188 996.982 743.247 999.431 743.82 1001.09C744.393 1002.76 745.373 1003.69 746.759 1003.88ZM778.05 1024.25C775.296 1020.87 773.26 1017.17 771.943 1013.14C770.663 1009.09 770.349 1004.75 771.001 1000.13C771.653 995.512 773.153 991.448 775.499 987.941C777.883 984.406 780.866 981.394 784.45 978.903L788.636 983.231C787.045 984.487 785.635 985.77 784.407 987.077C783.212 988.39 782.175 989.775 781.296 991.233C780.454 992.663 779.766 994.199 779.232 995.84C778.702 997.449 778.302 999.21 778.032 1001.12C777.762 1003.04 777.656 1004.86 777.716 1006.58C777.78 1008.28 778.016 1009.94 778.424 1011.58C778.87 1013.19 779.486 1014.8 780.271 1016.39C781.089 1017.98 782.089 1019.61 783.27 1021.25L778.05 1024.25ZM809.603 1020.22C807.953 1019.99 806.538 1019.52 805.358 1018.82C804.212 1018.12 803.274 1017.24 802.547 1016.2C801.856 1015.12 801.39 1013.9 801.147 1012.52C800.937 1011.14 800.947 1009.64 801.175 1008.03L803.662 990.4L796.236 989.353L797.172 982.718L813.114 984.968L809.649 1009.52C809.546 1010.25 809.578 1010.86 809.744 1011.36C809.909 1011.85 810.136 1012.27 810.425 1012.61C810.75 1012.93 811.119 1013.18 811.529 1013.38C811.977 1013.54 812.416 1013.65 812.845 1013.71C813.868 1013.86 815.089 1013.79 816.507 1013.52L817.459 1020.02C816.771 1020.12 816.118 1020.22 815.501 1020.3C814.916 1020.38 814.32 1020.43 813.712 1020.45C813.104 1020.46 812.465 1020.46 811.796 1020.43C811.126 1020.4 810.395 1020.33 809.603 1020.22ZM834.784 1023.78C833.134 1023.54 831.573 1023.04 830.101 1022.26C828.666 1021.45 827.432 1020.42 826.397 1019.16C825.367 1017.87 824.603 1016.36 824.105 1014.64C823.641 1012.93 823.552 1011.05 823.841 1009C824.13 1006.96 824.735 1005.17 825.656 1003.65C826.611 1002.14 827.759 1000.92 829.101 999.999C830.447 999.045 831.919 998.394 833.517 998.047C835.152 997.672 836.795 997.601 838.445 997.833C840.062 998.062 841.588 998.58 843.023 999.388C844.495 1000.17 845.746 1001.2 846.776 1002.49C847.81 1003.75 848.576 1005.24 849.074 1006.96C849.572 1008.68 849.677 1010.56 849.388 1012.61C849.099 1014.65 848.478 1016.43 847.523 1017.95C846.569 1019.46 845.419 1020.7 844.072 1021.65C842.73 1022.57 841.242 1023.22 839.606 1023.6C838.009 1023.95 836.402 1024 834.784 1023.78ZM835.748 1016.94C837.201 1017.15 838.317 1016.75 839.098 1015.75C839.884 1014.72 840.409 1013.26 840.674 1011.38C840.94 1009.5 840.836 1007.97 840.363 1006.79C839.894 1005.58 838.933 1004.87 837.481 1004.67C836.029 1004.46 834.91 1004.88 834.124 1005.91C833.344 1006.91 832.82 1008.35 832.555 1010.23C832.289 1012.11 832.391 1013.66 832.86 1014.87C833.333 1016.05 834.296 1016.74 835.748 1016.94ZM861.581 1037.35C860.029 1037.13 858.593 1036.81 857.273 1036.39C855.98 1036.01 854.857 1035.5 853.904 1034.86C852.951 1034.22 852.233 1033.46 851.751 1032.58C851.297 1031.75 851.149 1030.76 851.307 1029.64C851.587 1027.66 853.064 1026.26 855.741 1025.42L855.769 1025.22C855.141 1024.66 854.626 1024.02 854.224 1023.29C853.855 1022.56 853.745 1021.67 853.894 1020.62C854.015 1019.76 854.414 1018.96 855.092 1018.21C855.769 1017.46 856.579 1016.85 857.521 1016.38L857.549 1016.18C856.676 1015.45 855.986 1014.5 855.479 1013.32C855.006 1012.14 854.872 1010.82 855.077 1009.37C855.291 1007.85 855.774 1006.57 856.527 1005.54C857.284 1004.46 858.225 1003.64 859.351 1003.06C860.481 1002.44 861.716 1002.04 863.054 1001.86C864.426 1001.68 865.838 1001.7 867.29 1001.9C868.841 1002.12 870.216 1002.52 871.414 1003.09L881.415 1004.5L880.549 1010.64L876.093 1010.01C876.216 1010.33 876.311 1010.73 876.378 1011.21C876.478 1011.7 876.493 1012.19 876.423 1012.69C876.218 1014.14 875.777 1015.35 875.1 1016.34C874.427 1017.29 873.566 1018.02 872.516 1018.55C871.498 1019.08 870.323 1019.42 868.989 1019.56C867.693 1019.68 866.302 1019.64 864.817 1019.43C863.859 1019.3 862.836 1019.03 861.746 1018.64C861.417 1018.83 861.172 1019.02 861.012 1019.2C860.89 1019.35 860.803 1019.6 860.752 1019.97C860.673 1020.53 860.914 1020.97 861.475 1021.28C862.041 1021.56 863.018 1021.8 864.404 1022L868.612 1022.59C871.913 1023.06 874.382 1023.93 876.02 1025.2C877.663 1026.44 878.323 1028.2 878.002 1030.48C877.811 1031.83 877.276 1033 876.396 1033.99C875.544 1035.02 874.402 1035.83 872.97 1036.44C871.538 1037.04 869.851 1037.43 867.91 1037.59C866.001 1037.76 863.891 1037.68 861.581 1037.35ZM865.529 1014.38C866.354 1014.5 867.104 1014.32 867.777 1013.84C868.45 1013.36 868.871 1012.53 869.038 1011.34C869.201 1010.19 869.023 1009.3 868.504 1008.69C867.989 1008.04 867.319 1007.66 866.493 1007.55C865.668 1007.43 864.919 1007.61 864.246 1008.09C863.61 1008.54 863.211 1009.34 863.048 1010.5C862.88 1011.68 863.037 1012.6 863.519 1013.24C864.034 1013.88 864.704 1014.26 865.529 1014.38ZM863.658 1032.29C865.341 1032.53 866.741 1032.51 867.858 1032.23C869.003 1031.99 869.624 1031.52 869.722 1030.83C869.815 1030.17 869.544 1029.71 868.907 1029.45C868.27 1029.19 867.324 1028.97 866.07 1028.8L863.595 1028.45C862.637 1028.31 861.883 1028.17 861.331 1028.03C860.775 1027.92 860.289 1027.78 859.874 1027.62C859.403 1027.86 859.05 1028.09 858.814 1028.33C858.579 1028.56 858.436 1028.86 858.385 1029.23C858.273 1030.02 858.703 1030.67 859.675 1031.18C860.647 1031.68 861.974 1032.06 863.658 1032.29ZM912.243 1034.1L915.736 1009.35L922.667 1010.32L922.842 1013.38L923.04 1013.41C924.166 1012.59 925.454 1011.93 926.905 1011.43C928.361 1010.89 929.996 1010.75 931.812 1011.01C934.551 1011.4 936.418 1012.6 937.411 1014.63C938.409 1016.62 938.691 1019.15 938.258 1022.22L936.107 1037.47L927.591 1036.27L929.589 1022.11C929.785 1020.72 929.712 1019.68 929.372 1019C929.064 1018.31 928.366 1017.89 927.276 1017.74C926.484 1017.63 925.768 1017.7 925.127 1017.94C924.486 1018.19 923.794 1018.56 923.05 1019.06L920.759 1035.3L912.243 1034.1ZM948.544 1048.31L944.357 1043.98C945.949 1042.73 947.342 1041.44 948.537 1040.13C949.765 1038.82 950.8 1037.45 951.641 1036.02C952.52 1034.57 953.225 1033.03 953.755 1031.42C954.289 1029.78 954.692 1028.01 954.962 1026.09C955.232 1024.18 955.335 1022.37 955.271 1020.68C955.211 1018.96 954.958 1017.29 954.512 1015.68C954.104 1014.04 953.491 1012.42 952.673 1010.82C951.888 1009.23 950.904 1007.61 949.723 1005.96L954.943 1002.96C957.697 1006.35 959.714 1010.06 960.994 1014.12C962.311 1018.14 962.644 1022.46 961.992 1027.08C961.34 1031.7 959.822 1035.78 957.438 1039.32C955.092 1042.82 952.127 1045.82 948.544 1048.31Z" fill="#FF9A84"/>
<path d="M1286.11 613.893C1284.65 612.576 1283.55 611.112 1282.8 609.498C1282.08 607.86 1281.75 606.131 1281.83 604.31C1281.92 602.464 1282.42 600.538 1283.33 598.531C1284.29 596.522 1285.71 594.465 1287.61 592.36C1289.44 590.329 1291.28 588.758 1293.13 587.646C1295.03 586.532 1296.89 585.845 1298.69 585.586C1300.49 585.326 1302.24 585.483 1303.92 586.056C1305.62 586.605 1307.21 587.537 1308.67 588.853C1310.13 590.169 1311.22 591.646 1311.94 593.284C1312.69 594.898 1313.03 596.615 1312.96 598.436C1312.89 600.257 1312.38 602.16 1311.45 604.144C1310.56 606.126 1309.2 608.132 1307.37 610.163C1305.48 612.268 1303.57 613.89 1301.64 615.029C1299.77 616.165 1297.92 616.876 1296.09 617.16C1294.29 617.419 1292.53 617.275 1290.83 616.726C1289.15 616.153 1287.57 615.209 1286.11 613.893ZM1291.07 608.394C1292.11 609.331 1293.45 609.485 1295.09 608.857C1296.73 608.228 1298.65 606.7 1300.83 604.273C1302.93 601.945 1304.2 599.944 1304.63 598.269C1305.06 596.594 1304.76 595.288 1303.72 594.351C1302.68 593.414 1301.34 593.248 1299.72 593.852C1298.1 594.455 1296.24 595.921 1294.15 598.25C1291.96 600.677 1290.64 602.74 1290.19 604.44C1289.73 606.139 1290.03 607.457 1291.07 608.394ZM1305.63 642.776C1305.24 638.43 1305.62 634.221 1306.77 630.148C1307.98 626.073 1310.14 622.301 1313.26 618.834C1316.39 615.366 1319.9 612.835 1323.81 611.238C1327.76 609.639 1331.92 608.809 1336.28 608.746L1337.33 614.674C1335.31 614.827 1333.43 615.102 1331.68 615.501C1329.95 615.921 1328.32 616.49 1326.77 617.208C1325.28 617.923 1323.85 618.812 1322.49 619.875C1321.15 620.912 1319.83 622.149 1318.54 623.586C1317.25 625.022 1316.14 626.472 1315.23 627.936C1314.33 629.375 1313.6 630.889 1313.02 632.477C1312.49 634.062 1312.11 635.735 1311.87 637.494C1311.65 639.275 1311.58 641.179 1311.63 643.206L1305.63 642.776ZM1322.3 645.68L1339.03 627.105L1344.23 631.79L1342.67 634.42L1342.82 634.554C1344.21 634.505 1345.65 634.678 1347.13 635.072C1348.64 635.442 1350.07 636.241 1351.43 637.468C1353.49 639.319 1354.36 641.363 1354.05 643.597C1353.77 645.807 1352.59 648.064 1350.51 650.367L1340.21 661.81L1333.82 656.054L1343.39 645.429C1344.32 644.388 1344.84 643.488 1344.94 642.727C1345.07 641.989 1344.73 641.252 1343.91 640.516C1343.31 639.98 1342.68 639.636 1342.01 639.482C1341.35 639.328 1340.56 639.251 1339.67 639.25L1328.69 651.436L1322.3 645.68ZM1354.06 656.116L1373.24 646.476L1378.29 651.027L1370.7 671.108L1365.5 666.423L1367.77 661.065L1370.68 654.54L1370.54 654.406L1364.35 657.986L1359.26 660.801L1354.06 656.116ZM1366.4 685.409L1369.68 681.768C1372.4 681.886 1374.95 681.977 1377.31 682.043C1379.67 682.108 1381.79 682.081 1383.64 681.96C1385.52 681.815 1387.14 681.541 1388.49 681.141C1389.86 680.715 1390.9 680.106 1391.61 679.313C1392.57 678.249 1392.97 677.189 1392.79 676.136C1392.64 675.059 1392.05 674.051 1391.01 673.114C1390.14 672.333 1389.13 671.855 1387.99 671.678C1386.9 671.499 1385.77 671.405 1384.61 671.394L1384.31 664.931C1385.54 664.867 1386.67 664.879 1387.71 664.966C1388.8 665.051 1389.83 665.257 1390.79 665.584C1391.77 665.887 1392.72 666.31 1393.62 666.853C1394.52 667.396 1395.44 668.091 1396.38 668.939C1397.64 670.077 1398.63 671.3 1399.33 672.609C1400.06 673.939 1400.5 675.274 1400.64 676.612C1400.81 677.972 1400.66 679.325 1400.22 680.67C1399.79 681.99 1399.05 683.233 1398 684.397C1397.16 685.338 1396.06 686.103 1394.72 686.692C1393.41 687.256 1391.94 687.687 1390.33 687.983C1388.72 688.28 1387.03 688.463 1385.26 688.531C1383.52 688.622 1381.8 688.641 1380.1 688.589C1380.81 689.094 1381.58 689.679 1382.42 690.344C1383.3 691.006 1384.03 691.593 1384.6 692.106L1389.35 696.39L1384.53 701.739L1366.4 685.409ZM1389.01 717.884L1387.96 711.955C1389.98 711.803 1391.85 711.516 1393.58 711.096C1395.33 710.698 1396.95 710.141 1398.45 709.425C1399.99 708.707 1401.43 707.83 1402.77 706.792C1404.13 705.73 1405.46 704.48 1406.75 703.044C1408.05 701.607 1409.14 700.17 1410.03 698.731C1410.95 697.267 1411.67 695.742 1412.2 694.156C1412.78 692.569 1413.17 690.884 1413.39 689.103C1413.63 687.344 1413.72 685.451 1413.66 683.424L1419.66 683.854C1420.06 688.2 1419.65 692.41 1418.45 696.486C1417.29 700.558 1415.15 704.328 1412.03 707.796C1408.9 711.263 1405.37 713.796 1401.41 715.395C1397.51 716.992 1393.37 717.821 1389.01 717.884Z" fill="#FF9A84"/>
<path d="M901.289 842.934C899.462 843.661 897.661 844.002 895.884 843.956C894.095 843.879 892.4 843.407 890.798 842.538C889.184 841.638 887.679 840.336 886.282 838.632C884.904 836.884 883.691 834.694 882.643 832.062C881.631 829.523 881.037 827.176 880.861 825.021C880.703 822.824 880.907 820.859 881.473 819.127C882.039 817.394 882.951 815.901 884.209 814.646C885.455 813.36 886.992 812.354 888.819 811.626C890.646 810.898 892.454 810.573 894.243 810.649C896.019 810.695 897.708 811.153 899.31 812.022C900.912 812.891 902.396 814.183 903.761 815.9C905.145 817.573 906.343 819.679 907.355 822.219C908.403 824.851 909.012 827.281 909.182 829.51C909.371 831.695 909.189 833.67 908.635 835.433C908.069 837.165 907.163 838.674 905.917 839.96C904.659 841.215 903.116 842.206 901.289 842.934ZM898.551 836.059C899.852 835.541 900.584 834.406 900.747 832.655C900.911 830.903 900.388 828.51 899.179 825.475C898.02 822.564 896.785 820.545 895.474 819.416C894.163 818.288 892.858 817.982 891.557 818.501C890.257 819.019 889.518 820.138 889.343 821.858C889.167 823.579 889.659 825.895 890.818 828.806C892.027 831.84 893.293 833.937 894.616 835.097C895.939 836.256 897.25 836.577 898.551 836.059ZM935.827 838.219C931.756 836.647 928.151 834.441 925.01 831.601C921.889 828.719 919.464 825.11 917.737 820.774C916.011 816.439 915.296 812.167 915.593 807.958C915.908 803.706 917.004 799.61 918.879 795.67L924.661 797.349C923.903 799.23 923.315 801.043 922.898 802.788C922.512 804.52 922.299 806.238 922.259 807.94C922.238 809.599 922.403 811.273 922.753 812.964C923.091 814.623 923.618 816.351 924.333 818.147C925.049 819.943 925.86 821.575 926.768 823.043C927.664 824.481 928.695 825.81 929.864 827.031C931.05 828.209 932.38 829.294 933.851 830.287C935.354 831.267 937.027 832.179 938.87 833.024L935.827 838.219ZM945.81 824.555L936.558 801.329L943.062 798.739L944.729 801.304L944.915 801.23C945.486 799.962 946.277 798.75 947.288 797.594C948.286 796.407 949.637 795.474 951.34 794.796C953.91 793.772 956.129 793.893 957.997 795.158C959.852 796.393 961.353 798.45 962.5 801.33L968.199 815.637L960.209 818.819L954.918 805.534C954.4 804.233 953.822 803.369 953.185 802.941C952.579 802.501 951.765 802.484 950.743 802.891C950 803.187 949.411 803.601 948.977 804.133C948.543 804.664 948.128 805.332 947.73 806.136L953.799 821.372L945.81 824.555ZM984.378 818.88L978.596 817.2C979.354 815.32 979.926 813.513 980.312 811.78C980.729 810.035 980.949 808.334 980.97 806.675C981.009 804.973 980.86 803.292 980.522 801.632C980.172 799.942 979.639 798.199 978.923 796.403C978.208 794.607 977.402 792.99 976.507 791.553C975.599 790.084 974.552 788.761 973.365 787.583C972.197 786.362 970.862 785.262 969.359 784.282C967.887 783.289 966.23 782.371 964.386 781.526L967.43 776.331C971.501 777.903 975.097 780.13 978.218 783.013C981.359 785.853 983.792 789.44 985.519 793.775C987.246 798.111 987.952 802.405 987.636 806.657C987.339 810.865 986.253 814.94 984.378 818.88Z" fill="#FF9A84"/>
<rect x="519.075" y="644" width="100" height="300" rx="10" transform="rotate(15.8776 519.075 644)" fill="#FF9A84"/>
<path d="M503.73 844.449L504.802 840.679C506.798 839.805 508.656 838.975 510.376 838.189C512.097 837.403 513.603 836.639 514.896 835.898C516.195 835.131 517.258 834.366 518.085 833.603C518.919 832.814 519.453 832.01 519.687 831.189C520 830.086 519.91 829.187 519.414 828.491C518.926 827.77 518.144 827.257 517.066 826.95C516.169 826.695 515.278 826.705 514.396 826.981C513.547 827.238 512.704 827.567 511.87 827.967L509.375 823.432C510.232 822.955 511.05 822.564 511.83 822.259C512.643 821.935 513.452 821.722 514.258 821.618C515.071 821.489 515.897 821.461 516.736 821.533C517.575 821.605 518.481 821.78 519.456 822.057C520.764 822.429 521.902 822.961 522.87 823.652C523.863 824.351 524.646 825.156 525.219 826.067C525.817 826.986 526.192 828.007 526.343 829.132C526.502 830.23 526.41 831.382 526.067 832.588C525.79 833.563 525.275 834.497 524.521 835.392C523.775 836.261 522.875 837.086 521.821 837.868C520.767 838.649 519.618 839.376 518.373 840.047C517.154 840.727 515.924 841.347 514.683 841.909C515.372 842.022 516.134 842.169 516.969 842.351C517.837 842.515 518.567 842.681 519.156 842.849L524.081 844.249L522.505 849.79L503.73 844.449Z" fill="#FF7A68"/>
<path d="M549.253 720.661C547.817 720.252 546.585 719.611 545.559 718.737C544.539 717.837 543.76 716.728 543.22 715.41C542.68 714.092 542.405 712.572 542.396 710.851C542.386 709.129 542.677 707.229 543.268 705.152C543.859 703.074 544.608 701.319 545.514 699.886C546.429 698.427 547.455 697.304 548.593 696.519C549.738 695.708 550.974 695.214 552.3 695.037C553.633 694.834 555.018 694.937 556.454 695.345C557.89 695.754 559.122 696.395 560.149 697.269C561.183 698.118 561.973 699.188 562.52 700.481C563.075 701.747 563.357 703.242 563.366 704.963C563.383 706.659 563.096 708.546 562.505 710.624C561.914 712.701 561.162 714.469 560.248 715.928C559.334 717.387 558.3 718.535 557.147 719.371C555.994 720.208 554.748 720.741 553.407 720.969C552.074 721.172 550.69 721.07 549.253 720.661ZM550.698 715.582C551.211 715.728 551.718 715.748 552.22 715.641C552.747 715.542 553.258 715.257 553.752 714.788C554.279 714.3 554.787 713.585 555.277 712.643C555.766 711.701 556.226 710.473 556.657 708.96C557.087 707.447 557.339 706.174 557.411 705.141C557.483 704.108 557.416 703.271 557.21 702.63C557.037 701.971 556.749 701.473 556.345 701.136C555.968 700.807 555.522 700.57 555.009 700.424C554.497 700.278 553.98 700.242 553.46 700.316C552.966 700.397 552.459 700.668 551.939 701.131C551.452 701.574 550.968 702.254 550.485 703.171C550.003 704.087 549.546 705.302 549.116 706.815C548.686 708.329 548.431 709.615 548.351 710.673C548.272 711.732 548.315 712.604 548.481 713.288C548.679 713.955 548.964 714.465 549.334 714.82C549.73 715.183 550.185 715.437 550.698 715.582ZM552.011 710.966C551.113 710.71 550.45 710.217 550.02 709.484C549.617 708.76 549.546 707.936 549.809 707.012C550.071 706.089 550.565 705.425 551.29 705.021C552.04 704.625 552.864 704.554 553.762 704.81C554.66 705.065 555.31 705.555 555.714 706.28C556.144 707.012 556.227 707.84 555.964 708.763C555.702 709.687 555.195 710.346 554.445 710.743C553.72 711.147 552.909 711.221 552.011 710.966Z" fill="#FF7A68"/>
<path d="M494.16 910.844C492.083 910.253 490.349 909.428 488.96 908.367C487.596 907.314 486.58 906.11 485.911 904.755L490.094 901.454C490.718 902.38 491.455 903.199 492.306 903.913C493.164 904.6 494.055 905.075 494.978 905.338C496.183 905.681 497.213 905.766 498.066 905.592C498.945 905.427 499.494 904.959 499.713 904.189C499.844 903.728 499.858 903.288 499.755 902.871C499.678 902.461 499.419 902.054 498.979 901.652C498.539 901.25 497.901 900.86 497.066 900.484C496.23 900.108 495.132 899.726 493.773 899.339L495.086 894.723C497.292 895.35 498.913 895.548 499.95 895.316C500.993 895.058 501.635 894.506 501.876 893.66C502.088 892.916 501.975 892.288 501.539 891.775C501.11 891.237 500.408 890.83 499.433 890.553C498.535 890.297 497.667 890.231 496.828 890.352C495.99 890.474 495.052 890.748 494.016 891.174L491.846 886.232C493.387 885.589 494.927 885.195 496.465 885.051C498.036 884.888 499.617 885.032 501.207 885.485C502.618 885.886 503.857 886.405 504.923 887.041C505.99 887.677 506.85 888.407 507.503 889.23C508.163 890.028 508.587 890.925 508.775 891.921C508.996 892.898 508.95 893.939 508.636 895.042C508.3 896.222 507.624 897.138 506.606 897.791C505.614 898.452 504.304 898.869 502.674 899.043L502.63 899.197C504.019 900.064 505.063 901.123 505.76 902.375C506.49 903.608 506.637 904.994 506.199 906.533C505.871 907.688 505.297 908.633 504.477 909.371C503.69 910.089 502.748 910.625 501.649 910.978C500.551 911.331 499.355 911.49 498.062 911.455C496.769 911.42 495.468 911.216 494.16 910.844Z" fill="#FF7A68"/>
<path d="M522.556 781.186L524.066 775.877L530.453 777.693L534.042 765.074L528.656 763.542L529.816 759.464C530.724 759.583 531.534 759.661 532.245 759.697C532.955 759.733 533.606 759.738 534.195 759.711C534.818 759.667 535.393 759.594 535.92 759.495C536.473 759.403 537.05 759.276 537.651 759.114L542.498 760.493L537.07 779.576L542.303 781.064L540.793 786.373L522.556 781.186Z" fill="#FF7A68"/>
<path d="M639.875 731.024L620.462 736.258L622.348 729.624L600.458 723.398L602.439 716.433L624.33 722.659L625.933 717.021L639.875 731.024Z" fill="#FF9A84"/>
<path d="M621.819 794.506L602.405 799.74L604.292 793.106L582.402 786.88L584.383 779.915L606.273 786.141L607.877 780.503L621.819 794.506Z" fill="#FF9A84"/>
<path d="M585.706 921.47L566.292 926.703L568.179 920.07L546.289 913.844L548.27 906.879L570.16 913.105L571.764 907.466L585.706 921.47Z" fill="#FF9A84"/>
<path d="M708.385 819.129L688.971 824.362L690.858 817.729L668.968 811.502L670.949 804.537L692.839 810.763L694.443 805.125L708.385 819.129Z" fill="#FF9A84"/>
<rect x="645.253" y="712.119" width="50" height="40" rx="10" transform="rotate(15.8776 645.253 712.119)" fill="#FF9A84"/>
<rect x="627.196" y="775.601" width="50" height="40" rx="10" transform="rotate(15.8776 627.196 775.601)" fill="#FF9A84"/>
<rect x="713.763" y="800.224" width="50" height="40" rx="10" transform="rotate(15.8776 713.763 800.224)" fill="#FF9A84"/>
<rect x="591.083" y="902.565" width="50" height="40" rx="10" transform="rotate(15.8776 591.083 902.565)" fill="#FF9A84"/>
<path d="M661.94 739.239L661.282 740.455L664.629 741.407L664.71 740.027C664.755 739.063 664.801 738.025 664.846 736.916C664.916 735.792 664.982 734.719 665.044 733.697L664.929 733.664C664.444 734.566 663.935 735.513 663.404 736.505C662.896 737.484 662.409 738.395 661.94 739.239ZM652.161 746.314L663.152 729.166L669.154 730.873L669.474 751.238L664.223 749.744L664.432 745.5L659.296 744.039L657.24 747.758L652.161 746.314Z" fill="#FF7A68"/>
<path d="M635.951 810.321L641.286 791.565L647.981 793.469C648.962 793.748 649.854 794.085 650.656 794.48C651.484 794.86 652.166 795.314 652.702 795.841C653.238 796.368 653.602 796.991 653.792 797.711C653.988 798.411 653.955 799.223 653.692 800.146C653.577 800.55 653.392 800.945 653.137 801.33C652.907 801.701 652.602 802.04 652.223 802.348C651.869 802.643 651.449 802.877 650.963 803.051C650.477 803.224 649.946 803.302 649.369 803.283L649.336 803.399C650.587 804.045 651.438 804.818 651.889 805.716C652.366 806.6 652.426 807.667 652.07 808.917C651.797 809.879 651.366 810.661 650.779 811.264C650.217 811.852 649.533 812.281 648.729 812.552C647.949 812.808 647.086 812.916 646.141 812.876C645.196 812.836 644.223 812.674 643.223 812.389L635.951 810.321ZM644.148 800.364L645.764 800.823C646.572 801.053 647.211 801.037 647.68 800.776C648.15 800.514 648.467 800.095 648.631 799.518C648.795 798.941 648.73 798.475 648.435 798.121C648.141 797.767 647.59 797.475 646.782 797.245L645.166 796.785L644.148 800.364ZM641.998 807.924L643.96 808.482C644.941 808.761 645.695 808.778 646.223 808.533C646.769 808.293 647.141 807.827 647.338 807.134C647.535 806.442 647.456 805.879 647.101 805.445C646.765 805.017 646.107 804.663 645.126 804.384L643.163 803.826L641.998 807.924Z" fill="#FF7A68"/>
<path d="M730.903 837.703C729.729 837.369 728.659 836.857 727.691 836.165C726.748 835.46 725.975 834.596 725.372 833.572C724.794 832.534 724.424 831.348 724.263 830.013C724.127 828.664 724.286 827.191 724.74 825.595C725.189 824.017 725.826 822.691 726.652 821.616C727.483 820.522 728.43 819.678 729.492 819.087C730.56 818.475 731.715 818.107 732.956 817.982C734.198 817.857 735.454 817.975 736.723 818.336C737.935 818.681 738.961 819.243 739.799 820.022C740.644 820.782 741.312 821.575 741.805 822.402L738.222 824.689C737.889 824.178 737.513 823.749 737.092 823.4C736.671 823.052 736.143 822.787 735.508 822.607C734.931 822.443 734.357 822.415 733.786 822.522C733.215 822.63 732.681 822.863 732.184 823.221C731.687 823.578 731.237 824.064 730.834 824.677C730.431 825.29 730.109 826.02 729.868 826.866C729.365 828.636 729.383 830.107 729.923 831.28C730.463 832.452 731.367 833.219 732.637 833.58C733.252 833.755 733.849 833.779 734.425 833.652C735.027 833.511 735.593 833.277 736.122 832.949L737.981 836.722C736.93 837.421 735.8 837.848 734.591 838.003C733.402 838.164 732.172 838.064 730.903 837.703Z" fill="#FF7A68"/>
<path d="M599.838 937.285L605.173 918.529L610.569 920.064C611.916 920.447 613.098 920.97 614.115 921.634C615.132 922.297 615.938 923.119 616.533 924.099C617.127 925.079 617.479 926.219 617.588 927.518C617.715 928.823 617.544 930.302 617.074 931.957C616.603 933.611 615.977 934.972 615.195 936.039C614.413 937.106 613.509 937.909 612.482 938.448C611.475 938.994 610.38 939.296 609.199 939.355C608.018 939.414 606.792 939.263 605.523 938.902L599.838 937.285ZM605.934 934.714L606.107 934.764C606.704 934.933 607.283 935.015 607.847 935.009C608.434 934.989 608.978 934.832 609.478 934.537C609.977 934.243 610.444 933.772 610.877 933.126C611.311 932.48 611.683 931.609 611.995 930.512C612.307 929.416 612.446 928.488 612.412 927.73C612.378 926.972 612.224 926.346 611.948 925.852C611.673 925.358 611.285 924.967 610.785 924.679C610.309 924.377 609.773 924.141 609.177 923.972L609.004 923.923L605.934 934.714Z" fill="#FF7A68"/>
<rect x="1408.92" y="459.133" width="200" height="60" rx="10" transform="rotate(8.06591 1408.92 459.133)" fill="#FF9A84"/>
<path d="M1487.23 521.741L1488.39 513.543L1498.25 514.94L1501.01 495.455L1492.69 494.276L1493.59 487.979C1494.96 487.972 1496.18 487.923 1497.24 487.831C1498.31 487.739 1499.27 487.614 1500.15 487.454C1501.06 487.261 1501.9 487.037 1502.66 486.781C1503.47 486.531 1504.3 486.225 1505.16 485.862L1512.64 486.923L1508.47 516.388L1516.55 517.533L1515.39 525.731L1487.23 521.741Z" fill="#FF7A68"/>
<rect x="1420.14" y="379.925" width="200" height="60" rx="10" transform="rotate(8.06591 1420.14 379.925)" fill="#FF9A84"/>
<path d="M1497.26 442.364L1498.09 436.542C1500.88 434.837 1503.47 433.224 1505.86 431.706C1508.26 430.187 1510.34 428.745 1512.11 427.379C1513.89 425.975 1515.31 424.621 1516.38 423.319C1517.46 421.977 1518.09 420.672 1518.27 419.405C1518.51 417.702 1518.2 416.384 1517.32 415.452C1516.45 414.48 1515.18 413.876 1513.51 413.64C1512.13 413.444 1510.81 413.64 1509.55 414.23C1508.34 414.786 1507.16 415.446 1506 416.211L1501.37 409.98C1502.54 409.096 1503.68 408.348 1504.78 407.736C1505.92 407.09 1507.08 406.607 1508.25 406.289C1509.44 405.932 1510.66 405.721 1511.92 405.657C1513.18 405.594 1514.56 405.669 1516.07 405.882C1518.09 406.168 1519.89 406.726 1521.47 407.556C1523.09 408.391 1524.41 409.428 1525.45 410.666C1526.53 411.909 1527.29 413.35 1527.75 414.99C1528.21 416.591 1528.3 418.322 1528.04 420.183C1527.83 421.688 1527.25 423.182 1526.31 424.665C1525.38 426.109 1524.21 427.519 1522.81 428.895C1521.4 430.271 1519.84 431.585 1518.13 432.837C1516.45 434.095 1514.75 435.268 1513.02 436.356C1514.07 436.383 1515.23 436.447 1516.51 436.547C1517.83 436.614 1518.95 436.711 1519.86 436.84L1527.47 437.918L1526.25 446.473L1497.26 442.364Z" fill="#FF7A68"/>
<rect x="1381.87" y="306.694" width="200" height="60" rx="10" transform="rotate(2.06591 1381.87 306.694)" fill="#FF9A84"/>
<path d="M1478.51 361.933C1475.27 361.816 1472.45 361.234 1470.04 360.187C1467.68 359.141 1465.77 357.751 1464.31 356.017L1469.22 349.71C1470.46 350.836 1471.83 351.766 1473.32 352.5C1474.82 353.194 1476.29 353.568 1477.72 353.62C1479.6 353.687 1481.13 353.442 1482.31 352.884C1483.54 352.328 1484.17 351.45 1484.21 350.251C1484.24 349.532 1484.1 348.886 1483.8 348.315C1483.54 347.745 1483.02 347.246 1482.23 346.818C1481.45 346.389 1480.38 346.05 1479.03 345.801C1477.68 345.552 1475.94 345.39 1473.82 345.313L1474.08 338.118C1477.52 338.242 1479.95 337.95 1481.38 337.241C1482.81 336.492 1483.54 335.457 1483.59 334.138C1483.63 332.979 1483.24 332.104 1482.42 331.515C1481.61 330.885 1480.44 330.542 1478.92 330.488C1477.52 330.437 1476.23 330.651 1475.05 331.129C1473.88 331.606 1472.61 332.341 1471.25 333.333L1466.32 326.911C1468.34 325.423 1470.44 324.298 1472.63 323.536C1474.86 322.736 1477.21 322.381 1479.69 322.47C1481.89 322.549 1483.88 322.861 1485.66 323.406C1487.44 323.95 1488.95 324.706 1490.2 325.671C1491.45 326.597 1492.39 327.751 1493.02 329.135C1493.69 330.48 1493.99 332.012 1493.93 333.731C1493.87 335.57 1493.21 337.147 1491.96 338.463C1490.75 339.78 1488.99 340.857 1486.68 341.695L1486.67 341.934C1489.01 342.699 1490.9 343.868 1492.37 345.442C1493.87 346.977 1494.58 348.944 1494.5 351.343C1494.43 353.142 1493.94 354.725 1493.01 356.092C1492.12 357.421 1490.94 358.539 1489.46 359.446C1487.99 360.354 1486.3 361.014 1484.41 361.425C1482.51 361.837 1480.54 362.007 1478.51 361.933Z" fill="#FF7A68"/>
<path d="M748.116 184.569L718.992 149.951L734.314 147.494L726.206 96.9328L742.294 94.3531L750.401 144.914L763.424 142.826L748.116 184.569Z" fill="#FF9A84"/>
<path d="M548.516 339.12L577.641 373.739L562.319 376.196L570.427 426.757L554.339 429.336L546.232 378.775L533.208 380.864L548.516 339.12Z" fill="#FF9A84"/>
<rect x="483.149" y="239.21" width="100" height="100" rx="10" transform="rotate(-9.10976 483.149 239.21)" fill="#FF9A84"/>
<path d="M522.989 315.869L520.804 302.243L537.195 299.615L532.002 267.228L518.178 269.445L516.5 258.979C518.685 258.291 520.602 257.612 522.25 256.943C523.898 256.273 525.377 255.597 526.685 254.915C528.049 254.156 529.276 253.385 530.365 252.603C531.521 251.81 532.694 250.913 533.884 249.912L546.325 247.917L554.178 296.891L567.606 294.738L569.791 308.364L522.989 315.869Z" fill="#FF7A68"/>
<rect x="591.762" y="221.794" width="100" height="100" rx="10" transform="rotate(-9.10976 591.762 221.794)" fill="#FF9A84"/>
<path d="M629.627 298.77L628.075 289.093C631.673 285.005 635.007 281.162 638.076 277.564C641.145 273.966 643.752 270.645 645.897 267.6C648.032 264.49 649.633 261.634 650.701 259.032C651.759 256.364 652.119 253.977 651.781 251.87C651.327 249.04 650.172 247.098 648.315 246.046C646.448 244.927 644.132 244.59 641.367 245.033C639.063 245.402 637.057 246.366 635.348 247.922C633.695 249.403 632.134 251.037 630.666 252.826L620.224 245.182C621.661 243.197 623.102 241.446 624.547 239.932C626.047 238.341 627.656 237.003 629.372 235.917C631.078 234.766 632.92 233.829 634.897 233.107C636.874 232.385 639.114 231.823 641.615 231.422C644.972 230.884 648.112 230.887 651.035 231.431C654.024 231.964 656.648 232.961 658.908 234.422C661.234 235.872 663.162 237.791 664.693 240.179C666.213 242.501 667.221 245.209 667.717 248.302C668.118 250.804 667.937 253.466 667.175 256.289C666.401 259.046 665.233 261.867 663.67 264.751C662.107 267.634 660.27 270.495 658.159 273.331C656.114 276.157 653.982 278.862 651.763 281.446C653.443 280.974 655.326 280.504 657.411 280.034C659.552 279.489 661.379 279.094 662.893 278.851L675.531 276.825L677.811 291.043L629.627 298.77Z" fill="#FF7A68"/>
<rect x="700.374" y="204.378" width="100" height="100" rx="10" transform="rotate(-9.10976 700.374 204.378)" fill="#FF9A84"/>
<path d="M760.547 278.992C755.215 279.847 750.415 279.807 746.146 278.871C741.943 277.924 738.369 276.269 735.425 273.905L741.416 262.007C743.808 263.446 746.344 264.525 749.025 265.243C751.695 265.895 754.215 266.031 756.585 265.651C759.678 265.155 762.101 264.26 763.851 262.967C765.668 261.663 766.418 260.023 766.101 258.049C765.911 256.864 765.479 255.853 764.804 255.016C764.196 254.168 763.181 253.52 761.758 253.073C760.336 252.626 758.48 252.417 756.189 252.447C753.898 252.477 751.008 252.772 747.52 253.331L745.62 241.482C751.281 240.575 755.163 239.311 757.266 237.691C759.359 236.005 760.231 234.075 759.883 231.903C759.577 229.994 758.659 228.69 757.129 227.99C755.588 227.224 753.567 227.042 751.066 227.443C748.762 227.812 746.724 228.578 744.952 229.74C743.18 230.902 741.346 232.513 739.448 234.572L729.31 225.665C732.124 222.581 735.197 220.062 738.53 218.11C741.918 216.081 745.653 214.74 749.734 214.085C753.354 213.505 756.709 213.372 759.798 213.687C762.887 214.002 765.606 214.747 767.955 215.924C770.293 217.034 772.202 218.619 773.68 220.677C775.213 222.66 776.206 225.066 776.66 227.896C777.146 230.924 776.581 233.716 774.965 236.27C773.415 238.815 770.885 241.145 767.376 243.26L767.439 243.655C771.502 244.151 774.985 245.45 777.887 247.55C780.845 249.574 782.641 252.561 783.274 256.51C783.749 259.472 783.447 262.221 782.368 264.758C781.345 267.217 779.775 269.427 777.659 271.387C775.542 273.347 773 274.97 770.033 276.256C767.066 277.542 763.904 278.454 760.547 278.992Z" fill="#FF7A68"/>
<rect x="808.987" y="186.962" width="100" height="100" rx="10" transform="rotate(-9.10976 808.987 186.962)" fill="#FF9A84"/>
<path d="M872.326 259.853L870.078 245.832L840.753 250.534L838.853 238.686L857.154 198.076L878.087 194.719L883.818 230.463L891.026 229.307L893.084 242.143L885.876 243.299L888.125 257.32L872.326 259.853ZM854.69 235.133L868.02 232.996L866.88 225.887C866.711 224.834 866.526 223.682 866.326 222.431C866.181 221.104 866.035 219.777 865.89 218.45C865.745 217.123 865.605 215.829 865.47 214.567C865.325 213.24 865.201 212.045 865.098 210.981L864.703 211.044C863.956 213.122 863.104 215.183 862.149 217.227C861.194 219.27 860.31 221.336 859.497 223.425L854.69 235.133Z" fill="#FF7A68"/>
<rect x="917.6" y="169.546" width="100" height="100" rx="10" transform="rotate(-9.10976 917.6 169.546)" fill="#FF9A84"/>
<path d="M976.39 244.382C970.992 245.247 966.219 245.169 962.072 244.146C957.979 243.047 954.378 241.43 951.267 239.295L957.062 227.428C959.377 228.812 961.743 229.885 964.16 230.645C966.644 231.394 969.136 231.569 971.637 231.168C974.929 230.64 977.423 229.565 979.121 227.942C980.819 226.319 981.446 224.126 981.003 221.361C980.57 218.662 979.294 216.808 977.174 215.797C975.043 214.721 972.596 214.405 969.831 214.848C968.909 214.996 968.064 215.199 967.295 215.457C966.582 215.639 965.879 215.887 965.186 216.2C964.56 216.503 963.883 216.916 963.157 217.437C962.43 217.959 961.588 218.6 960.629 219.362L952.563 215.794L948.981 183.352L988.477 177.019L990.757 191.237L965.874 195.227L966.541 204.437C967.794 203.831 968.904 203.383 969.87 203.093C970.902 202.793 972.044 202.542 973.294 202.342C976.125 201.888 978.887 201.85 981.581 202.228C984.341 202.596 986.835 203.411 989.063 204.675C991.291 205.938 993.193 207.692 994.768 209.938C996.343 212.183 997.395 214.952 997.923 218.243C998.482 221.732 998.292 224.969 997.353 227.956C996.414 230.942 994.946 233.574 992.948 235.853C990.94 238.065 988.501 239.908 985.631 241.381C982.761 242.854 979.681 243.854 976.39 244.382Z" fill="#FF7A68"/>
<rect x="785" y="365" width="350" height="350" rx="40" fill="#FF6A56"/>
<path d="M907.613 563.425L906.094 535.748L914.502 540.185L929.146 512.438L937.975 517.097L923.331 544.845L930.478 548.617L907.613 563.425Z" fill="#FF8368"/>
<path d="M1012.51 563.425L1014.03 535.748L1005.62 540.185L990.976 512.438L982.147 517.097L996.791 544.845L989.644 548.617L1012.51 563.425Z" fill="#FF8368"/>
<circle cx="1034" cy="617" r="55" fill="#FF8368"/>
<path d="M1033.6 654.2C1029.33 654.2 1024.97 653.467 1020.5 652C1016.1 650.467 1012.07 648.1 1008.4 644.9L1018.2 633.1C1020.67 634.967 1023.3 636.5 1026.1 637.7C1028.9 638.833 1031.8 639.4 1034.8 639.4C1037.4 639.4 1039.23 639.033 1040.3 638.3C1041.43 637.567 1042 636.667 1042 635.6C1042 634.667 1041.77 633.9 1041.3 633.3C1040.9 632.633 1040.3 632.067 1039.5 631.6C1038.7 631.067 1037.7 630.567 1036.5 630.1C1035.37 629.633 1034.07 629.1 1032.6 628.5L1024.5 625.1C1022.63 624.433 1020.87 623.567 1019.2 622.5C1017.53 621.367 1016.07 620.067 1014.8 618.6C1013.6 617.067 1012.63 615.333 1011.9 613.4C1011.17 611.467 1010.8 609.333 1010.8 607C1010.8 604.2 1011.4 601.6 1012.6 599.2C1013.8 596.733 1015.47 594.6 1017.6 592.8C1019.8 590.933 1022.4 589.467 1025.4 588.4C1028.47 587.333 1031.87 586.8 1035.6 586.8C1039.47 586.8 1043.33 587.5 1047.2 588.9C1051.07 590.3 1054.6 592.5 1057.8 595.5L1049.2 606.3C1046.87 604.767 1044.6 603.6 1042.4 602.8C1040.27 602 1037.67 601.6 1034.6 601.6C1032.67 601.6 1031.1 601.967 1029.9 602.7C1028.77 603.367 1028.2 604.467 1028.2 606C1028.2 606.733 1028.43 607.4 1028.9 608C1029.37 608.533 1030.03 609.033 1030.9 609.5C1031.77 609.967 1032.83 610.433 1034.1 610.9C1035.37 611.367 1036.8 611.9 1038.4 612.5L1045.9 615.6C1050.3 617.2 1053.67 619.433 1056 622.3C1058.4 625.167 1059.6 628.867 1059.6 633.4C1059.6 636.133 1059.03 638.767 1057.9 641.3C1056.77 643.833 1055.1 646.067 1052.9 648C1050.7 649.867 1047.97 651.367 1044.7 652.5C1041.5 653.633 1037.8 654.2 1033.6 654.2Z" fill="#FFB4A9"/>
<circle cx="885" cy="617" r="55" fill="#FF8368"/>
<path d="M861.4 653V588H880.1C884.767 588 889.033 588.6 892.9 589.8C896.767 591 900.1 592.9 902.9 595.5C905.7 598.1 907.867 601.433 909.4 605.5C911 609.567 911.8 614.467 911.8 620.2C911.8 625.933 911.033 630.867 909.5 635C907.967 639.133 905.8 642.533 903 645.2C900.267 647.867 897.033 649.833 893.3 651.1C889.567 652.367 885.5 653 881.1 653H861.4ZM878.6 639.2H879.2C881.267 639.2 883.2 638.933 885 638.4C886.867 637.8 888.467 636.8 889.8 635.4C891.133 634 892.2 632.067 893 629.6C893.8 627.133 894.2 624 894.2 620.2C894.2 616.4 893.8 613.3 893 610.9C892.2 608.5 891.133 606.633 889.8 605.3C888.467 603.967 886.867 603.067 885 602.6C883.2 602.067 881.267 601.8 879.2 601.8H878.6V639.2Z" fill="#FFB4A9"/>
<circle cx="960" cy="463" r="55" fill="#FF8368"/>
<path d="M954.9 467.4L953.9 471.9H965.5L964.5 467.4C963.767 464.267 962.967 460.9 962.1 457.3C961.3 453.633 960.533 450.133 959.8 446.8H959.4C958.667 450.133 957.9 453.633 957.1 457.3C956.367 460.9 955.633 464.267 954.9 467.4ZM930 499L949.6 434H970.4L990 499H971.8L968.6 485.2H950.8L947.6 499H930Z" fill="#FFB4A9"/>
<circle cx="154" cy="111" r="49" fill="#FF8368"/>
<circle cx="1728.5" cy="268.5" r="27.5" fill="#FF8368"/>
<circle cx="1833" cy="644" r="55" fill="#FF8368"/>
<circle cx="1777.5" cy="772.5" r="21.5" fill="#FF8368"/>
<circle cx="239.5" cy="1000.5" r="36.5" fill="#FF8368"/>
</g>
<defs>
<clipPath id="clip0_2:2">
<rect width="1920" height="1080" fill="white"/>
</clipPath>
<clipPath id="clip1_2:2">
<rect width="143" height="55" fill="white" transform="translate(1110 853)"/>
</clipPath>
</defs>
</svg>
