<svg width="1969" height="1004" viewBox="0 0 1969 1004" fill="none" xmlns="http://www.w3.org/2000/svg">
<rect x="202" y="376" width="200" height="200" rx="20" fill="#FF6F66"/>
<path d="M304.2 476.2C306.733 476.2 309.4 475.933 312.2 475.4C315 474.867 317.267 474.133 319 473.2C319.133 472.133 319.2 470.867 319.2 469.4C319.333 467.8 319.4 466.267 319.4 464.8C319.4 461.467 319.067 458.133 318.4 454.8C317.867 451.333 316.867 448.2 315.4 445.4C314.067 442.6 312.2 440.333 309.8 438.6C307.533 436.867 304.667 436 301.2 436C298.267 436 295.733 436.6 293.6 437.8C291.6 438.867 289.933 440.333 288.6 442.2C287.4 444.067 286.467 446.267 285.8 448.8C285.267 451.333 285 454 285 456.8C285 463.067 286.467 467.867 289.4 471.2C292.333 474.533 297.267 476.2 304.2 476.2ZM301 496.6C293.8 496.6 287.667 495.6 282.6 493.6C277.533 491.467 273.4 488.6 270.2 485C267 481.4 264.667 477.267 263.2 472.6C261.733 467.8 261 462.667 261 457.2C261 452.4 261.8 447.533 263.4 442.6C265.133 437.533 267.6 433 270.8 429C274.133 424.867 278.267 421.533 283.2 419C288.133 416.333 293.933 415 300.6 415C314.467 415 325.067 419.667 332.4 429C339.733 438.333 343.4 451.333 343.4 468C343.4 480 341.667 490.667 338.2 500C334.733 509.2 329.733 516.933 323.2 523.2C316.8 529.467 309 534.267 299.8 537.6C290.733 540.8 280.6 542.4 269.4 542.4L268.6 521.2C279.267 521.067 288.8 518.8 297.2 514.4C305.6 509.867 311.533 502.8 315 493.2C309.8 495.467 305.133 496.6 301 496.6Z" fill="white"/>
<rect x="475" y="376" width="200" height="200" rx="20" fill="#FF8266"/>
<path d="M582 449C579.6 452.067 577.133 455.333 574.6 458.8C572.067 462.267 569.533 465.933 567 469.8C564.6 473.533 562.267 477.333 560 481.2C557.733 485.067 555.733 488.867 554 492.6H582V449ZM606.6 418.2V492.6H620V512.8H606.6V542H582V512.8H530.4V494.8C532.933 489.6 536.2 483.733 540.2 477.2C544.2 470.533 548.6 463.733 553.4 456.8C558.2 449.867 563.267 443.067 568.6 436.4C573.933 429.6 579.267 423.533 584.6 418.2H606.6Z" fill="white"/>
<rect x="748" y="376" width="200" height="200" rx="20" fill="#FF8266"/>
<path d="M887.2 447.6C887.2 453.333 885.8 459 883 464.6C880.2 470.067 875.8 474.667 869.8 478.4C877.4 482.8 882.733 487.6 885.8 492.8C889 498 890.6 503.733 890.6 510C890.6 514 889.8 518.067 888.2 522.2C886.733 526.333 884.267 530.067 880.8 533.4C877.467 536.6 873.067 539.267 867.6 541.4C862.133 543.533 855.4 544.6 847.4 544.6C841.133 544.6 835.4 543.8 830.2 542.2C825.133 540.733 820.733 538.6 817 535.8C813.4 532.867 810.6 529.333 808.6 525.2C806.6 520.933 805.6 516.2 805.6 511C805.6 504.733 807.067 498.867 810 493.4C812.933 487.8 817.533 482.867 823.8 478.6C817.933 474.6 813.933 470.333 811.8 465.8C809.667 461.267 808.6 456.467 808.6 451.4C808.6 447.4 809.267 443.267 810.6 439C812.067 434.6 814.333 430.667 817.4 427.2C820.467 423.733 824.533 420.867 829.6 418.6C834.667 416.333 840.933 415.2 848.4 415.2C860.267 415.2 869.667 418.133 876.6 424C883.667 429.867 887.2 437.733 887.2 447.6ZM867.4 509.6C867.4 506.933 866.867 504.6 865.8 502.6C864.867 500.6 863.267 498.8 861 497.2C858.867 495.467 856.067 493.8 852.6 492.2C849.133 490.467 845 488.667 840.2 486.8C836.467 489.867 833.6 493.333 831.6 497.2C829.6 500.933 828.6 504.533 828.6 508C828.6 513.333 830.467 517.4 834.2 520.2C838.067 522.867 842.6 524.2 847.8 524.2C853.8 524.2 858.533 522.8 862 520C865.6 517.067 867.4 513.6 867.4 509.6ZM848 435.6C843.733 435.6 839.933 436.8 836.6 439.2C833.4 441.6 831.8 445.133 831.8 449.8C831.8 454.467 833.333 458.267 836.4 461.2C839.467 464.133 844.867 467.2 852.6 470.4C856.733 467.333 859.667 464 861.4 460.4C863.133 456.667 864 453.067 864 449.6C864 444.933 862.4 441.467 859.2 439.2C856.133 436.8 852.4 435.6 848 435.6Z" fill="white"/>
<rect x="1021" y="376" width="200" height="200" rx="20" fill="#FF9D66"/>
<path d="M1113.6 544.6C1110.53 544.6 1107.27 544.333 1103.8 543.8C1100.47 543.4 1097.2 542.867 1094 542.2C1090.93 541.533 1088.07 540.8 1085.4 540C1082.73 539.2 1080.67 538.467 1079.2 537.8L1084 517.2C1087.07 518.533 1091 519.933 1095.8 521.4C1100.73 522.867 1106.6 523.6 1113.4 523.6C1121.8 523.6 1127.67 521.8 1131 518.2C1134.47 514.6 1136.2 510.133 1136.2 504.8C1136.2 498.267 1133.6 493.733 1128.4 491.2C1123.2 488.533 1116.6 487.2 1108.6 487.2H1101V466.8H1110.2C1112.73 466.8 1115.27 466.533 1117.8 466C1120.33 465.467 1122.6 464.6 1124.6 463.4C1126.6 462.2 1128.2 460.6 1129.4 458.6C1130.73 456.6 1131.4 454.067 1131.4 451C1131.4 446.467 1130 442.933 1127.2 440.4C1124.53 437.733 1120.8 436.4 1116 436.4C1111.33 436.4 1106.67 437.2 1102 438.8C1097.47 440.267 1093.53 442.133 1090.2 444.4L1081.4 426.4C1085 424 1089.73 421.6 1095.6 419.2C1101.6 416.667 1108.33 415.4 1115.8 415.4C1122.73 415.4 1128.73 416.267 1133.8 418C1139 419.733 1143.27 422.2 1146.6 425.4C1149.93 428.467 1152.4 432.133 1154 436.4C1155.6 440.667 1156.4 445.267 1156.4 450.2C1156.4 455.133 1155 459.867 1152.2 464.4C1149.4 468.933 1145.67 472.4 1141 474.8C1147.4 477.467 1152.33 481.4 1155.8 486.6C1159.4 491.8 1161.2 498 1161.2 505.2C1161.2 510.933 1160.27 516.2 1158.4 521C1156.53 525.8 1153.67 530 1149.8 533.6C1145.93 537.067 1141 539.8 1135 541.8C1129 543.667 1121.87 544.6 1113.6 544.6Z" fill="white"/>
<rect x="1294" y="376" width="200" height="200" rx="20" fill="#FF9D66"/>
<path d="M1386.6 544.6C1383.53 544.6 1380.27 544.333 1376.8 543.8C1373.47 543.4 1370.2 542.867 1367 542.2C1363.93 541.533 1361.07 540.8 1358.4 540C1355.73 539.2 1353.67 538.467 1352.2 537.8L1357 517.2C1360.07 518.533 1364 519.933 1368.8 521.4C1373.73 522.867 1379.6 523.6 1386.4 523.6C1394.8 523.6 1400.67 521.8 1404 518.2C1407.47 514.6 1409.2 510.133 1409.2 504.8C1409.2 498.267 1406.6 493.733 1401.4 491.2C1396.2 488.533 1389.6 487.2 1381.6 487.2H1374V466.8H1383.2C1385.73 466.8 1388.27 466.533 1390.8 466C1393.33 465.467 1395.6 464.6 1397.6 463.4C1399.6 462.2 1401.2 460.6 1402.4 458.6C1403.73 456.6 1404.4 454.067 1404.4 451C1404.4 446.467 1403 442.933 1400.2 440.4C1397.53 437.733 1393.8 436.4 1389 436.4C1384.33 436.4 1379.67 437.2 1375 438.8C1370.47 440.267 1366.53 442.133 1363.2 444.4L1354.4 426.4C1358 424 1362.73 421.6 1368.6 419.2C1374.6 416.667 1381.33 415.4 1388.8 415.4C1395.73 415.4 1401.73 416.267 1406.8 418C1412 419.733 1416.27 422.2 1419.6 425.4C1422.93 428.467 1425.4 432.133 1427 436.4C1428.6 440.667 1429.4 445.267 1429.4 450.2C1429.4 455.133 1428 459.867 1425.2 464.4C1422.4 468.933 1418.67 472.4 1414 474.8C1420.4 477.467 1425.33 481.4 1428.8 486.6C1432.4 491.8 1434.2 498 1434.2 505.2C1434.2 510.933 1433.27 516.2 1431.4 521C1429.53 525.8 1426.67 530 1422.8 533.6C1418.93 537.067 1414 539.8 1408 541.8C1402 543.667 1394.87 544.6 1386.6 544.6Z" fill="white"/>
<rect x="1567" y="376" width="200" height="200" rx="20" fill="#FF9D66"/>
<path d="M1703.8 450.8C1703.8 455.067 1703 459.2 1701.4 463.2C1699.8 467.067 1697.67 470.867 1695 474.6C1692.33 478.333 1689.33 481.933 1686 485.4C1682.67 488.867 1679.27 492.2 1675.8 495.4C1674.07 497 1672.07 498.933 1669.8 501.2C1667.53 503.333 1665.4 505.6 1663.4 508C1661.4 510.267 1659.67 512.6 1658.2 515C1656.87 517.4 1656.2 519.6 1656.2 521.6H1709.4V542H1628.6C1628.2 540.667 1628 539 1628 537C1628.13 535 1628.2 533.6 1628.2 532.8C1628.2 526.133 1629.4 520 1631.8 514.4C1634.33 508.8 1637.47 503.667 1641.2 499C1645.07 494.2 1649.13 489.8 1653.4 485.8C1657.8 481.667 1661.87 477.733 1665.6 474C1669.47 470.267 1672.6 466.667 1675 463.2C1677.53 459.733 1678.8 456.2 1678.8 452.6C1678.8 447.533 1677.27 443.667 1674.2 441C1671.13 438.2 1667.27 436.8 1662.6 436.8C1658.73 436.8 1654.67 437.733 1650.4 439.6C1646.13 441.467 1641.93 444.6 1637.8 449L1625.6 431.8C1630.93 426.2 1637.07 422.067 1644 419.4C1651.07 416.733 1658.07 415.4 1665 415.4C1670.07 415.4 1674.93 416.133 1679.6 417.6C1684.27 419.067 1688.4 421.267 1692 424.2C1695.6 427.133 1698.47 430.867 1700.6 435.4C1702.73 439.8 1703.8 444.933 1703.8 450.8Z" fill="white"/>
<path d="M307.8 644.9C307.8 646.633 307.267 648.133 306.2 649.4C305.2 650.667 303.867 651.3 302.2 651.3C300.467 651.3 299.067 650.667 298 649.4C296.933 648.133 296.4 646.633 296.4 644.9C296.4 643.167 296.933 641.633 298 640.3C299.067 638.967 300.467 638.3 302.2 638.3C303.867 638.3 305.2 638.967 306.2 640.3C307.267 641.633 307.8 643.167 307.8 644.9ZM281.6 646C281.6 635.6 283.367 627.633 286.9 622.1C290.5 616.5 295.533 613.7 302 613.7C308.533 613.7 313.567 616.5 317.1 622.1C320.633 627.633 322.4 635.6 322.4 646C322.4 656.4 320.633 664.4 317.1 670C313.567 675.533 308.533 678.3 302 678.3C295.533 678.3 290.5 675.533 286.9 670C283.367 664.4 281.6 656.4 281.6 646ZM314 646C314 642.6 313.8 639.4 313.4 636.4C313 633.333 312.333 630.667 311.4 628.4C310.467 626.133 309.233 624.333 307.7 623C306.167 621.667 304.267 621 302 621C299.733 621 297.833 621.667 296.3 623C294.767 624.333 293.533 626.133 292.6 628.4C291.667 630.667 291 633.333 290.6 636.4C290.2 639.4 290 642.6 290 646C290 649.4 290.2 652.633 290.6 655.7C291 658.7 291.667 661.333 292.6 663.6C293.533 665.867 294.767 667.667 296.3 669C297.833 670.333 299.733 671 302 671C304.267 671 306.167 670.333 307.7 669C309.233 667.667 310.467 665.867 311.4 663.6C312.333 661.333 313 658.7 313.4 655.7C313.8 652.633 314 649.4 314 646Z" fill="#404040"/>
<path d="M557.5 627.9C560.9 626.567 564.2 624.9 567.4 622.9C570.6 620.833 573.567 618.233 576.3 615.1H582.1V670H593.8V677H560.5V670H573.9V626.6C573.167 627.267 572.267 627.967 571.2 628.7C570.2 629.367 569.067 630.033 567.8 630.7C566.6 631.367 565.333 632 564 632.6C562.667 633.2 561.367 633.7 560.1 634.1L557.5 627.9Z" fill="#404040"/>
<path d="M866 630.9C866 633.033 865.567 635.1 864.7 637.1C863.9 639.1 862.8 641.067 861.4 643C860.067 644.933 858.533 646.833 856.8 648.7C855.067 650.567 853.3 652.4 851.5 654.2C850.5 655.2 849.333 656.4 848 657.8C846.667 659.2 845.4 660.633 844.2 662.1C843 663.567 842 665 841.2 666.4C840.4 667.8 840 669 840 670H868.5V677H831C830.933 676.667 830.9 676.333 830.9 676C830.9 675.6 830.9 675.233 830.9 674.9C830.9 672.1 831.367 669.5 832.3 667.1C833.233 664.7 834.433 662.433 835.9 660.3C837.367 658.167 839 656.167 840.8 654.3C842.667 652.367 844.5 650.5 846.3 648.7C847.767 647.233 849.167 645.8 850.5 644.4C851.9 643 853.1 641.6 854.1 640.2C855.167 638.8 856 637.367 856.6 635.9C857.267 634.367 857.6 632.8 857.6 631.2C857.6 629.4 857.3 627.867 856.7 626.6C856.167 625.333 855.4 624.3 854.4 623.5C853.467 622.633 852.367 622 851.1 621.6C849.833 621.2 848.467 621 847 621C845.267 621 843.667 621.233 842.2 621.7C840.8 622.167 839.533 622.733 838.4 623.4C837.333 624.067 836.4 624.733 835.6 625.4C834.8 626 834.2 626.5 833.8 626.9L829.7 621.1C830.233 620.5 831.033 619.767 832.1 618.9C833.167 618.033 834.433 617.233 835.9 616.5C837.433 615.7 839.133 615.033 841 614.5C842.867 613.967 844.867 613.7 847 613.7C853.467 613.7 858.233 615.2 861.3 618.2C864.433 621.133 866 625.367 866 630.9Z" fill="#404040"/>
<path d="M1117.2 671C1122.47 671 1126.2 669.967 1128.4 667.9C1130.67 665.767 1131.8 662.933 1131.8 659.4C1131.8 657.133 1131.33 655.233 1130.4 653.7C1129.47 652.167 1128.23 650.933 1126.7 650C1125.17 649.067 1123.4 648.4 1121.4 648C1119.4 647.6 1117.3 647.4 1115.1 647.4H1113V640.7H1115.9C1117.37 640.7 1118.87 640.567 1120.4 640.3C1122 639.967 1123.43 639.433 1124.7 638.7C1126.03 637.9 1127.1 636.833 1127.9 635.5C1128.7 634.167 1129.1 632.467 1129.1 630.4C1129.1 627 1128.03 624.6 1125.9 623.2C1123.83 621.733 1121.4 621 1118.6 621C1115.73 621 1113.3 621.433 1111.3 622.3C1109.3 623.1 1107.63 623.933 1106.3 624.8L1103.1 618.5C1104.5 617.5 1106.6 616.467 1109.4 615.4C1112.27 614.267 1115.43 613.7 1118.9 613.7C1122.17 613.7 1124.97 614.1 1127.3 614.9C1129.63 615.7 1131.53 616.833 1133 618.3C1134.53 619.767 1135.67 621.5 1136.4 623.5C1137.13 625.433 1137.5 627.567 1137.5 629.9C1137.5 633.167 1136.63 635.933 1134.9 638.2C1133.23 640.467 1131.07 642.2 1128.4 643.4C1131.6 644.333 1134.37 646.167 1136.7 648.9C1139.03 651.567 1140.2 655.133 1140.2 659.6C1140.2 662.267 1139.73 664.767 1138.8 667.1C1137.93 669.367 1136.57 671.333 1134.7 673C1132.9 674.667 1130.53 675.967 1127.6 676.9C1124.73 677.833 1121.3 678.3 1117.3 678.3C1115.77 678.3 1114.17 678.167 1112.5 677.9C1110.9 677.7 1109.4 677.4 1108 677C1106.6 676.667 1105.33 676.333 1104.2 676C1103.13 675.6 1102.37 675.3 1101.9 675.1L1103.5 668C1104.57 668.533 1106.27 669.167 1108.6 669.9C1110.93 670.633 1113.8 671 1117.2 671Z" fill="#404040"/>
<path d="M1372.6 655.6C1373.73 652.933 1375.27 649.867 1377.2 646.4C1379.2 642.933 1381.43 639.367 1383.9 635.7C1386.37 631.967 1389 628.333 1391.8 624.8C1394.6 621.2 1397.43 617.967 1400.3 615.1H1408.3V654.4H1415.6V661.2H1408.3V677H1400.3V661.2H1372.6V655.6ZM1400.3 624.9C1398.5 626.833 1396.67 628.967 1394.8 631.3C1393 633.633 1391.23 636.1 1389.5 638.7C1387.77 641.233 1386.13 643.833 1384.6 646.5C1383.13 649.167 1381.8 651.8 1380.6 654.4H1400.3V624.9Z" fill="#404040"/>
<path d="M1660.6 639C1669.53 639.333 1676.03 641.3 1680.1 644.9C1684.17 648.5 1686.2 653.333 1686.2 659.4C1686.2 662.133 1685.77 664.667 1684.9 667C1684.03 669.333 1682.67 671.333 1680.8 673C1679 674.667 1676.67 675.967 1673.8 676.9C1671 677.833 1667.67 678.3 1663.8 678.3C1662.2 678.3 1660.6 678.167 1659 677.9C1657.47 677.7 1656 677.433 1654.6 677.1C1653.2 676.767 1651.97 676.433 1650.9 676.1C1649.83 675.7 1649.07 675.367 1648.6 675.1L1650.2 668C1651.27 668.533 1652.9 669.167 1655.1 669.9C1657.37 670.633 1660.2 671 1663.6 671C1666.27 671 1668.5 670.7 1670.3 670.1C1672.1 669.5 1673.53 668.7 1674.6 667.7C1675.73 666.633 1676.53 665.433 1677 664.1C1677.53 662.767 1677.8 661.367 1677.8 659.9C1677.8 657.633 1677.4 655.633 1676.6 653.9C1675.87 652.1 1674.53 650.6 1672.6 649.4C1670.73 648.2 1668.13 647.3 1664.8 646.7C1661.53 646.033 1657.4 645.7 1652.4 645.7C1652.8 642.767 1653.1 640.033 1653.3 637.5C1653.57 634.9 1653.77 632.4 1653.9 630C1654.1 627.533 1654.23 625.1 1654.3 622.7C1654.43 620.3 1654.57 617.767 1654.7 615.1H1684.5V622.1H1661.9C1661.83 623.033 1661.73 624.267 1661.6 625.8C1661.53 627.267 1661.43 628.833 1661.3 630.5C1661.17 632.167 1661.03 633.767 1660.9 635.3C1660.77 636.833 1660.67 638.067 1660.6 639Z" fill="#404040"/>
<path d="M1113.32 734.695L1002.16 764.464L1083.52 845.853L1113.32 734.695Z" fill="#F841C4"/>
<path d="M1042 803.586C938.5 894 661 881.5 580.5 720" stroke="#F841C4" stroke-width="20"/>
<path d="M563.825 734.694L452.658 764.464L534.022 845.852L563.825 734.694Z" fill="#F841C4"/>
<path d="M495 804.5C432 852 291.5 832 249.5 738.5" stroke="#F841C4" stroke-width="20"/>
<path d="M1416.82 317.043L1305.66 287.274L1387.02 205.885L1416.82 317.043Z" fill="#F841C4"/>
<path d="M1359 243.637C1183.17 89.6447 731 85.5 589 340" stroke="#F841C4" stroke-width="20"/>
</svg>
