<svg width="1920" height="577" viewBox="0 0 1920 577" fill="none" xmlns="http://www.w3.org/2000/svg">
<rect x="860" y="145" width="200" height="200" rx="20" fill="#FF8266"/>
<rect x="1097" y="145" width="200" height="200" rx="20" fill="#FF8B66"/>
<rect x="1334" y="145" width="200" height="200" rx="20" fill="#FF9D66"/>
<rect x="623" y="145" width="200" height="200" rx="20" fill="#FF7866"/>
<rect x="386" y="145" width="200" height="200" rx="20" fill="#FF6F66"/>
<rect x="149" y="145" width="200" height="200" rx="20" fill="#FF6666"/>
<rect x="1571" y="145" width="200" height="200" rx="20" fill="#FFB171"/>
<path d="M263.2 274.6C263.2 271.133 262.6 268 261.4 265.2C260.333 262.267 258.067 259.8 254.6 257.8C251.267 255.667 246.467 254.067 240.2 253C233.933 251.8 225.733 251.2 215.6 251.2C216.933 240 218 229.067 218.8 218.4C219.6 207.6 220.2 197.2 220.6 187.2H283.8V207.6H241.2C240.933 211.867 240.6 216.333 240.2 221C239.8 225.667 239.467 229.467 239.2 232.4C255.733 233.467 268.067 237.467 276.2 244.4C284.333 251.333 288.4 261.067 288.4 273.6C288.4 279.333 287.4 284.667 285.4 289.6C283.4 294.4 280.333 298.6 276.2 302.2C272.067 305.8 266.933 308.6 260.8 310.6C254.667 312.6 247.533 313.6 239.4 313.6C236.2 313.6 232.933 313.4 229.6 313C226.267 312.6 223.067 312.067 220 311.4C216.933 310.867 214.133 310.2 211.6 309.4C209.2 308.6 207.333 307.867 206 307.2L211 286.8C213.933 288.267 217.667 289.6 222.2 290.8C226.733 292 232.4 292.6 239.2 292.6C244 292.6 247.933 292.067 251 291C254.2 289.933 256.667 288.6 258.4 287C260.267 285.267 261.533 283.333 262.2 281.2C262.867 279.067 263.2 276.867 263.2 274.6Z" fill="white"/>
<path d="M488.2 245.2C490.733 245.2 493.4 244.933 496.2 244.4C499 243.867 501.267 243.133 503 242.2C503.133 241.133 503.2 239.867 503.2 238.4C503.333 236.8 503.4 235.267 503.4 233.8C503.4 230.467 503.067 227.133 502.4 223.8C501.867 220.333 500.867 217.2 499.4 214.4C498.067 211.6 496.2 209.333 493.8 207.6C491.533 205.867 488.667 205 485.2 205C482.267 205 479.733 205.6 477.6 206.8C475.6 207.867 473.933 209.333 472.6 211.2C471.4 213.067 470.467 215.267 469.8 217.8C469.267 220.333 469 223 469 225.8C469 232.067 470.467 236.867 473.4 240.2C476.333 243.533 481.267 245.2 488.2 245.2ZM485 265.6C477.8 265.6 471.667 264.6 466.6 262.6C461.533 260.467 457.4 257.6 454.2 254C451 250.4 448.667 246.267 447.2 241.6C445.733 236.8 445 231.667 445 226.2C445 221.4 445.8 216.533 447.4 211.6C449.133 206.533 451.6 202 454.8 198C458.133 193.867 462.267 190.533 467.2 188C472.133 185.333 477.933 184 484.6 184C498.467 184 509.067 188.667 516.4 198C523.733 207.333 527.4 220.333 527.4 237C527.4 249 525.667 259.667 522.2 269C518.733 278.2 513.733 285.933 507.2 292.2C500.8 298.467 493 303.267 483.8 306.6C474.733 309.8 464.6 311.4 453.4 311.4L452.6 290.2C463.267 290.067 472.8 287.8 481.2 283.4C489.6 278.867 495.533 271.8 499 262.2C493.8 264.467 489.133 265.6 485 265.6Z" fill="white"/>
<path d="M715.6 290.6V221.4C711.867 224.067 707.6 226.467 702.8 228.6C698 230.6 693.933 232.2 690.6 233.4L682.6 213C685.8 211.8 689.267 210.267 693 208.4C696.733 206.533 700.467 204.467 704.2 202.2C707.933 199.933 711.467 197.533 714.8 195C718.133 192.467 721 189.867 723.4 187.2H740.2V290.6H764.8V311H689.6V290.6H715.6Z" fill="white"/>
<path d="M996.8 219.8C996.8 224.067 996 228.2 994.4 232.2C992.8 236.067 990.667 239.867 988 243.6C985.333 247.333 982.333 250.933 979 254.4C975.667 257.867 972.267 261.2 968.8 264.4C967.067 266 965.067 267.933 962.8 270.2C960.533 272.333 958.4 274.6 956.4 277C954.4 279.267 952.667 281.6 951.2 284C949.867 286.4 949.2 288.6 949.2 290.6H1002.4V311H921.6C921.2 309.667 921 308 921 306C921.133 304 921.2 302.6 921.2 301.8C921.2 295.133 922.4 289 924.8 283.4C927.333 277.8 930.467 272.667 934.2 268C938.067 263.2 942.133 258.8 946.4 254.8C950.8 250.667 954.867 246.733 958.6 243C962.467 239.267 965.6 235.667 968 232.2C970.533 228.733 971.8 225.2 971.8 221.6C971.8 216.533 970.267 212.667 967.2 210C964.133 207.2 960.267 205.8 955.6 205.8C951.733 205.8 947.667 206.733 943.4 208.6C939.133 210.467 934.933 213.6 930.8 218L918.6 200.8C923.933 195.2 930.067 191.067 937 188.4C944.067 185.733 951.067 184.4 958 184.4C963.067 184.4 967.933 185.133 972.6 186.6C977.267 188.067 981.4 190.267 985 193.2C988.6 196.133 991.467 199.867 993.6 204.4C995.733 208.8 996.8 213.933 996.8 219.8Z" fill="white"/>
<path d="M1211.2 274.6C1211.2 271.133 1210.6 268 1209.4 265.2C1208.33 262.267 1206.07 259.8 1202.6 257.8C1199.27 255.667 1194.47 254.067 1188.2 253C1181.93 251.8 1173.73 251.2 1163.6 251.2C1164.93 240 1166 229.067 1166.8 218.4C1167.6 207.6 1168.2 197.2 1168.6 187.2H1231.8V207.6H1189.2C1188.93 211.867 1188.6 216.333 1188.2 221C1187.8 225.667 1187.47 229.467 1187.2 232.4C1203.73 233.467 1216.07 237.467 1224.2 244.4C1232.33 251.333 1236.4 261.067 1236.4 273.6C1236.4 279.333 1235.4 284.667 1233.4 289.6C1231.4 294.4 1228.33 298.6 1224.2 302.2C1220.07 305.8 1214.93 308.6 1208.8 310.6C1202.67 312.6 1195.53 313.6 1187.4 313.6C1184.2 313.6 1180.93 313.4 1177.6 313C1174.27 312.6 1171.07 312.067 1168 311.4C1164.93 310.867 1162.13 310.2 1159.6 309.4C1157.2 308.6 1155.33 307.867 1154 307.2L1159 286.8C1161.93 288.267 1165.67 289.6 1170.2 290.8C1174.73 292 1180.4 292.6 1187.2 292.6C1192 292.6 1195.93 292.067 1199 291C1202.2 289.933 1204.67 288.6 1206.4 287C1208.27 285.267 1209.53 283.333 1210.2 281.2C1210.87 279.067 1211.2 276.867 1211.2 274.6Z" fill="white"/>
<path d="M1441 218C1438.6 221.067 1436.13 224.333 1433.6 227.8C1431.07 231.267 1428.53 234.933 1426 238.8C1423.6 242.533 1421.27 246.333 1419 250.2C1416.73 254.067 1414.73 257.867 1413 261.6H1441V218ZM1465.6 187.2V261.6H1479V281.8H1465.6V311H1441V281.8H1389.4V263.8C1391.93 258.6 1395.2 252.733 1399.2 246.2C1403.2 239.533 1407.6 232.733 1412.4 225.8C1417.2 218.867 1422.27 212.067 1427.6 205.4C1432.93 198.6 1438.27 192.533 1443.6 187.2H1465.6Z" fill="white"/>
<path d="M1663.6 313.6C1660.53 313.6 1657.27 313.333 1653.8 312.8C1650.47 312.4 1647.2 311.867 1644 311.2C1640.93 310.533 1638.07 309.8 1635.4 309C1632.73 308.2 1630.67 307.467 1629.2 306.8L1634 286.2C1637.07 287.533 1641 288.933 1645.8 290.4C1650.73 291.867 1656.6 292.6 1663.4 292.6C1671.8 292.6 1677.67 290.8 1681 287.2C1684.47 283.6 1686.2 279.133 1686.2 273.8C1686.2 267.267 1683.6 262.733 1678.4 260.2C1673.2 257.533 1666.6 256.2 1658.6 256.2H1651V235.8H1660.2C1662.73 235.8 1665.27 235.533 1667.8 235C1670.33 234.467 1672.6 233.6 1674.6 232.4C1676.6 231.2 1678.2 229.6 1679.4 227.6C1680.73 225.6 1681.4 223.067 1681.4 220C1681.4 215.467 1680 211.933 1677.2 209.4C1674.53 206.733 1670.8 205.4 1666 205.4C1661.33 205.4 1656.67 206.2 1652 207.8C1647.47 209.267 1643.53 211.133 1640.2 213.4L1631.4 195.4C1635 193 1639.73 190.6 1645.6 188.2C1651.6 185.667 1658.33 184.4 1665.8 184.4C1672.73 184.4 1678.73 185.267 1683.8 187C1689 188.733 1693.27 191.2 1696.6 194.4C1699.93 197.467 1702.4 201.133 1704 205.4C1705.6 209.667 1706.4 214.267 1706.4 219.2C1706.4 224.133 1705 228.867 1702.2 233.4C1699.4 237.933 1695.67 241.4 1691 243.8C1697.4 246.467 1702.33 250.4 1705.8 255.6C1709.4 260.8 1711.2 267 1711.2 274.2C1711.2 279.933 1710.27 285.2 1708.4 290C1706.53 294.8 1703.67 299 1699.8 302.6C1695.93 306.067 1691 308.8 1685 310.8C1679 312.667 1671.87 313.6 1663.6 313.6Z" fill="white"/>
<path d="M254.8 432.9C254.8 434.633 254.267 436.133 253.2 437.4C252.2 438.667 250.867 439.3 249.2 439.3C247.467 439.3 246.067 438.667 245 437.4C243.933 436.133 243.4 434.633 243.4 432.9C243.4 431.167 243.933 429.633 245 428.3C246.067 426.967 247.467 426.3 249.2 426.3C250.867 426.3 252.2 426.967 253.2 428.3C254.267 429.633 254.8 431.167 254.8 432.9ZM228.6 434C228.6 423.6 230.367 415.633 233.9 410.1C237.5 404.5 242.533 401.7 249 401.7C255.533 401.7 260.567 404.5 264.1 410.1C267.633 415.633 269.4 423.6 269.4 434C269.4 444.4 267.633 452.4 264.1 458C260.567 463.533 255.533 466.3 249 466.3C242.533 466.3 237.5 463.533 233.9 458C230.367 452.4 228.6 444.4 228.6 434ZM261 434C261 430.6 260.8 427.4 260.4 424.4C260 421.333 259.333 418.667 258.4 416.4C257.467 414.133 256.233 412.333 254.7 411C253.167 409.667 251.267 409 249 409C246.733 409 244.833 409.667 243.3 411C241.767 412.333 240.533 414.133 239.6 416.4C238.667 418.667 238 421.333 237.6 424.4C237.2 427.4 237 430.6 237 434C237 437.4 237.2 440.633 237.6 443.7C238 446.7 238.667 449.333 239.6 451.6C240.533 453.867 241.767 455.667 243.3 457C244.833 458.333 246.733 459 249 459C251.267 459 253.167 458.333 254.7 457C256.233 455.667 257.467 453.867 258.4 451.6C259.333 449.333 260 446.7 260.4 443.7C260.8 440.633 261 437.4 261 434Z" fill="#404040"/>
<path d="M1427.6 427C1436.53 427.333 1443.03 429.3 1447.1 432.9C1451.17 436.5 1453.2 441.333 1453.2 447.4C1453.2 450.133 1452.77 452.667 1451.9 455C1451.03 457.333 1449.67 459.333 1447.8 461C1446 462.667 1443.67 463.967 1440.8 464.9C1438 465.833 1434.67 466.3 1430.8 466.3C1429.2 466.3 1427.6 466.167 1426 465.9C1424.47 465.7 1423 465.433 1421.6 465.1C1420.2 464.767 1418.97 464.433 1417.9 464.1C1416.83 463.7 1416.07 463.367 1415.6 463.1L1417.2 456C1418.27 456.533 1419.9 457.167 1422.1 457.9C1424.37 458.633 1427.2 459 1430.6 459C1433.27 459 1435.5 458.7 1437.3 458.1C1439.1 457.5 1440.53 456.7 1441.6 455.7C1442.73 454.633 1443.53 453.433 1444 452.1C1444.53 450.767 1444.8 449.367 1444.8 447.9C1444.8 445.633 1444.4 443.633 1443.6 441.9C1442.87 440.1 1441.53 438.6 1439.6 437.4C1437.73 436.2 1435.13 435.3 1431.8 434.7C1428.53 434.033 1424.4 433.7 1419.4 433.7C1419.8 430.767 1420.1 428.033 1420.3 425.5C1420.57 422.9 1420.77 420.4 1420.9 418C1421.1 415.533 1421.23 413.1 1421.3 410.7C1421.43 408.3 1421.57 405.767 1421.7 403.1H1451.5V410.1H1428.9C1428.83 411.033 1428.73 412.267 1428.6 413.8C1428.53 415.267 1428.43 416.833 1428.3 418.5C1428.17 420.167 1428.03 421.767 1427.9 423.3C1427.77 424.833 1427.67 426.067 1427.6 427Z" fill="#404040"/>
<path d="M1651.4 440.2C1651.4 434.2 1652.2 428.9 1653.8 424.3C1655.47 419.633 1657.8 415.733 1660.8 412.6C1663.87 409.467 1667.57 407.067 1671.9 405.4C1676.23 403.733 1681.13 402.867 1686.6 402.8L1687.3 409.8C1683.77 409.867 1680.53 410.267 1677.6 411C1674.73 411.667 1672.17 412.8 1669.9 414.4C1667.63 415.933 1665.73 417.933 1664.2 420.4C1662.67 422.867 1661.5 425.9 1660.7 429.5C1662.3 428.767 1664.03 428.167 1665.9 427.7C1667.83 427.233 1669.87 427 1672 427C1675.47 427 1678.4 427.533 1680.8 428.6C1683.27 429.667 1685.23 431.1 1686.7 432.9C1688.17 434.633 1689.23 436.667 1689.9 439C1690.57 441.333 1690.9 443.733 1690.9 446.2C1690.9 448.467 1690.53 450.8 1689.8 453.2C1689.07 455.533 1687.93 457.7 1686.4 459.7C1684.87 461.633 1682.9 463.233 1680.5 464.5C1678.1 465.7 1675.23 466.3 1671.9 466.3C1665.03 466.3 1659.9 464 1656.5 459.4C1653.1 454.8 1651.4 448.4 1651.4 440.2ZM1671.1 433.8C1668.97 433.8 1667 434 1665.2 434.4C1663.47 434.8 1661.7 435.4 1659.9 436.2C1659.83 436.867 1659.8 437.533 1659.8 438.2C1659.8 438.8 1659.8 439.467 1659.8 440.2C1659.8 442.8 1659.97 445.267 1660.3 447.6C1660.7 449.867 1661.33 451.9 1662.2 453.7C1663.13 455.433 1664.37 456.833 1665.9 457.9C1667.43 458.9 1669.4 459.4 1671.8 459.4C1673.8 459.4 1675.47 459 1676.8 458.2C1678.13 457.333 1679.23 456.267 1680.1 455C1680.97 453.733 1681.57 452.333 1681.9 450.8C1682.3 449.2 1682.5 447.7 1682.5 446.3C1682.5 442.233 1681.57 439.133 1679.7 437C1677.9 434.867 1675.03 433.8 1671.1 433.8Z" fill="#404040"/>
<path d="M1175.6 443.6C1176.73 440.933 1178.27 437.867 1180.2 434.4C1182.2 430.933 1184.43 427.367 1186.9 423.7C1189.37 419.967 1192 416.333 1194.8 412.8C1197.6 409.2 1200.43 405.967 1203.3 403.1H1211.3V442.4H1218.6V449.2H1211.3V465H1203.3V449.2H1175.6V443.6ZM1203.3 412.9C1201.5 414.833 1199.67 416.967 1197.8 419.3C1196 421.633 1194.23 424.1 1192.5 426.7C1190.77 429.233 1189.13 431.833 1187.6 434.5C1186.13 437.167 1184.8 439.8 1183.6 442.4H1203.3V412.9Z" fill="#404040"/>
<path d="M468.5 415.9C471.9 414.567 475.2 412.9 478.4 410.9C481.6 408.833 484.567 406.233 487.3 403.1H493.1V458H504.8V465H471.5V458H484.9V414.6C484.167 415.267 483.267 415.967 482.2 416.7C481.2 417.367 480.067 418.033 478.8 418.7C477.6 419.367 476.333 420 475 420.6C473.667 421.2 472.367 421.7 471.1 422.1L468.5 415.9Z" fill="#404040"/>
<path d="M740 418.9C740 421.033 739.567 423.1 738.7 425.1C737.9 427.1 736.8 429.067 735.4 431C734.067 432.933 732.533 434.833 730.8 436.7C729.067 438.567 727.3 440.4 725.5 442.2C724.5 443.2 723.333 444.4 722 445.8C720.667 447.2 719.4 448.633 718.2 450.1C717 451.567 716 453 715.2 454.4C714.4 455.8 714 457 714 458H742.5V465H705C704.933 464.667 704.9 464.333 704.9 464C704.9 463.6 704.9 463.233 704.9 462.9C704.9 460.1 705.367 457.5 706.3 455.1C707.233 452.7 708.433 450.433 709.9 448.3C711.367 446.167 713 444.167 714.8 442.3C716.667 440.367 718.5 438.5 720.3 436.7C721.767 435.233 723.167 433.8 724.5 432.4C725.9 431 727.1 429.6 728.1 428.2C729.167 426.8 730 425.367 730.6 423.9C731.267 422.367 731.6 420.8 731.6 419.2C731.6 417.4 731.3 415.867 730.7 414.6C730.167 413.333 729.4 412.3 728.4 411.5C727.467 410.633 726.367 410 725.1 409.6C723.833 409.2 722.467 409 721 409C719.267 409 717.667 409.233 716.2 409.7C714.8 410.167 713.533 410.733 712.4 411.4C711.333 412.067 710.4 412.733 709.6 413.4C708.8 414 708.2 414.5 707.8 414.9L703.7 409.1C704.233 408.5 705.033 407.767 706.1 406.9C707.167 406.033 708.433 405.233 709.9 404.5C711.433 403.7 713.133 403.033 715 402.5C716.867 401.967 718.867 401.7 721 401.7C727.467 401.7 732.233 403.2 735.3 406.2C738.433 409.133 740 413.367 740 418.9Z" fill="#404040"/>
<path d="M956.2 459C961.467 459 965.2 457.967 967.4 455.9C969.667 453.767 970.8 450.933 970.8 447.4C970.8 445.133 970.333 443.233 969.4 441.7C968.467 440.167 967.233 438.933 965.7 438C964.167 437.067 962.4 436.4 960.4 436C958.4 435.6 956.3 435.4 954.1 435.4H952V428.7H954.9C956.367 428.7 957.867 428.567 959.4 428.3C961 427.967 962.433 427.433 963.7 426.7C965.033 425.9 966.1 424.833 966.9 423.5C967.7 422.167 968.1 420.467 968.1 418.4C968.1 415 967.033 412.6 964.9 411.2C962.833 409.733 960.4 409 957.6 409C954.733 409 952.3 409.433 950.3 410.3C948.3 411.1 946.633 411.933 945.3 412.8L942.1 406.5C943.5 405.5 945.6 404.467 948.4 403.4C951.267 402.267 954.433 401.7 957.9 401.7C961.167 401.7 963.967 402.1 966.3 402.9C968.633 403.7 970.533 404.833 972 406.3C973.533 407.767 974.667 409.5 975.4 411.5C976.133 413.433 976.5 415.567 976.5 417.9C976.5 421.167 975.633 423.933 973.9 426.2C972.233 428.467 970.067 430.2 967.4 431.4C970.6 432.333 973.367 434.167 975.7 436.9C978.033 439.567 979.2 443.133 979.2 447.6C979.2 450.267 978.733 452.767 977.8 455.1C976.933 457.367 975.567 459.333 973.7 461C971.9 462.667 969.533 463.967 966.6 464.9C963.733 465.833 960.3 466.3 956.3 466.3C954.767 466.3 953.167 466.167 951.5 465.9C949.9 465.7 948.4 465.4 947 465C945.6 464.667 944.333 464.333 943.2 464C942.133 463.6 941.367 463.3 940.9 463.1L942.5 456C943.567 456.533 945.267 457.167 947.6 457.9C949.933 458.633 952.8 459 956.2 459Z" fill="#404040"/>
</svg>
