<svg width="1969" height="1534" viewBox="0 0 1969 1534" fill="none" xmlns="http://www.w3.org/2000/svg">
<rect x="864" y="101" width="200" height="200" rx="20" fill="#FF6F66"/>
<path d="M966.2 201.2C968.733 201.2 971.4 200.933 974.2 200.4C977 199.867 979.267 199.133 981 198.2C981.133 197.133 981.2 195.867 981.2 194.4C981.333 192.8 981.4 191.267 981.4 189.8C981.4 186.467 981.067 183.133 980.4 179.8C979.867 176.333 978.867 173.2 977.4 170.4C976.067 167.6 974.2 165.333 971.8 163.6C969.533 161.867 966.667 161 963.2 161C960.267 161 957.733 161.6 955.6 162.8C953.6 163.867 951.933 165.333 950.6 167.2C949.4 169.067 948.467 171.267 947.8 173.8C947.267 176.333 947 179 947 181.8C947 188.067 948.467 192.867 951.4 196.2C954.333 199.533 959.267 201.2 966.2 201.2ZM963 221.6C955.8 221.6 949.667 220.6 944.6 218.6C939.533 216.467 935.4 213.6 932.2 210C929 206.4 926.667 202.267 925.2 197.6C923.733 192.8 923 187.667 923 182.2C923 177.4 923.8 172.533 925.4 167.6C927.133 162.533 929.6 158 932.8 154C936.133 149.867 940.267 146.533 945.2 144C950.133 141.333 955.933 140 962.6 140C976.467 140 987.067 144.667 994.4 154C1001.73 163.333 1005.4 176.333 1005.4 193C1005.4 205 1003.67 215.667 1000.2 225C996.733 234.2 991.733 241.933 985.2 248.2C978.8 254.467 971 259.267 961.8 262.6C952.733 265.8 942.6 267.4 931.4 267.4L930.6 246.2C941.267 246.067 950.8 243.8 959.2 239.4C967.6 234.867 973.533 227.8 977 218.2C971.8 220.467 967.133 221.6 963 221.6Z" fill="white"/>
<rect x="181" y="1198" width="200" height="200" rx="20" fill="#FF6F66"/>
<path d="M283.2 1298.2C285.733 1298.2 288.4 1297.93 291.2 1297.4C294 1296.87 296.267 1296.13 298 1295.2C298.133 1294.13 298.2 1292.87 298.2 1291.4C298.333 1289.8 298.4 1288.27 298.4 1286.8C298.4 1283.47 298.067 1280.13 297.4 1276.8C296.867 1273.33 295.867 1270.2 294.4 1267.4C293.067 1264.6 291.2 1262.33 288.8 1260.6C286.533 1258.87 283.667 1258 280.2 1258C277.267 1258 274.733 1258.6 272.6 1259.8C270.6 1260.87 268.933 1262.33 267.6 1264.2C266.4 1266.07 265.467 1268.27 264.8 1270.8C264.267 1273.33 264 1276 264 1278.8C264 1285.07 265.467 1289.87 268.4 1293.2C271.333 1296.53 276.267 1298.2 283.2 1298.2ZM280 1318.6C272.8 1318.6 266.667 1317.6 261.6 1315.6C256.533 1313.47 252.4 1310.6 249.2 1307C246 1303.4 243.667 1299.27 242.2 1294.6C240.733 1289.8 240 1284.67 240 1279.2C240 1274.4 240.8 1269.53 242.4 1264.6C244.133 1259.53 246.6 1255 249.8 1251C253.133 1246.87 257.267 1243.53 262.2 1241C267.133 1238.33 272.933 1237 279.6 1237C293.467 1237 304.067 1241.67 311.4 1251C318.733 1260.33 322.4 1273.33 322.4 1290C322.4 1302 320.667 1312.67 317.2 1322C313.733 1331.2 308.733 1338.93 302.2 1345.2C295.8 1351.47 288 1356.27 278.8 1359.6C269.733 1362.8 259.6 1364.4 248.4 1364.4L247.6 1343.2C258.267 1343.07 267.8 1340.8 276.2 1336.4C284.6 1331.87 290.533 1324.8 294 1315.2C288.8 1317.47 284.133 1318.6 280 1318.6Z" fill="white"/>
<rect x="391" y="411" width="200" height="200" rx="20" fill="#FF8266"/>
<path d="M498 484C495.6 487.067 493.133 490.333 490.6 493.8C488.067 497.267 485.533 500.933 483 504.8C480.6 508.533 478.267 512.333 476 516.2C473.733 520.067 471.733 523.867 470 527.6H498V484ZM522.6 453.2V527.6H536V547.8H522.6V577H498V547.8H446.4V529.8C448.933 524.6 452.2 518.733 456.2 512.2C460.2 505.533 464.6 498.733 469.4 491.8C474.2 484.867 479.267 478.067 484.6 471.4C489.933 464.6 495.267 458.533 500.6 453.2H522.6Z" fill="white"/>
<rect x="155" y="765" width="200" height="200" rx="20" fill="#FF9D66"/>
<path d="M247.6 933.6C244.533 933.6 241.267 933.333 237.8 932.8C234.467 932.4 231.2 931.867 228 931.2C224.933 930.533 222.067 929.8 219.4 929C216.733 928.2 214.667 927.467 213.2 926.8L218 906.2C221.067 907.533 225 908.933 229.8 910.4C234.733 911.867 240.6 912.6 247.4 912.6C255.8 912.6 261.667 910.8 265 907.2C268.467 903.6 270.2 899.133 270.2 893.8C270.2 887.267 267.6 882.733 262.4 880.2C257.2 877.533 250.6 876.2 242.6 876.2H235V855.8H244.2C246.733 855.8 249.267 855.533 251.8 855C254.333 854.467 256.6 853.6 258.6 852.4C260.6 851.2 262.2 849.6 263.4 847.6C264.733 845.6 265.4 843.067 265.4 840C265.4 835.467 264 831.933 261.2 829.4C258.533 826.733 254.8 825.4 250 825.4C245.333 825.4 240.667 826.2 236 827.8C231.467 829.267 227.533 831.133 224.2 833.4L215.4 815.4C219 813 223.733 810.6 229.6 808.2C235.6 805.667 242.333 804.4 249.8 804.4C256.733 804.4 262.733 805.267 267.8 807C273 808.733 277.267 811.2 280.6 814.4C283.933 817.467 286.4 821.133 288 825.4C289.6 829.667 290.4 834.267 290.4 839.2C290.4 844.133 289 848.867 286.2 853.4C283.4 857.933 279.667 861.4 275 863.8C281.4 866.467 286.333 870.4 289.8 875.6C293.4 880.8 295.2 887 295.2 894.2C295.2 899.933 294.267 905.2 292.4 910C290.533 914.8 287.667 919 283.8 922.6C279.933 926.067 275 928.8 269 930.8C263 932.667 255.867 933.6 247.6 933.6Z" fill="white"/>
<rect x="628" y="765" width="200" height="200" rx="20" fill="#FF9D66"/>
<path d="M720.6 933.6C717.533 933.6 714.267 933.333 710.8 932.8C707.467 932.4 704.2 931.867 701 931.2C697.933 930.533 695.067 929.8 692.4 929C689.733 928.2 687.667 927.467 686.2 926.8L691 906.2C694.067 907.533 698 908.933 702.8 910.4C707.733 911.867 713.6 912.6 720.4 912.6C728.8 912.6 734.667 910.8 738 907.2C741.467 903.6 743.2 899.133 743.2 893.8C743.2 887.267 740.6 882.733 735.4 880.2C730.2 877.533 723.6 876.2 715.6 876.2H708V855.8H717.2C719.733 855.8 722.267 855.533 724.8 855C727.333 854.467 729.6 853.6 731.6 852.4C733.6 851.2 735.2 849.6 736.4 847.6C737.733 845.6 738.4 843.067 738.4 840C738.4 835.467 737 831.933 734.2 829.4C731.533 826.733 727.8 825.4 723 825.4C718.333 825.4 713.667 826.2 709 827.8C704.467 829.267 700.533 831.133 697.2 833.4L688.4 815.4C692 813 696.733 810.6 702.6 808.2C708.6 805.667 715.333 804.4 722.8 804.4C729.733 804.4 735.733 805.267 740.8 807C746 808.733 750.267 811.2 753.6 814.4C756.933 817.467 759.4 821.133 761 825.4C762.6 829.667 763.4 834.267 763.4 839.2C763.4 844.133 762 848.867 759.2 853.4C756.4 857.933 752.667 861.4 748 863.8C754.4 866.467 759.333 870.4 762.8 875.6C766.4 880.8 768.2 887 768.2 894.2C768.2 899.933 767.267 905.2 765.4 910C763.533 914.8 760.667 919 756.8 922.6C752.933 926.067 748 928.8 742 930.8C736 932.667 728.867 933.6 720.6 933.6Z" fill="white"/>
<rect x="1337" y="411" width="200" height="200" rx="20" fill="#FF8266"/>
<path d="M1476.2 482.6C1476.2 488.333 1474.8 494 1472 499.6C1469.2 505.067 1464.8 509.667 1458.8 513.4C1466.4 517.8 1471.73 522.6 1474.8 527.8C1478 533 1479.6 538.733 1479.6 545C1479.6 549 1478.8 553.067 1477.2 557.2C1475.73 561.333 1473.27 565.067 1469.8 568.4C1466.47 571.6 1462.07 574.267 1456.6 576.4C1451.13 578.533 1444.4 579.6 1436.4 579.6C1430.13 579.6 1424.4 578.8 1419.2 577.2C1414.13 575.733 1409.73 573.6 1406 570.8C1402.4 567.867 1399.6 564.333 1397.6 560.2C1395.6 555.933 1394.6 551.2 1394.6 546C1394.6 539.733 1396.07 533.867 1399 528.4C1401.93 522.8 1406.53 517.867 1412.8 513.6C1406.93 509.6 1402.93 505.333 1400.8 500.8C1398.67 496.267 1397.6 491.467 1397.6 486.4C1397.6 482.4 1398.27 478.267 1399.6 474C1401.07 469.6 1403.33 465.667 1406.4 462.2C1409.47 458.733 1413.53 455.867 1418.6 453.6C1423.67 451.333 1429.93 450.2 1437.4 450.2C1449.27 450.2 1458.67 453.133 1465.6 459C1472.67 464.867 1476.2 472.733 1476.2 482.6ZM1456.4 544.6C1456.4 541.933 1455.87 539.6 1454.8 537.6C1453.87 535.6 1452.27 533.8 1450 532.2C1447.87 530.467 1445.07 528.8 1441.6 527.2C1438.13 525.467 1434 523.667 1429.2 521.8C1425.47 524.867 1422.6 528.333 1420.6 532.2C1418.6 535.933 1417.6 539.533 1417.6 543C1417.6 548.333 1419.47 552.4 1423.2 555.2C1427.07 557.867 1431.6 559.2 1436.8 559.2C1442.8 559.2 1447.53 557.8 1451 555C1454.6 552.067 1456.4 548.6 1456.4 544.6ZM1437 470.6C1432.73 470.6 1428.93 471.8 1425.6 474.2C1422.4 476.6 1420.8 480.133 1420.8 484.8C1420.8 489.467 1422.33 493.267 1425.4 496.2C1428.47 499.133 1433.87 502.2 1441.6 505.4C1445.73 502.333 1448.67 499 1450.4 495.4C1452.13 491.667 1453 488.067 1453 484.6C1453 479.933 1451.4 476.467 1448.2 474.2C1445.13 471.8 1441.4 470.6 1437 470.6Z" fill="white"/>
<rect x="454" y="1198" width="200" height="200" rx="20" fill="#FF8266"/>
<path d="M561 1271C558.6 1274.07 556.133 1277.33 553.6 1280.8C551.067 1284.27 548.533 1287.93 546 1291.8C543.6 1295.53 541.267 1299.33 539 1303.2C536.733 1307.07 534.733 1310.87 533 1314.6H561V1271ZM585.6 1240.2V1314.6H599V1334.8H585.6V1364H561V1334.8H509.4V1316.8C511.933 1311.6 515.2 1305.73 519.2 1299.2C523.2 1292.53 527.6 1285.73 532.4 1278.8C537.2 1271.87 542.267 1265.07 547.6 1258.4C552.933 1251.6 558.267 1245.53 563.6 1240.2H585.6Z" fill="white"/>
<rect x="727" y="1198" width="200" height="200" rx="20" fill="#FF8266"/>
<path d="M866.2 1269.6C866.2 1275.33 864.8 1281 862 1286.6C859.2 1292.07 854.8 1296.67 848.8 1300.4C856.4 1304.8 861.733 1309.6 864.8 1314.8C868 1320 869.6 1325.73 869.6 1332C869.6 1336 868.8 1340.07 867.2 1344.2C865.733 1348.33 863.267 1352.07 859.8 1355.4C856.467 1358.6 852.067 1361.27 846.6 1363.4C841.133 1365.53 834.4 1366.6 826.4 1366.6C820.133 1366.6 814.4 1365.8 809.2 1364.2C804.133 1362.73 799.733 1360.6 796 1357.8C792.4 1354.87 789.6 1351.33 787.6 1347.2C785.6 1342.93 784.6 1338.2 784.6 1333C784.6 1326.73 786.067 1320.87 789 1315.4C791.933 1309.8 796.533 1304.87 802.8 1300.6C796.933 1296.6 792.933 1292.33 790.8 1287.8C788.667 1283.27 787.6 1278.47 787.6 1273.4C787.6 1269.4 788.267 1265.27 789.6 1261C791.067 1256.6 793.333 1252.67 796.4 1249.2C799.467 1245.73 803.533 1242.87 808.6 1240.6C813.667 1238.33 819.933 1237.2 827.4 1237.2C839.267 1237.2 848.667 1240.13 855.6 1246C862.667 1251.87 866.2 1259.73 866.2 1269.6ZM846.4 1331.6C846.4 1328.93 845.867 1326.6 844.8 1324.6C843.867 1322.6 842.267 1320.8 840 1319.2C837.867 1317.47 835.067 1315.8 831.6 1314.2C828.133 1312.47 824 1310.67 819.2 1308.8C815.467 1311.87 812.6 1315.33 810.6 1319.2C808.6 1322.93 807.6 1326.53 807.6 1330C807.6 1335.33 809.467 1339.4 813.2 1342.2C817.067 1344.87 821.6 1346.2 826.8 1346.2C832.8 1346.2 837.533 1344.8 841 1342C844.6 1339.07 846.4 1335.6 846.4 1331.6ZM827 1257.6C822.733 1257.6 818.933 1258.8 815.6 1261.2C812.4 1263.6 810.8 1267.13 810.8 1271.8C810.8 1276.47 812.333 1280.27 815.4 1283.2C818.467 1286.13 823.867 1289.2 831.6 1292.4C835.733 1289.33 838.667 1286 840.4 1282.4C842.133 1278.67 843 1275.07 843 1271.6C843 1266.93 841.4 1263.47 838.2 1261.2C835.133 1258.8 831.4 1257.6 827 1257.6Z" fill="white"/>
<rect x="1101" y="765" width="200" height="200" rx="20" fill="#FF9D66"/>
<path d="M1237.8 839.8C1237.8 844.067 1237 848.2 1235.4 852.2C1233.8 856.067 1231.67 859.867 1229 863.6C1226.33 867.333 1223.33 870.933 1220 874.4C1216.67 877.867 1213.27 881.2 1209.8 884.4C1208.07 886 1206.07 887.933 1203.8 890.2C1201.53 892.333 1199.4 894.6 1197.4 897C1195.4 899.267 1193.67 901.6 1192.2 904C1190.87 906.4 1190.2 908.6 1190.2 910.6H1243.4V931H1162.6C1162.2 929.667 1162 928 1162 926C1162.13 924 1162.2 922.6 1162.2 921.8C1162.2 915.133 1163.4 909 1165.8 903.4C1168.33 897.8 1171.47 892.667 1175.2 888C1179.07 883.2 1183.13 878.8 1187.4 874.8C1191.8 870.667 1195.87 866.733 1199.6 863C1203.47 859.267 1206.6 855.667 1209 852.2C1211.53 848.733 1212.8 845.2 1212.8 841.6C1212.8 836.533 1211.27 832.667 1208.2 830C1205.13 827.2 1201.27 825.8 1196.6 825.8C1192.73 825.8 1188.67 826.733 1184.4 828.6C1180.13 830.467 1175.93 833.6 1171.8 838L1159.6 820.8C1164.93 815.2 1171.07 811.067 1178 808.4C1185.07 805.733 1192.07 804.4 1199 804.4C1204.07 804.4 1208.93 805.133 1213.6 806.6C1218.27 808.067 1222.4 810.267 1226 813.2C1229.6 816.133 1232.47 819.867 1234.6 824.4C1236.73 828.8 1237.8 833.933 1237.8 839.8Z" fill="white"/>
<rect x="1000" y="1198" width="200" height="200" rx="20" fill="#FF9D66"/>
<path d="M1092.6 1366.6C1089.53 1366.6 1086.27 1366.33 1082.8 1365.8C1079.47 1365.4 1076.2 1364.87 1073 1364.2C1069.93 1363.53 1067.07 1362.8 1064.4 1362C1061.73 1361.2 1059.67 1360.47 1058.2 1359.8L1063 1339.2C1066.07 1340.53 1070 1341.93 1074.8 1343.4C1079.73 1344.87 1085.6 1345.6 1092.4 1345.6C1100.8 1345.6 1106.67 1343.8 1110 1340.2C1113.47 1336.6 1115.2 1332.13 1115.2 1326.8C1115.2 1320.27 1112.6 1315.73 1107.4 1313.2C1102.2 1310.53 1095.6 1309.2 1087.6 1309.2H1080V1288.8H1089.2C1091.73 1288.8 1094.27 1288.53 1096.8 1288C1099.33 1287.47 1101.6 1286.6 1103.6 1285.4C1105.6 1284.2 1107.2 1282.6 1108.4 1280.6C1109.73 1278.6 1110.4 1276.07 1110.4 1273C1110.4 1268.47 1109 1264.93 1106.2 1262.4C1103.53 1259.73 1099.8 1258.4 1095 1258.4C1090.33 1258.4 1085.67 1259.2 1081 1260.8C1076.47 1262.27 1072.53 1264.13 1069.2 1266.4L1060.4 1248.4C1064 1246 1068.73 1243.6 1074.6 1241.2C1080.6 1238.67 1087.33 1237.4 1094.8 1237.4C1101.73 1237.4 1107.73 1238.27 1112.8 1240C1118 1241.73 1122.27 1244.2 1125.6 1247.4C1128.93 1250.47 1131.4 1254.13 1133 1258.4C1134.6 1262.67 1135.4 1267.27 1135.4 1272.2C1135.4 1277.13 1134 1281.87 1131.2 1286.4C1128.4 1290.93 1124.67 1294.4 1120 1296.8C1126.4 1299.47 1131.33 1303.4 1134.8 1308.6C1138.4 1313.8 1140.2 1320 1140.2 1327.2C1140.2 1332.93 1139.27 1338.2 1137.4 1343C1135.53 1347.8 1132.67 1352 1128.8 1355.6C1124.93 1359.07 1120 1361.8 1114 1363.8C1108 1365.67 1100.87 1366.6 1092.6 1366.6Z" fill="white"/>
<rect x="1273" y="1198" width="200" height="200" rx="20" fill="#FF9D66"/>
<path d="M1365.6 1366.6C1362.53 1366.6 1359.27 1366.33 1355.8 1365.8C1352.47 1365.4 1349.2 1364.87 1346 1364.2C1342.93 1363.53 1340.07 1362.8 1337.4 1362C1334.73 1361.2 1332.67 1360.47 1331.2 1359.8L1336 1339.2C1339.07 1340.53 1343 1341.93 1347.8 1343.4C1352.73 1344.87 1358.6 1345.6 1365.4 1345.6C1373.8 1345.6 1379.67 1343.8 1383 1340.2C1386.47 1336.6 1388.2 1332.13 1388.2 1326.8C1388.2 1320.27 1385.6 1315.73 1380.4 1313.2C1375.2 1310.53 1368.6 1309.2 1360.6 1309.2H1353V1288.8H1362.2C1364.73 1288.8 1367.27 1288.53 1369.8 1288C1372.33 1287.47 1374.6 1286.6 1376.6 1285.4C1378.6 1284.2 1380.2 1282.6 1381.4 1280.6C1382.73 1278.6 1383.4 1276.07 1383.4 1273C1383.4 1268.47 1382 1264.93 1379.2 1262.4C1376.53 1259.73 1372.8 1258.4 1368 1258.4C1363.33 1258.4 1358.67 1259.2 1354 1260.8C1349.47 1262.27 1345.53 1264.13 1342.2 1266.4L1333.4 1248.4C1337 1246 1341.73 1243.6 1347.6 1241.2C1353.6 1238.67 1360.33 1237.4 1367.8 1237.4C1374.73 1237.4 1380.73 1238.27 1385.8 1240C1391 1241.73 1395.27 1244.2 1398.6 1247.4C1401.93 1250.47 1404.4 1254.13 1406 1258.4C1407.6 1262.67 1408.4 1267.27 1408.4 1272.2C1408.4 1277.13 1407 1281.87 1404.2 1286.4C1401.4 1290.93 1397.67 1294.4 1393 1296.8C1399.4 1299.47 1404.33 1303.4 1407.8 1308.6C1411.4 1313.8 1413.2 1320 1413.2 1327.2C1413.2 1332.93 1412.27 1338.2 1410.4 1343C1408.53 1347.8 1405.67 1352 1401.8 1355.6C1397.93 1359.07 1393 1361.8 1387 1363.8C1381 1365.67 1373.87 1366.6 1365.6 1366.6Z" fill="white"/>
<rect x="1546" y="1198" width="200" height="200" rx="20" fill="#FF9D66"/>
<path d="M1682.8 1272.8C1682.8 1277.07 1682 1281.2 1680.4 1285.2C1678.8 1289.07 1676.67 1292.87 1674 1296.6C1671.33 1300.33 1668.33 1303.93 1665 1307.4C1661.67 1310.87 1658.27 1314.2 1654.8 1317.4C1653.07 1319 1651.07 1320.93 1648.8 1323.2C1646.53 1325.33 1644.4 1327.6 1642.4 1330C1640.4 1332.27 1638.67 1334.6 1637.2 1337C1635.87 1339.4 1635.2 1341.6 1635.2 1343.6H1688.4V1364H1607.6C1607.2 1362.67 1607 1361 1607 1359C1607.13 1357 1607.2 1355.6 1607.2 1354.8C1607.2 1348.13 1608.4 1342 1610.8 1336.4C1613.33 1330.8 1616.47 1325.67 1620.2 1321C1624.07 1316.2 1628.13 1311.8 1632.4 1307.8C1636.8 1303.67 1640.87 1299.73 1644.6 1296C1648.47 1292.27 1651.6 1288.67 1654 1285.2C1656.53 1281.73 1657.8 1278.2 1657.8 1274.6C1657.8 1269.53 1656.27 1265.67 1653.2 1263C1650.13 1260.2 1646.27 1258.8 1641.6 1258.8C1637.73 1258.8 1633.67 1259.73 1629.4 1261.6C1625.13 1263.47 1620.93 1266.6 1616.8 1271L1604.6 1253.8C1609.93 1248.2 1616.07 1244.07 1623 1241.4C1630.07 1238.73 1637.07 1237.4 1644 1237.4C1649.07 1237.4 1653.93 1238.13 1658.6 1239.6C1663.27 1241.07 1667.4 1243.27 1671 1246.2C1674.6 1249.13 1677.47 1252.87 1679.6 1257.4C1681.73 1261.8 1682.8 1266.93 1682.8 1272.8Z" fill="white"/>
<path d="M647.253 386.484L695.179 314.351L733.685 391.922L647.253 386.484Z" fill="#FF6F66"/>
<path d="M802.18 320.743L718.878 362.093L709.986 344.179L793.287 302.828L802.18 320.743Z" fill="#FF6F66"/>
<path d="M318.09 750.693L319.705 664.106L393.884 708.798L318.09 750.693Z" fill="#FF8266"/>
<path d="M402.778 629.507L365.36 691.613L348.229 681.291L385.647 619.186L402.778 629.507Z" fill="#FF8266"/>
<path d="M1262.09 750.693L1263.7 664.106L1337.88 708.798L1262.09 750.693Z" fill="#FF8266"/>
<path d="M1346.78 629.507L1309.36 691.613L1292.23 681.291L1329.65 619.186L1346.78 629.507Z" fill="#FF8266"/>
<path d="M667.213 750.693L665.598 664.106L591.418 708.798L667.213 750.693Z" fill="#FF8266"/>
<path d="M582.524 629.507L619.942 691.613L637.073 681.291L599.655 619.186L582.524 629.507Z" fill="#FF8266"/>
<path d="M1281.73 388.484L1233.81 316.351L1195.3 393.922L1281.73 388.484Z" fill="#FF6F66"/>
<path d="M1126.81 322.743L1210.11 364.093L1219 346.179L1135.7 304.828L1126.81 322.743Z" fill="#FF6F66"/>
<path d="M286.8 1466.9C286.8 1468.63 286.267 1470.13 285.2 1471.4C284.2 1472.67 282.867 1473.3 281.2 1473.3C279.467 1473.3 278.067 1472.67 277 1471.4C275.933 1470.13 275.4 1468.63 275.4 1466.9C275.4 1465.17 275.933 1463.63 277 1462.3C278.067 1460.97 279.467 1460.3 281.2 1460.3C282.867 1460.3 284.2 1460.97 285.2 1462.3C286.267 1463.63 286.8 1465.17 286.8 1466.9ZM260.6 1468C260.6 1457.6 262.367 1449.63 265.9 1444.1C269.5 1438.5 274.533 1435.7 281 1435.7C287.533 1435.7 292.567 1438.5 296.1 1444.1C299.633 1449.63 301.4 1457.6 301.4 1468C301.4 1478.4 299.633 1486.4 296.1 1492C292.567 1497.53 287.533 1500.3 281 1500.3C274.533 1500.3 269.5 1497.53 265.9 1492C262.367 1486.4 260.6 1478.4 260.6 1468ZM293 1468C293 1464.6 292.8 1461.4 292.4 1458.4C292 1455.33 291.333 1452.67 290.4 1450.4C289.467 1448.13 288.233 1446.33 286.7 1445C285.167 1443.67 283.267 1443 281 1443C278.733 1443 276.833 1443.67 275.3 1445C273.767 1446.33 272.533 1448.13 271.6 1450.4C270.667 1452.67 270 1455.33 269.6 1458.4C269.2 1461.4 269 1464.6 269 1468C269 1471.4 269.2 1474.63 269.6 1477.7C270 1480.7 270.667 1483.33 271.6 1485.6C272.533 1487.87 273.767 1489.67 275.3 1491C276.833 1492.33 278.733 1493 281 1493C283.267 1493 285.167 1492.33 286.7 1491C288.233 1489.67 289.467 1487.87 290.4 1485.6C291.333 1483.33 292 1480.7 292.4 1477.7C292.8 1474.63 293 1471.4 293 1468Z" fill="#404040"/>
<path d="M536.5 1449.9C539.9 1448.57 543.2 1446.9 546.4 1444.9C549.6 1442.83 552.567 1440.23 555.3 1437.1H561.1V1492H572.8V1499H539.5V1492H552.9V1448.6C552.167 1449.27 551.267 1449.97 550.2 1450.7C549.2 1451.37 548.067 1452.03 546.8 1452.7C545.6 1453.37 544.333 1454 543 1454.6C541.667 1455.2 540.367 1455.7 539.1 1456.1L536.5 1449.9Z" fill="#404040"/>
<path d="M845 1452.9C845 1455.03 844.567 1457.1 843.7 1459.1C842.9 1461.1 841.8 1463.07 840.4 1465C839.067 1466.93 837.533 1468.83 835.8 1470.7C834.067 1472.57 832.3 1474.4 830.5 1476.2C829.5 1477.2 828.333 1478.4 827 1479.8C825.667 1481.2 824.4 1482.63 823.2 1484.1C822 1485.57 821 1487 820.2 1488.4C819.4 1489.8 819 1491 819 1492H847.5V1499H810C809.933 1498.67 809.9 1498.33 809.9 1498C809.9 1497.6 809.9 1497.23 809.9 1496.9C809.9 1494.1 810.367 1491.5 811.3 1489.1C812.233 1486.7 813.433 1484.43 814.9 1482.3C816.367 1480.17 818 1478.17 819.8 1476.3C821.667 1474.37 823.5 1472.5 825.3 1470.7C826.767 1469.23 828.167 1467.8 829.5 1466.4C830.9 1465 832.1 1463.6 833.1 1462.2C834.167 1460.8 835 1459.37 835.6 1457.9C836.267 1456.37 836.6 1454.8 836.6 1453.2C836.6 1451.4 836.3 1449.87 835.7 1448.6C835.167 1447.33 834.4 1446.3 833.4 1445.5C832.467 1444.63 831.367 1444 830.1 1443.6C828.833 1443.2 827.467 1443 826 1443C824.267 1443 822.667 1443.23 821.2 1443.7C819.8 1444.17 818.533 1444.73 817.4 1445.4C816.333 1446.07 815.4 1446.73 814.6 1447.4C813.8 1448 813.2 1448.5 812.8 1448.9L808.7 1443.1C809.233 1442.5 810.033 1441.77 811.1 1440.9C812.167 1440.03 813.433 1439.23 814.9 1438.5C816.433 1437.7 818.133 1437.03 820 1436.5C821.867 1435.97 823.867 1435.7 826 1435.7C832.467 1435.7 837.233 1437.2 840.3 1440.2C843.433 1443.13 845 1447.37 845 1452.9Z" fill="#404040"/>
<path d="M1096.2 1493C1101.47 1493 1105.2 1491.97 1107.4 1489.9C1109.67 1487.77 1110.8 1484.93 1110.8 1481.4C1110.8 1479.13 1110.33 1477.23 1109.4 1475.7C1108.47 1474.17 1107.23 1472.93 1105.7 1472C1104.17 1471.07 1102.4 1470.4 1100.4 1470C1098.4 1469.6 1096.3 1469.4 1094.1 1469.4H1092V1462.7H1094.9C1096.37 1462.7 1097.87 1462.57 1099.4 1462.3C1101 1461.97 1102.43 1461.43 1103.7 1460.7C1105.03 1459.9 1106.1 1458.83 1106.9 1457.5C1107.7 1456.17 1108.1 1454.47 1108.1 1452.4C1108.1 1449 1107.03 1446.6 1104.9 1445.2C1102.83 1443.73 1100.4 1443 1097.6 1443C1094.73 1443 1092.3 1443.43 1090.3 1444.3C1088.3 1445.1 1086.63 1445.93 1085.3 1446.8L1082.1 1440.5C1083.5 1439.5 1085.6 1438.47 1088.4 1437.4C1091.27 1436.27 1094.43 1435.7 1097.9 1435.7C1101.17 1435.7 1103.97 1436.1 1106.3 1436.9C1108.63 1437.7 1110.53 1438.83 1112 1440.3C1113.53 1441.77 1114.67 1443.5 1115.4 1445.5C1116.13 1447.43 1116.5 1449.57 1116.5 1451.9C1116.5 1455.17 1115.63 1457.93 1113.9 1460.2C1112.23 1462.47 1110.07 1464.2 1107.4 1465.4C1110.6 1466.33 1113.37 1468.17 1115.7 1470.9C1118.03 1473.57 1119.2 1477.13 1119.2 1481.6C1119.2 1484.27 1118.73 1486.77 1117.8 1489.1C1116.93 1491.37 1115.57 1493.33 1113.7 1495C1111.9 1496.67 1109.53 1497.97 1106.6 1498.9C1103.73 1499.83 1100.3 1500.3 1096.3 1500.3C1094.77 1500.3 1093.17 1500.17 1091.5 1499.9C1089.9 1499.7 1088.4 1499.4 1087 1499C1085.6 1498.67 1084.33 1498.33 1083.2 1498C1082.13 1497.6 1081.37 1497.3 1080.9 1497.1L1082.5 1490C1083.57 1490.53 1085.27 1491.17 1087.6 1491.9C1089.93 1492.63 1092.8 1493 1096.2 1493Z" fill="#404040"/>
<path d="M1351.6 1477.6C1352.73 1474.93 1354.27 1471.87 1356.2 1468.4C1358.2 1464.93 1360.43 1461.37 1362.9 1457.7C1365.37 1453.97 1368 1450.33 1370.8 1446.8C1373.6 1443.2 1376.43 1439.97 1379.3 1437.1H1387.3V1476.4H1394.6V1483.2H1387.3V1499H1379.3V1483.2H1351.6V1477.6ZM1379.3 1446.9C1377.5 1448.83 1375.67 1450.97 1373.8 1453.3C1372 1455.63 1370.23 1458.1 1368.5 1460.7C1366.77 1463.23 1365.13 1465.83 1363.6 1468.5C1362.13 1471.17 1360.8 1473.8 1359.6 1476.4H1379.3V1446.9Z" fill="#404040"/>
<path d="M1639.6 1461C1648.53 1461.33 1655.03 1463.3 1659.1 1466.9C1663.17 1470.5 1665.2 1475.33 1665.2 1481.4C1665.2 1484.13 1664.77 1486.67 1663.9 1489C1663.03 1491.33 1661.67 1493.33 1659.8 1495C1658 1496.67 1655.67 1497.97 1652.8 1498.9C1650 1499.83 1646.67 1500.3 1642.8 1500.3C1641.2 1500.3 1639.6 1500.17 1638 1499.9C1636.47 1499.7 1635 1499.43 1633.6 1499.1C1632.2 1498.77 1630.97 1498.43 1629.9 1498.1C1628.83 1497.7 1628.07 1497.37 1627.6 1497.1L1629.2 1490C1630.27 1490.53 1631.9 1491.17 1634.1 1491.9C1636.37 1492.63 1639.2 1493 1642.6 1493C1645.27 1493 1647.5 1492.7 1649.3 1492.1C1651.1 1491.5 1652.53 1490.7 1653.6 1489.7C1654.73 1488.63 1655.53 1487.43 1656 1486.1C1656.53 1484.77 1656.8 1483.37 1656.8 1481.9C1656.8 1479.63 1656.4 1477.63 1655.6 1475.9C1654.87 1474.1 1653.53 1472.6 1651.6 1471.4C1649.73 1470.2 1647.13 1469.3 1643.8 1468.7C1640.53 1468.03 1636.4 1467.7 1631.4 1467.7C1631.8 1464.77 1632.1 1462.03 1632.3 1459.5C1632.57 1456.9 1632.77 1454.4 1632.9 1452C1633.1 1449.53 1633.23 1447.1 1633.3 1444.7C1633.43 1442.3 1633.57 1439.77 1633.7 1437.1H1663.5V1444.1H1640.9C1640.83 1445.03 1640.73 1446.27 1640.6 1447.8C1640.53 1449.27 1640.43 1450.83 1640.3 1452.5C1640.17 1454.17 1640.03 1455.77 1639.9 1457.3C1639.77 1458.83 1639.67 1460.07 1639.6 1461Z" fill="#404040"/>
</svg>
