<svg width="1920" height="1080" viewBox="0 0 1920 1080" preserveAspectRatio="xMidYMid slice" fill="none" xmlns="http://www.w3.org/2000/svg">
<g clip-path="url(#clip0)">
<rect width="1920" height="1080" fill="#F55078"/>
<circle cx="222.5" cy="96.5" r="67.5" fill="#FF8BA7"/>
<circle cx="1771.5" cy="149.5" r="29.5" fill="#FF8BA7"/>
<circle cx="1839" cy="979" r="38" fill="#FF8BA7"/>
<circle cx="88.5" cy="767.5" r="35.5" fill="#FF8BA7"/>
<path d="M729.182 0C398.382 99.6 191.182 410.5 191.182 593C181.182 828.5 585.682 990.5 747.682 1080.5H1564.68L1564.97 1080.17C1632.49 1001.65 1741.18 875.238 1741.18 688.5C1741.18 381 1379.18 0 1120.68 0H729.182Z" fill="#FF8BA7"/>
<circle cx="1526" cy="949" r="30" fill="#FFABBF"/>
<circle cx="606" cy="247" r="47" fill="#FFABBF"/>
<path d="M742.5 941C742.5 967.234 721.234 988.5 695 988.5C668.766 988.5 647.5 967.234 647.5 941C647.5 914.766 668.766 893.5 695 893.5C721.234 893.5 742.5 914.766 742.5 941Z" fill="#FFABBF"/>
<circle cx="1373" cy="285" r="24" fill="#FFABBF"/>
<g filter="url(#filter0_d)">
<rect x="1326.04" y="593.28" width="200" height="270" rx="24" transform="rotate(20.3199 1326.04 593.28)" fill="#FFABBF" stroke="#FF9EB6" stroke-width="16"/>
<rect x="1312.68" y="758.95" width="24" height="70" rx="6" transform="rotate(20.3199 1312.68 758.95)" fill="#FFBFCE"/>
<rect x="1274.79" y="795.038" width="24" height="70" rx="6" transform="rotate(-69.6801 1274.79 795.038)" fill="#FFBFCE"/>
<circle cx="1375.13" cy="832.195" r="12" transform="rotate(20.3199 1375.13 832.195)" fill="#FFBFCE"/>
<circle cx="1417.22" cy="822.19" r="12" transform="rotate(20.3199 1417.22 822.19)" fill="#FFBFCE"/>
<g clip-path="url(#clip1)">
<rect x="1338.34" y="623.426" width="155" height="105" rx="20" transform="rotate(20.3199 1338.34 623.426)" fill="#FFBFCE"/>
<rect x="1424.54" y="635.033" width="13.9942" height="148.36" transform="rotate(60.3129 1424.54 635.033)" fill="#FFD0DB"/>
<rect x="1450.85" y="650.16" width="18.3825" height="158.38" transform="rotate(60.3129 1450.85 650.16)" fill="#FFD0DB"/>
</g>
</g>
<g filter="url(#filter1_d)">
<rect x="349.912" y="494.045" width="187.27" height="187.27" rx="40" transform="rotate(-14.6543 349.912 494.045)" fill="#FFABBF"/>
<rect x="392.268" y="518.841" width="117.645" height="117.645" rx="40" transform="rotate(-14.6543 392.268 518.841)" fill="#FFBFCF"/>
<path d="M427.955 527.527C421.701 529.163 417.957 535.558 419.592 541.812C421.227 548.066 427.623 551.81 433.877 550.175C440.131 548.539 443.875 542.144 442.239 535.89C440.604 529.636 434.209 525.892 427.955 527.527Z" fill="#FFABBF"/>
<rect width="70.2263" height="15.0485" transform="matrix(0.252986 0.96747 0.96747 -0.252986 447.486 661.704)" fill="#FFABBF"/>
<circle r="17.5566" transform="matrix(0.252986 0.96747 0.96747 -0.252986 472.493 727.595)" fill="#FFBFCE"/>
<rect width="50.9486" height="15.0485" transform="matrix(0.252986 0.96747 0.96747 -0.252986 513.772 644.213)" fill="#FFABBF"/>
<circle r="17.5566" transform="matrix(0.252986 0.96747 0.96747 -0.252986 533.953 691.648)" fill="#FFBFCE"/>
<rect width="70.2263" height="15.0485" transform="matrix(-0.252986 -0.96747 -0.96747 0.252986 481.127 459.889)" fill="#FFABBF"/>
<circle r="17.5566" transform="matrix(-0.252986 -0.96747 -0.96747 0.252986 456.12 393.998)" fill="#FFBFCE"/>
<rect width="50.9486" height="15.0485" transform="matrix(-0.252986 -0.96747 -0.96747 0.252986 414.842 477.38)" fill="#FFABBF"/>
<circle r="17.5566" transform="matrix(-0.252986 -0.96747 -0.96747 0.252986 394.66 429.945)" fill="#FFBFCE"/>
<rect x="564.345" y="576.548" width="70.2263" height="15.0485" transform="rotate(-14.6543 564.345 576.548)" fill="#FFABBF"/>
<circle cx="634.043" cy="566.1" r="17.5566" transform="rotate(-14.6543 634.043 566.1)" fill="#FFBFCE"/>
<rect x="552.437" y="530.406" width="50.9486" height="15.0485" transform="rotate(-14.6543 552.437 530.406)" fill="#FFABBF"/>
<circle cx="603.679" cy="524.784" r="17.5566" transform="rotate(-14.6543 603.679 524.784)" fill="#FFBFCE"/>
<rect x="540.381" y="484.303" width="70.2263" height="15.0485" transform="rotate(-14.6543 540.381 484.303)" fill="#FFABBF"/>
<circle cx="610.079" cy="473.855" r="17.5566" transform="rotate(-14.6543 610.079 473.855)" fill="#FFBFCE"/>
<rect width="70.2263" height="15.0485" transform="matrix(-0.96747 0.252986 0.252986 0.96747 383.976 623.713)" fill="#FFABBF"/>
<circle r="17.5566" transform="matrix(-0.96747 0.252986 0.252986 0.96747 318.085 648.72)" fill="#FFBFCE"/>
<rect width="50.9486" height="15.0485" transform="matrix(-0.96747 0.252986 0.252986 0.96747 371.773 577.648)" fill="#FFABBF"/>
<circle r="17.5566" transform="matrix(-0.96747 0.252986 0.252986 0.96747 324.337 597.83)" fill="#FFBFCE"/>
<rect width="70.2263" height="15.0485" transform="matrix(-0.96747 0.252986 0.252986 0.96747 359.717 531.545)" fill="#FFABBF"/>
<circle r="17.5566" transform="matrix(-0.96747 0.252986 0.252986 0.96747 293.826 556.552)" fill="#FFBFCE"/>
</g>
<g filter="url(#filter2_d)">
<path d="M1170.42 96.7C1173.23 50.0216 1173.23 50.0216 1127.49 47.2678L839.951 29.9583C794.206 27.2045 794.206 27.2045 791.396 73.883L788.035 121.934C786.208 152.275 781.108 166.959 810.983 168.757C823.586 169.516 820.819 184.341 820.033 197.411C819.246 210.481 832.428 209.4 844.098 210.103L987.401 218.729C999.07 219.432 1012.03 222.086 1012.81 209.016C1013.6 195.946 1012.63 180.896 1025.24 181.655L1035.97 182.301C1048.58 183.06 1045.81 197.885 1045.02 210.955C1044.24 224.025 1057.42 222.944 1069.09 223.647L1101.76 225.614C1113.43 226.316 1126.39 228.97 1127.18 215.9C1127.96 202.83 1127 187.781 1139.6 188.539C1169.47 190.338 1166.17 175.148 1168 144.807L1170.42 96.7Z" fill="#FFBFCE" stroke="#FFABBF" stroke-width="16"/>
<path d="M860.772 205.485L863.414 161.607" stroke="#FFABBF" stroke-width="16"/>
<path d="M895.314 207.564L897.956 163.686" stroke="#FFABBF" stroke-width="16"/>
<path d="M929.857 209.644L932.498 165.766" stroke="#FFABBF" stroke-width="16"/>
<path d="M964.399 211.723L967.04 167.845" stroke="#FFABBF" stroke-width="16"/>
<path d="M1068.02 217.961L1070.67 174.083" stroke="#FFABBF" stroke-width="16"/>
<path d="M1102.57 220.041L1105.21 176.163" stroke="#FFABBF" stroke-width="16"/>
<path d="M868.511 69.1557L832.568 66.992C824.166 66.4862 824.166 66.4862 823.604 75.8219L821.16 116.432C820.598 125.768 820.598 125.768 829 126.274L864.942 128.437C873.344 128.943 873.344 128.943 873.906 119.607L876.351 78.9972C876.913 69.6615 876.913 69.6615 868.511 69.1557Z" stroke="#FFABBF" stroke-width="16"/>
<path d="M955.333 74.3822L919.39 72.2185C910.988 71.7128 910.988 71.7128 910.426 81.0484L907.981 121.659C907.419 130.994 907.419 130.994 915.822 131.5L951.764 133.664C960.166 134.17 960.166 134.17 960.728 124.834L963.173 84.2237C963.735 74.888 963.735 74.888 955.333 74.3822Z" stroke="#FFABBF" stroke-width="16"/>
<path d="M1042.15 79.6088L1006.21 77.4451C997.81 76.9393 997.81 76.9393 997.248 86.275L994.803 126.885C994.241 136.221 994.241 136.221 1002.64 136.727L1038.59 138.89C1046.99 139.396 1046.99 139.396 1047.55 130.061L1049.99 89.4503C1050.56 80.1146 1050.56 80.1146 1042.15 79.6088Z" stroke="#FFABBF" stroke-width="16"/>
<path d="M1128.98 84.8353L1093.03 82.6717C1084.63 82.1659 1084.63 82.1659 1084.07 91.5016L1081.63 132.112C1081.06 141.447 1081.06 141.447 1089.47 141.953L1125.41 144.117C1133.81 144.623 1133.81 144.623 1134.37 135.287L1136.82 94.6768C1137.38 85.3411 1137.38 85.3411 1128.98 84.8353Z" stroke="#FFABBF" stroke-width="16"/>
<path d="M1231.47 184.08C1241.55 138.417 1241.55 138.417 1196.8 128.537L915.518 66.4358C870.768 56.5561 870.768 56.5561 860.686 102.219L849.846 149.152C843.293 178.833 835.957 192.538 865.182 198.99C877.511 201.712 872.458 215.921 869.636 228.707C866.813 241.492 880.002 242.489 891.418 245.009L1031.6 275.959C1043.02 278.479 1055.4 283.129 1058.23 270.343C1061.05 257.557 1062.45 242.542 1074.78 245.264L1085.28 247.582C1097.61 250.304 1092.56 264.513 1089.73 277.299C1086.91 290.085 1100.1 291.081 1111.51 293.601L1143.48 300.658C1154.89 303.179 1167.28 307.828 1170.1 295.042C1172.92 282.256 1174.32 267.241 1186.65 269.963C1215.88 276.415 1214.99 260.895 1221.55 231.214L1231.47 184.08Z" fill="#FFBFCE" stroke="#FFABBF" stroke-width="16"/>
<path d="M908.61 243.058L918.086 200.134" stroke="#FFABBF" stroke-width="16"/>
<path d="M942.4 250.518L951.877 207.595" stroke="#FFABBF" stroke-width="16"/>
<path d="M976.191 257.978L985.668 215.055" stroke="#FFABBF" stroke-width="16"/>
<path d="M1009.98 265.439L1019.46 222.515" stroke="#FFABBF" stroke-width="16"/>
<path d="M1111.35 287.819L1120.83 244.896" stroke="#FFABBF" stroke-width="16"/>
<path d="M1145.15 295.28L1154.62 252.356" stroke="#FFABBF" stroke-width="16"/>
<path d="M937.591 109.62L902.43 101.858C894.211 100.043 894.211 100.043 892.194 109.176L883.423 148.903C881.407 158.035 881.407 158.035 889.627 159.85L924.787 167.613C933.007 169.427 933.007 169.427 935.023 160.295L943.794 120.568C945.81 111.435 945.81 111.435 937.591 109.62Z" stroke="#FFABBF" stroke-width="16"/>
<path d="M1022.52 128.372L987.364 120.609C979.144 118.794 979.144 118.794 977.128 127.927L968.357 167.654C966.341 176.787 966.341 176.787 974.56 178.601L1009.72 186.364C1017.94 188.179 1017.94 188.179 1019.96 179.046L1028.73 139.319C1030.74 130.186 1030.74 130.186 1022.52 128.372Z" stroke="#FFABBF" stroke-width="16"/>
<path d="M1107.46 147.123L1072.3 139.36C1064.08 137.546 1064.08 137.546 1062.06 146.678L1053.29 186.405C1051.27 195.538 1051.27 195.538 1059.49 197.353L1094.65 205.115C1102.87 206.93 1102.87 206.93 1104.89 197.797L1113.66 158.07C1115.68 148.938 1115.68 148.938 1107.46 147.123Z" stroke="#FFABBF" stroke-width="16"/>
<path d="M1192.39 165.874L1157.23 158.112C1149.01 156.297 1149.01 156.297 1147 165.43L1138.22 205.157C1136.21 214.289 1136.21 214.289 1144.43 216.104L1179.59 223.867C1187.81 225.681 1187.81 225.681 1189.82 216.549L1198.6 176.822C1200.61 167.689 1200.61 167.689 1192.39 165.874Z" stroke="#FFABBF" stroke-width="16"/>
</g>
<rect x="766.182" y="340" width="400" height="400" rx="32" fill="#FA6589"/>
<path d="M844.079 622.9L841.359 633.1H864.989L862.439 622.9C860.852 617.347 859.322 611.453 857.849 605.22C856.376 598.987 854.902 592.98 853.429 587.2H852.749C851.389 593.093 849.972 599.157 848.499 605.39C847.139 611.51 845.666 617.347 844.079 622.9ZM803.959 679L838.639 568.16H868.729L903.409 679H876.889L870.089 652.65H836.259L829.459 679H803.959ZM949.35 681.04C942.097 681.04 934.844 679.737 927.59 677.13C920.45 674.41 914.047 670.387 908.38 665.06L922.66 647.89C926.627 651.29 930.99 654.067 935.75 656.22C940.624 658.373 945.384 659.45 950.03 659.45C955.244 659.45 959.097 658.487 961.59 656.56C964.197 654.633 965.5 652.027 965.5 648.74C965.5 647.04 965.104 645.567 964.31 644.32C963.63 643.073 962.554 641.997 961.08 641.09C959.72 640.07 958.02 639.163 955.98 638.37C954.054 637.463 951.9 636.5 949.52 635.48L935.07 629.36C932.237 628.227 929.46 626.753 926.74 624.94C924.134 623.127 921.754 621.03 919.6 618.65C917.56 616.157 915.917 613.323 914.67 610.15C913.424 606.863 912.8 603.18 912.8 599.1C912.8 594.567 913.764 590.317 915.69 586.35C917.617 582.27 920.337 578.757 923.85 575.81C927.364 572.75 931.5 570.37 936.26 568.67C941.134 566.97 946.46 566.12 952.24 566.12C958.7 566.12 965.047 567.367 971.28 569.86C977.627 572.353 983.18 575.98 987.94 580.74L975.19 596.55C971.564 593.717 967.937 591.563 964.31 590.09C960.684 588.503 956.66 587.71 952.24 587.71C947.934 587.71 944.477 588.617 941.87 590.43C939.377 592.13 938.13 594.567 938.13 597.74C938.13 599.44 938.527 600.913 939.32 602.16C940.227 603.293 941.417 604.37 942.89 605.39C944.477 606.297 946.29 607.203 948.33 608.11C950.37 608.903 952.58 609.81 954.96 610.83L969.24 616.61C976.04 619.33 981.367 623.07 985.22 627.83C989.187 632.59 991.17 638.88 991.17 646.7C991.17 651.347 990.207 655.767 988.28 659.96C986.467 664.04 983.747 667.667 980.12 670.84C976.607 673.9 972.244 676.393 967.03 678.32C961.817 680.133 955.924 681.04 949.35 681.04ZM1009.98 679V568.16H1037.35L1055.2 617.46C1056.34 620.747 1057.41 624.147 1058.43 627.66C1059.45 631.06 1060.53 634.46 1061.66 637.86H1062.34C1063.48 634.46 1064.5 631.06 1065.4 627.66C1066.42 624.147 1067.5 620.747 1068.63 617.46L1086.14 568.16H1113.34V679H1090.56V638.37C1090.56 635.65 1090.68 632.647 1090.9 629.36C1091.13 626.073 1091.41 622.787 1091.75 619.5C1092.09 616.1 1092.43 612.813 1092.77 609.64C1093.11 606.353 1093.45 603.35 1093.79 600.63H1093.11L1084.1 626.98L1068.29 669.31H1054.52L1038.71 626.98L1029.87 600.63H1029.19C1029.53 603.35 1029.87 606.353 1030.21 609.64C1030.55 612.813 1030.89 616.1 1031.23 619.5C1031.57 622.787 1031.86 626.073 1032.08 629.36C1032.31 632.647 1032.42 635.65 1032.42 638.37V679H1009.98Z" fill="#FFD9E2"/>
<path d="M979.182 378.805C975.015 368.389 977.099 367 965.987 367C954.876 367 956.204 368.389 952.037 378.805C948.982 386.444 949.26 389.917 940.232 394.083C930.902 397.521 929.422 394.288 921.86 391.047C911.548 386.627 912.068 384.143 904.211 392C896.354 399.857 898.809 399.366 903.229 409.678C906.47 417.24 909.703 418.72 906.265 428.05C902.099 437.077 898.627 436.8 890.988 439.855C880.571 444.022 879.182 441.938 879.182 453.05C879.182 464.161 880.571 462.833 890.988 467C898.627 470.055 902.099 469.777 906.265 478.805C909.703 488.135 906.47 489.615 903.229 497.177C898.809 507.489 896.354 506.998 904.211 514.855C912.068 522.712 911.548 520.373 921.86 515.953C929.422 512.712 930.902 509.479 940.232 512.917C949.26 517.083 948.982 520.556 952.037 528.194C956.204 538.611 954.121 540 965.232 540C976.343 540 975.015 538.611 979.182 528.194C982.237 520.556 981.96 517.083 990.987 512.917C1000.32 509.479 1001.8 512.712 1009.36 515.953C1019.67 520.373 1019.24 522.773 1027.1 514.916C1034.96 507.06 1032.55 507.489 1028.14 497.177C1024.89 489.615 1021.66 488.135 1025.1 478.805C1029.27 469.777 1032.74 470.055 1040.38 467C1050.79 462.833 1052.18 464.916 1052.18 453.805C1052.18 442.694 1050.79 444.022 1040.38 439.855C1032.74 436.8 1029.27 437.077 1025.1 428.05C1021.66 418.72 1024.89 417.24 1028.14 409.678C1032.55 399.366 1034.89 399.886 1027.04 392.029C1019.18 384.172 1019.67 386.627 1009.36 391.047C1001.8 394.288 1000.32 397.521 990.987 394.083C981.96 389.917 982.237 386.444 979.182 378.805Z" fill="#FFD9E2"/>
<circle cx="965.293" cy="453.111" r="41.6666" fill="#FA6589"/>
<circle cx="965.293" cy="453.111" r="16.6666" fill="#FFD9E2"/>
</g>
<defs>
<filter id="filter0_d" x="1212" y="573" width="341.875" height="383.21" filterUnits="userSpaceOnUse" color-interpolation-filters="sRGB">
<feFlood flood-opacity="0" result="BackgroundImageFix"/>
<feColorMatrix in="SourceAlpha" type="matrix" values="0 0 0 0 0 0 0 0 0 0 0 0 0 0 0 0 0 0 127 0" result="hardAlpha"/>
<feOffset dx="10" dy="10"/>
<feGaussianBlur stdDeviation="10"/>
<feComposite in2="hardAlpha" operator="out"/>
<feColorMatrix type="matrix" values="0 0 0 0 0.745833 0 0 0 0 0.652604 0 0 0 0 0.675911 0 0 0 0.19 0"/>
<feBlend mode="normal" in2="BackgroundImageFix" result="effect1_dropShadow"/>
<feBlend mode="normal" in="SourceGraphic" in2="effect1_dropShadow" result="shape"/>
</filter>
<filter id="filter1_d" x="262.399" y="362.571" width="423.071" height="416.45" filterUnits="userSpaceOnUse" color-interpolation-filters="sRGB">
<feFlood flood-opacity="0" result="BackgroundImageFix"/>
<feColorMatrix in="SourceAlpha" type="matrix" values="0 0 0 0 0 0 0 0 0 0 0 0 0 0 0 0 0 0 127 0" result="hardAlpha"/>
<feOffset dx="10" dy="10"/>
<feGaussianBlur stdDeviation="10"/>
<feComposite in2="hardAlpha" operator="out"/>
<feColorMatrix type="matrix" values="0 0 0 0 0.729167 0 0 0 0 0.665365 0 0 0 0 0.681315 0 0 0 0.19 0"/>
<feBlend mode="normal" in2="BackgroundImageFix" result="effect1_dropShadow"/>
<feBlend mode="normal" in="SourceGraphic" in2="effect1_dropShadow" result="shape"/>
</filter>
<filter id="filter2_d" x="764.276" y="8.69806" width="517.468" height="344.836" filterUnits="userSpaceOnUse" color-interpolation-filters="sRGB">
<feFlood flood-opacity="0" result="BackgroundImageFix"/>
<feColorMatrix in="SourceAlpha" type="matrix" values="0 0 0 0 0 0 0 0 0 0 0 0 0 0 0 0 0 0 127 0" result="hardAlpha"/>
<feOffset dx="10" dy="10"/>
<feGaussianBlur stdDeviation="10"/>
<feComposite in2="hardAlpha" operator="out"/>
<feColorMatrix type="matrix" values="0 0 0 0 0.905882 0 0 0 0 0.858824 0 0 0 0 0.870588 0 0 0 0.19 0"/>
<feBlend mode="normal" in2="BackgroundImageFix" result="effect1_dropShadow"/>
<feBlend mode="normal" in="SourceGraphic" in2="effect1_dropShadow" result="shape"/>
</filter>
<clipPath id="clip0">
<rect width="1920" height="1080" fill="white"/>
</clipPath>
<clipPath id="clip1">
<rect x="1338.34" y="623.426" width="155" height="105" rx="20" transform="rotate(20.3199 1338.34 623.426)" fill="white"/>
</clipPath>
</defs>
</svg>
