<svg width="3791" height="1431" viewBox="0 0 3791 1431" fill="none" xmlns="http://www.w3.org/2000/svg">
<rect x="993" y="101" width="200" height="200" rx="20" fill="#FF6F66"/>
<path d="M1132 160.4C1126.27 169.2 1121 177.467 1116.2 185.2C1111.4 192.933 1106.93 200.333 1102.8 207.4C1098.67 214.333 1094.73 221.067 1091 227.6C1087.4 234 1083.93 240.333 1080.6 246.6H1133.8V267H1052.2V252.8C1055.13 247.067 1058.27 241.067 1061.6 234.8C1064.93 228.4 1068.67 221.6 1072.8 214.4C1076.93 207.2 1081.4 199.4 1086.2 191C1091.13 182.6 1096.53 173.467 1102.4 163.6H1054.8V143.2H1132V160.4Z" fill="white"/>
<rect x="520" y="411" width="200" height="200" rx="20" fill="#FF8266"/>
<path d="M620.8 509.8C622.267 506.733 623.933 502.867 625.8 498.2C627.8 493.533 629.733 488.6 631.6 483.4C633.6 478.2 635.467 472.933 637.2 467.6C639.067 462.267 640.733 457.467 642.2 453.2H667.6C665.067 460 662.533 466.6 660 473C657.467 479.4 654.8 485.733 652 492C649.2 498.267 646.2 504.533 643 510.8C639.8 516.933 636.333 523.267 632.6 529.8V577H607.8V530C600.467 517.067 594 504.467 588.4 492.2C582.933 479.8 577.667 466.8 572.6 453.2H599C602.067 462.8 605.467 472.6 609.2 482.6C612.933 492.467 616.8 501.533 620.8 509.8Z" fill="white"/>
<rect x="284" y="765" width="200" height="200" rx="20" fill="#FF9D66"/>
<path d="M405.2 931C402.667 924.2 399.533 916.667 395.8 908.4C392.2 900.133 388.4 891.867 384.4 883.6C380.533 891.467 376.667 899.667 372.8 908.2C368.933 916.6 365.6 924.2 362.8 931H336.2C337.533 927.4 339.467 923.067 342 918C344.667 912.933 347.533 907.467 350.6 901.6C353.8 895.733 357.133 889.733 360.6 883.6C364.067 877.333 367.4 871.333 370.6 865.6L338.2 807.2H364.8L384.4 846.8L405 807.2H429.8L398.2 865C401.8 870.733 405.333 876.733 408.8 883C412.267 889.267 415.467 895.4 418.4 901.4C421.467 907.267 424.133 912.8 426.4 918C428.667 923.067 430.467 927.4 431.8 931H405.2Z" fill="white"/>
<rect x="1466" y="411" width="200" height="200" rx="20" fill="#BBBBBB"/>
<path d="M1586 453.2V473.6H1553.4V577H1528.6V473.6H1496V453.2H1586ZM1619.5 530.5C1618.3 532.033 1617.07 533.667 1615.8 535.4C1614.53 537.133 1613.27 538.967 1612 540.9C1610.8 542.767 1609.63 544.667 1608.5 546.6C1607.37 548.533 1606.37 550.433 1605.5 552.3H1619.5V530.5ZM1631.8 515.1V552.3H1638.5V562.4H1631.8V577H1619.5V562.4H1593.7V553.4C1594.97 550.8 1596.6 547.867 1598.6 544.6C1600.6 541.267 1602.8 537.867 1605.2 534.4C1607.6 530.933 1610.13 527.533 1612.8 524.2C1615.47 520.8 1618.13 517.767 1620.8 515.1H1631.8Z" fill="white"/>
<path d="M776.253 386.484L824.179 314.351L862.685 391.922L776.253 386.484Z" fill="#FF6F66"/>
<path d="M931.18 320.743L847.878 362.093L838.986 344.179L922.287 302.828L931.18 320.743Z" fill="#FF6F66"/>
<path d="M447.09 750.693L448.705 664.106L522.884 708.798L447.09 750.693Z" fill="#FF8266"/>
<path d="M531.778 629.507L494.36 691.613L477.229 681.291L514.647 619.186L531.778 629.507Z" fill="#FF8266"/>
<path d="M796.213 750.693L794.598 664.106L720.418 708.798L796.213 750.693Z" fill="#FF8266"/>
<path d="M711.524 629.507L748.942 691.613L766.073 681.291L728.655 619.186L711.524 629.507Z" fill="#FF8266"/>
<path d="M1410.73 388.484L1362.81 316.351L1324.3 393.922L1410.73 388.484Z" fill="#FF6F66"/>
<path d="M1255.81 322.743L1339.11 364.093L1348 346.179L1264.7 304.828L1255.81 322.743Z" fill="#FF6F66"/>
<rect x="758" y="773" width="200" height="200" rx="20" fill="#BBBBBB"/>
<path d="M878 815.2V835.6H845.4V939H820.6V835.6H788V815.2H878ZM904.3 940.3C902.767 940.3 901.133 940.167 899.4 939.9C897.733 939.7 896.1 939.433 894.5 939.1C892.967 938.767 891.533 938.4 890.2 938C888.867 937.6 887.833 937.233 887.1 936.9L889.5 926.6C891.033 927.267 893 927.967 895.4 928.7C897.867 929.433 900.8 929.8 904.2 929.8C908.4 929.8 911.333 928.9 913 927.1C914.733 925.3 915.6 923.067 915.6 920.4C915.6 917.133 914.3 914.867 911.7 913.6C909.1 912.267 905.8 911.6 901.8 911.6H898V901.4H902.6C903.867 901.4 905.133 901.267 906.4 901C907.667 900.733 908.8 900.3 909.8 899.7C910.8 899.1 911.6 898.3 912.2 897.3C912.867 896.3 913.2 895.033 913.2 893.5C913.2 891.233 912.5 889.467 911.1 888.2C909.767 886.867 907.9 886.2 905.5 886.2C903.167 886.2 900.833 886.6 898.5 887.4C896.233 888.133 894.267 889.067 892.6 890.2L888.2 881.2C890 880 892.367 878.8 895.3 877.6C898.3 876.333 901.667 875.7 905.4 875.7C908.867 875.7 911.867 876.133 914.4 877C917 877.867 919.133 879.1 920.8 880.7C922.467 882.233 923.7 884.067 924.5 886.2C925.3 888.333 925.7 890.633 925.7 893.1C925.7 895.567 925 897.933 923.6 900.2C922.2 902.467 920.333 904.2 918 905.4C921.2 906.733 923.667 908.7 925.4 911.3C927.2 913.9 928.1 917 928.1 920.6C928.1 923.467 927.633 926.1 926.7 928.5C925.767 930.9 924.333 933 922.4 934.8C920.467 936.533 918 937.9 915 938.9C912 939.833 908.433 940.3 904.3 940.3Z" fill="white"/>
<rect x="433" y="1140" width="200" height="200" rx="20" fill="#BBBBBB"/>
<path d="M553 1182.2V1202.6H520.4V1306H495.6V1202.6H463V1182.2H553ZM601.4 1260.4C601.4 1262.53 601 1264.6 600.2 1266.6C599.4 1268.53 598.333 1270.43 597 1272.3C595.667 1274.17 594.167 1275.97 592.5 1277.7C590.833 1279.43 589.133 1281.1 587.4 1282.7C586.533 1283.5 585.533 1284.47 584.4 1285.6C583.267 1286.67 582.2 1287.8 581.2 1289C580.2 1290.13 579.333 1291.3 578.6 1292.5C577.933 1293.7 577.6 1294.8 577.6 1295.8H604.2V1306H563.8C563.6 1305.33 563.5 1304.5 563.5 1303.5C563.567 1302.5 563.6 1301.8 563.6 1301.4C563.6 1298.07 564.2 1295 565.4 1292.2C566.667 1289.4 568.233 1286.83 570.1 1284.5C572.033 1282.1 574.067 1279.9 576.2 1277.9C578.4 1275.83 580.433 1273.87 582.3 1272C584.233 1270.13 585.8 1268.33 587 1266.6C588.267 1264.87 588.9 1263.1 588.9 1261.3C588.9 1258.77 588.133 1256.83 586.6 1255.5C585.067 1254.1 583.133 1253.4 580.8 1253.4C578.867 1253.4 576.833 1253.87 574.7 1254.8C572.567 1255.73 570.467 1257.3 568.4 1259.5L562.3 1250.9C564.967 1248.1 568.033 1246.03 571.5 1244.7C575.033 1243.37 578.533 1242.7 582 1242.7C584.533 1242.7 586.967 1243.07 589.3 1243.8C591.633 1244.53 593.7 1245.63 595.5 1247.1C597.3 1248.57 598.733 1250.43 599.8 1252.7C600.867 1254.9 601.4 1257.47 601.4 1260.4Z" fill="white"/>
<rect x="159" y="1140" width="200" height="200" rx="20" fill="#BBBBBB"/>
<path d="M279 1182.2V1202.6H246.4V1306H221.6V1202.6H189V1182.2H279ZM305.3 1295.8V1261.2C303.433 1262.53 301.3 1263.73 298.9 1264.8C296.5 1265.8 294.467 1266.6 292.8 1267.2L288.8 1257C290.4 1256.4 292.133 1255.63 294 1254.7C295.867 1253.77 297.733 1252.73 299.6 1251.6C301.467 1250.47 303.233 1249.27 304.9 1248C306.567 1246.73 308 1245.43 309.2 1244.1H317.6V1295.8H329.9V1306H292.3V1295.8H305.3Z" fill="white"/>
<path d="M468.969 1126.72L405.433 1067.87L488.165 1042.27L468.969 1126.72Z" fill="#FF9D66"/>
<path d="M434.919 982.844L456.352 1052.11L437.246 1058.02L415.813 988.756L434.919 982.844Z" fill="#FF9D66"/>
<path d="M299.366 1126.72L362.902 1067.87L280.17 1042.27L299.366 1126.72Z" fill="#FF9D66"/>
<path d="M333.416 982.844L311.983 1052.11L331.089 1058.02L352.522 988.756L333.416 982.844Z" fill="#FF9D66"/>
<rect x="2773" y="101" width="200" height="200" rx="20" fill="#FF8266"/>
<path d="M2873.8 199.8C2875.27 196.733 2876.93 192.867 2878.8 188.2C2880.8 183.533 2882.73 178.6 2884.6 173.4C2886.6 168.2 2888.47 162.933 2890.2 157.6C2892.07 152.267 2893.73 147.467 2895.2 143.2H2920.6C2918.07 150 2915.53 156.6 2913 163C2910.47 169.4 2907.8 175.733 2905 182C2902.2 188.267 2899.2 194.533 2896 200.8C2892.8 206.933 2889.33 213.267 2885.6 219.8V267H2860.8V220C2853.47 207.067 2847 194.467 2841.4 182.2C2835.93 169.8 2830.67 156.8 2825.6 143.2H2852C2855.07 152.8 2858.47 162.6 2862.2 172.6C2865.93 182.467 2869.8 191.533 2873.8 199.8Z" fill="white"/>
<rect x="2300" y="411" width="200" height="200" rx="20" fill="#FF9D66"/>
<path d="M2421.2 577C2418.67 570.2 2415.53 562.667 2411.8 554.4C2408.2 546.133 2404.4 537.867 2400.4 529.6C2396.53 537.467 2392.67 545.667 2388.8 554.2C2384.93 562.6 2381.6 570.2 2378.8 577H2352.2C2353.53 573.4 2355.47 569.067 2358 564C2360.67 558.933 2363.53 553.467 2366.6 547.6C2369.8 541.733 2373.13 535.733 2376.6 529.6C2380.07 523.333 2383.4 517.333 2386.6 511.6L2354.2 453.2H2380.8L2400.4 492.8L2421 453.2H2445.8L2414.2 511C2417.8 516.733 2421.33 522.733 2424.8 529C2428.27 535.267 2431.47 541.4 2434.4 547.4C2437.47 553.267 2440.13 558.8 2442.4 564C2444.67 569.067 2446.47 573.4 2447.8 577H2421.2Z" fill="white"/>
<rect x="3467" y="769" width="200" height="200" rx="20" fill="#BBBBBB"/>
<path d="M3587 811.2V831.6H3554.4V935H3529.6V831.6H3497V811.2H3587ZM3620.5 888.5C3619.3 890.033 3618.07 891.667 3616.8 893.4C3615.53 895.133 3614.27 896.967 3613 898.9C3611.8 900.767 3610.63 902.667 3609.5 904.6C3608.37 906.533 3607.37 908.433 3606.5 910.3H3620.5V888.5ZM3632.8 873.1V910.3H3639.5V920.4H3632.8V935H3620.5V920.4H3594.7V911.4C3595.97 908.8 3597.6 905.867 3599.6 902.6C3601.6 899.267 3603.8 895.867 3606.2 892.4C3608.6 888.933 3611.13 885.533 3613.8 882.2C3616.47 878.8 3619.13 875.767 3621.8 873.1H3632.8Z" fill="white"/>
<path d="M2556.25 386.484L2604.18 314.351L2642.69 391.922L2556.25 386.484Z" fill="#F841C4"/>
<path d="M2711.18 320.743L2627.88 362.093L2618.99 344.179L2702.29 302.828L2711.18 320.743Z" fill="#F841C4"/>
<path d="M2225.09 755.693L2226.7 669.106L2300.88 713.798L2225.09 755.693Z" fill="#FF9D66"/>
<path d="M2309.78 634.507L2272.36 696.613L2255.23 686.291L2292.65 624.186L2309.78 634.507Z" fill="#FF9D66"/>
<path d="M2574.21 755.693L2572.6 669.106L2498.42 713.798L2574.21 755.693Z" fill="#FF9D66"/>
<path d="M2489.52 634.507L2526.94 696.613L2544.07 686.291L2506.65 624.186L2489.52 634.507Z" fill="#FF9D66"/>
<path d="M3162.09 755.693L3163.71 669.106L3237.88 713.798L3162.09 755.693Z" fill="#F841C4"/>
<path d="M3246.78 634.507L3209.36 696.613L3192.23 686.291L3229.65 624.186L3246.78 634.507Z" fill="#F841C4"/>
<path d="M3511.21 755.693L3509.6 669.106L3435.42 713.798L3511.21 755.693Z" fill="#FF6F66"/>
<path d="M3426.52 634.507L3463.94 696.613L3481.07 686.291L3443.66 624.186L3426.52 634.507Z" fill="#FF6F66"/>
<path d="M3190.73 388.484L3142.81 316.351L3104.3 393.922L3190.73 388.484Z" fill="#F841C4"/>
<path d="M3035.81 322.743L3119.11 364.093L3128 346.179L3044.7 304.828L3035.81 322.743Z" fill="#F841C4"/>
<rect x="3006" y="769" width="200" height="200" rx="20" fill="#BBBBBB"/>
<path d="M3126 811.2V831.6H3093.4V935H3068.6V831.6H3036V811.2H3126ZM3152.3 936.3C3150.77 936.3 3149.13 936.167 3147.4 935.9C3145.73 935.7 3144.1 935.433 3142.5 935.1C3140.97 934.767 3139.53 934.4 3138.2 934C3136.87 933.6 3135.83 933.233 3135.1 932.9L3137.5 922.6C3139.03 923.267 3141 923.967 3143.4 924.7C3145.87 925.433 3148.8 925.8 3152.2 925.8C3156.4 925.8 3159.33 924.9 3161 923.1C3162.73 921.3 3163.6 919.067 3163.6 916.4C3163.6 913.133 3162.3 910.867 3159.7 909.6C3157.1 908.267 3153.8 907.6 3149.8 907.6H3146V897.4H3150.6C3151.87 897.4 3153.13 897.267 3154.4 897C3155.67 896.733 3156.8 896.3 3157.8 895.7C3158.8 895.1 3159.6 894.3 3160.2 893.3C3160.87 892.3 3161.2 891.033 3161.2 889.5C3161.2 887.233 3160.5 885.467 3159.1 884.2C3157.77 882.867 3155.9 882.2 3153.5 882.2C3151.17 882.2 3148.83 882.6 3146.5 883.4C3144.23 884.133 3142.27 885.067 3140.6 886.2L3136.2 877.2C3138 876 3140.37 874.8 3143.3 873.6C3146.3 872.333 3149.67 871.7 3153.4 871.7C3156.87 871.7 3159.87 872.133 3162.4 873C3165 873.867 3167.13 875.1 3168.8 876.7C3170.47 878.233 3171.7 880.067 3172.5 882.2C3173.3 884.333 3173.7 886.633 3173.7 889.1C3173.7 891.567 3173 893.933 3171.6 896.2C3170.2 898.467 3168.33 900.2 3166 901.4C3169.2 902.733 3171.67 904.7 3173.4 907.3C3175.2 909.9 3176.1 913 3176.1 916.6C3176.1 919.467 3175.63 922.1 3174.7 924.5C3173.77 926.9 3172.33 929 3170.4 930.8C3168.47 932.533 3166 933.9 3163 934.9C3160 935.833 3156.43 936.3 3152.3 936.3Z" fill="white"/>
<rect x="2518" y="769" width="200" height="200" rx="20" fill="#BBBBBB"/>
<path d="M2638 811.2V831.6H2605.4V935H2580.6V831.6H2548V811.2H2638ZM2686.4 889.4C2686.4 891.533 2686 893.6 2685.2 895.6C2684.4 897.533 2683.33 899.433 2682 901.3C2680.67 903.167 2679.17 904.967 2677.5 906.7C2675.83 908.433 2674.13 910.1 2672.4 911.7C2671.53 912.5 2670.53 913.467 2669.4 914.6C2668.27 915.667 2667.2 916.8 2666.2 918C2665.2 919.133 2664.33 920.3 2663.6 921.5C2662.93 922.7 2662.6 923.8 2662.6 924.8H2689.2V935H2648.8C2648.6 934.333 2648.5 933.5 2648.5 932.5C2648.57 931.5 2648.6 930.8 2648.6 930.4C2648.6 927.067 2649.2 924 2650.4 921.2C2651.67 918.4 2653.23 915.833 2655.1 913.5C2657.03 911.1 2659.07 908.9 2661.2 906.9C2663.4 904.833 2665.43 902.867 2667.3 901C2669.23 899.133 2670.8 897.333 2672 895.6C2673.27 893.867 2673.9 892.1 2673.9 890.3C2673.9 887.767 2673.13 885.833 2671.6 884.5C2670.07 883.1 2668.13 882.4 2665.8 882.4C2663.87 882.4 2661.83 882.867 2659.7 883.8C2657.57 884.733 2655.47 886.3 2653.4 888.5L2647.3 879.9C2649.97 877.1 2653.03 875.033 2656.5 873.7C2660.03 872.367 2663.53 871.7 2667 871.7C2669.53 871.7 2671.97 872.067 2674.3 872.8C2676.63 873.533 2678.7 874.633 2680.5 876.1C2682.3 877.567 2683.73 879.433 2684.8 881.7C2685.87 883.9 2686.4 886.467 2686.4 889.4Z" fill="white"/>
<rect x="2082" y="769" width="200" height="200" rx="20" fill="#BBBBBB"/>
<path d="M2202 811.2V831.6H2169.4V935H2144.6V831.6H2112V811.2H2202ZM2228.3 924.8V890.2C2226.43 891.533 2224.3 892.733 2221.9 893.8C2219.5 894.8 2217.47 895.6 2215.8 896.2L2211.8 886C2213.4 885.4 2215.13 884.633 2217 883.7C2218.87 882.767 2220.73 881.733 2222.6 880.6C2224.47 879.467 2226.23 878.267 2227.9 877C2229.57 875.733 2231 874.433 2232.2 873.1H2240.6V924.8H2252.9V935H2215.3V924.8H2228.3Z" fill="white"/>
<rect x="3237" y="407" width="200" height="200" rx="20" fill="#FF6F66"/>
<path d="M3376 466.4C3370.27 475.2 3365 483.467 3360.2 491.2C3355.4 498.933 3350.93 506.333 3346.8 513.4C3342.67 520.333 3338.73 527.067 3335 533.6C3331.4 540 3327.93 546.333 3324.6 552.6H3377.8V573H3296.2V558.8C3299.13 553.067 3302.27 547.067 3305.6 540.8C3308.93 534.4 3312.67 527.6 3316.8 520.4C3320.93 513.2 3325.4 505.4 3330.2 497C3335.13 488.6 3340.53 479.467 3346.4 469.6H3298.8V449.2H3376V466.4Z" fill="white"/>
</svg>
