<svg width="3791" height="1431" viewBox="0 0 3791 1431" fill="none" xmlns="http://www.w3.org/2000/svg">
<rect width="200" height="200" rx="20" transform="matrix(-1 0 0 1 832 101)" fill="#FF6F66"/>
<path d="M771 160.4C765.267 169.2 760 177.467 755.2 185.2C750.4 192.933 745.933 200.333 741.8 207.4C737.667 214.333 733.733 221.067 730 227.6C726.4 234 722.933 240.333 719.6 246.6H772.8V267H691.2V252.8C694.133 247.067 697.267 241.067 700.6 234.8C703.933 228.4 707.667 221.6 711.8 214.4C715.933 207.2 720.4 199.4 725.2 191C730.133 182.6 735.533 173.467 741.4 163.6H693.8V143.2H771V160.4Z" fill="white"/>
<rect width="200" height="200" rx="20" transform="matrix(-1 0 0 1 1305 411)" fill="#FF8266"/>
<path d="M1205.8 509.8C1207.27 506.733 1208.93 502.867 1210.8 498.2C1212.8 493.533 1214.73 488.6 1216.6 483.4C1218.6 478.2 1220.47 472.933 1222.2 467.6C1224.07 462.267 1225.73 457.467 1227.2 453.2H1252.6C1250.07 460 1247.53 466.6 1245 473C1242.47 479.4 1239.8 485.733 1237 492C1234.2 498.267 1231.2 504.533 1228 510.8C1224.8 516.933 1221.33 523.267 1217.6 529.8V577H1192.8V530C1185.47 517.067 1179 504.467 1173.4 492.2C1167.93 479.8 1162.67 466.8 1157.6 453.2H1184C1187.07 462.8 1190.47 472.6 1194.2 482.6C1197.93 492.467 1201.8 501.533 1205.8 509.8Z" fill="white"/>
<rect width="200" height="200" rx="20" transform="matrix(-1 0 0 1 1541 765)" fill="#FF9D66"/>
<path d="M1462.2 931C1459.67 924.2 1456.53 916.667 1452.8 908.4C1449.2 900.133 1445.4 891.867 1441.4 883.6C1437.53 891.467 1433.67 899.667 1429.8 908.2C1425.93 916.6 1422.6 924.2 1419.8 931H1393.2C1394.53 927.4 1396.47 923.067 1399 918C1401.67 912.933 1404.53 907.467 1407.6 901.6C1410.8 895.733 1414.13 889.733 1417.6 883.6C1421.07 877.333 1424.4 871.333 1427.6 865.6L1395.2 807.2H1421.8L1441.4 846.8L1462 807.2H1486.8L1455.2 865C1458.8 870.733 1462.33 876.733 1465.8 883C1469.27 889.267 1472.47 895.4 1475.4 901.4C1478.47 907.267 1481.13 912.8 1483.4 918C1485.67 923.067 1487.47 927.4 1488.8 931H1462.2Z" fill="white"/>
<rect width="200" height="200" rx="20" transform="matrix(-1 0 0 1 359 411)" fill="#BBBBBB"/>
<path d="M279 453.2V473.6H246.4V577H221.6V473.6H189V453.2H279ZM305.3 566.8V532.2C303.433 533.533 301.3 534.733 298.9 535.8C296.5 536.8 294.467 537.6 292.8 538.2L288.8 528C290.4 527.4 292.133 526.633 294 525.7C295.867 524.767 297.733 523.733 299.6 522.6C301.467 521.467 303.233 520.267 304.9 519C306.567 517.733 308 516.433 309.2 515.1H317.6V566.8H329.9V577H292.3V566.8H305.3Z" fill="white"/>
<path d="M1048.75 386.484L1000.82 314.351L962.315 391.922L1048.75 386.484Z" fill="#FF6F66"/>
<path d="M893.82 320.743L977.122 362.093L986.014 344.179L902.713 302.828L893.82 320.743Z" fill="#FF6F66"/>
<path d="M1377.91 750.693L1376.3 664.106L1302.12 708.798L1377.91 750.693Z" fill="#FF8266"/>
<path d="M1293.22 629.507L1330.64 691.613L1347.77 681.291L1310.35 619.186L1293.22 629.507Z" fill="#FF8266"/>
<path d="M1028.79 750.693L1030.4 664.106L1104.58 708.798L1028.79 750.693Z" fill="#FF8266"/>
<path d="M1113.48 629.507L1076.06 691.613L1058.93 681.291L1096.34 619.186L1113.48 629.507Z" fill="#FF8266"/>
<path d="M414.267 388.484L462.192 316.351L500.699 393.922L414.267 388.484Z" fill="#FF6F66"/>
<path d="M569.193 322.743L485.892 364.093L476.999 346.179L560.301 304.828L569.193 322.743Z" fill="#FF6F66"/>
<rect width="200" height="200" rx="20" transform="matrix(-1 0 0 1 1067 773)" fill="#BBBBBB"/>
<path d="M987 815.2V835.6H954.4V939H929.6V835.6H897V815.2H987ZM1035.4 893.4C1035.4 895.533 1035 897.6 1034.2 899.6C1033.4 901.533 1032.33 903.433 1031 905.3C1029.67 907.167 1028.17 908.967 1026.5 910.7C1024.83 912.433 1023.13 914.1 1021.4 915.7C1020.53 916.5 1019.53 917.467 1018.4 918.6C1017.27 919.667 1016.2 920.8 1015.2 922C1014.2 923.133 1013.33 924.3 1012.6 925.5C1011.93 926.7 1011.6 927.8 1011.6 928.8H1038.2V939H997.8C997.6 938.333 997.5 937.5 997.5 936.5C997.567 935.5 997.6 934.8 997.6 934.4C997.6 931.067 998.2 928 999.4 925.2C1000.67 922.4 1002.23 919.833 1004.1 917.5C1006.03 915.1 1008.07 912.9 1010.2 910.9C1012.4 908.833 1014.43 906.867 1016.3 905C1018.23 903.133 1019.8 901.333 1021 899.6C1022.27 897.867 1022.9 896.1 1022.9 894.3C1022.9 891.767 1022.13 889.833 1020.6 888.5C1019.07 887.1 1017.13 886.4 1014.8 886.4C1012.87 886.4 1010.83 886.867 1008.7 887.8C1006.57 888.733 1004.47 890.3 1002.4 892.5L996.3 883.9C998.967 881.1 1002.03 879.033 1005.5 877.7C1009.03 876.367 1012.53 875.7 1016 875.7C1018.53 875.7 1020.97 876.067 1023.3 876.8C1025.63 877.533 1027.7 878.633 1029.5 880.1C1031.3 881.567 1032.73 883.433 1033.8 885.7C1034.87 887.9 1035.4 890.467 1035.4 893.4Z" fill="white"/>
<rect width="200" height="200" rx="20" transform="matrix(-1 0 0 1 1392 1140)" fill="#BBBBBB"/>
<path d="M1312 1182.2V1202.6H1279.4V1306H1254.6V1202.6H1222V1182.2H1312ZM1338.3 1307.3C1336.77 1307.3 1335.13 1307.17 1333.4 1306.9C1331.73 1306.7 1330.1 1306.43 1328.5 1306.1C1326.97 1305.77 1325.53 1305.4 1324.2 1305C1322.87 1304.6 1321.83 1304.23 1321.1 1303.9L1323.5 1293.6C1325.03 1294.27 1327 1294.97 1329.4 1295.7C1331.87 1296.43 1334.8 1296.8 1338.2 1296.8C1342.4 1296.8 1345.33 1295.9 1347 1294.1C1348.73 1292.3 1349.6 1290.07 1349.6 1287.4C1349.6 1284.13 1348.3 1281.87 1345.7 1280.6C1343.1 1279.27 1339.8 1278.6 1335.8 1278.6H1332V1268.4H1336.6C1337.87 1268.4 1339.13 1268.27 1340.4 1268C1341.67 1267.73 1342.8 1267.3 1343.8 1266.7C1344.8 1266.1 1345.6 1265.3 1346.2 1264.3C1346.87 1263.3 1347.2 1262.03 1347.2 1260.5C1347.2 1258.23 1346.5 1256.47 1345.1 1255.2C1343.77 1253.87 1341.9 1253.2 1339.5 1253.2C1337.17 1253.2 1334.83 1253.6 1332.5 1254.4C1330.23 1255.13 1328.27 1256.07 1326.6 1257.2L1322.2 1248.2C1324 1247 1326.37 1245.8 1329.3 1244.6C1332.3 1243.33 1335.67 1242.7 1339.4 1242.7C1342.87 1242.7 1345.87 1243.13 1348.4 1244C1351 1244.87 1353.13 1246.1 1354.8 1247.7C1356.47 1249.23 1357.7 1251.07 1358.5 1253.2C1359.3 1255.33 1359.7 1257.63 1359.7 1260.1C1359.7 1262.57 1359 1264.93 1357.6 1267.2C1356.2 1269.47 1354.33 1271.2 1352 1272.4C1355.2 1273.73 1357.67 1275.7 1359.4 1278.3C1361.2 1280.9 1362.1 1284 1362.1 1287.6C1362.1 1290.47 1361.63 1293.1 1360.7 1295.5C1359.77 1297.9 1358.33 1300 1356.4 1301.8C1354.47 1303.53 1352 1304.9 1349 1305.9C1346 1306.83 1342.43 1307.3 1338.3 1307.3Z" fill="white"/>
<rect width="200" height="200" rx="20" transform="matrix(-1 0 0 1 1666 1140)" fill="#BBBBBB"/>
<path d="M1586 1182.2V1202.6H1553.4V1306H1528.6V1202.6H1496V1182.2H1586ZM1619.5 1259.5C1618.3 1261.03 1617.07 1262.67 1615.8 1264.4C1614.53 1266.13 1613.27 1267.97 1612 1269.9C1610.8 1271.77 1609.63 1273.67 1608.5 1275.6C1607.37 1277.53 1606.37 1279.43 1605.5 1281.3H1619.5V1259.5ZM1631.8 1244.1V1281.3H1638.5V1291.4H1631.8V1306H1619.5V1291.4H1593.7V1282.4C1594.97 1279.8 1596.6 1276.87 1598.6 1273.6C1600.6 1270.27 1602.8 1266.87 1605.2 1263.4C1607.6 1259.93 1610.13 1256.53 1612.8 1253.2C1615.47 1249.8 1618.13 1246.77 1620.8 1244.1H1631.8Z" fill="white"/>
<path d="M1356.03 1126.72L1419.57 1067.87L1336.83 1042.27L1356.03 1126.72Z" fill="#FF9D66"/>
<path d="M1390.08 982.844L1368.65 1052.11L1387.75 1058.02L1409.19 988.756L1390.08 982.844Z" fill="#FF9D66"/>
<path d="M1525.63 1126.72L1462.1 1067.87L1544.83 1042.27L1525.63 1126.72Z" fill="#FF9D66"/>
<path d="M1491.58 982.844L1513.02 1052.11L1493.91 1058.02L1472.48 988.756L1491.58 982.844Z" fill="#FF9D66"/>
<rect width="200" height="200" rx="20" transform="matrix(-1 0 0 1 2959 101)" fill="#FF8266"/>
<path d="M2859.8 199.8C2861.27 196.733 2862.93 192.867 2864.8 188.2C2866.8 183.533 2868.73 178.6 2870.6 173.4C2872.6 168.2 2874.47 162.933 2876.2 157.6C2878.07 152.267 2879.73 147.467 2881.2 143.2H2906.6C2904.07 150 2901.53 156.6 2899 163C2896.47 169.4 2893.8 175.733 2891 182C2888.2 188.267 2885.2 194.533 2882 200.8C2878.8 206.933 2875.33 213.267 2871.6 219.8V267H2846.8V220C2839.47 207.067 2833 194.467 2827.4 182.2C2821.93 169.8 2816.67 156.8 2811.6 143.2H2838C2841.07 152.8 2844.47 162.6 2848.2 172.6C2851.93 182.467 2855.8 191.533 2859.8 199.8Z" fill="white"/>
<rect width="200" height="200" rx="20" transform="matrix(-1 0 0 1 3432 411)" fill="#FF9D66"/>
<path d="M3353.2 577C3350.67 570.2 3347.53 562.667 3343.8 554.4C3340.2 546.133 3336.4 537.867 3332.4 529.6C3328.53 537.467 3324.67 545.667 3320.8 554.2C3316.93 562.6 3313.6 570.2 3310.8 577H3284.2C3285.53 573.4 3287.47 569.067 3290 564C3292.67 558.933 3295.53 553.467 3298.6 547.6C3301.8 541.733 3305.13 535.733 3308.6 529.6C3312.07 523.333 3315.4 517.333 3318.6 511.6L3286.2 453.2H3312.8L3332.4 492.8L3353 453.2H3377.8L3346.2 511C3349.8 516.733 3353.33 522.733 3356.8 529C3360.27 535.267 3363.47 541.4 3366.4 547.4C3369.47 553.267 3372.13 558.8 3374.4 564C3376.67 569.067 3378.47 573.4 3379.8 577H3353.2Z" fill="white"/>
<rect width="200" height="200" rx="20" transform="matrix(-1 0 0 1 2282 773)" fill="#BBBBBB"/>
<path d="M2202 815.2V835.6H2169.4V939H2144.6V835.6H2112V815.2H2202ZM2228.3 928.8V894.2C2226.43 895.533 2224.3 896.733 2221.9 897.8C2219.5 898.8 2217.47 899.6 2215.8 900.2L2211.8 890C2213.4 889.4 2215.13 888.633 2217 887.7C2218.87 886.767 2220.73 885.733 2222.6 884.6C2224.47 883.467 2226.23 882.267 2227.9 881C2229.57 879.733 2231 878.433 2232.2 877.1H2240.6V928.8H2252.9V939H2215.3V928.8H2228.3Z" fill="white"/>
<path d="M3175.75 386.484L3127.82 314.351L3089.31 391.922L3175.75 386.484Z" fill="#F841C4"/>
<path d="M3020.82 320.743L3104.12 362.093L3113.01 344.179L3029.71 302.828L3020.82 320.743Z" fill="#F841C4"/>
<path d="M3504.91 750.693L3503.29 664.106L3429.12 708.798L3504.91 750.693Z" fill="#FF9D66"/>
<path d="M3420.22 629.507L3457.64 691.613L3474.77 681.291L3437.35 619.186L3420.22 629.507Z" fill="#FF9D66"/>
<path d="M3155.79 750.693L3157.4 664.106L3231.58 708.798L3155.79 750.693Z" fill="#FF9D66"/>
<path d="M3240.48 629.507L3203.06 691.613L3185.93 681.291L3223.34 619.186L3240.48 629.507Z" fill="#FF9D66"/>
<path d="M2586.91 759.693L2585.29 673.106L2511.11 717.798L2586.91 759.693Z" fill="#F841C4"/>
<path d="M2502.22 638.507L2539.64 700.613L2556.77 690.291L2519.35 628.186L2502.22 638.507Z" fill="#F841C4"/>
<path d="M2237.79 759.693L2239.4 673.106L2313.58 717.798L2237.79 759.693Z" fill="#FF6F66"/>
<path d="M2322.48 638.507L2285.06 700.613L2267.93 690.291L2305.34 628.186L2322.48 638.507Z" fill="#FF6F66"/>
<path d="M2541.27 388.484L2589.19 316.351L2627.7 393.922L2541.27 388.484Z" fill="#F841C4"/>
<path d="M2696.19 322.743L2612.89 364.093L2604 346.179L2687.3 304.828L2696.19 322.743Z" fill="#F841C4"/>
<rect width="200" height="200" rx="20" transform="matrix(-1 0 0 1 2743 773)" fill="#BBBBBB"/>
<path d="M2663 815.2V835.6H2630.4V939H2605.6V835.6H2573V815.2H2663ZM2689.3 928.8V894.2C2687.43 895.533 2685.3 896.733 2682.9 897.8C2680.5 898.8 2678.47 899.6 2676.8 900.2L2672.8 890C2674.4 889.4 2676.13 888.633 2678 887.7C2679.87 886.767 2681.73 885.733 2683.6 884.6C2685.47 883.467 2687.23 882.267 2688.9 881C2690.57 879.733 2692 878.433 2693.2 877.1H2701.6V928.8H2713.9V939H2676.3V928.8H2689.3Z" fill="white"/>
<rect width="200" height="200" rx="20" transform="matrix(-1 0 0 1 3214 773)" fill="#BBBBBB"/>
<path d="M3134 815.2V835.6H3101.4V939H3076.6V835.6H3044V815.2H3134ZM3160.3 940.3C3158.77 940.3 3157.13 940.167 3155.4 939.9C3153.73 939.7 3152.1 939.433 3150.5 939.1C3148.97 938.767 3147.53 938.4 3146.2 938C3144.87 937.6 3143.83 937.233 3143.1 936.9L3145.5 926.6C3147.03 927.267 3149 927.967 3151.4 928.7C3153.87 929.433 3156.8 929.8 3160.2 929.8C3164.4 929.8 3167.33 928.9 3169 927.1C3170.73 925.3 3171.6 923.067 3171.6 920.4C3171.6 917.133 3170.3 914.867 3167.7 913.6C3165.1 912.267 3161.8 911.6 3157.8 911.6H3154V901.4H3158.6C3159.87 901.4 3161.13 901.267 3162.4 901C3163.67 900.733 3164.8 900.3 3165.8 899.7C3166.8 899.1 3167.6 898.3 3168.2 897.3C3168.87 896.3 3169.2 895.033 3169.2 893.5C3169.2 891.233 3168.5 889.467 3167.1 888.2C3165.77 886.867 3163.9 886.2 3161.5 886.2C3159.17 886.2 3156.83 886.6 3154.5 887.4C3152.23 888.133 3150.27 889.067 3148.6 890.2L3144.2 881.2C3146 880 3148.37 878.8 3151.3 877.6C3154.3 876.333 3157.67 875.7 3161.4 875.7C3164.87 875.7 3167.87 876.133 3170.4 877C3173 877.867 3175.13 879.1 3176.8 880.7C3178.47 882.233 3179.7 884.067 3180.5 886.2C3181.3 888.333 3181.7 890.633 3181.7 893.1C3181.7 895.567 3181 897.933 3179.6 900.2C3178.2 902.467 3176.33 904.2 3174 905.4C3177.2 906.733 3179.67 908.7 3181.4 911.3C3183.2 913.9 3184.1 917 3184.1 920.6C3184.1 923.467 3183.63 926.1 3182.7 928.5C3181.77 930.9 3180.33 933 3178.4 934.8C3176.47 936.533 3174 937.9 3171 938.9C3168 939.833 3164.43 940.3 3160.3 940.3Z" fill="white"/>
<rect width="200" height="200" rx="20" transform="matrix(-1 0 0 1 3650 773)" fill="#BBBBBB"/>
<path d="M3570 815.2V835.6H3537.4V939H3512.6V835.6H3480V815.2H3570ZM3603.5 892.5C3602.3 894.033 3601.07 895.667 3599.8 897.4C3598.53 899.133 3597.27 900.967 3596 902.9C3594.8 904.767 3593.63 906.667 3592.5 908.6C3591.37 910.533 3590.37 912.433 3589.5 914.3H3603.5V892.5ZM3615.8 877.1V914.3H3622.5V924.4H3615.8V939H3603.5V924.4H3577.7V915.4C3578.97 912.8 3580.6 909.867 3582.6 906.6C3584.6 903.267 3586.8 899.867 3589.2 896.4C3591.6 892.933 3594.13 889.533 3596.8 886.2C3599.47 882.8 3602.13 879.767 3604.8 877.1H3615.8Z" fill="white"/>
<rect width="200" height="200" rx="20" transform="matrix(-1 0 0 1 2512 411)" fill="#FF6F66"/>
<path d="M2451 470.4C2445.27 479.2 2440 487.467 2435.2 495.2C2430.4 502.933 2425.93 510.333 2421.8 517.4C2417.67 524.333 2413.73 531.067 2410 537.6C2406.4 544 2402.93 550.333 2399.6 556.6H2452.8V577H2371.2V562.8C2374.13 557.067 2377.27 551.067 2380.6 544.8C2383.93 538.4 2387.67 531.6 2391.8 524.4C2395.93 517.2 2400.4 509.4 2405.2 501C2410.13 492.6 2415.53 483.467 2421.4 473.6H2373.8V453.2H2451V470.4Z" fill="white"/>
</svg>
