<svg width="3855" height="3212" viewBox="0 0 3855 3212" fill="none" xmlns="http://www.w3.org/2000/svg">
<path d="M2722.49 1613.1C2723.6 1626.81 2724.35 1640.67 2724.72 1654.66L2714.73 1654.92C2714.91 1661.75 2715 1668.61 2715 1675.5C2715 1682.39 2714.91 1689.25 2714.73 1696.08L2724.72 1696.34C2724.35 1710.33 2723.6 1724.19 2722.49 1737.9L2712.53 1737.09C2711.41 1750.87 2709.93 1764.49 2708.09 1777.93L2718 1779.28C2716.1 1793.16 2713.83 1806.85 2711.2 1820.34L2701.39 1818.43C2698.74 1831.99 2695.73 1845.34 2692.37 1858.45L2702.06 1860.93C2698.58 1874.52 2694.72 1887.87 2690.51 1900.94L2680.99 1897.87C2676.76 1911.02 2672.16 1923.89 2667.22 1936.45L2676.53 1940.11C2671.39 1953.18 2665.87 1965.93 2660.01 1978.33L2650.97 1974.06C2645.06 1986.55 2638.8 1998.68 2632.2 2010.42L2640.92 2015.32C2634.02 2027.57 2626.77 2039.4 2619.17 2050.79L2610.86 2045.24C2603.2 2056.71 2595.2 2067.72 2586.88 2078.21L2594.71 2084.43C2585.97 2095.45 2576.87 2105.95 2567.44 2115.86L2560.19 2108.97C2550.71 2118.94 2540.9 2128.31 2530.8 2137.03L2537.33 2144.6C2526.69 2153.79 2515.71 2162.29 2504.43 2170.07L2498.75 2161.83C2487.52 2169.58 2475.99 2176.57 2464.2 2182.77L2468.85 2191.62C2456.47 2198.13 2443.8 2203.8 2430.87 2208.58L2427.4 2199.2C2414.78 2203.87 2401.91 2207.66 2388.83 2210.52L2390.96 2220.29C2377.46 2223.24 2363.72 2225.25 2349.8 2226.25L2349.08 2216.28C2342.43 2216.76 2335.74 2217 2329 2217C2322.26 2217 2315.57 2216.76 2308.92 2216.28L2308.2 2226.25C2294.28 2225.25 2280.54 2223.24 2267.04 2220.29L2269.17 2210.52C2256.09 2207.66 2243.22 2203.87 2230.6 2199.2L2227.13 2208.58C2214.2 2203.8 2201.53 2198.13 2189.15 2191.62L2193.8 2182.77C2182.01 2176.57 2170.48 2169.58 2159.25 2161.83L2153.57 2170.07C2142.29 2162.29 2131.31 2153.79 2120.67 2144.6L2127.2 2137.03C2117.1 2128.31 2107.29 2118.94 2097.81 2108.97L2090.56 2115.86C2081.13 2105.95 2072.03 2095.45 2063.29 2084.43L2071.12 2078.21C2062.8 2067.72 2054.8 2056.71 2047.14 2045.24L2038.83 2050.79C2031.23 2039.4 2023.98 2027.57 2017.08 2015.32L2025.8 2010.42C2019.2 1998.68 2012.94 1986.55 2007.03 1974.06L1997.99 1978.33C1992.13 1965.93 1986.61 1953.18 1981.47 1940.11L1990.78 1936.45C1985.84 1923.89 1981.24 1911.02 1977.01 1897.87L1967.49 1900.94C1963.28 1887.87 1959.42 1874.52 1955.94 1860.93L1965.63 1858.45C1962.27 1845.34 1959.26 1831.99 1956.61 1818.43L1946.8 1820.34C1944.17 1806.85 1941.9 1793.16 1940 1779.28L1949.91 1777.93C1948.07 1764.49 1946.59 1750.87 1945.47 1737.09L1935.51 1737.9C1934.4 1724.19 1933.65 1710.33 1933.28 1696.34L1943.27 1696.08C1943.09 1689.25 1943 1682.39 1943 1675.5C1943 1668.61 1943.09 1661.75 1943.27 1654.92L1933.28 1654.66C1933.65 1640.67 1934.4 1626.81 1935.51 1613.1L1945.47 1613.91C1946.59 1600.13 1948.07 1586.51 1949.91 1573.07L1940 1571.72C1941.9 1557.84 1944.17 1544.15 1946.8 1530.66L1956.61 1532.57C1959.26 1519.01 1962.27 1505.66 1965.63 1492.55L1955.94 1490.07C1959.42 1476.48 1963.28 1463.13 1967.49 1450.06L1977.01 1453.13C1981.24 1439.98 1985.84 1427.11 1990.78 1414.55L1981.47 1410.89C1986.61 1397.82 1992.13 1385.07 1997.99 1372.67L2007.03 1376.94C2012.94 1364.45 2019.2 1352.32 2025.8 1340.58L2017.08 1335.68C2023.98 1323.43 2031.23 1311.6 2038.83 1300.21L2047.14 1305.76C2054.8 1294.29 2062.8 1283.28 2071.12 1272.79L2063.29 1266.57C2072.03 1255.55 2081.13 1245.05 2090.56 1235.14L2097.81 1242.03C2107.29 1232.06 2117.1 1222.69 2127.2 1213.97L2120.67 1206.4C2131.31 1197.21 2142.29 1188.71 2153.57 1180.93L2159.25 1189.17C2170.48 1181.42 2182.01 1174.43 2193.8 1168.23L2189.15 1159.38C2201.53 1152.87 2214.2 1147.2 2227.13 1142.42L2230.6 1151.8C2243.22 1147.13 2256.09 1143.34 2269.17 1140.48L2267.04 1130.71C2280.54 1127.76 2294.28 1125.75 2308.2 1124.75L2308.92 1134.72C2315.57 1134.24 2322.26 1134 2329 1134C2335.74 1134 2342.43 1134.24 2349.08 1134.72L2349.8 1124.75C2363.72 1125.75 2377.46 1127.76 2390.96 1130.71L2388.83 1140.48C2401.91 1143.34 2414.78 1147.13 2427.4 1151.8L2430.87 1142.42C2443.8 1147.2 2456.47 1152.87 2468.85 1159.38L2464.2 1168.23C2475.99 1174.43 2487.52 1181.42 2498.75 1189.17L2504.43 1180.93C2515.71 1188.71 2526.69 1197.21 2537.33 1206.4L2530.8 1213.97C2540.9 1222.69 2550.71 1232.06 2560.19 1242.03L2567.44 1235.14C2576.87 1245.05 2585.97 1255.55 2594.71 1266.57L2586.88 1272.79C2595.2 1283.28 2603.2 1294.29 2610.86 1305.76L2619.17 1300.21C2626.77 1311.6 2634.02 1323.43 2640.92 1335.68L2632.2 1340.58C2638.8 1352.32 2645.06 1364.45 2650.97 1376.94L2660.01 1372.67C2665.87 1385.07 2671.39 1397.82 2676.53 1410.89L2667.22 1414.55C2672.16 1427.11 2676.76 1439.98 2680.99 1453.13L2690.51 1450.06C2694.72 1463.13 2698.58 1476.48 2702.06 1490.07L2692.37 1492.55C2695.73 1505.66 2698.74 1519.01 2701.39 1532.57L2711.2 1530.66C2713.83 1544.15 2716.1 1557.84 2718 1571.72L2708.09 1573.07C2709.93 1586.51 2711.41 1600.13 2712.53 1613.91L2722.49 1613.1Z" stroke="#F841C4" stroke-width="20" stroke-dasharray="40 40"/>
<circle cx="603.5" cy="2593.5" r="448.5" stroke="#F841C4" stroke-width="20" stroke-dasharray="40 40"/>
<rect x="2192" y="1927" width="200" height="200" rx="20" fill="#F841C4"/>
<path d="M2328.8 2001.8C2328.8 2006.07 2328 2010.2 2326.4 2014.2C2324.8 2018.07 2322.67 2021.87 2320 2025.6C2317.33 2029.33 2314.33 2032.93 2311 2036.4C2307.67 2039.87 2304.27 2043.2 2300.8 2046.4C2299.07 2048 2297.07 2049.93 2294.8 2052.2C2292.53 2054.33 2290.4 2056.6 2288.4 2059C2286.4 2061.27 2284.67 2063.6 2283.2 2066C2281.87 2068.4 2281.2 2070.6 2281.2 2072.6H2334.4V2093H2253.6C2253.2 2091.67 2253 2090 2253 2088C2253.13 2086 2253.2 2084.6 2253.2 2083.8C2253.2 2077.13 2254.4 2071 2256.8 2065.4C2259.33 2059.8 2262.47 2054.67 2266.2 2050C2270.07 2045.2 2274.13 2040.8 2278.4 2036.8C2282.8 2032.67 2286.87 2028.73 2290.6 2025C2294.47 2021.27 2297.6 2017.67 2300 2014.2C2302.53 2010.73 2303.8 2007.2 2303.8 2003.6C2303.8 1998.53 2302.27 1994.67 2299.2 1992C2296.13 1989.2 2292.27 1987.8 2287.6 1987.8C2283.73 1987.8 2279.67 1988.73 2275.4 1990.6C2271.13 1992.47 2266.93 1995.6 2262.8 2000L2250.6 1982.8C2255.93 1977.2 2262.07 1973.07 2269 1970.4C2276.07 1967.73 2283.07 1966.4 2290 1966.4C2295.07 1966.4 2299.93 1967.13 2304.6 1968.6C2309.27 1970.07 2313.4 1972.27 2317 1975.2C2320.6 1978.13 2323.47 1981.87 2325.6 1986.4C2327.73 1990.8 2328.8 1995.93 2328.8 2001.8Z" fill="white"/>
<path d="M2243.97 1913.72L2180.43 1854.87L2263.17 1829.27L2243.97 1913.72Z" fill="#FF9D66"/>
<path d="M2209.92 1769.84L2231.35 1839.11L2212.25 1845.02L2190.81 1775.76L2209.92 1769.84Z" fill="#FF9D66"/>
<rect x="2761" y="896" width="200" height="200" rx="20" fill="#FF6F66"/>
<path d="M2875.2 1025.6C2875.2 1022.13 2874.6 1019 2873.4 1016.2C2872.33 1013.27 2870.07 1010.8 2866.6 1008.8C2863.27 1006.67 2858.47 1005.07 2852.2 1004C2845.93 1002.8 2837.73 1002.2 2827.6 1002.2C2828.93 991 2830 980.067 2830.8 969.4C2831.6 958.6 2832.2 948.2 2832.6 938.2H2895.8V958.6H2853.2C2852.93 962.867 2852.6 967.333 2852.2 972C2851.8 976.667 2851.47 980.467 2851.2 983.4C2867.73 984.467 2880.07 988.467 2888.2 995.4C2896.33 1002.33 2900.4 1012.07 2900.4 1024.6C2900.4 1030.33 2899.4 1035.67 2897.4 1040.6C2895.4 1045.4 2892.33 1049.6 2888.2 1053.2C2884.07 1056.8 2878.93 1059.6 2872.8 1061.6C2866.67 1063.6 2859.53 1064.6 2851.4 1064.6C2848.2 1064.6 2844.93 1064.4 2841.6 1064C2838.27 1063.6 2835.07 1063.07 2832 1062.4C2828.93 1061.87 2826.13 1061.2 2823.6 1060.4C2821.2 1059.6 2819.33 1058.87 2818 1058.2L2823 1037.8C2825.93 1039.27 2829.67 1040.6 2834.2 1041.8C2838.73 1043 2844.4 1043.6 2851.2 1043.6C2856 1043.6 2859.93 1043.07 2863 1042C2866.2 1040.93 2868.67 1039.6 2870.4 1038C2872.27 1036.27 2873.53 1034.33 2874.2 1032.2C2874.87 1030.07 2875.2 1027.87 2875.2 1025.6Z" fill="white"/>
<rect x="2288" y="1206" width="200" height="200" rx="20" fill="#FF8266"/>
<path d="M2380.6 1374.6C2377.53 1374.6 2374.27 1374.33 2370.8 1373.8C2367.47 1373.4 2364.2 1372.87 2361 1372.2C2357.93 1371.53 2355.07 1370.8 2352.4 1370C2349.73 1369.2 2347.67 1368.47 2346.2 1367.8L2351 1347.2C2354.07 1348.53 2358 1349.93 2362.8 1351.4C2367.73 1352.87 2373.6 1353.6 2380.4 1353.6C2388.8 1353.6 2394.67 1351.8 2398 1348.2C2401.47 1344.6 2403.2 1340.13 2403.2 1334.8C2403.2 1328.27 2400.6 1323.73 2395.4 1321.2C2390.2 1318.53 2383.6 1317.2 2375.6 1317.2H2368V1296.8H2377.2C2379.73 1296.8 2382.27 1296.53 2384.8 1296C2387.33 1295.47 2389.6 1294.6 2391.6 1293.4C2393.6 1292.2 2395.2 1290.6 2396.4 1288.6C2397.73 1286.6 2398.4 1284.07 2398.4 1281C2398.4 1276.47 2397 1272.93 2394.2 1270.4C2391.53 1267.73 2387.8 1266.4 2383 1266.4C2378.33 1266.4 2373.67 1267.2 2369 1268.8C2364.47 1270.27 2360.53 1272.13 2357.2 1274.4L2348.4 1256.4C2352 1254 2356.73 1251.6 2362.6 1249.2C2368.6 1246.67 2375.33 1245.4 2382.8 1245.4C2389.73 1245.4 2395.73 1246.27 2400.8 1248C2406 1249.73 2410.27 1252.2 2413.6 1255.4C2416.93 1258.47 2419.4 1262.13 2421 1266.4C2422.6 1270.67 2423.4 1275.27 2423.4 1280.2C2423.4 1285.13 2422 1289.87 2419.2 1294.4C2416.4 1298.93 2412.67 1302.4 2408 1304.8C2414.4 1307.47 2419.33 1311.4 2422.8 1316.6C2426.4 1321.8 2428.2 1328 2428.2 1335.2C2428.2 1340.93 2427.27 1346.2 2425.4 1351C2423.53 1355.8 2420.67 1360 2416.8 1363.6C2412.93 1367.07 2408 1369.8 2402 1371.8C2396 1373.67 2388.87 1374.6 2380.6 1374.6Z" fill="white"/>
<rect x="2052" y="1560" width="200" height="200" rx="20" fill="#FF9D66"/>
<path d="M2144.6 1705.6V1636.4C2140.87 1639.07 2136.6 1641.47 2131.8 1643.6C2127 1645.6 2122.93 1647.2 2119.6 1648.4L2111.6 1628C2114.8 1626.8 2118.27 1625.27 2122 1623.4C2125.73 1621.53 2129.47 1619.47 2133.2 1617.2C2136.93 1614.93 2140.47 1612.53 2143.8 1610C2147.13 1607.47 2150 1604.87 2152.4 1602.2H2169.2V1705.6H2193.8V1726H2118.6V1705.6H2144.6Z" fill="white"/>
<rect x="3234" y="1206" width="200" height="200" rx="20" fill="#FF8266"/>
<path d="M3373.2 1277.6C3373.2 1283.33 3371.8 1289 3369 1294.6C3366.2 1300.07 3361.8 1304.67 3355.8 1308.4C3363.4 1312.8 3368.73 1317.6 3371.8 1322.8C3375 1328 3376.6 1333.73 3376.6 1340C3376.6 1344 3375.8 1348.07 3374.2 1352.2C3372.73 1356.33 3370.27 1360.07 3366.8 1363.4C3363.47 1366.6 3359.07 1369.27 3353.6 1371.4C3348.13 1373.53 3341.4 1374.6 3333.4 1374.6C3327.13 1374.6 3321.4 1373.8 3316.2 1372.2C3311.13 1370.73 3306.73 1368.6 3303 1365.8C3299.4 1362.87 3296.6 1359.33 3294.6 1355.2C3292.6 1350.93 3291.6 1346.2 3291.6 1341C3291.6 1334.73 3293.07 1328.87 3296 1323.4C3298.93 1317.8 3303.53 1312.87 3309.8 1308.6C3303.93 1304.6 3299.93 1300.33 3297.8 1295.8C3295.67 1291.27 3294.6 1286.47 3294.6 1281.4C3294.6 1277.4 3295.27 1273.27 3296.6 1269C3298.07 1264.6 3300.33 1260.67 3303.4 1257.2C3306.47 1253.73 3310.53 1250.87 3315.6 1248.6C3320.67 1246.33 3326.93 1245.2 3334.4 1245.2C3346.27 1245.2 3355.67 1248.13 3362.6 1254C3369.67 1259.87 3373.2 1267.73 3373.2 1277.6ZM3353.4 1339.6C3353.4 1336.93 3352.87 1334.6 3351.8 1332.6C3350.87 1330.6 3349.27 1328.8 3347 1327.2C3344.87 1325.47 3342.07 1323.8 3338.6 1322.2C3335.13 1320.47 3331 1318.67 3326.2 1316.8C3322.47 1319.87 3319.6 1323.33 3317.6 1327.2C3315.6 1330.93 3314.6 1334.53 3314.6 1338C3314.6 1343.33 3316.47 1347.4 3320.2 1350.2C3324.07 1352.87 3328.6 1354.2 3333.8 1354.2C3339.8 1354.2 3344.53 1352.8 3348 1350C3351.6 1347.07 3353.4 1343.6 3353.4 1339.6ZM3334 1265.6C3329.73 1265.6 3325.93 1266.8 3322.6 1269.2C3319.4 1271.6 3317.8 1275.13 3317.8 1279.8C3317.8 1284.47 3319.33 1288.27 3322.4 1291.2C3325.47 1294.13 3330.87 1297.2 3338.6 1300.4C3342.73 1297.33 3345.67 1294 3347.4 1290.4C3349.13 1286.67 3350 1283.07 3350 1279.6C3350 1274.93 3348.4 1271.47 3345.2 1269.2C3342.13 1266.8 3338.4 1265.6 3334 1265.6Z" fill="white"/>
<rect x="2998" y="1560" width="200" height="200" rx="20" fill="#FF9D66"/>
<path d="M3096.2 1667.2C3093.67 1667.2 3091.07 1667.47 3088.4 1668C3085.73 1668.53 3083.53 1669.27 3081.8 1670.2C3081.67 1671.4 3081.53 1672.6 3081.4 1673.8C3081.4 1675 3081.4 1676.27 3081.4 1677.6C3081.4 1681.47 3081.67 1685.2 3082.2 1688.8C3082.73 1692.27 3083.67 1695.4 3085 1698.2C3086.33 1701 3088.13 1703.27 3090.4 1705C3092.8 1706.6 3095.73 1707.4 3099.2 1707.4C3102 1707.4 3104.4 1706.73 3106.4 1705.4C3108.4 1704.07 3110 1702.4 3111.2 1700.4C3112.53 1698.4 3113.47 1696.2 3114 1693.8C3114.67 1691.4 3115 1689.07 3115 1686.8C3115 1680.53 3113.6 1675.73 3110.8 1672.4C3108 1668.93 3103.13 1667.2 3096.2 1667.2ZM3099.4 1646.8C3106.6 1646.8 3112.67 1647.87 3117.6 1650C3122.67 1652.13 3126.8 1655 3130 1658.6C3133.2 1662.2 3135.47 1666.4 3136.8 1671.2C3138.27 1676 3139 1681.07 3139 1686.4C3139 1691.2 3138.2 1696.07 3136.6 1701C3135.13 1705.93 3132.8 1710.47 3129.6 1714.6C3126.4 1718.73 3122.33 1722.13 3117.4 1724.8C3112.47 1727.33 3106.6 1728.6 3099.8 1728.6C3085.93 1728.6 3075.33 1724.33 3068 1715.8C3060.8 1707.13 3057.2 1693.67 3057.2 1675.4C3057.2 1663.4 3058.93 1652.8 3062.4 1643.6C3066 1634.4 3071.07 1626.67 3077.6 1620.4C3084.13 1614.13 3092 1609.4 3101.2 1606.2C3110.4 1603 3120.6 1601.4 3131.8 1601.4L3133.2 1622.4C3127.87 1622.53 3122.67 1623.07 3117.6 1624C3112.53 1624.93 3107.87 1626.53 3103.6 1628.8C3099.33 1630.93 3095.6 1633.73 3092.4 1637.2C3089.33 1640.67 3087.07 1645 3085.6 1650.2C3088.13 1649.13 3090.6 1648.33 3093 1647.8C3095.4 1647.13 3097.53 1646.8 3099.4 1646.8Z" fill="white"/>
<rect x="3471" y="1560" width="200" height="200" rx="20" fill="#FF9D66"/>
<path d="M3573.2 1660.2C3575.73 1660.2 3578.4 1659.93 3581.2 1659.4C3584 1658.87 3586.27 1658.13 3588 1657.2C3588.13 1656.13 3588.2 1654.87 3588.2 1653.4C3588.33 1651.8 3588.4 1650.27 3588.4 1648.8C3588.4 1645.47 3588.07 1642.13 3587.4 1638.8C3586.87 1635.33 3585.87 1632.2 3584.4 1629.4C3583.07 1626.6 3581.2 1624.33 3578.8 1622.6C3576.53 1620.87 3573.67 1620 3570.2 1620C3567.27 1620 3564.73 1620.6 3562.6 1621.8C3560.6 1622.87 3558.93 1624.33 3557.6 1626.2C3556.4 1628.07 3555.47 1630.27 3554.8 1632.8C3554.27 1635.33 3554 1638 3554 1640.8C3554 1647.07 3555.47 1651.87 3558.4 1655.2C3561.33 1658.53 3566.27 1660.2 3573.2 1660.2ZM3570 1680.6C3562.8 1680.6 3556.67 1679.6 3551.6 1677.6C3546.53 1675.47 3542.4 1672.6 3539.2 1669C3536 1665.4 3533.67 1661.27 3532.2 1656.6C3530.73 1651.8 3530 1646.67 3530 1641.2C3530 1636.4 3530.8 1631.53 3532.4 1626.6C3534.13 1621.53 3536.6 1617 3539.8 1613C3543.13 1608.87 3547.27 1605.53 3552.2 1603C3557.13 1600.33 3562.93 1599 3569.6 1599C3583.47 1599 3594.07 1603.67 3601.4 1613C3608.73 1622.33 3612.4 1635.33 3612.4 1652C3612.4 1664 3610.67 1674.67 3607.2 1684C3603.73 1693.2 3598.73 1700.93 3592.2 1707.2C3585.8 1713.47 3578 1718.27 3568.8 1721.6C3559.73 1724.8 3549.6 1726.4 3538.4 1726.4L3537.6 1705.2C3548.27 1705.07 3557.8 1702.8 3566.2 1698.4C3574.6 1693.87 3580.53 1686.8 3584 1677.2C3578.8 1679.47 3574.13 1680.6 3570 1680.6Z" fill="white"/>
<path d="M2544.25 1181.48L2592.18 1109.35L2630.68 1186.92L2544.25 1181.48Z" fill="#FF6F66"/>
<path d="M2699.18 1115.74L2615.88 1157.09L2606.99 1139.18L2690.29 1097.83L2699.18 1115.74Z" fill="#FF6F66"/>
<path d="M2215.09 1545.69L2216.7 1459.11L2290.88 1503.8L2215.09 1545.69Z" fill="#FF8266"/>
<path d="M2299.78 1424.51L2262.36 1486.61L2245.23 1476.29L2282.65 1414.19L2299.78 1424.51Z" fill="#FF8266"/>
<path d="M3159.09 1545.69L3160.7 1459.11L3234.88 1503.8L3159.09 1545.69Z" fill="#FF8266"/>
<path d="M3243.78 1424.51L3206.36 1486.61L3189.23 1476.29L3226.65 1414.19L3243.78 1424.51Z" fill="#FF8266"/>
<path d="M3510.21 1545.69L3508.6 1459.11L3434.42 1503.8L3510.21 1545.69Z" fill="#FF8266"/>
<path d="M3425.52 1424.51L3462.94 1486.61L3480.07 1476.29L3442.66 1414.19L3425.52 1424.51Z" fill="#FF8266"/>
<path d="M3178.73 1183.48L3130.81 1111.35L3092.3 1188.92L3178.73 1183.48Z" fill="#FF6F66"/>
<path d="M3023.81 1117.74L3107.11 1159.09L3116 1141.18L3032.7 1099.83L3023.81 1117.74Z" fill="#FF6F66"/>
<circle cx="2961" cy="996" r="50" fill="#F841C4"/>
<path d="M2963.8 984.8C2962.84 986.027 2961.85 987.333 2960.84 988.72C2959.83 990.107 2958.81 991.573 2957.8 993.12C2956.84 994.613 2955.91 996.133 2955 997.68C2954.09 999.227 2953.29 1000.75 2952.6 1002.24H2963.8V984.8ZM2973.64 972.48V1002.24H2979V1010.32H2973.64V1022H2963.8V1010.32H2943.16V1003.12C2944.17 1001.04 2945.48 998.693 2947.08 996.08C2948.68 993.413 2950.44 990.693 2952.36 987.92C2954.28 985.147 2956.31 982.427 2958.44 979.76C2960.57 977.04 2962.71 974.613 2964.84 972.48H2973.64Z" fill="white"/>
<circle cx="2488" cy="1306" r="50" fill="#F841C4"/>
<path d="M2485.04 1333.04C2483.81 1333.04 2482.51 1332.93 2481.12 1332.72C2479.79 1332.56 2478.48 1332.35 2477.2 1332.08C2475.97 1331.81 2474.83 1331.52 2473.76 1331.2C2472.69 1330.88 2471.87 1330.59 2471.28 1330.32L2473.2 1322.08C2474.43 1322.61 2476 1323.17 2477.92 1323.76C2479.89 1324.35 2482.24 1324.64 2484.96 1324.64C2488.32 1324.64 2490.67 1323.92 2492 1322.48C2493.39 1321.04 2494.08 1319.25 2494.08 1317.12C2494.08 1314.51 2493.04 1312.69 2490.96 1311.68C2488.88 1310.61 2486.24 1310.08 2483.04 1310.08H2480V1301.92H2483.68C2484.69 1301.92 2485.71 1301.81 2486.72 1301.6C2487.73 1301.39 2488.64 1301.04 2489.44 1300.56C2490.24 1300.08 2490.88 1299.44 2491.36 1298.64C2491.89 1297.84 2492.16 1296.83 2492.16 1295.6C2492.16 1293.79 2491.6 1292.37 2490.48 1291.36C2489.41 1290.29 2487.92 1289.76 2486 1289.76C2484.13 1289.76 2482.27 1290.08 2480.4 1290.72C2478.59 1291.31 2477.01 1292.05 2475.68 1292.96L2472.16 1285.76C2473.6 1284.8 2475.49 1283.84 2477.84 1282.88C2480.24 1281.87 2482.93 1281.36 2485.92 1281.36C2488.69 1281.36 2491.09 1281.71 2493.12 1282.4C2495.2 1283.09 2496.91 1284.08 2498.24 1285.36C2499.57 1286.59 2500.56 1288.05 2501.2 1289.76C2501.84 1291.47 2502.16 1293.31 2502.16 1295.28C2502.16 1297.25 2501.6 1299.15 2500.48 1300.96C2499.36 1302.77 2497.87 1304.16 2496 1305.12C2498.56 1306.19 2500.53 1307.76 2501.92 1309.84C2503.36 1311.92 2504.08 1314.4 2504.08 1317.28C2504.08 1319.57 2503.71 1321.68 2502.96 1323.6C2502.21 1325.52 2501.07 1327.2 2499.52 1328.64C2497.97 1330.03 2496 1331.12 2493.6 1331.92C2491.2 1332.67 2488.35 1333.04 2485.04 1333.04Z" fill="white"/>
<circle cx="2253" cy="1660" r="50" fill="#F841C4"/>
<path d="M2267.72 1649.52C2267.72 1651.23 2267.4 1652.88 2266.76 1654.48C2266.12 1656.03 2265.27 1657.55 2264.2 1659.04C2263.13 1660.53 2261.93 1661.97 2260.6 1663.36C2259.27 1664.75 2257.91 1666.08 2256.52 1667.36C2255.83 1668 2255.03 1668.77 2254.12 1669.68C2253.21 1670.53 2252.36 1671.44 2251.56 1672.4C2250.76 1673.31 2250.07 1674.24 2249.48 1675.2C2248.95 1676.16 2248.68 1677.04 2248.68 1677.84H2269.96V1686H2237.64C2237.48 1685.47 2237.4 1684.8 2237.4 1684C2237.45 1683.2 2237.48 1682.64 2237.48 1682.32C2237.48 1679.65 2237.96 1677.2 2238.92 1674.96C2239.93 1672.72 2241.19 1670.67 2242.68 1668.8C2244.23 1666.88 2245.85 1665.12 2247.56 1663.52C2249.32 1661.87 2250.95 1660.29 2252.44 1658.8C2253.99 1657.31 2255.24 1655.87 2256.2 1654.48C2257.21 1653.09 2257.72 1651.68 2257.72 1650.24C2257.72 1648.21 2257.11 1646.67 2255.88 1645.6C2254.65 1644.48 2253.11 1643.92 2251.24 1643.92C2249.69 1643.92 2248.07 1644.29 2246.36 1645.04C2244.65 1645.79 2242.97 1647.04 2241.32 1648.8L2236.44 1641.92C2238.57 1639.68 2241.03 1638.03 2243.8 1636.96C2246.63 1635.89 2249.43 1635.36 2252.2 1635.36C2254.23 1635.36 2256.17 1635.65 2258.04 1636.24C2259.91 1636.83 2261.56 1637.71 2263 1638.88C2264.44 1640.05 2265.59 1641.55 2266.44 1643.36C2267.29 1645.12 2267.72 1647.17 2267.72 1649.52Z" fill="white"/>
<circle cx="2392" cy="2027" r="50" fill="#F841C4"/>
<path d="M2389.04 2044.84V2017.16C2387.55 2018.23 2385.84 2019.19 2383.92 2020.04C2382 2020.84 2380.37 2021.48 2379.04 2021.96L2375.84 2013.8C2377.12 2013.32 2378.51 2012.71 2380 2011.96C2381.49 2011.21 2382.99 2010.39 2384.48 2009.48C2385.97 2008.57 2387.39 2007.61 2388.72 2006.6C2390.05 2005.59 2391.2 2004.55 2392.16 2003.48H2398.88V2044.84H2408.72V2053H2378.64V2044.84H2389.04Z" fill="white"/>
<rect x="284" y="1131" width="200" height="200" rx="20" fill="#F841C4"/>
<path d="M420.8 1205.8C420.8 1210.07 420 1214.2 418.4 1218.2C416.8 1222.07 414.667 1225.87 412 1229.6C409.333 1233.33 406.333 1236.93 403 1240.4C399.667 1243.87 396.267 1247.2 392.8 1250.4C391.067 1252 389.067 1253.93 386.8 1256.2C384.533 1258.33 382.4 1260.6 380.4 1263C378.4 1265.27 376.667 1267.6 375.2 1270C373.867 1272.4 373.2 1274.6 373.2 1276.6H426.4V1297H345.6C345.2 1295.67 345 1294 345 1292C345.133 1290 345.2 1288.6 345.2 1287.8C345.2 1281.13 346.4 1275 348.8 1269.4C351.333 1263.8 354.467 1258.67 358.2 1254C362.067 1249.2 366.133 1244.8 370.4 1240.8C374.8 1236.67 378.867 1232.73 382.6 1229C386.467 1225.27 389.6 1221.67 392 1218.2C394.533 1214.73 395.8 1211.2 395.8 1207.6C395.8 1202.53 394.267 1198.67 391.2 1196C388.133 1193.2 384.267 1191.8 379.6 1191.8C375.733 1191.8 371.667 1192.73 367.4 1194.6C363.133 1196.47 358.933 1199.6 354.8 1204L342.6 1186.8C347.933 1181.2 354.067 1177.07 361 1174.4C368.067 1171.73 375.067 1170.4 382 1170.4C387.067 1170.4 391.933 1171.13 396.6 1172.6C401.267 1174.07 405.4 1176.27 409 1179.2C412.6 1182.13 415.467 1185.87 417.6 1190.4C419.733 1194.8 420.8 1199.93 420.8 1205.8Z" fill="white"/>
<path d="M335.969 1117.72L272.433 1058.87L355.165 1033.27L335.969 1117.72Z" fill="#FF9D66"/>
<path d="M301.919 973.844L323.352 1043.11L304.246 1049.02L282.813 979.756L301.919 973.844Z" fill="#FF9D66"/>
<circle cx="484" cy="1231" r="50" fill="#F841C4"/>
<path d="M481.04 1248.84V1221.16C479.547 1222.23 477.84 1223.19 475.92 1224.04C474 1224.84 472.373 1225.48 471.04 1225.96L467.84 1217.8C469.12 1217.32 470.507 1216.71 472 1215.96C473.493 1215.21 474.987 1214.39 476.48 1213.48C477.973 1212.57 479.387 1211.61 480.72 1210.6C482.053 1209.59 483.2 1208.55 484.16 1207.48H490.88V1248.84H500.72V1257H470.64V1248.84H481.04Z" fill="white"/>
<circle cx="3197" cy="1660" r="50" fill="#FF9D66"/>
<path d="M3194.04 1677.84V1650.16C3192.55 1651.23 3190.84 1652.19 3188.92 1653.04C3187 1653.84 3185.37 1654.48 3184.04 1654.96L3180.84 1646.8C3182.12 1646.32 3183.51 1645.71 3185 1644.96C3186.49 1644.21 3187.99 1643.39 3189.48 1642.48C3190.97 1641.57 3192.39 1640.61 3193.72 1639.6C3195.05 1638.59 3196.2 1637.55 3197.16 1636.48H3203.88V1677.84H3213.72V1686H3183.64V1677.84H3194.04Z" fill="white"/>
<circle cx="3434" cy="1306" r="50" fill="#FF8266"/>
<path d="M3448.72 1295.52C3448.72 1297.23 3448.4 1298.88 3447.76 1300.48C3447.12 1302.03 3446.27 1303.55 3445.2 1305.04C3444.13 1306.53 3442.93 1307.97 3441.6 1309.36C3440.27 1310.75 3438.91 1312.08 3437.52 1313.36C3436.83 1314 3436.03 1314.77 3435.12 1315.68C3434.21 1316.53 3433.36 1317.44 3432.56 1318.4C3431.76 1319.31 3431.07 1320.24 3430.48 1321.2C3429.95 1322.16 3429.68 1323.04 3429.68 1323.84H3450.96V1332H3418.64C3418.48 1331.47 3418.4 1330.8 3418.4 1330C3418.45 1329.2 3418.48 1328.64 3418.48 1328.32C3418.48 1325.65 3418.96 1323.2 3419.92 1320.96C3420.93 1318.72 3422.19 1316.67 3423.68 1314.8C3425.23 1312.88 3426.85 1311.12 3428.56 1309.52C3430.32 1307.87 3431.95 1306.29 3433.44 1304.8C3434.99 1303.31 3436.24 1301.87 3437.2 1300.48C3438.21 1299.09 3438.72 1297.68 3438.72 1296.24C3438.72 1294.21 3438.11 1292.67 3436.88 1291.6C3435.65 1290.48 3434.11 1289.92 3432.24 1289.92C3430.69 1289.92 3429.07 1290.29 3427.36 1291.04C3425.65 1291.79 3423.97 1293.04 3422.32 1294.8L3417.44 1287.92C3419.57 1285.68 3422.03 1284.03 3424.8 1282.96C3427.63 1281.89 3430.43 1281.36 3433.2 1281.36C3435.23 1281.36 3437.17 1281.65 3439.04 1282.24C3440.91 1282.83 3442.56 1283.71 3444 1284.88C3445.44 1286.05 3446.59 1287.55 3447.44 1289.36C3448.29 1291.12 3448.72 1293.17 3448.72 1295.52Z" fill="white"/>
<circle cx="3671" cy="1660" r="50" fill="#FF9D66"/>
<path d="M3668.04 1677.84V1650.16C3666.55 1651.23 3664.84 1652.19 3662.92 1653.04C3661 1653.84 3659.37 1654.48 3658.04 1654.96L3654.84 1646.8C3656.12 1646.32 3657.51 1645.71 3659 1644.96C3660.49 1644.21 3661.99 1643.39 3663.48 1642.48C3664.97 1641.57 3666.39 1640.61 3667.72 1639.6C3669.05 1638.59 3670.2 1637.55 3671.16 1636.48H3677.88V1677.84H3687.72V1686H3657.64V1677.84H3668.04Z" fill="white"/>
<rect x="855" y="100" width="200" height="200" rx="20" fill="#FF6F66"/>
<path d="M969.2 229.6C969.2 226.133 968.6 223 967.4 220.2C966.333 217.267 964.067 214.8 960.6 212.8C957.267 210.667 952.467 209.067 946.2 208C939.933 206.8 931.733 206.2 921.6 206.2C922.933 195 924 184.067 924.8 173.4C925.6 162.6 926.2 152.2 926.6 142.2H989.8V162.6H947.2C946.933 166.867 946.6 171.333 946.2 176C945.8 180.667 945.467 184.467 945.2 187.4C961.733 188.467 974.067 192.467 982.2 199.4C990.333 206.333 994.4 216.067 994.4 228.6C994.4 234.333 993.4 239.667 991.4 244.6C989.4 249.4 986.333 253.6 982.2 257.2C978.067 260.8 972.933 263.6 966.8 265.6C960.667 267.6 953.533 268.6 945.4 268.6C942.2 268.6 938.933 268.4 935.6 268C932.267 267.6 929.067 267.067 926 266.4C922.933 265.867 920.133 265.2 917.6 264.4C915.2 263.6 913.333 262.867 912 262.2L917 241.8C919.933 243.267 923.667 244.6 928.2 245.8C932.733 247 938.4 247.6 945.2 247.6C950 247.6 953.933 247.067 957 246C960.2 244.933 962.667 243.6 964.4 242C966.267 240.267 967.533 238.333 968.2 236.2C968.867 234.067 969.2 231.867 969.2 229.6Z" fill="white"/>
<rect x="382" y="410" width="200" height="200" rx="20" fill="#FF8266"/>
<path d="M474.6 578.6C471.533 578.6 468.267 578.333 464.8 577.8C461.467 577.4 458.2 576.867 455 576.2C451.933 575.533 449.067 574.8 446.4 574C443.733 573.2 441.667 572.467 440.2 571.8L445 551.2C448.067 552.533 452 553.933 456.8 555.4C461.733 556.867 467.6 557.6 474.4 557.6C482.8 557.6 488.667 555.8 492 552.2C495.467 548.6 497.2 544.133 497.2 538.8C497.2 532.267 494.6 527.733 489.4 525.2C484.2 522.533 477.6 521.2 469.6 521.2H462V500.8H471.2C473.733 500.8 476.267 500.533 478.8 500C481.333 499.467 483.6 498.6 485.6 497.4C487.6 496.2 489.2 494.6 490.4 492.6C491.733 490.6 492.4 488.067 492.4 485C492.4 480.467 491 476.933 488.2 474.4C485.533 471.733 481.8 470.4 477 470.4C472.333 470.4 467.667 471.2 463 472.8C458.467 474.267 454.533 476.133 451.2 478.4L442.4 460.4C446 458 450.733 455.6 456.6 453.2C462.6 450.667 469.333 449.4 476.8 449.4C483.733 449.4 489.733 450.267 494.8 452C500 453.733 504.267 456.2 507.6 459.4C510.933 462.467 513.4 466.133 515 470.4C516.6 474.667 517.4 479.267 517.4 484.2C517.4 489.133 516 493.867 513.2 498.4C510.4 502.933 506.667 506.4 502 508.8C508.4 511.467 513.333 515.4 516.8 520.6C520.4 525.8 522.2 532 522.2 539.2C522.2 544.933 521.267 550.2 519.4 555C517.533 559.8 514.667 564 510.8 567.6C506.933 571.067 502 573.8 496 575.8C490 577.667 482.867 578.6 474.6 578.6Z" fill="white"/>
<rect x="146" y="764" width="200" height="200" rx="20" fill="#FF9D66"/>
<path d="M238.6 909.6V840.4C234.867 843.067 230.6 845.467 225.8 847.6C221 849.6 216.933 851.2 213.6 852.4L205.6 832C208.8 830.8 212.267 829.267 216 827.4C219.733 825.533 223.467 823.467 227.2 821.2C230.933 818.933 234.467 816.533 237.8 814C241.133 811.467 244 808.867 246.4 806.2H263.2V909.6H287.8V930H212.6V909.6H238.6Z" fill="white"/>
<rect x="1328" y="410" width="200" height="200" rx="20" fill="#FF8266"/>
<path d="M1467.2 481.6C1467.2 487.333 1465.8 493 1463 498.6C1460.2 504.067 1455.8 508.667 1449.8 512.4C1457.4 516.8 1462.73 521.6 1465.8 526.8C1469 532 1470.6 537.733 1470.6 544C1470.6 548 1469.8 552.067 1468.2 556.2C1466.73 560.333 1464.27 564.067 1460.8 567.4C1457.47 570.6 1453.07 573.267 1447.6 575.4C1442.13 577.533 1435.4 578.6 1427.4 578.6C1421.13 578.6 1415.4 577.8 1410.2 576.2C1405.13 574.733 1400.73 572.6 1397 569.8C1393.4 566.867 1390.6 563.333 1388.6 559.2C1386.6 554.933 1385.6 550.2 1385.6 545C1385.6 538.733 1387.07 532.867 1390 527.4C1392.93 521.8 1397.53 516.867 1403.8 512.6C1397.93 508.6 1393.93 504.333 1391.8 499.8C1389.67 495.267 1388.6 490.467 1388.6 485.4C1388.6 481.4 1389.27 477.267 1390.6 473C1392.07 468.6 1394.33 464.667 1397.4 461.2C1400.47 457.733 1404.53 454.867 1409.6 452.6C1414.67 450.333 1420.93 449.2 1428.4 449.2C1440.27 449.2 1449.67 452.133 1456.6 458C1463.67 463.867 1467.2 471.733 1467.2 481.6ZM1447.4 543.6C1447.4 540.933 1446.87 538.6 1445.8 536.6C1444.87 534.6 1443.27 532.8 1441 531.2C1438.87 529.467 1436.07 527.8 1432.6 526.2C1429.13 524.467 1425 522.667 1420.2 520.8C1416.47 523.867 1413.6 527.333 1411.6 531.2C1409.6 534.933 1408.6 538.533 1408.6 542C1408.6 547.333 1410.47 551.4 1414.2 554.2C1418.07 556.867 1422.6 558.2 1427.8 558.2C1433.8 558.2 1438.53 556.8 1442 554C1445.6 551.067 1447.4 547.6 1447.4 543.6ZM1428 469.6C1423.73 469.6 1419.93 470.8 1416.6 473.2C1413.4 475.6 1411.8 479.133 1411.8 483.8C1411.8 488.467 1413.33 492.267 1416.4 495.2C1419.47 498.133 1424.87 501.2 1432.6 504.4C1436.73 501.333 1439.67 498 1441.4 494.4C1443.13 490.667 1444 487.067 1444 483.6C1444 478.933 1442.4 475.467 1439.2 473.2C1436.13 470.8 1432.4 469.6 1428 469.6Z" fill="white"/>
<rect x="1092" y="764" width="200" height="200" rx="20" fill="#FF9D66"/>
<path d="M1190.2 871.2C1187.67 871.2 1185.07 871.467 1182.4 872C1179.73 872.533 1177.53 873.267 1175.8 874.2C1175.67 875.4 1175.53 876.6 1175.4 877.8C1175.4 879 1175.4 880.267 1175.4 881.6C1175.4 885.467 1175.67 889.2 1176.2 892.8C1176.73 896.267 1177.67 899.4 1179 902.2C1180.33 905 1182.13 907.267 1184.4 909C1186.8 910.6 1189.73 911.4 1193.2 911.4C1196 911.4 1198.4 910.733 1200.4 909.4C1202.4 908.067 1204 906.4 1205.2 904.4C1206.53 902.4 1207.47 900.2 1208 897.8C1208.67 895.4 1209 893.067 1209 890.8C1209 884.533 1207.6 879.733 1204.8 876.4C1202 872.933 1197.13 871.2 1190.2 871.2ZM1193.4 850.8C1200.6 850.8 1206.67 851.867 1211.6 854C1216.67 856.133 1220.8 859 1224 862.6C1227.2 866.2 1229.47 870.4 1230.8 875.2C1232.27 880 1233 885.067 1233 890.4C1233 895.2 1232.2 900.067 1230.6 905C1229.13 909.933 1226.8 914.467 1223.6 918.6C1220.4 922.733 1216.33 926.133 1211.4 928.8C1206.47 931.333 1200.6 932.6 1193.8 932.6C1179.93 932.6 1169.33 928.333 1162 919.8C1154.8 911.133 1151.2 897.667 1151.2 879.4C1151.2 867.4 1152.93 856.8 1156.4 847.6C1160 838.4 1165.07 830.667 1171.6 824.4C1178.13 818.133 1186 813.4 1195.2 810.2C1204.4 807 1214.6 805.4 1225.8 805.4L1227.2 826.4C1221.87 826.533 1216.67 827.067 1211.6 828C1206.53 828.933 1201.87 830.533 1197.6 832.8C1193.33 834.933 1189.6 837.733 1186.4 841.2C1183.33 844.667 1181.07 849 1179.6 854.2C1182.13 853.133 1184.6 852.333 1187 851.8C1189.4 851.133 1191.53 850.8 1193.4 850.8Z" fill="white"/>
<rect x="1565" y="764" width="200" height="200" rx="20" fill="#FF9D66"/>
<path d="M1667.2 864.2C1669.73 864.2 1672.4 863.933 1675.2 863.4C1678 862.867 1680.27 862.133 1682 861.2C1682.13 860.133 1682.2 858.867 1682.2 857.4C1682.33 855.8 1682.4 854.267 1682.4 852.8C1682.4 849.467 1682.07 846.133 1681.4 842.8C1680.87 839.333 1679.87 836.2 1678.4 833.4C1677.07 830.6 1675.2 828.333 1672.8 826.6C1670.53 824.867 1667.67 824 1664.2 824C1661.27 824 1658.73 824.6 1656.6 825.8C1654.6 826.867 1652.93 828.333 1651.6 830.2C1650.4 832.067 1649.47 834.267 1648.8 836.8C1648.27 839.333 1648 842 1648 844.8C1648 851.067 1649.47 855.867 1652.4 859.2C1655.33 862.533 1660.27 864.2 1667.2 864.2ZM1664 884.6C1656.8 884.6 1650.67 883.6 1645.6 881.6C1640.53 879.467 1636.4 876.6 1633.2 873C1630 869.4 1627.67 865.267 1626.2 860.6C1624.73 855.8 1624 850.667 1624 845.2C1624 840.4 1624.8 835.533 1626.4 830.6C1628.13 825.533 1630.6 821 1633.8 817C1637.13 812.867 1641.27 809.533 1646.2 807C1651.13 804.333 1656.93 803 1663.6 803C1677.47 803 1688.07 807.667 1695.4 817C1702.73 826.333 1706.4 839.333 1706.4 856C1706.4 868 1704.67 878.667 1701.2 888C1697.73 897.2 1692.73 904.933 1686.2 911.2C1679.8 917.467 1672 922.267 1662.8 925.6C1653.73 928.8 1643.6 930.4 1632.4 930.4L1631.6 909.2C1642.27 909.067 1651.8 906.8 1660.2 902.4C1668.6 897.867 1674.53 890.8 1678 881.2C1672.8 883.467 1668.13 884.6 1664 884.6Z" fill="white"/>
<path d="M638.253 385.484L686.178 313.351L724.685 390.922L638.253 385.484Z" fill="#FF6F66"/>
<path d="M793.179 319.743L709.878 361.093L700.985 343.179L784.287 301.828L793.179 319.743Z" fill="#FF6F66"/>
<path d="M309.09 749.693L310.705 663.106L384.884 707.798L309.09 749.693Z" fill="#FF8266"/>
<path d="M393.778 628.507L356.36 690.613L339.229 680.291L376.647 618.186L393.778 628.507Z" fill="#FF8266"/>
<path d="M1253.09 749.693L1254.7 663.106L1328.88 707.798L1253.09 749.693Z" fill="#FF8266"/>
<path d="M1337.78 628.507L1300.36 690.613L1283.23 680.291L1320.65 618.186L1337.78 628.507Z" fill="#FF8266"/>
<path d="M1604.21 749.693L1602.6 663.106L1528.42 707.798L1604.21 749.693Z" fill="#FF8266"/>
<path d="M1519.52 628.507L1556.94 690.613L1574.07 680.291L1536.66 618.186L1519.52 628.507Z" fill="#FF8266"/>
<path d="M1272.73 387.484L1224.81 315.351L1186.3 392.922L1272.73 387.484Z" fill="#FF6F66"/>
<path d="M1117.81 321.743L1201.11 363.093L1210 345.179L1126.7 303.828L1117.81 321.743Z" fill="#FF6F66"/>
<circle cx="1055" cy="200" r="50" fill="#FF6F66"/>
<path d="M1052.04 227.04C1050.81 227.04 1049.51 226.933 1048.12 226.72C1046.79 226.56 1045.48 226.347 1044.2 226.08C1042.97 225.813 1041.83 225.52 1040.76 225.2C1039.69 224.88 1038.87 224.587 1038.28 224.32L1040.2 216.08C1041.43 216.613 1043 217.173 1044.92 217.76C1046.89 218.347 1049.24 218.64 1051.96 218.64C1055.32 218.64 1057.67 217.92 1059 216.48C1060.39 215.04 1061.08 213.253 1061.08 211.12C1061.08 208.507 1060.04 206.693 1057.96 205.68C1055.88 204.613 1053.24 204.08 1050.04 204.08H1047V195.92H1050.68C1051.69 195.92 1052.71 195.813 1053.72 195.6C1054.73 195.387 1055.64 195.04 1056.44 194.56C1057.24 194.08 1057.88 193.44 1058.36 192.64C1058.89 191.84 1059.16 190.827 1059.16 189.6C1059.16 187.787 1058.6 186.373 1057.48 185.36C1056.41 184.293 1054.92 183.76 1053 183.76C1051.13 183.76 1049.27 184.08 1047.4 184.72C1045.59 185.307 1044.01 186.053 1042.68 186.96L1039.16 179.76C1040.6 178.8 1042.49 177.84 1044.84 176.88C1047.24 175.867 1049.93 175.36 1052.92 175.36C1055.69 175.36 1058.09 175.707 1060.12 176.4C1062.2 177.093 1063.91 178.08 1065.24 179.36C1066.57 180.587 1067.56 182.053 1068.2 183.76C1068.84 185.467 1069.16 187.307 1069.16 189.28C1069.16 191.253 1068.6 193.147 1067.48 194.96C1066.36 196.773 1064.87 198.16 1063 199.12C1065.56 200.187 1067.53 201.76 1068.92 203.84C1070.36 205.92 1071.08 208.4 1071.08 211.28C1071.08 213.573 1070.71 215.68 1069.96 217.6C1069.21 219.52 1068.07 221.2 1066.52 222.64C1064.97 224.027 1063 225.12 1060.6 225.92C1058.2 226.667 1055.35 227.04 1052.04 227.04Z" fill="white"/>
<circle cx="582" cy="510" r="50" fill="#FF8266"/>
<path d="M596.72 499.52C596.72 501.227 596.4 502.88 595.76 504.48C595.12 506.027 594.267 507.547 593.2 509.04C592.133 510.533 590.933 511.973 589.6 513.36C588.267 514.747 586.907 516.08 585.52 517.36C584.827 518 584.027 518.773 583.12 519.68C582.213 520.533 581.36 521.44 580.56 522.4C579.76 523.307 579.067 524.24 578.48 525.2C577.947 526.16 577.68 527.04 577.68 527.84H598.96V536H566.64C566.48 535.467 566.4 534.8 566.4 534C566.453 533.2 566.48 532.64 566.48 532.32C566.48 529.653 566.96 527.2 567.92 524.96C568.933 522.72 570.187 520.667 571.68 518.8C573.227 516.88 574.853 515.12 576.56 513.52C578.32 511.867 579.947 510.293 581.44 508.8C582.987 507.307 584.24 505.867 585.2 504.48C586.213 503.093 586.72 501.68 586.72 500.24C586.72 498.213 586.107 496.667 584.88 495.6C583.653 494.48 582.107 493.92 580.24 493.92C578.693 493.92 577.067 494.293 575.36 495.04C573.653 495.787 571.973 497.04 570.32 498.8L565.44 491.92C567.573 489.68 570.027 488.027 572.8 486.96C575.627 485.893 578.427 485.36 581.2 485.36C583.227 485.36 585.173 485.653 587.04 486.24C588.907 486.827 590.56 487.707 592 488.88C593.44 490.053 594.587 491.547 595.44 493.36C596.293 495.12 596.72 497.173 596.72 499.52Z" fill="white"/>
<circle cx="347" cy="864" r="50" fill="#FF9D66"/>
<path d="M344.04 881.84V854.16C342.547 855.227 340.84 856.187 338.92 857.04C337 857.84 335.373 858.48 334.04 858.96L330.84 850.8C332.12 850.32 333.507 849.707 335 848.96C336.493 848.213 337.987 847.387 339.48 846.48C340.973 845.573 342.387 844.613 343.72 843.6C345.053 842.587 346.2 841.547 347.16 840.48H353.88V881.84H363.72V890H333.64V881.84H344.04Z" fill="white"/>
<circle cx="1291" cy="864" r="50" fill="#FF9D66"/>
<path d="M1288.04 881.84V854.16C1286.55 855.227 1284.84 856.187 1282.92 857.04C1281 857.84 1279.37 858.48 1278.04 858.96L1274.84 850.8C1276.12 850.32 1277.51 849.707 1279 848.96C1280.49 848.213 1281.99 847.387 1283.48 846.48C1284.97 845.573 1286.39 844.613 1287.72 843.6C1289.05 842.587 1290.2 841.547 1291.16 840.48H1297.88V881.84H1307.72V890H1277.64V881.84H1288.04Z" fill="white"/>
<circle cx="1528" cy="510" r="50" fill="#FF8266"/>
<path d="M1542.72 499.52C1542.72 501.227 1542.4 502.88 1541.76 504.48C1541.12 506.027 1540.27 507.547 1539.2 509.04C1538.13 510.533 1536.93 511.973 1535.6 513.36C1534.27 514.747 1532.91 516.08 1531.52 517.36C1530.83 518 1530.03 518.773 1529.12 519.68C1528.21 520.533 1527.36 521.44 1526.56 522.4C1525.76 523.307 1525.07 524.24 1524.48 525.2C1523.95 526.16 1523.68 527.04 1523.68 527.84H1544.96V536H1512.64C1512.48 535.467 1512.4 534.8 1512.4 534C1512.45 533.2 1512.48 532.64 1512.48 532.32C1512.48 529.653 1512.96 527.2 1513.92 524.96C1514.93 522.72 1516.19 520.667 1517.68 518.8C1519.23 516.88 1520.85 515.12 1522.56 513.52C1524.32 511.867 1525.95 510.293 1527.44 508.8C1528.99 507.307 1530.24 505.867 1531.2 504.48C1532.21 503.093 1532.72 501.68 1532.72 500.24C1532.72 498.213 1532.11 496.667 1530.88 495.6C1529.65 494.48 1528.11 493.92 1526.24 493.92C1524.69 493.92 1523.07 494.293 1521.36 495.04C1519.65 495.787 1517.97 497.04 1516.32 498.8L1511.44 491.92C1513.57 489.68 1516.03 488.027 1518.8 486.96C1521.63 485.893 1524.43 485.36 1527.2 485.36C1529.23 485.36 1531.17 485.653 1533.04 486.24C1534.91 486.827 1536.56 487.707 1538 488.88C1539.44 490.053 1540.59 491.547 1541.44 493.36C1542.29 495.12 1542.72 497.173 1542.72 499.52Z" fill="white"/>
<circle cx="1765" cy="864" r="50" fill="#FF9D66"/>
<path d="M1762.04 881.84V854.16C1760.55 855.227 1758.84 856.187 1756.92 857.04C1755 857.84 1753.37 858.48 1752.04 858.96L1748.84 850.8C1750.12 850.32 1751.51 849.707 1753 848.96C1754.49 848.213 1755.99 847.387 1757.48 846.48C1758.97 845.573 1760.39 844.613 1761.72 843.6C1763.05 842.587 1764.2 841.547 1765.16 840.48H1771.88V881.84H1781.72V890H1751.64V881.84H1762.04Z" fill="white"/>
<rect x="504" y="2271" width="200" height="200" rx="20" fill="#F841C4"/>
<path d="M640.8 2345.8C640.8 2350.07 640 2354.2 638.4 2358.2C636.8 2362.07 634.667 2365.87 632 2369.6C629.333 2373.33 626.333 2376.93 623 2380.4C619.667 2383.87 616.267 2387.2 612.8 2390.4C611.067 2392 609.067 2393.93 606.8 2396.2C604.533 2398.33 602.4 2400.6 600.4 2403C598.4 2405.27 596.667 2407.6 595.2 2410C593.867 2412.4 593.2 2414.6 593.2 2416.6H646.4V2437H565.6C565.2 2435.67 565 2434 565 2432C565.133 2430 565.2 2428.6 565.2 2427.8C565.2 2421.13 566.4 2415 568.8 2409.4C571.333 2403.8 574.467 2398.67 578.2 2394C582.067 2389.2 586.133 2384.8 590.4 2380.8C594.8 2376.67 598.867 2372.73 602.6 2369C606.467 2365.27 609.6 2361.67 612 2358.2C614.533 2354.73 615.8 2351.2 615.8 2347.6C615.8 2342.53 614.267 2338.67 611.2 2336C608.133 2333.2 604.267 2331.8 599.6 2331.8C595.733 2331.8 591.667 2332.73 587.4 2334.6C583.133 2336.47 578.933 2339.6 574.8 2344L562.6 2326.8C567.933 2321.2 574.067 2317.07 581 2314.4C588.067 2311.73 595.067 2310.4 602 2310.4C607.067 2310.4 611.933 2311.13 616.6 2312.6C621.267 2314.07 625.4 2316.27 629 2319.2C632.6 2322.13 635.467 2325.87 637.6 2330.4C639.733 2334.8 640.8 2339.93 640.8 2345.8Z" fill="white"/>
<circle cx="704" cy="2371" r="50" fill="#F841C4"/>
<path d="M718.72 2360.52C718.72 2362.23 718.4 2363.88 717.76 2365.48C717.12 2367.03 716.267 2368.55 715.2 2370.04C714.133 2371.53 712.933 2372.97 711.6 2374.36C710.267 2375.75 708.907 2377.08 707.52 2378.36C706.827 2379 706.027 2379.77 705.12 2380.68C704.213 2381.53 703.36 2382.44 702.56 2383.4C701.76 2384.31 701.067 2385.24 700.48 2386.2C699.947 2387.16 699.68 2388.04 699.68 2388.84H720.96V2397H688.64C688.48 2396.47 688.4 2395.8 688.4 2395C688.453 2394.2 688.48 2393.64 688.48 2393.32C688.48 2390.65 688.96 2388.2 689.92 2385.96C690.933 2383.72 692.187 2381.67 693.68 2379.8C695.227 2377.88 696.853 2376.12 698.56 2374.52C700.32 2372.87 701.947 2371.29 703.44 2369.8C704.987 2368.31 706.24 2366.87 707.2 2365.48C708.213 2364.09 708.72 2362.68 708.72 2361.24C708.72 2359.21 708.107 2357.67 706.88 2356.6C705.653 2355.48 704.107 2354.92 702.24 2354.92C700.693 2354.92 699.067 2355.29 697.36 2356.04C695.653 2356.79 693.973 2358.04 692.32 2359.8L687.44 2352.92C689.573 2350.68 692.027 2349.03 694.8 2347.96C697.627 2346.89 700.427 2346.36 703.2 2346.36C705.227 2346.36 707.173 2346.65 709.04 2347.24C710.907 2347.83 712.56 2348.71 714 2349.88C715.44 2351.05 716.587 2352.55 717.44 2354.36C718.293 2356.12 718.72 2358.17 718.72 2360.52Z" fill="white"/>
<rect x="962" y="1961" width="200" height="200" rx="20" fill="#FF6F66"/>
<path d="M1076.2 2090.6C1076.2 2087.13 1075.6 2084 1074.4 2081.2C1073.33 2078.27 1071.07 2075.8 1067.6 2073.8C1064.27 2071.67 1059.47 2070.07 1053.2 2069C1046.93 2067.8 1038.73 2067.2 1028.6 2067.2C1029.93 2056 1031 2045.07 1031.8 2034.4C1032.6 2023.6 1033.2 2013.2 1033.6 2003.2H1096.8V2023.6H1054.2C1053.93 2027.87 1053.6 2032.33 1053.2 2037C1052.8 2041.67 1052.47 2045.47 1052.2 2048.4C1068.73 2049.47 1081.07 2053.47 1089.2 2060.4C1097.33 2067.33 1101.4 2077.07 1101.4 2089.6C1101.4 2095.33 1100.4 2100.67 1098.4 2105.6C1096.4 2110.4 1093.33 2114.6 1089.2 2118.2C1085.07 2121.8 1079.93 2124.6 1073.8 2126.6C1067.67 2128.6 1060.53 2129.6 1052.4 2129.6C1049.2 2129.6 1045.93 2129.4 1042.6 2129C1039.27 2128.6 1036.07 2128.07 1033 2127.4C1029.93 2126.87 1027.13 2126.2 1024.6 2125.4C1022.2 2124.6 1020.33 2123.87 1019 2123.2L1024 2102.8C1026.93 2104.27 1030.67 2105.6 1035.2 2106.8C1039.73 2108 1045.4 2108.6 1052.2 2108.6C1057 2108.6 1060.93 2108.07 1064 2107C1067.2 2105.93 1069.67 2104.6 1071.4 2103C1073.27 2101.27 1074.53 2099.33 1075.2 2097.2C1075.87 2095.07 1076.2 2092.87 1076.2 2090.6Z" fill="white"/>
<rect x="737" y="2625" width="200" height="200" rx="20" fill="#FF8266"/>
<path d="M829.6 2793.6C826.533 2793.6 823.267 2793.33 819.8 2792.8C816.467 2792.4 813.2 2791.87 810 2791.2C806.933 2790.53 804.067 2789.8 801.4 2789C798.733 2788.2 796.667 2787.47 795.2 2786.8L800 2766.2C803.067 2767.53 807 2768.93 811.8 2770.4C816.733 2771.87 822.6 2772.6 829.4 2772.6C837.8 2772.6 843.667 2770.8 847 2767.2C850.467 2763.6 852.2 2759.13 852.2 2753.8C852.2 2747.27 849.6 2742.73 844.4 2740.2C839.2 2737.53 832.6 2736.2 824.6 2736.2H817V2715.8H826.2C828.733 2715.8 831.267 2715.53 833.8 2715C836.333 2714.47 838.6 2713.6 840.6 2712.4C842.6 2711.2 844.2 2709.6 845.4 2707.6C846.733 2705.6 847.4 2703.07 847.4 2700C847.4 2695.47 846 2691.93 843.2 2689.4C840.533 2686.73 836.8 2685.4 832 2685.4C827.333 2685.4 822.667 2686.2 818 2687.8C813.467 2689.27 809.533 2691.13 806.2 2693.4L797.4 2675.4C801 2673 805.733 2670.6 811.6 2668.2C817.6 2665.67 824.333 2664.4 831.8 2664.4C838.733 2664.4 844.733 2665.27 849.8 2667C855 2668.73 859.267 2671.2 862.6 2674.4C865.933 2677.47 868.4 2681.13 870 2685.4C871.6 2689.67 872.4 2694.27 872.4 2699.2C872.4 2704.13 871 2708.87 868.2 2713.4C865.4 2717.93 861.667 2721.4 857 2723.8C863.4 2726.47 868.333 2730.4 871.8 2735.6C875.4 2740.8 877.2 2747 877.2 2754.2C877.2 2759.93 876.267 2765.2 874.4 2770C872.533 2774.8 869.667 2779 865.8 2782.6C861.933 2786.07 857 2788.8 851 2790.8C845 2792.67 837.867 2793.6 829.6 2793.6Z" fill="white"/>
<rect x="253" y="2625" width="200" height="200" rx="20" fill="#FF9D66"/>
<path d="M345.6 2770.6V2701.4C341.867 2704.07 337.6 2706.47 332.8 2708.6C328 2710.6 323.933 2712.2 320.6 2713.4L312.6 2693C315.8 2691.8 319.267 2690.27 323 2688.4C326.733 2686.53 330.467 2684.47 334.2 2682.2C337.933 2679.93 341.467 2677.53 344.8 2675C348.133 2672.47 351 2669.87 353.4 2667.2H370.2V2770.6H394.8V2791H319.6V2770.6H345.6Z" fill="white"/>
<rect x="1435" y="2271" width="200" height="200" rx="20" fill="#FF8266"/>
<path d="M1574.2 2342.6C1574.2 2348.33 1572.8 2354 1570 2359.6C1567.2 2365.07 1562.8 2369.67 1556.8 2373.4C1564.4 2377.8 1569.73 2382.6 1572.8 2387.8C1576 2393 1577.6 2398.73 1577.6 2405C1577.6 2409 1576.8 2413.07 1575.2 2417.2C1573.73 2421.33 1571.27 2425.07 1567.8 2428.4C1564.47 2431.6 1560.07 2434.27 1554.6 2436.4C1549.13 2438.53 1542.4 2439.6 1534.4 2439.6C1528.13 2439.6 1522.4 2438.8 1517.2 2437.2C1512.13 2435.73 1507.73 2433.6 1504 2430.8C1500.4 2427.87 1497.6 2424.33 1495.6 2420.2C1493.6 2415.93 1492.6 2411.2 1492.6 2406C1492.6 2399.73 1494.07 2393.87 1497 2388.4C1499.93 2382.8 1504.53 2377.87 1510.8 2373.6C1504.93 2369.6 1500.93 2365.33 1498.8 2360.8C1496.67 2356.27 1495.6 2351.47 1495.6 2346.4C1495.6 2342.4 1496.27 2338.27 1497.6 2334C1499.07 2329.6 1501.33 2325.67 1504.4 2322.2C1507.47 2318.73 1511.53 2315.87 1516.6 2313.6C1521.67 2311.33 1527.93 2310.2 1535.4 2310.2C1547.27 2310.2 1556.67 2313.13 1563.6 2319C1570.67 2324.87 1574.2 2332.73 1574.2 2342.6ZM1554.4 2404.6C1554.4 2401.93 1553.87 2399.6 1552.8 2397.6C1551.87 2395.6 1550.27 2393.8 1548 2392.2C1545.87 2390.47 1543.07 2388.8 1539.6 2387.2C1536.13 2385.47 1532 2383.67 1527.2 2381.8C1523.47 2384.87 1520.6 2388.33 1518.6 2392.2C1516.6 2395.93 1515.6 2399.53 1515.6 2403C1515.6 2408.33 1517.47 2412.4 1521.2 2415.2C1525.07 2417.87 1529.6 2419.2 1534.8 2419.2C1540.8 2419.2 1545.53 2417.8 1549 2415C1552.6 2412.07 1554.4 2408.6 1554.4 2404.6ZM1535 2330.6C1530.73 2330.6 1526.93 2331.8 1523.6 2334.2C1520.4 2336.6 1518.8 2340.13 1518.8 2344.8C1518.8 2349.47 1520.33 2353.27 1523.4 2356.2C1526.47 2359.13 1531.87 2362.2 1539.6 2365.4C1543.73 2362.33 1546.67 2359 1548.4 2355.4C1550.13 2351.67 1551 2348.07 1551 2344.6C1551 2339.93 1549.4 2336.47 1546.2 2334.2C1543.13 2331.8 1539.4 2330.6 1535 2330.6Z" fill="white"/>
<rect x="1199" y="2625" width="200" height="200" rx="20" fill="#FF9D66"/>
<path d="M1297.2 2732.2C1294.67 2732.2 1292.07 2732.47 1289.4 2733C1286.73 2733.53 1284.53 2734.27 1282.8 2735.2C1282.67 2736.4 1282.53 2737.6 1282.4 2738.8C1282.4 2740 1282.4 2741.27 1282.4 2742.6C1282.4 2746.47 1282.67 2750.2 1283.2 2753.8C1283.73 2757.27 1284.67 2760.4 1286 2763.2C1287.33 2766 1289.13 2768.27 1291.4 2770C1293.8 2771.6 1296.73 2772.4 1300.2 2772.4C1303 2772.4 1305.4 2771.73 1307.4 2770.4C1309.4 2769.07 1311 2767.4 1312.2 2765.4C1313.53 2763.4 1314.47 2761.2 1315 2758.8C1315.67 2756.4 1316 2754.07 1316 2751.8C1316 2745.53 1314.6 2740.73 1311.8 2737.4C1309 2733.93 1304.13 2732.2 1297.2 2732.2ZM1300.4 2711.8C1307.6 2711.8 1313.67 2712.87 1318.6 2715C1323.67 2717.13 1327.8 2720 1331 2723.6C1334.2 2727.2 1336.47 2731.4 1337.8 2736.2C1339.27 2741 1340 2746.07 1340 2751.4C1340 2756.2 1339.2 2761.07 1337.6 2766C1336.13 2770.93 1333.8 2775.47 1330.6 2779.6C1327.4 2783.73 1323.33 2787.13 1318.4 2789.8C1313.47 2792.33 1307.6 2793.6 1300.8 2793.6C1286.93 2793.6 1276.33 2789.33 1269 2780.8C1261.8 2772.13 1258.2 2758.67 1258.2 2740.4C1258.2 2728.4 1259.93 2717.8 1263.4 2708.6C1267 2699.4 1272.07 2691.67 1278.6 2685.4C1285.13 2679.13 1293 2674.4 1302.2 2671.2C1311.4 2668 1321.6 2666.4 1332.8 2666.4L1334.2 2687.4C1328.87 2687.53 1323.67 2688.07 1318.6 2689C1313.53 2689.93 1308.87 2691.53 1304.6 2693.8C1300.33 2695.93 1296.6 2698.73 1293.4 2702.2C1290.33 2705.67 1288.07 2710 1286.6 2715.2C1289.13 2714.13 1291.6 2713.33 1294 2712.8C1296.4 2712.13 1298.53 2711.8 1300.4 2711.8Z" fill="white"/>
<rect x="1672" y="2625" width="200" height="200" rx="20" fill="#FF9D66"/>
<path d="M1774.2 2725.2C1776.73 2725.2 1779.4 2724.93 1782.2 2724.4C1785 2723.87 1787.27 2723.13 1789 2722.2C1789.13 2721.13 1789.2 2719.87 1789.2 2718.4C1789.33 2716.8 1789.4 2715.27 1789.4 2713.8C1789.4 2710.47 1789.07 2707.13 1788.4 2703.8C1787.87 2700.33 1786.87 2697.2 1785.4 2694.4C1784.07 2691.6 1782.2 2689.33 1779.8 2687.6C1777.53 2685.87 1774.67 2685 1771.2 2685C1768.27 2685 1765.73 2685.6 1763.6 2686.8C1761.6 2687.87 1759.93 2689.33 1758.6 2691.2C1757.4 2693.07 1756.47 2695.27 1755.8 2697.8C1755.27 2700.33 1755 2703 1755 2705.8C1755 2712.07 1756.47 2716.87 1759.4 2720.2C1762.33 2723.53 1767.27 2725.2 1774.2 2725.2ZM1771 2745.6C1763.8 2745.6 1757.67 2744.6 1752.6 2742.6C1747.53 2740.47 1743.4 2737.6 1740.2 2734C1737 2730.4 1734.67 2726.27 1733.2 2721.6C1731.73 2716.8 1731 2711.67 1731 2706.2C1731 2701.4 1731.8 2696.53 1733.4 2691.6C1735.13 2686.53 1737.6 2682 1740.8 2678C1744.13 2673.87 1748.27 2670.53 1753.2 2668C1758.13 2665.33 1763.93 2664 1770.6 2664C1784.47 2664 1795.07 2668.67 1802.4 2678C1809.73 2687.33 1813.4 2700.33 1813.4 2717C1813.4 2729 1811.67 2739.67 1808.2 2749C1804.73 2758.2 1799.73 2765.93 1793.2 2772.2C1786.8 2778.47 1779 2783.27 1769.8 2786.6C1760.73 2789.8 1750.6 2791.4 1739.4 2791.4L1738.6 2770.2C1749.27 2770.07 1758.8 2767.8 1767.2 2763.4C1775.6 2758.87 1781.53 2751.8 1785 2742.2C1779.8 2744.47 1775.13 2745.6 1771 2745.6Z" fill="white"/>
<path d="M745.253 2246.48L793.178 2174.35L831.685 2251.92L745.253 2246.48Z" fill="#F841C4"/>
<path d="M900.179 2180.74L816.878 2222.09L807.985 2204.18L891.287 2162.83L900.179 2180.74Z" fill="#F841C4"/>
<path d="M416.09 2610.69L417.705 2524.11L491.884 2568.8L416.09 2610.69Z" fill="#F841C4"/>
<path d="M500.778 2489.51L463.36 2551.61L446.229 2541.29L483.647 2479.19L500.778 2489.51Z" fill="#F841C4"/>
<path d="M1360.09 2610.69L1361.7 2524.11L1435.88 2568.8L1360.09 2610.69Z" fill="#FF8266"/>
<path d="M1444.78 2489.51L1407.36 2551.61L1390.23 2541.29L1427.65 2479.19L1444.78 2489.51Z" fill="#FF8266"/>
<path d="M1711.21 2610.69L1709.6 2524.11L1635.42 2568.8L1711.21 2610.69Z" fill="#FF8266"/>
<path d="M1626.52 2489.51L1663.94 2551.61L1681.07 2541.29L1643.66 2479.19L1626.52 2489.51Z" fill="#FF8266"/>
<path d="M783.213 2610.69L781.598 2524.11L707.418 2568.8L783.213 2610.69Z" fill="#F841C4"/>
<path d="M698.524 2489.51L735.942 2551.61L753.073 2541.29L715.655 2479.19L698.524 2489.51Z" fill="#F841C4"/>
<path d="M1379.73 2248.48L1331.81 2176.35L1293.3 2253.92L1379.73 2248.48Z" fill="#FF6F66"/>
<path d="M1224.81 2182.74L1308.11 2224.09L1317 2206.18L1233.7 2164.83L1224.81 2182.74Z" fill="#FF6F66"/>
<circle cx="1162" cy="2061" r="50" fill="#F841C4"/>
<path d="M1159.04 2088.04C1157.81 2088.04 1156.51 2087.93 1155.12 2087.72C1153.79 2087.56 1152.48 2087.35 1151.2 2087.08C1149.97 2086.81 1148.83 2086.52 1147.76 2086.2C1146.69 2085.88 1145.87 2085.59 1145.28 2085.32L1147.2 2077.08C1148.43 2077.61 1150 2078.17 1151.92 2078.76C1153.89 2079.35 1156.24 2079.64 1158.96 2079.64C1162.32 2079.64 1164.67 2078.92 1166 2077.48C1167.39 2076.04 1168.08 2074.25 1168.08 2072.12C1168.08 2069.51 1167.04 2067.69 1164.96 2066.68C1162.88 2065.61 1160.24 2065.08 1157.04 2065.08H1154V2056.92H1157.68C1158.69 2056.92 1159.71 2056.81 1160.72 2056.6C1161.73 2056.39 1162.64 2056.04 1163.44 2055.56C1164.24 2055.08 1164.88 2054.44 1165.36 2053.64C1165.89 2052.84 1166.16 2051.83 1166.16 2050.6C1166.16 2048.79 1165.6 2047.37 1164.48 2046.36C1163.41 2045.29 1161.92 2044.76 1160 2044.76C1158.13 2044.76 1156.27 2045.08 1154.4 2045.72C1152.59 2046.31 1151.01 2047.05 1149.68 2047.96L1146.16 2040.76C1147.6 2039.8 1149.49 2038.84 1151.84 2037.88C1154.24 2036.87 1156.93 2036.36 1159.92 2036.36C1162.69 2036.36 1165.09 2036.71 1167.12 2037.4C1169.2 2038.09 1170.91 2039.08 1172.24 2040.36C1173.57 2041.59 1174.56 2043.05 1175.2 2044.76C1175.84 2046.47 1176.16 2048.31 1176.16 2050.28C1176.16 2052.25 1175.6 2054.15 1174.48 2055.96C1173.36 2057.77 1171.87 2059.16 1170 2060.12C1172.56 2061.19 1174.53 2062.76 1175.92 2064.84C1177.36 2066.92 1178.08 2069.4 1178.08 2072.28C1178.08 2074.57 1177.71 2076.68 1176.96 2078.6C1176.21 2080.52 1175.07 2082.2 1173.52 2083.64C1171.97 2085.03 1170 2086.12 1167.6 2086.92C1165.2 2087.67 1162.35 2088.04 1159.04 2088.04Z" fill="white"/>
<circle cx="937" cy="2725" r="50" fill="#F841C4"/>
<path d="M934.04 2742.84V2715.16C932.547 2716.23 930.84 2717.19 928.92 2718.04C927 2718.84 925.373 2719.48 924.04 2719.96L920.84 2711.8C922.12 2711.32 923.507 2710.71 925 2709.96C926.493 2709.21 927.987 2708.39 929.48 2707.48C930.973 2706.57 932.387 2705.61 933.72 2704.6C935.053 2703.59 936.2 2702.55 937.16 2701.48H943.88V2742.84H953.72V2751H923.64V2742.84H934.04Z" fill="white"/>
<circle cx="454" cy="2725" r="50" fill="#F841C4"/>
<path d="M451.04 2742.84V2715.16C449.547 2716.23 447.84 2717.19 445.92 2718.04C444 2718.84 442.373 2719.48 441.04 2719.96L437.84 2711.8C439.12 2711.32 440.507 2710.71 442 2709.96C443.493 2709.21 444.987 2708.39 446.48 2707.48C447.973 2706.57 449.387 2705.61 450.72 2704.6C452.053 2703.59 453.2 2702.55 454.16 2701.48H460.88V2742.84H470.72V2751H440.64V2742.84H451.04Z" fill="white"/>
<circle cx="1398" cy="2725" r="50" fill="#FF9D66"/>
<path d="M1395.04 2742.84V2715.16C1393.55 2716.23 1391.84 2717.19 1389.92 2718.04C1388 2718.84 1386.37 2719.48 1385.04 2719.96L1381.84 2711.8C1383.12 2711.32 1384.51 2710.71 1386 2709.96C1387.49 2709.21 1388.99 2708.39 1390.48 2707.48C1391.97 2706.57 1393.39 2705.61 1394.72 2704.6C1396.05 2703.59 1397.2 2702.55 1398.16 2701.48H1404.88V2742.84H1414.72V2751H1384.64V2742.84H1395.04Z" fill="white"/>
<circle cx="1635" cy="2371" r="50" fill="#FF8266"/>
<path d="M1649.72 2360.52C1649.72 2362.23 1649.4 2363.88 1648.76 2365.48C1648.12 2367.03 1647.27 2368.55 1646.2 2370.04C1645.13 2371.53 1643.93 2372.97 1642.6 2374.36C1641.27 2375.75 1639.91 2377.08 1638.52 2378.36C1637.83 2379 1637.03 2379.77 1636.12 2380.68C1635.21 2381.53 1634.36 2382.44 1633.56 2383.4C1632.76 2384.31 1632.07 2385.24 1631.48 2386.2C1630.95 2387.16 1630.68 2388.04 1630.68 2388.84H1651.96V2397H1619.64C1619.48 2396.47 1619.4 2395.8 1619.4 2395C1619.45 2394.2 1619.48 2393.64 1619.48 2393.32C1619.48 2390.65 1619.96 2388.2 1620.92 2385.96C1621.93 2383.72 1623.19 2381.67 1624.68 2379.8C1626.23 2377.88 1627.85 2376.12 1629.56 2374.52C1631.32 2372.87 1632.95 2371.29 1634.44 2369.8C1635.99 2368.31 1637.24 2366.87 1638.2 2365.48C1639.21 2364.09 1639.72 2362.68 1639.72 2361.24C1639.72 2359.21 1639.11 2357.67 1637.88 2356.6C1636.65 2355.48 1635.11 2354.92 1633.24 2354.92C1631.69 2354.92 1630.07 2355.29 1628.36 2356.04C1626.65 2356.79 1624.97 2358.04 1623.32 2359.8L1618.44 2352.92C1620.57 2350.68 1623.03 2349.03 1625.8 2347.96C1628.63 2346.89 1631.43 2346.36 1634.2 2346.36C1636.23 2346.36 1638.17 2346.65 1640.04 2347.24C1641.91 2347.83 1643.56 2348.71 1645 2349.88C1646.44 2351.05 1647.59 2352.55 1648.44 2354.36C1649.29 2356.12 1649.72 2358.17 1649.72 2360.52Z" fill="white"/>
<circle cx="1872" cy="2725" r="50" fill="#FF9D66"/>
<path d="M1869.04 2742.84V2715.16C1867.55 2716.23 1865.84 2717.19 1863.92 2718.04C1862 2718.84 1860.37 2719.48 1859.04 2719.96L1855.84 2711.8C1857.12 2711.32 1858.51 2710.71 1860 2709.96C1861.49 2709.21 1862.99 2708.39 1864.48 2707.48C1865.97 2706.57 1867.39 2705.61 1868.72 2704.6C1870.05 2703.59 1871.2 2702.55 1872.16 2701.48H1878.88V2742.84H1888.72V2751H1858.64V2742.84H1869.04Z" fill="white"/>
</svg>
