<svg width="3791" height="1431" viewBox="0 0 3791 1431" fill="none" xmlns="http://www.w3.org/2000/svg">
<rect x="993" y="101" width="200" height="200" rx="20" fill="#FF6F66"/>
<path d="M1132 160.4C1126.27 169.2 1121 177.467 1116.2 185.2C1111.4 192.933 1106.93 200.333 1102.8 207.4C1098.67 214.333 1094.73 221.067 1091 227.6C1087.4 234 1083.93 240.333 1080.6 246.6H1133.8V267H1052.2V252.8C1055.13 247.067 1058.27 241.067 1061.6 234.8C1064.93 228.4 1068.67 221.6 1072.8 214.4C1076.93 207.2 1081.4 199.4 1086.2 191C1091.13 182.6 1096.53 173.467 1102.4 163.6H1054.8V143.2H1132V160.4Z" fill="white"/>
<rect x="520" y="411" width="200" height="200" rx="20" fill="#FF8266"/>
<path d="M620.8 509.8C622.267 506.733 623.933 502.867 625.8 498.2C627.8 493.533 629.733 488.6 631.6 483.4C633.6 478.2 635.467 472.933 637.2 467.6C639.067 462.267 640.733 457.467 642.2 453.2H667.6C665.067 460 662.533 466.6 660 473C657.467 479.4 654.8 485.733 652 492C649.2 498.267 646.2 504.533 643 510.8C639.8 516.933 636.333 523.267 632.6 529.8V577H607.8V530C600.467 517.067 594 504.467 588.4 492.2C582.933 479.8 577.667 466.8 572.6 453.2H599C602.067 462.8 605.467 472.6 609.2 482.6C612.933 492.467 616.8 501.533 620.8 509.8Z" fill="white"/>
<rect x="284" y="765" width="200" height="200" rx="20" fill="#BBBBBB"/>
<path d="M404 807.2V827.6H371.4V931H346.6V827.6H314V807.2H404ZM430.3 920.8V886.2C428.433 887.533 426.3 888.733 423.9 889.8C421.5 890.8 419.467 891.6 417.8 892.2L413.8 882C415.4 881.4 417.133 880.633 419 879.7C420.867 878.767 422.733 877.733 424.6 876.6C426.467 875.467 428.233 874.267 429.9 873C431.567 871.733 433 870.433 434.2 869.1H442.6V920.8H454.9V931H417.3V920.8H430.3Z" fill="white"/>
<rect x="1466" y="411" width="200" height="200" rx="20" fill="#BBBBBB"/>
<path d="M1586 453.2V473.6H1553.4V577H1528.6V473.6H1496V453.2H1586ZM1619.5 530.5C1618.3 532.033 1617.07 533.667 1615.8 535.4C1614.53 537.133 1613.27 538.967 1612 540.9C1610.8 542.767 1609.63 544.667 1608.5 546.6C1607.37 548.533 1606.37 550.433 1605.5 552.3H1619.5V530.5ZM1631.8 515.1V552.3H1638.5V562.4H1631.8V577H1619.5V562.4H1593.7V553.4C1594.97 550.8 1596.6 547.867 1598.6 544.6C1600.6 541.267 1602.8 537.867 1605.2 534.4C1607.6 530.933 1610.13 527.533 1612.8 524.2C1615.47 520.8 1618.13 517.767 1620.8 515.1H1631.8Z" fill="white"/>
<path d="M776.253 386.484L824.179 314.351L862.685 391.922L776.253 386.484Z" fill="#FF6F66"/>
<path d="M931.18 320.743L847.878 362.093L838.986 344.179L922.287 302.828L931.18 320.743Z" fill="#FF6F66"/>
<path d="M447.09 750.693L448.705 664.106L522.885 708.798L447.09 750.693Z" fill="#FF8266"/>
<path d="M531.779 629.507L494.36 691.613L477.229 681.291L514.648 619.186L531.779 629.507Z" fill="#FF8266"/>
<path d="M796.213 750.693L794.598 664.106L720.418 708.798L796.213 750.693Z" fill="#FF8266"/>
<path d="M711.524 629.507L748.942 691.613L766.073 681.291L728.655 619.186L711.524 629.507Z" fill="#FF8266"/>
<path d="M1410.73 388.484L1362.81 316.351L1324.3 393.922L1410.73 388.484Z" fill="#FF6F66"/>
<path d="M1255.81 322.743L1339.11 364.093L1348 346.179L1264.7 304.828L1255.81 322.743Z" fill="#FF6F66"/>
<rect x="2773" y="101" width="200" height="200" rx="20" fill="#FF9D66"/>
<path d="M2894.2 267C2891.67 260.2 2888.53 252.667 2884.8 244.4C2881.2 236.133 2877.4 227.867 2873.4 219.6C2869.53 227.467 2865.67 235.667 2861.8 244.2C2857.93 252.6 2854.6 260.2 2851.8 267H2825.2C2826.53 263.4 2828.47 259.067 2831 254C2833.67 248.933 2836.53 243.467 2839.6 237.6C2842.8 231.733 2846.13 225.733 2849.6 219.6C2853.07 213.333 2856.4 207.333 2859.6 201.6L2827.2 143.2H2853.8L2873.4 182.8L2894 143.2H2918.8L2887.2 201C2890.8 206.733 2894.33 212.733 2897.8 219C2901.27 225.267 2904.47 231.4 2907.4 237.4C2910.47 243.267 2913.13 248.8 2915.4 254C2917.67 259.067 2919.47 263.4 2920.8 267H2894.2Z" fill="white"/>
<rect x="2300" y="411" width="200" height="200" rx="20" fill="#FF8266"/>
<path d="M2400.8 509.8C2402.27 506.733 2403.93 502.867 2405.8 498.2C2407.8 493.533 2409.73 488.6 2411.6 483.4C2413.6 478.2 2415.47 472.933 2417.2 467.6C2419.07 462.267 2420.73 457.467 2422.2 453.2H2447.6C2445.07 460 2442.53 466.6 2440 473C2437.47 479.4 2434.8 485.733 2432 492C2429.2 498.267 2426.2 504.533 2423 510.8C2419.8 516.933 2416.33 523.267 2412.6 529.8V577H2387.8V530C2380.47 517.067 2374 504.467 2368.4 492.2C2362.93 479.8 2357.67 466.8 2352.6 453.2H2379C2382.07 462.8 2385.47 472.6 2389.2 482.6C2392.93 492.467 2396.8 501.533 2400.8 509.8Z" fill="white"/>
<rect x="3450" y="773" width="200" height="200" rx="20" fill="#BBBBBB"/>
<path d="M3570 815.2V835.6H3537.4V939H3512.6V835.6H3480V815.2H3570ZM3603.5 892.5C3602.3 894.033 3601.07 895.667 3599.8 897.4C3598.53 899.133 3597.27 900.967 3596 902.9C3594.8 904.767 3593.63 906.667 3592.5 908.6C3591.37 910.533 3590.37 912.433 3589.5 914.3H3603.5V892.5ZM3615.8 877.1V914.3H3622.5V924.4H3615.8V939H3603.5V924.4H3577.7V915.4C3578.97 912.8 3580.6 909.867 3582.6 906.6C3584.6 903.267 3586.8 899.867 3589.2 896.4C3591.6 892.933 3594.13 889.533 3596.8 886.2C3599.47 882.8 3602.13 879.767 3604.8 877.1H3615.8Z" fill="white"/>
<path d="M2556.25 386.484L2604.18 314.351L2642.69 391.922L2556.25 386.484Z" fill="#F841C4"/>
<path d="M2711.18 320.743L2627.88 362.093L2618.99 344.179L2702.29 302.828L2711.18 320.743Z" fill="#F841C4"/>
<path d="M2227.09 750.693L2228.71 664.106L2302.88 708.798L2227.09 750.693Z" fill="#FF8266"/>
<path d="M2311.78 629.507L2274.36 691.613L2257.23 681.291L2294.65 619.186L2311.78 629.507Z" fill="#FF8266"/>
<path d="M2576.21 750.693L2574.6 664.106L2500.42 708.798L2576.21 750.693Z" fill="#F841C4"/>
<path d="M2491.52 629.507L2528.94 691.613L2546.07 681.291L2508.66 619.186L2491.52 629.507Z" fill="#F841C4"/>
<path d="M3145.09 759.693L3146.71 673.106L3220.88 717.798L3145.09 759.693Z" fill="#F841C4"/>
<path d="M3229.78 638.507L3192.36 700.613L3175.23 690.291L3212.65 628.186L3229.78 638.507Z" fill="#F841C4"/>
<path d="M3494.21 759.693L3492.6 673.106L3418.42 717.798L3494.21 759.693Z" fill="#FF6F66"/>
<path d="M3409.52 638.507L3446.94 700.613L3464.07 690.291L3426.66 628.186L3409.52 638.507Z" fill="#FF6F66"/>
<path d="M3190.73 388.484L3142.81 316.351L3104.3 393.922L3190.73 388.484Z" fill="#F841C4"/>
<path d="M3035.81 322.743L3119.11 364.093L3128 346.179L3044.7 304.828L3035.81 322.743Z" fill="#F841C4"/>
<rect x="2989" y="773" width="200" height="200" rx="20" fill="#BBBBBB"/>
<path d="M3109 815.2V835.6H3076.4V939H3051.6V835.6H3019V815.2H3109ZM3135.3 940.3C3133.77 940.3 3132.13 940.167 3130.4 939.9C3128.73 939.7 3127.1 939.433 3125.5 939.1C3123.97 938.767 3122.53 938.4 3121.2 938C3119.87 937.6 3118.83 937.233 3118.1 936.9L3120.5 926.6C3122.03 927.267 3124 927.967 3126.4 928.7C3128.87 929.433 3131.8 929.8 3135.2 929.8C3139.4 929.8 3142.33 928.9 3144 927.1C3145.73 925.3 3146.6 923.067 3146.6 920.4C3146.6 917.133 3145.3 914.867 3142.7 913.6C3140.1 912.267 3136.8 911.6 3132.8 911.6H3129V901.4H3133.6C3134.87 901.4 3136.13 901.267 3137.4 901C3138.67 900.733 3139.8 900.3 3140.8 899.7C3141.8 899.1 3142.6 898.3 3143.2 897.3C3143.87 896.3 3144.2 895.033 3144.2 893.5C3144.2 891.233 3143.5 889.467 3142.1 888.2C3140.77 886.867 3138.9 886.2 3136.5 886.2C3134.17 886.2 3131.83 886.6 3129.5 887.4C3127.23 888.133 3125.27 889.067 3123.6 890.2L3119.2 881.2C3121 880 3123.37 878.8 3126.3 877.6C3129.3 876.333 3132.67 875.7 3136.4 875.7C3139.87 875.7 3142.87 876.133 3145.4 877C3148 877.867 3150.13 879.1 3151.8 880.7C3153.47 882.233 3154.7 884.067 3155.5 886.2C3156.3 888.333 3156.7 890.633 3156.7 893.1C3156.7 895.567 3156 897.933 3154.6 900.2C3153.2 902.467 3151.33 904.2 3149 905.4C3152.2 906.733 3154.67 908.7 3156.4 911.3C3158.2 913.9 3159.1 917 3159.1 920.6C3159.1 923.467 3158.63 926.1 3157.7 928.5C3156.77 930.9 3155.33 933 3153.4 934.8C3151.47 936.533 3149 937.9 3146 938.9C3143 939.833 3139.43 940.3 3135.3 940.3Z" fill="white"/>
<rect x="2518" y="773" width="200" height="200" rx="20" fill="#BBBBBB"/>
<path d="M2638 815.2V835.6H2605.4V939H2580.6V835.6H2548V815.2H2638ZM2686.4 893.4C2686.4 895.533 2686 897.6 2685.2 899.6C2684.4 901.533 2683.33 903.433 2682 905.3C2680.67 907.167 2679.17 908.967 2677.5 910.7C2675.83 912.433 2674.13 914.1 2672.4 915.7C2671.53 916.5 2670.53 917.467 2669.4 918.6C2668.27 919.667 2667.2 920.8 2666.2 922C2665.2 923.133 2664.33 924.3 2663.6 925.5C2662.93 926.7 2662.6 927.8 2662.6 928.8H2689.2V939H2648.8C2648.6 938.333 2648.5 937.5 2648.5 936.5C2648.57 935.5 2648.6 934.8 2648.6 934.4C2648.6 931.067 2649.2 928 2650.4 925.2C2651.67 922.4 2653.23 919.833 2655.1 917.5C2657.03 915.1 2659.07 912.9 2661.2 910.9C2663.4 908.833 2665.43 906.867 2667.3 905C2669.23 903.133 2670.8 901.333 2672 899.6C2673.27 897.867 2673.9 896.1 2673.9 894.3C2673.9 891.767 2673.13 889.833 2671.6 888.5C2670.07 887.1 2668.13 886.4 2665.8 886.4C2663.87 886.4 2661.83 886.867 2659.7 887.8C2657.57 888.733 2655.47 890.3 2653.4 892.5L2647.3 883.9C2649.97 881.1 2653.03 879.033 2656.5 877.7C2660.03 876.367 2663.53 875.7 2667 875.7C2669.53 875.7 2671.97 876.067 2674.3 876.8C2676.63 877.533 2678.7 878.633 2680.5 880.1C2682.3 881.567 2683.73 883.433 2684.8 885.7C2685.87 887.9 2686.4 890.467 2686.4 893.4Z" fill="white"/>
<rect x="2082" y="773" width="200" height="200" rx="20" fill="#BBBBBB"/>
<path d="M2202 815.2V835.6H2169.4V939H2144.6V835.6H2112V815.2H2202ZM2228.3 928.8V894.2C2226.43 895.533 2224.3 896.733 2221.9 897.8C2219.5 898.8 2217.47 899.6 2215.8 900.2L2211.8 890C2213.4 889.4 2215.13 888.633 2217 887.7C2218.87 886.767 2220.73 885.733 2222.6 884.6C2224.47 883.467 2226.23 882.267 2227.9 881C2229.57 879.733 2231 878.433 2232.2 877.1H2240.6V928.8H2252.9V939H2215.3V928.8H2228.3Z" fill="white"/>
<rect x="3220" y="427" width="200" height="200" rx="20" fill="#FF6F66"/>
<path d="M3359 486.4C3353.27 495.2 3348 503.467 3343.2 511.2C3338.4 518.933 3333.93 526.333 3329.8 533.4C3325.67 540.333 3321.73 547.067 3318 553.6C3314.4 560 3310.93 566.333 3307.6 572.6H3360.8V593H3279.2V578.8C3282.13 573.067 3285.27 567.067 3288.6 560.8C3291.93 554.4 3295.67 547.6 3299.8 540.4C3303.93 533.2 3308.4 525.4 3313.2 517C3318.13 508.6 3323.53 499.467 3329.4 489.6H3281.8V469.2H3359V486.4Z" fill="white"/>
<rect x="768" y="773" width="200" height="200" rx="20" fill="#FF9D66"/>
<path d="M889.2 939C886.667 932.2 883.533 924.667 879.8 916.4C876.2 908.133 872.4 899.867 868.4 891.6C864.533 899.467 860.667 907.667 856.8 916.2C852.933 924.6 849.6 932.2 846.8 939H820.2C821.533 935.4 823.467 931.067 826 926C828.667 920.933 831.533 915.467 834.6 909.6C837.8 903.733 841.133 897.733 844.6 891.6C848.067 885.333 851.4 879.333 854.6 873.6L822.2 815.2H848.8L868.4 854.8L889 815.2H913.8L882.2 873C885.8 878.733 889.333 884.733 892.8 891C896.267 897.267 899.467 903.4 902.4 909.4C905.467 915.267 908.133 920.8 910.4 926C912.667 931.067 914.467 935.4 915.8 939H889.2Z" fill="white"/>
<rect x="917" y="1148" width="200" height="200" rx="20" fill="#BBBBBB"/>
<path d="M1037 1190.2V1210.6H1004.4V1314H979.6V1210.6H947V1190.2H1037ZM1063.3 1315.3C1061.77 1315.3 1060.13 1315.17 1058.4 1314.9C1056.73 1314.7 1055.1 1314.43 1053.5 1314.1C1051.97 1313.77 1050.53 1313.4 1049.2 1313C1047.87 1312.6 1046.83 1312.23 1046.1 1311.9L1048.5 1301.6C1050.03 1302.27 1052 1302.97 1054.4 1303.7C1056.87 1304.43 1059.8 1304.8 1063.2 1304.8C1067.4 1304.8 1070.33 1303.9 1072 1302.1C1073.73 1300.3 1074.6 1298.07 1074.6 1295.4C1074.6 1292.13 1073.3 1289.87 1070.7 1288.6C1068.1 1287.27 1064.8 1286.6 1060.8 1286.6H1057V1276.4H1061.6C1062.87 1276.4 1064.13 1276.27 1065.4 1276C1066.67 1275.73 1067.8 1275.3 1068.8 1274.7C1069.8 1274.1 1070.6 1273.3 1071.2 1272.3C1071.87 1271.3 1072.2 1270.03 1072.2 1268.5C1072.2 1266.23 1071.5 1264.47 1070.1 1263.2C1068.77 1261.87 1066.9 1261.2 1064.5 1261.2C1062.17 1261.2 1059.83 1261.6 1057.5 1262.4C1055.23 1263.13 1053.27 1264.07 1051.6 1265.2L1047.2 1256.2C1049 1255 1051.37 1253.8 1054.3 1252.6C1057.3 1251.33 1060.67 1250.7 1064.4 1250.7C1067.87 1250.7 1070.87 1251.13 1073.4 1252C1076 1252.87 1078.13 1254.1 1079.8 1255.7C1081.47 1257.23 1082.7 1259.07 1083.5 1261.2C1084.3 1263.33 1084.7 1265.63 1084.7 1268.1C1084.7 1270.57 1084 1272.93 1082.6 1275.2C1081.2 1277.47 1079.33 1279.2 1077 1280.4C1080.2 1281.73 1082.67 1283.7 1084.4 1286.3C1086.2 1288.9 1087.1 1292 1087.1 1295.6C1087.1 1298.47 1086.63 1301.1 1085.7 1303.5C1084.77 1305.9 1083.33 1308 1081.4 1309.8C1079.47 1311.53 1077 1312.9 1074 1313.9C1071 1314.83 1067.43 1315.3 1063.3 1315.3Z" fill="white"/>
<rect x="643" y="1148" width="200" height="200" rx="20" fill="#BBBBBB"/>
<path d="M763 1190.2V1210.6H730.4V1314H705.6V1210.6H673V1190.2H763ZM811.4 1268.4C811.4 1270.53 811 1272.6 810.2 1274.6C809.4 1276.53 808.333 1278.43 807 1280.3C805.667 1282.17 804.167 1283.97 802.5 1285.7C800.833 1287.43 799.133 1289.1 797.4 1290.7C796.533 1291.5 795.533 1292.47 794.4 1293.6C793.267 1294.67 792.2 1295.8 791.2 1297C790.2 1298.13 789.333 1299.3 788.6 1300.5C787.933 1301.7 787.6 1302.8 787.6 1303.8H814.2V1314H773.8C773.6 1313.33 773.5 1312.5 773.5 1311.5C773.567 1310.5 773.6 1309.8 773.6 1309.4C773.6 1306.07 774.2 1303 775.4 1300.2C776.667 1297.4 778.233 1294.83 780.1 1292.5C782.033 1290.1 784.067 1287.9 786.2 1285.9C788.4 1283.83 790.433 1281.87 792.3 1280C794.233 1278.13 795.8 1276.33 797 1274.6C798.267 1272.87 798.9 1271.1 798.9 1269.3C798.9 1266.77 798.133 1264.83 796.6 1263.5C795.067 1262.1 793.133 1261.4 790.8 1261.4C788.867 1261.4 786.833 1261.87 784.7 1262.8C782.567 1263.73 780.467 1265.3 778.4 1267.5L772.3 1258.9C774.967 1256.1 778.033 1254.03 781.5 1252.7C785.033 1251.37 788.533 1250.7 792 1250.7C794.533 1250.7 796.967 1251.07 799.3 1251.8C801.633 1252.53 803.7 1253.63 805.5 1255.1C807.3 1256.57 808.733 1258.43 809.8 1260.7C810.867 1262.9 811.4 1265.47 811.4 1268.4Z" fill="white"/>
<path d="M952.969 1134.72L889.433 1075.87L972.165 1050.27L952.969 1134.72Z" fill="#FF9D66"/>
<path d="M918.919 990.844L940.352 1060.11L921.246 1066.02L899.813 996.756L918.919 990.844Z" fill="#FF9D66"/>
<path d="M783.367 1134.72L846.903 1075.87L764.171 1050.27L783.367 1134.72Z" fill="#FF9D66"/>
<path d="M817.417 990.844L795.984 1060.11L815.09 1066.02L836.523 996.756L817.417 990.844Z" fill="#FF9D66"/>
</svg>
