<svg width="1929" height="1065" viewBox="0 0 1929 1065" fill="none" xmlns="http://www.w3.org/2000/svg">
<rect x="864" y="101" width="200" height="200" rx="20" fill="#FF6F66"/>
<path d="M978.2 230.6C978.2 227.133 977.6 224 976.4 221.2C975.333 218.267 973.067 215.8 969.6 213.8C966.267 211.667 961.467 210.067 955.2 209C948.933 207.8 940.733 207.2 930.6 207.2C931.933 196 933 185.067 933.8 174.4C934.6 163.6 935.2 153.2 935.6 143.2H998.8V163.6H956.2C955.933 167.867 955.6 172.333 955.2 177C954.8 181.667 954.467 185.467 954.2 188.4C970.733 189.467 983.067 193.467 991.2 200.4C999.333 207.333 1003.4 217.067 1003.4 229.6C1003.4 235.333 1002.4 240.667 1000.4 245.6C998.4 250.4 995.333 254.6 991.2 258.2C987.067 261.8 981.933 264.6 975.8 266.6C969.667 268.6 962.533 269.6 954.4 269.6C951.2 269.6 947.933 269.4 944.6 269C941.267 268.6 938.067 268.067 935 267.4C931.933 266.867 929.133 266.2 926.6 265.4C924.2 264.6 922.333 263.867 921 263.2L926 242.8C928.933 244.267 932.667 245.6 937.2 246.8C941.733 248 947.4 248.6 954.2 248.6C959 248.6 962.933 248.067 966 247C969.2 245.933 971.667 244.6 973.4 243C975.267 241.267 976.533 239.333 977.2 237.2C977.867 235.067 978.2 232.867 978.2 230.6Z" fill="white"/>
<rect x="391" y="411" width="200" height="200" rx="20" fill="#FF8266"/>
<path d="M483.6 579.6C480.533 579.6 477.267 579.333 473.8 578.8C470.467 578.4 467.2 577.867 464 577.2C460.933 576.533 458.067 575.8 455.4 575C452.733 574.2 450.667 573.467 449.2 572.8L454 552.2C457.067 553.533 461 554.933 465.8 556.4C470.733 557.867 476.6 558.6 483.4 558.6C491.8 558.6 497.667 556.8 501 553.2C504.467 549.6 506.2 545.133 506.2 539.8C506.2 533.267 503.6 528.733 498.4 526.2C493.2 523.533 486.6 522.2 478.6 522.2H471V501.8H480.2C482.733 501.8 485.267 501.533 487.8 501C490.333 500.467 492.6 499.6 494.6 498.4C496.6 497.2 498.2 495.6 499.4 493.6C500.733 491.6 501.4 489.067 501.4 486C501.4 481.467 500 477.933 497.2 475.4C494.533 472.733 490.8 471.4 486 471.4C481.333 471.4 476.667 472.2 472 473.8C467.467 475.267 463.533 477.133 460.2 479.4L451.4 461.4C455 459 459.733 456.6 465.6 454.2C471.6 451.667 478.333 450.4 485.8 450.4C492.733 450.4 498.733 451.267 503.8 453C509 454.733 513.267 457.2 516.6 460.4C519.933 463.467 522.4 467.133 524 471.4C525.6 475.667 526.4 480.267 526.4 485.2C526.4 490.133 525 494.867 522.2 499.4C519.4 503.933 515.667 507.4 511 509.8C517.4 512.467 522.333 516.4 525.8 521.6C529.4 526.8 531.2 533 531.2 540.2C531.2 545.933 530.267 551.2 528.4 556C526.533 560.8 523.667 565 519.8 568.6C515.933 572.067 511 574.8 505 576.8C499 578.667 491.867 579.6 483.6 579.6Z" fill="white"/>
<rect x="155" y="765" width="200" height="200" rx="20" fill="#FF9D66"/>
<path d="M247.6 910.6V841.4C243.867 844.067 239.6 846.467 234.8 848.6C230 850.6 225.933 852.2 222.6 853.4L214.6 833C217.8 831.8 221.267 830.267 225 828.4C228.733 826.533 232.467 824.467 236.2 822.2C239.933 819.933 243.467 817.533 246.8 815C250.133 812.467 253 809.867 255.4 807.2H272.2V910.6H296.8V931H221.6V910.6H247.6Z" fill="white"/>
<rect x="1337" y="411" width="200" height="200" rx="20" fill="#FF8266"/>
<path d="M1476.2 482.6C1476.2 488.333 1474.8 494 1472 499.6C1469.2 505.067 1464.8 509.667 1458.8 513.4C1466.4 517.8 1471.73 522.6 1474.8 527.8C1478 533 1479.6 538.733 1479.6 545C1479.6 549 1478.8 553.067 1477.2 557.2C1475.73 561.333 1473.27 565.067 1469.8 568.4C1466.47 571.6 1462.07 574.267 1456.6 576.4C1451.13 578.533 1444.4 579.6 1436.4 579.6C1430.13 579.6 1424.4 578.8 1419.2 577.2C1414.13 575.733 1409.73 573.6 1406 570.8C1402.4 567.867 1399.6 564.333 1397.6 560.2C1395.6 555.933 1394.6 551.2 1394.6 546C1394.6 539.733 1396.07 533.867 1399 528.4C1401.93 522.8 1406.53 517.867 1412.8 513.6C1406.93 509.6 1402.93 505.333 1400.8 500.8C1398.67 496.267 1397.6 491.467 1397.6 486.4C1397.6 482.4 1398.27 478.267 1399.6 474C1401.07 469.6 1403.33 465.667 1406.4 462.2C1409.47 458.733 1413.53 455.867 1418.6 453.6C1423.67 451.333 1429.93 450.2 1437.4 450.2C1449.27 450.2 1458.67 453.133 1465.6 459C1472.67 464.867 1476.2 472.733 1476.2 482.6ZM1456.4 544.6C1456.4 541.933 1455.87 539.6 1454.8 537.6C1453.87 535.6 1452.27 533.8 1450 532.2C1447.87 530.467 1445.07 528.8 1441.6 527.2C1438.13 525.467 1434 523.667 1429.2 521.8C1425.47 524.867 1422.6 528.333 1420.6 532.2C1418.6 535.933 1417.6 539.533 1417.6 543C1417.6 548.333 1419.47 552.4 1423.2 555.2C1427.07 557.867 1431.6 559.2 1436.8 559.2C1442.8 559.2 1447.53 557.8 1451 555C1454.6 552.067 1456.4 548.6 1456.4 544.6ZM1437 470.6C1432.73 470.6 1428.93 471.8 1425.6 474.2C1422.4 476.6 1420.8 480.133 1420.8 484.8C1420.8 489.467 1422.33 493.267 1425.4 496.2C1428.47 499.133 1433.87 502.2 1441.6 505.4C1445.73 502.333 1448.67 499 1450.4 495.4C1452.13 491.667 1453 488.067 1453 484.6C1453 479.933 1451.4 476.467 1448.2 474.2C1445.13 471.8 1441.4 470.6 1437 470.6Z" fill="white"/>
<rect x="1101" y="765" width="200" height="200" rx="20" fill="#FF9D66"/>
<path d="M1199.2 872.2C1196.67 872.2 1194.07 872.467 1191.4 873C1188.73 873.533 1186.53 874.267 1184.8 875.2C1184.67 876.4 1184.53 877.6 1184.4 878.8C1184.4 880 1184.4 881.267 1184.4 882.6C1184.4 886.467 1184.67 890.2 1185.2 893.8C1185.73 897.267 1186.67 900.4 1188 903.2C1189.33 906 1191.13 908.267 1193.4 910C1195.8 911.6 1198.73 912.4 1202.2 912.4C1205 912.4 1207.4 911.733 1209.4 910.4C1211.4 909.067 1213 907.4 1214.2 905.4C1215.53 903.4 1216.47 901.2 1217 898.8C1217.67 896.4 1218 894.067 1218 891.8C1218 885.533 1216.6 880.733 1213.8 877.4C1211 873.933 1206.13 872.2 1199.2 872.2ZM1202.4 851.8C1209.6 851.8 1215.67 852.867 1220.6 855C1225.67 857.133 1229.8 860 1233 863.6C1236.2 867.2 1238.47 871.4 1239.8 876.2C1241.27 881 1242 886.067 1242 891.4C1242 896.2 1241.2 901.067 1239.6 906C1238.13 910.933 1235.8 915.467 1232.6 919.6C1229.4 923.733 1225.33 927.133 1220.4 929.8C1215.47 932.333 1209.6 933.6 1202.8 933.6C1188.93 933.6 1178.33 929.333 1171 920.8C1163.8 912.133 1160.2 898.667 1160.2 880.4C1160.2 868.4 1161.93 857.8 1165.4 848.6C1169 839.4 1174.07 831.667 1180.6 825.4C1187.13 819.133 1195 814.4 1204.2 811.2C1213.4 808 1223.6 806.4 1234.8 806.4L1236.2 827.4C1230.87 827.533 1225.67 828.067 1220.6 829C1215.53 829.933 1210.87 831.533 1206.6 833.8C1202.33 835.933 1198.6 838.733 1195.4 842.2C1192.33 845.667 1190.07 850 1188.6 855.2C1191.13 854.133 1193.6 853.333 1196 852.8C1198.4 852.133 1200.53 851.8 1202.4 851.8Z" fill="white"/>
<rect x="1574" y="765" width="200" height="200" rx="20" fill="#FF9D66"/>
<path d="M1676.2 865.2C1678.73 865.2 1681.4 864.933 1684.2 864.4C1687 863.867 1689.27 863.133 1691 862.2C1691.13 861.133 1691.2 859.867 1691.2 858.4C1691.33 856.8 1691.4 855.267 1691.4 853.8C1691.4 850.467 1691.07 847.133 1690.4 843.8C1689.87 840.333 1688.87 837.2 1687.4 834.4C1686.07 831.6 1684.2 829.333 1681.8 827.6C1679.53 825.867 1676.67 825 1673.2 825C1670.27 825 1667.73 825.6 1665.6 826.8C1663.6 827.867 1661.93 829.333 1660.6 831.2C1659.4 833.067 1658.47 835.267 1657.8 837.8C1657.27 840.333 1657 843 1657 845.8C1657 852.067 1658.47 856.867 1661.4 860.2C1664.33 863.533 1669.27 865.2 1676.2 865.2ZM1673 885.6C1665.8 885.6 1659.67 884.6 1654.6 882.6C1649.53 880.467 1645.4 877.6 1642.2 874C1639 870.4 1636.67 866.267 1635.2 861.6C1633.73 856.8 1633 851.667 1633 846.2C1633 841.4 1633.8 836.533 1635.4 831.6C1637.13 826.533 1639.6 822 1642.8 818C1646.13 813.867 1650.27 810.533 1655.2 808C1660.13 805.333 1665.93 804 1672.6 804C1686.47 804 1697.07 808.667 1704.4 818C1711.73 827.333 1715.4 840.333 1715.4 857C1715.4 869 1713.67 879.667 1710.2 889C1706.73 898.2 1701.73 905.933 1695.2 912.2C1688.8 918.467 1681 923.267 1671.8 926.6C1662.73 929.8 1652.6 931.4 1641.4 931.4L1640.6 910.2C1651.27 910.067 1660.8 907.8 1669.2 903.4C1677.6 898.867 1683.53 891.8 1687 882.2C1681.8 884.467 1677.13 885.6 1673 885.6Z" fill="white"/>
<path d="M647.253 386.484L695.178 314.351L733.685 391.922L647.253 386.484Z" fill="#FF6F66"/>
<path d="M802.179 320.743L718.878 362.093L709.985 344.179L793.287 302.828L802.179 320.743Z" fill="#FF6F66"/>
<path d="M318.09 750.693L319.705 664.106L393.884 708.798L318.09 750.693Z" fill="#FF8266"/>
<path d="M402.778 629.507L365.36 691.613L348.229 681.291L385.647 619.186L402.778 629.507Z" fill="#FF8266"/>
<path d="M1262.09 750.693L1263.7 664.106L1337.88 708.798L1262.09 750.693Z" fill="#FF8266"/>
<path d="M1346.78 629.507L1309.36 691.613L1292.23 681.291L1329.65 619.186L1346.78 629.507Z" fill="#FF8266"/>
<path d="M1613.21 750.693L1611.6 664.106L1537.42 708.798L1613.21 750.693Z" fill="#FF8266"/>
<path d="M1528.52 629.507L1565.94 691.613L1583.07 681.291L1545.66 619.186L1528.52 629.507Z" fill="#FF8266"/>
<path d="M1281.73 388.484L1233.81 316.351L1195.3 393.922L1281.73 388.484Z" fill="#FF6F66"/>
<path d="M1126.81 322.743L1210.11 364.093L1219 346.179L1135.7 304.828L1126.81 322.743Z" fill="#FF6F66"/>
<circle cx="1064" cy="201" r="50" fill="#FF6F66"/>
<path d="M1061.04 228.04C1059.81 228.04 1058.51 227.933 1057.12 227.72C1055.79 227.56 1054.48 227.347 1053.2 227.08C1051.97 226.813 1050.83 226.52 1049.76 226.2C1048.69 225.88 1047.87 225.587 1047.28 225.32L1049.2 217.08C1050.43 217.613 1052 218.173 1053.92 218.76C1055.89 219.347 1058.24 219.64 1060.96 219.64C1064.32 219.64 1066.67 218.92 1068 217.48C1069.39 216.04 1070.08 214.253 1070.08 212.12C1070.08 209.507 1069.04 207.693 1066.96 206.68C1064.88 205.613 1062.24 205.08 1059.04 205.08H1056V196.92H1059.68C1060.69 196.92 1061.71 196.813 1062.72 196.6C1063.73 196.387 1064.64 196.04 1065.44 195.56C1066.24 195.08 1066.88 194.44 1067.36 193.64C1067.89 192.84 1068.16 191.827 1068.16 190.6C1068.16 188.787 1067.6 187.373 1066.48 186.36C1065.41 185.293 1063.92 184.76 1062 184.76C1060.13 184.76 1058.27 185.08 1056.4 185.72C1054.59 186.307 1053.01 187.053 1051.68 187.96L1048.16 180.76C1049.6 179.8 1051.49 178.84 1053.84 177.88C1056.24 176.867 1058.93 176.36 1061.92 176.36C1064.69 176.36 1067.09 176.707 1069.12 177.4C1071.2 178.093 1072.91 179.08 1074.24 180.36C1075.57 181.587 1076.56 183.053 1077.2 184.76C1077.84 186.467 1078.16 188.307 1078.16 190.28C1078.16 192.253 1077.6 194.147 1076.48 195.96C1075.36 197.773 1073.87 199.16 1072 200.12C1074.56 201.187 1076.53 202.76 1077.92 204.84C1079.36 206.92 1080.08 209.4 1080.08 212.28C1080.08 214.573 1079.71 216.68 1078.96 218.6C1078.21 220.52 1077.07 222.2 1075.52 223.64C1073.97 225.027 1072 226.12 1069.6 226.92C1067.2 227.667 1064.35 228.04 1061.04 228.04Z" fill="white"/>
<circle cx="591" cy="511" r="50" fill="#FF8266"/>
<path d="M605.72 500.52C605.72 502.227 605.4 503.88 604.76 505.48C604.12 507.027 603.267 508.547 602.2 510.04C601.133 511.533 599.933 512.973 598.6 514.36C597.267 515.747 595.907 517.08 594.52 518.36C593.827 519 593.027 519.773 592.12 520.68C591.213 521.533 590.36 522.44 589.56 523.4C588.76 524.307 588.067 525.24 587.48 526.2C586.947 527.16 586.68 528.04 586.68 528.84H607.96V537H575.64C575.48 536.467 575.4 535.8 575.4 535C575.453 534.2 575.48 533.64 575.48 533.32C575.48 530.653 575.96 528.2 576.92 525.96C577.933 523.72 579.187 521.667 580.68 519.8C582.227 517.88 583.853 516.12 585.56 514.52C587.32 512.867 588.947 511.293 590.44 509.8C591.987 508.307 593.24 506.867 594.2 505.48C595.213 504.093 595.72 502.68 595.72 501.24C595.72 499.213 595.107 497.667 593.88 496.6C592.653 495.48 591.107 494.92 589.24 494.92C587.693 494.92 586.067 495.293 584.36 496.04C582.653 496.787 580.973 498.04 579.32 499.8L574.44 492.92C576.573 490.68 579.027 489.027 581.8 487.96C584.627 486.893 587.427 486.36 590.2 486.36C592.227 486.36 594.173 486.653 596.04 487.24C597.907 487.827 599.56 488.707 601 489.88C602.44 491.053 603.587 492.547 604.44 494.36C605.293 496.12 605.72 498.173 605.72 500.52Z" fill="white"/>
<circle cx="356" cy="865" r="50" fill="#FF9D66"/>
<path d="M353.04 882.84V855.16C351.547 856.227 349.84 857.187 347.92 858.04C346 858.84 344.373 859.48 343.04 859.96L339.84 851.8C341.12 851.32 342.507 850.707 344 849.96C345.493 849.213 346.987 848.387 348.48 847.48C349.973 846.573 351.387 845.613 352.72 844.6C354.053 843.587 355.2 842.547 356.16 841.48H362.88V882.84H372.72V891H342.64V882.84H353.04Z" fill="white"/>
<circle cx="1300" cy="865" r="50" fill="#FF9D66"/>
<path d="M1297.04 882.84V855.16C1295.55 856.227 1293.84 857.187 1291.92 858.04C1290 858.84 1288.37 859.48 1287.04 859.96L1283.84 851.8C1285.12 851.32 1286.51 850.707 1288 849.96C1289.49 849.213 1290.99 848.387 1292.48 847.48C1293.97 846.573 1295.39 845.613 1296.72 844.6C1298.05 843.587 1299.2 842.547 1300.16 841.48H1306.88V882.84H1316.72V891H1286.64V882.84H1297.04Z" fill="white"/>
<circle cx="1537" cy="511" r="50" fill="#FF8266"/>
<path d="M1551.72 500.52C1551.72 502.227 1551.4 503.88 1550.76 505.48C1550.12 507.027 1549.27 508.547 1548.2 510.04C1547.13 511.533 1545.93 512.973 1544.6 514.36C1543.27 515.747 1541.91 517.08 1540.52 518.36C1539.83 519 1539.03 519.773 1538.12 520.68C1537.21 521.533 1536.36 522.44 1535.56 523.4C1534.76 524.307 1534.07 525.24 1533.48 526.2C1532.95 527.16 1532.68 528.04 1532.68 528.84H1553.96V537H1521.64C1521.48 536.467 1521.4 535.8 1521.4 535C1521.45 534.2 1521.48 533.64 1521.48 533.32C1521.48 530.653 1521.96 528.2 1522.92 525.96C1523.93 523.72 1525.19 521.667 1526.68 519.8C1528.23 517.88 1529.85 516.12 1531.56 514.52C1533.32 512.867 1534.95 511.293 1536.44 509.8C1537.99 508.307 1539.24 506.867 1540.2 505.48C1541.21 504.093 1541.72 502.68 1541.72 501.24C1541.72 499.213 1541.11 497.667 1539.88 496.6C1538.65 495.48 1537.11 494.92 1535.24 494.92C1533.69 494.92 1532.07 495.293 1530.36 496.04C1528.65 496.787 1526.97 498.04 1525.32 499.8L1520.44 492.92C1522.57 490.68 1525.03 489.027 1527.8 487.96C1530.63 486.893 1533.43 486.36 1536.2 486.36C1538.23 486.36 1540.17 486.653 1542.04 487.24C1543.91 487.827 1545.56 488.707 1547 489.88C1548.44 491.053 1549.59 492.547 1550.44 494.36C1551.29 496.12 1551.72 498.173 1551.72 500.52Z" fill="white"/>
<circle cx="1774" cy="865" r="50" fill="#FF9D66"/>
<path d="M1771.04 882.84V855.16C1769.55 856.227 1767.84 857.187 1765.92 858.04C1764 858.84 1762.37 859.48 1761.04 859.96L1757.84 851.8C1759.12 851.32 1760.51 850.707 1762 849.96C1763.49 849.213 1764.99 848.387 1766.48 847.48C1767.97 846.573 1769.39 845.613 1770.72 844.6C1772.05 843.587 1773.2 842.547 1774.16 841.48H1780.88V882.84H1790.72V891H1760.64V882.84H1771.04Z" fill="white"/>
</svg>
