<svg width="2705" height="2903" viewBox="0 0 2705 2903" fill="none" xmlns="http://www.w3.org/2000/svg">
<rect x="864" y="101" width="200" height="200" rx="20" fill="#FF6F66"/>
<path d="M978.2 230.6C978.2 227.133 977.6 224 976.4 221.2C975.333 218.267 973.067 215.8 969.6 213.8C966.267 211.667 961.467 210.067 955.2 209C948.933 207.8 940.733 207.2 930.6 207.2C931.933 196 933 185.067 933.8 174.4C934.6 163.6 935.2 153.2 935.6 143.2H998.8V163.6H956.2C955.933 167.867 955.6 172.333 955.2 177C954.8 181.667 954.467 185.467 954.2 188.4C970.733 189.467 983.067 193.467 991.2 200.4C999.333 207.333 1003.4 217.067 1003.4 229.6C1003.4 235.333 1002.4 240.667 1000.4 245.6C998.4 250.4 995.333 254.6 991.2 258.2C987.067 261.8 981.933 264.6 975.8 266.6C969.667 268.6 962.533 269.6 954.4 269.6C951.2 269.6 947.933 269.4 944.6 269C941.267 268.6 938.067 268.067 935 267.4C931.933 266.867 929.133 266.2 926.6 265.4C924.2 264.6 922.333 263.867 921 263.2L926 242.8C928.933 244.267 932.667 245.6 937.2 246.8C941.733 248 947.4 248.6 954.2 248.6C959 248.6 962.933 248.067 966 247C969.2 245.933 971.667 244.6 973.4 243C975.267 241.267 976.533 239.333 977.2 237.2C977.867 235.067 978.2 232.867 978.2 230.6Z" fill="white"/>
<rect x="391" y="411" width="200" height="200" rx="20" fill="#FF8266"/>
<path d="M483.6 579.6C480.533 579.6 477.267 579.333 473.8 578.8C470.467 578.4 467.2 577.867 464 577.2C460.933 576.533 458.067 575.8 455.4 575C452.733 574.2 450.667 573.467 449.2 572.8L454 552.2C457.067 553.533 461 554.933 465.8 556.4C470.733 557.867 476.6 558.6 483.4 558.6C491.8 558.6 497.667 556.8 501 553.2C504.467 549.6 506.2 545.133 506.2 539.8C506.2 533.267 503.6 528.733 498.4 526.2C493.2 523.533 486.6 522.2 478.6 522.2H471V501.8H480.2C482.733 501.8 485.267 501.533 487.8 501C490.333 500.467 492.6 499.6 494.6 498.4C496.6 497.2 498.2 495.6 499.4 493.6C500.733 491.6 501.4 489.067 501.4 486C501.4 481.467 500 477.933 497.2 475.4C494.533 472.733 490.8 471.4 486 471.4C481.333 471.4 476.667 472.2 472 473.8C467.467 475.267 463.533 477.133 460.2 479.4L451.4 461.4C455 459 459.733 456.6 465.6 454.2C471.6 451.667 478.333 450.4 485.8 450.4C492.733 450.4 498.733 451.267 503.8 453C509 454.733 513.267 457.2 516.6 460.4C519.933 463.467 522.4 467.133 524 471.4C525.6 475.667 526.4 480.267 526.4 485.2C526.4 490.133 525 494.867 522.2 499.4C519.4 503.933 515.667 507.4 511 509.8C517.4 512.467 522.333 516.4 525.8 521.6C529.4 526.8 531.2 533 531.2 540.2C531.2 545.933 530.267 551.2 528.4 556C526.533 560.8 523.667 565 519.8 568.6C515.933 572.067 511 574.8 505 576.8C499 578.667 491.867 579.6 483.6 579.6Z" fill="white"/>
<rect x="155" y="765" width="200" height="200" rx="20" fill="#FF9D66"/>
<path d="M247.6 910.6V841.4C243.867 844.067 239.6 846.467 234.8 848.6C230 850.6 225.933 852.2 222.6 853.4L214.6 833C217.8 831.8 221.267 830.267 225 828.4C228.733 826.533 232.467 824.467 236.2 822.2C239.933 819.933 243.467 817.533 246.8 815C250.133 812.467 253 809.867 255.4 807.2H272.2V910.6H296.8V931H221.6V910.6H247.6Z" fill="white"/>
<rect x="1337" y="411" width="200" height="200" rx="20" fill="#FF8266"/>
<path d="M1476.2 482.6C1476.2 488.333 1474.8 494 1472 499.6C1469.2 505.067 1464.8 509.667 1458.8 513.4C1466.4 517.8 1471.73 522.6 1474.8 527.8C1478 533 1479.6 538.733 1479.6 545C1479.6 549 1478.8 553.067 1477.2 557.2C1475.73 561.333 1473.27 565.067 1469.8 568.4C1466.47 571.6 1462.07 574.267 1456.6 576.4C1451.13 578.533 1444.4 579.6 1436.4 579.6C1430.13 579.6 1424.4 578.8 1419.2 577.2C1414.13 575.733 1409.73 573.6 1406 570.8C1402.4 567.867 1399.6 564.333 1397.6 560.2C1395.6 555.933 1394.6 551.2 1394.6 546C1394.6 539.733 1396.07 533.867 1399 528.4C1401.93 522.8 1406.53 517.867 1412.8 513.6C1406.93 509.6 1402.93 505.333 1400.8 500.8C1398.67 496.267 1397.6 491.467 1397.6 486.4C1397.6 482.4 1398.27 478.267 1399.6 474C1401.07 469.6 1403.33 465.667 1406.4 462.2C1409.47 458.733 1413.53 455.867 1418.6 453.6C1423.67 451.333 1429.93 450.2 1437.4 450.2C1449.27 450.2 1458.67 453.133 1465.6 459C1472.67 464.867 1476.2 472.733 1476.2 482.6ZM1456.4 544.6C1456.4 541.933 1455.87 539.6 1454.8 537.6C1453.87 535.6 1452.27 533.8 1450 532.2C1447.87 530.467 1445.07 528.8 1441.6 527.2C1438.13 525.467 1434 523.667 1429.2 521.8C1425.47 524.867 1422.6 528.333 1420.6 532.2C1418.6 535.933 1417.6 539.533 1417.6 543C1417.6 548.333 1419.47 552.4 1423.2 555.2C1427.07 557.867 1431.6 559.2 1436.8 559.2C1442.8 559.2 1447.53 557.8 1451 555C1454.6 552.067 1456.4 548.6 1456.4 544.6ZM1437 470.6C1432.73 470.6 1428.93 471.8 1425.6 474.2C1422.4 476.6 1420.8 480.133 1420.8 484.8C1420.8 489.467 1422.33 493.267 1425.4 496.2C1428.47 499.133 1433.87 502.2 1441.6 505.4C1445.73 502.333 1448.67 499 1450.4 495.4C1452.13 491.667 1453 488.067 1453 484.6C1453 479.933 1451.4 476.467 1448.2 474.2C1445.13 471.8 1441.4 470.6 1437 470.6Z" fill="white"/>
<rect x="615" y="765" width="200" height="200" rx="20" fill="#FF9D66"/>
<path d="M722 838C719.6 841.067 717.133 844.333 714.6 847.8C712.067 851.267 709.533 854.933 707 858.8C704.6 862.533 702.267 866.333 700 870.2C697.733 874.067 695.733 877.867 694 881.6H722V838ZM746.6 807.2V881.6H760V901.8H746.6V931H722V901.8H670.4V883.8C672.933 878.6 676.2 872.733 680.2 866.2C684.2 859.533 688.6 852.733 693.4 845.8C698.2 838.867 703.267 832.067 708.6 825.4C713.933 818.6 719.267 812.533 724.6 807.2H746.6Z" fill="white"/>
<path d="M647.253 386.484L695.178 314.351L733.685 391.922L647.253 386.484Z" fill="#FF6F66"/>
<path d="M802.179 320.743L718.878 362.094L709.985 344.179L793.287 302.829L802.179 320.743Z" fill="#FF6F66"/>
<path d="M318.09 750.693L319.705 664.106L393.884 708.798L318.09 750.693Z" fill="#FF8266"/>
<path d="M402.778 629.507L365.36 691.613L348.229 681.291L385.647 619.186L402.778 629.507Z" fill="#FF8266"/>
<path d="M664.213 750.693L662.598 664.106L588.418 708.798L664.213 750.693Z" fill="#FF8266"/>
<path d="M579.524 629.507L616.942 691.613L634.073 681.291L596.655 619.186L579.524 629.507Z" fill="#FF8266"/>
<path d="M1281.73 388.484L1233.81 316.351L1195.3 393.922L1281.73 388.484Z" fill="#FF6F66"/>
<path d="M1126.81 322.743L1210.11 364.094L1219 346.179L1135.7 304.829L1126.81 322.743Z" fill="#FF6F66"/>
<circle cx="1064" cy="201" r="50" fill="#FF6F66"/>
<path d="M1061.04 228.04C1059.81 228.04 1058.51 227.933 1057.12 227.72C1055.79 227.56 1054.48 227.347 1053.2 227.08C1051.97 226.813 1050.83 226.52 1049.76 226.2C1048.69 225.88 1047.87 225.587 1047.28 225.32L1049.2 217.08C1050.43 217.613 1052 218.173 1053.92 218.76C1055.89 219.347 1058.24 219.64 1060.96 219.64C1064.32 219.64 1066.67 218.92 1068 217.48C1069.39 216.04 1070.08 214.253 1070.08 212.12C1070.08 209.507 1069.04 207.693 1066.96 206.68C1064.88 205.613 1062.24 205.08 1059.04 205.08H1056V196.92H1059.68C1060.69 196.92 1061.71 196.813 1062.72 196.6C1063.73 196.387 1064.64 196.04 1065.44 195.56C1066.24 195.08 1066.88 194.44 1067.36 193.64C1067.89 192.84 1068.16 191.827 1068.16 190.6C1068.16 188.787 1067.6 187.373 1066.48 186.36C1065.41 185.293 1063.92 184.76 1062 184.76C1060.13 184.76 1058.27 185.08 1056.4 185.72C1054.59 186.307 1053.01 187.053 1051.68 187.96L1048.16 180.76C1049.6 179.8 1051.49 178.84 1053.84 177.88C1056.24 176.867 1058.93 176.36 1061.92 176.36C1064.69 176.36 1067.09 176.707 1069.12 177.4C1071.2 178.093 1072.91 179.08 1074.24 180.36C1075.57 181.587 1076.56 183.053 1077.2 184.76C1077.84 186.467 1078.16 188.307 1078.16 190.28C1078.16 192.253 1077.6 194.147 1076.48 195.96C1075.36 197.773 1073.87 199.16 1072 200.12C1074.56 201.187 1076.53 202.76 1077.92 204.84C1079.36 206.92 1080.08 209.4 1080.08 212.28C1080.08 214.573 1079.71 216.68 1078.96 218.6C1078.21 220.52 1077.07 222.2 1075.52 223.64C1073.97 225.027 1072 226.12 1069.6 226.92C1067.2 227.667 1064.35 228.04 1061.04 228.04Z" fill="white"/>
<circle cx="591" cy="511" r="50" fill="#FF8266"/>
<path d="M605.72 500.52C605.72 502.227 605.4 503.88 604.76 505.48C604.12 507.027 603.267 508.547 602.2 510.04C601.133 511.533 599.933 512.973 598.6 514.36C597.267 515.747 595.907 517.08 594.52 518.36C593.827 519 593.027 519.773 592.12 520.68C591.213 521.533 590.36 522.44 589.56 523.4C588.76 524.307 588.067 525.24 587.48 526.2C586.947 527.16 586.68 528.04 586.68 528.84H607.96V537H575.64C575.48 536.467 575.4 535.8 575.4 535C575.453 534.2 575.48 533.64 575.48 533.32C575.48 530.653 575.96 528.2 576.92 525.96C577.933 523.72 579.187 521.667 580.68 519.8C582.227 517.88 583.853 516.12 585.56 514.52C587.32 512.867 588.947 511.293 590.44 509.8C591.987 508.307 593.24 506.867 594.2 505.48C595.213 504.093 595.72 502.68 595.72 501.24C595.72 499.213 595.107 497.667 593.88 496.6C592.653 495.48 591.107 494.92 589.24 494.92C587.693 494.92 586.067 495.293 584.36 496.04C582.653 496.787 580.973 498.04 579.32 499.8L574.44 492.92C576.573 490.68 579.027 489.027 581.8 487.96C584.627 486.893 587.427 486.36 590.2 486.36C592.227 486.36 594.173 486.653 596.04 487.24C597.907 487.827 599.56 488.707 601 489.88C602.44 491.053 603.587 492.547 604.44 494.36C605.293 496.12 605.72 498.173 605.72 500.52Z" fill="white"/>
<circle cx="356" cy="865" r="50" fill="#FF9D66"/>
<path d="M353.04 882.84V855.16C351.547 856.227 349.84 857.187 347.92 858.04C346 858.84 344.373 859.48 343.04 859.96L339.84 851.8C341.12 851.32 342.507 850.707 344 849.96C345.493 849.213 346.987 848.387 348.48 847.48C349.973 846.573 351.387 845.613 352.72 844.6C354.053 843.587 355.2 842.547 356.16 841.48H362.88V882.84H372.72V891H342.64V882.84H353.04Z" fill="white"/>
<circle cx="814" cy="865" r="50" fill="#FF9D66"/>
<path d="M811.04 882.84V855.16C809.547 856.227 807.84 857.187 805.92 858.04C804 858.84 802.373 859.48 801.04 859.96L797.84 851.8C799.12 851.32 800.507 850.707 802 849.96C803.493 849.213 804.987 848.387 806.48 847.48C807.973 846.573 809.387 845.613 810.72 844.6C812.053 843.587 813.2 842.547 814.16 841.48H820.88V882.84H830.72V891H800.64V882.84H811.04Z" fill="white"/>
<circle cx="1537" cy="511" r="50" fill="#FF8266"/>
<path d="M1534.04 528.84V501.16C1532.55 502.227 1530.84 503.187 1528.92 504.04C1527 504.84 1525.37 505.48 1524.04 505.96L1520.84 497.8C1522.12 497.32 1523.51 496.707 1525 495.96C1526.49 495.213 1527.99 494.387 1529.48 493.48C1530.97 492.573 1532.39 491.613 1533.72 490.6C1535.05 489.587 1536.2 488.547 1537.16 487.48H1543.88V528.84H1553.72V537H1523.64V528.84H1534.04Z" fill="white"/>
<path d="M1275 672.213L1598.21 349M1598.21 672.213L1275 349" stroke="#FF0000" stroke-width="30"/>
<rect x="328" y="2222" width="200" height="200" rx="20" fill="#FF8266"/>
<path d="M420.6 2390.6C417.533 2390.6 414.267 2390.33 410.8 2389.8C407.467 2389.4 404.2 2388.87 401 2388.2C397.933 2387.53 395.067 2386.8 392.4 2386C389.733 2385.2 387.667 2384.47 386.2 2383.8L391 2363.2C394.067 2364.53 398 2365.93 402.8 2367.4C407.733 2368.87 413.6 2369.6 420.4 2369.6C428.8 2369.6 434.667 2367.8 438 2364.2C441.467 2360.6 443.2 2356.13 443.2 2350.8C443.2 2344.27 440.6 2339.73 435.4 2337.2C430.2 2334.53 423.6 2333.2 415.6 2333.2H408V2312.8H417.2C419.733 2312.8 422.267 2312.53 424.8 2312C427.333 2311.47 429.6 2310.6 431.6 2309.4C433.6 2308.2 435.2 2306.6 436.4 2304.6C437.733 2302.6 438.4 2300.07 438.4 2297C438.4 2292.47 437 2288.93 434.2 2286.4C431.533 2283.73 427.8 2282.4 423 2282.4C418.333 2282.4 413.667 2283.2 409 2284.8C404.467 2286.27 400.533 2288.13 397.2 2290.4L388.4 2272.4C392 2270 396.733 2267.6 402.6 2265.2C408.6 2262.67 415.333 2261.4 422.8 2261.4C429.733 2261.4 435.733 2262.27 440.8 2264C446 2265.73 450.267 2268.2 453.6 2271.4C456.933 2274.47 459.4 2278.13 461 2282.4C462.6 2286.67 463.4 2291.27 463.4 2296.2C463.4 2301.13 462 2305.87 459.2 2310.4C456.4 2314.93 452.667 2318.4 448 2320.8C454.4 2323.47 459.333 2327.4 462.8 2332.6C466.4 2337.8 468.2 2344 468.2 2351.2C468.2 2356.93 467.267 2362.2 465.4 2367C463.533 2371.8 460.667 2376 456.8 2379.6C452.933 2383.07 448 2385.8 442 2387.8C436 2389.67 428.867 2390.6 420.6 2390.6Z" fill="white"/>
<rect x="92" y="2576" width="200" height="200" rx="20" fill="#FF9D66"/>
<path d="M184.6 2721.6V2652.4C180.867 2655.07 176.6 2657.47 171.8 2659.6C167 2661.6 162.933 2663.2 159.6 2664.4L151.6 2644C154.8 2642.8 158.267 2641.27 162 2639.4C165.733 2637.53 169.467 2635.47 173.2 2633.2C176.933 2630.93 180.467 2628.53 183.8 2626C187.133 2623.47 190 2620.87 192.4 2618.2H209.2V2721.6H233.8V2742H158.6V2721.6H184.6Z" fill="white"/>
<path d="M584.253 2197.48L632.178 2125.35L670.685 2202.92L584.253 2197.48Z" fill="#F841C4"/>
<path d="M739.179 2131.74L655.878 2173.09L646.985 2155.18L730.287 2113.83L739.179 2131.74Z" fill="#F841C4"/>
<path d="M255.09 2561.69L256.705 2475.11L330.884 2519.8L255.09 2561.69Z" fill="#FF8266"/>
<path d="M339.778 2440.51L302.36 2502.61L285.229 2492.29L322.647 2430.19L339.778 2440.51Z" fill="#FF8266"/>
<path d="M1218.73 2199.48L1170.81 2127.35L1132.3 2204.92L1218.73 2199.48Z" fill="#F841C4"/>
<path d="M1063.81 2133.74L1147.11 2175.09L1156 2157.18L1072.7 2115.83L1063.81 2133.74Z" fill="#F841C4"/>
<circle cx="528" cy="2322" r="50" fill="#F841C4"/>
<path d="M542.72 2311.52C542.72 2313.23 542.4 2314.88 541.76 2316.48C541.12 2318.03 540.267 2319.55 539.2 2321.04C538.133 2322.53 536.933 2323.97 535.6 2325.36C534.267 2326.75 532.907 2328.08 531.52 2329.36C530.827 2330 530.027 2330.77 529.12 2331.68C528.213 2332.53 527.36 2333.44 526.56 2334.4C525.76 2335.31 525.067 2336.24 524.48 2337.2C523.947 2338.16 523.68 2339.04 523.68 2339.84H544.96V2348H512.64C512.48 2347.47 512.4 2346.8 512.4 2346C512.453 2345.2 512.48 2344.64 512.48 2344.32C512.48 2341.65 512.96 2339.2 513.92 2336.96C514.933 2334.72 516.187 2332.67 517.68 2330.8C519.227 2328.88 520.853 2327.12 522.56 2325.52C524.32 2323.87 525.947 2322.29 527.44 2320.8C528.987 2319.31 530.24 2317.87 531.2 2316.48C532.213 2315.09 532.72 2313.68 532.72 2312.24C532.72 2310.21 532.107 2308.67 530.88 2307.6C529.653 2306.48 528.107 2305.92 526.24 2305.92C524.693 2305.92 523.067 2306.29 521.36 2307.04C519.653 2307.79 517.973 2309.04 516.32 2310.8L511.44 2303.92C513.573 2301.68 516.027 2300.03 518.8 2298.96C521.627 2297.89 524.427 2297.36 527.2 2297.36C529.227 2297.36 531.173 2297.65 533.04 2298.24C534.907 2298.83 536.56 2299.71 538 2300.88C539.44 2302.05 540.587 2303.55 541.44 2305.36C542.293 2307.12 542.72 2309.17 542.72 2311.52Z" fill="white"/>
<circle cx="293" cy="2676" r="50" fill="#FF9D66"/>
<path d="M290.04 2693.84V2666.16C288.547 2667.23 286.84 2668.19 284.92 2669.04C283 2669.84 281.373 2670.48 280.04 2670.96L276.84 2662.8C278.12 2662.32 279.507 2661.71 281 2660.96C282.493 2660.21 283.987 2659.39 285.48 2658.48C286.973 2657.57 288.387 2656.61 289.72 2655.6C291.053 2654.59 292.2 2653.55 293.16 2652.48H299.88V2693.84H309.72V2702H279.64V2693.84H290.04Z" fill="white"/>
<rect x="2146" y="905" width="200" height="200" rx="20" fill="#FF6F66"/>
<path d="M2260.2 1034.6C2260.2 1031.13 2259.6 1028 2258.4 1025.2C2257.33 1022.27 2255.07 1019.8 2251.6 1017.8C2248.27 1015.67 2243.47 1014.07 2237.2 1013C2230.93 1011.8 2222.73 1011.2 2212.6 1011.2C2213.93 1000 2215 989.067 2215.8 978.4C2216.6 967.6 2217.2 957.2 2217.6 947.2H2280.8V967.6H2238.2C2237.93 971.867 2237.6 976.333 2237.2 981C2236.8 985.667 2236.47 989.467 2236.2 992.4C2252.73 993.467 2265.07 997.467 2273.2 1004.4C2281.33 1011.33 2285.4 1021.07 2285.4 1033.6C2285.4 1039.33 2284.4 1044.67 2282.4 1049.6C2280.4 1054.4 2277.33 1058.6 2273.2 1062.2C2269.07 1065.8 2263.93 1068.6 2257.8 1070.6C2251.67 1072.6 2244.53 1073.6 2236.4 1073.6C2233.2 1073.6 2229.93 1073.4 2226.6 1073C2223.27 1072.6 2220.07 1072.07 2217 1071.4C2213.93 1070.87 2211.13 1070.2 2208.6 1069.4C2206.2 1068.6 2204.33 1067.87 2203 1067.2L2208 1046.8C2210.93 1048.27 2214.67 1049.6 2219.2 1050.8C2223.73 1052 2229.4 1052.6 2236.2 1052.6C2241 1052.6 2244.93 1052.07 2248 1051C2251.2 1049.93 2253.67 1048.6 2255.4 1047C2257.27 1045.27 2258.53 1043.33 2259.2 1041.2C2259.87 1039.07 2260.2 1036.87 2260.2 1034.6Z" fill="white"/>
<rect x="1673" y="1215" width="200" height="200" rx="20" fill="#FF8266"/>
<path d="M1765.6 1383.6C1762.53 1383.6 1759.27 1383.33 1755.8 1382.8C1752.47 1382.4 1749.2 1381.87 1746 1381.2C1742.93 1380.53 1740.07 1379.8 1737.4 1379C1734.73 1378.2 1732.67 1377.47 1731.2 1376.8L1736 1356.2C1739.07 1357.53 1743 1358.93 1747.8 1360.4C1752.73 1361.87 1758.6 1362.6 1765.4 1362.6C1773.8 1362.6 1779.67 1360.8 1783 1357.2C1786.47 1353.6 1788.2 1349.13 1788.2 1343.8C1788.2 1337.27 1785.6 1332.73 1780.4 1330.2C1775.2 1327.53 1768.6 1326.2 1760.6 1326.2H1753V1305.8H1762.2C1764.73 1305.8 1767.27 1305.53 1769.8 1305C1772.33 1304.47 1774.6 1303.6 1776.6 1302.4C1778.6 1301.2 1780.2 1299.6 1781.4 1297.6C1782.73 1295.6 1783.4 1293.07 1783.4 1290C1783.4 1285.47 1782 1281.93 1779.2 1279.4C1776.53 1276.73 1772.8 1275.4 1768 1275.4C1763.33 1275.4 1758.67 1276.2 1754 1277.8C1749.47 1279.27 1745.53 1281.13 1742.2 1283.4L1733.4 1265.4C1737 1263 1741.73 1260.6 1747.6 1258.2C1753.6 1255.67 1760.33 1254.4 1767.8 1254.4C1774.73 1254.4 1780.73 1255.27 1785.8 1257C1791 1258.73 1795.27 1261.2 1798.6 1264.4C1801.93 1267.47 1804.4 1271.13 1806 1275.4C1807.6 1279.67 1808.4 1284.27 1808.4 1289.2C1808.4 1294.13 1807 1298.87 1804.2 1303.4C1801.4 1307.93 1797.67 1311.4 1793 1313.8C1799.4 1316.47 1804.33 1320.4 1807.8 1325.6C1811.4 1330.8 1813.2 1337 1813.2 1344.2C1813.2 1349.93 1812.27 1355.2 1810.4 1360C1808.53 1364.8 1805.67 1369 1801.8 1372.6C1797.93 1376.07 1793 1378.8 1787 1380.8C1781 1382.67 1773.87 1383.6 1765.6 1383.6Z" fill="white"/>
<rect x="1437" y="1569" width="200" height="200" rx="20" fill="#FF9D66"/>
<path d="M1529.6 1714.6V1645.4C1525.87 1648.07 1521.6 1650.47 1516.8 1652.6C1512 1654.6 1507.93 1656.2 1504.6 1657.4L1496.6 1637C1499.8 1635.8 1503.27 1634.27 1507 1632.4C1510.73 1630.53 1514.47 1628.47 1518.2 1626.2C1521.93 1623.93 1525.47 1621.53 1528.8 1619C1532.13 1616.47 1535 1613.87 1537.4 1611.2H1554.2V1714.6H1578.8V1735H1503.6V1714.6H1529.6Z" fill="white"/>
<rect x="1897" y="1569" width="200" height="200" rx="20" fill="#FF9D66"/>
<path d="M2004 1642C2001.6 1645.07 1999.13 1648.33 1996.6 1651.8C1994.07 1655.27 1991.53 1658.93 1989 1662.8C1986.6 1666.53 1984.27 1670.33 1982 1674.2C1979.73 1678.07 1977.73 1681.87 1976 1685.6H2004V1642ZM2028.6 1611.2V1685.6H2042V1705.8H2028.6V1735H2004V1705.8H1952.4V1687.8C1954.93 1682.6 1958.2 1676.73 1962.2 1670.2C1966.2 1663.53 1970.6 1656.73 1975.4 1649.8C1980.2 1642.87 1985.27 1636.07 1990.6 1629.4C1995.93 1622.6 2001.27 1616.53 2006.6 1611.2H2028.6Z" fill="white"/>
<path d="M1929.25 1190.48L1977.18 1118.35L2015.68 1195.92L1929.25 1190.48Z" fill="#FF6F66"/>
<path d="M2084.18 1124.74L2000.88 1166.09L1991.99 1148.18L2075.29 1106.83L2084.18 1124.74Z" fill="#FF6F66"/>
<path d="M1600.09 1554.69L1601.7 1468.11L1675.88 1512.8L1600.09 1554.69Z" fill="#FF8266"/>
<path d="M1684.78 1433.51L1647.36 1495.61L1630.23 1485.29L1667.65 1423.19L1684.78 1433.51Z" fill="#FF8266"/>
<path d="M1946.21 1554.69L1944.6 1468.11L1870.42 1512.8L1946.21 1554.69Z" fill="#FF8266"/>
<path d="M1861.52 1433.51L1898.94 1495.61L1916.07 1485.29L1878.66 1423.19L1861.52 1433.51Z" fill="#FF8266"/>
<circle cx="2346" cy="1005" r="50" fill="#F841C4"/>
<path d="M2343.04 1032.04C2341.81 1032.04 2340.51 1031.93 2339.12 1031.72C2337.79 1031.56 2336.48 1031.35 2335.2 1031.08C2333.97 1030.81 2332.83 1030.52 2331.76 1030.2C2330.69 1029.88 2329.87 1029.59 2329.28 1029.32L2331.2 1021.08C2332.43 1021.61 2334 1022.17 2335.92 1022.76C2337.89 1023.35 2340.24 1023.64 2342.96 1023.64C2346.32 1023.64 2348.67 1022.92 2350 1021.48C2351.39 1020.04 2352.08 1018.25 2352.08 1016.12C2352.08 1013.51 2351.04 1011.69 2348.96 1010.68C2346.88 1009.61 2344.24 1009.08 2341.04 1009.08H2338V1000.92H2341.68C2342.69 1000.92 2343.71 1000.81 2344.72 1000.6C2345.73 1000.39 2346.64 1000.04 2347.44 999.56C2348.24 999.08 2348.88 998.44 2349.36 997.64C2349.89 996.84 2350.16 995.827 2350.16 994.6C2350.16 992.787 2349.6 991.373 2348.48 990.36C2347.41 989.293 2345.92 988.76 2344 988.76C2342.13 988.76 2340.27 989.08 2338.4 989.72C2336.59 990.307 2335.01 991.053 2333.68 991.96L2330.16 984.76C2331.6 983.8 2333.49 982.84 2335.84 981.88C2338.24 980.867 2340.93 980.36 2343.92 980.36C2346.69 980.36 2349.09 980.707 2351.12 981.4C2353.2 982.093 2354.91 983.08 2356.24 984.36C2357.57 985.587 2358.56 987.053 2359.2 988.76C2359.84 990.467 2360.16 992.307 2360.16 994.28C2360.16 996.253 2359.6 998.147 2358.48 999.96C2357.36 1001.77 2355.87 1003.16 2354 1004.12C2356.56 1005.19 2358.53 1006.76 2359.92 1008.84C2361.36 1010.92 2362.08 1013.4 2362.08 1016.28C2362.08 1018.57 2361.71 1020.68 2360.96 1022.6C2360.21 1024.52 2359.07 1026.2 2357.52 1027.64C2355.97 1029.03 2354 1030.12 2351.6 1030.92C2349.2 1031.67 2346.35 1032.04 2343.04 1032.04Z" fill="white"/>
<rect x="1274" y="2222" width="200" height="200" rx="20" fill="#FF6F66"/>
<path d="M1388.2 2351.6C1388.2 2348.13 1387.6 2345 1386.4 2342.2C1385.33 2339.27 1383.07 2336.8 1379.6 2334.8C1376.27 2332.67 1371.47 2331.07 1365.2 2330C1358.93 2328.8 1350.73 2328.2 1340.6 2328.2C1341.93 2317 1343 2306.07 1343.8 2295.4C1344.6 2284.6 1345.2 2274.2 1345.6 2264.2H1408.8V2284.6H1366.2C1365.93 2288.87 1365.6 2293.33 1365.2 2298C1364.8 2302.67 1364.47 2306.47 1364.2 2309.4C1380.73 2310.47 1393.07 2314.47 1401.2 2321.4C1409.33 2328.33 1413.4 2338.07 1413.4 2350.6C1413.4 2356.33 1412.4 2361.67 1410.4 2366.6C1408.4 2371.4 1405.33 2375.6 1401.2 2379.2C1397.07 2382.8 1391.93 2385.6 1385.8 2387.6C1379.67 2389.6 1372.53 2390.6 1364.4 2390.6C1361.2 2390.6 1357.93 2390.4 1354.6 2390C1351.27 2389.6 1348.07 2389.07 1345 2388.4C1341.93 2387.87 1339.13 2387.2 1336.6 2386.4C1334.2 2385.6 1332.33 2384.87 1331 2384.2L1336 2363.8C1338.93 2365.27 1342.67 2366.6 1347.2 2367.8C1351.73 2369 1357.4 2369.6 1364.2 2369.6C1369 2369.6 1372.93 2369.07 1376 2368C1379.2 2366.93 1381.67 2365.6 1383.4 2364C1385.27 2362.27 1386.53 2360.33 1387.2 2358.2C1387.87 2356.07 1388.2 2353.87 1388.2 2351.6Z" fill="white"/>
<circle cx="1474" cy="2322" r="50" fill="#F841C4"/>
<path d="M1471.04 2339.84V2312.16C1469.55 2313.23 1467.84 2314.19 1465.92 2315.04C1464 2315.84 1462.37 2316.48 1461.04 2316.96L1457.84 2308.8C1459.12 2308.32 1460.51 2307.71 1462 2306.96C1463.49 2306.21 1464.99 2305.39 1466.48 2304.48C1467.97 2303.57 1469.39 2302.61 1470.72 2301.6C1472.05 2300.59 1473.2 2299.55 1474.16 2298.48H1480.88V2339.84H1490.72V2348H1460.64V2339.84H1471.04Z" fill="white"/>
<circle cx="1873" cy="1315" r="50" fill="#FF8266"/>
<path d="M1887.72 1304.52C1887.72 1306.23 1887.4 1307.88 1886.76 1309.48C1886.12 1311.03 1885.27 1312.55 1884.2 1314.04C1883.13 1315.53 1881.93 1316.97 1880.6 1318.36C1879.27 1319.75 1877.91 1321.08 1876.52 1322.36C1875.83 1323 1875.03 1323.77 1874.12 1324.68C1873.21 1325.53 1872.36 1326.44 1871.56 1327.4C1870.76 1328.31 1870.07 1329.24 1869.48 1330.2C1868.95 1331.16 1868.68 1332.04 1868.68 1332.84H1889.96V1341H1857.64C1857.48 1340.47 1857.4 1339.8 1857.4 1339C1857.45 1338.2 1857.48 1337.64 1857.48 1337.32C1857.48 1334.65 1857.96 1332.2 1858.92 1329.96C1859.93 1327.72 1861.19 1325.67 1862.68 1323.8C1864.23 1321.88 1865.85 1320.12 1867.56 1318.52C1869.32 1316.87 1870.95 1315.29 1872.44 1313.8C1873.99 1312.31 1875.24 1310.87 1876.2 1309.48C1877.21 1308.09 1877.72 1306.68 1877.72 1305.24C1877.72 1303.21 1877.11 1301.67 1875.88 1300.6C1874.65 1299.48 1873.11 1298.92 1871.24 1298.92C1869.69 1298.92 1868.07 1299.29 1866.36 1300.04C1864.65 1300.79 1862.97 1302.04 1861.32 1303.8L1856.44 1296.92C1858.57 1294.68 1861.03 1293.03 1863.8 1291.96C1866.63 1290.89 1869.43 1290.36 1872.2 1290.36C1874.23 1290.36 1876.17 1290.65 1878.04 1291.24C1879.91 1291.83 1881.56 1292.71 1883 1293.88C1884.44 1295.05 1885.59 1296.55 1886.44 1298.36C1887.29 1300.12 1887.72 1302.17 1887.72 1304.52Z" fill="white"/>
<circle cx="1638" cy="1669" r="50" fill="#FF9D66"/>
<path d="M1635.04 1686.84V1659.16C1633.55 1660.23 1631.84 1661.19 1629.92 1662.04C1628 1662.84 1626.37 1663.48 1625.04 1663.96L1621.84 1655.8C1623.12 1655.32 1624.51 1654.71 1626 1653.96C1627.49 1653.21 1628.99 1652.39 1630.48 1651.48C1631.97 1650.57 1633.39 1649.61 1634.72 1648.6C1636.05 1647.59 1637.2 1646.55 1638.16 1645.48H1644.88V1686.84H1654.72V1695H1624.64V1686.84H1635.04Z" fill="white"/>
<circle cx="2096" cy="1669" r="50" fill="#FF9D66"/>
<path d="M2093.04 1686.84V1659.16C2091.55 1660.23 2089.84 1661.19 2087.92 1662.04C2086 1662.84 2084.37 1663.48 2083.04 1663.96L2079.84 1655.8C2081.12 1655.32 2082.51 1654.71 2084 1653.96C2085.49 1653.21 2086.99 1652.39 2088.48 1651.48C2089.97 1650.57 2091.39 1649.61 2092.72 1648.6C2094.05 1647.59 2095.2 1646.55 2096.16 1645.48H2102.88V1686.84H2112.72V1695H2082.64V1686.84H2093.04Z" fill="white"/>
<path d="M2533.38 1239.77C2534.54 1253 2535.32 1266.37 2535.71 1279.87L2525.71 1280.16C2525.9 1286.74 2526 1293.36 2526 1300C2526 1306.64 2525.9 1313.26 2525.71 1319.84L2535.71 1320.13C2535.32 1333.63 2534.54 1347 2533.38 1360.23L2523.42 1359.36C2522.26 1372.63 2520.71 1385.75 2518.8 1398.71L2528.69 1400.17C2526.71 1413.52 2524.36 1426.7 2521.62 1439.7L2511.84 1437.65C2509.1 1450.67 2505.98 1463.51 2502.5 1476.14L2512.14 1478.79C2508.56 1491.8 2504.6 1504.6 2500.27 1517.16L2490.81 1513.9C2486.48 1526.47 2481.78 1538.81 2476.73 1550.88L2485.95 1554.74C2480.74 1567.19 2475.16 1579.37 2469.23 1591.25L2460.28 1586.79C2454.35 1598.68 2448.06 1610.27 2441.43 1621.54L2450.05 1626.61C2443.21 1638.24 2436.01 1649.55 2428.47 1660.49L2420.23 1654.82C2412.71 1665.75 2404.86 1676.3 2396.68 1686.47L2404.48 1692.74C2396.02 1703.26 2387.22 1713.38 2378.1 1723.07L2370.82 1716.22C2361.76 1725.85 2352.38 1735.04 2342.72 1743.77L2349.42 1751.19C2339.4 1760.23 2329.08 1768.79 2318.47 1776.83L2312.43 1768.86C2301.92 1776.82 2291.13 1784.27 2280.09 1791.16L2285.38 1799.65C2273.97 1806.77 2262.29 1813.34 2250.35 1819.3L2245.88 1810.36C2234.15 1816.22 2222.19 1821.49 2210 1826.14L2213.57 1835.48C2201.05 1840.26 2188.31 1844.4 2175.35 1847.88L2172.76 1838.22C2160.19 1841.6 2147.43 1844.33 2134.5 1846.38L2136.07 1856.26C2122.91 1858.35 2109.59 1859.77 2096.11 1860.47L2095.58 1850.49C2089.09 1850.83 2082.56 1851 2076 1851C2069.44 1851 2062.91 1850.83 2056.42 1850.49L2055.89 1860.47C2042.41 1859.77 2029.09 1858.35 2015.93 1856.26L2017.5 1846.38C2004.57 1844.33 1991.81 1841.6 1979.24 1838.22L1976.65 1847.88C1963.69 1844.4 1950.95 1840.26 1938.43 1835.48L1942 1826.14C1929.81 1821.49 1917.85 1816.22 1906.12 1810.36L1901.65 1819.3C1889.71 1813.34 1878.03 1806.77 1866.62 1799.65L1871.91 1791.16C1860.87 1784.27 1850.08 1776.82 1839.57 1768.86L1833.53 1776.83C1822.92 1768.79 1812.6 1760.23 1802.58 1751.19L1809.28 1743.77C1799.62 1735.04 1790.24 1725.85 1781.18 1716.22L1773.9 1723.07C1764.78 1713.38 1755.98 1703.26 1747.52 1692.74L1755.32 1686.47C1747.14 1676.3 1739.29 1665.75 1731.77 1654.82L1723.53 1660.49C1715.99 1649.55 1708.79 1638.24 1701.95 1626.61L1710.57 1621.54C1703.94 1610.27 1697.65 1598.68 1691.72 1586.79L1682.77 1591.25C1676.84 1579.37 1671.26 1567.19 1666.05 1554.74L1675.27 1550.88C1670.22 1538.81 1665.52 1526.47 1661.19 1513.9L1651.73 1517.16C1647.4 1504.6 1643.44 1491.8 1639.86 1478.79L1649.5 1476.14C1646.02 1463.51 1642.9 1450.67 1640.16 1437.65L1630.38 1439.7C1627.64 1426.7 1625.29 1413.52 1623.31 1400.17L1633.2 1398.71C1631.29 1385.75 1629.74 1372.63 1628.58 1359.36L1618.62 1360.23C1617.46 1347 1616.68 1333.63 1616.29 1320.13L1626.29 1319.84C1626.1 1313.26 1626 1306.64 1626 1300C1626 1293.36 1626.1 1286.74 1626.29 1280.16L1616.29 1279.87C1616.68 1266.37 1617.46 1253 1618.62 1239.77L1628.58 1240.64C1629.74 1227.37 1631.29 1214.25 1633.2 1201.29L1623.31 1199.83C1625.29 1186.48 1627.64 1173.3 1630.38 1160.3L1640.16 1162.35C1642.9 1149.33 1646.02 1136.49 1649.5 1123.86L1639.86 1121.21C1643.44 1108.2 1647.4 1095.4 1651.73 1082.84L1661.19 1086.1C1665.52 1073.53 1670.22 1061.19 1675.27 1049.12L1666.05 1045.26C1671.26 1032.81 1676.84 1020.63 1682.77 1008.75L1691.72 1013.21C1697.65 1001.32 1703.94 989.733 1710.57 978.464L1701.95 973.395C1708.79 961.758 1715.99 950.454 1723.53 939.506L1731.77 945.176C1739.29 934.254 1747.14 923.697 1755.32 913.529L1747.52 907.264C1755.98 896.739 1764.78 886.62 1773.9 876.931L1781.18 883.783C1790.24 874.152 1799.62 864.96 1809.28 856.233L1802.58 848.81C1812.6 839.77 1822.92 831.214 1833.53 823.171L1839.57 831.14C1850.08 823.178 1860.87 815.734 1871.91 808.835L1866.62 800.354C1878.03 793.227 1889.71 786.664 1901.65 780.697L1906.12 789.641C1917.85 783.781 1929.81 778.512 1942 773.861L1938.43 764.519C1950.95 759.741 1963.69 755.597 1976.65 752.12L1979.24 761.778C1991.81 758.403 2004.57 755.673 2017.5 753.616L2015.93 743.74C2029.09 741.648 2042.41 740.233 2055.89 739.526L2056.42 749.513C2062.91 749.172 2069.44 749 2076 749C2082.56 749 2089.09 749.172 2095.58 749.513L2096.11 739.526C2109.59 740.233 2122.91 741.648 2136.07 743.74L2134.5 753.616C2147.43 755.673 2160.19 758.403 2172.76 761.778L2175.35 752.12C2188.31 755.597 2201.05 759.741 2213.57 764.519L2210 773.861C2222.19 778.512 2234.15 783.781 2245.88 789.641L2250.35 780.697C2262.29 786.664 2273.97 793.227 2285.38 800.354L2280.09 808.835C2291.13 815.734 2301.92 823.178 2312.43 831.14L2318.47 823.171C2329.08 831.214 2339.4 839.77 2349.42 848.81L2342.72 856.233C2352.38 864.96 2361.76 874.152 2370.82 883.783L2378.1 876.931C2387.22 886.62 2396.02 896.739 2404.48 907.264L2396.68 913.529C2404.86 923.697 2412.71 934.254 2420.23 945.176L2428.47 939.506C2436.01 950.454 2443.21 961.758 2450.05 973.395L2441.43 978.464C2448.06 989.733 2454.35 1001.32 2460.28 1013.21L2469.23 1008.75C2475.16 1020.63 2480.74 1032.81 2485.95 1045.26L2476.73 1049.12C2481.78 1061.19 2486.48 1073.53 2490.81 1086.1L2500.27 1082.84C2504.6 1095.4 2508.56 1108.2 2512.14 1121.21L2502.5 1123.86C2505.98 1136.49 2509.1 1149.33 2511.84 1162.35L2521.62 1160.3C2524.36 1173.3 2526.71 1186.48 2528.69 1199.83L2518.8 1201.29C2520.71 1214.25 2522.26 1227.37 2523.42 1240.64L2533.38 1239.77Z" stroke="#F841C4" stroke-width="20" stroke-dasharray="40 40"/>
<path d="M1582.84 2175.8C1585.99 2188.71 1588.13 2201.82 1589.2 2215.09L1579.23 2215.9C1579.74 2222.23 1580 2228.59 1580 2235C1580 2241.41 1579.74 2247.77 1579.23 2254.1L1589.2 2254.91C1588.13 2268.18 1585.99 2281.29 1582.84 2294.2L1573.12 2291.83C1570.11 2304.14 1566.14 2316.28 1561.24 2328.24L1570.49 2332.03C1565.53 2344.15 1559.65 2356.06 1552.91 2367.73L1544.25 2362.73C1537.93 2373.67 1530.81 2384.41 1522.93 2394.94L1530.94 2400.93C1523.12 2411.37 1514.6 2421.58 1505.39 2431.53L1498.05 2424.74C1489.43 2434.06 1480.19 2443.17 1470.35 2452.05L1477.05 2459.47C1467.38 2468.2 1457.17 2476.69 1446.43 2484.93L1440.34 2477C1430.18 2484.8 1419.54 2492.38 1408.44 2499.72L1413.96 2508.06C1403.08 2515.26 1391.78 2522.23 1380.08 2528.95L1375.1 2520.28C1363.93 2526.69 1352.38 2532.89 1340.48 2538.85L1344.96 2547.79C1333.25 2553.65 1321.21 2559.28 1308.86 2564.67L1304.86 2555.51C1293.01 2560.68 1280.87 2565.63 1268.45 2570.36L1272 2579.7C1259.73 2584.37 1247.2 2588.8 1234.41 2593.01L1231.29 2583.51C1218.95 2587.57 1206.38 2591.4 1193.58 2595.01L1196.3 2604.64C1183.66 2608.2 1170.82 2611.54 1157.77 2614.65L1155.45 2604.93C1142.79 2607.95 1129.94 2610.75 1116.91 2613.32L1118.85 2623.14C1105.93 2625.69 1092.85 2628.02 1079.6 2630.12L1078.03 2620.25C1065.14 2622.3 1052.09 2624.13 1038.9 2625.73L1040.11 2635.66C1027.04 2637.25 1013.84 2638.62 1000.51 2639.77L999.658 2629.8C986.646 2630.92 973.515 2631.82 960.274 2632.49L960.783 2642.48C947.615 2643.15 934.342 2643.61 920.973 2643.83L920.804 2633.83C914.225 2633.94 907.624 2634 901 2634C894.376 2634 887.775 2633.94 881.197 2633.83L881.028 2643.83C867.659 2643.61 854.385 2643.15 841.217 2642.48L841.726 2632.49C828.486 2631.82 815.354 2630.92 802.342 2629.8L801.486 2639.77C788.16 2638.62 774.956 2637.25 761.888 2635.66L763.096 2625.73C749.908 2624.13 736.861 2622.3 723.966 2620.25L722.397 2630.12C709.154 2628.02 696.069 2625.69 683.153 2623.14L685.092 2613.32C672.062 2610.75 659.21 2607.95 646.547 2604.93L644.227 2614.65C631.183 2611.54 618.337 2608.2 605.703 2604.64L608.417 2595.01C595.62 2591.4 583.045 2587.57 570.709 2583.51L567.585 2593.01C554.802 2588.8 542.268 2584.37 529.999 2579.7L533.552 2570.36C521.129 2565.63 508.986 2560.68 497.141 2555.51L493.139 2564.67C480.787 2559.28 468.749 2553.65 457.044 2547.79L461.521 2538.85C449.618 2532.89 438.073 2526.69 426.905 2520.28L421.924 2528.95C410.221 2522.23 398.919 2515.26 388.041 2508.06L393.558 2499.72C382.457 2492.38 371.816 2484.8 361.659 2477L355.569 2484.93C344.834 2476.69 334.618 2468.2 324.95 2459.47L331.65 2452.05C321.813 2443.17 312.571 2434.06 303.951 2424.74L296.61 2431.53C287.403 2421.58 278.875 2411.37 271.061 2400.93L279.067 2394.94C271.186 2384.41 264.069 2373.67 257.75 2362.73L249.091 2367.73C242.349 2356.06 236.472 2344.15 231.505 2332.03L240.758 2328.24C235.859 2316.28 231.886 2304.14 228.879 2291.83L219.164 2294.2C216.011 2281.29 213.874 2268.18 212.802 2254.91L222.77 2254.1C222.258 2247.77 222 2241.41 222 2235C222 2228.59 222.258 2222.23 222.77 2215.9L212.802 2215.09C213.874 2201.82 216.011 2188.71 219.164 2175.8L228.879 2178.17C231.886 2165.86 235.859 2153.72 240.758 2141.76L231.505 2137.97C236.472 2125.85 242.349 2113.94 249.091 2102.27L257.75 2107.27C264.069 2096.33 271.186 2085.59 279.067 2075.06L271.061 2069.07C278.875 2058.63 287.403 2048.42 296.609 2038.47L303.951 2045.26C312.571 2035.94 321.813 2026.83 331.65 2017.95L324.95 2010.53C334.618 2001.8 344.834 1993.31 355.569 1985.07L361.659 1993C371.816 1985.2 382.457 1977.62 393.558 1970.28L388.041 1961.94C398.919 1954.74 410.221 1947.77 421.924 1941.05L426.905 1949.72C438.073 1943.31 449.618 1937.11 461.521 1931.15L457.044 1922.21C468.749 1916.35 480.787 1910.72 493.139 1905.33L497.141 1914.49C508.986 1909.32 521.129 1904.37 533.552 1899.64L529.999 1890.3C542.268 1885.63 554.802 1881.2 567.585 1876.99L570.709 1886.49C583.045 1882.43 595.62 1878.6 608.417 1874.99L605.703 1865.36C618.337 1861.8 631.183 1858.46 644.227 1855.35L646.547 1865.07C659.21 1862.05 672.062 1859.25 685.092 1856.68L683.153 1846.86C696.068 1844.31 709.154 1841.98 722.397 1839.88L723.966 1849.75C736.861 1847.7 749.908 1845.87 763.096 1844.27L761.888 1834.34C774.956 1832.75 788.159 1831.38 801.486 1830.23L802.342 1840.2C815.354 1839.08 828.485 1838.18 841.726 1837.51L841.217 1827.52C854.385 1826.85 867.658 1826.39 881.027 1826.17L881.196 1836.17C887.775 1836.06 894.376 1836 901 1836C907.624 1836 914.225 1836.06 920.803 1836.17L920.972 1826.17C934.341 1826.39 947.615 1826.85 960.783 1827.52L960.274 1837.51C973.514 1838.18 986.646 1839.08 999.658 1840.2L1000.51 1830.23C1013.84 1831.38 1027.04 1832.75 1040.11 1834.34L1038.9 1844.27C1052.09 1845.87 1065.14 1847.7 1078.03 1849.75L1079.6 1839.88C1092.85 1841.98 1105.93 1844.31 1118.85 1846.86L1116.91 1856.68C1129.94 1859.25 1142.79 1862.05 1155.45 1865.07L1157.77 1855.35C1170.82 1858.46 1183.66 1861.8 1196.3 1865.36L1193.58 1874.99C1206.38 1878.6 1218.95 1882.43 1231.29 1886.49L1234.41 1876.99C1247.2 1881.2 1259.73 1885.63 1272 1890.3L1268.45 1899.64C1280.87 1904.37 1293.01 1909.32 1304.86 1914.49L1308.86 1905.33C1321.21 1910.72 1333.25 1916.35 1344.96 1922.21L1340.48 1931.15C1352.38 1937.11 1363.93 1943.31 1375.1 1949.72L1380.08 1941.05C1391.78 1947.77 1403.08 1954.74 1413.96 1961.94L1408.44 1970.28C1419.54 1977.62 1430.18 1985.2 1440.34 1993L1446.43 1985.07C1457.17 1993.31 1467.38 2001.8 1477.05 2010.53L1470.35 2017.95C1480.19 2026.83 1489.43 2035.94 1498.05 2045.26L1505.39 2038.47C1514.6 2048.42 1523.12 2058.63 1530.94 2069.07L1522.93 2075.06C1530.81 2085.59 1537.93 2096.33 1544.25 2107.27L1552.91 2102.27C1559.65 2113.94 1565.53 2125.85 1570.49 2137.97L1561.24 2141.76C1566.14 2153.72 1570.11 2165.86 1573.12 2178.17L1582.84 2175.8Z" stroke="#F841C4" stroke-width="20" stroke-dasharray="40 40"/>
<rect x="801" y="1902" width="200" height="200" rx="20" fill="#FF9D66"/>
<path d="M908 1975C905.6 1978.07 903.133 1981.33 900.6 1984.8C898.067 1988.27 895.533 1991.93 893 1995.8C890.6 1999.53 888.267 2003.33 886 2007.2C883.733 2011.07 881.733 2014.87 880 2018.6H908V1975ZM932.6 1944.2V2018.6H946V2038.8H932.6V2068H908V2038.8H856.4V2020.8C858.933 2015.6 862.2 2009.73 866.2 2003.2C870.2 1996.53 874.6 1989.73 879.4 1982.8C884.2 1975.87 889.267 1969.07 894.6 1962.4C899.933 1955.6 905.267 1949.53 910.6 1944.2H932.6Z" fill="white"/>
<circle cx="1000" cy="2002" r="50" fill="#F841C4"/>
<path d="M997.04 2029.04C995.813 2029.04 994.507 2028.93 993.12 2028.72C991.787 2028.56 990.48 2028.35 989.2 2028.08C987.973 2027.81 986.827 2027.52 985.76 2027.2C984.693 2026.88 983.867 2026.59 983.28 2026.32L985.2 2018.08C986.427 2018.61 988 2019.17 989.92 2019.76C991.893 2020.35 994.24 2020.64 996.96 2020.64C1000.32 2020.64 1002.67 2019.92 1004 2018.48C1005.39 2017.04 1006.08 2015.25 1006.08 2013.12C1006.08 2010.51 1005.04 2008.69 1002.96 2007.68C1000.88 2006.61 998.24 2006.08 995.04 2006.08H992V1997.92H995.68C996.693 1997.92 997.707 1997.81 998.72 1997.6C999.733 1997.39 1000.64 1997.04 1001.44 1996.56C1002.24 1996.08 1002.88 1995.44 1003.36 1994.64C1003.89 1993.84 1004.16 1992.83 1004.16 1991.6C1004.16 1989.79 1003.6 1988.37 1002.48 1987.36C1001.41 1986.29 999.92 1985.76 998 1985.76C996.133 1985.76 994.267 1986.08 992.4 1986.72C990.587 1987.31 989.013 1988.05 987.68 1988.96L984.16 1981.76C985.6 1980.8 987.493 1979.84 989.84 1978.88C992.24 1977.87 994.933 1977.36 997.92 1977.36C1000.69 1977.36 1003.09 1977.71 1005.12 1978.4C1007.2 1979.09 1008.91 1980.08 1010.24 1981.36C1011.57 1982.59 1012.56 1984.05 1013.2 1985.76C1013.84 1987.47 1014.16 1989.31 1014.16 1991.28C1014.16 1993.25 1013.6 1995.15 1012.48 1996.96C1011.36 1998.77 1009.87 2000.16 1008 2001.12C1010.56 2002.19 1012.53 2003.76 1013.92 2005.84C1015.36 2007.92 1016.08 2010.4 1016.08 2013.28C1016.08 2015.57 1015.71 2017.68 1014.96 2019.6C1014.21 2021.52 1013.07 2023.2 1011.52 2024.64C1009.97 2026.03 1008 2027.12 1005.6 2027.92C1003.2 2028.67 1000.35 2029.04 997.04 2029.04Z" fill="white"/>
</svg>
