<svg width="3791" height="1431" viewBox="0 0 3791 1431" fill="none" xmlns="http://www.w3.org/2000/svg">
<rect width="200" height="200" rx="20" transform="matrix(-1 0 0 1 957 101)" fill="#FF6F66"/>
<path d="M896 160.4C890.267 169.2 885 177.467 880.2 185.2C875.4 192.933 870.933 200.333 866.8 207.4C862.667 214.333 858.733 221.067 855 227.6C851.4 234 847.933 240.333 844.6 246.6H897.8V267H816.2V252.8C819.133 247.067 822.267 241.067 825.6 234.8C828.933 228.4 832.667 221.6 836.8 214.4C840.933 207.2 845.4 199.4 850.2 191C855.133 182.6 860.533 173.467 866.4 163.6H818.8V143.2H896V160.4Z" fill="white"/>
<rect width="200" height="200" rx="20" transform="matrix(-1 0 0 1 1430 411)" fill="#FF8266"/>
<path d="M1330.8 509.8C1332.27 506.733 1333.93 502.867 1335.8 498.2C1337.8 493.533 1339.73 488.6 1341.6 483.4C1343.6 478.2 1345.47 472.933 1347.2 467.6C1349.07 462.267 1350.73 457.467 1352.2 453.2H1377.6C1375.07 460 1372.53 466.6 1370 473C1367.47 479.4 1364.8 485.733 1362 492C1359.2 498.267 1356.2 504.533 1353 510.8C1349.8 516.933 1346.33 523.267 1342.6 529.8V577H1317.8V530C1310.47 517.067 1304 504.467 1298.4 492.2C1292.93 479.8 1287.67 466.8 1282.6 453.2H1309C1312.07 462.8 1315.47 472.6 1319.2 482.6C1322.93 492.467 1326.8 501.533 1330.8 509.8Z" fill="white"/>
<rect width="200" height="200" rx="20" transform="matrix(-1 0 0 1 1666 765)" fill="#BBBBBB"/>
<path d="M1586 807.2V827.6H1553.4V931H1528.6V827.6H1496V807.2H1586ZM1619.5 884.5C1618.3 886.033 1617.07 887.667 1615.8 889.4C1614.53 891.133 1613.27 892.967 1612 894.9C1610.8 896.767 1609.63 898.667 1608.5 900.6C1607.37 902.533 1606.37 904.433 1605.5 906.3H1619.5V884.5ZM1631.8 869.1V906.3H1638.5V916.4H1631.8V931H1619.5V916.4H1593.7V907.4C1594.97 904.8 1596.6 901.867 1598.6 898.6C1600.6 895.267 1602.8 891.867 1605.2 888.4C1607.6 884.933 1610.13 881.533 1612.8 878.2C1615.47 874.8 1618.13 871.767 1620.8 869.1H1631.8Z" fill="white"/>
<rect width="200" height="200" rx="20" transform="matrix(-1 0 0 1 484 411)" fill="#BBBBBB"/>
<path d="M404 453.2V473.6H371.4V577H346.6V473.6H314V453.2H404ZM430.3 566.8V532.2C428.433 533.533 426.3 534.733 423.9 535.8C421.5 536.8 419.467 537.6 417.8 538.2L413.8 528C415.4 527.4 417.133 526.633 419 525.7C420.867 524.767 422.733 523.733 424.6 522.6C426.467 521.467 428.233 520.267 429.9 519C431.567 517.733 433 516.433 434.2 515.1H442.6V566.8H454.9V577H417.3V566.8H430.3Z" fill="white"/>
<path d="M1173.75 386.484L1125.82 314.351L1087.31 391.922L1173.75 386.484Z" fill="#FF6F66"/>
<path d="M1018.82 320.743L1102.12 362.093L1111.01 344.179L1027.71 302.828L1018.82 320.743Z" fill="#FF6F66"/>
<path d="M1502.91 750.693L1501.29 664.106L1427.12 708.798L1502.91 750.693Z" fill="#FF8266"/>
<path d="M1418.22 629.507L1455.64 691.613L1472.77 681.291L1435.35 619.186L1418.22 629.507Z" fill="#FF8266"/>
<path d="M1153.79 750.693L1155.4 664.106L1229.58 708.798L1153.79 750.693Z" fill="#FF8266"/>
<path d="M1238.48 629.507L1201.06 691.613L1183.93 681.291L1221.34 619.186L1238.48 629.507Z" fill="#FF8266"/>
<path d="M539.267 388.484L587.192 316.351L625.699 393.922L539.267 388.484Z" fill="#FF6F66"/>
<path d="M694.193 322.743L610.892 364.093L601.999 346.179L685.301 304.828L694.193 322.743Z" fill="#FF6F66"/>
<rect width="200" height="200" rx="20" transform="matrix(-1 0 0 1 2959 101)" fill="#FF9D66"/>
<path d="M2880.2 267C2877.67 260.2 2874.53 252.667 2870.8 244.4C2867.2 236.133 2863.4 227.867 2859.4 219.6C2855.53 227.467 2851.67 235.667 2847.8 244.2C2843.93 252.6 2840.6 260.2 2837.8 267H2811.2C2812.53 263.4 2814.47 259.067 2817 254C2819.67 248.933 2822.53 243.467 2825.6 237.6C2828.8 231.733 2832.13 225.733 2835.6 219.6C2839.07 213.333 2842.4 207.333 2845.6 201.6L2813.2 143.2H2839.8L2859.4 182.8L2880 143.2H2904.8L2873.2 201C2876.8 206.733 2880.33 212.733 2883.8 219C2887.27 225.267 2890.47 231.4 2893.4 237.4C2896.47 243.267 2899.13 248.8 2901.4 254C2903.67 259.067 2905.47 263.4 2906.8 267H2880.2Z" fill="white"/>
<rect width="200" height="200" rx="20" transform="matrix(-1 0 0 1 3432 411)" fill="#FF8266"/>
<path d="M3331.2 509.8C3329.73 506.733 3328.07 502.867 3326.2 498.2C3324.2 493.533 3322.27 488.6 3320.4 483.4C3318.4 478.2 3316.53 472.933 3314.8 467.6C3312.93 462.267 3311.27 457.467 3309.8 453.2H3284.4C3286.93 460 3289.47 466.6 3292 473C3294.53 479.4 3297.2 485.733 3300 492C3302.8 498.267 3305.8 504.533 3309 510.8C3312.2 516.933 3315.67 523.267 3319.4 529.8V577H3344.2V530C3351.53 517.067 3358 504.467 3363.6 492.2C3369.07 479.8 3374.33 466.8 3379.4 453.2H3353C3349.93 462.8 3346.53 472.6 3342.8 482.6C3339.07 492.467 3335.2 501.533 3331.2 509.8Z" fill="white"/>
<rect width="200" height="200" rx="20" transform="matrix(-1 0 0 1 2282 773)" fill="#BBBBBB"/>
<path d="M2202 815.2V835.6H2169.4V939H2144.6V835.6H2112V815.2H2202ZM2228.3 928.8V894.2C2226.43 895.533 2224.3 896.733 2221.9 897.8C2219.5 898.8 2217.47 899.6 2215.8 900.2L2211.8 890C2213.4 889.4 2215.13 888.633 2217 887.7C2218.87 886.767 2220.73 885.733 2222.6 884.6C2224.47 883.467 2226.23 882.267 2227.9 881C2229.57 879.733 2231 878.433 2232.2 877.1H2240.6V928.8H2252.9V939H2215.3V928.8H2228.3Z" fill="white"/>
<path d="M3175.75 386.484L3127.82 314.351L3089.31 391.922L3175.75 386.484Z" fill="#F841C4"/>
<path d="M3020.82 320.743L3104.12 362.093L3113.01 344.179L3029.71 302.828L3020.82 320.743Z" fill="#F841C4"/>
<path d="M3504.91 750.693L3503.29 664.106L3429.12 708.798L3504.91 750.693Z" fill="#FF8266"/>
<path d="M3420.22 629.507L3457.64 691.613L3474.77 681.291L3437.35 619.186L3420.22 629.507Z" fill="#FF8266"/>
<path d="M3155.79 750.693L3157.4 664.106L3231.58 708.798L3155.79 750.693Z" fill="#F841C4"/>
<path d="M3240.48 629.507L3203.06 691.613L3185.93 681.291L3223.34 619.186L3240.48 629.507Z" fill="#F841C4"/>
<path d="M2586.91 759.693L2585.29 673.106L2511.12 717.798L2586.91 759.693Z" fill="#F841C4"/>
<path d="M2502.22 638.507L2539.64 700.613L2556.77 690.291L2519.35 628.186L2502.22 638.507Z" fill="#F841C4"/>
<path d="M2237.79 759.693L2239.4 673.106L2313.58 717.798L2237.79 759.693Z" fill="#FF6F66"/>
<path d="M2322.48 638.507L2285.06 700.613L2267.93 690.291L2305.34 628.186L2322.48 638.507Z" fill="#FF6F66"/>
<path d="M2541.27 388.484L2589.19 316.351L2627.7 393.922L2541.27 388.484Z" fill="#F841C4"/>
<path d="M2696.19 322.743L2612.89 364.093L2604 346.179L2687.3 304.828L2696.19 322.743Z" fill="#F841C4"/>
<rect width="200" height="200" rx="20" transform="matrix(-1 0 0 1 2743 773)" fill="#BBBBBB"/>
<path d="M2663 815.2V835.6H2630.4V939H2605.6V835.6H2573V815.2H2663ZM2711.4 893.4C2711.4 895.533 2711 897.6 2710.2 899.6C2709.4 901.533 2708.33 903.433 2707 905.3C2705.67 907.167 2704.17 908.967 2702.5 910.7C2700.83 912.433 2699.13 914.1 2697.4 915.7C2696.53 916.5 2695.53 917.467 2694.4 918.6C2693.27 919.667 2692.2 920.8 2691.2 922C2690.2 923.133 2689.33 924.3 2688.6 925.5C2687.93 926.7 2687.6 927.8 2687.6 928.8H2714.2V939H2673.8C2673.6 938.333 2673.5 937.5 2673.5 936.5C2673.57 935.5 2673.6 934.8 2673.6 934.4C2673.6 931.067 2674.2 928 2675.4 925.2C2676.67 922.4 2678.23 919.833 2680.1 917.5C2682.03 915.1 2684.07 912.9 2686.2 910.9C2688.4 908.833 2690.43 906.867 2692.3 905C2694.23 903.133 2695.8 901.333 2697 899.6C2698.27 897.867 2698.9 896.1 2698.9 894.3C2698.9 891.767 2698.13 889.833 2696.6 888.5C2695.07 887.1 2693.13 886.4 2690.8 886.4C2688.87 886.4 2686.83 886.867 2684.7 887.8C2682.57 888.733 2680.47 890.3 2678.4 892.5L2672.3 883.9C2674.97 881.1 2678.03 879.033 2681.5 877.7C2685.03 876.367 2688.53 875.7 2692 875.7C2694.53 875.7 2696.97 876.067 2699.3 876.8C2701.63 877.533 2703.7 878.633 2705.5 880.1C2707.3 881.567 2708.73 883.433 2709.8 885.7C2710.87 887.9 2711.4 890.467 2711.4 893.4Z" fill="white"/>
<rect width="200" height="200" rx="20" transform="matrix(-1 0 0 1 3214 773)" fill="#BBBBBB"/>
<path d="M3134 815.2V835.6H3101.4V939H3076.6V835.6H3044V815.2H3134ZM3160.3 940.3C3158.77 940.3 3157.13 940.167 3155.4 939.9C3153.73 939.7 3152.1 939.433 3150.5 939.1C3148.97 938.767 3147.53 938.4 3146.2 938C3144.87 937.6 3143.83 937.233 3143.1 936.9L3145.5 926.6C3147.03 927.267 3149 927.967 3151.4 928.7C3153.87 929.433 3156.8 929.8 3160.2 929.8C3164.4 929.8 3167.33 928.9 3169 927.1C3170.73 925.3 3171.6 923.067 3171.6 920.4C3171.6 917.133 3170.3 914.867 3167.7 913.6C3165.1 912.267 3161.8 911.6 3157.8 911.6H3154V901.4H3158.6C3159.87 901.4 3161.13 901.267 3162.4 901C3163.67 900.733 3164.8 900.3 3165.8 899.7C3166.8 899.1 3167.6 898.3 3168.2 897.3C3168.87 896.3 3169.2 895.033 3169.2 893.5C3169.2 891.233 3168.5 889.467 3167.1 888.2C3165.77 886.867 3163.9 886.2 3161.5 886.2C3159.17 886.2 3156.83 886.6 3154.5 887.4C3152.23 888.133 3150.27 889.067 3148.6 890.2L3144.2 881.2C3146 880 3148.37 878.8 3151.3 877.6C3154.3 876.333 3157.67 875.7 3161.4 875.7C3164.87 875.7 3167.87 876.133 3170.4 877C3173 877.867 3175.13 879.1 3176.8 880.7C3178.47 882.233 3179.7 884.067 3180.5 886.2C3181.3 888.333 3181.7 890.633 3181.7 893.1C3181.7 895.567 3181 897.933 3179.6 900.2C3178.2 902.467 3176.33 904.2 3174 905.4C3177.2 906.733 3179.67 908.7 3181.4 911.3C3183.2 913.9 3184.1 917 3184.1 920.6C3184.1 923.467 3183.63 926.1 3182.7 928.5C3181.77 930.9 3180.33 933 3178.4 934.8C3176.47 936.533 3174 937.9 3171 938.9C3168 939.833 3164.43 940.3 3160.3 940.3Z" fill="white"/>
<rect width="200" height="200" rx="20" transform="matrix(-1 0 0 1 3650 773)" fill="#BBBBBB"/>
<path d="M3570 815.2V835.6H3537.4V939H3512.6V835.6H3480V815.2H3570ZM3603.5 892.5C3602.3 894.033 3601.07 895.667 3599.8 897.4C3598.53 899.133 3597.27 900.967 3596 902.9C3594.8 904.767 3593.63 906.667 3592.5 908.6C3591.37 910.533 3590.37 912.433 3589.5 914.3H3603.5V892.5ZM3615.8 877.1V914.3H3622.5V924.4H3615.8V939H3603.5V924.4H3577.7V915.4C3578.97 912.8 3580.6 909.867 3582.6 906.6C3584.6 903.267 3586.8 899.867 3589.2 896.4C3591.6 892.933 3594.13 889.533 3596.8 886.2C3599.47 882.8 3602.13 879.767 3604.8 877.1H3615.8Z" fill="white"/>
<rect width="200" height="200" rx="20" transform="matrix(-1 0 0 1 2512 411)" fill="#FF6F66"/>
<path d="M2451 470.4C2445.27 479.2 2440 487.467 2435.2 495.2C2430.4 502.933 2425.93 510.333 2421.8 517.4C2417.67 524.333 2413.73 531.067 2410 537.6C2406.4 544 2402.93 550.333 2399.6 556.6H2452.8V577H2371.2V562.8C2374.13 557.067 2377.27 551.067 2380.6 544.8C2383.93 538.4 2387.67 531.6 2391.8 524.4C2395.93 517.2 2400.4 509.4 2405.2 501C2410.13 492.6 2415.53 483.467 2421.4 473.6H2373.8V453.2H2451V470.4Z" fill="white"/>
<rect width="200" height="200" rx="20" transform="matrix(-1 0 0 1 1182 773)" fill="#FF9D66"/>
<path d="M1103.2 939C1100.67 932.2 1097.53 924.667 1093.8 916.4C1090.2 908.133 1086.4 899.867 1082.4 891.6C1078.53 899.467 1074.67 907.667 1070.8 916.2C1066.93 924.6 1063.6 932.2 1060.8 939H1034.2C1035.53 935.4 1037.47 931.067 1040 926C1042.67 920.933 1045.53 915.467 1048.6 909.6C1051.8 903.733 1055.13 897.733 1058.6 891.6C1062.07 885.333 1065.4 879.333 1068.6 873.6L1036.2 815.2H1062.8L1082.4 854.8L1103 815.2H1127.8L1096.2 873C1099.8 878.733 1103.33 884.733 1106.8 891C1110.27 897.267 1113.47 903.4 1116.4 909.4C1119.47 915.267 1122.13 920.8 1124.4 926C1126.67 931.067 1128.47 935.4 1129.8 939H1103.2Z" fill="white"/>
<rect width="200" height="200" rx="20" transform="matrix(-1 0 0 1 1033 1148)" fill="#BBBBBB"/>
<path d="M953 1190.2V1210.6H920.4V1314H895.6V1210.6H863V1190.2H953ZM1001.4 1268.4C1001.4 1270.53 1001 1272.6 1000.2 1274.6C999.4 1276.53 998.333 1278.43 997 1280.3C995.667 1282.17 994.167 1283.97 992.5 1285.7C990.833 1287.43 989.133 1289.1 987.4 1290.7C986.533 1291.5 985.533 1292.47 984.4 1293.6C983.267 1294.67 982.2 1295.8 981.2 1297C980.2 1298.13 979.333 1299.3 978.6 1300.5C977.933 1301.7 977.6 1302.8 977.6 1303.8H1004.2V1314H963.8C963.6 1313.33 963.5 1312.5 963.5 1311.5C963.567 1310.5 963.6 1309.8 963.6 1309.4C963.6 1306.07 964.2 1303 965.4 1300.2C966.667 1297.4 968.233 1294.83 970.1 1292.5C972.033 1290.1 974.067 1287.9 976.2 1285.9C978.4 1283.83 980.433 1281.87 982.3 1280C984.233 1278.13 985.8 1276.33 987 1274.6C988.267 1272.87 988.9 1271.1 988.9 1269.3C988.9 1266.77 988.133 1264.83 986.6 1263.5C985.067 1262.1 983.133 1261.4 980.8 1261.4C978.867 1261.4 976.833 1261.87 974.7 1262.8C972.567 1263.73 970.467 1265.3 968.4 1267.5L962.3 1258.9C964.967 1256.1 968.033 1254.03 971.5 1252.7C975.033 1251.37 978.533 1250.7 982 1250.7C984.533 1250.7 986.967 1251.07 989.3 1251.8C991.633 1252.53 993.7 1253.63 995.5 1255.1C997.3 1256.57 998.733 1258.43 999.8 1260.7C1000.87 1262.9 1001.4 1265.47 1001.4 1268.4Z" fill="white"/>
<rect width="200" height="200" rx="20" transform="matrix(-1 0 0 1 1307 1148)" fill="#BBBBBB"/>
<path d="M1227 1190.2V1210.6H1194.4V1314H1169.6V1210.6H1137V1190.2H1227ZM1253.3 1315.3C1251.77 1315.3 1250.13 1315.17 1248.4 1314.9C1246.73 1314.7 1245.1 1314.43 1243.5 1314.1C1241.97 1313.77 1240.53 1313.4 1239.2 1313C1237.87 1312.6 1236.83 1312.23 1236.1 1311.9L1238.5 1301.6C1240.03 1302.27 1242 1302.97 1244.4 1303.7C1246.87 1304.43 1249.8 1304.8 1253.2 1304.8C1257.4 1304.8 1260.33 1303.9 1262 1302.1C1263.73 1300.3 1264.6 1298.07 1264.6 1295.4C1264.6 1292.13 1263.3 1289.87 1260.7 1288.6C1258.1 1287.27 1254.8 1286.6 1250.8 1286.6H1247V1276.4H1251.6C1252.87 1276.4 1254.13 1276.27 1255.4 1276C1256.67 1275.73 1257.8 1275.3 1258.8 1274.7C1259.8 1274.1 1260.6 1273.3 1261.2 1272.3C1261.87 1271.3 1262.2 1270.03 1262.2 1268.5C1262.2 1266.23 1261.5 1264.47 1260.1 1263.2C1258.77 1261.87 1256.9 1261.2 1254.5 1261.2C1252.17 1261.2 1249.83 1261.6 1247.5 1262.4C1245.23 1263.13 1243.27 1264.07 1241.6 1265.2L1237.2 1256.2C1239 1255 1241.37 1253.8 1244.3 1252.6C1247.3 1251.33 1250.67 1250.7 1254.4 1250.7C1257.87 1250.7 1260.87 1251.13 1263.4 1252C1266 1252.87 1268.13 1254.1 1269.8 1255.7C1271.47 1257.23 1272.7 1259.07 1273.5 1261.2C1274.3 1263.33 1274.7 1265.63 1274.7 1268.1C1274.7 1270.57 1274 1272.93 1272.6 1275.2C1271.2 1277.47 1269.33 1279.2 1267 1280.4C1270.2 1281.73 1272.67 1283.7 1274.4 1286.3C1276.2 1288.9 1277.1 1292 1277.1 1295.6C1277.1 1298.47 1276.63 1301.1 1275.7 1303.5C1274.77 1305.9 1273.33 1308 1271.4 1309.8C1269.47 1311.53 1267 1312.9 1264 1313.9C1261 1314.83 1257.43 1315.3 1253.3 1315.3Z" fill="white"/>
<path d="M997.031 1134.72L1060.57 1075.87L977.835 1050.27L997.031 1134.72Z" fill="#FF9D66"/>
<path d="M1031.08 990.844L1009.65 1060.11L1028.75 1066.02L1050.19 996.756L1031.08 990.844Z" fill="#FF9D66"/>
<path d="M1166.63 1134.72L1103.1 1075.87L1185.83 1050.27L1166.63 1134.72Z" fill="#FF9D66"/>
<path d="M1132.58 990.844L1154.02 1060.11L1134.91 1066.02L1113.48 996.756L1132.58 990.844Z" fill="#FF9D66"/>
</svg>
