<svg width="1728" height="1080" viewBox="0 0 1728 1080" fill="none" xmlns="http://www.w3.org/2000/svg">
<g clip-path="url(#clip0_2:2)">
<rect width="1728" height="1080" fill="white"/>
<path d="M466 0L0 1056.5V0H466Z" fill="#FF0000" fill-opacity="0.3"/>
<path d="M1088 0L0 1056.5L466 -0.5L1088 0Z" fill="#FF4D00" fill-opacity="0.3"/>
<path d="M1728 582L0 1056.5V1080H1728V582Z" fill="#05FF00" fill-opacity="0.3"/>
<path d="M1728 582L0 1056.5L1088 0H1728V582Z" fill="#FFB800" fill-opacity="0.3"/>
<path d="M21.5 1062.5C35.5 1061.5 55 1062 61.5 1055.5C87.5 1029.5 87.4796 919 88.5 888.5C97.5 619.5 102 73.5 102 25" stroke="#0085FF" stroke-width="10"/>
<path d="M21.5 1062.5C46 1061.33 97.0645 1062.5 119 1011.5C149.323 941 162 816 166 759.5C176.5 648 199.8 121.2 199 26" stroke="#5200FF" stroke-width="10"/>
<path d="M22 1062.5C61.5 1057 269.5 1117.5 559 23.5" stroke="#AD00FF" stroke-width="10"/>
<path d="M22 1062.5C130 1062.5 708.5 870.5 1702.5 342" stroke="#FF0099" stroke-width="10"/>
<path d="M22 1063L1704 952.5" stroke="#FF4D00" stroke-width="10"/>
<path d="M22.5 1063H1704" stroke="#FF971D" stroke-width="10"/>
<path d="M482.792 206.215C482.283 208.115 481.479 209.763 480.38 211.159C479.249 212.547 477.857 213.624 476.202 214.388C474.516 215.144 472.572 215.572 470.371 215.673C468.147 215.732 465.666 215.395 462.929 214.662C460.289 213.955 458.053 213.028 456.22 211.881C454.364 210.693 452.911 209.355 451.861 207.866C450.811 206.377 450.159 204.753 449.905 202.994C449.62 201.226 449.731 199.393 450.241 197.493C450.75 195.593 451.57 193.95 452.701 192.562C453.8 191.165 455.176 190.085 456.83 189.32C458.485 188.556 460.408 188.139 462.6 188.071C464.769 187.962 467.174 188.261 469.814 188.968C472.551 189.702 474.863 190.666 476.751 191.863C478.616 193.018 480.089 194.344 481.172 195.842C482.222 197.332 482.89 198.96 483.176 200.727C483.429 202.486 483.301 204.316 482.792 206.215ZM475.644 204.3C476.007 202.948 475.535 201.682 474.229 200.504C472.922 199.326 470.692 198.314 467.536 197.469C464.51 196.658 462.152 196.44 460.464 196.816C458.776 197.192 457.751 198.056 457.388 199.408C457.026 200.761 457.482 202.021 458.756 203.191C460.03 204.361 462.18 205.351 465.207 206.162C468.362 207.007 470.8 207.247 472.52 206.879C474.241 206.512 475.282 205.652 475.644 204.3ZM499.662 175.712C495.968 178.035 492.044 179.606 487.891 180.426C483.714 181.204 479.371 180.99 474.863 179.782C470.356 178.574 466.504 176.593 463.308 173.839C460.088 171.043 457.46 167.716 455.423 163.858L460.226 160.227C461.28 161.959 462.382 163.514 463.531 164.892C464.689 166.237 465.938 167.435 467.279 168.484C468.596 169.493 470.037 170.362 471.602 171.092C473.134 171.813 474.834 172.423 476.701 172.924C478.569 173.424 480.362 173.75 482.082 173.9C483.769 174.041 485.452 174.009 487.129 173.803C488.783 173.556 490.447 173.139 492.123 172.553C493.807 171.934 495.538 171.138 497.317 170.166L499.662 175.712ZM494.678 159.54L470.529 153.07L472.341 146.308L475.394 146.505L475.446 146.312C474.771 145.096 474.272 143.737 473.95 142.236C473.595 140.726 473.655 139.085 474.13 137.315C474.846 134.642 476.269 132.936 478.4 132.195C480.499 131.446 483.046 131.473 486.04 132.275L500.915 136.261L498.689 144.568L484.877 140.867C483.524 140.505 482.486 140.451 481.762 140.705C481.047 140.928 480.547 141.57 480.262 142.633C480.055 143.406 480.035 144.125 480.202 144.791C480.368 145.457 480.655 146.189 481.062 146.988L496.903 151.233L494.678 159.54ZM485.803 121.569L482.486 121.198C481.384 117.969 480.324 115.356 479.307 113.358C478.298 111.327 477.262 110.17 476.2 109.885C475.362 109.661 474.65 109.746 474.061 110.14C473.481 110.502 473.065 111.15 472.815 112.084C472.453 113.436 472.833 114.85 473.957 116.324L469.96 118.877C468.869 117.411 468.194 115.936 467.936 114.452C467.646 112.959 467.716 111.408 468.148 109.798C468.769 107.48 469.849 105.768 471.388 104.662C472.894 103.547 474.662 103.261 476.69 103.805C478.139 104.193 479.366 105.022 480.372 106.293C481.345 107.554 482.292 109.171 483.213 111.143L484.766 105.348L489.789 106.693L485.803 121.569ZM520.948 96.2725L516.144 99.903C515.09 98.1711 513.984 96.6324 512.826 95.2868C511.677 93.9091 510.444 92.7159 509.126 91.7073C507.786 90.6579 506.349 89.7726 504.817 89.0515C503.252 88.3217 501.537 87.7066 499.669 87.2062C497.802 86.7059 496.024 86.3849 494.337 86.2433C492.617 86.0931 490.93 86.1415 489.277 86.3886C487.599 86.5949 485.919 87.0073 484.235 87.6258C482.559 88.2121 480.832 88.9916 479.053 89.9643L476.708 84.4185C480.402 82.0954 484.338 80.5445 488.515 79.7658C492.668 78.9462 496.999 79.1403 501.507 80.3482C506.014 81.556 509.878 83.5575 513.098 86.3527C516.294 89.1071 518.91 92.4137 520.948 96.2725Z" fill="#AD00FF"/>
<path d="M1406.84 467.625C1405.1 468.533 1403.34 469.053 1401.57 469.187C1399.78 469.29 1398.05 468.991 1396.36 468.288C1394.67 467.555 1393.04 466.411 1391.48 464.856C1389.93 463.256 1388.5 461.2 1387.19 458.687C1385.93 456.262 1385.11 453.987 1384.71 451.861C1384.33 449.691 1384.34 447.715 1384.73 445.935C1385.12 444.154 1385.87 442.577 1387 441.201C1388.11 439.797 1389.54 438.64 1391.28 437.732C1393.03 436.824 1394.79 436.318 1396.58 436.215C1398.35 436.081 1400.08 436.366 1401.76 437.069C1403.44 437.772 1405.05 438.909 1406.58 440.479C1408.12 442.005 1409.53 443.98 1410.79 446.404C1412.1 448.917 1412.95 451.274 1413.34 453.474C1413.75 455.629 1413.77 457.612 1413.39 459.422C1413.01 461.202 1412.26 462.795 1411.15 464.2C1410.02 465.575 1408.59 466.716 1406.84 467.625ZM1403.42 461.061C1404.67 460.414 1405.28 459.211 1405.27 457.452C1405.25 455.693 1404.49 453.365 1402.98 450.467C1401.54 447.688 1400.1 445.803 1398.69 444.812C1397.27 443.822 1395.94 443.65 1394.7 444.296C1393.46 444.943 1392.83 446.131 1392.83 447.86C1392.83 449.59 1393.55 451.844 1395 454.623C1396.51 457.521 1397.98 459.48 1399.41 460.5C1400.85 461.52 1402.18 461.707 1403.42 461.061ZM1440.73 459.454C1436.52 458.3 1432.71 456.469 1429.3 453.96C1425.9 451.407 1423.13 448.06 1420.97 443.921C1418.82 439.781 1417.68 435.603 1417.55 431.386C1417.43 427.124 1418.11 422.938 1419.58 418.829L1425.5 419.918C1424.94 421.865 1424.54 423.728 1424.3 425.506C1424.09 427.269 1424.05 428.999 1424.18 430.696C1424.33 432.349 1424.66 433.998 1425.18 435.645C1425.68 437.262 1426.38 438.927 1427.27 440.642C1428.16 442.357 1429.14 443.899 1430.19 445.269C1431.22 446.609 1432.38 447.827 1433.67 448.924C1434.97 449.977 1436.4 450.922 1437.96 451.762C1439.56 452.585 1441.31 453.325 1443.23 453.979L1440.73 459.454ZM1449.28 444.854L1437.74 422.679L1443.95 419.447L1445.87 421.831L1446.04 421.738C1446.48 420.419 1447.15 419.133 1448.04 417.881C1448.91 416.6 1450.16 415.536 1451.79 414.689C1454.24 413.412 1456.46 413.309 1458.45 414.379C1460.42 415.421 1462.12 417.316 1463.55 420.066L1470.66 433.726L1463.03 437.697L1456.43 425.013C1455.78 423.771 1455.12 422.969 1454.44 422.607C1453.8 422.23 1452.99 422.296 1452.01 422.804C1451.3 423.173 1450.76 423.644 1450.38 424.217C1450 424.79 1449.65 425.496 1449.34 426.336L1456.91 440.883L1449.28 444.854ZM1517.25 410.15C1515.77 410.919 1514.35 411.36 1512.98 411.472C1511.64 411.568 1510.37 411.403 1509.17 410.975C1507.98 410.502 1506.89 409.775 1505.89 408.792C1504.92 407.794 1504.06 406.571 1503.3 405.122L1495.08 389.333L1488.43 392.796L1485.34 386.853L1499.62 379.419L1511.07 401.417C1511.41 402.068 1511.79 402.546 1512.21 402.852C1512.63 403.158 1513.06 403.367 1513.5 403.48C1513.94 403.547 1514.39 403.54 1514.84 403.458C1515.3 403.331 1515.72 403.168 1516.1 402.967C1517.02 402.49 1517.98 401.729 1518.97 400.684L1523.52 405.418C1523.02 405.903 1522.55 406.358 1522.09 406.783C1521.67 407.193 1521.21 407.58 1520.72 407.946C1520.24 408.312 1519.72 408.678 1519.15 409.045C1518.59 409.412 1517.96 409.78 1517.25 410.15ZM1539.81 398.407C1538.33 399.177 1536.76 399.672 1535.11 399.893C1533.48 400.069 1531.87 399.946 1530.3 399.524C1528.71 399.073 1527.21 398.292 1525.81 397.182C1524.43 396.057 1523.27 394.577 1522.32 392.744C1521.36 390.911 1520.82 389.108 1520.68 387.336C1520.58 385.549 1520.81 383.89 1521.36 382.36C1521.9 380.801 1522.72 379.416 1523.82 378.205C1524.94 376.95 1526.23 375.937 1527.71 375.168C1529.16 374.413 1530.7 373.948 1532.34 373.773C1533.99 373.552 1535.61 373.667 1537.2 374.118C1538.77 374.54 1540.26 375.306 1541.66 376.416C1543.07 377.526 1544.25 378.998 1545.2 380.831C1546.15 382.664 1546.68 384.474 1546.79 386.262C1546.89 388.049 1546.67 389.723 1546.13 391.282C1545.57 392.812 1544.74 394.204 1543.63 395.46C1542.53 396.671 1541.26 397.653 1539.81 398.407ZM1536.62 392.287C1537.92 391.61 1538.6 390.637 1538.65 389.369C1538.69 388.071 1538.27 386.58 1537.39 384.894C1536.52 383.209 1535.54 382.025 1534.47 381.341C1533.39 380.629 1532.2 380.611 1530.89 381.288C1529.59 381.965 1528.92 382.953 1528.89 384.25C1528.83 385.519 1529.24 386.995 1530.12 388.681C1531 390.366 1531.98 391.565 1533.06 392.278C1534.13 392.961 1535.32 392.964 1536.62 392.287ZM1569.5 393.884C1568.11 394.607 1566.76 395.181 1565.44 395.605C1564.16 396.043 1562.95 396.279 1561.81 396.313C1560.66 396.346 1559.63 396.147 1558.73 395.714C1557.88 395.296 1557.19 394.584 1556.66 393.579C1555.74 391.805 1556.12 389.801 1557.82 387.567L1557.72 387.389C1556.89 387.298 1556.09 387.073 1555.34 386.712C1554.62 386.336 1554.01 385.675 1553.52 384.729C1553.12 383.961 1552.98 383.076 1553.1 382.075C1553.22 381.074 1553.52 380.108 1554.01 379.175L1553.92 378.998C1552.78 378.912 1551.67 378.535 1550.57 377.867C1549.5 377.184 1548.63 376.192 1547.95 374.891C1547.24 373.531 1546.89 372.21 1546.9 370.927C1546.89 369.615 1547.18 368.396 1547.76 367.268C1548.32 366.111 1549.09 365.069 1550.08 364.144C1551.09 363.203 1552.25 362.394 1553.55 361.717C1554.94 360.993 1556.29 360.517 1557.59 360.286L1566.55 355.623L1569.42 361.122L1565.42 363.2C1565.71 363.389 1566.02 363.66 1566.36 364.012C1566.72 364.349 1567.02 364.74 1567.25 365.183C1567.92 366.484 1568.27 367.731 1568.29 368.923C1568.3 370.086 1568.02 371.186 1567.47 372.224C1566.95 373.246 1566.19 374.205 1565.19 375.101C1564.21 375.952 1563.05 376.724 1561.72 377.417C1560.86 377.863 1559.88 378.244 1558.77 378.561C1558.61 378.906 1558.51 379.199 1558.49 379.438C1558.48 379.632 1558.56 379.891 1558.73 380.216C1558.99 380.719 1559.44 380.935 1560.08 380.865C1560.7 380.766 1561.64 380.393 1562.88 379.746L1566.65 377.784C1569.6 376.245 1572.12 375.518 1574.19 375.603C1576.25 375.659 1577.81 376.707 1578.87 378.747C1579.5 379.959 1579.75 381.223 1579.61 382.537C1579.51 383.865 1579.05 385.192 1578.24 386.518C1577.43 387.843 1576.28 389.136 1574.79 390.398C1573.34 391.644 1571.57 392.806 1569.5 393.884ZM1559.37 372.893C1560.11 372.508 1560.61 371.926 1560.88 371.146C1561.15 370.367 1561.01 369.445 1560.46 368.38C1559.92 367.345 1559.26 366.73 1558.48 366.534C1557.69 366.308 1556.92 366.388 1556.18 366.773C1555.44 367.157 1554.94 367.74 1554.67 368.519C1554.41 369.254 1554.55 370.139 1555.09 371.174C1555.64 372.238 1556.3 372.891 1557.07 373.132C1557.86 373.357 1558.63 373.278 1559.37 372.893ZM1568.25 388.559C1569.76 387.774 1570.89 386.943 1571.63 386.066C1572.43 385.204 1572.66 384.462 1572.34 383.841C1572.03 383.249 1571.54 383.034 1570.87 383.194C1570.2 383.354 1569.31 383.726 1568.18 384.311L1565.97 385.465C1565.11 385.912 1564.41 386.236 1563.88 386.439C1563.36 386.671 1562.89 386.843 1562.46 386.954C1562.21 387.42 1562.06 387.818 1562.01 388.147C1561.95 388.476 1562.01 388.803 1562.18 389.128C1562.55 389.837 1563.28 390.116 1564.36 389.964C1565.45 389.813 1566.75 389.344 1568.25 388.559ZM1590.54 382.032L1588.57 379.336C1590.21 376.342 1591.42 373.795 1592.2 371.695C1593.02 369.579 1593.17 368.034 1592.66 367.058C1592.26 366.289 1591.72 365.821 1591.03 365.654C1590.37 365.47 1589.61 365.602 1588.76 366.048C1587.51 366.695 1586.73 367.93 1586.4 369.755L1581.82 368.532C1582.16 366.738 1582.79 365.244 1583.71 364.051C1584.62 362.829 1585.81 361.833 1587.29 361.063C1589.42 359.955 1591.41 359.594 1593.26 359.981C1595.1 360.339 1596.51 361.449 1597.48 363.312C1598.17 364.642 1598.38 366.093 1598.11 367.663C1597.85 369.262 1597.31 371.068 1596.48 373.079L1601.8 370.308L1604.2 374.921L1590.54 382.032ZM1635.43 347.95L1623.89 325.775L1630.1 322.542L1632.02 324.926L1632.2 324.834C1632.64 323.515 1633.3 322.229 1634.19 320.977C1635.06 319.696 1636.31 318.632 1637.94 317.785C1640.39 316.508 1642.61 316.404 1644.6 317.475C1646.57 318.517 1648.27 320.412 1649.7 323.162L1656.81 336.822L1649.18 340.793L1642.58 328.109C1641.93 326.867 1641.27 326.065 1640.6 325.703C1639.95 325.326 1639.14 325.392 1638.16 325.9C1637.45 326.269 1636.91 326.74 1636.53 327.313C1636.15 327.886 1635.8 328.592 1635.49 329.432L1643.06 343.979L1635.43 347.95ZM1673.24 338.419L1667.31 337.33C1667.88 335.383 1668.27 333.528 1668.48 331.765C1668.71 329.987 1668.76 328.272 1668.61 326.619C1668.48 324.922 1668.16 323.264 1667.66 321.648C1667.14 320.001 1666.44 318.32 1665.54 316.606C1664.65 314.891 1663.69 313.363 1662.65 312.023C1661.6 310.654 1660.43 309.443 1659.13 308.391C1657.84 307.294 1656.4 306.333 1654.81 305.509C1653.24 304.67 1651.5 303.923 1649.58 303.269L1652.09 297.794C1656.3 298.948 1660.1 300.801 1663.49 303.355C1666.9 305.864 1669.69 309.188 1671.84 313.327C1674 317.466 1675.13 321.667 1675.25 325.929C1675.37 330.147 1674.7 334.31 1673.24 338.419Z" fill="#FF0099"/>
<path d="M1578.27 936.563C1576.31 936.734 1574.48 936.542 1572.79 935.987C1571.1 935.399 1569.62 934.458 1568.33 933.165C1567.04 931.839 1565.98 930.159 1565.13 928.125C1564.31 926.055 1563.78 923.609 1563.53 920.786C1563.3 918.064 1563.4 915.645 1563.85 913.531C1564.33 911.381 1565.1 909.558 1566.14 908.061C1567.18 906.565 1568.48 905.397 1570.05 904.557C1571.61 903.684 1573.37 903.162 1575.33 902.991C1577.29 902.819 1579.11 903.028 1580.8 903.616C1582.49 904.171 1583.98 905.095 1585.26 906.388C1586.55 907.681 1587.6 909.346 1588.41 911.383C1589.25 913.383 1589.8 915.745 1590.03 918.468C1590.28 921.291 1590.16 923.794 1589.69 925.977C1589.24 928.124 1588.5 929.963 1587.46 931.492C1586.42 932.988 1585.12 934.173 1583.55 935.046C1581.99 935.886 1580.23 936.391 1578.27 936.563ZM1577.62 929.191C1579.02 929.069 1580.04 928.193 1580.7 926.562C1581.36 924.932 1581.55 922.489 1581.27 919.235C1580.99 916.114 1580.39 913.824 1579.46 912.366C1578.53 910.909 1577.37 910.241 1575.97 910.363C1574.58 910.485 1573.55 911.344 1572.89 912.942C1572.22 914.539 1572.03 916.898 1572.3 920.019C1572.59 923.274 1573.2 925.646 1574.13 927.137C1575.06 928.628 1576.23 929.313 1577.62 929.191ZM1612.7 941.982C1609.25 939.306 1606.43 936.156 1604.24 932.533C1602.08 928.874 1600.8 924.72 1600.39 920.071C1599.99 915.422 1600.53 911.125 1602.03 907.18C1603.55 903.199 1605.78 899.591 1608.71 896.356L1613.76 899.628C1612.5 901.211 1611.41 902.779 1610.51 904.33C1609.64 905.878 1608.94 907.461 1608.42 909.08C1607.92 910.663 1607.59 912.314 1607.44 914.034C1607.29 915.72 1607.3 917.527 1607.47 919.453C1607.63 921.378 1607.94 923.175 1608.39 924.843C1608.83 926.477 1609.44 928.047 1610.21 929.552C1611 931.021 1611.97 932.443 1613.09 933.817C1614.25 935.188 1615.59 936.543 1617.11 937.882L1612.7 941.982ZM1626.19 931.767L1624.01 906.863L1630.99 906.252L1631.84 909.189L1632.04 909.171C1632.96 908.121 1634.06 907.188 1635.36 906.371C1636.66 905.522 1638.22 905.017 1640.05 904.857C1642.8 904.616 1644.9 905.37 1646.32 907.119C1647.74 908.835 1648.59 911.237 1648.86 914.326L1650.2 929.667L1641.63 930.416L1640.39 916.171C1640.26 914.776 1639.96 913.782 1639.47 913.189C1639.02 912.593 1638.24 912.343 1637.15 912.439C1636.35 912.509 1635.67 912.736 1635.1 913.12C1634.53 913.504 1633.94 914.024 1633.33 914.68L1634.76 931.018L1626.19 931.767ZM1664.76 937.427L1659.71 934.155C1660.97 932.572 1662.04 931.007 1662.91 929.458C1663.81 927.907 1664.51 926.34 1665.01 924.758C1665.54 923.139 1665.88 921.486 1666.03 919.8C1666.18 918.08 1666.17 916.257 1666 914.331C1665.84 912.405 1665.53 910.625 1665.08 908.991C1664.64 907.324 1664.02 905.755 1663.22 904.286C1662.45 902.78 1661.49 901.342 1660.33 899.971C1659.21 898.597 1657.88 897.241 1656.36 895.901L1660.77 891.802C1664.22 894.478 1667.02 897.646 1669.18 901.305C1671.37 904.928 1672.67 909.063 1673.08 913.712C1673.48 918.361 1672.92 922.676 1671.4 926.658C1669.9 930.603 1667.69 934.193 1664.76 937.427Z" fill="#FF4D00"/>
<path d="M1228 1038.6C1226.03 1038.6 1224.23 1038.25 1222.6 1037.55C1220.97 1036.82 1219.57 1035.75 1218.4 1034.35C1217.23 1032.92 1216.32 1031.15 1215.65 1029.05C1215.02 1026.92 1214.7 1024.43 1214.7 1021.6C1214.7 1018.87 1215.02 1016.47 1215.65 1014.4C1216.32 1012.3 1217.23 1010.55 1218.4 1009.15C1219.57 1007.75 1220.97 1006.7 1222.6 1006C1224.23 1005.27 1226.03 1004.9 1228 1004.9C1229.97 1004.9 1231.77 1005.27 1233.4 1006C1235.03 1006.7 1236.43 1007.75 1237.6 1009.15C1238.77 1010.55 1239.67 1012.3 1240.3 1014.4C1240.97 1016.47 1241.3 1018.87 1241.3 1021.6C1241.3 1024.43 1240.97 1026.92 1240.3 1029.05C1239.67 1031.15 1238.77 1032.92 1237.6 1034.35C1236.43 1035.75 1235.03 1036.82 1233.4 1037.55C1231.77 1038.25 1229.97 1038.6 1228 1038.6ZM1228 1031.2C1229.4 1031.2 1230.5 1030.42 1231.3 1028.85C1232.1 1027.28 1232.5 1024.87 1232.5 1021.6C1232.5 1018.47 1232.1 1016.13 1231.3 1014.6C1230.5 1013.07 1229.4 1012.3 1228 1012.3C1226.6 1012.3 1225.5 1013.07 1224.7 1014.6C1223.9 1016.13 1223.5 1018.47 1223.5 1021.6C1223.5 1024.87 1223.9 1027.28 1224.7 1028.85C1225.5 1030.42 1226.6 1031.2 1228 1031.2ZM1261.83 1047C1258.63 1044.03 1256.1 1040.65 1254.23 1036.85C1252.4 1033.02 1251.48 1028.77 1251.48 1024.1C1251.48 1019.43 1252.4 1015.2 1254.23 1011.4C1256.1 1007.57 1258.63 1004.17 1261.83 1001.2L1266.58 1004.9C1265.18 1006.37 1263.96 1007.83 1262.93 1009.3C1261.93 1010.77 1261.1 1012.28 1260.43 1013.85C1259.8 1015.38 1259.33 1017 1259.03 1018.7C1258.73 1020.37 1258.58 1022.17 1258.58 1024.1C1258.58 1026.03 1258.73 1027.85 1259.03 1029.55C1259.33 1031.22 1259.8 1032.83 1260.43 1034.4C1261.1 1035.93 1261.93 1037.43 1262.93 1038.9C1263.96 1040.37 1265.18 1041.83 1266.58 1043.3L1261.83 1047ZM1276.56 1038V1031.1H1284.86V1014.7H1277.86V1009.4C1278.99 1009.23 1279.99 1009.05 1280.86 1008.85C1281.73 1008.65 1282.51 1008.43 1283.21 1008.2C1283.94 1007.93 1284.61 1007.65 1285.21 1007.35C1285.84 1007.05 1286.49 1006.7 1287.16 1006.3H1293.46V1031.1H1300.26V1038H1276.56ZM1314.09 1047L1309.34 1043.3C1310.74 1041.83 1311.94 1040.37 1312.94 1038.9C1313.97 1037.43 1314.81 1035.93 1315.44 1034.4C1316.11 1032.83 1316.59 1031.22 1316.89 1029.55C1317.19 1027.85 1317.34 1026.03 1317.34 1024.1C1317.34 1022.17 1317.19 1020.37 1316.89 1018.7C1316.59 1017 1316.11 1015.38 1315.44 1013.85C1314.81 1012.28 1313.97 1010.77 1312.94 1009.3C1311.94 1007.83 1310.74 1006.37 1309.34 1004.9L1314.09 1001.2C1317.29 1004.17 1319.81 1007.57 1321.64 1011.4C1323.51 1015.2 1324.44 1019.43 1324.44 1024.1C1324.44 1028.77 1323.51 1033.02 1321.64 1036.85C1319.81 1040.65 1317.29 1044.03 1314.09 1047ZM1374.4 1038.6C1372.6 1038.6 1371.04 1038.35 1369.7 1037.85C1368.37 1037.32 1367.25 1036.62 1366.35 1035.75C1365.45 1034.88 1364.79 1033.88 1364.35 1032.75C1363.92 1031.62 1363.7 1030.43 1363.7 1029.2C1363.7 1028.13 1363.84 1027.17 1364.1 1026.3C1364.37 1025.43 1364.72 1024.65 1365.15 1023.95C1365.62 1023.25 1366.14 1022.62 1366.7 1022.05C1367.3 1021.48 1367.94 1020.95 1368.6 1020.45C1367.94 1019.22 1367.42 1018.03 1367.05 1016.9C1366.69 1015.73 1366.5 1014.67 1366.5 1013.7C1366.5 1012.53 1366.69 1011.42 1367.05 1010.35C1367.45 1009.28 1368.02 1008.35 1368.75 1007.55C1369.49 1006.75 1370.37 1006.12 1371.4 1005.65C1372.44 1005.15 1373.6 1004.9 1374.9 1004.9C1377.5 1004.9 1379.55 1005.6 1381.05 1007C1382.55 1008.37 1383.3 1010.23 1383.3 1012.6C1383.3 1013.63 1383.14 1014.57 1382.8 1015.4C1382.47 1016.23 1382.02 1017.02 1381.45 1017.75C1380.92 1018.45 1380.3 1019.12 1379.6 1019.75C1378.94 1020.35 1378.24 1020.93 1377.5 1021.5C1378.2 1022.3 1378.97 1023.08 1379.8 1023.85C1380.64 1024.62 1381.5 1025.35 1382.4 1026.05C1382.9 1025.08 1383.34 1024.05 1383.7 1022.95C1384.1 1021.82 1384.44 1020.6 1384.7 1019.3H1392.5C1392.04 1021.2 1391.45 1023.03 1390.75 1024.8C1390.05 1026.57 1389.22 1028.28 1388.25 1029.95C1389.79 1030.88 1391.17 1031.47 1392.4 1031.7L1390.4 1038.6C1388 1038.03 1385.69 1037.05 1383.45 1035.65C1382.22 1036.58 1380.85 1037.32 1379.35 1037.85C1377.85 1038.35 1376.2 1038.6 1374.4 1038.6ZM1373.55 1013.7C1373.55 1014.6 1373.79 1015.6 1374.25 1016.7C1375.02 1016.13 1375.64 1015.53 1376.1 1014.9C1376.57 1014.23 1376.8 1013.47 1376.8 1012.6C1376.8 1011.9 1376.67 1011.38 1376.4 1011.05C1376.17 1010.68 1375.74 1010.5 1375.1 1010.5C1374.67 1010.5 1374.3 1010.77 1374 1011.3C1373.7 1011.83 1373.55 1012.63 1373.55 1013.7ZM1375.5 1032.1C1376.17 1032.1 1376.89 1031.88 1377.65 1031.45C1376.72 1030.65 1375.82 1029.82 1374.95 1028.95C1374.09 1028.05 1373.27 1027.13 1372.5 1026.2C1372.04 1026.97 1371.8 1027.8 1371.8 1028.7C1371.8 1029.7 1372.12 1030.52 1372.75 1031.15C1373.42 1031.78 1374.34 1032.1 1375.5 1032.1ZM1437.86 1038.6C1435.9 1038.6 1434.1 1038.25 1432.46 1037.55C1430.83 1036.82 1429.43 1035.75 1428.26 1034.35C1427.1 1032.92 1426.18 1031.15 1425.51 1029.05C1424.88 1026.92 1424.56 1024.43 1424.56 1021.6C1424.56 1018.87 1424.88 1016.47 1425.51 1014.4C1426.18 1012.3 1427.1 1010.55 1428.26 1009.15C1429.43 1007.75 1430.83 1006.7 1432.46 1006C1434.1 1005.27 1435.9 1004.9 1437.86 1004.9C1439.83 1004.9 1441.63 1005.27 1443.26 1006C1444.9 1006.7 1446.3 1007.75 1447.46 1009.15C1448.63 1010.55 1449.53 1012.3 1450.16 1014.4C1450.83 1016.47 1451.16 1018.87 1451.16 1021.6C1451.16 1024.43 1450.83 1026.92 1450.16 1029.05C1449.53 1031.15 1448.63 1032.92 1447.46 1034.35C1446.3 1035.75 1444.9 1036.82 1443.26 1037.55C1441.63 1038.25 1439.83 1038.6 1437.86 1038.6ZM1437.86 1031.2C1439.26 1031.2 1440.36 1030.42 1441.16 1028.85C1441.96 1027.28 1442.36 1024.87 1442.36 1021.6C1442.36 1018.47 1441.96 1016.13 1441.16 1014.6C1440.36 1013.07 1439.26 1012.3 1437.86 1012.3C1436.46 1012.3 1435.36 1013.07 1434.56 1014.6C1433.76 1016.13 1433.36 1018.47 1433.36 1021.6C1433.36 1024.87 1433.76 1027.28 1434.56 1028.85C1435.36 1030.42 1436.46 1031.2 1437.86 1031.2ZM1471.69 1047C1468.49 1044.03 1465.96 1040.65 1464.09 1036.85C1462.26 1033.02 1461.34 1028.77 1461.34 1024.1C1461.34 1019.43 1462.26 1015.2 1464.09 1011.4C1465.96 1007.57 1468.49 1004.17 1471.69 1001.2L1476.44 1004.9C1475.04 1006.37 1473.83 1007.83 1472.79 1009.3C1471.79 1010.77 1470.96 1012.28 1470.29 1013.85C1469.66 1015.38 1469.19 1017 1468.89 1018.7C1468.59 1020.37 1468.44 1022.17 1468.44 1024.1C1468.44 1026.03 1468.59 1027.85 1468.89 1029.55C1469.19 1031.22 1469.66 1032.83 1470.29 1034.4C1470.96 1035.93 1471.79 1037.43 1472.79 1038.9C1473.83 1040.37 1475.04 1041.83 1476.44 1043.3L1471.69 1047ZM1502.37 1038.6C1500.71 1038.6 1499.24 1038.33 1497.97 1037.8C1496.74 1037.27 1495.69 1036.53 1494.82 1035.6C1493.99 1034.63 1493.36 1033.48 1492.92 1032.15C1492.52 1030.82 1492.32 1029.33 1492.32 1027.7V1009.9H1484.82V1003.2H1500.92V1028C1500.92 1028.73 1501.04 1029.33 1501.27 1029.8C1501.51 1030.27 1501.79 1030.65 1502.12 1030.95C1502.49 1031.22 1502.89 1031.42 1503.32 1031.55C1503.79 1031.65 1504.24 1031.7 1504.67 1031.7C1505.71 1031.7 1506.91 1031.47 1508.27 1031L1510.12 1037.3C1509.46 1037.5 1508.82 1037.68 1508.22 1037.85C1507.66 1038.02 1507.07 1038.15 1506.47 1038.25C1505.87 1038.35 1505.24 1038.43 1504.57 1038.5C1503.91 1038.57 1503.17 1038.6 1502.37 1038.6ZM1527.8 1038.6C1526.14 1038.6 1524.52 1038.32 1522.95 1037.75C1521.42 1037.15 1520.05 1036.3 1518.85 1035.2C1517.65 1034.07 1516.69 1032.68 1515.95 1031.05C1515.25 1029.42 1514.9 1027.57 1514.9 1025.5C1514.9 1023.43 1515.25 1021.58 1515.95 1019.95C1516.69 1018.32 1517.65 1016.95 1518.85 1015.85C1520.05 1014.72 1521.42 1013.87 1522.95 1013.3C1524.52 1012.7 1526.14 1012.4 1527.8 1012.4C1529.44 1012.4 1531.02 1012.7 1532.55 1013.3C1534.12 1013.87 1535.5 1014.72 1536.7 1015.85C1537.9 1016.95 1538.87 1018.32 1539.6 1019.95C1540.34 1021.58 1540.7 1023.43 1540.7 1025.5C1540.7 1027.57 1540.34 1029.42 1539.6 1031.05C1538.87 1032.68 1537.9 1034.07 1536.7 1035.2C1535.5 1036.3 1534.12 1037.15 1532.55 1037.75C1531.02 1038.32 1529.44 1038.6 1527.8 1038.6ZM1527.8 1031.7C1529.27 1031.7 1530.32 1031.15 1530.95 1030.05C1531.59 1028.92 1531.9 1027.4 1531.9 1025.5C1531.9 1023.6 1531.59 1022.1 1530.95 1021C1530.32 1019.87 1529.27 1019.3 1527.8 1019.3C1526.34 1019.3 1525.29 1019.87 1524.65 1021C1524.02 1022.1 1523.7 1023.6 1523.7 1025.5C1523.7 1027.4 1524.02 1028.92 1524.65 1030.05C1525.29 1031.15 1526.34 1031.7 1527.8 1031.7ZM1556.24 1048.3C1554.67 1048.3 1553.2 1048.18 1551.84 1047.95C1550.5 1047.75 1549.32 1047.4 1548.29 1046.9C1547.25 1046.4 1546.44 1045.75 1545.84 1044.95C1545.27 1044.18 1544.99 1043.23 1544.99 1042.1C1544.99 1040.1 1546.25 1038.5 1548.79 1037.3V1037.1C1548.09 1036.63 1547.49 1036.07 1546.99 1035.4C1546.52 1034.73 1546.29 1033.87 1546.29 1032.8C1546.29 1031.93 1546.57 1031.08 1547.14 1030.25C1547.7 1029.42 1548.42 1028.7 1549.29 1028.1V1027.9C1548.32 1027.3 1547.5 1026.45 1546.84 1025.35C1546.2 1024.25 1545.89 1022.97 1545.89 1021.5C1545.89 1019.97 1546.19 1018.63 1546.79 1017.5C1547.39 1016.33 1548.2 1015.38 1549.24 1014.65C1550.27 1013.88 1551.44 1013.32 1552.74 1012.95C1554.07 1012.58 1555.47 1012.4 1556.94 1012.4C1558.5 1012.4 1559.92 1012.6 1561.19 1013H1571.29V1019.2H1566.79C1566.95 1019.5 1567.1 1019.88 1567.24 1020.35C1567.4 1020.82 1567.49 1021.3 1567.49 1021.8C1567.49 1023.27 1567.22 1024.53 1566.69 1025.6C1566.15 1026.63 1565.4 1027.48 1564.44 1028.15C1563.5 1028.82 1562.39 1029.32 1561.09 1029.65C1559.82 1029.95 1558.44 1030.1 1556.94 1030.1C1555.97 1030.1 1554.92 1029.98 1553.79 1029.75C1553.49 1029.98 1553.27 1030.2 1553.14 1030.4C1553.04 1030.57 1552.99 1030.83 1552.99 1031.2C1552.99 1031.77 1553.29 1032.17 1553.89 1032.4C1554.49 1032.6 1555.49 1032.7 1556.89 1032.7H1561.14C1564.47 1032.7 1567.04 1033.22 1568.84 1034.25C1570.64 1035.25 1571.54 1036.9 1571.54 1039.2C1571.54 1040.57 1571.17 1041.8 1570.44 1042.9C1569.74 1044.03 1568.72 1045 1567.39 1045.8C1566.05 1046.6 1564.44 1047.22 1562.54 1047.65C1560.67 1048.08 1558.57 1048.3 1556.24 1048.3ZM1556.94 1025C1557.77 1025 1558.49 1024.72 1559.09 1024.15C1559.69 1023.58 1559.99 1022.7 1559.99 1021.5C1559.99 1020.33 1559.69 1019.48 1559.09 1018.95C1558.49 1018.38 1557.77 1018.1 1556.94 1018.1C1556.1 1018.1 1555.39 1018.38 1554.79 1018.95C1554.22 1019.48 1553.94 1020.33 1553.94 1021.5C1553.94 1022.7 1554.22 1023.58 1554.79 1024.15C1555.39 1024.72 1556.1 1025 1556.94 1025ZM1557.59 1043C1559.29 1043 1560.67 1042.78 1561.74 1042.35C1562.84 1041.95 1563.39 1041.4 1563.39 1040.7C1563.39 1040.03 1563.05 1039.62 1562.39 1039.45C1561.72 1039.28 1560.75 1039.2 1559.49 1039.2H1556.99C1556.02 1039.2 1555.25 1039.17 1554.69 1039.1C1554.12 1039.07 1553.62 1039 1553.19 1038.9C1552.75 1039.2 1552.44 1039.48 1552.24 1039.75C1552.04 1040.02 1551.94 1040.33 1551.94 1040.7C1551.94 1041.5 1552.45 1042.08 1553.49 1042.45C1554.52 1042.82 1555.89 1043 1557.59 1043ZM1580.37 1047.5L1579.87 1044.2C1582.7 1042.3 1584.95 1040.6 1586.62 1039.1C1588.32 1037.6 1589.17 1036.3 1589.17 1035.2C1589.17 1034.33 1588.9 1033.67 1588.37 1033.2C1587.87 1032.73 1587.13 1032.5 1586.17 1032.5C1584.77 1032.5 1583.5 1033.23 1582.37 1034.7L1578.87 1031.5C1580 1030.07 1581.25 1029.03 1582.62 1028.4C1583.98 1027.73 1585.5 1027.4 1587.17 1027.4C1589.57 1027.4 1591.5 1028 1592.97 1029.2C1594.43 1030.37 1595.17 1032 1595.17 1034.1C1595.17 1035.6 1594.68 1036.98 1593.72 1038.25C1592.75 1039.55 1591.43 1040.9 1589.77 1042.3H1595.77V1047.5H1580.37ZM1635.93 1038V1013H1642.93L1643.53 1016H1643.73C1644.73 1015.03 1645.91 1014.2 1647.28 1013.5C1648.64 1012.77 1650.24 1012.4 1652.08 1012.4C1654.84 1012.4 1656.86 1013.33 1658.13 1015.2C1659.39 1017.03 1660.03 1019.5 1660.03 1022.6V1038H1651.43V1023.7C1651.43 1022.3 1651.21 1021.28 1650.78 1020.65C1650.38 1020.02 1649.63 1019.7 1648.53 1019.7C1647.73 1019.7 1647.03 1019.87 1646.43 1020.2C1645.83 1020.53 1645.19 1021 1644.53 1021.6V1038H1635.93ZM1673.86 1047L1669.11 1043.3C1670.51 1041.83 1671.71 1040.37 1672.71 1038.9C1673.74 1037.43 1674.57 1035.93 1675.21 1034.4C1675.87 1032.83 1676.36 1031.22 1676.66 1029.55C1676.96 1027.85 1677.11 1026.03 1677.11 1024.1C1677.11 1022.17 1676.96 1020.37 1676.66 1018.7C1676.36 1017 1675.87 1015.38 1675.21 1013.85C1674.57 1012.28 1673.74 1010.77 1672.71 1009.3C1671.71 1007.83 1670.51 1006.37 1669.11 1004.9L1673.86 1001.2C1677.06 1004.17 1679.57 1007.57 1681.41 1011.4C1683.27 1015.2 1684.21 1019.43 1684.21 1024.1C1684.21 1028.77 1683.27 1033.02 1681.41 1036.85C1679.57 1040.65 1677.06 1044.03 1673.86 1047Z" fill="#FF971D"/>
<path d="M173.6 204C173.6 205.967 173.25 207.767 172.55 209.4C171.817 211.033 170.75 212.433 169.35 213.6C167.917 214.767 166.15 215.683 164.05 216.35C161.917 216.983 159.433 217.3 156.6 217.3C153.867 217.3 151.467 216.983 149.4 216.35C147.3 215.683 145.55 214.767 144.15 213.6C142.75 212.433 141.7 211.033 141 209.4C140.267 207.767 139.9 205.967 139.9 204C139.9 202.033 140.267 200.233 141 198.6C141.7 196.967 142.75 195.567 144.15 194.4C145.55 193.233 147.3 192.333 149.4 191.7C151.467 191.033 153.867 190.7 156.6 190.7C159.433 190.7 161.917 191.033 164.05 191.7C166.15 192.333 167.917 193.233 169.35 194.4C170.75 195.567 171.817 196.967 172.55 198.6C173.25 200.233 173.6 202.033 173.6 204ZM166.2 204C166.2 202.6 165.417 201.5 163.85 200.7C162.283 199.9 159.867 199.5 156.6 199.5C153.467 199.5 151.133 199.9 149.6 200.7C148.067 201.5 147.3 202.6 147.3 204C147.3 205.4 148.067 206.5 149.6 207.3C151.133 208.1 153.467 208.5 156.6 208.5C159.867 208.5 162.283 208.1 163.85 207.3C165.417 206.5 166.2 205.4 166.2 204ZM182 170.17C179.033 173.37 175.65 175.903 171.85 177.77C168.017 179.603 163.767 180.52 159.1 180.52C154.433 180.52 150.2 179.603 146.4 177.77C142.567 175.903 139.167 173.37 136.2 170.17L139.9 165.42C141.367 166.82 142.833 168.036 144.3 169.07C145.767 170.07 147.283 170.903 148.85 171.57C150.383 172.203 152 172.67 153.7 172.97C155.367 173.27 157.167 173.42 159.1 173.42C161.033 173.42 162.85 173.27 164.55 172.97C166.217 172.67 167.833 172.203 169.4 171.57C170.933 170.903 172.433 170.07 173.9 169.07C175.367 168.036 176.833 166.82 178.3 165.42L182 170.17ZM173 156.439H168.1C166.367 154.339 164.733 152.389 163.2 150.589C161.667 148.789 160.233 147.239 158.9 145.939C157.533 144.639 156.25 143.622 155.05 142.889C153.817 142.156 152.667 141.789 151.6 141.789C150.167 141.789 149.117 142.206 148.45 143.039C147.75 143.872 147.4 144.989 147.4 146.389C147.4 147.556 147.717 148.622 148.35 149.589C148.95 150.522 149.633 151.422 150.4 152.289L145.8 156.839C144.933 155.972 144.183 155.122 143.55 154.289C142.883 153.422 142.35 152.522 141.95 151.589C141.517 150.656 141.2 149.672 141 148.639C140.8 147.606 140.7 146.456 140.7 145.189C140.7 143.489 140.95 141.939 141.45 140.539C141.95 139.106 142.65 137.889 143.55 136.889C144.45 135.856 145.55 135.056 146.85 134.489C148.117 133.922 149.533 133.639 151.1 133.639C152.367 133.639 153.667 133.939 155 134.539C156.3 135.139 157.6 135.939 158.9 136.939C160.2 137.939 161.467 139.072 162.7 140.339C163.933 141.572 165.1 142.839 166.2 144.139C166.1 143.272 166.017 142.306 165.95 141.239C165.85 140.139 165.8 139.206 165.8 138.439V132.039H173V156.439ZM154.6 121.609H138V116.759L140 116.359V116.209C139.4 115.542 138.85 114.775 138.35 113.909C137.85 113.042 137.6 111.992 137.6 110.759C137.6 108.892 138.233 107.542 139.5 106.709C140.733 105.875 142.383 105.459 144.45 105.459H154.6V111.409H145.2C144.3 111.409 143.65 111.542 143.25 111.809C142.85 112.075 142.65 112.559 142.65 113.259C142.65 113.759 142.75 114.175 142.95 114.509C143.15 114.842 143.433 115.225 143.8 115.659H154.6V121.609ZM182 87.9281L178.3 92.6781C176.833 91.2781 175.367 90.0781 173.9 89.0781C172.433 88.0448 170.933 87.2115 169.4 86.5781C167.833 85.9115 166.217 85.4281 164.55 85.1281C162.85 84.8281 161.033 84.6781 159.1 84.6781C157.167 84.6781 155.367 84.8281 153.7 85.1281C152 85.4281 150.383 85.9115 148.85 86.5781C147.283 87.2115 145.767 88.0448 144.3 89.0781C142.833 90.0781 141.367 91.2781 139.9 92.6781L136.2 87.9281C139.167 84.7281 142.567 82.2115 146.4 80.3781C150.2 78.5115 154.433 77.5781 159.1 77.5781C163.767 77.5781 168.017 78.5115 171.85 80.3781C175.65 82.2115 179.033 84.7281 182 87.9281Z" fill="#5200FF"/>
<path d="M71.6 204C71.6 205.967 71.25 207.767 70.55 209.4C69.8167 211.033 68.75 212.433 67.35 213.6C65.9167 214.767 64.15 215.683 62.05 216.35C59.9167 216.983 57.4333 217.3 54.6 217.3C51.8667 217.3 49.4667 216.983 47.4 216.35C45.3 215.683 43.55 214.767 42.15 213.6C40.75 212.433 39.7 211.033 39 209.4C38.2667 207.767 37.9 205.967 37.9 204C37.9 202.033 38.2667 200.233 39 198.6C39.7 196.967 40.75 195.567 42.15 194.4C43.55 193.233 45.3 192.333 47.4 191.7C49.4667 191.033 51.8667 190.7 54.6 190.7C57.4333 190.7 59.9167 191.033 62.05 191.7C64.15 192.333 65.9167 193.233 67.35 194.4C68.75 195.567 69.8167 196.967 70.55 198.6C71.25 200.233 71.6 202.033 71.6 204ZM64.2 204C64.2 202.6 63.4167 201.5 61.85 200.7C60.2833 199.9 57.8667 199.5 54.6 199.5C51.4667 199.5 49.1333 199.9 47.6 200.7C46.0667 201.5 45.3 202.6 45.3 204C45.3 205.4 46.0667 206.5 47.6 207.3C49.1333 208.1 51.4667 208.5 54.6 208.5C57.8667 208.5 60.2833 208.1 61.85 207.3C63.4167 206.5 64.2 205.4 64.2 204ZM80 170.17C77.0333 173.37 73.65 175.903 69.85 177.77C66.0167 179.603 61.7667 180.52 57.1 180.52C52.4333 180.52 48.2 179.603 44.4 177.77C40.5667 175.903 37.1667 173.37 34.2 170.17L37.9 165.42C39.3667 166.82 40.8333 168.036 42.3 169.07C43.7667 170.07 45.2833 170.903 46.85 171.57C48.3833 172.203 50 172.67 51.7 172.97C53.3667 173.27 55.1667 173.42 57.1 173.42C59.0333 173.42 60.85 173.27 62.55 172.97C64.2167 172.67 65.8333 172.203 67.4 171.57C68.9333 170.903 70.4333 170.07 71.9 169.07C73.3667 168.036 74.8333 166.82 76.3 165.42L80 170.17ZM71 155.839H46V148.839L49 148.239V148.039C48.0333 147.039 47.2 145.856 46.5 144.489C45.7667 143.122 45.4 141.522 45.4 139.689C45.4 136.922 46.3333 134.906 48.2 133.639C50.0333 132.372 52.5 131.739 55.6 131.739H71V140.339H56.7C55.3 140.339 54.2833 140.556 53.65 140.989C53.0167 141.389 52.7 142.139 52.7 143.239C52.7 144.039 52.8667 144.739 53.2 145.339C53.5333 145.939 54 146.572 54.6 147.239H71V155.839ZM52.6 121.609H36V116.759L38 116.359V116.209C37.4 115.542 36.85 114.775 36.35 113.909C35.85 113.042 35.6 111.992 35.6 110.759C35.6 108.892 36.2333 107.542 37.5 106.709C38.7333 105.875 40.3833 105.459 42.45 105.459H52.6V111.409H43.2C42.3 111.409 41.65 111.542 41.25 111.809C40.85 112.075 40.65 112.559 40.65 113.259C40.65 113.759 40.75 114.175 40.95 114.509C41.15 114.842 41.4333 115.225 41.8 115.659H52.6V121.609ZM80 87.9281L76.3 92.6781C74.8333 91.2781 73.3667 90.0781 71.9 89.0781C70.4333 88.0448 68.9333 87.2115 67.4 86.5781C65.8333 85.9115 64.2167 85.4281 62.55 85.1281C60.85 84.8281 59.0333 84.6781 57.1 84.6781C55.1667 84.6781 53.3667 84.8281 51.7 85.1281C50 85.4281 48.3833 85.9115 46.85 86.5781C45.2833 87.2115 43.7667 88.0448 42.3 89.0781C40.8333 90.0781 39.3667 91.2781 37.9 92.6781L34.2 87.9281C37.1667 84.7281 40.5667 82.2115 44.4 80.3781C48.2 78.5115 52.4333 77.5781 57.1 77.5781C61.7667 77.5781 66.0167 78.5115 69.85 80.3781C73.65 82.2115 77.0333 84.7281 80 87.9281Z" fill="#0085FF"/>
</g>
<defs>
<clipPath id="clip0_2:2">
<rect width="1728" height="1080" fill="white"/>
</clipPath>
</defs>
</svg>
