<svg width="1324" height="1842" viewBox="0 0 1324 1842" fill="none" xmlns="http://www.w3.org/2000/svg">
<rect width="200" height="200" rx="20" transform="matrix(-1 0 0 1 294 101)" fill="#FF6F66"/>
<path d="M186.6 246.6V177.4C182.867 180.067 178.6 182.467 173.8 184.6C169 186.6 164.933 188.2 161.6 189.4L153.6 169C156.8 167.8 160.267 166.267 164 164.4C167.733 162.533 171.467 160.467 175.2 158.2C178.933 155.933 182.467 153.533 185.8 151C189.133 148.467 192 145.867 194.4 143.2H211.2V246.6H235.8V267H160.6V246.6H186.6Z" fill="white"/>
<rect width="200" height="200" rx="20" transform="matrix(-1 0 0 1 767 411)" fill="#FF7866"/>
<path d="M703.8 485.8C703.8 490.067 703 494.2 701.4 498.2C699.8 502.067 697.667 505.867 695 509.6C692.333 513.333 689.333 516.933 686 520.4C682.667 523.867 679.267 527.2 675.8 530.4C674.067 532 672.067 533.933 669.8 536.2C667.533 538.333 665.4 540.6 663.4 543C661.4 545.267 659.667 547.6 658.2 550C656.867 552.4 656.2 554.6 656.2 556.6H709.4V577H628.6C628.2 575.667 628 574 628 572C628.133 570 628.2 568.6 628.2 567.8C628.2 561.133 629.4 555 631.8 549.4C634.333 543.8 637.467 538.667 641.2 534C645.067 529.2 649.133 524.8 653.4 520.8C657.8 516.667 661.867 512.733 665.6 509C669.467 505.267 672.6 501.667 675 498.2C677.533 494.733 678.8 491.2 678.8 487.6C678.8 482.533 677.267 478.667 674.2 476C671.133 473.2 667.267 471.8 662.6 471.8C658.733 471.8 654.667 472.733 650.4 474.6C646.133 476.467 641.933 479.6 637.8 484L625.6 466.8C630.933 461.2 637.067 457.067 644 454.4C651.067 451.733 658.067 450.4 665 450.4C670.067 450.4 674.933 451.133 679.6 452.6C684.267 454.067 688.4 456.267 692 459.2C695.6 462.133 698.467 465.867 700.6 470.4C702.733 474.8 703.8 479.933 703.8 485.8Z" fill="white"/>
<rect width="200" height="200" rx="20" transform="matrix(-1 0 0 1 1003 765)" fill="#FF8266"/>
<path d="M895.6 933.6C892.533 933.6 889.267 933.333 885.8 932.8C882.467 932.4 879.2 931.867 876 931.2C872.933 930.533 870.067 929.8 867.4 929C864.733 928.2 862.667 927.467 861.2 926.8L866 906.2C869.067 907.533 873 908.933 877.8 910.4C882.733 911.867 888.6 912.6 895.4 912.6C903.8 912.6 909.667 910.8 913 907.2C916.467 903.6 918.2 899.133 918.2 893.8C918.2 887.267 915.6 882.733 910.4 880.2C905.2 877.533 898.6 876.2 890.6 876.2H883V855.8H892.2C894.733 855.8 897.267 855.533 899.8 855C902.333 854.467 904.6 853.6 906.6 852.4C908.6 851.2 910.2 849.6 911.4 847.6C912.733 845.6 913.4 843.067 913.4 840C913.4 835.467 912 831.933 909.2 829.4C906.533 826.733 902.8 825.4 898 825.4C893.333 825.4 888.667 826.2 884 827.8C879.467 829.267 875.533 831.133 872.2 833.4L863.4 815.4C867 813 871.733 810.6 877.6 808.2C883.6 805.667 890.333 804.4 897.8 804.4C904.733 804.4 910.733 805.267 915.8 807C921 808.733 925.267 811.2 928.6 814.4C931.933 817.467 934.4 821.133 936 825.4C937.6 829.667 938.4 834.267 938.4 839.2C938.4 844.133 937 848.867 934.2 853.4C931.4 857.933 927.667 861.4 923 863.8C929.4 866.467 934.333 870.4 937.8 875.6C941.4 880.8 943.2 887 943.2 894.2C943.2 899.933 942.267 905.2 940.4 910C938.533 914.8 935.667 919 931.8 922.6C927.933 926.067 923 928.8 917 930.8C911 932.667 903.867 933.6 895.6 933.6Z" fill="white"/>
<path d="M510.747 386.484L462.821 314.351L424.315 391.922L510.747 386.484Z" fill="#FF6F66"/>
<path d="M355.82 320.743L439.122 362.093L448.014 344.179L364.713 302.828L355.82 320.743Z" fill="#FF6F66"/>
<path d="M839.91 750.693L838.295 664.106L764.116 708.798L839.91 750.693Z" fill="#FF7866"/>
<path d="M755.222 629.507L792.64 691.613L809.771 681.291L772.353 619.186L755.222 629.507Z" fill="#FF7866"/>
<rect width="200" height="200" rx="20" transform="matrix(-1 0 0 1 1128 1140)" fill="#FF8B66"/>
<path d="M1035 1213C1032.6 1216.07 1030.13 1219.33 1027.6 1222.8C1025.07 1226.27 1022.53 1229.93 1020 1233.8C1017.6 1237.53 1015.27 1241.33 1013 1245.2C1010.73 1249.07 1008.73 1252.87 1007 1256.6H1035V1213ZM1059.6 1182.2V1256.6H1073V1276.8H1059.6V1306H1035V1276.8H983.4V1258.8C985.933 1253.6 989.2 1247.73 993.2 1241.2C997.2 1234.53 1001.6 1227.73 1006.4 1220.8C1011.2 1213.87 1016.27 1207.07 1021.6 1200.4C1026.93 1193.6 1032.27 1187.53 1037.6 1182.2H1059.6Z" fill="white"/>
<rect width="200" height="200" rx="20" transform="matrix(-1 0 0 1 1228 1538)" fill="#FF9D66"/>
<path d="M1142.2 1667.6C1142.2 1664.13 1141.6 1661 1140.4 1658.2C1139.33 1655.27 1137.07 1652.8 1133.6 1650.8C1130.27 1648.67 1125.47 1647.07 1119.2 1646C1112.93 1644.8 1104.73 1644.2 1094.6 1644.2C1095.93 1633 1097 1622.07 1097.8 1611.4C1098.6 1600.6 1099.2 1590.2 1099.6 1580.2H1162.8V1600.6H1120.2C1119.93 1604.87 1119.6 1609.33 1119.2 1614C1118.8 1618.67 1118.47 1622.47 1118.2 1625.4C1134.73 1626.47 1147.07 1630.47 1155.2 1637.4C1163.33 1644.33 1167.4 1654.07 1167.4 1666.6C1167.4 1672.33 1166.4 1677.67 1164.4 1682.6C1162.4 1687.4 1159.33 1691.6 1155.2 1695.2C1151.07 1698.8 1145.93 1701.6 1139.8 1703.6C1133.67 1705.6 1126.53 1706.6 1118.4 1706.6C1115.2 1706.6 1111.93 1706.4 1108.6 1706C1105.27 1705.6 1102.07 1705.07 1099 1704.4C1095.93 1703.87 1093.13 1703.2 1090.6 1702.4C1088.2 1701.6 1086.33 1700.87 1085 1700.2L1090 1679.8C1092.93 1681.27 1096.67 1682.6 1101.2 1683.8C1105.73 1685 1111.4 1685.6 1118.2 1685.6C1123 1685.6 1126.93 1685.07 1130 1684C1133.2 1682.93 1135.67 1681.6 1137.4 1680C1139.27 1678.27 1140.53 1676.33 1141.2 1674.2C1141.87 1672.07 1142.2 1669.87 1142.2 1667.6Z" fill="white"/>
<path d="M987.634 1126.72L924.098 1067.87L1006.83 1042.27L987.634 1126.72Z" fill="#FF8266"/>
<path d="M953.584 982.844L975.017 1052.11L955.911 1058.02L934.478 988.756L953.584 982.844Z" fill="#FF8266"/>
<path d="M1076.84 1511.96L1022.34 1444.65L1107.88 1431.1L1076.84 1511.96Z" fill="#FF8266"/>
<path d="M1063.64 1364.7L1074.99 1436.31L1055.23 1439.44L1043.89 1367.83L1063.64 1364.7Z" fill="#FF8266"/>
</svg>
