<svg width="1920" height="1080" viewBox="0 0 1920 1080" preserveAspectRatio="xMidYMid slice" fill="none" xmlns="http://www.w3.org/2000/svg">
<rect width="1920" height="1080" transform="matrix(1 0 0 -1 0 1080)" fill="#1A4D89"/>
<path d="M198.5 300C213.559 61.5039 354 14 447.5 0.499695L1418 0.5C1543 120.5 1693.09 415 1720.5 560C1739.5 660.5 1664 738.891 1594.5 772.5C1427 853.5 1311.5 920.5 1159 1080H688.5C466.5 862 177 640.5 198.5 300Z" fill="#37669E"/>
<circle cx="182.5" cy="127.5" r="17.5" fill="#37669E"/>
<circle cx="266" cy="843" r="42" fill="#37669E"/>
<circle cx="1644.5" cy="921.5" r="66.5" fill="#37669E"/>
<circle cx="1610" cy="86" r="18" fill="#37669E"/>
<circle cx="458" cy="637" r="30" fill="#4575B0"/>
<path d="M1124 924.5C1124 932.508 1117.51 939 1109.5 939C1101.49 939 1095 932.508 1095 924.5C1095 916.492 1101.49 910 1109.5 910C1117.51 910 1124 916.492 1124 924.5Z" fill="#4575B0"/>
<circle cx="1444.5" cy="451.5" r="26.5" fill="#4575B0"/>
<circle cx="869.5" cy="104.5" r="38.5" fill="#4575B0"/>
<path d="M608.881 519.694L611.069 528.265C611.889 531.476 609.944 534.724 606.755 535.625C588.569 540.76 578.466 547.201 584.671 571.504C596.577 618.139 627.429 651.848 605.243 691.009C603.441 694.191 604.503 698.352 607.61 700.28C645.853 724.013 634.937 768.386 646.843 815.02C653.048 839.324 665.002 840.133 683.424 835.922C686.654 835.184 689.918 837.102 690.738 840.313L692.926 848.885C693.691 851.879 692.052 854.992 689.088 855.868C657.87 865.093 635.11 852.855 627.614 823.495C614.57 772.404 625.488 713.522 575.479 713.139C572.595 713.117 569.989 711.26 569.276 708.466L568.476 705.334L567.677 702.202C566.963 699.407 568.359 696.528 570.88 695.126C614.585 670.818 576.777 624.375 563.733 573.285C556.237 543.925 570.345 522.274 602.164 515.405C605.185 514.753 608.116 516.699 608.881 519.694Z" fill="#4575B0"/>
<path d="M1298.1 414.7L1295.94 423.281C1295.14 426.495 1297.1 429.735 1300.29 430.622C1318.5 435.681 1328.63 442.079 1322.52 466.408C1310.81 513.093 1280.1 546.931 1302.45 585.998C1304.27 589.173 1303.22 593.338 1300.12 595.279C1261.98 619.172 1273.08 663.499 1261.37 710.183C1255.27 734.512 1243.32 735.371 1224.88 731.238C1221.64 730.513 1218.39 732.445 1217.58 735.659L1215.43 744.24C1214.68 747.238 1216.33 750.344 1219.3 751.207C1250.55 760.301 1273.26 747.968 1280.64 718.577C1293.47 667.432 1282.3 608.596 1332.31 608.004C1335.19 607.97 1337.79 606.102 1338.49 603.304L1339.28 600.169L1340.06 597.033C1340.77 594.236 1339.36 591.363 1336.83 589.972C1293.02 565.847 1330.64 519.246 1343.47 468.101C1350.84 438.71 1336.64 417.118 1304.79 410.383C1301.77 409.744 1298.85 411.702 1298.1 414.7Z" fill="#4575B0"/>
<path d="M787.135 928.39C787.813 923.415 792.381 919.93 797.338 920.606L799.582 920.911C804.539 921.587 808.008 926.167 807.33 931.142L803.648 958.165C802.97 963.14 798.402 966.625 793.444 965.95L791.201 965.644C786.243 964.968 782.774 960.388 783.452 955.413L787.135 928.39Z" fill="#5183C0"/>
<path d="M842.006 945.042C842.684 940.068 847.252 936.582 852.21 937.258L854.454 937.564C859.411 938.239 862.88 942.82 862.202 947.795L860.054 963.558C859.376 968.533 854.808 972.018 849.851 971.342L847.607 971.037C842.649 970.361 839.18 965.781 839.858 960.806L842.006 945.042Z" fill="#5183C0"/>
<path d="M819.989 905.342C820.667 900.368 825.235 896.882 830.192 897.558L832.436 897.864C837.393 898.539 840.862 903.12 840.184 908.094L832.513 964.392C831.835 969.367 827.266 972.852 822.309 972.177L820.065 971.871C815.108 971.195 811.639 966.615 812.317 961.64L819.989 905.342Z" fill="#5183C0"/>
<circle cx="829.023" cy="919.973" r="56.3678" transform="rotate(7.75998 829.023 919.973)" stroke="#4575B0" stroke-width="24"/>
<path d="M862.5 964.014C867.776 960.003 875.305 961.029 879.315 966.305L914.568 1012.68C918.579 1017.96 917.553 1025.49 912.277 1029.5V1029.5C907 1033.51 899.472 1032.48 895.461 1027.21L860.209 980.829C856.198 975.553 857.224 968.025 862.5 964.014V964.014Z" fill="#4575B0"/>
<path d="M1377.86 726.856C1378.69 759.367 1395.75 768.286 1404.18 768.682C1427.04 766.117 1436.5 733.861 1446.44 732.746L1476.75 729.346L1507.06 725.945C1517 724.83 1533.37 754.187 1556.23 751.623C1564.36 749.369 1579.03 736.889 1572.63 705.003C1563.55 659.733 1539.64 626.19 1508.44 626.169C1489.07 628.343 1484.12 647.011 1467.72 648.851C1451.32 650.69 1442.36 633.583 1422.98 635.757C1392.56 642.692 1376.68 680.7 1377.86 726.856Z" fill="#4575B0"/>
<path d="M1527.59 662.259C1528.08 666.65 1524.92 670.609 1520.53 671.101C1516.14 671.594 1512.18 668.434 1511.69 664.043C1511.19 659.652 1514.35 655.694 1518.75 655.201C1523.14 654.708 1527.09 657.868 1527.59 662.259Z" fill="#5183C0"/>
<path d="M1515.24 677.733C1515.73 682.124 1512.57 686.082 1508.18 686.575C1503.79 687.068 1499.83 683.907 1499.34 679.517C1498.84 675.126 1502 671.167 1506.39 670.675C1510.78 670.182 1514.74 673.342 1515.24 677.733Z" fill="#5183C0"/>
<path d="M1530.82 691.078C1531.31 695.469 1528.15 699.428 1523.76 699.92C1519.37 700.413 1515.41 697.253 1514.92 692.862C1514.43 688.472 1517.59 684.513 1521.98 684.02C1526.37 683.528 1530.33 686.688 1530.82 691.078Z" fill="#5183C0"/>
<path d="M1543.06 674.611C1543.55 679.002 1540.39 682.96 1536 683.453C1531.61 683.946 1527.65 680.786 1527.16 676.395C1526.67 672.004 1529.83 668.045 1534.22 667.553C1538.61 667.06 1542.57 670.22 1543.06 674.611Z" fill="#5183C0"/>
<path d="M1414.19 673.976C1413.94 671.781 1415.52 669.801 1417.72 669.555L1423.68 668.886C1425.87 668.64 1427.85 670.22 1428.1 672.415L1431.67 704.215C1431.91 706.411 1430.33 708.39 1428.14 708.637L1422.18 709.305C1419.98 709.552 1418 707.972 1417.75 705.776L1414.19 673.976Z" fill="#5183C0"/>
<path d="M1438.05 680.355C1440.24 680.109 1442.22 681.689 1442.47 683.884L1443.14 689.847C1443.38 692.042 1441.8 694.022 1439.61 694.268L1407.81 697.836C1405.61 698.082 1403.63 696.502 1403.39 694.307L1402.72 688.344C1402.47 686.149 1404.05 684.17 1406.25 683.923L1438.05 680.355Z" fill="#5183C0"/>
<path d="M1149.57 266.292L1152.88 242.017C1153.28 239.045 1154.98 234.735 1156.82 239.022C1165.32 258.854 1201.87 286.048 1268.75 295.177C1335.63 304.305 1378.14 287.904 1391.64 271.075C1394.56 267.436 1395.04 272.044 1394.64 275.016L1391.32 299.291C1389.5 312.667 1369.65 350.834 1262.87 338.277C1156.63 321.757 1147.74 279.668 1149.57 266.292Z" fill="#4575B0"/>
<path d="M1156.45 212.145L1159.76 187.87C1160.17 184.898 1161.87 180.588 1163.71 184.876C1172.2 204.707 1208.76 231.901 1275.64 241.03C1342.52 250.159 1385.03 233.757 1398.53 216.928C1401.45 213.29 1401.93 217.897 1401.52 220.869L1398.21 245.144C1396.38 258.52 1376.54 296.687 1269.76 284.13C1163.52 267.61 1154.63 225.521 1156.45 212.145Z" fill="#4575B0"/>
<path d="M1163.34 157.999L1166.65 133.724C1167.06 130.751 1168.75 126.441 1170.59 130.729C1179.09 150.56 1215.65 177.754 1282.53 186.883C1349.41 196.012 1391.91 179.61 1405.41 162.782C1408.33 159.143 1408.81 163.75 1408.41 166.723L1405.1 190.998C1403.27 204.374 1383.43 242.541 1276.64 229.984C1170.4 213.464 1161.51 171.375 1163.34 157.999Z" fill="#4575B0"/>
<ellipse cx="1291.02" cy="120.927" rx="121" ry="55" transform="rotate(7.7726 1291.02 120.927)" fill="#4575B0"/>
<path d="M410.279 390.519C415.76 390.056 421.198 389.094 426.924 385.6L575.676 364.5C647.813 374.963 678.949 262.441 591.767 240.203C589.809 199.223 546.878 166.22 501.975 187.075C490.663 171.974 471.464 158.543 438.083 161.364C385.271 165.827 365.405 221.698 376.401 250.876C340.922 270.433 331.441 294.817 334.051 325.707C336.872 359.088 369.923 393.929 410.279 390.519Z" fill="#4575B0"/>
<rect x="433.605" y="345.896" width="139" height="74" transform="rotate(-4.83017 433.605 345.896)" fill="#5183C0"/>
<rect x="425.801" y="419.816" width="166" height="51" rx="10" transform="rotate(-4.83017 425.801 419.816)" fill="#5183C0"/>
<circle cx="571.311" cy="431.605" r="10" transform="rotate(-4.83017 571.311 431.605)" fill="#5D92D3"/>
<circle cx="546.4" cy="433.711" r="10" transform="rotate(-4.83017 546.4 433.711)" fill="#5D92D3"/>
<rect x="474.22" y="422.749" width="10" height="36" rx="2" transform="rotate(-4.83017 474.22 422.749)" fill="#5D92D3"/>
<rect x="458.277" y="424.097" width="10" height="36" rx="2" transform="rotate(-4.83017 458.277 424.097)" fill="#5D92D3"/>
<rect x="442.334" y="425.444" width="10" height="36" rx="2" transform="rotate(-4.83017 442.334 425.444)" fill="#5D92D3"/>
<rect x="420.581" y="358.036" width="166" height="51" rx="10" transform="rotate(-4.83017 420.581 358.036)" fill="#5183C0"/>
<circle cx="566.09" cy="369.826" r="10" transform="rotate(-4.83017 566.09 369.826)" fill="#5D92D3"/>
<circle cx="541.179" cy="371.931" r="10" transform="rotate(-4.83017 541.179 371.931)" fill="#5D92D3"/>
<rect x="469" y="360.97" width="10" height="36" rx="2" transform="rotate(-4.83017 469 360.97)" fill="#5D92D3"/>
<rect x="453.057" y="362.317" width="10" height="36" rx="2" transform="rotate(-4.83017 453.057 362.317)" fill="#5D92D3"/>
<rect x="437.113" y="363.664" width="10" height="36" rx="2" transform="rotate(-4.83017 437.113 363.664)" fill="#5D92D3"/>
<rect x="415.445" y="297.253" width="166" height="51" rx="10" transform="rotate(-4.83017 415.445 297.253)" fill="#5183C0"/>
<circle cx="560.954" cy="309.042" r="10" transform="rotate(-4.83017 560.954 309.042)" fill="#5D92D3"/>
<circle cx="536.043" cy="311.147" r="10" transform="rotate(-4.83017 536.043 311.147)" fill="#5D92D3"/>
<rect x="463.863" y="300.186" width="10" height="36" rx="2" transform="rotate(-4.83017 463.863 300.186)" fill="#5D92D3"/>
<rect x="447.92" y="301.533" width="10" height="36" rx="2" transform="rotate(-4.83017 447.92 301.533)" fill="#5D92D3"/>
<rect x="431.977" y="302.881" width="10" height="36" rx="2" transform="rotate(-4.83017 431.977 302.881)" fill="#5D92D3"/>
<path d="M954.5 534C954.5 534 734 661.5 724 667.5C726 671.5 730.5 677 735 679.5L937 796C946.5 801 962.5 801 971.5 796L1171.5 680.5C1180.5 675 1184 666.5 1184 666.5L954.5 534Z" fill="#1A4D89"/>
<path d="M954.5 534C954.5 534 1179.5 403.5 1184.5 400.5C1186 403 1189 408 1189 416.5V651C1189 657.5 1184 666.5 1184 666.5L954.5 534Z" fill="#416FB4"/>
<path d="M718.5 418V650.5C718.5 656 720.5 660.5 724 667.5C733.5 662 1179.5 403.5 1184.5 400.5C1182 396 1177 390 1169.5 385.5L972 271.5C963.5 266 947.5 265.5 936 272L737 387C727.5 393.5 718.5 404.5 718.5 418Z" fill="#608DC4"/>
<path d="M1090.5 455.5L1022.5 494.5C1009.5 473 986 455.5 954.5 455.5C909.5 455.5 875.5 490 875.5 534.5C875.5 574 908.5 612.5 955 612.5C986 612.5 1008.5 594 1022.5 573L1090.5 612.5C1063.5 659.5 1013 691.5 955 691.5C861.5 691.5 796.5 618 796.5 530.5C796.5 451.5 860.5 376.5 957 376.5C1012 376.5 1066 410.5 1090.5 455.5Z" fill="white"/>
<path d="M1076 507H1094V561H1076V507Z" fill="white"/>
<path d="M1058 525H1112V543H1058V525Z" fill="white"/>
<path d="M1142 507H1160V561H1142V507Z" fill="white"/>
<path d="M1124 525H1178V543H1124V525Z" fill="white"/>
</svg>
