<svg width="3467" height="1214" viewBox="0 0 3467 1214" fill="none" xmlns="http://www.w3.org/2000/svg">
<rect x="2524" y="277" width="200" height="200" rx="20" fill="#FF8266"/>
<rect x="2884" y="277" width="200" height="200" rx="20" fill="#FF9466"/>
<rect x="2164" y="277" width="200" height="200" rx="20" fill="#FF6F66"/>
<path d="M2494 333.301L2419 376.603L2419 290L2494 333.301Z" fill="#FF6F66"/>
<path d="M2364 323.301H2419V343.301H2364V323.301Z" fill="#FF6F66"/>
<path d="M2034 420.301L2109 463.603L2109 377L2034 420.301Z" fill="#FF6F66"/>
<path d="M2164 410.301H2109V430.301H2164V410.301Z" fill="#FF6F66"/>
<path d="M2854 333.301L2779 376.603L2779 290L2854 333.301Z" fill="#FF8266"/>
<path d="M2724 323.301H2779V343.301H2724V323.301Z" fill="#FF8266"/>
<path d="M2394 420.301L2469 463.603L2469 377L2394 420.301Z" fill="#FF8266"/>
<path d="M2524 410.301H2469V430.301H2524V410.301Z" fill="#FF8266"/>
<path d="M3214 333.301L3139 376.603L3139 290L3214 333.301Z" fill="#FF9466"/>
<path d="M3084 323.301H3139V343.301H3084V323.301Z" fill="#FF9466"/>
<path d="M2754 420.301L2829 463.603L2829 377L2754 420.301Z" fill="#FF9466"/>
<path d="M2884 410.301H2829V430.301H2884V410.301Z" fill="#FF9466"/>
<path d="M2240.4 443C2240.8 434.467 2242.2 425.467 2244.6 416C2247 406.4 2249.87 396.933 2253.2 387.6C2256.67 378.267 2260.4 369.467 2264.4 361.2C2268.4 352.8 2272.2 345.6 2275.8 339.6H2223.8V319.2H2304.6V337.8C2301 341.933 2297.07 347.733 2292.8 355.2C2288.53 362.667 2284.47 371.133 2280.6 380.6C2276.87 390.067 2273.53 400.2 2270.6 411C2267.8 421.667 2266.07 432.333 2265.4 443H2240.4Z" fill="white"/>
<path d="M2663.2 348.6C2663.2 354.333 2661.8 360 2659 365.6C2656.2 371.067 2651.8 375.667 2645.8 379.4C2653.4 383.8 2658.73 388.6 2661.8 393.8C2665 399 2666.6 404.733 2666.6 411C2666.6 415 2665.8 419.067 2664.2 423.2C2662.73 427.333 2660.27 431.067 2656.8 434.4C2653.47 437.6 2649.07 440.267 2643.6 442.4C2638.13 444.533 2631.4 445.6 2623.4 445.6C2617.13 445.6 2611.4 444.8 2606.2 443.2C2601.13 441.733 2596.73 439.6 2593 436.8C2589.4 433.867 2586.6 430.333 2584.6 426.2C2582.6 421.933 2581.6 417.2 2581.6 412C2581.6 405.733 2583.07 399.867 2586 394.4C2588.93 388.8 2593.53 383.867 2599.8 379.6C2593.93 375.6 2589.93 371.333 2587.8 366.8C2585.67 362.267 2584.6 357.467 2584.6 352.4C2584.6 348.4 2585.27 344.267 2586.6 340C2588.07 335.6 2590.33 331.667 2593.4 328.2C2596.47 324.733 2600.53 321.867 2605.6 319.6C2610.67 317.333 2616.93 316.2 2624.4 316.2C2636.27 316.2 2645.67 319.133 2652.6 325C2659.67 330.867 2663.2 338.733 2663.2 348.6ZM2643.4 410.6C2643.4 407.933 2642.87 405.6 2641.8 403.6C2640.87 401.6 2639.27 399.8 2637 398.2C2634.87 396.467 2632.07 394.8 2628.6 393.2C2625.13 391.467 2621 389.667 2616.2 387.8C2612.47 390.867 2609.6 394.333 2607.6 398.2C2605.6 401.933 2604.6 405.533 2604.6 409C2604.6 414.333 2606.47 418.4 2610.2 421.2C2614.07 423.867 2618.6 425.2 2623.8 425.2C2629.8 425.2 2634.53 423.8 2638 421C2641.6 418.067 2643.4 414.6 2643.4 410.6ZM2624 336.6C2619.73 336.6 2615.93 337.8 2612.6 340.2C2609.4 342.6 2607.8 346.133 2607.8 350.8C2607.8 355.467 2609.33 359.267 2612.4 362.2C2615.47 365.133 2620.87 368.2 2628.6 371.4C2632.73 368.333 2635.67 365 2637.4 361.4C2639.13 357.667 2640 354.067 2640 350.6C2640 345.933 2638.4 342.467 2635.2 340.2C2632.13 337.8 2628.4 336.6 2624 336.6Z" fill="white"/>
<path d="M2976.6 445.6C2973.53 445.6 2970.27 445.333 2966.8 444.8C2963.47 444.4 2960.2 443.867 2957 443.2C2953.93 442.533 2951.07 441.8 2948.4 441C2945.73 440.2 2943.67 439.467 2942.2 438.8L2947 418.2C2950.07 419.533 2954 420.933 2958.8 422.4C2963.73 423.867 2969.6 424.6 2976.4 424.6C2984.8 424.6 2990.67 422.8 2994 419.2C2997.47 415.6 2999.2 411.133 2999.2 405.8C2999.2 399.267 2996.6 394.733 2991.4 392.2C2986.2 389.533 2979.6 388.2 2971.6 388.2H2964V367.8H2973.2C2975.73 367.8 2978.27 367.533 2980.8 367C2983.33 366.467 2985.6 365.6 2987.6 364.4C2989.6 363.2 2991.2 361.6 2992.4 359.6C2993.73 357.6 2994.4 355.067 2994.4 352C2994.4 347.467 2993 343.933 2990.2 341.4C2987.53 338.733 2983.8 337.4 2979 337.4C2974.33 337.4 2969.67 338.2 2965 339.8C2960.47 341.267 2956.53 343.133 2953.2 345.4L2944.4 327.4C2948 325 2952.73 322.6 2958.6 320.2C2964.6 317.667 2971.33 316.4 2978.8 316.4C2985.73 316.4 2991.73 317.267 2996.8 319C3002 320.733 3006.27 323.2 3009.6 326.4C3012.93 329.467 3015.4 333.133 3017 337.4C3018.6 341.667 3019.4 346.267 3019.4 351.2C3019.4 356.133 3018 360.867 3015.2 365.4C3012.4 369.933 3008.67 373.4 3004 375.8C3010.4 378.467 3015.33 382.4 3018.8 387.6C3022.4 392.8 3024.2 399 3024.2 406.2C3024.2 411.933 3023.27 417.2 3021.4 422C3019.53 426.8 3016.67 431 3012.8 434.6C3008.93 438.067 3004 440.8 2998 442.8C2992 444.667 2984.87 445.6 2976.6 445.6Z" fill="white"/>
<rect x="578" y="77" width="200" height="200" rx="20" fill="#FF8266"/>
<rect x="743" y="454" width="200" height="200" rx="20" fill="#FF9466"/>
<rect x="383" y="454" width="200" height="200" rx="20" fill="#FF6F66"/>
<path d="M713 510.301L638 553.603L638 467L713 510.301Z" fill="#FF6F66"/>
<path d="M583 500.301H638V520.301H583V500.301Z" fill="#FF6F66"/>
<path d="M253 597.301L328 640.603L328 554L253 597.301Z" fill="#FF6F66"/>
<path d="M383 587.301H328V607.301H383V587.301Z" fill="#FF6F66"/>
<path d="M908 133.301L833 176.603L833 90L908 133.301Z" fill="#FF8266"/>
<path d="M778 123.301H833V143.301H778V123.301Z" fill="#FF8266"/>
<path d="M448 220.301L523 263.603L523 177L448 220.301Z" fill="#FF8266"/>
<path d="M578 210.301H523V230.301H578V210.301Z" fill="#FF8266"/>
<path d="M1073 510.301L998 553.603L998 467L1073 510.301Z" fill="#FF9466"/>
<path d="M943 500.301H998V520.301H943V500.301Z" fill="#FF9466"/>
<path d="M613 597.301L688 640.603L688 554L613 597.301Z" fill="#FF9466"/>
<path d="M743 587.301H688V607.301H743V587.301Z" fill="#FF9466"/>
<path d="M459.4 620C459.8 611.467 461.2 602.467 463.6 593C466 583.4 468.867 573.933 472.2 564.6C475.667 555.267 479.4 546.467 483.4 538.2C487.4 529.8 491.2 522.6 494.8 516.6H442.8V496.2H523.6V514.8C520 518.933 516.067 524.733 511.8 532.2C507.533 539.667 503.467 548.133 499.6 557.6C495.867 567.067 492.533 577.2 489.6 588C486.8 598.667 485.067 609.333 484.4 620H459.4Z" fill="white"/>
<path d="M717.2 148.6C717.2 154.333 715.8 160 713 165.6C710.2 171.067 705.8 175.667 699.8 179.4C707.4 183.8 712.733 188.6 715.8 193.8C719 199 720.6 204.733 720.6 211C720.6 215 719.8 219.067 718.2 223.2C716.733 227.333 714.267 231.067 710.8 234.4C707.467 237.6 703.067 240.267 697.6 242.4C692.133 244.533 685.4 245.6 677.4 245.6C671.133 245.6 665.4 244.8 660.2 243.2C655.133 241.733 650.733 239.6 647 236.8C643.4 233.867 640.6 230.333 638.6 226.2C636.6 221.933 635.6 217.2 635.6 212C635.6 205.733 637.067 199.867 640 194.4C642.933 188.8 647.533 183.867 653.8 179.6C647.933 175.6 643.933 171.333 641.8 166.8C639.667 162.267 638.6 157.467 638.6 152.4C638.6 148.4 639.267 144.267 640.6 140C642.067 135.6 644.333 131.667 647.4 128.2C650.467 124.733 654.533 121.867 659.6 119.6C664.667 117.333 670.933 116.2 678.4 116.2C690.267 116.2 699.667 119.133 706.6 125C713.667 130.867 717.2 138.733 717.2 148.6ZM697.4 210.6C697.4 207.933 696.867 205.6 695.8 203.6C694.867 201.6 693.267 199.8 691 198.2C688.867 196.467 686.067 194.8 682.6 193.2C679.133 191.467 675 189.667 670.2 187.8C666.467 190.867 663.6 194.333 661.6 198.2C659.6 201.933 658.6 205.533 658.6 209C658.6 214.333 660.467 218.4 664.2 221.2C668.067 223.867 672.6 225.2 677.8 225.2C683.8 225.2 688.533 223.8 692 221C695.6 218.067 697.4 214.6 697.4 210.6ZM678 136.6C673.733 136.6 669.933 137.8 666.6 140.2C663.4 142.6 661.8 146.133 661.8 150.8C661.8 155.467 663.333 159.267 666.4 162.2C669.467 165.133 674.867 168.2 682.6 171.4C686.733 168.333 689.667 165 691.4 161.4C693.133 157.667 694 154.067 694 150.6C694 145.933 692.4 142.467 689.2 140.2C686.133 137.8 682.4 136.6 678 136.6Z" fill="white"/>
<path d="M835.6 622.6C832.533 622.6 829.267 622.333 825.8 621.8C822.467 621.4 819.2 620.867 816 620.2C812.933 619.533 810.067 618.8 807.4 618C804.733 617.2 802.667 616.467 801.2 615.8L806 595.2C809.067 596.533 813 597.933 817.8 599.4C822.733 600.867 828.6 601.6 835.4 601.6C843.8 601.6 849.667 599.8 853 596.2C856.467 592.6 858.2 588.133 858.2 582.8C858.2 576.267 855.6 571.733 850.4 569.2C845.2 566.533 838.6 565.2 830.6 565.2H823V544.8H832.2C834.733 544.8 837.267 544.533 839.8 544C842.333 543.467 844.6 542.6 846.6 541.4C848.6 540.2 850.2 538.6 851.4 536.6C852.733 534.6 853.4 532.067 853.4 529C853.4 524.467 852 520.933 849.2 518.4C846.533 515.733 842.8 514.4 838 514.4C833.333 514.4 828.667 515.2 824 516.8C819.467 518.267 815.533 520.133 812.2 522.4L803.4 504.4C807 502 811.733 499.6 817.6 497.2C823.6 494.667 830.333 493.4 837.8 493.4C844.733 493.4 850.733 494.267 855.8 496C861 497.733 865.267 500.2 868.6 503.4C871.933 506.467 874.4 510.133 876 514.4C877.6 518.667 878.4 523.267 878.4 528.2C878.4 533.133 877 537.867 874.2 542.4C871.4 546.933 867.667 550.4 863 552.8C869.4 555.467 874.333 559.4 877.8 564.6C881.4 569.8 883.2 576 883.2 583.2C883.2 588.933 882.267 594.2 880.4 599C878.533 603.8 875.667 608 871.8 611.6C867.933 615.067 863 617.8 857 619.8C851 621.667 843.867 622.6 835.6 622.6Z" fill="white"/>
<path d="M1883 376.1C1883 379.033 1882.1 381.267 1880.3 382.8C1878.5 384.333 1876.43 385.1 1874.1 385.1C1872.9 385.1 1871.77 384.9 1870.7 384.5C1869.63 384.1 1868.67 383.533 1867.8 382.8C1867 382 1866.33 381.067 1865.8 380C1865.33 378.867 1865.1 377.567 1865.1 376.1C1865.1 374.7 1865.33 373.467 1865.8 372.4C1866.33 371.267 1867 370.333 1867.8 369.6C1868.67 368.867 1869.63 368.3 1870.7 367.9C1871.77 367.5 1872.9 367.3 1874.1 367.3C1876.43 367.3 1878.5 368.067 1880.3 369.6C1882.1 371.133 1883 373.3 1883 376.1ZM1933 376.1C1933 379.033 1932.1 381.267 1930.3 382.8C1928.5 384.333 1926.43 385.1 1924.1 385.1C1922.9 385.1 1921.77 384.9 1920.7 384.5C1919.63 384.1 1918.67 383.533 1917.8 382.8C1917 382 1916.33 381.067 1915.8 380C1915.33 378.867 1915.1 377.567 1915.1 376.1C1915.1 374.7 1915.33 373.467 1915.8 372.4C1916.33 371.267 1917 370.333 1917.8 369.6C1918.67 368.867 1919.63 368.3 1920.7 367.9C1921.77 367.5 1922.9 367.3 1924.1 367.3C1926.43 367.3 1928.5 368.067 1930.3 369.6C1932.1 371.133 1933 373.3 1933 376.1ZM1983 376.1C1983 379.033 1982.1 381.267 1980.3 382.8C1978.5 384.333 1976.43 385.1 1974.1 385.1C1972.9 385.1 1971.77 384.9 1970.7 384.5C1969.63 384.1 1968.67 383.533 1967.8 382.8C1967 382 1966.33 381.067 1965.8 380C1965.33 378.867 1965.1 377.567 1965.1 376.1C1965.1 374.7 1965.33 373.467 1965.8 372.4C1966.33 371.267 1967 370.333 1967.8 369.6C1968.67 368.867 1969.63 368.3 1970.7 367.9C1971.77 367.5 1972.9 367.3 1974.1 367.3C1976.43 367.3 1978.5 368.067 1980.3 369.6C1982.1 371.133 1983 373.3 1983 376.1Z" fill="#FF6666"/>
<path d="M102 553.1C102 556.033 101.1 558.267 99.3 559.8C97.5 561.333 95.4333 562.1 93.1 562.1C91.9 562.1 90.7667 561.9 89.7 561.5C88.6333 561.1 87.6667 560.533 86.8 559.8C86 559 85.3333 558.067 84.8 557C84.3333 555.867 84.1 554.567 84.1 553.1C84.1 551.7 84.3333 550.467 84.8 549.4C85.3333 548.267 86 547.333 86.8 546.6C87.6667 545.867 88.6333 545.3 89.7 544.9C90.7667 544.5 91.9 544.3 93.1 544.3C95.4333 544.3 97.5 545.067 99.3 546.6C101.1 548.133 102 550.3 102 553.1ZM152 553.1C152 556.033 151.1 558.267 149.3 559.8C147.5 561.333 145.433 562.1 143.1 562.1C141.9 562.1 140.767 561.9 139.7 561.5C138.633 561.1 137.667 560.533 136.8 559.8C136 559 135.333 558.067 134.8 557C134.333 555.867 134.1 554.567 134.1 553.1C134.1 551.7 134.333 550.467 134.8 549.4C135.333 548.267 136 547.333 136.8 546.6C137.667 545.867 138.633 545.3 139.7 544.9C140.767 544.5 141.9 544.3 143.1 544.3C145.433 544.3 147.5 545.067 149.3 546.6C151.1 548.133 152 550.3 152 553.1ZM202 553.1C202 556.033 201.1 558.267 199.3 559.8C197.5 561.333 195.433 562.1 193.1 562.1C191.9 562.1 190.767 561.9 189.7 561.5C188.633 561.1 187.667 560.533 186.8 559.8C186 559 185.333 558.067 184.8 557C184.333 555.867 184.1 554.567 184.1 553.1C184.1 551.7 184.333 550.467 184.8 549.4C185.333 548.267 186 547.333 186.8 546.6C187.667 545.867 188.633 545.3 189.7 544.9C190.767 544.5 191.9 544.3 193.1 544.3C195.433 544.3 197.5 545.067 199.3 546.6C201.1 548.133 202 550.3 202 553.1Z" fill="#FF6666"/>
<path d="M3283 383.1C3283 386.033 3282.1 388.267 3280.3 389.8C3278.5 391.333 3276.43 392.1 3274.1 392.1C3272.9 392.1 3271.77 391.9 3270.7 391.5C3269.63 391.1 3268.67 390.533 3267.8 389.8C3267 389 3266.33 388.067 3265.8 387C3265.33 385.867 3265.1 384.567 3265.1 383.1C3265.1 381.7 3265.33 380.467 3265.8 379.4C3266.33 378.267 3267 377.333 3267.8 376.6C3268.67 375.867 3269.63 375.3 3270.7 374.9C3271.77 374.5 3272.9 374.3 3274.1 374.3C3276.43 374.3 3278.5 375.067 3280.3 376.6C3282.1 378.133 3283 380.3 3283 383.1ZM3333 383.1C3333 386.033 3332.1 388.267 3330.3 389.8C3328.5 391.333 3326.43 392.1 3324.1 392.1C3322.9 392.1 3321.77 391.9 3320.7 391.5C3319.63 391.1 3318.67 390.533 3317.8 389.8C3317 389 3316.33 388.067 3315.8 387C3315.33 385.867 3315.1 384.567 3315.1 383.1C3315.1 381.7 3315.33 380.467 3315.8 379.4C3316.33 378.267 3317 377.333 3317.8 376.6C3318.67 375.867 3319.63 375.3 3320.7 374.9C3321.77 374.5 3322.9 374.3 3324.1 374.3C3326.43 374.3 3328.5 375.067 3330.3 376.6C3332.1 378.133 3333 380.3 3333 383.1ZM3383 383.1C3383 386.033 3382.1 388.267 3380.3 389.8C3378.5 391.333 3376.43 392.1 3374.1 392.1C3372.9 392.1 3371.77 391.9 3370.7 391.5C3369.63 391.1 3368.67 390.533 3367.8 389.8C3367 389 3366.33 388.067 3365.8 387C3365.33 385.867 3365.1 384.567 3365.1 383.1C3365.1 381.7 3365.33 380.467 3365.8 379.4C3366.33 378.267 3367 377.333 3367.8 376.6C3368.67 375.867 3369.63 375.3 3370.7 374.9C3371.77 374.5 3372.9 374.3 3374.1 374.3C3376.43 374.3 3378.5 375.067 3380.3 376.6C3382.1 378.133 3383 380.3 3383 383.1Z" fill="#FFB171"/>
<path d="M1142 553.1C1142 556.033 1141.1 558.267 1139.3 559.8C1137.5 561.333 1135.43 562.1 1133.1 562.1C1131.9 562.1 1130.77 561.9 1129.7 561.5C1128.63 561.1 1127.67 560.533 1126.8 559.8C1126 559 1125.33 558.067 1124.8 557C1124.33 555.867 1124.1 554.567 1124.1 553.1C1124.1 551.7 1124.33 550.467 1124.8 549.4C1125.33 548.267 1126 547.333 1126.8 546.6C1127.67 545.867 1128.63 545.3 1129.7 544.9C1130.77 544.5 1131.9 544.3 1133.1 544.3C1135.43 544.3 1137.5 545.067 1139.3 546.6C1141.1 548.133 1142 550.3 1142 553.1ZM1192 553.1C1192 556.033 1191.1 558.267 1189.3 559.8C1187.5 561.333 1185.43 562.1 1183.1 562.1C1181.9 562.1 1180.77 561.9 1179.7 561.5C1178.63 561.1 1177.67 560.533 1176.8 559.8C1176 559 1175.33 558.067 1174.8 557C1174.33 555.867 1174.1 554.567 1174.1 553.1C1174.1 551.7 1174.33 550.467 1174.8 549.4C1175.33 548.267 1176 547.333 1176.8 546.6C1177.67 545.867 1178.63 545.3 1179.7 544.9C1180.77 544.5 1181.9 544.3 1183.1 544.3C1185.43 544.3 1187.5 545.067 1189.3 546.6C1191.1 548.133 1192 550.3 1192 553.1ZM1242 553.1C1242 556.033 1241.1 558.267 1239.3 559.8C1237.5 561.333 1235.43 562.1 1233.1 562.1C1231.9 562.1 1230.77 561.9 1229.7 561.5C1228.63 561.1 1227.67 560.533 1226.8 559.8C1226 559 1225.33 558.067 1224.8 557C1224.33 555.867 1224.1 554.567 1224.1 553.1C1224.1 551.7 1224.33 550.467 1224.8 549.4C1225.33 548.267 1226 547.333 1226.8 546.6C1227.67 545.867 1228.63 545.3 1229.7 544.9C1230.77 544.5 1231.9 544.3 1233.1 544.3C1235.43 544.3 1237.5 545.067 1239.3 546.6C1241.1 548.133 1242 550.3 1242 553.1Z" fill="#FFB171"/>
<path d="M678 444L649 394L707 394L678 444Z" fill="#525252"/>
<path d="M638.9 377L636 362.7H619.5L616.7 377H603.9C606.833 364.8 609.8 353.7 612.8 343.7C615.8 333.633 618.7 324.1 621.5 315.1H634.9C637.833 324.167 640.733 333.8 643.6 344C646.533 354.133 649.367 365.133 652.1 377H638.9ZM627.9 327.1C627.233 329.433 626.6 331.667 626 333.8C625.467 335.867 624.933 337.933 624.4 340C623.933 342 623.467 344.033 623 346.1C622.6 348.167 622.2 350.3 621.8 352.5H633.9C633.5 350.3 633.1 348.167 632.7 346.1C632.3 344.033 631.833 342 631.3 340C630.833 337.933 630.3 335.867 629.7 333.8C629.167 331.667 628.567 329.433 627.9 327.1ZM668.3 353.2C668.3 357.4 669.067 360.833 670.6 363.5C672.2 366.167 674.733 367.5 678.2 367.5C679.2 367.5 680.133 367.467 681 367.4C681.867 367.333 682.767 367.233 683.7 367.1V341.5C682.767 340.967 681.7 340.533 680.5 340.2C679.3 339.8 678.033 339.6 676.7 339.6C673.767 339.6 671.633 340.767 670.3 343.1C668.967 345.433 668.3 348.8 668.3 353.2ZM696 375.6C693.733 376.333 690.967 376.933 687.7 377.4C684.433 377.867 681.233 378.1 678.1 378.1C670.767 378.1 665.2 375.933 661.4 371.6C657.667 367.267 655.8 361.333 655.8 353.8C655.8 346.133 657.367 340.1 660.5 335.7C663.7 331.233 668.4 329 674.6 329C676.267 329 677.9 329.2 679.5 329.6C681.1 329.933 682.5 330.433 683.7 331.1V309.7L696 307.6V375.6ZM718.3 353.2C718.3 357.4 719.067 360.833 720.6 363.5C722.2 366.167 724.733 367.5 728.2 367.5C729.2 367.5 730.133 367.467 731 367.4C731.867 367.333 732.767 367.233 733.7 367.1V341.5C732.767 340.967 731.7 340.533 730.5 340.2C729.3 339.8 728.033 339.6 726.7 339.6C723.767 339.6 721.633 340.767 720.3 343.1C718.967 345.433 718.3 348.8 718.3 353.2ZM746 375.6C743.733 376.333 740.967 376.933 737.7 377.4C734.433 377.867 731.233 378.1 728.1 378.1C720.767 378.1 715.2 375.933 711.4 371.6C707.667 367.267 705.8 361.333 705.8 353.8C705.8 346.133 707.367 340.1 710.5 335.7C713.7 331.233 718.4 329 724.6 329C726.267 329 727.9 329.2 729.5 329.6C731.1 329.933 732.5 330.433 733.7 331.1V309.7L746 307.6V375.6Z" fill="#525252"/>
<path d="M1737.47 865.778L1676.23 804.54L1759.89 782.126L1737.47 865.778Z" fill="#FF0000"/>
<path d="M1713.48 737.619L1727.72 790.745L1708.4 795.921L1694.17 742.795L1713.48 737.619Z" fill="#FF0000"/>
<path d="M1590.83 865.778L1652.06 804.54L1568.41 782.126L1590.83 865.778Z" fill="#FF0000"/>
<path d="M1614.81 737.619L1600.58 790.745L1619.9 795.921L1634.13 742.795L1614.81 737.619Z" fill="#FF0000"/>
<path d="M1801.83 814.207L1779.41 897.859L1863.06 875.444L1801.83 814.207Z" fill="#FF0000"/>
<path d="M1845.13 937.189L1830.9 884.063L1811.58 889.24L1825.81 942.366L1845.13 937.189Z" fill="#FF0000"/>
<path d="M1525.47 814.207L1547.89 897.859L1464.24 875.444L1525.47 814.207Z" fill="#FF0000"/>
<path d="M1482.17 937.189L1496.4 884.063L1515.72 889.24L1501.49 942.366L1482.17 937.189Z" fill="#FF0000"/>
<rect x="1562" y="543" width="200" height="200" rx="20" fill="#FF8266"/>
<rect x="1744" y="936" width="200" height="200" rx="20" fill="#FF9466"/>
<rect x="1384" y="936" width="200" height="200" rx="20" fill="#FF6F66"/>
<path d="M1254 1079.3L1329 1122.6L1329 1036L1254 1079.3Z" fill="#FF6F66"/>
<path d="M1384 1069.3H1329V1089.3H1384V1069.3Z" fill="#FF6F66"/>
<path d="M2074 992.301L1999 1035.6L1999 949L2074 992.301Z" fill="#FF9466"/>
<path d="M1944 982.301H1999V1002.3H1944V982.301Z" fill="#FF9466"/>
<path d="M1460.4 1102C1460.8 1093.47 1462.2 1084.47 1464.6 1075C1467 1065.4 1469.87 1055.93 1473.2 1046.6C1476.67 1037.27 1480.4 1028.47 1484.4 1020.2C1488.4 1011.8 1492.2 1004.6 1495.8 998.6H1443.8V978.2H1524.6V996.8C1521 1000.93 1517.07 1006.73 1512.8 1014.2C1508.53 1021.67 1504.47 1030.13 1500.6 1039.6C1496.87 1049.07 1493.53 1059.2 1490.6 1070C1487.8 1080.67 1486.07 1091.33 1485.4 1102H1460.4Z" fill="white"/>
<path d="M1701.2 614.6C1701.2 620.333 1699.8 626 1697 631.6C1694.2 637.067 1689.8 641.667 1683.8 645.4C1691.4 649.8 1696.73 654.6 1699.8 659.8C1703 665 1704.6 670.733 1704.6 677C1704.6 681 1703.8 685.067 1702.2 689.2C1700.73 693.333 1698.27 697.067 1694.8 700.4C1691.47 703.6 1687.07 706.267 1681.6 708.4C1676.13 710.533 1669.4 711.6 1661.4 711.6C1655.13 711.6 1649.4 710.8 1644.2 709.2C1639.13 707.733 1634.73 705.6 1631 702.8C1627.4 699.867 1624.6 696.333 1622.6 692.2C1620.6 687.933 1619.6 683.2 1619.6 678C1619.6 671.733 1621.07 665.867 1624 660.4C1626.93 654.8 1631.53 649.867 1637.8 645.6C1631.93 641.6 1627.93 637.333 1625.8 632.8C1623.67 628.267 1622.6 623.467 1622.6 618.4C1622.6 614.4 1623.27 610.267 1624.6 606C1626.07 601.6 1628.33 597.667 1631.4 594.2C1634.47 590.733 1638.53 587.867 1643.6 585.6C1648.67 583.333 1654.93 582.2 1662.4 582.2C1674.27 582.2 1683.67 585.133 1690.6 591C1697.67 596.867 1701.2 604.733 1701.2 614.6ZM1681.4 676.6C1681.4 673.933 1680.87 671.6 1679.8 669.6C1678.87 667.6 1677.27 665.8 1675 664.2C1672.87 662.467 1670.07 660.8 1666.6 659.2C1663.13 657.467 1659 655.667 1654.2 653.8C1650.47 656.867 1647.6 660.333 1645.6 664.2C1643.6 667.933 1642.6 671.533 1642.6 675C1642.6 680.333 1644.47 684.4 1648.2 687.2C1652.07 689.867 1656.6 691.2 1661.8 691.2C1667.8 691.2 1672.53 689.8 1676 687C1679.6 684.067 1681.4 680.6 1681.4 676.6ZM1662 602.6C1657.73 602.6 1653.93 603.8 1650.6 606.2C1647.4 608.6 1645.8 612.133 1645.8 616.8C1645.8 621.467 1647.33 625.267 1650.4 628.2C1653.47 631.133 1658.87 634.2 1666.6 637.4C1670.73 634.333 1673.67 631 1675.4 627.4C1677.13 623.667 1678 620.067 1678 616.6C1678 611.933 1676.4 608.467 1673.2 606.2C1670.13 603.8 1666.4 602.6 1662 602.6Z" fill="white"/>
<path d="M1836.6 1104.6C1833.53 1104.6 1830.27 1104.33 1826.8 1103.8C1823.47 1103.4 1820.2 1102.87 1817 1102.2C1813.93 1101.53 1811.07 1100.8 1808.4 1100C1805.73 1099.2 1803.67 1098.47 1802.2 1097.8L1807 1077.2C1810.07 1078.53 1814 1079.93 1818.8 1081.4C1823.73 1082.87 1829.6 1083.6 1836.4 1083.6C1844.8 1083.6 1850.67 1081.8 1854 1078.2C1857.47 1074.6 1859.2 1070.13 1859.2 1064.8C1859.2 1058.27 1856.6 1053.73 1851.4 1051.2C1846.2 1048.53 1839.6 1047.2 1831.6 1047.2H1824V1026.8H1833.2C1835.73 1026.8 1838.27 1026.53 1840.8 1026C1843.33 1025.47 1845.6 1024.6 1847.6 1023.4C1849.6 1022.2 1851.2 1020.6 1852.4 1018.6C1853.73 1016.6 1854.4 1014.07 1854.4 1011C1854.4 1006.47 1853 1002.93 1850.2 1000.4C1847.53 997.733 1843.8 996.4 1839 996.4C1834.33 996.4 1829.67 997.2 1825 998.8C1820.47 1000.27 1816.53 1002.13 1813.2 1004.4L1804.4 986.4C1808 984 1812.73 981.6 1818.6 979.2C1824.6 976.667 1831.33 975.4 1838.8 975.4C1845.73 975.4 1851.73 976.267 1856.8 978C1862 979.733 1866.27 982.2 1869.6 985.4C1872.93 988.467 1875.4 992.133 1877 996.4C1878.6 1000.67 1879.4 1005.27 1879.4 1010.2C1879.4 1015.13 1878 1019.87 1875.2 1024.4C1872.4 1028.93 1868.67 1032.4 1864 1034.8C1870.4 1037.47 1875.33 1041.4 1878.8 1046.6C1882.4 1051.8 1884.2 1058 1884.2 1065.2C1884.2 1070.93 1883.27 1076.2 1881.4 1081C1879.53 1085.8 1876.67 1090 1872.8 1093.6C1868.93 1097.07 1864 1099.8 1858 1101.8C1852 1103.67 1844.87 1104.6 1836.6 1104.6Z" fill="white"/>
<path d="M1103 1035.1C1103 1038.03 1102.1 1040.27 1100.3 1041.8C1098.5 1043.33 1096.43 1044.1 1094.1 1044.1C1092.9 1044.1 1091.77 1043.9 1090.7 1043.5C1089.63 1043.1 1088.67 1042.53 1087.8 1041.8C1087 1041 1086.33 1040.07 1085.8 1039C1085.33 1037.87 1085.1 1036.57 1085.1 1035.1C1085.1 1033.7 1085.33 1032.47 1085.8 1031.4C1086.33 1030.27 1087 1029.33 1087.8 1028.6C1088.67 1027.87 1089.63 1027.3 1090.7 1026.9C1091.77 1026.5 1092.9 1026.3 1094.1 1026.3C1096.43 1026.3 1098.5 1027.07 1100.3 1028.6C1102.1 1030.13 1103 1032.3 1103 1035.1ZM1153 1035.1C1153 1038.03 1152.1 1040.27 1150.3 1041.8C1148.5 1043.33 1146.43 1044.1 1144.1 1044.1C1142.9 1044.1 1141.77 1043.9 1140.7 1043.5C1139.63 1043.1 1138.67 1042.53 1137.8 1041.8C1137 1041 1136.33 1040.07 1135.8 1039C1135.33 1037.87 1135.1 1036.57 1135.1 1035.1C1135.1 1033.7 1135.33 1032.47 1135.8 1031.4C1136.33 1030.27 1137 1029.33 1137.8 1028.6C1138.67 1027.87 1139.63 1027.3 1140.7 1026.9C1141.77 1026.5 1142.9 1026.3 1144.1 1026.3C1146.43 1026.3 1148.5 1027.07 1150.3 1028.6C1152.1 1030.13 1153 1032.3 1153 1035.1ZM1203 1035.1C1203 1038.03 1202.1 1040.27 1200.3 1041.8C1198.5 1043.33 1196.43 1044.1 1194.1 1044.1C1192.9 1044.1 1191.77 1043.9 1190.7 1043.5C1189.63 1043.1 1188.67 1042.53 1187.8 1041.8C1187 1041 1186.33 1040.07 1185.8 1039C1185.33 1037.87 1185.1 1036.57 1185.1 1035.1C1185.1 1033.7 1185.33 1032.47 1185.8 1031.4C1186.33 1030.27 1187 1029.33 1187.8 1028.6C1188.67 1027.87 1189.63 1027.3 1190.7 1026.9C1191.77 1026.5 1192.9 1026.3 1194.1 1026.3C1196.43 1026.3 1198.5 1027.07 1200.3 1028.6C1202.1 1030.13 1203 1032.3 1203 1035.1Z" fill="#FF6666"/>
<path d="M2143 1035.1C2143 1038.03 2142.1 1040.27 2140.3 1041.8C2138.5 1043.33 2136.43 1044.1 2134.1 1044.1C2132.9 1044.1 2131.77 1043.9 2130.7 1043.5C2129.63 1043.1 2128.67 1042.53 2127.8 1041.8C2127 1041 2126.33 1040.07 2125.8 1039C2125.33 1037.87 2125.1 1036.57 2125.1 1035.1C2125.1 1033.7 2125.33 1032.47 2125.8 1031.4C2126.33 1030.27 2127 1029.33 2127.8 1028.6C2128.67 1027.87 2129.63 1027.3 2130.7 1026.9C2131.77 1026.5 2132.9 1026.3 2134.1 1026.3C2136.43 1026.3 2138.5 1027.07 2140.3 1028.6C2142.1 1030.13 2143 1032.3 2143 1035.1ZM2193 1035.1C2193 1038.03 2192.1 1040.27 2190.3 1041.8C2188.5 1043.33 2186.43 1044.1 2184.1 1044.1C2182.9 1044.1 2181.77 1043.9 2180.7 1043.5C2179.63 1043.1 2178.67 1042.53 2177.8 1041.8C2177 1041 2176.33 1040.07 2175.8 1039C2175.33 1037.87 2175.1 1036.57 2175.1 1035.1C2175.1 1033.7 2175.33 1032.47 2175.8 1031.4C2176.33 1030.27 2177 1029.33 2177.8 1028.6C2178.67 1027.87 2179.63 1027.3 2180.7 1026.9C2181.77 1026.5 2182.9 1026.3 2184.1 1026.3C2186.43 1026.3 2188.5 1027.07 2190.3 1028.6C2192.1 1030.13 2193 1032.3 2193 1035.1ZM2243 1035.1C2243 1038.03 2242.1 1040.27 2240.3 1041.8C2238.5 1043.33 2236.43 1044.1 2234.1 1044.1C2232.9 1044.1 2231.77 1043.9 2230.7 1043.5C2229.63 1043.1 2228.67 1042.53 2227.8 1041.8C2227 1041 2226.33 1040.07 2225.8 1039C2225.33 1037.87 2225.1 1036.57 2225.1 1035.1C2225.1 1033.7 2225.33 1032.47 2225.8 1031.4C2226.33 1030.27 2227 1029.33 2227.8 1028.6C2228.67 1027.87 2229.63 1027.3 2230.7 1026.9C2231.77 1026.5 2232.9 1026.3 2234.1 1026.3C2236.43 1026.3 2238.5 1027.07 2240.3 1028.6C2242.1 1030.13 2243 1032.3 2243 1035.1Z" fill="#FFB171"/>
</svg>
