<svg width="3611" height="1214" viewBox="0 0 3611 1214" fill="none" xmlns="http://www.w3.org/2000/svg">
<rect x="760" y="293" width="200" height="200" rx="20" fill="#FF8266"/>
<rect x="1120" y="293" width="200" height="200" rx="20" fill="#FF9466"/>
<rect x="400" y="293" width="200" height="200" rx="20" fill="#FF6F66"/>
<path d="M730 349.301L655 392.603L655 306L730 349.301Z" fill="#FF6F66"/>
<path d="M600 339.301H655V359.301H600V339.301Z" fill="#FF6F66"/>
<path d="M270 436.301L345 479.603L345 393L270 436.301Z" fill="#FF6F66"/>
<path d="M400 426.301H345V446.301H400V426.301Z" fill="#FF6F66"/>
<path d="M1090 349.301L1015 392.603L1015 306L1090 349.301Z" fill="#FF8266"/>
<path d="M960 339.301H1015V359.301H960V339.301Z" fill="#FF8266"/>
<path d="M630 436.301L705 479.603L705 393L630 436.301Z" fill="#FF8266"/>
<path d="M760 426.301H705V446.301H760V426.301Z" fill="#FF8266"/>
<path d="M1450 349.301L1375 392.603L1375 306L1450 349.301Z" fill="#FF9466"/>
<path d="M1320 339.301H1375V359.301H1320V339.301Z" fill="#FF9466"/>
<path d="M990 436.301L1065 479.603L1065 393L990 436.301Z" fill="#FF9466"/>
<path d="M1120 426.301H1065V446.301H1120V426.301Z" fill="#FF9466"/>
<path d="M476.4 459C476.8 450.467 478.2 441.467 480.6 432C483 422.4 485.867 412.933 489.2 403.6C492.667 394.267 496.4 385.467 500.4 377.2C504.4 368.8 508.2 361.6 511.8 355.6H459.8V335.2H540.6V353.8C537 357.933 533.067 363.733 528.8 371.2C524.533 378.667 520.467 387.133 516.6 396.6C512.867 406.067 509.533 416.2 506.6 427C503.8 437.667 502.067 448.333 501.4 459H476.4Z" fill="white"/>
<path d="M899.2 364.6C899.2 370.333 897.8 376 895 381.6C892.2 387.067 887.8 391.667 881.8 395.4C889.4 399.8 894.733 404.6 897.8 409.8C901 415 902.6 420.733 902.6 427C902.6 431 901.8 435.067 900.2 439.2C898.733 443.333 896.267 447.067 892.8 450.4C889.467 453.6 885.067 456.267 879.6 458.4C874.133 460.533 867.4 461.6 859.4 461.6C853.133 461.6 847.4 460.8 842.2 459.2C837.133 457.733 832.733 455.6 829 452.8C825.4 449.867 822.6 446.333 820.6 442.2C818.6 437.933 817.6 433.2 817.6 428C817.6 421.733 819.067 415.867 822 410.4C824.933 404.8 829.533 399.867 835.8 395.6C829.933 391.6 825.933 387.333 823.8 382.8C821.667 378.267 820.6 373.467 820.6 368.4C820.6 364.4 821.267 360.267 822.6 356C824.067 351.6 826.333 347.667 829.4 344.2C832.467 340.733 836.533 337.867 841.6 335.6C846.667 333.333 852.933 332.2 860.4 332.2C872.267 332.2 881.667 335.133 888.6 341C895.667 346.867 899.2 354.733 899.2 364.6ZM879.4 426.6C879.4 423.933 878.867 421.6 877.8 419.6C876.867 417.6 875.267 415.8 873 414.2C870.867 412.467 868.067 410.8 864.6 409.2C861.133 407.467 857 405.667 852.2 403.8C848.467 406.867 845.6 410.333 843.6 414.2C841.6 417.933 840.6 421.533 840.6 425C840.6 430.333 842.467 434.4 846.2 437.2C850.067 439.867 854.6 441.2 859.8 441.2C865.8 441.2 870.533 439.8 874 437C877.6 434.067 879.4 430.6 879.4 426.6ZM860 352.6C855.733 352.6 851.933 353.8 848.6 356.2C845.4 358.6 843.8 362.133 843.8 366.8C843.8 371.467 845.333 375.267 848.4 378.2C851.467 381.133 856.867 384.2 864.6 387.4C868.733 384.333 871.667 381 873.4 377.4C875.133 373.667 876 370.067 876 366.6C876 361.933 874.4 358.467 871.2 356.2C868.133 353.8 864.4 352.6 860 352.6Z" fill="white"/>
<path d="M1212.6 461.6C1209.53 461.6 1206.27 461.333 1202.8 460.8C1199.47 460.4 1196.2 459.867 1193 459.2C1189.93 458.533 1187.07 457.8 1184.4 457C1181.73 456.2 1179.67 455.467 1178.2 454.8L1183 434.2C1186.07 435.533 1190 436.933 1194.8 438.4C1199.73 439.867 1205.6 440.6 1212.4 440.6C1220.8 440.6 1226.67 438.8 1230 435.2C1233.47 431.6 1235.2 427.133 1235.2 421.8C1235.2 415.267 1232.6 410.733 1227.4 408.2C1222.2 405.533 1215.6 404.2 1207.6 404.2H1200V383.8H1209.2C1211.73 383.8 1214.27 383.533 1216.8 383C1219.33 382.467 1221.6 381.6 1223.6 380.4C1225.6 379.2 1227.2 377.6 1228.4 375.6C1229.73 373.6 1230.4 371.067 1230.4 368C1230.4 363.467 1229 359.933 1226.2 357.4C1223.53 354.733 1219.8 353.4 1215 353.4C1210.33 353.4 1205.67 354.2 1201 355.8C1196.47 357.267 1192.53 359.133 1189.2 361.4L1180.4 343.4C1184 341 1188.73 338.6 1194.6 336.2C1200.6 333.667 1207.33 332.4 1214.8 332.4C1221.73 332.4 1227.73 333.267 1232.8 335C1238 336.733 1242.27 339.2 1245.6 342.4C1248.93 345.467 1251.4 349.133 1253 353.4C1254.6 357.667 1255.4 362.267 1255.4 367.2C1255.4 372.133 1254 376.867 1251.2 381.4C1248.4 385.933 1244.67 389.4 1240 391.8C1246.4 394.467 1251.33 398.4 1254.8 403.6C1258.4 408.8 1260.2 415 1260.2 422.2C1260.2 427.933 1259.27 433.2 1257.4 438C1255.53 442.8 1252.67 447 1248.8 450.6C1244.93 454.067 1240 456.8 1234 458.8C1228 460.667 1220.87 461.6 1212.6 461.6Z" fill="white"/>
<path d="M119 392.1C119 395.033 118.1 397.267 116.3 398.8C114.5 400.333 112.433 401.1 110.1 401.1C108.9 401.1 107.767 400.9 106.7 400.5C105.633 400.1 104.667 399.533 103.8 398.8C103 398 102.333 397.067 101.8 396C101.333 394.867 101.1 393.567 101.1 392.1C101.1 390.7 101.333 389.467 101.8 388.4C102.333 387.267 103 386.333 103.8 385.6C104.667 384.867 105.633 384.3 106.7 383.9C107.767 383.5 108.9 383.3 110.1 383.3C112.433 383.3 114.5 384.067 116.3 385.6C118.1 387.133 119 389.3 119 392.1ZM169 392.1C169 395.033 168.1 397.267 166.3 398.8C164.5 400.333 162.433 401.1 160.1 401.1C158.9 401.1 157.767 400.9 156.7 400.5C155.633 400.1 154.667 399.533 153.8 398.8C153 398 152.333 397.067 151.8 396C151.333 394.867 151.1 393.567 151.1 392.1C151.1 390.7 151.333 389.467 151.8 388.4C152.333 387.267 153 386.333 153.8 385.6C154.667 384.867 155.633 384.3 156.7 383.9C157.767 383.5 158.9 383.3 160.1 383.3C162.433 383.3 164.5 384.067 166.3 385.6C168.1 387.133 169 389.3 169 392.1ZM219 392.1C219 395.033 218.1 397.267 216.3 398.8C214.5 400.333 212.433 401.1 210.1 401.1C208.9 401.1 207.767 400.9 206.7 400.5C205.633 400.1 204.667 399.533 203.8 398.8C203 398 202.333 397.067 201.8 396C201.333 394.867 201.1 393.567 201.1 392.1C201.1 390.7 201.333 389.467 201.8 388.4C202.333 387.267 203 386.333 203.8 385.6C204.667 384.867 205.633 384.3 206.7 383.9C207.767 383.5 208.9 383.3 210.1 383.3C212.433 383.3 214.5 384.067 216.3 385.6C218.1 387.133 219 389.3 219 392.1Z" fill="#FF6666"/>
<path d="M1519 399.1C1519 402.033 1518.1 404.267 1516.3 405.8C1514.5 407.333 1512.43 408.1 1510.1 408.1C1508.9 408.1 1507.77 407.9 1506.7 407.5C1505.63 407.1 1504.67 406.533 1503.8 405.8C1503 405 1502.33 404.067 1501.8 403C1501.33 401.867 1501.1 400.567 1501.1 399.1C1501.1 397.7 1501.33 396.467 1501.8 395.4C1502.33 394.267 1503 393.333 1503.8 392.6C1504.67 391.867 1505.63 391.3 1506.7 390.9C1507.77 390.5 1508.9 390.3 1510.1 390.3C1512.43 390.3 1514.5 391.067 1516.3 392.6C1518.1 394.133 1519 396.3 1519 399.1ZM1569 399.1C1569 402.033 1568.1 404.267 1566.3 405.8C1564.5 407.333 1562.43 408.1 1560.1 408.1C1558.9 408.1 1557.77 407.9 1556.7 407.5C1555.63 407.1 1554.67 406.533 1553.8 405.8C1553 405 1552.33 404.067 1551.8 403C1551.33 401.867 1551.1 400.567 1551.1 399.1C1551.1 397.7 1551.33 396.467 1551.8 395.4C1552.33 394.267 1553 393.333 1553.8 392.6C1554.67 391.867 1555.63 391.3 1556.7 390.9C1557.77 390.5 1558.9 390.3 1560.1 390.3C1562.43 390.3 1564.5 391.067 1566.3 392.6C1568.1 394.133 1569 396.3 1569 399.1ZM1619 399.1C1619 402.033 1618.1 404.267 1616.3 405.8C1614.5 407.333 1612.43 408.1 1610.1 408.1C1608.9 408.1 1607.77 407.9 1606.7 407.5C1605.63 407.1 1604.67 406.533 1603.8 405.8C1603 405 1602.33 404.067 1601.8 403C1601.33 401.867 1601.1 400.567 1601.1 399.1C1601.1 397.7 1601.33 396.467 1601.8 395.4C1602.33 394.267 1603 393.333 1603.8 392.6C1604.67 391.867 1605.63 391.3 1606.7 390.9C1607.77 390.5 1608.9 390.3 1610.1 390.3C1612.43 390.3 1614.5 391.067 1616.3 392.6C1618.1 394.133 1619 396.3 1619 399.1Z" fill="#FFB171"/>
<rect x="3011" y="198" width="200" height="200" rx="20" fill="#FF9466"/>
<rect x="2650" y="198" width="200" height="200" rx="20" fill="#FF6F66"/>
<path d="M2980 254.301L2905 297.603L2905 211L2980 254.301Z" fill="#FF6F66"/>
<path d="M2850 244.301H2905V264.301H2850V244.301Z" fill="#FF6F66"/>
<path d="M2520 341.301L2595 384.603L2595 298L2520 341.301Z" fill="#FF6F66"/>
<path d="M2650 331.301H2595V351.301H2650V331.301Z" fill="#FF6F66"/>
<path d="M3341 254.301L3266 297.603L3266 211L3341 254.301Z" fill="#FF9466"/>
<path d="M3211 244.301H3266V264.301H3211V244.301Z" fill="#FF9466"/>
<path d="M2881 341.301L2956 384.603L2956 298L2881 341.301Z" fill="#FF9466"/>
<path d="M3011 331.301H2956V351.301H3011V331.301Z" fill="#FF9466"/>
<path d="M2726.4 364C2726.8 355.467 2728.2 346.467 2730.6 337C2733 327.4 2735.87 317.933 2739.2 308.6C2742.67 299.267 2746.4 290.467 2750.4 282.2C2754.4 273.8 2758.2 266.6 2761.8 260.6H2709.8V240.2H2790.6V258.8C2787 262.933 2783.07 268.733 2778.8 276.2C2774.53 283.667 2770.47 292.133 2766.6 301.6C2762.87 311.067 2759.53 321.2 2756.6 332C2753.8 342.667 2752.07 353.333 2751.4 364H2726.4Z" fill="white"/>
<path d="M3103.6 366.6C3100.53 366.6 3097.27 366.333 3093.8 365.8C3090.47 365.4 3087.2 364.867 3084 364.2C3080.93 363.533 3078.07 362.8 3075.4 362C3072.73 361.2 3070.67 360.467 3069.2 359.8L3074 339.2C3077.07 340.533 3081 341.933 3085.8 343.4C3090.73 344.867 3096.6 345.6 3103.4 345.6C3111.8 345.6 3117.67 343.8 3121 340.2C3124.47 336.6 3126.2 332.133 3126.2 326.8C3126.2 320.267 3123.6 315.733 3118.4 313.2C3113.2 310.533 3106.6 309.2 3098.6 309.2H3091V288.8H3100.2C3102.73 288.8 3105.27 288.533 3107.8 288C3110.33 287.467 3112.6 286.6 3114.6 285.4C3116.6 284.2 3118.2 282.6 3119.4 280.6C3120.73 278.6 3121.4 276.067 3121.4 273C3121.4 268.467 3120 264.933 3117.2 262.4C3114.53 259.733 3110.8 258.4 3106 258.4C3101.33 258.4 3096.67 259.2 3092 260.8C3087.47 262.267 3083.53 264.133 3080.2 266.4L3071.4 248.4C3075 246 3079.73 243.6 3085.6 241.2C3091.6 238.667 3098.33 237.4 3105.8 237.4C3112.73 237.4 3118.73 238.267 3123.8 240C3129 241.733 3133.27 244.2 3136.6 247.4C3139.93 250.467 3142.4 254.133 3144 258.4C3145.6 262.667 3146.4 267.267 3146.4 272.2C3146.4 277.133 3145 281.867 3142.2 286.4C3139.4 290.933 3135.67 294.4 3131 296.8C3137.4 299.467 3142.33 303.4 3145.8 308.6C3149.4 313.8 3151.2 320 3151.2 327.2C3151.2 332.933 3150.27 338.2 3148.4 343C3146.53 347.8 3143.67 352 3139.8 355.6C3135.93 359.067 3131 361.8 3125 363.8C3119 365.667 3111.87 366.6 3103.6 366.6Z" fill="white"/>
<path d="M2369 297.1C2369 300.033 2368.1 302.267 2366.3 303.8C2364.5 305.333 2362.43 306.1 2360.1 306.1C2358.9 306.1 2357.77 305.9 2356.7 305.5C2355.63 305.1 2354.67 304.533 2353.8 303.8C2353 303 2352.33 302.067 2351.8 301C2351.33 299.867 2351.1 298.567 2351.1 297.1C2351.1 295.7 2351.33 294.467 2351.8 293.4C2352.33 292.267 2353 291.333 2353.8 290.6C2354.67 289.867 2355.63 289.3 2356.7 288.9C2357.77 288.5 2358.9 288.3 2360.1 288.3C2362.43 288.3 2364.5 289.067 2366.3 290.6C2368.1 292.133 2369 294.3 2369 297.1ZM2419 297.1C2419 300.033 2418.1 302.267 2416.3 303.8C2414.5 305.333 2412.43 306.1 2410.1 306.1C2408.9 306.1 2407.77 305.9 2406.7 305.5C2405.63 305.1 2404.67 304.533 2403.8 303.8C2403 303 2402.33 302.067 2401.8 301C2401.33 299.867 2401.1 298.567 2401.1 297.1C2401.1 295.7 2401.33 294.467 2401.8 293.4C2402.33 292.267 2403 291.333 2403.8 290.6C2404.67 289.867 2405.63 289.3 2406.7 288.9C2407.77 288.5 2408.9 288.3 2410.1 288.3C2412.43 288.3 2414.5 289.067 2416.3 290.6C2418.1 292.133 2419 294.3 2419 297.1ZM2469 297.1C2469 300.033 2468.1 302.267 2466.3 303.8C2464.5 305.333 2462.43 306.1 2460.1 306.1C2458.9 306.1 2457.77 305.9 2456.7 305.5C2455.63 305.1 2454.67 304.533 2453.8 303.8C2453 303 2452.33 302.067 2451.8 301C2451.33 299.867 2451.1 298.567 2451.1 297.1C2451.1 295.7 2451.33 294.467 2451.8 293.4C2452.33 292.267 2453 291.333 2453.8 290.6C2454.67 289.867 2455.63 289.3 2456.7 288.9C2457.77 288.5 2458.9 288.3 2460.1 288.3C2462.43 288.3 2464.5 289.067 2466.3 290.6C2468.1 292.133 2469 294.3 2469 297.1Z" fill="#FF6666"/>
<path d="M3410 304.1C3410 307.033 3409.1 309.267 3407.3 310.8C3405.5 312.333 3403.43 313.1 3401.1 313.1C3399.9 313.1 3398.77 312.9 3397.7 312.5C3396.63 312.1 3395.67 311.533 3394.8 310.8C3394 310 3393.33 309.067 3392.8 308C3392.33 306.867 3392.1 305.567 3392.1 304.1C3392.1 302.7 3392.33 301.467 3392.8 300.4C3393.33 299.267 3394 298.333 3394.8 297.6C3395.67 296.867 3396.63 296.3 3397.7 295.9C3398.77 295.5 3399.9 295.3 3401.1 295.3C3403.43 295.3 3405.5 296.067 3407.3 297.6C3409.1 299.133 3410 301.3 3410 304.1ZM3460 304.1C3460 307.033 3459.1 309.267 3457.3 310.8C3455.5 312.333 3453.43 313.1 3451.1 313.1C3449.9 313.1 3448.77 312.9 3447.7 312.5C3446.63 312.1 3445.67 311.533 3444.8 310.8C3444 310 3443.33 309.067 3442.8 308C3442.33 306.867 3442.1 305.567 3442.1 304.1C3442.1 302.7 3442.33 301.467 3442.8 300.4C3443.33 299.267 3444 298.333 3444.8 297.6C3445.67 296.867 3446.63 296.3 3447.7 295.9C3448.77 295.5 3449.9 295.3 3451.1 295.3C3453.43 295.3 3455.5 296.067 3457.3 297.6C3459.1 299.133 3460 301.3 3460 304.1ZM3510 304.1C3510 307.033 3509.1 309.267 3507.3 310.8C3505.5 312.333 3503.43 313.1 3501.1 313.1C3499.9 313.1 3498.77 312.9 3497.7 312.5C3496.63 312.1 3495.67 311.533 3494.8 310.8C3494 310 3493.33 309.067 3492.8 308C3492.33 306.867 3492.1 305.567 3492.1 304.1C3492.1 302.7 3492.33 301.467 3492.8 300.4C3493.33 299.267 3494 298.333 3494.8 297.6C3495.67 296.867 3496.63 296.3 3497.7 295.9C3498.77 295.5 3499.9 295.3 3501.1 295.3C3503.43 295.3 3505.5 296.067 3507.3 297.6C3509.1 299.133 3510 301.3 3510 304.1Z" fill="#FFB171"/>
<rect x="2200" y="898" width="200" height="200" rx="20" fill="#FF9466"/>
<rect x="1640" y="898" width="200" height="200" rx="20" fill="#FF6F66"/>
<path d="M2134.5 954.301L2059.5 997.603V911L2134.5 954.301Z" fill="#FF0000"/>
<path d="M1840 944.301H2059.5V964.301H1840V944.301Z" fill="#FF0000"/>
<path d="M1905 1041.3L1980 1084.6V998L1905 1041.3Z" fill="#FF0000"/>
<path d="M2199.5 1031.3H1980V1051.3H2199.5V1031.3Z" fill="#FF0000"/>
<path d="M1510 1041.3L1585 1084.6L1585 998L1510 1041.3Z" fill="#FF6F66"/>
<path d="M1640 1031.3H1585V1051.3H1640V1031.3Z" fill="#FF6F66"/>
<path d="M2530 954.301L2455 997.603L2455 911L2530 954.301Z" fill="#FF9466"/>
<path d="M2400 944.301H2455V964.301H2400V944.301Z" fill="#FF9466"/>
<path d="M1716.4 1064C1716.8 1055.47 1718.2 1046.47 1720.6 1037C1723 1027.4 1725.87 1017.93 1729.2 1008.6C1732.67 999.267 1736.4 990.467 1740.4 982.2C1744.4 973.8 1748.2 966.6 1751.8 960.6H1699.8V940.2H1780.6V958.8C1777 962.933 1773.07 968.733 1768.8 976.2C1764.53 983.667 1760.47 992.133 1756.6 1001.6C1752.87 1011.07 1749.53 1021.2 1746.6 1032C1743.8 1042.67 1742.07 1053.33 1741.4 1064H1716.4Z" fill="white"/>
<rect x="1920" y="530" width="200" height="200" rx="20" fill="#FF8266"/>
<path d="M2250 586.301L2175 629.603L2175 543L2250 586.301Z" fill="#FF8266"/>
<path d="M2120 576.301H2175V596.301H2120V576.301Z" fill="#FF8266"/>
<path d="M1790 673.301L1865 716.603L1865 630L1790 673.301Z" fill="#FF8266"/>
<path d="M1920 663.301H1865V683.301H1920V663.301Z" fill="#FF8266"/>
<path d="M2059.2 601.6C2059.2 607.333 2057.8 613 2055 618.6C2052.2 624.067 2047.8 628.667 2041.8 632.4C2049.4 636.8 2054.73 641.6 2057.8 646.8C2061 652 2062.6 657.733 2062.6 664C2062.6 668 2061.8 672.067 2060.2 676.2C2058.73 680.333 2056.27 684.067 2052.8 687.4C2049.47 690.6 2045.07 693.267 2039.6 695.4C2034.13 697.533 2027.4 698.6 2019.4 698.6C2013.13 698.6 2007.4 697.8 2002.2 696.2C1997.13 694.733 1992.73 692.6 1989 689.8C1985.4 686.867 1982.6 683.333 1980.6 679.2C1978.6 674.933 1977.6 670.2 1977.6 665C1977.6 658.733 1979.07 652.867 1982 647.4C1984.93 641.8 1989.53 636.867 1995.8 632.6C1989.93 628.6 1985.93 624.333 1983.8 619.8C1981.67 615.267 1980.6 610.467 1980.6 605.4C1980.6 601.4 1981.27 597.267 1982.6 593C1984.07 588.6 1986.33 584.667 1989.4 581.2C1992.47 577.733 1996.53 574.867 2001.6 572.6C2006.67 570.333 2012.93 569.2 2020.4 569.2C2032.27 569.2 2041.67 572.133 2048.6 578C2055.67 583.867 2059.2 591.733 2059.2 601.6ZM2039.4 663.6C2039.4 660.933 2038.87 658.6 2037.8 656.6C2036.87 654.6 2035.27 652.8 2033 651.2C2030.87 649.467 2028.07 647.8 2024.6 646.2C2021.13 644.467 2017 642.667 2012.2 640.8C2008.47 643.867 2005.6 647.333 2003.6 651.2C2001.6 654.933 2000.6 658.533 2000.6 662C2000.6 667.333 2002.47 671.4 2006.2 674.2C2010.07 676.867 2014.6 678.2 2019.8 678.2C2025.8 678.2 2030.53 676.8 2034 674C2037.6 671.067 2039.4 667.6 2039.4 663.6ZM2020 589.6C2015.73 589.6 2011.93 590.8 2008.6 593.2C2005.4 595.6 2003.8 599.133 2003.8 603.8C2003.8 608.467 2005.33 612.267 2008.4 615.2C2011.47 618.133 2016.87 621.2 2024.6 624.4C2028.73 621.333 2031.67 618 2033.4 614.4C2035.13 610.667 2036 607.067 2036 603.6C2036 598.933 2034.4 595.467 2031.2 593.2C2028.13 590.8 2024.4 589.6 2020 589.6Z" fill="white"/>
<path d="M2292.6 1066.6C2289.53 1066.6 2286.27 1066.33 2282.8 1065.8C2279.47 1065.4 2276.2 1064.87 2273 1064.2C2269.93 1063.53 2267.07 1062.8 2264.4 1062C2261.73 1061.2 2259.67 1060.47 2258.2 1059.8L2263 1039.2C2266.07 1040.53 2270 1041.93 2274.8 1043.4C2279.73 1044.87 2285.6 1045.6 2292.4 1045.6C2300.8 1045.6 2306.67 1043.8 2310 1040.2C2313.47 1036.6 2315.2 1032.13 2315.2 1026.8C2315.2 1020.27 2312.6 1015.73 2307.4 1013.2C2302.2 1010.53 2295.6 1009.2 2287.6 1009.2H2280V988.8H2289.2C2291.73 988.8 2294.27 988.533 2296.8 988C2299.33 987.467 2301.6 986.6 2303.6 985.4C2305.6 984.2 2307.2 982.6 2308.4 980.6C2309.73 978.6 2310.4 976.067 2310.4 973C2310.4 968.467 2309 964.933 2306.2 962.4C2303.53 959.733 2299.8 958.4 2295 958.4C2290.33 958.4 2285.67 959.2 2281 960.8C2276.47 962.267 2272.53 964.133 2269.2 966.4L2260.4 948.4C2264 946 2268.73 943.6 2274.6 941.2C2280.6 938.667 2287.33 937.4 2294.8 937.4C2301.73 937.4 2307.73 938.267 2312.8 940C2318 941.733 2322.27 944.2 2325.6 947.4C2328.93 950.467 2331.4 954.133 2333 958.4C2334.6 962.667 2335.4 967.267 2335.4 972.2C2335.4 977.133 2334 981.867 2331.2 986.4C2328.4 990.933 2324.67 994.4 2320 996.8C2326.4 999.467 2331.33 1003.4 2334.8 1008.6C2338.4 1013.8 2340.2 1020 2340.2 1027.2C2340.2 1032.93 2339.27 1038.2 2337.4 1043C2335.53 1047.8 2332.67 1052 2328.8 1055.6C2324.93 1059.07 2320 1061.8 2314 1063.8C2308 1065.67 2300.87 1066.6 2292.6 1066.6Z" fill="white"/>
<path d="M1359 997.1C1359 1000.03 1358.1 1002.27 1356.3 1003.8C1354.5 1005.33 1352.43 1006.1 1350.1 1006.1C1348.9 1006.1 1347.77 1005.9 1346.7 1005.5C1345.63 1005.1 1344.67 1004.53 1343.8 1003.8C1343 1003 1342.33 1002.07 1341.8 1001C1341.33 999.867 1341.1 998.567 1341.1 997.1C1341.1 995.7 1341.33 994.467 1341.8 993.4C1342.33 992.267 1343 991.333 1343.8 990.6C1344.67 989.867 1345.63 989.3 1346.7 988.9C1347.77 988.5 1348.9 988.3 1350.1 988.3C1352.43 988.3 1354.5 989.067 1356.3 990.6C1358.1 992.133 1359 994.3 1359 997.1ZM1409 997.1C1409 1000.03 1408.1 1002.27 1406.3 1003.8C1404.5 1005.33 1402.43 1006.1 1400.1 1006.1C1398.9 1006.1 1397.77 1005.9 1396.7 1005.5C1395.63 1005.1 1394.67 1004.53 1393.8 1003.8C1393 1003 1392.33 1002.07 1391.8 1001C1391.33 999.867 1391.1 998.567 1391.1 997.1C1391.1 995.7 1391.33 994.467 1391.8 993.4C1392.33 992.267 1393 991.333 1393.8 990.6C1394.67 989.867 1395.63 989.3 1396.7 988.9C1397.77 988.5 1398.9 988.3 1400.1 988.3C1402.43 988.3 1404.5 989.067 1406.3 990.6C1408.1 992.133 1409 994.3 1409 997.1ZM1459 997.1C1459 1000.03 1458.1 1002.27 1456.3 1003.8C1454.5 1005.33 1452.43 1006.1 1450.1 1006.1C1448.9 1006.1 1447.77 1005.9 1446.7 1005.5C1445.63 1005.1 1444.67 1004.53 1443.8 1003.8C1443 1003 1442.33 1002.07 1441.8 1001C1441.33 999.867 1441.1 998.567 1441.1 997.1C1441.1 995.7 1441.33 994.467 1441.8 993.4C1442.33 992.267 1443 991.333 1443.8 990.6C1444.67 989.867 1445.63 989.3 1446.7 988.9C1447.77 988.5 1448.9 988.3 1450.1 988.3C1452.43 988.3 1454.5 989.067 1456.3 990.6C1458.1 992.133 1459 994.3 1459 997.1Z" fill="#FF6666"/>
<path d="M2599 1004.1C2599 1007.03 2598.1 1009.27 2596.3 1010.8C2594.5 1012.33 2592.43 1013.1 2590.1 1013.1C2588.9 1013.1 2587.77 1012.9 2586.7 1012.5C2585.63 1012.1 2584.67 1011.53 2583.8 1010.8C2583 1010 2582.33 1009.07 2581.8 1008C2581.33 1006.87 2581.1 1005.57 2581.1 1004.1C2581.1 1002.7 2581.33 1001.47 2581.8 1000.4C2582.33 999.267 2583 998.333 2583.8 997.6C2584.67 996.867 2585.63 996.3 2586.7 995.9C2587.77 995.5 2588.9 995.3 2590.1 995.3C2592.43 995.3 2594.5 996.067 2596.3 997.6C2598.1 999.133 2599 1001.3 2599 1004.1ZM2649 1004.1C2649 1007.03 2648.1 1009.27 2646.3 1010.8C2644.5 1012.33 2642.43 1013.1 2640.1 1013.1C2638.9 1013.1 2637.77 1012.9 2636.7 1012.5C2635.63 1012.1 2634.67 1011.53 2633.8 1010.8C2633 1010 2632.33 1009.07 2631.8 1008C2631.33 1006.87 2631.1 1005.57 2631.1 1004.1C2631.1 1002.7 2631.33 1001.47 2631.8 1000.4C2632.33 999.267 2633 998.333 2633.8 997.6C2634.67 996.867 2635.63 996.3 2636.7 995.9C2637.77 995.5 2638.9 995.3 2640.1 995.3C2642.43 995.3 2644.5 996.067 2646.3 997.6C2648.1 999.133 2649 1001.3 2649 1004.1ZM2699 1004.1C2699 1007.03 2698.1 1009.27 2696.3 1010.8C2694.5 1012.33 2692.43 1013.1 2690.1 1013.1C2688.9 1013.1 2687.77 1012.9 2686.7 1012.5C2685.63 1012.1 2684.67 1011.53 2683.8 1010.8C2683 1010 2682.33 1009.07 2681.8 1008C2681.33 1006.87 2681.1 1005.57 2681.1 1004.1C2681.1 1002.7 2681.33 1001.47 2681.8 1000.4C2682.33 999.267 2683 998.333 2683.8 997.6C2684.67 996.867 2685.63 996.3 2686.7 995.9C2687.77 995.5 2688.9 995.3 2690.1 995.3C2692.43 995.3 2694.5 996.067 2696.3 997.6C2698.1 999.133 2699 1001.3 2699 1004.1Z" fill="#FFB171"/>
<path d="M860 265L831 215L889 215L860 265Z" fill="#525252"/>
<path d="M731.4 135.4C734.933 135.4 738.133 135.8 741 136.6C743.867 137.4 746.333 138.633 748.4 140.3C750.467 141.967 752.033 144.1 753.1 146.7C754.233 149.233 754.8 152.233 754.8 155.7C754.8 159.3 754.067 162.567 752.6 165.5C751.133 168.433 748.7 170.667 745.3 172.2C746.433 173.933 747.633 175.867 748.9 178C750.167 180.067 751.4 182.267 752.6 184.6C753.8 186.867 754.933 189.167 756 191.5C757.133 193.767 758.1 195.933 758.9 198H746C744.467 194 742.667 190.167 740.6 186.5C738.6 182.767 736.433 179 734.1 175.2H727.7V198H715.4V137C716.6 136.733 717.9 136.5 719.3 136.3C720.767 136.033 722.233 135.867 723.7 135.8C725.167 135.667 726.567 135.567 727.9 135.5C729.233 135.433 730.4 135.4 731.4 135.4ZM742.3 155.6C742.3 152.333 741.3 149.933 739.3 148.4C737.3 146.867 734.667 146.1 731.4 146.1C730.933 146.1 730.367 146.133 729.7 146.2C729.033 146.2 728.367 146.267 727.7 146.4V165H730.4C734.6 165 737.633 164.2 739.5 162.6C741.367 160.933 742.3 158.6 742.3 155.6ZM763.1 174.9C763.1 170.767 763.733 167.133 765 164C766.267 160.867 767.933 158.267 770 156.2C772.067 154.067 774.433 152.467 777.1 151.4C779.767 150.333 782.5 149.8 785.3 149.8C792.233 149.8 797.5 151.867 801.1 156C804.7 160.067 806.5 166.033 806.5 173.9C806.5 174.7 806.467 175.533 806.4 176.4C806.4 177.267 806.367 177.967 806.3 178.5H775.8C775.8 181.567 777.067 184 779.6 185.8C782.133 187.533 785.4 188.4 789.4 188.4C791.867 188.4 794.2 188.133 796.4 187.6C798.667 187.067 800.567 186.533 802.1 186L803.8 196.5C801.667 197.233 799.4 197.833 797 198.3C794.6 198.833 791.9 199.1 788.9 199.1C784.9 199.1 781.3 198.6 778.1 197.6C774.967 196.533 772.267 195 770 193C767.8 190.933 766.1 188.4 764.9 185.4C763.7 182.4 763.1 178.9 763.1 174.9ZM794.6 170C794.6 168.733 794.433 167.533 794.1 166.4C793.767 165.2 793.233 164.133 792.5 163.2C791.767 162.267 790.833 161.533 789.7 161C788.567 160.4 787.167 160.1 785.5 160.1C783.9 160.1 782.5 160.367 781.3 160.9C780.167 161.433 779.2 162.167 778.4 163.1C777.667 164.033 777.067 165.1 776.6 166.3C776.2 167.5 775.933 168.733 775.8 170H794.6ZM844.3 150.5C846.9 150.5 849.033 150.9 850.7 151.7C852.367 152.5 853.667 153.7 854.6 155.3C855.6 156.9 856.267 158.933 856.6 161.4C856.933 163.8 857.1 166.633 857.1 169.9V198H847.1V169.3C847.1 167.433 846.967 165.933 846.7 164.8C846.5 163.667 846.2 162.8 845.8 162.2C845.467 161.6 845.033 161.2 844.5 161C844.033 160.8 843.533 160.7 843 160.7C842.4 160.7 841.767 160.767 841.1 160.9C840.433 160.967 839.833 161.133 839.3 161.4C839.5 162.667 839.667 164.067 839.8 165.6C839.933 167.133 840 168.833 840 170.7V180.1H830V169.3C830 166.1 829.667 163.867 829 162.6C828.4 161.333 827.4 160.7 826 160.7C825.6 160.7 825.1 160.733 824.5 160.8C823.967 160.867 823.433 160.967 822.9 161.1V198H812.9V152.8C815.5 152.067 818.067 151.5 820.6 151.1C823.133 150.7 825.367 150.5 827.3 150.5C829.033 150.5 830.567 150.733 831.9 151.2C833.3 151.6 834.5 152.3 835.5 153.3C836.633 152.567 837.967 151.933 839.5 151.4C841.033 150.8 842.633 150.5 844.3 150.5ZM907.2 174.4C907.2 178.133 906.667 181.533 905.6 184.6C904.533 187.6 903.033 190.2 901.1 192.4C899.167 194.6 896.833 196.3 894.1 197.5C891.433 198.7 888.433 199.3 885.1 199.3C881.767 199.3 878.733 198.7 876 197.5C873.333 196.3 871 194.6 869 192.4C867.067 190.2 865.567 187.6 864.5 184.6C863.433 181.533 862.9 178.133 862.9 174.4C862.9 170.733 863.433 167.4 864.5 164.4C865.633 161.333 867.167 158.733 869.1 156.6C871.1 154.4 873.467 152.733 876.2 151.6C878.933 150.4 881.9 149.8 885.1 149.8C888.367 149.8 891.333 150.4 894 151.6C896.733 152.733 899.067 154.4 901 156.6C903 158.733 904.533 161.333 905.6 164.4C906.667 167.4 907.2 170.733 907.2 174.4ZM875.4 174.5C875.4 178.7 876.133 182.1 877.6 184.7C879.133 187.3 881.567 188.6 884.9 188.6C888.1 188.6 890.5 187.3 892.1 184.7C893.767 182.1 894.6 178.7 894.6 174.5C894.6 170.3 893.833 166.933 892.3 164.4C890.833 161.8 888.433 160.5 885.1 160.5C881.9 160.5 879.467 161.8 877.8 164.4C876.2 166.933 875.4 170.3 875.4 174.5ZM929.4 198C926.4 192.067 923.333 185.133 920.2 177.2C917.133 169.2 914.2 160.467 911.4 151H924.3C924.9 153.533 925.6 156.233 926.4 159.1C927.267 161.967 928.167 164.867 929.1 167.8C930.033 170.667 930.967 173.467 931.9 176.2C932.9 178.933 933.833 181.433 934.7 183.7C935.567 181.433 936.533 178.933 937.6 176.2C938.667 173.467 939.7 170.667 940.7 167.8C941.767 164.867 942.767 161.967 943.7 159.1C944.7 156.233 945.5 153.533 946.1 151H958.6C955.8 160.467 952.7 169.2 949.3 177.2C945.9 185.133 942.7 192.067 939.7 198H929.4ZM963.1 174.9C963.1 170.767 963.733 167.133 965 164C966.267 160.867 967.933 158.267 970 156.2C972.067 154.067 974.433 152.467 977.1 151.4C979.767 150.333 982.5 149.8 985.3 149.8C992.233 149.8 997.5 151.867 1001.1 156C1004.7 160.067 1006.5 166.033 1006.5 173.9C1006.5 174.7 1006.47 175.533 1006.4 176.4C1006.4 177.267 1006.37 177.967 1006.3 178.5H975.8C975.8 181.567 977.067 184 979.6 185.8C982.133 187.533 985.4 188.4 989.4 188.4C991.867 188.4 994.2 188.133 996.4 187.6C998.667 187.067 1000.57 186.533 1002.1 186L1003.8 196.5C1001.67 197.233 999.4 197.833 997 198.3C994.6 198.833 991.9 199.1 988.9 199.1C984.9 199.1 981.3 198.6 978.1 197.6C974.967 196.533 972.267 195 970 193C967.8 190.933 966.1 188.4 964.9 185.4C963.7 182.4 963.1 178.9 963.1 174.9ZM994.6 170C994.6 168.733 994.433 167.533 994.1 166.4C993.767 165.2 993.233 164.133 992.5 163.2C991.767 162.267 990.833 161.533 989.7 161C988.567 160.4 987.167 160.1 985.5 160.1C983.9 160.1 982.5 160.367 981.3 160.9C980.167 161.433 979.2 162.167 978.4 163.1C977.667 164.033 977.067 165.1 976.6 166.3C976.2 167.5 975.933 168.733 975.8 170H994.6Z" fill="#525252"/>
<path d="M1858 791.213L2181.21 468M2181.21 791.213L1858 468" stroke="#FF0000" stroke-width="30"/>
</svg>
