<svg width="2368" height="495" viewBox="0 0 2368 495" fill="none" xmlns="http://www.w3.org/2000/svg">
<rect x="1091" y="77" width="200" height="200" rx="20" fill="#FF8266"/>
<rect x="1451" y="77" width="200" height="200" rx="20" fill="#FF9466"/>
<rect x="731" y="77" width="200" height="200" rx="20" fill="#FF6F66"/>
<rect x="371" y="77" width="200" height="200" rx="20" fill="#FF6666"/>
<rect x="1811" y="77" width="200" height="200" rx="20" fill="#FFB171"/>
<path d="M701 133.301L626 176.603L626 90L701 133.301Z" fill="#FF6666"/>
<path d="M571 123.301H626V143.301H571V123.301Z" fill="#FF6666"/>
<path d="M471 299L500 349L442 349L471 299Z" fill="#525252"/>
<path d="M1061 133.301L986 176.603L986 90L1061 133.301Z" fill="#FF6F66"/>
<path d="M931 123.301H986V143.301H931V123.301Z" fill="#FF6F66"/>
<path d="M601 220.301L676 263.603L676 177L601 220.301Z" fill="#FF6F66"/>
<path d="M731 210.301H676V230.301H731V210.301Z" fill="#FF6F66"/>
<path d="M1421 133.301L1346 176.603L1346 90L1421 133.301Z" fill="#FF8266"/>
<path d="M1291 123.301H1346V143.301H1291V123.301Z" fill="#FF8266"/>
<path d="M961 220.301L1036 263.603L1036 177L961 220.301Z" fill="#FF8266"/>
<path d="M1091 210.301H1036V230.301H1091V210.301Z" fill="#FF8266"/>
<path d="M1781 133.301L1706 176.603L1706 90L1781 133.301Z" fill="#FF9466"/>
<path d="M1651 123.301H1706V143.301H1651V123.301Z" fill="#FF9466"/>
<path d="M1321 220.301L1396 263.603L1396 177L1321 220.301Z" fill="#FF9466"/>
<path d="M1451 210.301H1396V230.301H1451V210.301Z" fill="#FF9466"/>
<path d="M2141 133.301L2066 176.603L2066 90L2141 133.301Z" fill="#FFB171"/>
<path d="M2011 123.301H2066V143.301H2011V123.301Z" fill="#FFB171"/>
<path d="M1681 220.301L1756 263.603L1756 177L1681 220.301Z" fill="#FFB171"/>
<path d="M1811 210.301H1756V230.301H1811V210.301Z" fill="#FFB171"/>
<circle cx="2246" cy="177" r="75" fill="#525252"/>
<path d="M2207.3 197C2205.62 192.88 2203.78 188.78 2201.78 184.7C2199.82 180.58 2197.7 176.46 2195.42 172.34V197H2188.76V159.86H2194.7C2195.82 161.62 2196.94 163.54 2198.06 165.62C2199.18 167.66 2200.26 169.7 2201.3 171.74C2202.38 173.78 2203.36 175.76 2204.24 177.68C2205.16 179.6 2205.94 181.28 2206.58 182.72V159.86H2213.24V197H2207.3ZM2230.88 197.78C2228.48 197.78 2226.46 197.46 2224.82 196.82C2223.22 196.14 2221.94 195.18 2220.98 193.94C2220.02 192.7 2219.34 191.2 2218.94 189.44C2218.54 187.68 2218.34 185.72 2218.34 183.56V159.86H2225.78V183.08C2225.78 184.64 2225.86 185.96 2226.02 187.04C2226.18 188.08 2226.44 188.92 2226.8 189.56C2227.2 190.2 2227.74 190.66 2228.42 190.94C2229.1 191.22 2229.96 191.36 2231 191.36C2232.04 191.36 2232.9 191.22 2233.58 190.94C2234.26 190.66 2234.8 190.2 2235.2 189.56C2235.6 188.88 2235.88 188.02 2236.04 186.98C2236.2 185.9 2236.28 184.58 2236.28 183.02V159.86H2243.66V183.56C2243.66 185.72 2243.46 187.68 2243.06 189.44C2242.66 191.2 2241.96 192.7 2240.96 193.94C2239.96 195.18 2238.64 196.14 2237 196.82C2235.36 197.46 2233.32 197.78 2230.88 197.78ZM2273.6 197H2250.26V159.86H2257.7V190.88H2273.6V197ZM2303.6 197H2280.26V159.86H2287.7V190.88H2303.6V197Z" fill="white"/>
<path d="M473.2 177.2C475.733 177.2 478.4 176.933 481.2 176.4C484 175.867 486.267 175.133 488 174.2C488.133 173.133 488.2 171.867 488.2 170.4C488.333 168.8 488.4 167.267 488.4 165.8C488.4 162.467 488.067 159.133 487.4 155.8C486.867 152.333 485.867 149.2 484.4 146.4C483.067 143.6 481.2 141.333 478.8 139.6C476.533 137.867 473.667 137 470.2 137C467.267 137 464.733 137.6 462.6 138.8C460.6 139.867 458.933 141.333 457.6 143.2C456.4 145.067 455.467 147.267 454.8 149.8C454.267 152.333 454 155 454 157.8C454 164.067 455.467 168.867 458.4 172.2C461.333 175.533 466.267 177.2 473.2 177.2ZM470 197.6C462.8 197.6 456.667 196.6 451.6 194.6C446.533 192.467 442.4 189.6 439.2 186C436 182.4 433.667 178.267 432.2 173.6C430.733 168.8 430 163.667 430 158.2C430 153.4 430.8 148.533 432.4 143.6C434.133 138.533 436.6 134 439.8 130C443.133 125.867 447.267 122.533 452.2 120C457.133 117.333 462.933 116 469.6 116C483.467 116 494.067 120.667 501.4 130C508.733 139.333 512.4 152.333 512.4 169C512.4 181 510.667 191.667 507.2 201C503.733 210.2 498.733 217.933 492.2 224.2C485.8 230.467 478 235.267 468.8 238.6C459.733 241.8 449.6 243.4 438.4 243.4L437.6 222.2C448.267 222.067 457.8 219.8 466.2 215.4C474.6 210.867 480.533 203.8 484 194.2C478.8 196.467 474.133 197.6 470 197.6Z" fill="white"/>
<path d="M807.4 243C807.8 234.467 809.2 225.467 811.6 216C814 206.4 816.867 196.933 820.2 187.6C823.667 178.267 827.4 169.467 831.4 161.2C835.4 152.8 839.2 145.6 842.8 139.6H790.8V119.2H871.6V137.8C868 141.933 864.067 147.733 859.8 155.2C855.533 162.667 851.467 171.133 847.6 180.6C843.867 190.067 840.533 200.2 837.6 211C834.8 221.667 833.067 232.333 832.4 243H807.4Z" fill="white"/>
<path d="M1230.2 148.6C1230.2 154.333 1228.8 160 1226 165.6C1223.2 171.067 1218.8 175.667 1212.8 179.4C1220.4 183.8 1225.73 188.6 1228.8 193.8C1232 199 1233.6 204.733 1233.6 211C1233.6 215 1232.8 219.067 1231.2 223.2C1229.73 227.333 1227.27 231.067 1223.8 234.4C1220.47 237.6 1216.07 240.267 1210.6 242.4C1205.13 244.533 1198.4 245.6 1190.4 245.6C1184.13 245.6 1178.4 244.8 1173.2 243.2C1168.13 241.733 1163.73 239.6 1160 236.8C1156.4 233.867 1153.6 230.333 1151.6 226.2C1149.6 221.933 1148.6 217.2 1148.6 212C1148.6 205.733 1150.07 199.867 1153 194.4C1155.93 188.8 1160.53 183.867 1166.8 179.6C1160.93 175.6 1156.93 171.333 1154.8 166.8C1152.67 162.267 1151.6 157.467 1151.6 152.4C1151.6 148.4 1152.27 144.267 1153.6 140C1155.07 135.6 1157.33 131.667 1160.4 128.2C1163.47 124.733 1167.53 121.867 1172.6 119.6C1177.67 117.333 1183.93 116.2 1191.4 116.2C1203.27 116.2 1212.67 119.133 1219.6 125C1226.67 130.867 1230.2 138.733 1230.2 148.6ZM1210.4 210.6C1210.4 207.933 1209.87 205.6 1208.8 203.6C1207.87 201.6 1206.27 199.8 1204 198.2C1201.87 196.467 1199.07 194.8 1195.6 193.2C1192.13 191.467 1188 189.667 1183.2 187.8C1179.47 190.867 1176.6 194.333 1174.6 198.2C1172.6 201.933 1171.6 205.533 1171.6 209C1171.6 214.333 1173.47 218.4 1177.2 221.2C1181.07 223.867 1185.6 225.2 1190.8 225.2C1196.8 225.2 1201.53 223.8 1205 221C1208.6 218.067 1210.4 214.6 1210.4 210.6ZM1191 136.6C1186.73 136.6 1182.93 137.8 1179.6 140.2C1176.4 142.6 1174.8 146.133 1174.8 150.8C1174.8 155.467 1176.33 159.267 1179.4 162.2C1182.47 165.133 1187.87 168.2 1195.6 171.4C1199.73 168.333 1202.67 165 1204.4 161.4C1206.13 157.667 1207 154.067 1207 150.6C1207 145.933 1205.4 142.467 1202.2 140.2C1199.13 137.8 1195.4 136.6 1191 136.6Z" fill="white"/>
<path d="M1543.6 245.6C1540.53 245.6 1537.27 245.333 1533.8 244.8C1530.47 244.4 1527.2 243.867 1524 243.2C1520.93 242.533 1518.07 241.8 1515.4 241C1512.73 240.2 1510.67 239.467 1509.2 238.8L1514 218.2C1517.07 219.533 1521 220.933 1525.8 222.4C1530.73 223.867 1536.6 224.6 1543.4 224.6C1551.8 224.6 1557.67 222.8 1561 219.2C1564.47 215.6 1566.2 211.133 1566.2 205.8C1566.2 199.267 1563.6 194.733 1558.4 192.2C1553.2 189.533 1546.6 188.2 1538.6 188.2H1531V167.8H1540.2C1542.73 167.8 1545.27 167.533 1547.8 167C1550.33 166.467 1552.6 165.6 1554.6 164.4C1556.6 163.2 1558.2 161.6 1559.4 159.6C1560.73 157.6 1561.4 155.067 1561.4 152C1561.4 147.467 1560 143.933 1557.2 141.4C1554.53 138.733 1550.8 137.4 1546 137.4C1541.33 137.4 1536.67 138.2 1532 139.8C1527.47 141.267 1523.53 143.133 1520.2 145.4L1511.4 127.4C1515 125 1519.73 122.6 1525.6 120.2C1531.6 117.667 1538.33 116.4 1545.8 116.4C1552.73 116.4 1558.73 117.267 1563.8 119C1569 120.733 1573.27 123.2 1576.6 126.4C1579.93 129.467 1582.4 133.133 1584 137.4C1585.6 141.667 1586.4 146.267 1586.4 151.2C1586.4 156.133 1585 160.867 1582.2 165.4C1579.4 169.933 1575.67 173.4 1571 175.8C1577.4 178.467 1582.33 182.4 1585.8 187.6C1589.4 192.8 1591.2 199 1591.2 206.2C1591.2 211.933 1590.27 217.2 1588.4 222C1586.53 226.8 1583.67 231 1579.8 234.6C1575.93 238.067 1571 240.8 1565 242.8C1559 244.667 1551.87 245.6 1543.6 245.6Z" fill="white"/>
<path d="M1925.2 206.6C1925.2 203.133 1924.6 200 1923.4 197.2C1922.33 194.267 1920.07 191.8 1916.6 189.8C1913.27 187.667 1908.47 186.067 1902.2 185C1895.93 183.8 1887.73 183.2 1877.6 183.2C1878.93 172 1880 161.067 1880.8 150.4C1881.6 139.6 1882.2 129.2 1882.6 119.2H1945.8V139.6H1903.2C1902.93 143.867 1902.6 148.333 1902.2 153C1901.8 157.667 1901.47 161.467 1901.2 164.4C1917.73 165.467 1930.07 169.467 1938.2 176.4C1946.33 183.333 1950.4 193.067 1950.4 205.6C1950.4 211.333 1949.4 216.667 1947.4 221.6C1945.4 226.4 1942.33 230.6 1938.2 234.2C1934.07 237.8 1928.93 240.6 1922.8 242.6C1916.67 244.6 1909.53 245.6 1901.4 245.6C1898.2 245.6 1894.93 245.4 1891.6 245C1888.27 244.6 1885.07 244.067 1882 243.4C1878.93 242.867 1876.13 242.2 1873.6 241.4C1871.2 240.6 1869.33 239.867 1868 239.2L1873 218.8C1875.93 220.267 1879.67 221.6 1884.2 222.8C1888.73 224 1894.4 224.6 1901.2 224.6C1906 224.6 1909.93 224.067 1913 223C1916.2 221.933 1918.67 220.6 1920.4 219C1922.27 217.267 1923.53 215.333 1924.2 213.2C1924.87 211.067 1925.2 208.867 1925.2 206.6Z" fill="white"/>
<path d="M416.5 370.1V432H404.2V404.7H387.8V432H375.5V370.1H387.8V394.5H404.2V370.1H416.5ZM424.1 408.9C424.1 404.767 424.733 401.133 426 398C427.267 394.867 428.933 392.267 431 390.2C433.067 388.067 435.433 386.467 438.1 385.4C440.767 384.333 443.5 383.8 446.3 383.8C453.233 383.8 458.5 385.867 462.1 390C465.7 394.067 467.5 400.033 467.5 407.9C467.5 408.7 467.467 409.533 467.4 410.4C467.4 411.267 467.367 411.967 467.3 412.5H436.8C436.8 415.567 438.067 418 440.6 419.8C443.133 421.533 446.4 422.4 450.4 422.4C452.867 422.4 455.2 422.133 457.4 421.6C459.667 421.067 461.567 420.533 463.1 420L464.8 430.5C462.667 431.233 460.4 431.833 458 432.3C455.6 432.833 452.9 433.1 449.9 433.1C445.9 433.1 442.3 432.6 439.1 431.6C435.967 430.533 433.267 429 431 427C428.8 424.933 427.1 422.4 425.9 419.4C424.7 416.4 424.1 412.9 424.1 408.9ZM455.6 404C455.6 402.733 455.433 401.533 455.1 400.4C454.767 399.2 454.233 398.133 453.5 397.2C452.767 396.267 451.833 395.533 450.7 395C449.567 394.4 448.167 394.1 446.5 394.1C444.9 394.1 443.5 394.367 442.3 394.9C441.167 395.433 440.2 396.167 439.4 397.1C438.667 398.033 438.067 399.1 437.6 400.3C437.2 401.5 436.933 402.733 436.8 404H455.6ZM496.1 423.2C497.433 423.2 498.733 423.2 500 423.2C501.267 423.133 502.367 423.033 503.3 422.9V412.1C502.5 411.967 501.533 411.867 500.4 411.8C499.267 411.667 498.233 411.6 497.3 411.6C496.033 411.6 494.8 411.7 493.6 411.9C492.4 412.033 491.333 412.3 490.4 412.7C489.533 413.1 488.833 413.667 488.3 414.4C487.767 415.133 487.5 416.1 487.5 417.3C487.5 419.433 488.3 420.967 489.9 421.9C491.5 422.767 493.567 423.2 496.1 423.2ZM495 383.8C498.867 383.8 502.067 384.267 504.6 385.2C507.2 386.067 509.267 387.333 510.8 389C512.333 390.6 513.433 392.6 514.1 395C514.767 397.333 515.1 399.967 515.1 402.9V430.9C513.3 431.3 510.633 431.767 507.1 432.3C503.567 432.833 499.6 433.1 495.2 433.1C492.2 433.1 489.467 432.833 487 432.3C484.6 431.767 482.533 430.9 480.8 429.7C479.067 428.433 477.733 426.833 476.8 424.9C475.867 422.9 475.4 420.467 475.4 417.6C475.4 414.867 475.933 412.567 477 410.7C478.067 408.833 479.5 407.333 481.3 406.2C483.1 405.067 485.167 404.267 487.5 403.8C489.833 403.267 492.267 403 494.8 403C498 403 500.833 403.267 503.3 403.8V402.3C503.3 399.967 502.567 398.033 501.1 396.5C499.633 394.9 497.1 394.1 493.5 394.1C491.167 394.1 488.9 394.267 486.7 394.6C484.567 394.933 482.833 395.333 481.5 395.8L479.8 385.9C481.333 385.367 483.5 384.9 486.3 384.5C489.1 384.033 492 383.8 495 383.8ZM536.3 408.2C536.3 412.4 537.067 415.833 538.6 418.5C540.2 421.167 542.733 422.5 546.2 422.5C547.2 422.5 548.133 422.467 549 422.4C549.867 422.333 550.767 422.233 551.7 422.1V396.5C550.767 395.967 549.7 395.533 548.5 395.2C547.3 394.8 546.033 394.6 544.7 394.6C541.767 394.6 539.633 395.767 538.3 398.1C536.967 400.433 536.3 403.8 536.3 408.2ZM564 430.6C561.733 431.333 558.967 431.933 555.7 432.4C552.433 432.867 549.233 433.1 546.1 433.1C538.767 433.1 533.2 430.933 529.4 426.6C525.667 422.267 523.8 416.333 523.8 408.8C523.8 401.133 525.367 395.1 528.5 390.7C531.7 386.233 536.4 384 542.6 384C544.267 384 545.9 384.2 547.5 384.6C549.1 384.933 550.5 385.433 551.7 386.1V364.7L564 362.6V430.6Z" fill="#525252"/>
<path d="M1911 299L1940 349L1882 349L1911 299Z" fill="#525252"/>
<path d="M1858.5 370.1V380.3H1842.2V432H1829.8V380.3H1813.5V370.1H1858.5ZM1886.1 423.2C1887.43 423.2 1888.73 423.2 1890 423.2C1891.27 423.133 1892.37 423.033 1893.3 422.9V412.1C1892.5 411.967 1891.53 411.867 1890.4 411.8C1889.27 411.667 1888.23 411.6 1887.3 411.6C1886.03 411.6 1884.8 411.7 1883.6 411.9C1882.4 412.033 1881.33 412.3 1880.4 412.7C1879.53 413.1 1878.83 413.667 1878.3 414.4C1877.77 415.133 1877.5 416.1 1877.5 417.3C1877.5 419.433 1878.3 420.967 1879.9 421.9C1881.5 422.767 1883.57 423.2 1886.1 423.2ZM1885 383.8C1888.87 383.8 1892.07 384.267 1894.6 385.2C1897.2 386.067 1899.27 387.333 1900.8 389C1902.33 390.6 1903.43 392.6 1904.1 395C1904.77 397.333 1905.1 399.967 1905.1 402.9V430.9C1903.3 431.3 1900.63 431.767 1897.1 432.3C1893.57 432.833 1889.6 433.1 1885.2 433.1C1882.2 433.1 1879.47 432.833 1877 432.3C1874.6 431.767 1872.53 430.9 1870.8 429.7C1869.07 428.433 1867.73 426.833 1866.8 424.9C1865.87 422.9 1865.4 420.467 1865.4 417.6C1865.4 414.867 1865.93 412.567 1867 410.7C1868.07 408.833 1869.5 407.333 1871.3 406.2C1873.1 405.067 1875.17 404.267 1877.5 403.8C1879.83 403.267 1882.27 403 1884.8 403C1888 403 1890.83 403.267 1893.3 403.8V402.3C1893.3 399.967 1892.57 398.033 1891.1 396.5C1889.63 394.9 1887.1 394.1 1883.5 394.1C1881.17 394.1 1878.9 394.267 1876.7 394.6C1874.57 394.933 1872.83 395.333 1871.5 395.8L1869.8 385.9C1871.33 385.367 1873.5 384.9 1876.3 384.5C1879.1 384.033 1882 383.8 1885 383.8ZM1939.4 371.5C1939.4 373.9 1938.63 375.8 1937.1 377.2C1935.57 378.6 1933.73 379.3 1931.6 379.3C1929.47 379.3 1927.63 378.6 1926.1 377.2C1924.63 375.8 1923.9 373.9 1923.9 371.5C1923.9 369.033 1924.63 367.1 1926.1 365.7C1927.63 364.3 1929.47 363.6 1931.6 363.6C1933.73 363.6 1935.57 364.3 1937.1 365.7C1938.63 367.1 1939.4 369.033 1939.4 371.5ZM1957.7 430C1955.17 431.2 1952.77 432 1950.5 432.4C1948.3 432.867 1946.27 433.1 1944.4 433.1C1941.2 433.1 1938.5 432.633 1936.3 431.7C1934.17 430.767 1932.43 429.433 1931.1 427.7C1929.83 425.9 1928.93 423.733 1928.4 421.2C1927.87 418.667 1927.6 415.767 1927.6 412.5V395.2H1914.6V385H1939.9V414.1C1939.9 416.9 1940.4 419 1941.4 420.4C1942.47 421.733 1944.2 422.4 1946.6 422.4C1947.73 422.4 1949.1 422.267 1950.7 422C1952.3 421.667 1954.1 421.033 1956.1 420.1L1957.7 430ZM2007.7 430C2007.5 430.133 2007.03 430.367 2006.3 430.7C2005.63 431.033 2004.73 431.4 2003.6 431.8C2002.47 432.133 2001.07 432.433 1999.4 432.7C1997.8 432.967 1995.97 433.1 1993.9 433.1C1988.23 433.1 1984.1 431.433 1981.5 428.1C1978.9 424.7 1977.6 419.767 1977.6 413.3V373.4H1964.6V363.2H1989.9V414.2C1989.9 417.4 1990.53 419.567 1991.8 420.7C1993.07 421.833 1994.67 422.4 1996.6 422.4C1999.07 422.4 2001.13 422.067 2002.8 421.4C2004.47 420.733 2005.57 420.3 2006.1 420.1L2007.7 430Z" fill="#525252"/>
<path d="M241 220.301L316 263.603L316 177L241 220.301Z" fill="#FF6666"/>
<path d="M371 210.301H316V230.301H371V210.301Z" fill="#FF6666"/>
<circle cx="139" cy="177" r="75" fill="#525252"/>
<path d="M100.3 197C98.62 192.88 96.78 188.78 94.78 184.7C92.82 180.58 90.7 176.46 88.42 172.34V197H81.76V159.86H87.7C88.82 161.62 89.94 163.54 91.06 165.62C92.18 167.66 93.26 169.7 94.3 171.74C95.38 173.78 96.36 175.76 97.24 177.68C98.16 179.6 98.94 181.28 99.58 182.72V159.86H106.24V197H100.3ZM123.88 197.78C121.48 197.78 119.46 197.46 117.82 196.82C116.22 196.14 114.94 195.18 113.98 193.94C113.02 192.7 112.34 191.2 111.94 189.44C111.54 187.68 111.34 185.72 111.34 183.56V159.86H118.78V183.08C118.78 184.64 118.86 185.96 119.02 187.04C119.18 188.08 119.44 188.92 119.8 189.56C120.2 190.2 120.74 190.66 121.42 190.94C122.1 191.22 122.96 191.36 124 191.36C125.04 191.36 125.9 191.22 126.58 190.94C127.26 190.66 127.8 190.2 128.2 189.56C128.6 188.88 128.88 188.02 129.04 186.98C129.2 185.9 129.28 184.58 129.28 183.02V159.86H136.66V183.56C136.66 185.72 136.46 187.68 136.06 189.44C135.66 191.2 134.96 192.7 133.96 193.94C132.96 195.18 131.64 196.14 130 196.82C128.36 197.46 126.32 197.78 123.88 197.78ZM166.6 197H143.26V159.86H150.7V190.88H166.6V197ZM196.6 197H173.26V159.86H180.7V190.88H196.6V197Z" fill="white"/>
</svg>
