<svg width="1920" height="796" viewBox="0 0 1920 796" fill="none" xmlns="http://www.w3.org/2000/svg">
<rect x="860" y="382" width="200" height="200" rx="20" fill="#FF8266"/>
<rect x="1097" y="382" width="200" height="200" rx="20" fill="#FF8B66"/>
<rect x="1334" y="382" width="200" height="200" rx="20" fill="#FF9D66"/>
<rect x="623" y="382" width="200" height="200" rx="20" fill="#FF7866"/>
<rect x="386" y="382" width="200" height="200" rx="20" fill="#FF6F66"/>
<rect x="149" y="382" width="200" height="200" rx="20" fill="#FF6666"/>
<rect x="1571" y="382" width="200" height="200" rx="20" fill="#FFB171"/>
<path d="M263.2 511.6C263.2 508.133 262.6 505 261.4 502.2C260.333 499.267 258.067 496.8 254.6 494.8C251.267 492.667 246.467 491.067 240.2 490C233.933 488.8 225.733 488.2 215.6 488.2C216.933 477 218 466.067 218.8 455.4C219.6 444.6 220.2 434.2 220.6 424.2H283.8V444.6H241.2C240.933 448.867 240.6 453.333 240.2 458C239.8 462.667 239.467 466.467 239.2 469.4C255.733 470.467 268.067 474.467 276.2 481.4C284.333 488.333 288.4 498.067 288.4 510.6C288.4 516.333 287.4 521.667 285.4 526.6C283.4 531.4 280.333 535.6 276.2 539.2C272.067 542.8 266.933 545.6 260.8 547.6C254.667 549.6 247.533 550.6 239.4 550.6C236.2 550.6 232.933 550.4 229.6 550C226.267 549.6 223.067 549.067 220 548.4C216.933 547.867 214.133 547.2 211.6 546.4C209.2 545.6 207.333 544.867 206 544.2L211 523.8C213.933 525.267 217.667 526.6 222.2 527.8C226.733 529 232.4 529.6 239.2 529.6C244 529.6 247.933 529.067 251 528C254.2 526.933 256.667 525.6 258.4 524C260.267 522.267 261.533 520.333 262.2 518.2C262.867 516.067 263.2 513.867 263.2 511.6Z" fill="white"/>
<circle cx="1434" cy="177" r="100" fill="#FF9D66"/>
<path d="M488.2 482.2C490.733 482.2 493.4 481.933 496.2 481.4C499 480.867 501.267 480.133 503 479.2C503.133 478.133 503.2 476.867 503.2 475.4C503.333 473.8 503.4 472.267 503.4 470.8C503.4 467.467 503.067 464.133 502.4 460.8C501.867 457.333 500.867 454.2 499.4 451.4C498.067 448.6 496.2 446.333 493.8 444.6C491.533 442.867 488.667 442 485.2 442C482.267 442 479.733 442.6 477.6 443.8C475.6 444.867 473.933 446.333 472.6 448.2C471.4 450.067 470.467 452.267 469.8 454.8C469.267 457.333 469 460 469 462.8C469 469.067 470.467 473.867 473.4 477.2C476.333 480.533 481.267 482.2 488.2 482.2ZM485 502.6C477.8 502.6 471.667 501.6 466.6 499.6C461.533 497.467 457.4 494.6 454.2 491C451 487.4 448.667 483.267 447.2 478.6C445.733 473.8 445 468.667 445 463.2C445 458.4 445.8 453.533 447.4 448.6C449.133 443.533 451.6 439 454.8 435C458.133 430.867 462.267 427.533 467.2 425C472.133 422.333 477.933 421 484.6 421C498.467 421 509.067 425.667 516.4 435C523.733 444.333 527.4 457.333 527.4 474C527.4 486 525.667 496.667 522.2 506C518.733 515.2 513.733 522.933 507.2 529.2C500.8 535.467 493 540.267 483.8 543.6C474.733 546.8 464.6 548.4 453.4 548.4L452.6 527.2C463.267 527.067 472.8 524.8 481.2 520.4C489.6 515.867 495.533 508.8 499 499.2C493.8 501.467 489.133 502.6 485 502.6Z" fill="white"/>
<path d="M715.6 527.6V458.4C711.867 461.067 707.6 463.467 702.8 465.6C698 467.6 693.933 469.2 690.6 470.4L682.6 450C685.8 448.8 689.267 447.267 693 445.4C696.733 443.533 700.467 441.467 704.2 439.2C707.933 436.933 711.467 434.533 714.8 432C718.133 429.467 721 426.867 723.4 424.2H740.2V527.6H764.8V548H689.6V527.6H715.6Z" fill="white"/>
<path d="M996.8 456.8C996.8 461.067 996 465.2 994.4 469.2C992.8 473.067 990.667 476.867 988 480.6C985.333 484.333 982.333 487.933 979 491.4C975.667 494.867 972.267 498.2 968.8 501.4C967.067 503 965.067 504.933 962.8 507.2C960.533 509.333 958.4 511.6 956.4 514C954.4 516.267 952.667 518.6 951.2 521C949.867 523.4 949.2 525.6 949.2 527.6H1002.4V548H921.6C921.2 546.667 921 545 921 543C921.133 541 921.2 539.6 921.2 538.8C921.2 532.133 922.4 526 924.8 520.4C927.333 514.8 930.467 509.667 934.2 505C938.067 500.2 942.133 495.8 946.4 491.8C950.8 487.667 954.867 483.733 958.6 480C962.467 476.267 965.6 472.667 968 469.2C970.533 465.733 971.8 462.2 971.8 458.6C971.8 453.533 970.267 449.667 967.2 447C964.133 444.2 960.267 442.8 955.6 442.8C951.733 442.8 947.667 443.733 943.4 445.6C939.133 447.467 934.933 450.6 930.8 455L918.6 437.8C923.933 432.2 930.067 428.067 937 425.4C944.067 422.733 951.067 421.4 958 421.4C963.067 421.4 967.933 422.133 972.6 423.6C977.267 425.067 981.4 427.267 985 430.2C988.6 433.133 991.467 436.867 993.6 441.4C995.733 445.8 996.8 450.933 996.8 456.8Z" fill="white"/>
<path d="M1211.2 511.6C1211.2 508.133 1210.6 505 1209.4 502.2C1208.33 499.267 1206.07 496.8 1202.6 494.8C1199.27 492.667 1194.47 491.067 1188.2 490C1181.93 488.8 1173.73 488.2 1163.6 488.2C1164.93 477 1166 466.067 1166.8 455.4C1167.6 444.6 1168.2 434.2 1168.6 424.2H1231.8V444.6H1189.2C1188.93 448.867 1188.6 453.333 1188.2 458C1187.8 462.667 1187.47 466.467 1187.2 469.4C1203.73 470.467 1216.07 474.467 1224.2 481.4C1232.33 488.333 1236.4 498.067 1236.4 510.6C1236.4 516.333 1235.4 521.667 1233.4 526.6C1231.4 531.4 1228.33 535.6 1224.2 539.2C1220.07 542.8 1214.93 545.6 1208.8 547.6C1202.67 549.6 1195.53 550.6 1187.4 550.6C1184.2 550.6 1180.93 550.4 1177.6 550C1174.27 549.6 1171.07 549.067 1168 548.4C1164.93 547.867 1162.13 547.2 1159.6 546.4C1157.2 545.6 1155.33 544.867 1154 544.2L1159 523.8C1161.93 525.267 1165.67 526.6 1170.2 527.8C1174.73 529 1180.4 529.6 1187.2 529.6C1192 529.6 1195.93 529.067 1199 528C1202.2 526.933 1204.67 525.6 1206.4 524C1208.27 522.267 1209.53 520.333 1210.2 518.2C1210.87 516.067 1211.2 513.867 1211.2 511.6Z" fill="white"/>
<path d="M1441 150C1438.6 153.067 1436.13 156.333 1433.6 159.8C1431.07 163.267 1428.53 166.933 1426 170.8C1423.6 174.533 1421.27 178.333 1419 182.2C1416.73 186.067 1414.73 189.867 1413 193.6H1441V150ZM1465.6 119.2V193.6H1479V213.8H1465.6V243H1441V213.8H1389.4V195.8C1391.93 190.6 1395.2 184.733 1399.2 178.2C1403.2 171.533 1407.6 164.733 1412.4 157.8C1417.2 150.867 1422.27 144.067 1427.6 137.4C1432.93 130.6 1438.27 124.533 1443.6 119.2H1465.6Z" fill="white"/>
<path d="M254.8 669.9C254.8 671.633 254.267 673.133 253.2 674.4C252.2 675.667 250.867 676.3 249.2 676.3C247.467 676.3 246.067 675.667 245 674.4C243.933 673.133 243.4 671.633 243.4 669.9C243.4 668.167 243.933 666.633 245 665.3C246.067 663.967 247.467 663.3 249.2 663.3C250.867 663.3 252.2 663.967 253.2 665.3C254.267 666.633 254.8 668.167 254.8 669.9ZM228.6 671C228.6 660.6 230.367 652.633 233.9 647.1C237.5 641.5 242.533 638.7 249 638.7C255.533 638.7 260.567 641.5 264.1 647.1C267.633 652.633 269.4 660.6 269.4 671C269.4 681.4 267.633 689.4 264.1 695C260.567 700.533 255.533 703.3 249 703.3C242.533 703.3 237.5 700.533 233.9 695C230.367 689.4 228.6 681.4 228.6 671ZM261 671C261 667.6 260.8 664.4 260.4 661.4C260 658.333 259.333 655.667 258.4 653.4C257.467 651.133 256.233 649.333 254.7 648C253.167 646.667 251.267 646 249 646C246.733 646 244.833 646.667 243.3 648C241.767 649.333 240.533 651.133 239.6 653.4C238.667 655.667 238 658.333 237.6 661.4C237.2 664.4 237 667.6 237 671C237 674.4 237.2 677.633 237.6 680.7C238 683.7 238.667 686.333 239.6 688.6C240.533 690.867 241.767 692.667 243.3 694C244.833 695.333 246.733 696 249 696C251.267 696 253.167 695.333 254.7 694C256.233 692.667 257.467 690.867 258.4 688.6C259.333 686.333 260 683.7 260.4 680.7C260.8 677.633 261 674.4 261 671Z" fill="#404040"/>
<path d="M1427.6 664C1436.53 664.333 1443.03 666.3 1447.1 669.9C1451.17 673.5 1453.2 678.333 1453.2 684.4C1453.2 687.133 1452.77 689.667 1451.9 692C1451.03 694.333 1449.67 696.333 1447.8 698C1446 699.667 1443.67 700.967 1440.8 701.9C1438 702.833 1434.67 703.3 1430.8 703.3C1429.2 703.3 1427.6 703.167 1426 702.9C1424.47 702.7 1423 702.433 1421.6 702.1C1420.2 701.767 1418.97 701.433 1417.9 701.1C1416.83 700.7 1416.07 700.367 1415.6 700.1L1417.2 693C1418.27 693.533 1419.9 694.167 1422.1 694.9C1424.37 695.633 1427.2 696 1430.6 696C1433.27 696 1435.5 695.7 1437.3 695.1C1439.1 694.5 1440.53 693.7 1441.6 692.7C1442.73 691.633 1443.53 690.433 1444 689.1C1444.53 687.767 1444.8 686.367 1444.8 684.9C1444.8 682.633 1444.4 680.633 1443.6 678.9C1442.87 677.1 1441.53 675.6 1439.6 674.4C1437.73 673.2 1435.13 672.3 1431.8 671.7C1428.53 671.033 1424.4 670.7 1419.4 670.7C1419.8 667.767 1420.1 665.033 1420.3 662.5C1420.57 659.9 1420.77 657.4 1420.9 655C1421.1 652.533 1421.23 650.1 1421.3 647.7C1421.43 645.3 1421.57 642.767 1421.7 640.1H1451.5V647.1H1428.9C1428.83 648.033 1428.73 649.267 1428.6 650.8C1428.53 652.267 1428.43 653.833 1428.3 655.5C1428.17 657.167 1428.03 658.767 1427.9 660.3C1427.77 661.833 1427.67 663.067 1427.6 664Z" fill="#404040"/>
<path d="M1651.4 677.2C1651.4 671.2 1652.2 665.9 1653.8 661.3C1655.47 656.633 1657.8 652.733 1660.8 649.6C1663.87 646.467 1667.57 644.067 1671.9 642.4C1676.23 640.733 1681.13 639.867 1686.6 639.8L1687.3 646.8C1683.77 646.867 1680.53 647.267 1677.6 648C1674.73 648.667 1672.17 649.8 1669.9 651.4C1667.63 652.933 1665.73 654.933 1664.2 657.4C1662.67 659.867 1661.5 662.9 1660.7 666.5C1662.3 665.767 1664.03 665.167 1665.9 664.7C1667.83 664.233 1669.87 664 1672 664C1675.47 664 1678.4 664.533 1680.8 665.6C1683.27 666.667 1685.23 668.1 1686.7 669.9C1688.17 671.633 1689.23 673.667 1689.9 676C1690.57 678.333 1690.9 680.733 1690.9 683.2C1690.9 685.467 1690.53 687.8 1689.8 690.2C1689.07 692.533 1687.93 694.7 1686.4 696.7C1684.87 698.633 1682.9 700.233 1680.5 701.5C1678.1 702.7 1675.23 703.3 1671.9 703.3C1665.03 703.3 1659.9 701 1656.5 696.4C1653.1 691.8 1651.4 685.4 1651.4 677.2ZM1671.1 670.8C1668.97 670.8 1667 671 1665.2 671.4C1663.47 671.8 1661.7 672.4 1659.9 673.2C1659.83 673.867 1659.8 674.533 1659.8 675.2C1659.8 675.8 1659.8 676.467 1659.8 677.2C1659.8 679.8 1659.97 682.267 1660.3 684.6C1660.7 686.867 1661.33 688.9 1662.2 690.7C1663.13 692.433 1664.37 693.833 1665.9 694.9C1667.43 695.9 1669.4 696.4 1671.8 696.4C1673.8 696.4 1675.47 696 1676.8 695.2C1678.13 694.333 1679.23 693.267 1680.1 692C1680.97 690.733 1681.57 689.333 1681.9 687.8C1682.3 686.2 1682.5 684.7 1682.5 683.3C1682.5 679.233 1681.57 676.133 1679.7 674C1677.9 671.867 1675.03 670.8 1671.1 670.8Z" fill="#404040"/>
<path d="M1175.6 680.6C1176.73 677.933 1178.27 674.867 1180.2 671.4C1182.2 667.933 1184.43 664.367 1186.9 660.7C1189.37 656.967 1192 653.333 1194.8 649.8C1197.6 646.2 1200.43 642.967 1203.3 640.1H1211.3V679.4H1218.6V686.2H1211.3V702H1203.3V686.2H1175.6V680.6ZM1203.3 649.9C1201.5 651.833 1199.67 653.967 1197.8 656.3C1196 658.633 1194.23 661.1 1192.5 663.7C1190.77 666.233 1189.13 668.833 1187.6 671.5C1186.13 674.167 1184.8 676.8 1183.6 679.4H1203.3V649.9Z" fill="#404040"/>
<path d="M468.5 652.9C471.9 651.567 475.2 649.9 478.4 647.9C481.6 645.833 484.567 643.233 487.3 640.1H493.1V695H504.8V702H471.5V695H484.9V651.6C484.167 652.267 483.267 652.967 482.2 653.7C481.2 654.367 480.067 655.033 478.8 655.7C477.6 656.367 476.333 657 475 657.6C473.667 658.2 472.367 658.7 471.1 659.1L468.5 652.9Z" fill="#404040"/>
<path d="M740 655.9C740 658.033 739.567 660.1 738.7 662.1C737.9 664.1 736.8 666.067 735.4 668C734.067 669.933 732.533 671.833 730.8 673.7C729.067 675.567 727.3 677.4 725.5 679.2C724.5 680.2 723.333 681.4 722 682.8C720.667 684.2 719.4 685.633 718.2 687.1C717 688.567 716 690 715.2 691.4C714.4 692.8 714 694 714 695H742.5V702H705C704.933 701.667 704.9 701.333 704.9 701C704.9 700.6 704.9 700.233 704.9 699.9C704.9 697.1 705.367 694.5 706.3 692.1C707.233 689.7 708.433 687.433 709.9 685.3C711.367 683.167 713 681.167 714.8 679.3C716.667 677.367 718.5 675.5 720.3 673.7C721.767 672.233 723.167 670.8 724.5 669.4C725.9 668 727.1 666.6 728.1 665.2C729.167 663.8 730 662.367 730.6 660.9C731.267 659.367 731.6 657.8 731.6 656.2C731.6 654.4 731.3 652.867 730.7 651.6C730.167 650.333 729.4 649.3 728.4 648.5C727.467 647.633 726.367 647 725.1 646.6C723.833 646.2 722.467 646 721 646C719.267 646 717.667 646.233 716.2 646.7C714.8 647.167 713.533 647.733 712.4 648.4C711.333 649.067 710.4 649.733 709.6 650.4C708.8 651 708.2 651.5 707.8 651.9L703.7 646.1C704.233 645.5 705.033 644.767 706.1 643.9C707.167 643.033 708.433 642.233 709.9 641.5C711.433 640.7 713.133 640.033 715 639.5C716.867 638.967 718.867 638.7 721 638.7C727.467 638.7 732.233 640.2 735.3 643.2C738.433 646.133 740 650.367 740 655.9Z" fill="#404040"/>
<path d="M956.2 696C961.467 696 965.2 694.967 967.4 692.9C969.667 690.767 970.8 687.933 970.8 684.4C970.8 682.133 970.333 680.233 969.4 678.7C968.467 677.167 967.233 675.933 965.7 675C964.167 674.067 962.4 673.4 960.4 673C958.4 672.6 956.3 672.4 954.1 672.4H952V665.7H954.9C956.367 665.7 957.867 665.567 959.4 665.3C961 664.967 962.433 664.433 963.7 663.7C965.033 662.9 966.1 661.833 966.9 660.5C967.7 659.167 968.1 657.467 968.1 655.4C968.1 652 967.033 649.6 964.9 648.2C962.833 646.733 960.4 646 957.6 646C954.733 646 952.3 646.433 950.3 647.3C948.3 648.1 946.633 648.933 945.3 649.8L942.1 643.5C943.5 642.5 945.6 641.467 948.4 640.4C951.267 639.267 954.433 638.7 957.9 638.7C961.167 638.7 963.967 639.1 966.3 639.9C968.633 640.7 970.533 641.833 972 643.3C973.533 644.767 974.667 646.5 975.4 648.5C976.133 650.433 976.5 652.567 976.5 654.9C976.5 658.167 975.633 660.933 973.9 663.2C972.233 665.467 970.067 667.2 967.4 668.4C970.6 669.333 973.367 671.167 975.7 673.9C978.033 676.567 979.2 680.133 979.2 684.6C979.2 687.267 978.733 689.767 977.8 692.1C976.933 694.367 975.567 696.333 973.7 698C971.9 699.667 969.533 700.967 966.6 701.9C963.733 702.833 960.3 703.3 956.3 703.3C954.767 703.3 953.167 703.167 951.5 702.9C949.9 702.7 948.4 702.4 947 702C945.6 701.667 944.333 701.333 943.2 701C942.133 700.6 941.367 700.3 940.9 700.1L942.5 693C943.567 693.533 945.267 694.167 947.6 694.9C949.933 695.633 952.8 696 956.2 696Z" fill="#404040"/>
<path d="M1434.3 368L1391 293L1477.6 293L1434.3 368Z" fill="#FF9D66"/>
</svg>
