<svg width="2922" height="1560" viewBox="0 0 2922 1560" fill="none" xmlns="http://www.w3.org/2000/svg">
<rect x="862" y="424" width="200" height="200" rx="20" fill="#FF8266"/>
<rect x="1099" y="424" width="200" height="200" rx="20" fill="#FF8B66"/>
<rect x="1336" y="424" width="200" height="200" rx="20" fill="#FF9D66"/>
<rect x="625" y="424" width="200" height="200" rx="20" fill="#FF7866"/>
<rect x="388" y="424" width="200" height="200" rx="20" fill="#FF6F66"/>
<rect x="151" y="424" width="200" height="200" rx="20" fill="#FF6666"/>
<rect x="1573" y="424" width="200" height="200" rx="20" fill="#FFB171"/>
<path d="M265.2 553.6C265.2 550.133 264.6 547 263.4 544.2C262.333 541.267 260.067 538.8 256.6 536.8C253.267 534.667 248.467 533.067 242.2 532C235.933 530.8 227.733 530.2 217.6 530.2C218.933 519 220 508.067 220.8 497.4C221.6 486.6 222.2 476.2 222.6 466.2H285.8V486.6H243.2C242.933 490.867 242.6 495.333 242.2 500C241.8 504.667 241.467 508.467 241.2 511.4C257.733 512.467 270.067 516.467 278.2 523.4C286.333 530.333 290.4 540.067 290.4 552.6C290.4 558.333 289.4 563.667 287.4 568.6C285.4 573.4 282.333 577.6 278.2 581.2C274.067 584.8 268.933 587.6 262.8 589.6C256.667 591.6 249.533 592.6 241.4 592.6C238.2 592.6 234.933 592.4 231.6 592C228.267 591.6 225.067 591.067 222 590.4C218.933 589.867 216.133 589.2 213.6 588.4C211.2 587.6 209.333 586.867 208 586.2L213 565.8C215.933 567.267 219.667 568.6 224.2 569.8C228.733 571 234.4 571.6 241.2 571.6C246 571.6 249.933 571.067 253 570C256.2 568.933 258.667 567.6 260.4 566C262.267 564.267 263.533 562.333 264.2 560.2C264.867 558.067 265.2 555.867 265.2 553.6Z" fill="white"/>
<circle cx="1910" cy="219" r="100" fill="#FFBE71"/>
<path d="M490.2 524.2C492.733 524.2 495.4 523.933 498.2 523.4C501 522.867 503.267 522.133 505 521.2C505.133 520.133 505.2 518.867 505.2 517.4C505.333 515.8 505.4 514.267 505.4 512.8C505.4 509.467 505.067 506.133 504.4 502.8C503.867 499.333 502.867 496.2 501.4 493.4C500.067 490.6 498.2 488.333 495.8 486.6C493.533 484.867 490.667 484 487.2 484C484.267 484 481.733 484.6 479.6 485.8C477.6 486.867 475.933 488.333 474.6 490.2C473.4 492.067 472.467 494.267 471.8 496.8C471.267 499.333 471 502 471 504.8C471 511.067 472.467 515.867 475.4 519.2C478.333 522.533 483.267 524.2 490.2 524.2ZM487 544.6C479.8 544.6 473.667 543.6 468.6 541.6C463.533 539.467 459.4 536.6 456.2 533C453 529.4 450.667 525.267 449.2 520.6C447.733 515.8 447 510.667 447 505.2C447 500.4 447.8 495.533 449.4 490.6C451.133 485.533 453.6 481 456.8 477C460.133 472.867 464.267 469.533 469.2 467C474.133 464.333 479.933 463 486.6 463C500.467 463 511.067 467.667 518.4 477C525.733 486.333 529.4 499.333 529.4 516C529.4 528 527.667 538.667 524.2 548C520.733 557.2 515.733 564.933 509.2 571.2C502.8 577.467 495 582.267 485.8 585.6C476.733 588.8 466.6 590.4 455.4 590.4L454.6 569.2C465.267 569.067 474.8 566.8 483.2 562.4C491.6 557.867 497.533 550.8 501 541.2C495.8 543.467 491.133 544.6 487 544.6Z" fill="white"/>
<path d="M717.6 569.6V500.4C713.867 503.067 709.6 505.467 704.8 507.6C700 509.6 695.933 511.2 692.6 512.4L684.6 492C687.8 490.8 691.267 489.267 695 487.4C698.733 485.533 702.467 483.467 706.2 481.2C709.933 478.933 713.467 476.533 716.8 474C720.133 471.467 723 468.867 725.4 466.2H742.2V569.6H766.8V590H691.6V569.6H717.6Z" fill="white"/>
<path d="M998.8 498.8C998.8 503.067 998 507.2 996.4 511.2C994.8 515.067 992.667 518.867 990 522.6C987.333 526.333 984.333 529.933 981 533.4C977.667 536.867 974.267 540.2 970.8 543.4C969.067 545 967.067 546.933 964.8 549.2C962.533 551.333 960.4 553.6 958.4 556C956.4 558.267 954.667 560.6 953.2 563C951.867 565.4 951.2 567.6 951.2 569.6H1004.4V590H923.6C923.2 588.667 923 587 923 585C923.133 583 923.2 581.6 923.2 580.8C923.2 574.133 924.4 568 926.8 562.4C929.333 556.8 932.467 551.667 936.2 547C940.067 542.2 944.133 537.8 948.4 533.8C952.8 529.667 956.867 525.733 960.6 522C964.467 518.267 967.6 514.667 970 511.2C972.533 507.733 973.8 504.2 973.8 500.6C973.8 495.533 972.267 491.667 969.2 489C966.133 486.2 962.267 484.8 957.6 484.8C953.733 484.8 949.667 485.733 945.4 487.6C941.133 489.467 936.933 492.6 932.8 497L920.6 479.8C925.933 474.2 932.067 470.067 939 467.4C946.067 464.733 953.067 463.4 960 463.4C965.067 463.4 969.933 464.133 974.6 465.6C979.267 467.067 983.4 469.267 987 472.2C990.6 475.133 993.467 478.867 995.6 483.4C997.733 487.8 998.8 492.933 998.8 498.8Z" fill="white"/>
<path d="M1213.2 553.6C1213.2 550.133 1212.6 547 1211.4 544.2C1210.33 541.267 1208.07 538.8 1204.6 536.8C1201.27 534.667 1196.47 533.067 1190.2 532C1183.93 530.8 1175.73 530.2 1165.6 530.2C1166.93 519 1168 508.067 1168.8 497.4C1169.6 486.6 1170.2 476.2 1170.6 466.2H1233.8V486.6H1191.2C1190.93 490.867 1190.6 495.333 1190.2 500C1189.8 504.667 1189.47 508.467 1189.2 511.4C1205.73 512.467 1218.07 516.467 1226.2 523.4C1234.33 530.333 1238.4 540.067 1238.4 552.6C1238.4 558.333 1237.4 563.667 1235.4 568.6C1233.4 573.4 1230.33 577.6 1226.2 581.2C1222.07 584.8 1216.93 587.6 1210.8 589.6C1204.67 591.6 1197.53 592.6 1189.4 592.6C1186.2 592.6 1182.93 592.4 1179.6 592C1176.27 591.6 1173.07 591.067 1170 590.4C1166.93 589.867 1164.13 589.2 1161.6 588.4C1159.2 587.6 1157.33 586.867 1156 586.2L1161 565.8C1163.93 567.267 1167.67 568.6 1172.2 569.8C1176.73 571 1182.4 571.6 1189.2 571.6C1194 571.6 1197.93 571.067 1201 570C1204.2 568.933 1206.67 567.6 1208.4 566C1210.27 564.267 1211.53 562.333 1212.2 560.2C1212.87 558.067 1213.2 555.867 1213.2 553.6Z" fill="white"/>
<path d="M1443 497C1440.6 500.067 1438.13 503.333 1435.6 506.8C1433.07 510.267 1430.53 513.933 1428 517.8C1425.6 521.533 1423.27 525.333 1421 529.2C1418.73 533.067 1416.73 536.867 1415 540.6H1443V497ZM1467.6 466.2V540.6H1481V560.8H1467.6V590H1443V560.8H1391.4V542.8C1393.93 537.6 1397.2 531.733 1401.2 525.2C1405.2 518.533 1409.6 511.733 1414.4 504.8C1419.2 497.867 1424.27 491.067 1429.6 484.4C1434.93 477.6 1440.27 471.533 1445.6 466.2H1467.6Z" fill="white"/>
<path d="M1665.6 592.6C1662.53 592.6 1659.27 592.333 1655.8 591.8C1652.47 591.4 1649.2 590.867 1646 590.2C1642.93 589.533 1640.07 588.8 1637.4 588C1634.73 587.2 1632.67 586.467 1631.2 585.8L1636 565.2C1639.07 566.533 1643 567.933 1647.8 569.4C1652.73 570.867 1658.6 571.6 1665.4 571.6C1673.8 571.6 1679.67 569.8 1683 566.2C1686.47 562.6 1688.2 558.133 1688.2 552.8C1688.2 546.267 1685.6 541.733 1680.4 539.2C1675.2 536.533 1668.6 535.2 1660.6 535.2H1653V514.8H1662.2C1664.73 514.8 1667.27 514.533 1669.8 514C1672.33 513.467 1674.6 512.6 1676.6 511.4C1678.6 510.2 1680.2 508.6 1681.4 506.6C1682.73 504.6 1683.4 502.067 1683.4 499C1683.4 494.467 1682 490.933 1679.2 488.4C1676.53 485.733 1672.8 484.4 1668 484.4C1663.33 484.4 1658.67 485.2 1654 486.8C1649.47 488.267 1645.53 490.133 1642.2 492.4L1633.4 474.4C1637 472 1641.73 469.6 1647.6 467.2C1653.6 464.667 1660.33 463.4 1667.8 463.4C1674.73 463.4 1680.73 464.267 1685.8 466C1691 467.733 1695.27 470.2 1698.6 473.4C1701.93 476.467 1704.4 480.133 1706 484.4C1707.6 488.667 1708.4 493.267 1708.4 498.2C1708.4 503.133 1707 507.867 1704.2 512.4C1701.4 516.933 1697.67 520.4 1693 522.8C1699.4 525.467 1704.33 529.4 1707.8 534.6C1711.4 539.8 1713.2 546 1713.2 553.2C1713.2 558.933 1712.27 564.2 1710.4 569C1708.53 573.8 1705.67 578 1701.8 581.6C1697.93 585.067 1693 587.8 1687 589.8C1681 591.667 1673.87 592.6 1665.6 592.6Z" fill="white"/>
<path d="M1886.4 285C1886.8 276.467 1888.2 267.467 1890.6 258C1893 248.4 1895.87 238.933 1899.2 229.6C1902.67 220.267 1906.4 211.467 1910.4 203.2C1914.4 194.8 1918.2 187.6 1921.8 181.6H1869.8V161.2H1950.6V179.8C1947 183.933 1943.07 189.733 1938.8 197.2C1934.53 204.667 1930.47 213.133 1926.6 222.6C1922.87 232.067 1919.53 242.2 1916.6 253C1913.8 263.667 1912.07 274.333 1911.4 285H1886.4Z" fill="white"/>
<path d="M256.8 711.9C256.8 713.633 256.267 715.133 255.2 716.4C254.2 717.667 252.867 718.3 251.2 718.3C249.467 718.3 248.067 717.667 247 716.4C245.933 715.133 245.4 713.633 245.4 711.9C245.4 710.167 245.933 708.633 247 707.3C248.067 705.967 249.467 705.3 251.2 705.3C252.867 705.3 254.2 705.967 255.2 707.3C256.267 708.633 256.8 710.167 256.8 711.9ZM230.6 713C230.6 702.6 232.367 694.633 235.9 689.1C239.5 683.5 244.533 680.7 251 680.7C257.533 680.7 262.567 683.5 266.1 689.1C269.633 694.633 271.4 702.6 271.4 713C271.4 723.4 269.633 731.4 266.1 737C262.567 742.533 257.533 745.3 251 745.3C244.533 745.3 239.5 742.533 235.9 737C232.367 731.4 230.6 723.4 230.6 713ZM263 713C263 709.6 262.8 706.4 262.4 703.4C262 700.333 261.333 697.667 260.4 695.4C259.467 693.133 258.233 691.333 256.7 690C255.167 688.667 253.267 688 251 688C248.733 688 246.833 688.667 245.3 690C243.767 691.333 242.533 693.133 241.6 695.4C240.667 697.667 240 700.333 239.6 703.4C239.2 706.4 239 709.6 239 713C239 716.4 239.2 719.633 239.6 722.7C240 725.7 240.667 728.333 241.6 730.6C242.533 732.867 243.767 734.667 245.3 736C246.833 737.333 248.733 738 251 738C253.267 738 255.167 737.333 256.7 736C258.233 734.667 259.467 732.867 260.4 730.6C261.333 728.333 262 725.7 262.4 722.7C262.8 719.633 263 716.4 263 713Z" fill="#404040"/>
<path d="M1429.6 706C1438.53 706.333 1445.03 708.3 1449.1 711.9C1453.17 715.5 1455.2 720.333 1455.2 726.4C1455.2 729.133 1454.77 731.667 1453.9 734C1453.03 736.333 1451.67 738.333 1449.8 740C1448 741.667 1445.67 742.967 1442.8 743.9C1440 744.833 1436.67 745.3 1432.8 745.3C1431.2 745.3 1429.6 745.167 1428 744.9C1426.47 744.7 1425 744.433 1423.6 744.1C1422.2 743.767 1420.97 743.433 1419.9 743.1C1418.83 742.7 1418.07 742.367 1417.6 742.1L1419.2 735C1420.27 735.533 1421.9 736.167 1424.1 736.9C1426.37 737.633 1429.2 738 1432.6 738C1435.27 738 1437.5 737.7 1439.3 737.1C1441.1 736.5 1442.53 735.7 1443.6 734.7C1444.73 733.633 1445.53 732.433 1446 731.1C1446.53 729.767 1446.8 728.367 1446.8 726.9C1446.8 724.633 1446.4 722.633 1445.6 720.9C1444.87 719.1 1443.53 717.6 1441.6 716.4C1439.73 715.2 1437.13 714.3 1433.8 713.7C1430.53 713.033 1426.4 712.7 1421.4 712.7C1421.8 709.767 1422.1 707.033 1422.3 704.5C1422.57 701.9 1422.77 699.4 1422.9 697C1423.1 694.533 1423.23 692.1 1423.3 689.7C1423.43 687.3 1423.57 684.767 1423.7 682.1H1453.5V689.1H1430.9C1430.83 690.033 1430.73 691.267 1430.6 692.8C1430.53 694.267 1430.43 695.833 1430.3 697.5C1430.17 699.167 1430.03 700.767 1429.9 702.3C1429.77 703.833 1429.67 705.067 1429.6 706Z" fill="#404040"/>
<path d="M1653.4 719.2C1653.4 713.2 1654.2 707.9 1655.8 703.3C1657.47 698.633 1659.8 694.733 1662.8 691.6C1665.87 688.467 1669.57 686.067 1673.9 684.4C1678.23 682.733 1683.13 681.867 1688.6 681.8L1689.3 688.8C1685.77 688.867 1682.53 689.267 1679.6 690C1676.73 690.667 1674.17 691.8 1671.9 693.4C1669.63 694.933 1667.73 696.933 1666.2 699.4C1664.67 701.867 1663.5 704.9 1662.7 708.5C1664.3 707.767 1666.03 707.167 1667.9 706.7C1669.83 706.233 1671.87 706 1674 706C1677.47 706 1680.4 706.533 1682.8 707.6C1685.27 708.667 1687.23 710.1 1688.7 711.9C1690.17 713.633 1691.23 715.667 1691.9 718C1692.57 720.333 1692.9 722.733 1692.9 725.2C1692.9 727.467 1692.53 729.8 1691.8 732.2C1691.07 734.533 1689.93 736.7 1688.4 738.7C1686.87 740.633 1684.9 742.233 1682.5 743.5C1680.1 744.7 1677.23 745.3 1673.9 745.3C1667.03 745.3 1661.9 743 1658.5 738.4C1655.1 733.8 1653.4 727.4 1653.4 719.2ZM1673.1 712.8C1670.97 712.8 1669 713 1667.2 713.4C1665.47 713.8 1663.7 714.4 1661.9 715.2C1661.83 715.867 1661.8 716.533 1661.8 717.2C1661.8 717.8 1661.8 718.467 1661.8 719.2C1661.8 721.8 1661.97 724.267 1662.3 726.6C1662.7 728.867 1663.33 730.9 1664.2 732.7C1665.13 734.433 1666.37 735.833 1667.9 736.9C1669.43 737.9 1671.4 738.4 1673.8 738.4C1675.8 738.4 1677.47 738 1678.8 737.2C1680.13 736.333 1681.23 735.267 1682.1 734C1682.97 732.733 1683.57 731.333 1683.9 729.8C1684.3 728.2 1684.5 726.7 1684.5 725.3C1684.5 721.233 1683.57 718.133 1681.7 716C1679.9 713.867 1677.03 712.8 1673.1 712.8Z" fill="#404040"/>
<path d="M1177.6 722.6C1178.73 719.933 1180.27 716.867 1182.2 713.4C1184.2 709.933 1186.43 706.367 1188.9 702.7C1191.37 698.967 1194 695.333 1196.8 691.8C1199.6 688.2 1202.43 684.967 1205.3 682.1H1213.3V721.4H1220.6V728.2H1213.3V744H1205.3V728.2H1177.6V722.6ZM1205.3 691.9C1203.5 693.833 1201.67 695.967 1199.8 698.3C1198 700.633 1196.23 703.1 1194.5 705.7C1192.77 708.233 1191.13 710.833 1189.6 713.5C1188.13 716.167 1186.8 718.8 1185.6 721.4H1205.3V691.9Z" fill="#404040"/>
<path d="M470.5 694.9C473.9 693.567 477.2 691.9 480.4 689.9C483.6 687.833 486.567 685.233 489.3 682.1H495.1V737H506.8V744H473.5V737H486.9V693.6C486.167 694.267 485.267 694.967 484.2 695.7C483.2 696.367 482.067 697.033 480.8 697.7C479.6 698.367 478.333 699 477 699.6C475.667 700.2 474.367 700.7 473.1 701.1L470.5 694.9Z" fill="#404040"/>
<path d="M742 697.9C742 700.033 741.567 702.1 740.7 704.1C739.9 706.1 738.8 708.067 737.4 710C736.067 711.933 734.533 713.833 732.8 715.7C731.067 717.567 729.3 719.4 727.5 721.2C726.5 722.2 725.333 723.4 724 724.8C722.667 726.2 721.4 727.633 720.2 729.1C719 730.567 718 732 717.2 733.4C716.4 734.8 716 736 716 737H744.5V744H707C706.933 743.667 706.9 743.333 706.9 743C706.9 742.6 706.9 742.233 706.9 741.9C706.9 739.1 707.367 736.5 708.3 734.1C709.233 731.7 710.433 729.433 711.9 727.3C713.367 725.167 715 723.167 716.8 721.3C718.667 719.367 720.5 717.5 722.3 715.7C723.767 714.233 725.167 712.8 726.5 711.4C727.9 710 729.1 708.6 730.1 707.2C731.167 705.8 732 704.367 732.6 702.9C733.267 701.367 733.6 699.8 733.6 698.2C733.6 696.4 733.3 694.867 732.7 693.6C732.167 692.333 731.4 691.3 730.4 690.5C729.467 689.633 728.367 689 727.1 688.6C725.833 688.2 724.467 688 723 688C721.267 688 719.667 688.233 718.2 688.7C716.8 689.167 715.533 689.733 714.4 690.4C713.333 691.067 712.4 691.733 711.6 692.4C710.8 693 710.2 693.5 709.8 693.9L705.7 688.1C706.233 687.5 707.033 686.767 708.1 685.9C709.167 685.033 710.433 684.233 711.9 683.5C713.433 682.7 715.133 682.033 717 681.5C718.867 680.967 720.867 680.7 723 680.7C729.467 680.7 734.233 682.2 737.3 685.2C740.433 688.133 742 692.367 742 697.9Z" fill="#404040"/>
<path d="M958.2 738C963.467 738 967.2 736.967 969.4 734.9C971.667 732.767 972.8 729.933 972.8 726.4C972.8 724.133 972.333 722.233 971.4 720.7C970.467 719.167 969.233 717.933 967.7 717C966.167 716.067 964.4 715.4 962.4 715C960.4 714.6 958.3 714.4 956.1 714.4H954V707.7H956.9C958.367 707.7 959.867 707.567 961.4 707.3C963 706.967 964.433 706.433 965.7 705.7C967.033 704.9 968.1 703.833 968.9 702.5C969.7 701.167 970.1 699.467 970.1 697.4C970.1 694 969.033 691.6 966.9 690.2C964.833 688.733 962.4 688 959.6 688C956.733 688 954.3 688.433 952.3 689.3C950.3 690.1 948.633 690.933 947.3 691.8L944.1 685.5C945.5 684.5 947.6 683.467 950.4 682.4C953.267 681.267 956.433 680.7 959.9 680.7C963.167 680.7 965.967 681.1 968.3 681.9C970.633 682.7 972.533 683.833 974 685.3C975.533 686.767 976.667 688.5 977.4 690.5C978.133 692.433 978.5 694.567 978.5 696.9C978.5 700.167 977.633 702.933 975.9 705.2C974.233 707.467 972.067 709.2 969.4 710.4C972.6 711.333 975.367 713.167 977.7 715.9C980.033 718.567 981.2 722.133 981.2 726.6C981.2 729.267 980.733 731.767 979.8 734.1C978.933 736.367 977.567 738.333 975.7 740C973.9 741.667 971.533 742.967 968.6 743.9C965.733 744.833 962.3 745.3 958.3 745.3C956.767 745.3 955.167 745.167 953.5 744.9C951.9 744.7 950.4 744.4 949 744C947.6 743.667 946.333 743.333 945.2 743C944.133 742.6 943.367 742.3 942.9 742.1L944.5 735C945.567 735.533 947.267 736.167 949.6 736.9C951.933 737.633 954.8 738 958.2 738Z" fill="#404040"/>
<path d="M1910.3 410L1867 335L1953.6 335L1910.3 410Z" fill="#FFBE71"/>
<rect x="862" y="1103" width="200" height="200" rx="20" fill="#FF8266"/>
<rect x="1099" y="1103" width="200" height="200" rx="20" fill="#FF8B66"/>
<rect x="1336" y="1103" width="200" height="200" rx="20" fill="#FF9D66"/>
<rect x="625" y="1103" width="200" height="200" rx="20" fill="#FF7866"/>
<rect x="388" y="1103" width="200" height="200" rx="20" fill="#FF6F66"/>
<rect x="151" y="1103" width="200" height="200" rx="20" fill="#FF6666"/>
<rect x="1573" y="1103" width="200" height="200" rx="20" fill="#FFB171"/>
<rect x="1810" y="1103" width="200" height="200" rx="20" fill="#FFBE71"/>
<rect x="2047" y="1103" width="200" height="200" rx="20" fill="#FFCF71"/>
<path d="M265.2 1232.6C265.2 1229.13 264.6 1226 263.4 1223.2C262.333 1220.27 260.067 1217.8 256.6 1215.8C253.267 1213.67 248.467 1212.07 242.2 1211C235.933 1209.8 227.733 1209.2 217.6 1209.2C218.933 1198 220 1187.07 220.8 1176.4C221.6 1165.6 222.2 1155.2 222.6 1145.2H285.8V1165.6H243.2C242.933 1169.87 242.6 1174.33 242.2 1179C241.8 1183.67 241.467 1187.47 241.2 1190.4C257.733 1191.47 270.067 1195.47 278.2 1202.4C286.333 1209.33 290.4 1219.07 290.4 1231.6C290.4 1237.33 289.4 1242.67 287.4 1247.6C285.4 1252.4 282.333 1256.6 278.2 1260.2C274.067 1263.8 268.933 1266.6 262.8 1268.6C256.667 1270.6 249.533 1271.6 241.4 1271.6C238.2 1271.6 234.933 1271.4 231.6 1271C228.267 1270.6 225.067 1270.07 222 1269.4C218.933 1268.87 216.133 1268.2 213.6 1267.4C211.2 1266.6 209.333 1265.87 208 1265.2L213 1244.8C215.933 1246.27 219.667 1247.6 224.2 1248.8C228.733 1250 234.4 1250.6 241.2 1250.6C246 1250.6 249.933 1250.07 253 1249C256.2 1247.93 258.667 1246.6 260.4 1245C262.267 1243.27 263.533 1241.33 264.2 1239.2C264.867 1237.07 265.2 1234.87 265.2 1232.6Z" fill="white"/>
<circle cx="1910" cy="898" r="100" fill="#FFBE71"/>
<path d="M490.2 1203.2C492.733 1203.2 495.4 1202.93 498.2 1202.4C501 1201.87 503.267 1201.13 505 1200.2C505.133 1199.13 505.2 1197.87 505.2 1196.4C505.333 1194.8 505.4 1193.27 505.4 1191.8C505.4 1188.47 505.067 1185.13 504.4 1181.8C503.867 1178.33 502.867 1175.2 501.4 1172.4C500.067 1169.6 498.2 1167.33 495.8 1165.6C493.533 1163.87 490.667 1163 487.2 1163C484.267 1163 481.733 1163.6 479.6 1164.8C477.6 1165.87 475.933 1167.33 474.6 1169.2C473.4 1171.07 472.467 1173.27 471.8 1175.8C471.267 1178.33 471 1181 471 1183.8C471 1190.07 472.467 1194.87 475.4 1198.2C478.333 1201.53 483.267 1203.2 490.2 1203.2ZM487 1223.6C479.8 1223.6 473.667 1222.6 468.6 1220.6C463.533 1218.47 459.4 1215.6 456.2 1212C453 1208.4 450.667 1204.27 449.2 1199.6C447.733 1194.8 447 1189.67 447 1184.2C447 1179.4 447.8 1174.53 449.4 1169.6C451.133 1164.53 453.6 1160 456.8 1156C460.133 1151.87 464.267 1148.53 469.2 1146C474.133 1143.33 479.933 1142 486.6 1142C500.467 1142 511.067 1146.67 518.4 1156C525.733 1165.33 529.4 1178.33 529.4 1195C529.4 1207 527.667 1217.67 524.2 1227C520.733 1236.2 515.733 1243.93 509.2 1250.2C502.8 1256.47 495 1261.27 485.8 1264.6C476.733 1267.8 466.6 1269.4 455.4 1269.4L454.6 1248.2C465.267 1248.07 474.8 1245.8 483.2 1241.4C491.6 1236.87 497.533 1229.8 501 1220.2C495.8 1222.47 491.133 1223.6 487 1223.6Z" fill="white"/>
<path d="M717.6 1248.6V1179.4C713.867 1182.07 709.6 1184.47 704.8 1186.6C700 1188.6 695.933 1190.2 692.6 1191.4L684.6 1171C687.8 1169.8 691.267 1168.27 695 1166.4C698.733 1164.53 702.467 1162.47 706.2 1160.2C709.933 1157.93 713.467 1155.53 716.8 1153C720.133 1150.47 723 1147.87 725.4 1145.2H742.2V1248.6H766.8V1269H691.6V1248.6H717.6Z" fill="white"/>
<path d="M998.8 1177.8C998.8 1182.07 998 1186.2 996.4 1190.2C994.8 1194.07 992.667 1197.87 990 1201.6C987.333 1205.33 984.333 1208.93 981 1212.4C977.667 1215.87 974.267 1219.2 970.8 1222.4C969.067 1224 967.067 1225.93 964.8 1228.2C962.533 1230.33 960.4 1232.6 958.4 1235C956.4 1237.27 954.667 1239.6 953.2 1242C951.867 1244.4 951.2 1246.6 951.2 1248.6H1004.4V1269H923.6C923.2 1267.67 923 1266 923 1264C923.133 1262 923.2 1260.6 923.2 1259.8C923.2 1253.13 924.4 1247 926.8 1241.4C929.333 1235.8 932.467 1230.67 936.2 1226C940.067 1221.2 944.133 1216.8 948.4 1212.8C952.8 1208.67 956.867 1204.73 960.6 1201C964.467 1197.27 967.6 1193.67 970 1190.2C972.533 1186.73 973.8 1183.2 973.8 1179.6C973.8 1174.53 972.267 1170.67 969.2 1168C966.133 1165.2 962.267 1163.8 957.6 1163.8C953.733 1163.8 949.667 1164.73 945.4 1166.6C941.133 1168.47 936.933 1171.6 932.8 1176L920.6 1158.8C925.933 1153.2 932.067 1149.07 939 1146.4C946.067 1143.73 953.067 1142.4 960 1142.4C965.067 1142.4 969.933 1143.13 974.6 1144.6C979.267 1146.07 983.4 1148.27 987 1151.2C990.6 1154.13 993.467 1157.87 995.6 1162.4C997.733 1166.8 998.8 1171.93 998.8 1177.8Z" fill="white"/>
<path d="M1213.2 1232.6C1213.2 1229.13 1212.6 1226 1211.4 1223.2C1210.33 1220.27 1208.07 1217.8 1204.6 1215.8C1201.27 1213.67 1196.47 1212.07 1190.2 1211C1183.93 1209.8 1175.73 1209.2 1165.6 1209.2C1166.93 1198 1168 1187.07 1168.8 1176.4C1169.6 1165.6 1170.2 1155.2 1170.6 1145.2H1233.8V1165.6H1191.2C1190.93 1169.87 1190.6 1174.33 1190.2 1179C1189.8 1183.67 1189.47 1187.47 1189.2 1190.4C1205.73 1191.47 1218.07 1195.47 1226.2 1202.4C1234.33 1209.33 1238.4 1219.07 1238.4 1231.6C1238.4 1237.33 1237.4 1242.67 1235.4 1247.6C1233.4 1252.4 1230.33 1256.6 1226.2 1260.2C1222.07 1263.8 1216.93 1266.6 1210.8 1268.6C1204.67 1270.6 1197.53 1271.6 1189.4 1271.6C1186.2 1271.6 1182.93 1271.4 1179.6 1271C1176.27 1270.6 1173.07 1270.07 1170 1269.4C1166.93 1268.87 1164.13 1268.2 1161.6 1267.4C1159.2 1266.6 1157.33 1265.87 1156 1265.2L1161 1244.8C1163.93 1246.27 1167.67 1247.6 1172.2 1248.8C1176.73 1250 1182.4 1250.6 1189.2 1250.6C1194 1250.6 1197.93 1250.07 1201 1249C1204.2 1247.93 1206.67 1246.6 1208.4 1245C1210.27 1243.27 1211.53 1241.33 1212.2 1239.2C1212.87 1237.07 1213.2 1234.87 1213.2 1232.6Z" fill="white"/>
<path d="M1443 1176C1440.6 1179.07 1438.13 1182.33 1435.6 1185.8C1433.07 1189.27 1430.53 1192.93 1428 1196.8C1425.6 1200.53 1423.27 1204.33 1421 1208.2C1418.73 1212.07 1416.73 1215.87 1415 1219.6H1443V1176ZM1467.6 1145.2V1219.6H1481V1239.8H1467.6V1269H1443V1239.8H1391.4V1221.8C1393.93 1216.6 1397.2 1210.73 1401.2 1204.2C1405.2 1197.53 1409.6 1190.73 1414.4 1183.8C1419.2 1176.87 1424.27 1170.07 1429.6 1163.4C1434.93 1156.6 1440.27 1150.53 1445.6 1145.2H1467.6Z" fill="white"/>
<path d="M1665.6 1271.6C1662.53 1271.6 1659.27 1271.33 1655.8 1270.8C1652.47 1270.4 1649.2 1269.87 1646 1269.2C1642.93 1268.53 1640.07 1267.8 1637.4 1267C1634.73 1266.2 1632.67 1265.47 1631.2 1264.8L1636 1244.2C1639.07 1245.53 1643 1246.93 1647.8 1248.4C1652.73 1249.87 1658.6 1250.6 1665.4 1250.6C1673.8 1250.6 1679.67 1248.8 1683 1245.2C1686.47 1241.6 1688.2 1237.13 1688.2 1231.8C1688.2 1225.27 1685.6 1220.73 1680.4 1218.2C1675.2 1215.53 1668.6 1214.2 1660.6 1214.2H1653V1193.8H1662.2C1664.73 1193.8 1667.27 1193.53 1669.8 1193C1672.33 1192.47 1674.6 1191.6 1676.6 1190.4C1678.6 1189.2 1680.2 1187.6 1681.4 1185.6C1682.73 1183.6 1683.4 1181.07 1683.4 1178C1683.4 1173.47 1682 1169.93 1679.2 1167.4C1676.53 1164.73 1672.8 1163.4 1668 1163.4C1663.33 1163.4 1658.67 1164.2 1654 1165.8C1649.47 1167.27 1645.53 1169.13 1642.2 1171.4L1633.4 1153.4C1637 1151 1641.73 1148.6 1647.6 1146.2C1653.6 1143.67 1660.33 1142.4 1667.8 1142.4C1674.73 1142.4 1680.73 1143.27 1685.8 1145C1691 1146.73 1695.27 1149.2 1698.6 1152.4C1701.93 1155.47 1704.4 1159.13 1706 1163.4C1707.6 1167.67 1708.4 1172.27 1708.4 1177.2C1708.4 1182.13 1707 1186.87 1704.2 1191.4C1701.4 1195.93 1697.67 1199.4 1693 1201.8C1699.4 1204.47 1704.33 1208.4 1707.8 1213.6C1711.4 1218.8 1713.2 1225 1713.2 1232.2C1713.2 1237.93 1712.27 1243.2 1710.4 1248C1708.53 1252.8 1705.67 1257 1701.8 1260.6C1697.93 1264.07 1693 1266.8 1687 1268.8C1681 1270.67 1673.87 1271.6 1665.6 1271.6Z" fill="white"/>
<path d="M1886.4 964C1886.8 955.467 1888.2 946.467 1890.6 937C1893 927.4 1895.87 917.933 1899.2 908.6C1902.67 899.267 1906.4 890.467 1910.4 882.2C1914.4 873.8 1918.2 866.6 1921.8 860.6H1869.8V840.2H1950.6V858.8C1947 862.933 1943.07 868.733 1938.8 876.2C1934.53 883.667 1930.47 892.133 1926.6 901.6C1922.87 911.067 1919.53 921.2 1916.6 932C1913.8 942.667 1912.07 953.333 1911.4 964H1886.4Z" fill="white"/>
<path d="M256.8 1390.9C256.8 1392.63 256.267 1394.13 255.2 1395.4C254.2 1396.67 252.867 1397.3 251.2 1397.3C249.467 1397.3 248.067 1396.67 247 1395.4C245.933 1394.13 245.4 1392.63 245.4 1390.9C245.4 1389.17 245.933 1387.63 247 1386.3C248.067 1384.97 249.467 1384.3 251.2 1384.3C252.867 1384.3 254.2 1384.97 255.2 1386.3C256.267 1387.63 256.8 1389.17 256.8 1390.9ZM230.6 1392C230.6 1381.6 232.367 1373.63 235.9 1368.1C239.5 1362.5 244.533 1359.7 251 1359.7C257.533 1359.7 262.567 1362.5 266.1 1368.1C269.633 1373.63 271.4 1381.6 271.4 1392C271.4 1402.4 269.633 1410.4 266.1 1416C262.567 1421.53 257.533 1424.3 251 1424.3C244.533 1424.3 239.5 1421.53 235.9 1416C232.367 1410.4 230.6 1402.4 230.6 1392ZM263 1392C263 1388.6 262.8 1385.4 262.4 1382.4C262 1379.33 261.333 1376.67 260.4 1374.4C259.467 1372.13 258.233 1370.33 256.7 1369C255.167 1367.67 253.267 1367 251 1367C248.733 1367 246.833 1367.67 245.3 1369C243.767 1370.33 242.533 1372.13 241.6 1374.4C240.667 1376.67 240 1379.33 239.6 1382.4C239.2 1385.4 239 1388.6 239 1392C239 1395.4 239.2 1398.63 239.6 1401.7C240 1404.7 240.667 1407.33 241.6 1409.6C242.533 1411.87 243.767 1413.67 245.3 1415C246.833 1416.33 248.733 1417 251 1417C253.267 1417 255.167 1416.33 256.7 1415C258.233 1413.67 259.467 1411.87 260.4 1409.6C261.333 1407.33 262 1404.7 262.4 1401.7C262.8 1398.63 263 1395.4 263 1392Z" fill="#404040"/>
<path d="M1429.6 1385C1438.53 1385.33 1445.03 1387.3 1449.1 1390.9C1453.17 1394.5 1455.2 1399.33 1455.2 1405.4C1455.2 1408.13 1454.77 1410.67 1453.9 1413C1453.03 1415.33 1451.67 1417.33 1449.8 1419C1448 1420.67 1445.67 1421.97 1442.8 1422.9C1440 1423.83 1436.67 1424.3 1432.8 1424.3C1431.2 1424.3 1429.6 1424.17 1428 1423.9C1426.47 1423.7 1425 1423.43 1423.6 1423.1C1422.2 1422.77 1420.97 1422.43 1419.9 1422.1C1418.83 1421.7 1418.07 1421.37 1417.6 1421.1L1419.2 1414C1420.27 1414.53 1421.9 1415.17 1424.1 1415.9C1426.37 1416.63 1429.2 1417 1432.6 1417C1435.27 1417 1437.5 1416.7 1439.3 1416.1C1441.1 1415.5 1442.53 1414.7 1443.6 1413.7C1444.73 1412.63 1445.53 1411.43 1446 1410.1C1446.53 1408.77 1446.8 1407.37 1446.8 1405.9C1446.8 1403.63 1446.4 1401.63 1445.6 1399.9C1444.87 1398.1 1443.53 1396.6 1441.6 1395.4C1439.73 1394.2 1437.13 1393.3 1433.8 1392.7C1430.53 1392.03 1426.4 1391.7 1421.4 1391.7C1421.8 1388.77 1422.1 1386.03 1422.3 1383.5C1422.57 1380.9 1422.77 1378.4 1422.9 1376C1423.1 1373.53 1423.23 1371.1 1423.3 1368.7C1423.43 1366.3 1423.57 1363.77 1423.7 1361.1H1453.5V1368.1H1430.9C1430.83 1369.03 1430.73 1370.27 1430.6 1371.8C1430.53 1373.27 1430.43 1374.83 1430.3 1376.5C1430.17 1378.17 1430.03 1379.77 1429.9 1381.3C1429.77 1382.83 1429.67 1384.07 1429.6 1385Z" fill="#404040"/>
<path d="M1653.4 1398.2C1653.4 1392.2 1654.2 1386.9 1655.8 1382.3C1657.47 1377.63 1659.8 1373.73 1662.8 1370.6C1665.87 1367.47 1669.57 1365.07 1673.9 1363.4C1678.23 1361.73 1683.13 1360.87 1688.6 1360.8L1689.3 1367.8C1685.77 1367.87 1682.53 1368.27 1679.6 1369C1676.73 1369.67 1674.17 1370.8 1671.9 1372.4C1669.63 1373.93 1667.73 1375.93 1666.2 1378.4C1664.67 1380.87 1663.5 1383.9 1662.7 1387.5C1664.3 1386.77 1666.03 1386.17 1667.9 1385.7C1669.83 1385.23 1671.87 1385 1674 1385C1677.47 1385 1680.4 1385.53 1682.8 1386.6C1685.27 1387.67 1687.23 1389.1 1688.7 1390.9C1690.17 1392.63 1691.23 1394.67 1691.9 1397C1692.57 1399.33 1692.9 1401.73 1692.9 1404.2C1692.9 1406.47 1692.53 1408.8 1691.8 1411.2C1691.07 1413.53 1689.93 1415.7 1688.4 1417.7C1686.87 1419.63 1684.9 1421.23 1682.5 1422.5C1680.1 1423.7 1677.23 1424.3 1673.9 1424.3C1667.03 1424.3 1661.9 1422 1658.5 1417.4C1655.1 1412.8 1653.4 1406.4 1653.4 1398.2ZM1673.1 1391.8C1670.97 1391.8 1669 1392 1667.2 1392.4C1665.47 1392.8 1663.7 1393.4 1661.9 1394.2C1661.83 1394.87 1661.8 1395.53 1661.8 1396.2C1661.8 1396.8 1661.8 1397.47 1661.8 1398.2C1661.8 1400.8 1661.97 1403.27 1662.3 1405.6C1662.7 1407.87 1663.33 1409.9 1664.2 1411.7C1665.13 1413.43 1666.37 1414.83 1667.9 1415.9C1669.43 1416.9 1671.4 1417.4 1673.8 1417.4C1675.8 1417.4 1677.47 1417 1678.8 1416.2C1680.13 1415.33 1681.23 1414.27 1682.1 1413C1682.97 1411.73 1683.57 1410.33 1683.9 1408.8C1684.3 1407.2 1684.5 1405.7 1684.5 1404.3C1684.5 1400.23 1683.57 1397.13 1681.7 1395C1679.9 1392.87 1677.03 1391.8 1673.1 1391.8Z" fill="#404040"/>
<path d="M1900.5 1423C1900.83 1418.27 1901.67 1413.27 1903 1408C1904.4 1402.67 1906.07 1397.53 1908 1392.6C1909.93 1387.6 1912.07 1383 1914.4 1378.8C1916.73 1374.53 1919.03 1371.03 1921.3 1368.3H1891.3V1361.1H1930.5V1368C1928.5 1370.33 1926.33 1373.47 1924 1377.4C1921.67 1381.33 1919.43 1385.77 1917.3 1390.7C1915.23 1395.57 1913.43 1400.8 1911.9 1406.4C1910.37 1411.93 1909.4 1417.47 1909 1423H1900.5Z" fill="#404040"/>
<path d="M2166.9 1406.9C2166.9 1412.1 2165.23 1416.3 2161.9 1419.5C2158.63 1422.7 2153.63 1424.3 2146.9 1424.3C2143.03 1424.3 2139.83 1423.8 2137.3 1422.8C2134.77 1421.73 2132.73 1420.4 2131.2 1418.8C2129.73 1417.13 2128.67 1415.3 2128 1413.3C2127.4 1411.3 2127.1 1409.33 2127.1 1407.4C2127.1 1403.87 2128.07 1400.73 2130 1398C2131.93 1395.27 2134.23 1393.07 2136.9 1391.4C2131.23 1388.2 2128.4 1383.3 2128.4 1376.7C2128.4 1374.43 2128.83 1372.27 2129.7 1370.2C2130.57 1368.13 2131.8 1366.33 2133.4 1364.8C2135 1363.27 2136.93 1362.03 2139.2 1361.1C2141.53 1360.17 2144.13 1359.7 2147 1359.7C2150.33 1359.7 2153.17 1360.2 2155.5 1361.2C2157.9 1362.2 2159.83 1363.5 2161.3 1365.1C2162.77 1366.63 2163.83 1368.37 2164.5 1370.3C2165.17 1372.17 2165.5 1374 2165.5 1375.8C2165.5 1379.33 2164.6 1382.4 2162.8 1385C2161 1387.53 2158.93 1389.57 2156.6 1391.1C2163.47 1394.37 2166.9 1399.63 2166.9 1406.9ZM2135.1 1407.5C2135.1 1408.57 2135.3 1409.7 2135.7 1410.9C2136.1 1412.03 2136.77 1413.1 2137.7 1414.1C2138.63 1415.1 2139.87 1415.93 2141.4 1416.6C2142.93 1417.2 2144.8 1417.5 2147 1417.5C2149.07 1417.5 2150.83 1417.23 2152.3 1416.7C2153.83 1416.1 2155.07 1415.33 2156 1414.4C2157 1413.4 2157.73 1412.3 2158.2 1411.1C2158.67 1409.9 2158.9 1408.7 2158.9 1407.5C2158.9 1403.7 2157.53 1400.8 2154.8 1398.8C2152.07 1396.73 2148.3 1395.17 2143.5 1394.1C2140.83 1395.57 2138.77 1397.4 2137.3 1399.6C2135.83 1401.8 2135.1 1404.43 2135.1 1407.5ZM2157.5 1375.8C2157.5 1374.93 2157.3 1373.97 2156.9 1372.9C2156.5 1371.77 2155.87 1370.77 2155 1369.9C2154.2 1368.97 2153.13 1368.2 2151.8 1367.6C2150.47 1366.93 2148.87 1366.6 2147 1366.6C2145.07 1366.6 2143.43 1366.9 2142.1 1367.5C2140.83 1368.1 2139.77 1368.87 2138.9 1369.8C2138.03 1370.67 2137.4 1371.67 2137 1372.8C2136.67 1373.87 2136.5 1374.93 2136.5 1376C2136.5 1378.73 2137.47 1381.3 2139.4 1383.7C2141.4 1386.03 2144.67 1387.73 2149.2 1388.8C2151.73 1387.33 2153.73 1385.6 2155.2 1383.6C2156.73 1381.6 2157.5 1379 2157.5 1375.8Z" fill="#404040"/>
<rect x="2571" y="1103" width="200" height="200" rx="20" fill="#FFE071"/>
<path d="M2628.5 1373.9C2631.9 1372.57 2635.2 1370.9 2638.4 1368.9C2641.6 1366.83 2644.57 1364.23 2647.3 1361.1H2653.1V1416H2664.8V1423H2631.5V1416H2644.9V1372.6C2644.17 1373.27 2643.27 1373.97 2642.2 1374.7C2641.2 1375.37 2640.07 1376.03 2638.8 1376.7C2637.6 1377.37 2636.33 1378 2635 1378.6C2633.67 1379.2 2632.37 1379.7 2631.1 1380.1L2628.5 1373.9ZM2692.2 1417C2697.47 1417 2701.2 1415.97 2703.4 1413.9C2705.67 1411.77 2706.8 1408.93 2706.8 1405.4C2706.8 1403.13 2706.33 1401.23 2705.4 1399.7C2704.47 1398.17 2703.23 1396.93 2701.7 1396C2700.17 1395.07 2698.4 1394.4 2696.4 1394C2694.4 1393.6 2692.3 1393.4 2690.1 1393.4H2688V1386.7H2690.9C2692.37 1386.7 2693.87 1386.57 2695.4 1386.3C2697 1385.97 2698.43 1385.43 2699.7 1384.7C2701.03 1383.9 2702.1 1382.83 2702.9 1381.5C2703.7 1380.17 2704.1 1378.47 2704.1 1376.4C2704.1 1373 2703.03 1370.6 2700.9 1369.2C2698.83 1367.73 2696.4 1367 2693.6 1367C2690.73 1367 2688.3 1367.43 2686.3 1368.3C2684.3 1369.1 2682.63 1369.93 2681.3 1370.8L2678.1 1364.5C2679.5 1363.5 2681.6 1362.47 2684.4 1361.4C2687.27 1360.27 2690.43 1359.7 2693.9 1359.7C2697.17 1359.7 2699.97 1360.1 2702.3 1360.9C2704.63 1361.7 2706.53 1362.83 2708 1364.3C2709.53 1365.77 2710.67 1367.5 2711.4 1369.5C2712.13 1371.43 2712.5 1373.57 2712.5 1375.9C2712.5 1379.17 2711.63 1381.93 2709.9 1384.2C2708.23 1386.47 2706.07 1388.2 2703.4 1389.4C2706.6 1390.33 2709.37 1392.17 2711.7 1394.9C2714.03 1397.57 2715.2 1401.13 2715.2 1405.6C2715.2 1408.27 2714.73 1410.77 2713.8 1413.1C2712.93 1415.37 2711.57 1417.33 2709.7 1419C2707.9 1420.67 2705.53 1421.97 2702.6 1422.9C2699.73 1423.83 2696.3 1424.3 2692.3 1424.3C2690.77 1424.3 2689.17 1424.17 2687.5 1423.9C2685.9 1423.7 2684.4 1423.4 2683 1423C2681.6 1422.67 2680.33 1422.33 2679.2 1422C2678.13 1421.6 2677.37 1421.3 2676.9 1421.1L2678.5 1414C2679.57 1414.53 2681.27 1415.17 2683.6 1415.9C2685.93 1416.63 2688.8 1417 2692.2 1417Z" fill="#404040"/>
<path d="M2366.4 1229.6C2366.4 1231.6 2365.73 1233.37 2364.4 1234.9C2363.07 1236.43 2361.3 1237.2 2359.1 1237.2C2356.83 1237.2 2355.03 1236.43 2353.7 1234.9C2352.37 1233.37 2351.7 1231.6 2351.7 1229.6C2351.7 1227.53 2352.37 1225.73 2353.7 1224.2C2355.03 1222.67 2356.83 1221.9 2359.1 1221.9C2361.3 1221.9 2363.07 1222.67 2364.4 1224.2C2365.73 1225.73 2366.4 1227.53 2366.4 1229.6ZM2416.4 1229.6C2416.4 1231.6 2415.73 1233.37 2414.4 1234.9C2413.07 1236.43 2411.3 1237.2 2409.1 1237.2C2406.83 1237.2 2405.03 1236.43 2403.7 1234.9C2402.37 1233.37 2401.7 1231.6 2401.7 1229.6C2401.7 1227.53 2402.37 1225.73 2403.7 1224.2C2405.03 1222.67 2406.83 1221.9 2409.1 1221.9C2411.3 1221.9 2413.07 1222.67 2414.4 1224.2C2415.73 1225.73 2416.4 1227.53 2416.4 1229.6ZM2466.4 1229.6C2466.4 1231.6 2465.73 1233.37 2464.4 1234.9C2463.07 1236.43 2461.3 1237.2 2459.1 1237.2C2456.83 1237.2 2455.03 1236.43 2453.7 1234.9C2452.37 1233.37 2451.7 1231.6 2451.7 1229.6C2451.7 1227.53 2452.37 1225.73 2453.7 1224.2C2455.03 1222.67 2456.83 1221.9 2459.1 1221.9C2461.3 1221.9 2463.07 1222.67 2464.4 1224.2C2465.73 1225.73 2466.4 1227.53 2466.4 1229.6Z" fill="#404040"/>
<path d="M1177.6 1401.6C1178.73 1398.93 1180.27 1395.87 1182.2 1392.4C1184.2 1388.93 1186.43 1385.37 1188.9 1381.7C1191.37 1377.97 1194 1374.33 1196.8 1370.8C1199.6 1367.2 1202.43 1363.97 1205.3 1361.1H1213.3V1400.4H1220.6V1407.2H1213.3V1423H1205.3V1407.2H1177.6V1401.6ZM1205.3 1370.9C1203.5 1372.83 1201.67 1374.97 1199.8 1377.3C1198 1379.63 1196.23 1382.1 1194.5 1384.7C1192.77 1387.23 1191.13 1389.83 1189.6 1392.5C1188.13 1395.17 1186.8 1397.8 1185.6 1400.4H1205.3V1370.9Z" fill="#404040"/>
<path d="M470.5 1373.9C473.9 1372.57 477.2 1370.9 480.4 1368.9C483.6 1366.83 486.567 1364.23 489.3 1361.1H495.1V1416H506.8V1423H473.5V1416H486.9V1372.6C486.167 1373.27 485.267 1373.97 484.2 1374.7C483.2 1375.37 482.067 1376.03 480.8 1376.7C479.6 1377.37 478.333 1378 477 1378.6C475.667 1379.2 474.367 1379.7 473.1 1380.1L470.5 1373.9Z" fill="#404040"/>
<path d="M742 1376.9C742 1379.03 741.567 1381.1 740.7 1383.1C739.9 1385.1 738.8 1387.07 737.4 1389C736.067 1390.93 734.533 1392.83 732.8 1394.7C731.067 1396.57 729.3 1398.4 727.5 1400.2C726.5 1401.2 725.333 1402.4 724 1403.8C722.667 1405.2 721.4 1406.63 720.2 1408.1C719 1409.57 718 1411 717.2 1412.4C716.4 1413.8 716 1415 716 1416H744.5V1423H707C706.933 1422.67 706.9 1422.33 706.9 1422C706.9 1421.6 706.9 1421.23 706.9 1420.9C706.9 1418.1 707.367 1415.5 708.3 1413.1C709.233 1410.7 710.433 1408.43 711.9 1406.3C713.367 1404.17 715 1402.17 716.8 1400.3C718.667 1398.37 720.5 1396.5 722.3 1394.7C723.767 1393.23 725.167 1391.8 726.5 1390.4C727.9 1389 729.1 1387.6 730.1 1386.2C731.167 1384.8 732 1383.37 732.6 1381.9C733.267 1380.37 733.6 1378.8 733.6 1377.2C733.6 1375.4 733.3 1373.87 732.7 1372.6C732.167 1371.33 731.4 1370.3 730.4 1369.5C729.467 1368.63 728.367 1368 727.1 1367.6C725.833 1367.2 724.467 1367 723 1367C721.267 1367 719.667 1367.23 718.2 1367.7C716.8 1368.17 715.533 1368.73 714.4 1369.4C713.333 1370.07 712.4 1370.73 711.6 1371.4C710.8 1372 710.2 1372.5 709.8 1372.9L705.7 1367.1C706.233 1366.5 707.033 1365.77 708.1 1364.9C709.167 1364.03 710.433 1363.23 711.9 1362.5C713.433 1361.7 715.133 1361.03 717 1360.5C718.867 1359.97 720.867 1359.7 723 1359.7C729.467 1359.7 734.233 1361.2 737.3 1364.2C740.433 1367.13 742 1371.37 742 1376.9Z" fill="#404040"/>
<path d="M958.2 1417C963.467 1417 967.2 1415.97 969.4 1413.9C971.667 1411.77 972.8 1408.93 972.8 1405.4C972.8 1403.13 972.333 1401.23 971.4 1399.7C970.467 1398.17 969.233 1396.93 967.7 1396C966.167 1395.07 964.4 1394.4 962.4 1394C960.4 1393.6 958.3 1393.4 956.1 1393.4H954V1386.7H956.9C958.367 1386.7 959.867 1386.57 961.4 1386.3C963 1385.97 964.433 1385.43 965.7 1384.7C967.033 1383.9 968.1 1382.83 968.9 1381.5C969.7 1380.17 970.1 1378.47 970.1 1376.4C970.1 1373 969.033 1370.6 966.9 1369.2C964.833 1367.73 962.4 1367 959.6 1367C956.733 1367 954.3 1367.43 952.3 1368.3C950.3 1369.1 948.633 1369.93 947.3 1370.8L944.1 1364.5C945.5 1363.5 947.6 1362.47 950.4 1361.4C953.267 1360.27 956.433 1359.7 959.9 1359.7C963.167 1359.7 965.967 1360.1 968.3 1360.9C970.633 1361.7 972.533 1362.83 974 1364.3C975.533 1365.77 976.667 1367.5 977.4 1369.5C978.133 1371.43 978.5 1373.57 978.5 1375.9C978.5 1379.17 977.633 1381.93 975.9 1384.2C974.233 1386.47 972.067 1388.2 969.4 1389.4C972.6 1390.33 975.367 1392.17 977.7 1394.9C980.033 1397.57 981.2 1401.13 981.2 1405.6C981.2 1408.27 980.733 1410.77 979.8 1413.1C978.933 1415.37 977.567 1417.33 975.7 1419C973.9 1420.67 971.533 1421.97 968.6 1422.9C965.733 1423.83 962.3 1424.3 958.3 1424.3C956.767 1424.3 955.167 1424.17 953.5 1423.9C951.9 1423.7 950.4 1423.4 949 1423C947.6 1422.67 946.333 1422.33 945.2 1422C944.133 1421.6 943.367 1421.3 942.9 1421.1L944.5 1414C945.567 1414.53 947.267 1415.17 949.6 1415.9C951.933 1416.63 954.8 1417 958.2 1417Z" fill="#404040"/>
<path d="M1910.3 1089L1867 1014L1953.6 1014L1910.3 1089Z" fill="#FFBE71"/>
</svg>
