<svg width="1929" height="1065" viewBox="0 0 1929 1065" fill="none" xmlns="http://www.w3.org/2000/svg">
<rect x="915" y="151" width="100" height="100" rx="50" fill="#FF6F66"/>
<rect x="441" y="461" width="100" height="100" rx="50" fill="#FF8266"/>
<rect x="1387" y="461" width="100" height="100" rx="50" fill="#FF8266"/>
<rect x="205" y="815" width="100" height="100" rx="50" fill="#FF9D66"/>
<rect x="678" y="815" width="100" height="100" rx="50" fill="#FF9D66"/>
<rect x="1156" y="815" width="100" height="100" rx="50" fill="#FF9D66"/>
<rect x="1624" y="815" width="100" height="100" rx="50" fill="#FF9D66"/>
<path d="M1502 581L1645.5 775.5M534 581L692 775.5M1027.5 262.5L1356 544.5L1241.5 775.5M867 226L412 425.5L266 775.5" stroke="#F841C4" stroke-width="20"/>
<path d="M257.769 799.064L248.29 726L315.828 753.705L257.769 799.064Z" fill="#F841C4"/>
<path d="M1230.99 798.271L1225.97 724.766L1291.7 756.525L1230.99 798.271Z" fill="#F841C4"/>
<path d="M707.379 798.167L640 768.362L698.726 725L707.379 798.167Z" fill="#F841C4"/>
<path d="M1660.94 798.286L1594 767.498L1653.35 725L1660.94 798.286Z" fill="#F841C4"/>
</svg>
