<svg width="2966" height="1036" viewBox="0 0 2966 1036" fill="none" xmlns="http://www.w3.org/2000/svg">
<rect x="280" y="508" width="200" height="200" rx="20" fill="#FF9466"/>
<path d="M610 608.301L535 651.603L535 565L610 608.301Z" fill="#FF9466"/>
<path d="M480 598.301H535V618.301H480V598.301Z" fill="#FF9466"/>
<path d="M372.6 676.6C369.533 676.6 366.267 676.333 362.8 675.8C359.467 675.4 356.2 674.867 353 674.2C349.933 673.533 347.067 672.8 344.4 672C341.733 671.2 339.667 670.467 338.2 669.8L343 649.2C346.067 650.533 350 651.933 354.8 653.4C359.733 654.867 365.6 655.6 372.4 655.6C380.8 655.6 386.667 653.8 390 650.2C393.467 646.6 395.2 642.133 395.2 636.8C395.2 630.267 392.6 625.733 387.4 623.2C382.2 620.533 375.6 619.2 367.6 619.2H360V598.8H369.2C371.733 598.8 374.267 598.533 376.8 598C379.333 597.467 381.6 596.6 383.6 595.4C385.6 594.2 387.2 592.6 388.4 590.6C389.733 588.6 390.4 586.067 390.4 583C390.4 578.467 389 574.933 386.2 572.4C383.533 569.733 379.8 568.4 375 568.4C370.333 568.4 365.667 569.2 361 570.8C356.467 572.267 352.533 574.133 349.2 576.4L340.4 558.4C344 556 348.733 553.6 354.6 551.2C360.6 548.667 367.333 547.4 374.8 547.4C381.733 547.4 387.733 548.267 392.8 550C398 551.733 402.267 554.2 405.6 557.4C408.933 560.467 411.4 564.133 413 568.4C414.6 572.667 415.4 577.267 415.4 582.2C415.4 587.133 414 591.867 411.2 596.4C408.4 600.933 404.667 604.4 400 606.8C406.4 609.467 411.333 613.4 414.8 618.6C418.4 623.8 420.2 630 420.2 637.2C420.2 642.933 419.267 648.2 417.4 653C415.533 657.8 412.667 662 408.8 665.6C404.933 669.067 400 671.8 394 673.8C388 675.667 380.867 676.6 372.6 676.6Z" fill="white"/>
<rect x="50" y="132" width="200" height="200" rx="20" fill="#FFB171"/>
<path d="M380 232.301L305 275.603L305 189L380 232.301Z" fill="#FFB171"/>
<path d="M250 222.301H305V242.301H250V222.301Z" fill="#FFB171"/>
<path d="M164.2 261.6C164.2 258.133 163.6 255 162.4 252.2C161.333 249.267 159.067 246.8 155.6 244.8C152.267 242.667 147.467 241.067 141.2 240C134.933 238.8 126.733 238.2 116.6 238.2C117.933 227 119 216.067 119.8 205.4C120.6 194.6 121.2 184.2 121.6 174.2H184.8V194.6H142.2C141.933 198.867 141.6 203.333 141.2 208C140.8 212.667 140.467 216.467 140.2 219.4C156.733 220.467 169.067 224.467 177.2 231.4C185.333 238.333 189.4 248.067 189.4 260.6C189.4 266.333 188.4 271.667 186.4 276.6C184.4 281.4 181.333 285.6 177.2 289.2C173.067 292.8 167.933 295.6 161.8 297.6C155.667 299.6 148.533 300.6 140.4 300.6C137.2 300.6 133.933 300.4 130.6 300C127.267 299.6 124.067 299.067 121 298.4C117.933 297.867 115.133 297.2 112.6 296.4C110.2 295.6 108.333 294.867 107 294.2L112 273.8C114.933 275.267 118.667 276.6 123.2 277.8C127.733 279 133.4 279.6 140.2 279.6C145 279.6 148.933 279.067 152 278C155.2 276.933 157.667 275.6 159.4 274C161.267 272.267 162.533 270.333 163.2 268.2C163.867 266.067 164.2 263.867 164.2 261.6Z" fill="white"/>
<path d="M1204.16 317.651L1231.66 365.282L1260.5 348.631L1260.5 435.234L1185.5 391.933L1214.34 375.282L1186.84 327.651L1204.16 317.651Z" fill="#FF0000"/>
<rect x="1008" y="132" width="200" height="200" rx="20" fill="#FFB171"/>
<path d="M1122.2 261.6C1122.2 258.133 1121.6 255 1120.4 252.2C1119.33 249.267 1117.07 246.8 1113.6 244.8C1110.27 242.667 1105.47 241.067 1099.2 240C1092.93 238.8 1084.73 238.2 1074.6 238.2C1075.93 227 1077 216.067 1077.8 205.4C1078.6 194.6 1079.2 184.2 1079.6 174.2H1142.8V194.6H1100.2C1099.93 198.867 1099.6 203.333 1099.2 208C1098.8 212.667 1098.47 216.467 1098.2 219.4C1114.73 220.467 1127.07 224.467 1135.2 231.4C1143.33 238.333 1147.4 248.067 1147.4 260.6C1147.4 266.333 1146.4 271.667 1144.4 276.6C1142.4 281.4 1139.33 285.6 1135.2 289.2C1131.07 292.8 1125.93 295.6 1119.8 297.6C1113.67 299.6 1106.53 300.6 1098.4 300.6C1095.2 300.6 1091.93 300.4 1088.6 300C1085.27 299.6 1082.07 299.067 1079 298.4C1075.93 297.867 1073.13 297.2 1070.6 296.4C1068.2 295.6 1066.33 294.867 1065 294.2L1070 273.8C1072.93 275.267 1076.67 276.6 1081.2 277.8C1085.73 279 1091.4 279.6 1098.2 279.6C1103 279.6 1106.93 279.067 1110 278C1113.2 276.933 1115.67 275.6 1117.4 274C1119.27 272.267 1120.53 270.333 1121.2 268.2C1121.87 266.067 1122.2 263.867 1122.2 261.6Z" fill="white"/>
<path d="M688 607.1C688 610.033 687.1 612.267 685.3 613.8C683.5 615.333 681.433 616.1 679.1 616.1C677.9 616.1 676.767 615.9 675.7 615.5C674.633 615.1 673.667 614.533 672.8 613.8C672 613 671.333 612.067 670.8 611C670.333 609.867 670.1 608.567 670.1 607.1C670.1 605.7 670.333 604.467 670.8 603.4C671.333 602.267 672 601.333 672.8 600.6C673.667 599.867 674.633 599.3 675.7 598.9C676.767 598.5 677.9 598.3 679.1 598.3C681.433 598.3 683.5 599.067 685.3 600.6C687.1 602.133 688 604.3 688 607.1ZM738 607.1C738 610.033 737.1 612.267 735.3 613.8C733.5 615.333 731.433 616.1 729.1 616.1C727.9 616.1 726.767 615.9 725.7 615.5C724.633 615.1 723.667 614.533 722.8 613.8C722 613 721.333 612.067 720.8 611C720.333 609.867 720.1 608.567 720.1 607.1C720.1 605.7 720.333 604.467 720.8 603.4C721.333 602.267 722 601.333 722.8 600.6C723.667 599.867 724.633 599.3 725.7 598.9C726.767 598.5 727.9 598.3 729.1 598.3C731.433 598.3 733.5 599.067 735.3 600.6C737.1 602.133 738 604.3 738 607.1ZM788 607.1C788 610.033 787.1 612.267 785.3 613.8C783.5 615.333 781.433 616.1 779.1 616.1C777.9 616.1 776.767 615.9 775.7 615.5C774.633 615.1 773.667 614.533 772.8 613.8C772 613 771.333 612.067 770.8 611C770.333 609.867 770.1 608.567 770.1 607.1C770.1 605.7 770.333 604.467 770.8 603.4C771.333 602.267 772 601.333 772.8 600.6C773.667 599.867 774.633 599.3 775.7 598.9C776.767 598.5 777.9 598.3 779.1 598.3C781.433 598.3 783.5 599.067 785.3 600.6C787.1 602.133 788 604.3 788 607.1Z" fill="#FF8266"/>
<rect x="2394" y="508" width="200" height="200" rx="20" fill="#FF9466"/>
<path d="M2486.6 676.6C2483.53 676.6 2480.27 676.333 2476.8 675.8C2473.47 675.4 2470.2 674.867 2467 674.2C2463.93 673.533 2461.07 672.8 2458.4 672C2455.73 671.2 2453.67 670.467 2452.2 669.8L2457 649.2C2460.07 650.533 2464 651.933 2468.8 653.4C2473.73 654.867 2479.6 655.6 2486.4 655.6C2494.8 655.6 2500.67 653.8 2504 650.2C2507.47 646.6 2509.2 642.133 2509.2 636.8C2509.2 630.267 2506.6 625.733 2501.4 623.2C2496.2 620.533 2489.6 619.2 2481.6 619.2H2474V598.8H2483.2C2485.73 598.8 2488.27 598.533 2490.8 598C2493.33 597.467 2495.6 596.6 2497.6 595.4C2499.6 594.2 2501.2 592.6 2502.4 590.6C2503.73 588.6 2504.4 586.067 2504.4 583C2504.4 578.467 2503 574.933 2500.2 572.4C2497.53 569.733 2493.8 568.4 2489 568.4C2484.33 568.4 2479.67 569.2 2475 570.8C2470.47 572.267 2466.53 574.133 2463.2 576.4L2454.4 558.4C2458 556 2462.73 553.6 2468.6 551.2C2474.6 548.667 2481.33 547.4 2488.8 547.4C2495.73 547.4 2501.73 548.267 2506.8 550C2512 551.733 2516.27 554.2 2519.6 557.4C2522.93 560.467 2525.4 564.133 2527 568.4C2528.6 572.667 2529.4 577.267 2529.4 582.2C2529.4 587.133 2528 591.867 2525.2 596.4C2522.4 600.933 2518.67 604.4 2514 606.8C2520.4 609.467 2525.33 613.4 2528.8 618.6C2532.4 623.8 2534.2 630 2534.2 637.2C2534.2 642.933 2533.27 648.2 2531.4 653C2529.53 657.8 2526.67 662 2522.8 665.6C2518.93 669.067 2514 671.8 2508 673.8C2502 675.667 2494.87 676.6 2486.6 676.6Z" fill="white"/>
<rect x="2034" y="508" width="200" height="200" rx="20" fill="#FFB171"/>
<path d="M2148.2 637.6C2148.2 634.133 2147.6 631 2146.4 628.2C2145.33 625.267 2143.07 622.8 2139.6 620.8C2136.27 618.667 2131.47 617.067 2125.2 616C2118.93 614.8 2110.73 614.2 2100.6 614.2C2101.93 603 2103 592.067 2103.8 581.4C2104.6 570.6 2105.2 560.2 2105.6 550.2H2168.8V570.6H2126.2C2125.93 574.867 2125.6 579.333 2125.2 584C2124.8 588.667 2124.47 592.467 2124.2 595.4C2140.73 596.467 2153.07 600.467 2161.2 607.4C2169.33 614.333 2173.4 624.067 2173.4 636.6C2173.4 642.333 2172.4 647.667 2170.4 652.6C2168.4 657.4 2165.33 661.6 2161.2 665.2C2157.07 668.8 2151.93 671.6 2145.8 673.6C2139.67 675.6 2132.53 676.6 2124.4 676.6C2121.2 676.6 2117.93 676.4 2114.6 676C2111.27 675.6 2108.07 675.067 2105 674.4C2101.93 673.867 2099.13 673.2 2096.6 672.4C2094.2 671.6 2092.33 670.867 2091 670.2L2096 649.8C2098.93 651.267 2102.67 652.6 2107.2 653.8C2111.73 655 2117.4 655.6 2124.2 655.6C2129 655.6 2132.93 655.067 2136 654C2139.2 652.933 2141.67 651.6 2143.4 650C2145.27 648.267 2146.53 646.333 2147.2 644.2C2147.87 642.067 2148.2 639.867 2148.2 637.6Z" fill="white"/>
<path d="M150 489L121 439L179 439L150 489Z" fill="#525252"/>
<path d="M110.9 422L108 407.7H91.5L88.7 422H75.9C78.8333 409.8 81.8 398.7 84.8 388.7C87.8 378.633 90.7 369.1 93.5 360.1H106.9C109.833 369.167 112.733 378.8 115.6 389C118.533 399.133 121.367 410.133 124.1 422H110.9ZM99.9 372.1C99.2333 374.433 98.6 376.667 98 378.8C97.4667 380.867 96.9333 382.933 96.4 385C95.9333 387 95.4667 389.033 95 391.1C94.6 393.167 94.2 395.3 93.8 397.5H105.9C105.5 395.3 105.1 393.167 104.7 391.1C104.3 389.033 103.833 387 103.3 385C102.833 382.933 102.3 380.867 101.7 378.8C101.167 376.667 100.567 374.433 99.9 372.1ZM140.3 398.2C140.3 402.4 141.067 405.833 142.6 408.5C144.2 411.167 146.733 412.5 150.2 412.5C151.2 412.5 152.133 412.467 153 412.4C153.867 412.333 154.767 412.233 155.7 412.1V386.5C154.767 385.967 153.7 385.533 152.5 385.2C151.3 384.8 150.033 384.6 148.7 384.6C145.767 384.6 143.633 385.767 142.3 388.1C140.967 390.433 140.3 393.8 140.3 398.2ZM168 420.6C165.733 421.333 162.967 421.933 159.7 422.4C156.433 422.867 153.233 423.1 150.1 423.1C142.767 423.1 137.2 420.933 133.4 416.6C129.667 412.267 127.8 406.333 127.8 398.8C127.8 391.133 129.367 385.1 132.5 380.7C135.7 376.233 140.4 374 146.6 374C148.267 374 149.9 374.2 151.5 374.6C153.1 374.933 154.5 375.433 155.7 376.1V354.7L168 352.6V420.6ZM190.3 398.2C190.3 402.4 191.067 405.833 192.6 408.5C194.2 411.167 196.733 412.5 200.2 412.5C201.2 412.5 202.133 412.467 203 412.4C203.867 412.333 204.767 412.233 205.7 412.1V386.5C204.767 385.967 203.7 385.533 202.5 385.2C201.3 384.8 200.033 384.6 198.7 384.6C195.767 384.6 193.633 385.767 192.3 388.1C190.967 390.433 190.3 393.8 190.3 398.2ZM218 420.6C215.733 421.333 212.967 421.933 209.7 422.4C206.433 422.867 203.233 423.1 200.1 423.1C192.767 423.1 187.2 420.933 183.4 416.6C179.667 412.267 177.8 406.333 177.8 398.8C177.8 391.133 179.367 385.1 182.5 380.7C185.7 376.233 190.4 374 196.6 374C198.267 374 199.9 374.2 201.5 374.6C203.1 374.933 204.5 375.433 205.7 376.1V354.7L218 352.6V420.6Z" fill="#525252"/>
<path d="M2234 598.301H2289V565L2364 608.301L2289 651.603L2289 618.301H2234V598.301Z" fill="#FF0000"/>
<path d="M2594 598.301H2649V565L2724 608.301L2649 651.603L2649 618.301H2594V598.301Z" fill="#FF9466"/>
<path d="M380 754L409 804L351 804L380 754Z" fill="#525252"/>
<path d="M325.5 825.1V887H313.2V859.7H296.8V887H284.5V825.1H296.8V849.5H313.2V825.1H325.5ZM333.1 863.9C333.1 859.767 333.733 856.133 335 853C336.267 849.867 337.933 847.267 340 845.2C342.067 843.067 344.433 841.467 347.1 840.4C349.767 839.333 352.5 838.8 355.3 838.8C362.233 838.8 367.5 840.867 371.1 845C374.7 849.067 376.5 855.033 376.5 862.9C376.5 863.7 376.467 864.533 376.4 865.4C376.4 866.267 376.367 866.967 376.3 867.5H345.8C345.8 870.567 347.067 873 349.6 874.8C352.133 876.533 355.4 877.4 359.4 877.4C361.867 877.4 364.2 877.133 366.4 876.6C368.667 876.067 370.567 875.533 372.1 875L373.8 885.5C371.667 886.233 369.4 886.833 367 887.3C364.6 887.833 361.9 888.1 358.9 888.1C354.9 888.1 351.3 887.6 348.1 886.6C344.967 885.533 342.267 884 340 882C337.8 879.933 336.1 877.4 334.9 874.4C333.7 871.4 333.1 867.9 333.1 863.9ZM364.6 859C364.6 857.733 364.433 856.533 364.1 855.4C363.767 854.2 363.233 853.133 362.5 852.2C361.767 851.267 360.833 850.533 359.7 850C358.567 849.4 357.167 849.1 355.5 849.1C353.9 849.1 352.5 849.367 351.3 849.9C350.167 850.433 349.2 851.167 348.4 852.1C347.667 853.033 347.067 854.1 346.6 855.3C346.2 856.5 345.933 857.733 345.8 859H364.6ZM405.1 878.2C406.433 878.2 407.733 878.2 409 878.2C410.267 878.133 411.367 878.033 412.3 877.9V867.1C411.5 866.967 410.533 866.867 409.4 866.8C408.267 866.667 407.233 866.6 406.3 866.6C405.033 866.6 403.8 866.7 402.6 866.9C401.4 867.033 400.333 867.3 399.4 867.7C398.533 868.1 397.833 868.667 397.3 869.4C396.767 870.133 396.5 871.1 396.5 872.3C396.5 874.433 397.3 875.967 398.9 876.9C400.5 877.767 402.567 878.2 405.1 878.2ZM404 838.8C407.867 838.8 411.067 839.267 413.6 840.2C416.2 841.067 418.267 842.333 419.8 844C421.333 845.6 422.433 847.6 423.1 850C423.767 852.333 424.1 854.967 424.1 857.9V885.9C422.3 886.3 419.633 886.767 416.1 887.3C412.567 887.833 408.6 888.1 404.2 888.1C401.2 888.1 398.467 887.833 396 887.3C393.6 886.767 391.533 885.9 389.8 884.7C388.067 883.433 386.733 881.833 385.8 879.9C384.867 877.9 384.4 875.467 384.4 872.6C384.4 869.867 384.933 867.567 386 865.7C387.067 863.833 388.5 862.333 390.3 861.2C392.1 860.067 394.167 859.267 396.5 858.8C398.833 858.267 401.267 858 403.8 858C407 858 409.833 858.267 412.3 858.8V857.3C412.3 854.967 411.567 853.033 410.1 851.5C408.633 849.9 406.1 849.1 402.5 849.1C400.167 849.1 397.9 849.267 395.7 849.6C393.567 849.933 391.833 850.333 390.5 850.8L388.8 840.9C390.333 840.367 392.5 839.9 395.3 839.5C398.1 839.033 401 838.8 404 838.8ZM445.3 863.2C445.3 867.4 446.067 870.833 447.6 873.5C449.2 876.167 451.733 877.5 455.2 877.5C456.2 877.5 457.133 877.467 458 877.4C458.867 877.333 459.767 877.233 460.7 877.1V851.5C459.767 850.967 458.7 850.533 457.5 850.2C456.3 849.8 455.033 849.6 453.7 849.6C450.767 849.6 448.633 850.767 447.3 853.1C445.967 855.433 445.3 858.8 445.3 863.2ZM473 885.6C470.733 886.333 467.967 886.933 464.7 887.4C461.433 887.867 458.233 888.1 455.1 888.1C447.767 888.1 442.2 885.933 438.4 881.6C434.667 877.267 432.8 871.333 432.8 863.8C432.8 856.133 434.367 850.1 437.5 845.7C440.7 841.233 445.4 839 451.6 839C453.267 839 454.9 839.2 456.5 839.6C458.1 839.933 459.5 840.433 460.7 841.1V819.7L473 817.6V885.6Z" fill="#525252"/>
<rect x="1238" y="508" width="200" height="200" rx="20" fill="#FF9466"/>
<path d="M1568 608.301L1493 651.603L1493 565L1568 608.301Z" fill="#FF9466"/>
<path d="M1438 598.301H1493V618.301H1438V598.301Z" fill="#FF9466"/>
<path d="M1330.6 676.6C1327.53 676.6 1324.27 676.333 1320.8 675.8C1317.47 675.4 1314.2 674.867 1311 674.2C1307.93 673.533 1305.07 672.8 1302.4 672C1299.73 671.2 1297.67 670.467 1296.2 669.8L1301 649.2C1304.07 650.533 1308 651.933 1312.8 653.4C1317.73 654.867 1323.6 655.6 1330.4 655.6C1338.8 655.6 1344.67 653.8 1348 650.2C1351.47 646.6 1353.2 642.133 1353.2 636.8C1353.2 630.267 1350.6 625.733 1345.4 623.2C1340.2 620.533 1333.6 619.2 1325.6 619.2H1318V598.8H1327.2C1329.73 598.8 1332.27 598.533 1334.8 598C1337.33 597.467 1339.6 596.6 1341.6 595.4C1343.6 594.2 1345.2 592.6 1346.4 590.6C1347.73 588.6 1348.4 586.067 1348.4 583C1348.4 578.467 1347 574.933 1344.2 572.4C1341.53 569.733 1337.8 568.4 1333 568.4C1328.33 568.4 1323.67 569.2 1319 570.8C1314.47 572.267 1310.53 574.133 1307.2 576.4L1298.4 558.4C1302 556 1306.73 553.6 1312.6 551.2C1318.6 548.667 1325.33 547.4 1332.8 547.4C1339.73 547.4 1345.73 548.267 1350.8 550C1356 551.733 1360.27 554.2 1363.6 557.4C1366.93 560.467 1369.4 564.133 1371 568.4C1372.6 572.667 1373.4 577.267 1373.4 582.2C1373.4 587.133 1372 591.867 1369.2 596.4C1366.4 600.933 1362.67 604.4 1358 606.8C1364.4 609.467 1369.33 613.4 1372.8 618.6C1376.4 623.8 1378.2 630 1378.2 637.2C1378.2 642.933 1377.27 648.2 1375.4 653C1373.53 657.8 1370.67 662 1366.8 665.6C1362.93 669.067 1358 671.8 1352 673.8C1346 675.667 1338.87 676.6 1330.6 676.6Z" fill="white"/>
<path d="M1646 607.1C1646 610.033 1645.1 612.267 1643.3 613.8C1641.5 615.333 1639.43 616.1 1637.1 616.1C1635.9 616.1 1634.77 615.9 1633.7 615.5C1632.63 615.1 1631.67 614.533 1630.8 613.8C1630 613 1629.33 612.067 1628.8 611C1628.33 609.867 1628.1 608.567 1628.1 607.1C1628.1 605.7 1628.33 604.467 1628.8 603.4C1629.33 602.267 1630 601.333 1630.8 600.6C1631.67 599.867 1632.63 599.3 1633.7 598.9C1634.77 598.5 1635.9 598.3 1637.1 598.3C1639.43 598.3 1641.5 599.067 1643.3 600.6C1645.1 602.133 1646 604.3 1646 607.1ZM1696 607.1C1696 610.033 1695.1 612.267 1693.3 613.8C1691.5 615.333 1689.43 616.1 1687.1 616.1C1685.9 616.1 1684.77 615.9 1683.7 615.5C1682.63 615.1 1681.67 614.533 1680.8 613.8C1680 613 1679.33 612.067 1678.8 611C1678.33 609.867 1678.1 608.567 1678.1 607.1C1678.1 605.7 1678.33 604.467 1678.8 603.4C1679.33 602.267 1680 601.333 1680.8 600.6C1681.67 599.867 1682.63 599.3 1683.7 598.9C1684.77 598.5 1685.9 598.3 1687.1 598.3C1689.43 598.3 1691.5 599.067 1693.3 600.6C1695.1 602.133 1696 604.3 1696 607.1ZM1746 607.1C1746 610.033 1745.1 612.267 1743.3 613.8C1741.5 615.333 1739.43 616.1 1737.1 616.1C1735.9 616.1 1734.77 615.9 1733.7 615.5C1732.63 615.1 1731.67 614.533 1730.8 613.8C1730 613 1729.33 612.067 1728.8 611C1728.33 609.867 1728.1 608.567 1728.1 607.1C1728.1 605.7 1728.33 604.467 1728.8 603.4C1729.33 602.267 1730 601.333 1730.8 600.6C1731.67 599.867 1732.63 599.3 1733.7 598.9C1734.77 598.5 1735.9 598.3 1737.1 598.3C1739.43 598.3 1741.5 599.067 1743.3 600.6C1745.1 602.133 1746 604.3 1746 607.1Z" fill="#FF8266"/>
<path d="M2794 607.1C2794 610.033 2793.1 612.267 2791.3 613.8C2789.5 615.333 2787.43 616.1 2785.1 616.1C2783.9 616.1 2782.77 615.9 2781.7 615.5C2780.63 615.1 2779.67 614.533 2778.8 613.8C2778 613 2777.33 612.067 2776.8 611C2776.33 609.867 2776.1 608.567 2776.1 607.1C2776.1 605.7 2776.33 604.467 2776.8 603.4C2777.33 602.267 2778 601.333 2778.8 600.6C2779.67 599.867 2780.63 599.3 2781.7 598.9C2782.77 598.5 2783.9 598.3 2785.1 598.3C2787.43 598.3 2789.5 599.067 2791.3 600.6C2793.1 602.133 2794 604.3 2794 607.1ZM2844 607.1C2844 610.033 2843.1 612.267 2841.3 613.8C2839.5 615.333 2837.43 616.1 2835.1 616.1C2833.9 616.1 2832.77 615.9 2831.7 615.5C2830.63 615.1 2829.67 614.533 2828.8 613.8C2828 613 2827.33 612.067 2826.8 611C2826.33 609.867 2826.1 608.567 2826.1 607.1C2826.1 605.7 2826.33 604.467 2826.8 603.4C2827.33 602.267 2828 601.333 2828.8 600.6C2829.67 599.867 2830.63 599.3 2831.7 598.9C2832.77 598.5 2833.9 598.3 2835.1 598.3C2837.43 598.3 2839.5 599.067 2841.3 600.6C2843.1 602.133 2844 604.3 2844 607.1ZM2894 607.1C2894 610.033 2893.1 612.267 2891.3 613.8C2889.5 615.333 2887.43 616.1 2885.1 616.1C2883.9 616.1 2882.77 615.9 2881.7 615.5C2880.63 615.1 2879.67 614.533 2878.8 613.8C2878 613 2877.33 612.067 2876.8 611C2876.33 609.867 2876.1 608.567 2876.1 607.1C2876.1 605.7 2876.33 604.467 2876.8 603.4C2877.33 602.267 2878 601.333 2878.8 600.6C2879.67 599.867 2880.63 599.3 2881.7 598.9C2882.77 598.5 2883.9 598.3 2885.1 598.3C2887.43 598.3 2889.5 599.067 2891.3 600.6C2893.1 602.133 2894 604.3 2894 607.1Z" fill="#FF8266"/>
<path d="M1053.5 443.1V505H1041.2V477.7H1024.8V505H1012.5V443.1H1024.8V467.5H1041.2V443.1H1053.5ZM1061.1 481.9C1061.1 477.767 1061.73 474.133 1063 471C1064.27 467.867 1065.93 465.267 1068 463.2C1070.07 461.067 1072.43 459.467 1075.1 458.4C1077.77 457.333 1080.5 456.8 1083.3 456.8C1090.23 456.8 1095.5 458.867 1099.1 463C1102.7 467.067 1104.5 473.033 1104.5 480.9C1104.5 481.7 1104.47 482.533 1104.4 483.4C1104.4 484.267 1104.37 484.967 1104.3 485.5H1073.8C1073.8 488.567 1075.07 491 1077.6 492.8C1080.13 494.533 1083.4 495.4 1087.4 495.4C1089.87 495.4 1092.2 495.133 1094.4 494.6C1096.67 494.067 1098.57 493.533 1100.1 493L1101.8 503.5C1099.67 504.233 1097.4 504.833 1095 505.3C1092.6 505.833 1089.9 506.1 1086.9 506.1C1082.9 506.1 1079.3 505.6 1076.1 504.6C1072.97 503.533 1070.27 502 1068 500C1065.8 497.933 1064.1 495.4 1062.9 492.4C1061.7 489.4 1061.1 485.9 1061.1 481.9ZM1092.6 477C1092.6 475.733 1092.43 474.533 1092.1 473.4C1091.77 472.2 1091.23 471.133 1090.5 470.2C1089.77 469.267 1088.83 468.533 1087.7 468C1086.57 467.4 1085.17 467.1 1083.5 467.1C1081.9 467.1 1080.5 467.367 1079.3 467.9C1078.17 468.433 1077.2 469.167 1076.4 470.1C1075.67 471.033 1075.07 472.1 1074.6 473.3C1074.2 474.5 1073.93 475.733 1073.8 477H1092.6ZM1133.1 496.2C1134.43 496.2 1135.73 496.2 1137 496.2C1138.27 496.133 1139.37 496.033 1140.3 495.9V485.1C1139.5 484.967 1138.53 484.867 1137.4 484.8C1136.27 484.667 1135.23 484.6 1134.3 484.6C1133.03 484.6 1131.8 484.7 1130.6 484.9C1129.4 485.033 1128.33 485.3 1127.4 485.7C1126.53 486.1 1125.83 486.667 1125.3 487.4C1124.77 488.133 1124.5 489.1 1124.5 490.3C1124.5 492.433 1125.3 493.967 1126.9 494.9C1128.5 495.767 1130.57 496.2 1133.1 496.2ZM1132 456.8C1135.87 456.8 1139.07 457.267 1141.6 458.2C1144.2 459.067 1146.27 460.333 1147.8 462C1149.33 463.6 1150.43 465.6 1151.1 468C1151.77 470.333 1152.1 472.967 1152.1 475.9V503.9C1150.3 504.3 1147.63 504.767 1144.1 505.3C1140.57 505.833 1136.6 506.1 1132.2 506.1C1129.2 506.1 1126.47 505.833 1124 505.3C1121.6 504.767 1119.53 503.9 1117.8 502.7C1116.07 501.433 1114.73 499.833 1113.8 497.9C1112.87 495.9 1112.4 493.467 1112.4 490.6C1112.4 487.867 1112.93 485.567 1114 483.7C1115.07 481.833 1116.5 480.333 1118.3 479.2C1120.1 478.067 1122.17 477.267 1124.5 476.8C1126.83 476.267 1129.27 476 1131.8 476C1135 476 1137.83 476.267 1140.3 476.8V475.3C1140.3 472.967 1139.57 471.033 1138.1 469.5C1136.63 467.9 1134.1 467.1 1130.5 467.1C1128.17 467.1 1125.9 467.267 1123.7 467.6C1121.57 467.933 1119.83 468.333 1118.5 468.8L1116.8 458.9C1118.33 458.367 1120.5 457.9 1123.3 457.5C1126.1 457.033 1129 456.8 1132 456.8ZM1173.3 481.2C1173.3 485.4 1174.07 488.833 1175.6 491.5C1177.2 494.167 1179.73 495.5 1183.2 495.5C1184.2 495.5 1185.13 495.467 1186 495.4C1186.87 495.333 1187.77 495.233 1188.7 495.1V469.5C1187.77 468.967 1186.7 468.533 1185.5 468.2C1184.3 467.8 1183.03 467.6 1181.7 467.6C1178.77 467.6 1176.63 468.767 1175.3 471.1C1173.97 473.433 1173.3 476.8 1173.3 481.2ZM1201 503.6C1198.73 504.333 1195.97 504.933 1192.7 505.4C1189.43 505.867 1186.23 506.1 1183.1 506.1C1175.77 506.1 1170.2 503.933 1166.4 499.6C1162.67 495.267 1160.8 489.333 1160.8 481.8C1160.8 474.133 1162.37 468.1 1165.5 463.7C1168.7 459.233 1173.4 457 1179.6 457C1181.27 457 1182.9 457.2 1184.5 457.6C1186.1 457.933 1187.5 458.433 1188.7 459.1V437.7L1201 435.6V503.6Z" fill="#525252"/>
<path d="M2134 737L2163 787L2105 787L2134 737Z" fill="#FF0000"/>
<path d="M2079.5 808.1V870H2067.2V842.7H2050.8V870H2038.5V808.1H2050.8V832.5H2067.2V808.1H2079.5ZM2087.1 846.9C2087.1 842.767 2087.73 839.133 2089 836C2090.27 832.867 2091.93 830.267 2094 828.2C2096.07 826.067 2098.43 824.467 2101.1 823.4C2103.77 822.333 2106.5 821.8 2109.3 821.8C2116.23 821.8 2121.5 823.867 2125.1 828C2128.7 832.067 2130.5 838.033 2130.5 845.9C2130.5 846.7 2130.47 847.533 2130.4 848.4C2130.4 849.267 2130.37 849.967 2130.3 850.5H2099.8C2099.8 853.567 2101.07 856 2103.6 857.8C2106.13 859.533 2109.4 860.4 2113.4 860.4C2115.87 860.4 2118.2 860.133 2120.4 859.6C2122.67 859.067 2124.57 858.533 2126.1 858L2127.8 868.5C2125.67 869.233 2123.4 869.833 2121 870.3C2118.6 870.833 2115.9 871.1 2112.9 871.1C2108.9 871.1 2105.3 870.6 2102.1 869.6C2098.97 868.533 2096.27 867 2094 865C2091.8 862.933 2090.1 860.4 2088.9 857.4C2087.7 854.4 2087.1 850.9 2087.1 846.9ZM2118.6 842C2118.6 840.733 2118.43 839.533 2118.1 838.4C2117.77 837.2 2117.23 836.133 2116.5 835.2C2115.77 834.267 2114.83 833.533 2113.7 833C2112.57 832.4 2111.17 832.1 2109.5 832.1C2107.9 832.1 2106.5 832.367 2105.3 832.9C2104.17 833.433 2103.2 834.167 2102.4 835.1C2101.67 836.033 2101.07 837.1 2100.6 838.3C2100.2 839.5 2099.93 840.733 2099.8 842H2118.6ZM2159.1 861.2C2160.43 861.2 2161.73 861.2 2163 861.2C2164.27 861.133 2165.37 861.033 2166.3 860.9V850.1C2165.5 849.967 2164.53 849.867 2163.4 849.8C2162.27 849.667 2161.23 849.6 2160.3 849.6C2159.03 849.6 2157.8 849.7 2156.6 849.9C2155.4 850.033 2154.33 850.3 2153.4 850.7C2152.53 851.1 2151.83 851.667 2151.3 852.4C2150.77 853.133 2150.5 854.1 2150.5 855.3C2150.5 857.433 2151.3 858.967 2152.9 859.9C2154.5 860.767 2156.57 861.2 2159.1 861.2ZM2158 821.8C2161.87 821.8 2165.07 822.267 2167.6 823.2C2170.2 824.067 2172.27 825.333 2173.8 827C2175.33 828.6 2176.43 830.6 2177.1 833C2177.77 835.333 2178.1 837.967 2178.1 840.9V868.9C2176.3 869.3 2173.63 869.767 2170.1 870.3C2166.57 870.833 2162.6 871.1 2158.2 871.1C2155.2 871.1 2152.47 870.833 2150 870.3C2147.6 869.767 2145.53 868.9 2143.8 867.7C2142.07 866.433 2140.73 864.833 2139.8 862.9C2138.87 860.9 2138.4 858.467 2138.4 855.6C2138.4 852.867 2138.93 850.567 2140 848.7C2141.07 846.833 2142.5 845.333 2144.3 844.2C2146.1 843.067 2148.17 842.267 2150.5 841.8C2152.83 841.267 2155.27 841 2157.8 841C2161 841 2163.83 841.267 2166.3 841.8V840.3C2166.3 837.967 2165.57 836.033 2164.1 834.5C2162.63 832.9 2160.1 832.1 2156.5 832.1C2154.17 832.1 2151.9 832.267 2149.7 832.6C2147.57 832.933 2145.83 833.333 2144.5 833.8L2142.8 823.9C2144.33 823.367 2146.5 822.9 2149.3 822.5C2152.1 822.033 2155 821.8 2158 821.8ZM2199.3 846.2C2199.3 850.4 2200.07 853.833 2201.6 856.5C2203.2 859.167 2205.73 860.5 2209.2 860.5C2210.2 860.5 2211.13 860.467 2212 860.4C2212.87 860.333 2213.77 860.233 2214.7 860.1V834.5C2213.77 833.967 2212.7 833.533 2211.5 833.2C2210.3 832.8 2209.03 832.6 2207.7 832.6C2204.77 832.6 2202.63 833.767 2201.3 836.1C2199.97 838.433 2199.3 841.8 2199.3 846.2ZM2227 868.6C2224.73 869.333 2221.97 869.933 2218.7 870.4C2215.43 870.867 2212.23 871.1 2209.1 871.1C2201.77 871.1 2196.2 868.933 2192.4 864.6C2188.67 860.267 2186.8 854.333 2186.8 846.8C2186.8 839.133 2188.37 833.1 2191.5 828.7C2194.7 824.233 2199.4 822 2205.6 822C2207.27 822 2208.9 822.2 2210.5 822.6C2212.1 822.933 2213.5 823.433 2214.7 824.1V802.7L2227 800.6V868.6Z" fill="#525252"/>
<path d="M1108 372L1137 422L1079 422L1108 372Z" fill="#FF0000"/>
</svg>
