<svg width="2966" height="1036" viewBox="0 0 2966 1036" fill="none" xmlns="http://www.w3.org/2000/svg">
<rect x="214" y="587" width="200" height="200" rx="20" fill="#FF9466"/>
<path d="M544 687.301L469 730.603L469 644L544 687.301Z" fill="#FF9466"/>
<path d="M414 677.301H469V697.301H414V677.301Z" fill="#FF9466"/>
<path d="M306.6 755.6C303.533 755.6 300.267 755.333 296.8 754.8C293.467 754.4 290.2 753.867 287 753.2C283.933 752.533 281.067 751.8 278.4 751C275.733 750.2 273.667 749.467 272.2 748.8L277 728.2C280.067 729.533 284 730.933 288.8 732.4C293.733 733.867 299.6 734.6 306.4 734.6C314.8 734.6 320.667 732.8 324 729.2C327.467 725.6 329.2 721.133 329.2 715.8C329.2 709.267 326.6 704.733 321.4 702.2C316.2 699.533 309.6 698.2 301.6 698.2H294V677.8H303.2C305.733 677.8 308.267 677.533 310.8 677C313.333 676.467 315.6 675.6 317.6 674.4C319.6 673.2 321.2 671.6 322.4 669.6C323.733 667.6 324.4 665.067 324.4 662C324.4 657.467 323 653.933 320.2 651.4C317.533 648.733 313.8 647.4 309 647.4C304.333 647.4 299.667 648.2 295 649.8C290.467 651.267 286.533 653.133 283.2 655.4L274.4 637.4C278 635 282.733 632.6 288.6 630.2C294.6 627.667 301.333 626.4 308.8 626.4C315.733 626.4 321.733 627.267 326.8 629C332 630.733 336.267 633.2 339.6 636.4C342.933 639.467 345.4 643.133 347 647.4C348.6 651.667 349.4 656.267 349.4 661.2C349.4 666.133 348 670.867 345.2 675.4C342.4 679.933 338.667 683.4 334 685.8C340.4 688.467 345.333 692.4 348.8 697.6C352.4 702.8 354.2 709 354.2 716.2C354.2 721.933 353.267 727.2 351.4 732C349.533 736.8 346.667 741 342.8 744.6C338.933 748.067 334 750.8 328 752.8C322 754.667 314.867 755.6 306.6 755.6Z" fill="white"/>
<circle cx="654" cy="687" r="75" fill="#525252"/>
<path d="M615.3 707C613.62 702.88 611.78 698.78 609.78 694.7C607.82 690.58 605.7 686.46 603.42 682.34V707H596.76V669.86H602.7C603.82 671.62 604.94 673.54 606.06 675.62C607.18 677.66 608.26 679.7 609.3 681.74C610.38 683.78 611.36 685.76 612.24 687.68C613.16 689.6 613.94 691.28 614.58 692.72V669.86H621.24V707H615.3ZM638.88 707.78C636.48 707.78 634.46 707.46 632.82 706.82C631.22 706.14 629.94 705.18 628.98 703.94C628.02 702.7 627.34 701.2 626.94 699.44C626.54 697.68 626.34 695.72 626.34 693.56V669.86H633.78V693.08C633.78 694.64 633.86 695.96 634.02 697.04C634.18 698.08 634.44 698.92 634.8 699.56C635.2 700.2 635.74 700.66 636.42 700.94C637.1 701.22 637.96 701.36 639 701.36C640.04 701.36 640.9 701.22 641.58 700.94C642.26 700.66 642.8 700.2 643.2 699.56C643.6 698.88 643.88 698.02 644.04 696.98C644.2 695.9 644.28 694.58 644.28 693.02V669.86H651.66V693.56C651.66 695.72 651.46 697.68 651.06 699.44C650.66 701.2 649.96 702.7 648.96 703.94C647.96 705.18 646.64 706.14 645 706.82C643.36 707.46 641.32 707.78 638.88 707.78ZM681.6 707H658.26V669.86H665.7V700.88H681.6V707ZM711.6 707H688.26V669.86H695.7V700.88H711.6V707Z" fill="white"/>
<rect x="414" y="241" width="200" height="200" rx="20" fill="#FFB171"/>
<path d="M744 341.301L669 384.603L669 298L744 341.301Z" fill="#FFB171"/>
<path d="M614 331.301H669V351.301H614V331.301Z" fill="#FFB171"/>
<path d="M528.2 370.6C528.2 367.133 527.6 364 526.4 361.2C525.333 358.267 523.067 355.8 519.6 353.8C516.267 351.667 511.467 350.067 505.2 349C498.933 347.8 490.733 347.2 480.6 347.2C481.933 336 483 325.067 483.8 314.4C484.6 303.6 485.2 293.2 485.6 283.2H548.8V303.6H506.2C505.933 307.867 505.6 312.333 505.2 317C504.8 321.667 504.467 325.467 504.2 328.4C520.733 329.467 533.067 333.467 541.2 340.4C549.333 347.333 553.4 357.067 553.4 369.6C553.4 375.333 552.4 380.667 550.4 385.6C548.4 390.4 545.333 394.6 541.2 398.2C537.067 401.8 531.933 404.6 525.8 406.6C519.667 408.6 512.533 409.6 504.4 409.6C501.2 409.6 497.933 409.4 494.6 409C491.267 408.6 488.067 408.067 485 407.4C481.933 406.867 479.133 406.2 476.6 405.4C474.2 404.6 472.333 403.867 471 403.2L476 382.8C478.933 384.267 482.667 385.6 487.2 386.8C491.733 388 497.4 388.6 504.2 388.6C509 388.6 512.933 388.067 516 387C519.2 385.933 521.667 384.6 523.4 383C525.267 381.267 526.533 379.333 527.2 377.2C527.867 375.067 528.2 372.867 528.2 370.6Z" fill="white"/>
<path d="M83 687.1C83 690.033 82.1 692.267 80.3 693.8C78.5 695.333 76.4333 696.1 74.1 696.1C72.9 696.1 71.7667 695.9 70.7 695.5C69.6333 695.1 68.6667 694.533 67.8 693.8C67 693 66.3333 692.067 65.8 691C65.3333 689.867 65.1 688.567 65.1 687.1C65.1 685.7 65.3333 684.467 65.8 683.4C66.3333 682.267 67 681.333 67.8 680.6C68.6667 679.867 69.6333 679.3 70.7 678.9C71.7667 678.5 72.9 678.3 74.1 678.3C76.4333 678.3 78.5 679.067 80.3 680.6C82.1 682.133 83 684.3 83 687.1ZM133 687.1C133 690.033 132.1 692.267 130.3 693.8C128.5 695.333 126.433 696.1 124.1 696.1C122.9 696.1 121.767 695.9 120.7 695.5C119.633 695.1 118.667 694.533 117.8 693.8C117 693 116.333 692.067 115.8 691C115.333 689.867 115.1 688.567 115.1 687.1C115.1 685.7 115.333 684.467 115.8 683.4C116.333 682.267 117 681.333 117.8 680.6C118.667 679.867 119.633 679.3 120.7 678.9C121.767 678.5 122.9 678.3 124.1 678.3C126.433 678.3 128.5 679.067 130.3 680.6C132.1 682.133 133 684.3 133 687.1ZM183 687.1C183 690.033 182.1 692.267 180.3 693.8C178.5 695.333 176.433 696.1 174.1 696.1C172.9 696.1 171.767 695.9 170.7 695.5C169.633 695.1 168.667 694.533 167.8 693.8C167 693 166.333 692.067 165.8 691C165.333 689.867 165.1 688.567 165.1 687.1C165.1 685.7 165.333 684.467 165.8 683.4C166.333 682.267 167 681.333 167.8 680.6C168.667 679.867 169.633 679.3 170.7 678.9C171.767 678.5 172.9 678.3 174.1 678.3C176.433 678.3 178.5 679.067 180.3 680.6C182.1 682.133 183 684.3 183 687.1Z" fill="#FF8266"/>
<rect x="2032" y="587" width="200" height="200" rx="20" fill="#FF9466"/>
<path d="M2124.6 755.6C2121.53 755.6 2118.27 755.333 2114.8 754.8C2111.47 754.4 2108.2 753.867 2105 753.2C2101.93 752.533 2099.07 751.8 2096.4 751C2093.73 750.2 2091.67 749.467 2090.2 748.8L2095 728.2C2098.07 729.533 2102 730.933 2106.8 732.4C2111.73 733.867 2117.6 734.6 2124.4 734.6C2132.8 734.6 2138.67 732.8 2142 729.2C2145.47 725.6 2147.2 721.133 2147.2 715.8C2147.2 709.267 2144.6 704.733 2139.4 702.2C2134.2 699.533 2127.6 698.2 2119.6 698.2H2112V677.8H2121.2C2123.73 677.8 2126.27 677.533 2128.8 677C2131.33 676.467 2133.6 675.6 2135.6 674.4C2137.6 673.2 2139.2 671.6 2140.4 669.6C2141.73 667.6 2142.4 665.067 2142.4 662C2142.4 657.467 2141 653.933 2138.2 651.4C2135.53 648.733 2131.8 647.4 2127 647.4C2122.33 647.4 2117.67 648.2 2113 649.8C2108.47 651.267 2104.53 653.133 2101.2 655.4L2092.4 637.4C2096 635 2100.73 632.6 2106.6 630.2C2112.6 627.667 2119.33 626.4 2126.8 626.4C2133.73 626.4 2139.73 627.267 2144.8 629C2150 630.733 2154.27 633.2 2157.6 636.4C2160.93 639.467 2163.4 643.133 2165 647.4C2166.6 651.667 2167.4 656.267 2167.4 661.2C2167.4 666.133 2166 670.867 2163.2 675.4C2160.4 679.933 2156.67 683.4 2152 685.8C2158.4 688.467 2163.33 692.4 2166.8 697.6C2170.4 702.8 2172.2 709 2172.2 716.2C2172.2 721.933 2171.27 727.2 2169.4 732C2167.53 736.8 2164.67 741 2160.8 744.6C2156.93 748.067 2152 750.8 2146 752.8C2140 754.667 2132.87 755.6 2124.6 755.6Z" fill="white"/>
<circle cx="2827" cy="687" r="75" fill="#525252"/>
<path d="M2788.3 707C2786.62 702.88 2784.78 698.78 2782.78 694.7C2780.82 690.58 2778.7 686.46 2776.42 682.34V707H2769.76V669.86H2775.7C2776.82 671.62 2777.94 673.54 2779.06 675.62C2780.18 677.66 2781.26 679.7 2782.3 681.74C2783.38 683.78 2784.36 685.76 2785.24 687.68C2786.16 689.6 2786.94 691.28 2787.58 692.72V669.86H2794.24V707H2788.3ZM2811.88 707.78C2809.48 707.78 2807.46 707.46 2805.82 706.82C2804.22 706.14 2802.94 705.18 2801.98 703.94C2801.02 702.7 2800.34 701.2 2799.94 699.44C2799.54 697.68 2799.34 695.72 2799.34 693.56V669.86H2806.78V693.08C2806.78 694.64 2806.86 695.96 2807.02 697.04C2807.18 698.08 2807.44 698.92 2807.8 699.56C2808.2 700.2 2808.74 700.66 2809.42 700.94C2810.1 701.22 2810.96 701.36 2812 701.36C2813.04 701.36 2813.9 701.22 2814.58 700.94C2815.26 700.66 2815.8 700.2 2816.2 699.56C2816.6 698.88 2816.88 698.02 2817.04 696.98C2817.2 695.9 2817.28 694.58 2817.28 693.02V669.86H2824.66V693.56C2824.66 695.72 2824.46 697.68 2824.06 699.44C2823.66 701.2 2822.96 702.7 2821.96 703.94C2820.96 705.18 2819.64 706.14 2818 706.82C2816.36 707.46 2814.32 707.78 2811.88 707.78ZM2854.6 707H2831.26V669.86H2838.7V700.88H2854.6V707ZM2884.6 707H2861.26V669.86H2868.7V700.88H2884.6V707Z" fill="white"/>
<rect x="2392" y="587" width="200" height="200" rx="20" fill="#FFB171"/>
<path d="M2506.2 716.6C2506.2 713.133 2505.6 710 2504.4 707.2C2503.33 704.267 2501.07 701.8 2497.6 699.8C2494.27 697.667 2489.47 696.067 2483.2 695C2476.93 693.8 2468.73 693.2 2458.6 693.2C2459.93 682 2461 671.067 2461.8 660.4C2462.6 649.6 2463.2 639.2 2463.6 629.2H2526.8V649.6H2484.2C2483.93 653.867 2483.6 658.333 2483.2 663C2482.8 667.667 2482.47 671.467 2482.2 674.4C2498.73 675.467 2511.07 679.467 2519.2 686.4C2527.33 693.333 2531.4 703.067 2531.4 715.6C2531.4 721.333 2530.4 726.667 2528.4 731.6C2526.4 736.4 2523.33 740.6 2519.2 744.2C2515.07 747.8 2509.93 750.6 2503.8 752.6C2497.67 754.6 2490.53 755.6 2482.4 755.6C2479.2 755.6 2475.93 755.4 2472.6 755C2469.27 754.6 2466.07 754.067 2463 753.4C2459.93 752.867 2457.13 752.2 2454.6 751.4C2452.2 750.6 2450.33 749.867 2449 749.2L2454 728.8C2456.93 730.267 2460.67 731.6 2465.2 732.8C2469.73 734 2475.4 734.6 2482.2 734.6C2487 734.6 2490.93 734.067 2494 733C2497.2 731.933 2499.67 730.6 2501.4 729C2503.27 727.267 2504.53 725.333 2505.2 723.2C2505.87 721.067 2506.2 718.867 2506.2 716.6Z" fill="white"/>
<path d="M1901 687.1C1901 690.033 1900.1 692.267 1898.3 693.8C1896.5 695.333 1894.43 696.1 1892.1 696.1C1890.9 696.1 1889.77 695.9 1888.7 695.5C1887.63 695.1 1886.67 694.533 1885.8 693.8C1885 693 1884.33 692.067 1883.8 691C1883.33 689.867 1883.1 688.567 1883.1 687.1C1883.1 685.7 1883.33 684.467 1883.8 683.4C1884.33 682.267 1885 681.333 1885.8 680.6C1886.67 679.867 1887.63 679.3 1888.7 678.9C1889.77 678.5 1890.9 678.3 1892.1 678.3C1894.43 678.3 1896.5 679.067 1898.3 680.6C1900.1 682.133 1901 684.3 1901 687.1ZM1951 687.1C1951 690.033 1950.1 692.267 1948.3 693.8C1946.5 695.333 1944.43 696.1 1942.1 696.1C1940.9 696.1 1939.77 695.9 1938.7 695.5C1937.63 695.1 1936.67 694.533 1935.8 693.8C1935 693 1934.33 692.067 1933.8 691C1933.33 689.867 1933.1 688.567 1933.1 687.1C1933.1 685.7 1933.33 684.467 1933.8 683.4C1934.33 682.267 1935 681.333 1935.8 680.6C1936.67 679.867 1937.63 679.3 1938.7 678.9C1939.77 678.5 1940.9 678.3 1942.1 678.3C1944.43 678.3 1946.5 679.067 1948.3 680.6C1950.1 682.133 1951 684.3 1951 687.1ZM2001 687.1C2001 690.033 2000.1 692.267 1998.3 693.8C1996.5 695.333 1994.43 696.1 1992.1 696.1C1990.9 696.1 1989.77 695.9 1988.7 695.5C1987.63 695.1 1986.67 694.533 1985.8 693.8C1985 693 1984.33 692.067 1983.8 691C1983.33 689.867 1983.1 688.567 1983.1 687.1C1983.1 685.7 1983.33 684.467 1983.8 683.4C1984.33 682.267 1985 681.333 1985.8 680.6C1986.67 679.867 1987.63 679.3 1988.7 678.9C1989.77 678.5 1990.9 678.3 1992.1 678.3C1994.43 678.3 1996.5 679.067 1998.3 680.6C2000.1 682.133 2001 684.3 2001 687.1Z" fill="#FF8266"/>
<path d="M514 598L485 548L543 548L514 598Z" fill="#525252"/>
<path d="M474.9 531L472 516.7H455.5L452.7 531H439.9C442.833 518.8 445.8 507.7 448.8 497.7C451.8 487.633 454.7 478.1 457.5 469.1H470.9C473.833 478.167 476.733 487.8 479.6 498C482.533 508.133 485.367 519.133 488.1 531H474.9ZM463.9 481.1C463.233 483.433 462.6 485.667 462 487.8C461.467 489.867 460.933 491.933 460.4 494C459.933 496 459.467 498.033 459 500.1C458.6 502.167 458.2 504.3 457.8 506.5H469.9C469.5 504.3 469.1 502.167 468.7 500.1C468.3 498.033 467.833 496 467.3 494C466.833 491.933 466.3 489.867 465.7 487.8C465.167 485.667 464.567 483.433 463.9 481.1ZM504.3 507.2C504.3 511.4 505.067 514.833 506.6 517.5C508.2 520.167 510.733 521.5 514.2 521.5C515.2 521.5 516.133 521.467 517 521.4C517.867 521.333 518.767 521.233 519.7 521.1V495.5C518.767 494.967 517.7 494.533 516.5 494.2C515.3 493.8 514.033 493.6 512.7 493.6C509.767 493.6 507.633 494.767 506.3 497.1C504.967 499.433 504.3 502.8 504.3 507.2ZM532 529.6C529.733 530.333 526.967 530.933 523.7 531.4C520.433 531.867 517.233 532.1 514.1 532.1C506.767 532.1 501.2 529.933 497.4 525.6C493.667 521.267 491.8 515.333 491.8 507.8C491.8 500.133 493.367 494.1 496.5 489.7C499.7 485.233 504.4 483 510.6 483C512.267 483 513.9 483.2 515.5 483.6C517.1 483.933 518.5 484.433 519.7 485.1V463.7L532 461.6V529.6ZM554.3 507.2C554.3 511.4 555.067 514.833 556.6 517.5C558.2 520.167 560.733 521.5 564.2 521.5C565.2 521.5 566.133 521.467 567 521.4C567.867 521.333 568.767 521.233 569.7 521.1V495.5C568.767 494.967 567.7 494.533 566.5 494.2C565.3 493.8 564.033 493.6 562.7 493.6C559.767 493.6 557.633 494.767 556.3 497.1C554.967 499.433 554.3 502.8 554.3 507.2ZM582 529.6C579.733 530.333 576.967 530.933 573.7 531.4C570.433 531.867 567.233 532.1 564.1 532.1C556.767 532.1 551.2 529.933 547.4 525.6C543.667 521.267 541.8 515.333 541.8 507.8C541.8 500.133 543.367 494.1 546.5 489.7C549.7 485.233 554.4 483 560.6 483C562.267 483 563.9 483.2 565.5 483.6C567.1 483.933 568.5 484.433 569.7 485.1V463.7L582 461.6V529.6Z" fill="#525252"/>
<path d="M2232 677.301H2287V644L2362 687.301L2287 730.603L2287 697.301H2232V677.301Z" fill="#FF0000"/>
<path d="M2592 677.301H2647V644L2722 687.301L2647 730.603L2647 697.301H2592V677.301Z" fill="#FF0000"/>
<path d="M1319.84 589.234L1347.34 541.602L1318.5 524.952L1393.5 481.651L1393.5 568.253L1364.66 551.602L1337.16 599.234L1319.84 589.234Z" fill="#FF0000"/>
<path d="M1533.49 432.619L1547.72 485.745L1579.89 477.126L1557.47 560.778L1496.24 499.54L1528.4 490.921L1514.17 437.795L1533.49 432.619Z" fill="#FF0000"/>
<rect x="1141" y="587" width="200" height="200" rx="20" fill="#FF9466"/>
<path d="M1233.6 755.6C1230.53 755.6 1227.27 755.333 1223.8 754.8C1220.47 754.4 1217.2 753.867 1214 753.2C1210.93 752.533 1208.07 751.8 1205.4 751C1202.73 750.2 1200.67 749.467 1199.2 748.8L1204 728.2C1207.07 729.533 1211 730.933 1215.8 732.4C1220.73 733.867 1226.6 734.6 1233.4 734.6C1241.8 734.6 1247.67 732.8 1251 729.2C1254.47 725.6 1256.2 721.133 1256.2 715.8C1256.2 709.267 1253.6 704.733 1248.4 702.2C1243.2 699.533 1236.6 698.2 1228.6 698.2H1221V677.8H1230.2C1232.73 677.8 1235.27 677.533 1237.8 677C1240.33 676.467 1242.6 675.6 1244.6 674.4C1246.6 673.2 1248.2 671.6 1249.4 669.6C1250.73 667.6 1251.4 665.067 1251.4 662C1251.4 657.467 1250 653.933 1247.2 651.4C1244.53 648.733 1240.8 647.4 1236 647.4C1231.33 647.4 1226.67 648.2 1222 649.8C1217.47 651.267 1213.53 653.133 1210.2 655.4L1201.4 637.4C1205 635 1209.73 632.6 1215.6 630.2C1221.6 627.667 1228.33 626.4 1235.8 626.4C1242.73 626.4 1248.73 627.267 1253.8 629C1259 630.733 1263.27 633.2 1266.6 636.4C1269.93 639.467 1272.4 643.133 1274 647.4C1275.6 651.667 1276.4 656.267 1276.4 661.2C1276.4 666.133 1275 670.867 1272.2 675.4C1269.4 679.933 1265.67 683.4 1261 685.8C1267.4 688.467 1272.33 692.4 1275.8 697.6C1279.4 702.8 1281.2 709 1281.2 716.2C1281.2 721.933 1280.27 727.2 1278.4 732C1276.53 736.8 1273.67 741 1269.8 744.6C1265.93 748.067 1261 750.8 1255 752.8C1249 754.667 1241.87 755.6 1233.6 755.6Z" fill="white"/>
<circle cx="1581" cy="687" r="75" fill="#525252"/>
<path d="M1542.3 707C1540.62 702.88 1538.78 698.78 1536.78 694.7C1534.82 690.58 1532.7 686.46 1530.42 682.34V707H1523.76V669.86H1529.7C1530.82 671.62 1531.94 673.54 1533.06 675.62C1534.18 677.66 1535.26 679.7 1536.3 681.74C1537.38 683.78 1538.36 685.76 1539.24 687.68C1540.16 689.6 1540.94 691.28 1541.58 692.72V669.86H1548.24V707H1542.3ZM1565.88 707.78C1563.48 707.78 1561.46 707.46 1559.82 706.82C1558.22 706.14 1556.94 705.18 1555.98 703.94C1555.02 702.7 1554.34 701.2 1553.94 699.44C1553.54 697.68 1553.34 695.72 1553.34 693.56V669.86H1560.78V693.08C1560.78 694.64 1560.86 695.96 1561.02 697.04C1561.18 698.08 1561.44 698.92 1561.8 699.56C1562.2 700.2 1562.74 700.66 1563.42 700.94C1564.1 701.22 1564.96 701.36 1566 701.36C1567.04 701.36 1567.9 701.22 1568.58 700.94C1569.26 700.66 1569.8 700.2 1570.2 699.56C1570.6 698.88 1570.88 698.02 1571.04 696.98C1571.2 695.9 1571.28 694.58 1571.28 693.02V669.86H1578.66V693.56C1578.66 695.72 1578.46 697.68 1578.06 699.44C1577.66 701.2 1576.96 702.7 1575.96 703.94C1574.96 705.18 1573.64 706.14 1572 706.82C1570.36 707.46 1568.32 707.78 1565.88 707.78ZM1608.6 707H1585.26V669.86H1592.7V700.88H1608.6V707ZM1638.6 707H1615.26V669.86H1622.7V700.88H1638.6V707Z" fill="white"/>
<rect x="1341" y="241" width="200" height="200" rx="20" fill="#FFB171"/>
<path d="M1455.2 370.6C1455.2 367.133 1454.6 364 1453.4 361.2C1452.33 358.267 1450.07 355.8 1446.6 353.8C1443.27 351.667 1438.47 350.067 1432.2 349C1425.93 347.8 1417.73 347.2 1407.6 347.2C1408.93 336 1410 325.067 1410.8 314.4C1411.6 303.6 1412.2 293.2 1412.6 283.2H1475.8V303.6H1433.2C1432.93 307.867 1432.6 312.333 1432.2 317C1431.8 321.667 1431.47 325.467 1431.2 328.4C1447.73 329.467 1460.07 333.467 1468.2 340.4C1476.33 347.333 1480.4 357.067 1480.4 369.6C1480.4 375.333 1479.4 380.667 1477.4 385.6C1475.4 390.4 1472.33 394.6 1468.2 398.2C1464.07 401.8 1458.93 404.6 1452.8 406.6C1446.67 408.6 1439.53 409.6 1431.4 409.6C1428.2 409.6 1424.93 409.4 1421.6 409C1418.27 408.6 1415.07 408.067 1412 407.4C1408.93 406.867 1406.13 406.2 1403.6 405.4C1401.2 404.6 1399.33 403.867 1398 403.2L1403 382.8C1405.93 384.267 1409.67 385.6 1414.2 386.8C1418.73 388 1424.4 388.6 1431.2 388.6C1436 388.6 1439.93 388.067 1443 387C1446.2 385.933 1448.67 384.6 1450.4 383C1452.27 381.267 1453.53 379.333 1454.2 377.2C1454.87 375.067 1455.2 372.867 1455.2 370.6Z" fill="white"/>
<path d="M1010 687.1C1010 690.033 1009.1 692.267 1007.3 693.8C1005.5 695.333 1003.43 696.1 1001.1 696.1C999.9 696.1 998.767 695.9 997.7 695.5C996.633 695.1 995.667 694.533 994.8 693.8C994 693 993.333 692.067 992.8 691C992.333 689.867 992.1 688.567 992.1 687.1C992.1 685.7 992.333 684.467 992.8 683.4C993.333 682.267 994 681.333 994.8 680.6C995.667 679.867 996.633 679.3 997.7 678.9C998.767 678.5 999.9 678.3 1001.1 678.3C1003.43 678.3 1005.5 679.067 1007.3 680.6C1009.1 682.133 1010 684.3 1010 687.1ZM1060 687.1C1060 690.033 1059.1 692.267 1057.3 693.8C1055.5 695.333 1053.43 696.1 1051.1 696.1C1049.9 696.1 1048.77 695.9 1047.7 695.5C1046.63 695.1 1045.67 694.533 1044.8 693.8C1044 693 1043.33 692.067 1042.8 691C1042.33 689.867 1042.1 688.567 1042.1 687.1C1042.1 685.7 1042.33 684.467 1042.8 683.4C1043.33 682.267 1044 681.333 1044.8 680.6C1045.67 679.867 1046.63 679.3 1047.7 678.9C1048.77 678.5 1049.9 678.3 1051.1 678.3C1053.43 678.3 1055.5 679.067 1057.3 680.6C1059.1 682.133 1060 684.3 1060 687.1ZM1110 687.1C1110 690.033 1109.1 692.267 1107.3 693.8C1105.5 695.333 1103.43 696.1 1101.1 696.1C1099.9 696.1 1098.77 695.9 1097.7 695.5C1096.63 695.1 1095.67 694.533 1094.8 693.8C1094 693 1093.33 692.067 1092.8 691C1092.33 689.867 1092.1 688.567 1092.1 687.1C1092.1 685.7 1092.33 684.467 1092.8 683.4C1093.33 682.267 1094 681.333 1094.8 680.6C1095.67 679.867 1096.63 679.3 1097.7 678.9C1098.77 678.5 1099.9 678.3 1101.1 678.3C1103.43 678.3 1105.5 679.067 1107.3 680.6C1109.1 682.133 1110 684.3 1110 687.1Z" fill="#FF8266"/>
<path d="M314 833L343 883L285 883L314 833Z" fill="#525252"/>
<path d="M261.5 904.1V914.3H245.2V966H232.8V914.3H216.5V904.1H261.5ZM289.1 957.2C290.433 957.2 291.733 957.2 293 957.2C294.267 957.133 295.367 957.033 296.3 956.9V946.1C295.5 945.967 294.533 945.867 293.4 945.8C292.267 945.667 291.233 945.6 290.3 945.6C289.033 945.6 287.8 945.7 286.6 945.9C285.4 946.033 284.333 946.3 283.4 946.7C282.533 947.1 281.833 947.667 281.3 948.4C280.767 949.133 280.5 950.1 280.5 951.3C280.5 953.433 281.3 954.967 282.9 955.9C284.5 956.767 286.567 957.2 289.1 957.2ZM288 917.8C291.867 917.8 295.067 918.267 297.6 919.2C300.2 920.067 302.267 921.333 303.8 923C305.333 924.6 306.433 926.6 307.1 929C307.767 931.333 308.1 933.967 308.1 936.9V964.9C306.3 965.3 303.633 965.767 300.1 966.3C296.567 966.833 292.6 967.1 288.2 967.1C285.2 967.1 282.467 966.833 280 966.3C277.6 965.767 275.533 964.9 273.8 963.7C272.067 962.433 270.733 960.833 269.8 958.9C268.867 956.9 268.4 954.467 268.4 951.6C268.4 948.867 268.933 946.567 270 944.7C271.067 942.833 272.5 941.333 274.3 940.2C276.1 939.067 278.167 938.267 280.5 937.8C282.833 937.267 285.267 937 287.8 937C291 937 293.833 937.267 296.3 937.8V936.3C296.3 933.967 295.567 932.033 294.1 930.5C292.633 928.9 290.1 928.1 286.5 928.1C284.167 928.1 281.9 928.267 279.7 928.6C277.567 928.933 275.833 929.333 274.5 929.8L272.8 919.9C274.333 919.367 276.5 918.9 279.3 918.5C282.1 918.033 285 917.8 288 917.8ZM342.4 905.5C342.4 907.9 341.633 909.8 340.1 911.2C338.567 912.6 336.733 913.3 334.6 913.3C332.467 913.3 330.633 912.6 329.1 911.2C327.633 909.8 326.9 907.9 326.9 905.5C326.9 903.033 327.633 901.1 329.1 899.7C330.633 898.3 332.467 897.6 334.6 897.6C336.733 897.6 338.567 898.3 340.1 899.7C341.633 901.1 342.4 903.033 342.4 905.5ZM360.7 964C358.167 965.2 355.767 966 353.5 966.4C351.3 966.867 349.267 967.1 347.4 967.1C344.2 967.1 341.5 966.633 339.3 965.7C337.167 964.767 335.433 963.433 334.1 961.7C332.833 959.9 331.933 957.733 331.4 955.2C330.867 952.667 330.6 949.767 330.6 946.5V929.2H317.6V919H342.9V948.1C342.9 950.9 343.4 953 344.4 954.4C345.467 955.733 347.2 956.4 349.6 956.4C350.733 956.4 352.1 956.267 353.7 956C355.3 955.667 357.1 955.033 359.1 954.1L360.7 964ZM410.7 964C410.5 964.133 410.033 964.367 409.3 964.7C408.633 965.033 407.733 965.4 406.6 965.8C405.467 966.133 404.067 966.433 402.4 966.7C400.8 966.967 398.967 967.1 396.9 967.1C391.233 967.1 387.1 965.433 384.5 962.1C381.9 958.7 380.6 953.767 380.6 947.3V907.4H367.6V897.2H392.9V948.2C392.9 951.4 393.533 953.567 394.8 954.7C396.067 955.833 397.667 956.4 399.6 956.4C402.067 956.4 404.133 956.067 405.8 955.4C407.467 954.733 408.567 954.3 409.1 954.1L410.7 964Z" fill="#525252"/>
<path d="M2492 833L2521 883L2463 883L2492 833Z" fill="#FF0000"/>
<path d="M2439.5 904.1V914.3H2423.2V966H2410.8V914.3H2394.5V904.1H2439.5ZM2467.1 957.2C2468.43 957.2 2469.73 957.2 2471 957.2C2472.27 957.133 2473.37 957.033 2474.3 956.9V946.1C2473.5 945.967 2472.53 945.867 2471.4 945.8C2470.27 945.667 2469.23 945.6 2468.3 945.6C2467.03 945.6 2465.8 945.7 2464.6 945.9C2463.4 946.033 2462.33 946.3 2461.4 946.7C2460.53 947.1 2459.83 947.667 2459.3 948.4C2458.77 949.133 2458.5 950.1 2458.5 951.3C2458.5 953.433 2459.3 954.967 2460.9 955.9C2462.5 956.767 2464.57 957.2 2467.1 957.2ZM2466 917.8C2469.87 917.8 2473.07 918.267 2475.6 919.2C2478.2 920.067 2480.27 921.333 2481.8 923C2483.33 924.6 2484.43 926.6 2485.1 929C2485.77 931.333 2486.1 933.967 2486.1 936.9V964.9C2484.3 965.3 2481.63 965.767 2478.1 966.3C2474.57 966.833 2470.6 967.1 2466.2 967.1C2463.2 967.1 2460.47 966.833 2458 966.3C2455.6 965.767 2453.53 964.9 2451.8 963.7C2450.07 962.433 2448.73 960.833 2447.8 958.9C2446.87 956.9 2446.4 954.467 2446.4 951.6C2446.4 948.867 2446.93 946.567 2448 944.7C2449.07 942.833 2450.5 941.333 2452.3 940.2C2454.1 939.067 2456.17 938.267 2458.5 937.8C2460.83 937.267 2463.27 937 2465.8 937C2469 937 2471.83 937.267 2474.3 937.8V936.3C2474.3 933.967 2473.57 932.033 2472.1 930.5C2470.63 928.9 2468.1 928.1 2464.5 928.1C2462.17 928.1 2459.9 928.267 2457.7 928.6C2455.57 928.933 2453.83 929.333 2452.5 929.8L2450.8 919.9C2452.33 919.367 2454.5 918.9 2457.3 918.5C2460.1 918.033 2463 917.8 2466 917.8ZM2520.4 905.5C2520.4 907.9 2519.63 909.8 2518.1 911.2C2516.57 912.6 2514.73 913.3 2512.6 913.3C2510.47 913.3 2508.63 912.6 2507.1 911.2C2505.63 909.8 2504.9 907.9 2504.9 905.5C2504.9 903.033 2505.63 901.1 2507.1 899.7C2508.63 898.3 2510.47 897.6 2512.6 897.6C2514.73 897.6 2516.57 898.3 2518.1 899.7C2519.63 901.1 2520.4 903.033 2520.4 905.5ZM2538.7 964C2536.17 965.2 2533.77 966 2531.5 966.4C2529.3 966.867 2527.27 967.1 2525.4 967.1C2522.2 967.1 2519.5 966.633 2517.3 965.7C2515.17 964.767 2513.43 963.433 2512.1 961.7C2510.83 959.9 2509.93 957.733 2509.4 955.2C2508.87 952.667 2508.6 949.767 2508.6 946.5V929.2H2495.6V919H2520.9V948.1C2520.9 950.9 2521.4 953 2522.4 954.4C2523.47 955.733 2525.2 956.4 2527.6 956.4C2528.73 956.4 2530.1 956.267 2531.7 956C2533.3 955.667 2535.1 955.033 2537.1 954.1L2538.7 964ZM2588.7 964C2588.5 964.133 2588.03 964.367 2587.3 964.7C2586.63 965.033 2585.73 965.4 2584.6 965.8C2583.47 966.133 2582.07 966.433 2580.4 966.7C2578.8 966.967 2576.97 967.1 2574.9 967.1C2569.23 967.1 2565.1 965.433 2562.5 962.1C2559.9 958.7 2558.6 953.767 2558.6 947.3V907.4H2545.6V897.2H2570.9V948.2C2570.9 951.4 2571.53 953.567 2572.8 954.7C2574.07 955.833 2575.67 956.4 2577.6 956.4C2580.07 956.4 2582.13 956.067 2583.8 955.4C2585.47 954.733 2586.57 954.3 2587.1 954.1L2588.7 964Z" fill="#525252"/>
<path d="M1417.21 164L1441 205.021L1464.79 164L1447.7 164L1434.3 164L1417.21 164Z" fill="#FF0000" stroke="#FF0000" stroke-width="6"/>
<path d="M1388.5 82.1V92.3H1372.2V144H1359.8V92.3H1343.5V82.1H1388.5ZM1416.1 135.2C1417.43 135.2 1418.73 135.2 1420 135.2C1421.27 135.133 1422.37 135.033 1423.3 134.9V124.1C1422.5 123.967 1421.53 123.867 1420.4 123.8C1419.27 123.667 1418.23 123.6 1417.3 123.6C1416.03 123.6 1414.8 123.7 1413.6 123.9C1412.4 124.033 1411.33 124.3 1410.4 124.7C1409.53 125.1 1408.83 125.667 1408.3 126.4C1407.77 127.133 1407.5 128.1 1407.5 129.3C1407.5 131.433 1408.3 132.967 1409.9 133.9C1411.5 134.767 1413.57 135.2 1416.1 135.2ZM1415 95.8C1418.87 95.8 1422.07 96.2667 1424.6 97.2C1427.2 98.0667 1429.27 99.3333 1430.8 101C1432.33 102.6 1433.43 104.6 1434.1 107C1434.77 109.333 1435.1 111.967 1435.1 114.9V142.9C1433.3 143.3 1430.63 143.767 1427.1 144.3C1423.57 144.833 1419.6 145.1 1415.2 145.1C1412.2 145.1 1409.47 144.833 1407 144.3C1404.6 143.767 1402.53 142.9 1400.8 141.7C1399.07 140.433 1397.73 138.833 1396.8 136.9C1395.87 134.9 1395.4 132.467 1395.4 129.6C1395.4 126.867 1395.93 124.567 1397 122.7C1398.07 120.833 1399.5 119.333 1401.3 118.2C1403.1 117.067 1405.17 116.267 1407.5 115.8C1409.83 115.267 1412.27 115 1414.8 115C1418 115 1420.83 115.267 1423.3 115.8V114.3C1423.3 111.967 1422.57 110.033 1421.1 108.5C1419.63 106.9 1417.1 106.1 1413.5 106.1C1411.17 106.1 1408.9 106.267 1406.7 106.6C1404.57 106.933 1402.83 107.333 1401.5 107.8L1399.8 97.9C1401.33 97.3667 1403.5 96.9 1406.3 96.5C1409.1 96.0333 1412 95.8 1415 95.8ZM1469.4 83.5C1469.4 85.9 1468.63 87.8 1467.1 89.2C1465.57 90.6 1463.73 91.3 1461.6 91.3C1459.47 91.3 1457.63 90.6 1456.1 89.2C1454.63 87.8 1453.9 85.9 1453.9 83.5C1453.9 81.0333 1454.63 79.1 1456.1 77.7C1457.63 76.3 1459.47 75.6 1461.6 75.6C1463.73 75.6 1465.57 76.3 1467.1 77.7C1468.63 79.1 1469.4 81.0333 1469.4 83.5ZM1487.7 142C1485.17 143.2 1482.77 144 1480.5 144.4C1478.3 144.867 1476.27 145.1 1474.4 145.1C1471.2 145.1 1468.5 144.633 1466.3 143.7C1464.17 142.767 1462.43 141.433 1461.1 139.7C1459.83 137.9 1458.93 135.733 1458.4 133.2C1457.87 130.667 1457.6 127.767 1457.6 124.5V107.2H1444.6V97H1469.9V126.1C1469.9 128.9 1470.4 131 1471.4 132.4C1472.47 133.733 1474.2 134.4 1476.6 134.4C1477.73 134.4 1479.1 134.267 1480.7 134C1482.3 133.667 1484.1 133.033 1486.1 132.1L1487.7 142ZM1537.7 142C1537.5 142.133 1537.03 142.367 1536.3 142.7C1535.63 143.033 1534.73 143.4 1533.6 143.8C1532.47 144.133 1531.07 144.433 1529.4 144.7C1527.8 144.967 1525.97 145.1 1523.9 145.1C1518.23 145.1 1514.1 143.433 1511.5 140.1C1508.9 136.7 1507.6 131.767 1507.6 125.3V85.4H1494.6V75.2H1519.9V126.2C1519.9 129.4 1520.53 131.567 1521.8 132.7C1523.07 133.833 1524.67 134.4 1526.6 134.4C1529.07 134.4 1531.13 134.067 1532.8 133.4C1534.47 132.733 1535.57 132.3 1536.1 132.1L1537.7 142Z" fill="#525252"/>
</svg>
