<svg width="2061" height="495" viewBox="0 0 2061 495" fill="none" xmlns="http://www.w3.org/2000/svg">
<rect x="784" y="77" width="200" height="200" rx="20" fill="#FF8266"/>
<rect x="1144" y="77" width="200" height="200" rx="20" fill="#FF9466"/>
<rect x="424" y="77" width="200" height="200" rx="20" fill="#FF6F66"/>
<rect x="64" y="77" width="200" height="200" rx="20" fill="#FF6666"/>
<rect x="1504" y="77" width="200" height="200" rx="20" fill="#FFB171"/>
<path d="M394 177.301L319 220.603L319 134L394 177.301Z" fill="#FF6666"/>
<path d="M264 167.301H319V187.301H264V167.301Z" fill="#FF6666"/>
<path d="M164 299L193 349L135 349L164 299Z" fill="#525252"/>
<path d="M754 177.301L679 220.603L679 134L754 177.301Z" fill="#FF6F66"/>
<path d="M624 167.301H679V187.301H624V167.301Z" fill="#FF6F66"/>
<path d="M1114 177.301L1039 220.603L1039 134L1114 177.301Z" fill="#FF8266"/>
<path d="M984 167.301H1039V187.301H984V167.301Z" fill="#FF8266"/>
<path d="M1474 177.301L1399 220.603L1399 134L1474 177.301Z" fill="#FF9466"/>
<path d="M1344 167.301H1399V187.301H1344V167.301Z" fill="#FF9466"/>
<path d="M1834 177.301L1759 220.603L1759 134L1834 177.301Z" fill="#FFB171"/>
<path d="M1704 167.301H1759V187.301H1704V167.301Z" fill="#FFB171"/>
<circle cx="1939" cy="177" r="75" fill="#525252"/>
<path d="M1900.3 197C1898.62 192.88 1896.78 188.78 1894.78 184.7C1892.82 180.58 1890.7 176.46 1888.42 172.34V197H1881.76V159.86H1887.7C1888.82 161.62 1889.94 163.54 1891.06 165.62C1892.18 167.66 1893.26 169.7 1894.3 171.74C1895.38 173.78 1896.36 175.76 1897.24 177.68C1898.16 179.6 1898.94 181.28 1899.58 182.72V159.86H1906.24V197H1900.3ZM1923.88 197.78C1921.48 197.78 1919.46 197.46 1917.82 196.82C1916.22 196.14 1914.94 195.18 1913.98 193.94C1913.02 192.7 1912.34 191.2 1911.94 189.44C1911.54 187.68 1911.34 185.72 1911.34 183.56V159.86H1918.78V183.08C1918.78 184.64 1918.86 185.96 1919.02 187.04C1919.18 188.08 1919.44 188.92 1919.8 189.56C1920.2 190.2 1920.74 190.66 1921.42 190.94C1922.1 191.22 1922.96 191.36 1924 191.36C1925.04 191.36 1925.9 191.22 1926.58 190.94C1927.26 190.66 1927.8 190.2 1928.2 189.56C1928.6 188.88 1928.88 188.02 1929.04 186.98C1929.2 185.9 1929.28 184.58 1929.28 183.02V159.86H1936.66V183.56C1936.66 185.72 1936.46 187.68 1936.06 189.44C1935.66 191.2 1934.96 192.7 1933.96 193.94C1932.96 195.18 1931.64 196.14 1930 196.82C1928.36 197.46 1926.32 197.78 1923.88 197.78ZM1966.6 197H1943.26V159.86H1950.7V190.88H1966.6V197ZM1996.6 197H1973.26V159.86H1980.7V190.88H1996.6V197Z" fill="white"/>
<path d="M166.2 177.2C168.733 177.2 171.4 176.933 174.2 176.4C177 175.867 179.267 175.133 181 174.2C181.133 173.133 181.2 171.867 181.2 170.4C181.333 168.8 181.4 167.267 181.4 165.8C181.4 162.467 181.067 159.133 180.4 155.8C179.867 152.333 178.867 149.2 177.4 146.4C176.067 143.6 174.2 141.333 171.8 139.6C169.533 137.867 166.667 137 163.2 137C160.267 137 157.733 137.6 155.6 138.8C153.6 139.867 151.933 141.333 150.6 143.2C149.4 145.067 148.467 147.267 147.8 149.8C147.267 152.333 147 155 147 157.8C147 164.067 148.467 168.867 151.4 172.2C154.333 175.533 159.267 177.2 166.2 177.2ZM163 197.6C155.8 197.6 149.667 196.6 144.6 194.6C139.533 192.467 135.4 189.6 132.2 186C129 182.4 126.667 178.267 125.2 173.6C123.733 168.8 123 163.667 123 158.2C123 153.4 123.8 148.533 125.4 143.6C127.133 138.533 129.6 134 132.8 130C136.133 125.867 140.267 122.533 145.2 120C150.133 117.333 155.933 116 162.6 116C176.467 116 187.067 120.667 194.4 130C201.733 139.333 205.4 152.333 205.4 169C205.4 181 203.667 191.667 200.2 201C196.733 210.2 191.733 217.933 185.2 224.2C178.8 230.467 171 235.267 161.8 238.6C152.733 241.8 142.6 243.4 131.4 243.4L130.6 222.2C141.267 222.067 150.8 219.8 159.2 215.4C167.6 210.867 173.533 203.8 177 194.2C171.8 196.467 167.133 197.6 163 197.6Z" fill="white"/>
<path d="M500.4 243C500.8 234.467 502.2 225.467 504.6 216C507 206.4 509.867 196.933 513.2 187.6C516.667 178.267 520.4 169.467 524.4 161.2C528.4 152.8 532.2 145.6 535.8 139.6H483.8V119.2H564.6V137.8C561 141.933 557.067 147.733 552.8 155.2C548.533 162.667 544.467 171.133 540.6 180.6C536.867 190.067 533.533 200.2 530.6 211C527.8 221.667 526.067 232.333 525.4 243H500.4Z" fill="white"/>
<path d="M923.2 148.6C923.2 154.333 921.8 160 919 165.6C916.2 171.067 911.8 175.667 905.8 179.4C913.4 183.8 918.733 188.6 921.8 193.8C925 199 926.6 204.733 926.6 211C926.6 215 925.8 219.067 924.2 223.2C922.733 227.333 920.267 231.067 916.8 234.4C913.467 237.6 909.067 240.267 903.6 242.4C898.133 244.533 891.4 245.6 883.4 245.6C877.133 245.6 871.4 244.8 866.2 243.2C861.133 241.733 856.733 239.6 853 236.8C849.4 233.867 846.6 230.333 844.6 226.2C842.6 221.933 841.6 217.2 841.6 212C841.6 205.733 843.067 199.867 846 194.4C848.933 188.8 853.533 183.867 859.8 179.6C853.933 175.6 849.933 171.333 847.8 166.8C845.667 162.267 844.6 157.467 844.6 152.4C844.6 148.4 845.267 144.267 846.6 140C848.067 135.6 850.333 131.667 853.4 128.2C856.467 124.733 860.533 121.867 865.6 119.6C870.667 117.333 876.933 116.2 884.4 116.2C896.267 116.2 905.667 119.133 912.6 125C919.667 130.867 923.2 138.733 923.2 148.6ZM903.4 210.6C903.4 207.933 902.867 205.6 901.8 203.6C900.867 201.6 899.267 199.8 897 198.2C894.867 196.467 892.067 194.8 888.6 193.2C885.133 191.467 881 189.667 876.2 187.8C872.467 190.867 869.6 194.333 867.6 198.2C865.6 201.933 864.6 205.533 864.6 209C864.6 214.333 866.467 218.4 870.2 221.2C874.067 223.867 878.6 225.2 883.8 225.2C889.8 225.2 894.533 223.8 898 221C901.6 218.067 903.4 214.6 903.4 210.6ZM884 136.6C879.733 136.6 875.933 137.8 872.6 140.2C869.4 142.6 867.8 146.133 867.8 150.8C867.8 155.467 869.333 159.267 872.4 162.2C875.467 165.133 880.867 168.2 888.6 171.4C892.733 168.333 895.667 165 897.4 161.4C899.133 157.667 900 154.067 900 150.6C900 145.933 898.4 142.467 895.2 140.2C892.133 137.8 888.4 136.6 884 136.6Z" fill="white"/>
<path d="M1236.6 245.6C1233.53 245.6 1230.27 245.333 1226.8 244.8C1223.47 244.4 1220.2 243.867 1217 243.2C1213.93 242.533 1211.07 241.8 1208.4 241C1205.73 240.2 1203.67 239.467 1202.2 238.8L1207 218.2C1210.07 219.533 1214 220.933 1218.8 222.4C1223.73 223.867 1229.6 224.6 1236.4 224.6C1244.8 224.6 1250.67 222.8 1254 219.2C1257.47 215.6 1259.2 211.133 1259.2 205.8C1259.2 199.267 1256.6 194.733 1251.4 192.2C1246.2 189.533 1239.6 188.2 1231.6 188.2H1224V167.8H1233.2C1235.73 167.8 1238.27 167.533 1240.8 167C1243.33 166.467 1245.6 165.6 1247.6 164.4C1249.6 163.2 1251.2 161.6 1252.4 159.6C1253.73 157.6 1254.4 155.067 1254.4 152C1254.4 147.467 1253 143.933 1250.2 141.4C1247.53 138.733 1243.8 137.4 1239 137.4C1234.33 137.4 1229.67 138.2 1225 139.8C1220.47 141.267 1216.53 143.133 1213.2 145.4L1204.4 127.4C1208 125 1212.73 122.6 1218.6 120.2C1224.6 117.667 1231.33 116.4 1238.8 116.4C1245.73 116.4 1251.73 117.267 1256.8 119C1262 120.733 1266.27 123.2 1269.6 126.4C1272.93 129.467 1275.4 133.133 1277 137.4C1278.6 141.667 1279.4 146.267 1279.4 151.2C1279.4 156.133 1278 160.867 1275.2 165.4C1272.4 169.933 1268.67 173.4 1264 175.8C1270.4 178.467 1275.33 182.4 1278.8 187.6C1282.4 192.8 1284.2 199 1284.2 206.2C1284.2 211.933 1283.27 217.2 1281.4 222C1279.53 226.8 1276.67 231 1272.8 234.6C1268.93 238.067 1264 240.8 1258 242.8C1252 244.667 1244.87 245.6 1236.6 245.6Z" fill="white"/>
<path d="M1618.2 206.6C1618.2 203.133 1617.6 200 1616.4 197.2C1615.33 194.267 1613.07 191.8 1609.6 189.8C1606.27 187.667 1601.47 186.067 1595.2 185C1588.93 183.8 1580.73 183.2 1570.6 183.2C1571.93 172 1573 161.067 1573.8 150.4C1574.6 139.6 1575.2 129.2 1575.6 119.2H1638.8V139.6H1596.2C1595.93 143.867 1595.6 148.333 1595.2 153C1594.8 157.667 1594.47 161.467 1594.2 164.4C1610.73 165.467 1623.07 169.467 1631.2 176.4C1639.33 183.333 1643.4 193.067 1643.4 205.6C1643.4 211.333 1642.4 216.667 1640.4 221.6C1638.4 226.4 1635.33 230.6 1631.2 234.2C1627.07 237.8 1621.93 240.6 1615.8 242.6C1609.67 244.6 1602.53 245.6 1594.4 245.6C1591.2 245.6 1587.93 245.4 1584.6 245C1581.27 244.6 1578.07 244.067 1575 243.4C1571.93 242.867 1569.13 242.2 1566.6 241.4C1564.2 240.6 1562.33 239.867 1561 239.2L1566 218.8C1568.93 220.267 1572.67 221.6 1577.2 222.8C1581.73 224 1587.4 224.6 1594.2 224.6C1599 224.6 1602.93 224.067 1606 223C1609.2 221.933 1611.67 220.6 1613.4 219C1615.27 217.267 1616.53 215.333 1617.2 213.2C1617.87 211.067 1618.2 208.867 1618.2 206.6Z" fill="white"/>
<path d="M109.5 370.1V432H97.2V404.7H80.8V432H68.5V370.1H80.8V394.5H97.2V370.1H109.5ZM117.1 408.9C117.1 404.767 117.733 401.133 119 398C120.267 394.867 121.933 392.267 124 390.2C126.067 388.067 128.433 386.467 131.1 385.4C133.767 384.333 136.5 383.8 139.3 383.8C146.233 383.8 151.5 385.867 155.1 390C158.7 394.067 160.5 400.033 160.5 407.9C160.5 408.7 160.467 409.533 160.4 410.4C160.4 411.267 160.367 411.967 160.3 412.5H129.8C129.8 415.567 131.067 418 133.6 419.8C136.133 421.533 139.4 422.4 143.4 422.4C145.867 422.4 148.2 422.133 150.4 421.6C152.667 421.067 154.567 420.533 156.1 420L157.8 430.5C155.667 431.233 153.4 431.833 151 432.3C148.6 432.833 145.9 433.1 142.9 433.1C138.9 433.1 135.3 432.6 132.1 431.6C128.967 430.533 126.267 429 124 427C121.8 424.933 120.1 422.4 118.9 419.4C117.7 416.4 117.1 412.9 117.1 408.9ZM148.6 404C148.6 402.733 148.433 401.533 148.1 400.4C147.767 399.2 147.233 398.133 146.5 397.2C145.767 396.267 144.833 395.533 143.7 395C142.567 394.4 141.167 394.1 139.5 394.1C137.9 394.1 136.5 394.367 135.3 394.9C134.167 395.433 133.2 396.167 132.4 397.1C131.667 398.033 131.067 399.1 130.6 400.3C130.2 401.5 129.933 402.733 129.8 404H148.6ZM189.1 423.2C190.433 423.2 191.733 423.2 193 423.2C194.267 423.133 195.367 423.033 196.3 422.9V412.1C195.5 411.967 194.533 411.867 193.4 411.8C192.267 411.667 191.233 411.6 190.3 411.6C189.033 411.6 187.8 411.7 186.6 411.9C185.4 412.033 184.333 412.3 183.4 412.7C182.533 413.1 181.833 413.667 181.3 414.4C180.767 415.133 180.5 416.1 180.5 417.3C180.5 419.433 181.3 420.967 182.9 421.9C184.5 422.767 186.567 423.2 189.1 423.2ZM188 383.8C191.867 383.8 195.067 384.267 197.6 385.2C200.2 386.067 202.267 387.333 203.8 389C205.333 390.6 206.433 392.6 207.1 395C207.767 397.333 208.1 399.967 208.1 402.9V430.9C206.3 431.3 203.633 431.767 200.1 432.3C196.567 432.833 192.6 433.1 188.2 433.1C185.2 433.1 182.467 432.833 180 432.3C177.6 431.767 175.533 430.9 173.8 429.7C172.067 428.433 170.733 426.833 169.8 424.9C168.867 422.9 168.4 420.467 168.4 417.6C168.4 414.867 168.933 412.567 170 410.7C171.067 408.833 172.5 407.333 174.3 406.2C176.1 405.067 178.167 404.267 180.5 403.8C182.833 403.267 185.267 403 187.8 403C191 403 193.833 403.267 196.3 403.8V402.3C196.3 399.967 195.567 398.033 194.1 396.5C192.633 394.9 190.1 394.1 186.5 394.1C184.167 394.1 181.9 394.267 179.7 394.6C177.567 394.933 175.833 395.333 174.5 395.8L172.8 385.9C174.333 385.367 176.5 384.9 179.3 384.5C182.1 384.033 185 383.8 188 383.8ZM229.3 408.2C229.3 412.4 230.067 415.833 231.6 418.5C233.2 421.167 235.733 422.5 239.2 422.5C240.2 422.5 241.133 422.467 242 422.4C242.867 422.333 243.767 422.233 244.7 422.1V396.5C243.767 395.967 242.7 395.533 241.5 395.2C240.3 394.8 239.033 394.6 237.7 394.6C234.767 394.6 232.633 395.767 231.3 398.1C229.967 400.433 229.3 403.8 229.3 408.2ZM257 430.6C254.733 431.333 251.967 431.933 248.7 432.4C245.433 432.867 242.233 433.1 239.1 433.1C231.767 433.1 226.2 430.933 222.4 426.6C218.667 422.267 216.8 416.333 216.8 408.8C216.8 401.133 218.367 395.1 221.5 390.7C224.7 386.233 229.4 384 235.6 384C237.267 384 238.9 384.2 240.5 384.6C242.1 384.933 243.5 385.433 244.7 386.1V364.7L257 362.6V430.6Z" fill="#525252"/>
<path d="M1604 299L1633 349L1575 349L1604 299Z" fill="#525252"/>
<path d="M1551.5 370.1V380.3H1535.2V432H1522.8V380.3H1506.5V370.1H1551.5ZM1579.1 423.2C1580.43 423.2 1581.73 423.2 1583 423.2C1584.27 423.133 1585.37 423.033 1586.3 422.9V412.1C1585.5 411.967 1584.53 411.867 1583.4 411.8C1582.27 411.667 1581.23 411.6 1580.3 411.6C1579.03 411.6 1577.8 411.7 1576.6 411.9C1575.4 412.033 1574.33 412.3 1573.4 412.7C1572.53 413.1 1571.83 413.667 1571.3 414.4C1570.77 415.133 1570.5 416.1 1570.5 417.3C1570.5 419.433 1571.3 420.967 1572.9 421.9C1574.5 422.767 1576.57 423.2 1579.1 423.2ZM1578 383.8C1581.87 383.8 1585.07 384.267 1587.6 385.2C1590.2 386.067 1592.27 387.333 1593.8 389C1595.33 390.6 1596.43 392.6 1597.1 395C1597.77 397.333 1598.1 399.967 1598.1 402.9V430.9C1596.3 431.3 1593.63 431.767 1590.1 432.3C1586.57 432.833 1582.6 433.1 1578.2 433.1C1575.2 433.1 1572.47 432.833 1570 432.3C1567.6 431.767 1565.53 430.9 1563.8 429.7C1562.07 428.433 1560.73 426.833 1559.8 424.9C1558.87 422.9 1558.4 420.467 1558.4 417.6C1558.4 414.867 1558.93 412.567 1560 410.7C1561.07 408.833 1562.5 407.333 1564.3 406.2C1566.1 405.067 1568.17 404.267 1570.5 403.8C1572.83 403.267 1575.27 403 1577.8 403C1581 403 1583.83 403.267 1586.3 403.8V402.3C1586.3 399.967 1585.57 398.033 1584.1 396.5C1582.63 394.9 1580.1 394.1 1576.5 394.1C1574.17 394.1 1571.9 394.267 1569.7 394.6C1567.57 394.933 1565.83 395.333 1564.5 395.8L1562.8 385.9C1564.33 385.367 1566.5 384.9 1569.3 384.5C1572.1 384.033 1575 383.8 1578 383.8ZM1632.4 371.5C1632.4 373.9 1631.63 375.8 1630.1 377.2C1628.57 378.6 1626.73 379.3 1624.6 379.3C1622.47 379.3 1620.63 378.6 1619.1 377.2C1617.63 375.8 1616.9 373.9 1616.9 371.5C1616.9 369.033 1617.63 367.1 1619.1 365.7C1620.63 364.3 1622.47 363.6 1624.6 363.6C1626.73 363.6 1628.57 364.3 1630.1 365.7C1631.63 367.1 1632.4 369.033 1632.4 371.5ZM1650.7 430C1648.17 431.2 1645.77 432 1643.5 432.4C1641.3 432.867 1639.27 433.1 1637.4 433.1C1634.2 433.1 1631.5 432.633 1629.3 431.7C1627.17 430.767 1625.43 429.433 1624.1 427.7C1622.83 425.9 1621.93 423.733 1621.4 421.2C1620.87 418.667 1620.6 415.767 1620.6 412.5V395.2H1607.6V385H1632.9V414.1C1632.9 416.9 1633.4 419 1634.4 420.4C1635.47 421.733 1637.2 422.4 1639.6 422.4C1640.73 422.4 1642.1 422.267 1643.7 422C1645.3 421.667 1647.1 421.033 1649.1 420.1L1650.7 430ZM1700.7 430C1700.5 430.133 1700.03 430.367 1699.3 430.7C1698.63 431.033 1697.73 431.4 1696.6 431.8C1695.47 432.133 1694.07 432.433 1692.4 432.7C1690.8 432.967 1688.97 433.1 1686.9 433.1C1681.23 433.1 1677.1 431.433 1674.5 428.1C1671.9 424.7 1670.6 419.767 1670.6 413.3V373.4H1657.6V363.2H1682.9V414.2C1682.9 417.4 1683.53 419.567 1684.8 420.7C1686.07 421.833 1687.67 422.4 1689.6 422.4C1692.07 422.4 1694.13 422.067 1695.8 421.4C1697.47 420.733 1698.57 420.3 1699.1 420.1L1700.7 430Z" fill="#525252"/>
</svg>
