<svg width="2211" height="2211" viewBox="0 0 2211 2211" fill="none" xmlns="http://www.w3.org/2000/svg">
<path d="M927.713 650.912C994.888 631.113 1120.05 603.536 1224.34 669.651L1407.84 486.156C1498 396 1624.92 362.412 1738.41 475.903C1836.35 573.837 1823.26 702.884 1730.99 795.162L1314.5 1211.65C1168.48 1357.67 943.27 1245.59 921.703 1055.02L746.694 1230.03C910.036 1555.3 1257.23 1584.29 1472.19 1369.33L1888.67 952.847C2020.19 821.325 2132.62 554.038 1896.45 317.865C1660.28 81.6911 1399.35 179.272 1250.15 328.471L927.713 650.912Z" fill="black"/>
<path d="M1282.79 1559.44C1215.61 1579.24 1090.45 1606.81 986.155 1540.7L802.661 1724.19C712.505 1814.35 585.579 1847.94 472.088 1734.45C374.154 1636.51 387.236 1507.47 479.513 1415.19L895.999 998.703C1042.02 852.686 1267.23 964.762 1288.8 1155.33L1463.81 980.318C1300.46 655.049 953.275 626.058 738.314 841.018L321.828 1257.5C190.306 1389.03 77.8765 1656.31 314.05 1892.49C550.224 2128.66 811.146 2031.08 960.346 1881.88L1282.79 1559.44Z" fill="black"/>
</svg>
