<svg width="128" height="128" viewBox="0 0 128 128" fill="none" xmlns="http://www.w3.org/2000/svg">
<rect width="128" height="128" rx="10" fill="#0077B5"/>
<path d="M29.8172 19.0774C23.8395 19.0774 19.001 23.9246 19 29.8888C19 35.8588 23.8385 40.7051 29.8182 40.7051C35.7814 40.7051 40.6267 35.8588 40.6267 29.8888C40.6267 23.9236 35.7805 19.0774 29.8172 19.0774Z" fill="white"/>
<path d="M39.1404 48.9091H20.4875V108.923H39.1404V48.9091Z" fill="white"/>
<path d="M86.6256 47.4169C77.5521 47.4169 71.468 52.3917 68.9776 57.1093H68.7281V48.9091H50.8384H50.8374V108.922H69.4738V79.2331C69.4738 71.4062 70.9641 63.825 80.6682 63.825C90.233 63.825 90.3606 72.7766 90.3606 79.7351V108.921H109V76.0039C109 59.8463 105.513 47.4169 86.6256 47.4169Z" fill="white"/>
</svg>
