<svg width="3174" height="3863" viewBox="0 0 3174 3863" fill="none" xmlns="http://www.w3.org/2000/svg">
<rect x="989" y="101" width="200" height="200" rx="20" fill="#FF6F66"/>
<path d="M1128.2 172.6C1128.2 178.333 1126.8 184 1124 189.6C1121.2 195.067 1116.8 199.667 1110.8 203.4C1118.4 207.8 1123.73 212.6 1126.8 217.8C1130 223 1131.6 228.733 1131.6 235C1131.6 239 1130.8 243.067 1129.2 247.2C1127.73 251.333 1125.27 255.067 1121.8 258.4C1118.47 261.6 1114.07 264.267 1108.6 266.4C1103.13 268.533 1096.4 269.6 1088.4 269.6C1082.13 269.6 1076.4 268.8 1071.2 267.2C1066.13 265.733 1061.73 263.6 1058 260.8C1054.4 257.867 1051.6 254.333 1049.6 250.2C1047.6 245.933 1046.6 241.2 1046.6 236C1046.6 229.733 1048.07 223.867 1051 218.4C1053.93 212.8 1058.53 207.867 1064.8 203.6C1058.93 199.6 1054.93 195.333 1052.8 190.8C1050.67 186.267 1049.6 181.467 1049.6 176.4C1049.6 172.4 1050.27 168.267 1051.6 164C1053.07 159.6 1055.33 155.667 1058.4 152.2C1061.47 148.733 1065.53 145.867 1070.6 143.6C1075.67 141.333 1081.93 140.2 1089.4 140.2C1101.27 140.2 1110.67 143.133 1117.6 149C1124.67 154.867 1128.2 162.733 1128.2 172.6ZM1108.4 234.6C1108.4 231.933 1107.87 229.6 1106.8 227.6C1105.87 225.6 1104.27 223.8 1102 222.2C1099.87 220.467 1097.07 218.8 1093.6 217.2C1090.13 215.467 1086 213.667 1081.2 211.8C1077.47 214.867 1074.6 218.333 1072.6 222.2C1070.6 225.933 1069.6 229.533 1069.6 233C1069.6 238.333 1071.47 242.4 1075.2 245.2C1079.07 247.867 1083.6 249.2 1088.8 249.2C1094.8 249.2 1099.53 247.8 1103 245C1106.6 242.067 1108.4 238.6 1108.4 234.6ZM1089 160.6C1084.73 160.6 1080.93 161.8 1077.6 164.2C1074.4 166.6 1072.8 170.133 1072.8 174.8C1072.8 179.467 1074.33 183.267 1077.4 186.2C1080.47 189.133 1085.87 192.2 1093.6 195.4C1097.73 192.333 1100.67 189 1102.4 185.4C1104.13 181.667 1105 178.067 1105 174.6C1105 169.933 1103.4 166.467 1100.2 164.2C1097.13 161.8 1093.4 160.6 1089 160.6Z" fill="white"/>
<rect x="516" y="411" width="200" height="200" rx="20" fill="#FF8266"/>
<path d="M623 484C620.6 487.067 618.133 490.333 615.6 493.8C613.067 497.267 610.533 500.933 608 504.8C605.6 508.533 603.267 512.333 601 516.2C598.733 520.067 596.733 523.867 595 527.6H623V484ZM647.6 453.2V527.6H661V547.8H647.6V577H623V547.8H571.4V529.8C573.933 524.6 577.2 518.733 581.2 512.2C585.2 505.533 589.6 498.733 594.4 491.8C599.2 484.867 604.267 478.067 609.6 471.4C614.933 464.6 620.267 458.533 625.6 453.2H647.6Z" fill="white"/>
<rect x="280" y="765" width="200" height="200" rx="20" fill="#FF9D66"/>
<path d="M372.6 933.6C369.533 933.6 366.267 933.333 362.8 932.8C359.467 932.4 356.2 931.867 353 931.2C349.933 930.533 347.067 929.8 344.4 929C341.733 928.2 339.667 927.467 338.2 926.8L343 906.2C346.067 907.533 350 908.933 354.8 910.4C359.733 911.867 365.6 912.6 372.4 912.6C380.8 912.6 386.667 910.8 390 907.2C393.467 903.6 395.2 899.133 395.2 893.8C395.2 887.267 392.6 882.733 387.4 880.2C382.2 877.533 375.6 876.2 367.6 876.2H360V855.8H369.2C371.733 855.8 374.267 855.533 376.8 855C379.333 854.467 381.6 853.6 383.6 852.4C385.6 851.2 387.2 849.6 388.4 847.6C389.733 845.6 390.4 843.067 390.4 840C390.4 835.467 389 831.933 386.2 829.4C383.533 826.733 379.8 825.4 375 825.4C370.333 825.4 365.667 826.2 361 827.8C356.467 829.267 352.533 831.133 349.2 833.4L340.4 815.4C344 813 348.733 810.6 354.6 808.2C360.6 805.667 367.333 804.4 374.8 804.4C381.733 804.4 387.733 805.267 392.8 807C398 808.733 402.267 811.2 405.6 814.4C408.933 817.467 411.4 821.133 413 825.4C414.6 829.667 415.4 834.267 415.4 839.2C415.4 844.133 414 848.867 411.2 853.4C408.4 857.933 404.667 861.4 400 863.8C406.4 866.467 411.333 870.4 414.8 875.6C418.4 880.8 420.2 887 420.2 894.2C420.2 899.933 419.267 905.2 417.4 910C415.533 914.8 412.667 919 408.8 922.6C404.933 926.067 400 928.8 394 930.8C388 932.667 380.867 933.6 372.6 933.6Z" fill="white"/>
<rect x="753" y="765" width="200" height="200" rx="20" fill="#FF9D66"/>
<path d="M845.6 933.6C842.533 933.6 839.267 933.333 835.8 932.8C832.467 932.4 829.2 931.867 826 931.2C822.933 930.533 820.067 929.8 817.4 929C814.733 928.2 812.667 927.467 811.2 926.8L816 906.2C819.067 907.533 823 908.933 827.8 910.4C832.733 911.867 838.6 912.6 845.4 912.6C853.8 912.6 859.667 910.8 863 907.2C866.467 903.6 868.2 899.133 868.2 893.8C868.2 887.267 865.6 882.733 860.4 880.2C855.2 877.533 848.6 876.2 840.6 876.2H833V855.8H842.2C844.733 855.8 847.267 855.533 849.8 855C852.333 854.467 854.6 853.6 856.6 852.4C858.6 851.2 860.2 849.6 861.4 847.6C862.733 845.6 863.4 843.067 863.4 840C863.4 835.467 862 831.933 859.2 829.4C856.533 826.733 852.8 825.4 848 825.4C843.333 825.4 838.667 826.2 834 827.8C829.467 829.267 825.533 831.133 822.2 833.4L813.4 815.4C817 813 821.733 810.6 827.6 808.2C833.6 805.667 840.333 804.4 847.8 804.4C854.733 804.4 860.733 805.267 865.8 807C871 808.733 875.267 811.2 878.6 814.4C881.933 817.467 884.4 821.133 886 825.4C887.6 829.667 888.4 834.267 888.4 839.2C888.4 844.133 887 848.867 884.2 853.4C881.4 857.933 877.667 861.4 873 863.8C879.4 866.467 884.333 870.4 887.8 875.6C891.4 880.8 893.2 887 893.2 894.2C893.2 899.933 892.267 905.2 890.4 910C888.533 914.8 885.667 919 881.8 922.6C877.933 926.067 873 928.8 867 930.8C861 932.667 853.867 933.6 845.6 933.6Z" fill="white"/>
<rect x="1462" y="411" width="200" height="200" rx="20" fill="#FF8266"/>
<path d="M1560.2 518.2C1557.67 518.2 1555.07 518.467 1552.4 519C1549.73 519.533 1547.53 520.267 1545.8 521.2C1545.67 522.4 1545.53 523.6 1545.4 524.8C1545.4 526 1545.4 527.267 1545.4 528.6C1545.4 532.467 1545.67 536.2 1546.2 539.8C1546.73 543.267 1547.67 546.4 1549 549.2C1550.33 552 1552.13 554.267 1554.4 556C1556.8 557.6 1559.73 558.4 1563.2 558.4C1566 558.4 1568.4 557.733 1570.4 556.4C1572.4 555.067 1574 553.4 1575.2 551.4C1576.53 549.4 1577.47 547.2 1578 544.8C1578.67 542.4 1579 540.067 1579 537.8C1579 531.533 1577.6 526.733 1574.8 523.4C1572 519.933 1567.13 518.2 1560.2 518.2ZM1563.4 497.8C1570.6 497.8 1576.67 498.867 1581.6 501C1586.67 503.133 1590.8 506 1594 509.6C1597.2 513.2 1599.47 517.4 1600.8 522.2C1602.27 527 1603 532.067 1603 537.4C1603 542.2 1602.2 547.067 1600.6 552C1599.13 556.933 1596.8 561.467 1593.6 565.6C1590.4 569.733 1586.33 573.133 1581.4 575.8C1576.47 578.333 1570.6 579.6 1563.8 579.6C1549.93 579.6 1539.33 575.333 1532 566.8C1524.8 558.133 1521.2 544.667 1521.2 526.4C1521.2 514.4 1522.93 503.8 1526.4 494.6C1530 485.4 1535.07 477.667 1541.6 471.4C1548.13 465.133 1556 460.4 1565.2 457.2C1574.4 454 1584.6 452.4 1595.8 452.4L1597.2 473.4C1591.87 473.533 1586.67 474.067 1581.6 475C1576.53 475.933 1571.87 477.533 1567.6 479.8C1563.33 481.933 1559.6 484.733 1556.4 488.2C1553.33 491.667 1551.07 496 1549.6 501.2C1552.13 500.133 1554.6 499.333 1557 498.8C1559.4 498.133 1561.53 497.8 1563.4 497.8Z" fill="white"/>
<rect x="1226" y="765" width="200" height="200" rx="20" fill="#FF9D66"/>
<path d="M1362.8 839.8C1362.8 844.067 1362 848.2 1360.4 852.2C1358.8 856.067 1356.67 859.867 1354 863.6C1351.33 867.333 1348.33 870.933 1345 874.4C1341.67 877.867 1338.27 881.2 1334.8 884.4C1333.07 886 1331.07 887.933 1328.8 890.2C1326.53 892.333 1324.4 894.6 1322.4 897C1320.4 899.267 1318.67 901.6 1317.2 904C1315.87 906.4 1315.2 908.6 1315.2 910.6H1368.4V931H1287.6C1287.2 929.667 1287 928 1287 926C1287.13 924 1287.2 922.6 1287.2 921.8C1287.2 915.133 1288.4 909 1290.8 903.4C1293.33 897.8 1296.47 892.667 1300.2 888C1304.07 883.2 1308.13 878.8 1312.4 874.8C1316.8 870.667 1320.87 866.733 1324.6 863C1328.47 859.267 1331.6 855.667 1334 852.2C1336.53 848.733 1337.8 845.2 1337.8 841.6C1337.8 836.533 1336.27 832.667 1333.2 830C1330.13 827.2 1326.27 825.8 1321.6 825.8C1317.73 825.8 1313.67 826.733 1309.4 828.6C1305.13 830.467 1300.93 833.6 1296.8 838L1284.6 820.8C1289.93 815.2 1296.07 811.067 1303 808.4C1310.07 805.733 1317.07 804.4 1324 804.4C1329.07 804.4 1333.93 805.133 1338.6 806.6C1343.27 808.067 1347.4 810.267 1351 813.2C1354.6 816.133 1357.47 819.867 1359.6 824.4C1361.73 828.8 1362.8 833.933 1362.8 839.8Z" fill="white"/>
<rect x="2035" y="335" width="200" height="200" rx="20" fill="#F841C4"/>
<rect x="2770" y="1678" width="200" height="200" rx="20" fill="#F841C4"/>
<path d="M2872.2 1778.2C2874.73 1778.2 2877.4 1777.93 2880.2 1777.4C2883 1776.87 2885.27 1776.13 2887 1775.2C2887.13 1774.13 2887.2 1772.87 2887.2 1771.4C2887.33 1769.8 2887.4 1768.27 2887.4 1766.8C2887.4 1763.47 2887.07 1760.13 2886.4 1756.8C2885.87 1753.33 2884.87 1750.2 2883.4 1747.4C2882.07 1744.6 2880.2 1742.33 2877.8 1740.6C2875.53 1738.87 2872.67 1738 2869.2 1738C2866.27 1738 2863.73 1738.6 2861.6 1739.8C2859.6 1740.87 2857.93 1742.33 2856.6 1744.2C2855.4 1746.07 2854.47 1748.27 2853.8 1750.8C2853.27 1753.33 2853 1756 2853 1758.8C2853 1765.07 2854.47 1769.87 2857.4 1773.2C2860.33 1776.53 2865.27 1778.2 2872.2 1778.2ZM2869 1798.6C2861.8 1798.6 2855.67 1797.6 2850.6 1795.6C2845.53 1793.47 2841.4 1790.6 2838.2 1787C2835 1783.4 2832.67 1779.27 2831.2 1774.6C2829.73 1769.8 2829 1764.67 2829 1759.2C2829 1754.4 2829.8 1749.53 2831.4 1744.6C2833.13 1739.53 2835.6 1735 2838.8 1731C2842.13 1726.87 2846.27 1723.53 2851.2 1721C2856.13 1718.33 2861.93 1717 2868.6 1717C2882.47 1717 2893.07 1721.67 2900.4 1731C2907.73 1740.33 2911.4 1753.33 2911.4 1770C2911.4 1782 2909.67 1792.67 2906.2 1802C2902.73 1811.2 2897.73 1818.93 2891.2 1825.2C2884.8 1831.47 2877 1836.27 2867.8 1839.6C2858.73 1842.8 2848.6 1844.4 2837.4 1844.4L2836.6 1823.2C2847.27 1823.07 2856.8 1820.8 2865.2 1816.4C2873.6 1811.87 2879.53 1804.8 2883 1795.2C2877.8 1797.47 2873.13 1798.6 2869 1798.6Z" fill="white"/>
<path d="M2137.2 435.2C2139.73 435.2 2142.4 434.933 2145.2 434.4C2148 433.867 2150.27 433.133 2152 432.2C2152.13 431.133 2152.2 429.867 2152.2 428.4C2152.33 426.8 2152.4 425.267 2152.4 423.8C2152.4 420.467 2152.07 417.133 2151.4 413.8C2150.87 410.333 2149.87 407.2 2148.4 404.4C2147.07 401.6 2145.2 399.333 2142.8 397.6C2140.53 395.867 2137.67 395 2134.2 395C2131.27 395 2128.73 395.6 2126.6 396.8C2124.6 397.867 2122.93 399.333 2121.6 401.2C2120.4 403.067 2119.47 405.267 2118.8 407.8C2118.27 410.333 2118 413 2118 415.8C2118 422.067 2119.47 426.867 2122.4 430.2C2125.33 433.533 2130.27 435.2 2137.2 435.2ZM2134 455.6C2126.8 455.6 2120.67 454.6 2115.6 452.6C2110.53 450.467 2106.4 447.6 2103.2 444C2100 440.4 2097.67 436.267 2096.2 431.6C2094.73 426.8 2094 421.667 2094 416.2C2094 411.4 2094.8 406.533 2096.4 401.6C2098.13 396.533 2100.6 392 2103.8 388C2107.13 383.867 2111.27 380.533 2116.2 378C2121.13 375.333 2126.93 374 2133.6 374C2147.47 374 2158.07 378.667 2165.4 388C2172.73 397.333 2176.4 410.333 2176.4 427C2176.4 439 2174.67 449.667 2171.2 459C2167.73 468.2 2162.73 475.933 2156.2 482.2C2149.8 488.467 2142 493.267 2132.8 496.6C2123.73 499.8 2113.6 501.4 2102.4 501.4L2101.6 480.2C2112.27 480.067 2121.8 477.8 2130.2 473.4C2138.6 468.867 2144.53 461.8 2148 452.2C2142.8 454.467 2138.13 455.6 2134 455.6Z" fill="white"/>
<path d="M772.253 386.484L820.178 314.351L858.685 391.922L772.253 386.484Z" fill="#FF6F66"/>
<path d="M927.179 320.743L843.878 362.093L834.985 344.179L918.287 302.828L927.179 320.743Z" fill="#FF6F66"/>
<path d="M443.09 750.693L444.705 664.106L518.884 708.798L443.09 750.693Z" fill="#FF8266"/>
<path d="M527.778 629.507L490.36 691.613L473.229 681.291L510.647 619.186L527.778 629.507Z" fill="#FF8266"/>
<path d="M1387.09 750.693L1388.7 664.106L1462.88 708.798L1387.09 750.693Z" fill="#FF8266"/>
<path d="M1471.78 629.507L1434.36 691.613L1417.23 681.291L1454.65 619.186L1471.78 629.507Z" fill="#FF8266"/>
<path d="M792.213 750.693L790.598 664.106L716.418 708.798L792.213 750.693Z" fill="#FF8266"/>
<path d="M707.524 629.507L744.942 691.613L762.073 681.291L724.655 619.186L707.524 629.507Z" fill="#FF8266"/>
<path d="M1406.73 388.484L1358.81 316.351L1320.3 393.922L1406.73 388.484Z" fill="#FF6F66"/>
<path d="M1251.81 322.743L1335.11 364.093L1344 346.179L1260.7 304.828L1251.81 322.743Z" fill="#FF6F66"/>
<rect x="2059" y="1014" width="200" height="200" rx="20" fill="#FF6F66"/>
<path d="M2198.2 1085.6C2198.2 1091.33 2196.8 1097 2194 1102.6C2191.2 1108.07 2186.8 1112.67 2180.8 1116.4C2188.4 1120.8 2193.73 1125.6 2196.8 1130.8C2200 1136 2201.6 1141.73 2201.6 1148C2201.6 1152 2200.8 1156.07 2199.2 1160.2C2197.73 1164.33 2195.27 1168.07 2191.8 1171.4C2188.47 1174.6 2184.07 1177.27 2178.6 1179.4C2173.13 1181.53 2166.4 1182.6 2158.4 1182.6C2152.13 1182.6 2146.4 1181.8 2141.2 1180.2C2136.13 1178.73 2131.73 1176.6 2128 1173.8C2124.4 1170.87 2121.6 1167.33 2119.6 1163.2C2117.6 1158.93 2116.6 1154.2 2116.6 1149C2116.6 1142.73 2118.07 1136.87 2121 1131.4C2123.93 1125.8 2128.53 1120.87 2134.8 1116.6C2128.93 1112.6 2124.93 1108.33 2122.8 1103.8C2120.67 1099.27 2119.6 1094.47 2119.6 1089.4C2119.6 1085.4 2120.27 1081.27 2121.6 1077C2123.07 1072.6 2125.33 1068.67 2128.4 1065.2C2131.47 1061.73 2135.53 1058.87 2140.6 1056.6C2145.67 1054.33 2151.93 1053.2 2159.4 1053.2C2171.27 1053.2 2180.67 1056.13 2187.6 1062C2194.67 1067.87 2198.2 1075.73 2198.2 1085.6ZM2178.4 1147.6C2178.4 1144.93 2177.87 1142.6 2176.8 1140.6C2175.87 1138.6 2174.27 1136.8 2172 1135.2C2169.87 1133.47 2167.07 1131.8 2163.6 1130.2C2160.13 1128.47 2156 1126.67 2151.2 1124.8C2147.47 1127.87 2144.6 1131.33 2142.6 1135.2C2140.6 1138.93 2139.6 1142.53 2139.6 1146C2139.6 1151.33 2141.47 1155.4 2145.2 1158.2C2149.07 1160.87 2153.6 1162.2 2158.8 1162.2C2164.8 1162.2 2169.53 1160.8 2173 1158C2176.6 1155.07 2178.4 1151.6 2178.4 1147.6ZM2159 1073.6C2154.73 1073.6 2150.93 1074.8 2147.6 1077.2C2144.4 1079.6 2142.8 1083.13 2142.8 1087.8C2142.8 1092.47 2144.33 1096.27 2147.4 1099.2C2150.47 1102.13 2155.87 1105.2 2163.6 1108.4C2167.73 1105.33 2170.67 1102 2172.4 1098.4C2174.13 1094.67 2175 1091.07 2175 1087.6C2175 1082.93 2173.4 1079.47 2170.2 1077.2C2167.13 1074.8 2163.4 1073.6 2159 1073.6Z" fill="white"/>
<rect x="1586" y="1324" width="200" height="200" rx="20" fill="#FF8266"/>
<path d="M1693 1397C1690.6 1400.07 1688.13 1403.33 1685.6 1406.8C1683.07 1410.27 1680.53 1413.93 1678 1417.8C1675.6 1421.53 1673.27 1425.33 1671 1429.2C1668.73 1433.07 1666.73 1436.87 1665 1440.6H1693V1397ZM1717.6 1366.2V1440.6H1731V1460.8H1717.6V1490H1693V1460.8H1641.4V1442.8C1643.93 1437.6 1647.2 1431.73 1651.2 1425.2C1655.2 1418.53 1659.6 1411.73 1664.4 1404.8C1669.2 1397.87 1674.27 1391.07 1679.6 1384.4C1684.93 1377.6 1690.27 1371.53 1695.6 1366.2H1717.6Z" fill="white"/>
<rect x="1350" y="1678" width="200" height="200" rx="20" fill="#FF9D66"/>
<path d="M1442.6 1846.6C1439.53 1846.6 1436.27 1846.33 1432.8 1845.8C1429.47 1845.4 1426.2 1844.87 1423 1844.2C1419.93 1843.53 1417.07 1842.8 1414.4 1842C1411.73 1841.2 1409.67 1840.47 1408.2 1839.8L1413 1819.2C1416.07 1820.53 1420 1821.93 1424.8 1823.4C1429.73 1824.87 1435.6 1825.6 1442.4 1825.6C1450.8 1825.6 1456.67 1823.8 1460 1820.2C1463.47 1816.6 1465.2 1812.13 1465.2 1806.8C1465.2 1800.27 1462.6 1795.73 1457.4 1793.2C1452.2 1790.53 1445.6 1789.2 1437.6 1789.2H1430V1768.8H1439.2C1441.73 1768.8 1444.27 1768.53 1446.8 1768C1449.33 1767.47 1451.6 1766.6 1453.6 1765.4C1455.6 1764.2 1457.2 1762.6 1458.4 1760.6C1459.73 1758.6 1460.4 1756.07 1460.4 1753C1460.4 1748.47 1459 1744.93 1456.2 1742.4C1453.53 1739.73 1449.8 1738.4 1445 1738.4C1440.33 1738.4 1435.67 1739.2 1431 1740.8C1426.47 1742.27 1422.53 1744.13 1419.2 1746.4L1410.4 1728.4C1414 1726 1418.73 1723.6 1424.6 1721.2C1430.6 1718.67 1437.33 1717.4 1444.8 1717.4C1451.73 1717.4 1457.73 1718.27 1462.8 1720C1468 1721.73 1472.27 1724.2 1475.6 1727.4C1478.93 1730.47 1481.4 1734.13 1483 1738.4C1484.6 1742.67 1485.4 1747.27 1485.4 1752.2C1485.4 1757.13 1484 1761.87 1481.2 1766.4C1478.4 1770.93 1474.67 1774.4 1470 1776.8C1476.4 1779.47 1481.33 1783.4 1484.8 1788.6C1488.4 1793.8 1490.2 1800 1490.2 1807.2C1490.2 1812.93 1489.27 1818.2 1487.4 1823C1485.53 1827.8 1482.67 1832 1478.8 1835.6C1474.93 1839.07 1470 1841.8 1464 1843.8C1458 1845.67 1450.87 1846.6 1442.6 1846.6Z" fill="white"/>
<rect x="1823" y="1678" width="200" height="200" rx="20" fill="#FF9D66"/>
<path d="M1915.6 1846.6C1912.53 1846.6 1909.27 1846.33 1905.8 1845.8C1902.47 1845.4 1899.2 1844.87 1896 1844.2C1892.93 1843.53 1890.07 1842.8 1887.4 1842C1884.73 1841.2 1882.67 1840.47 1881.2 1839.8L1886 1819.2C1889.07 1820.53 1893 1821.93 1897.8 1823.4C1902.73 1824.87 1908.6 1825.6 1915.4 1825.6C1923.8 1825.6 1929.67 1823.8 1933 1820.2C1936.47 1816.6 1938.2 1812.13 1938.2 1806.8C1938.2 1800.27 1935.6 1795.73 1930.4 1793.2C1925.2 1790.53 1918.6 1789.2 1910.6 1789.2H1903V1768.8H1912.2C1914.73 1768.8 1917.27 1768.53 1919.8 1768C1922.33 1767.47 1924.6 1766.6 1926.6 1765.4C1928.6 1764.2 1930.2 1762.6 1931.4 1760.6C1932.73 1758.6 1933.4 1756.07 1933.4 1753C1933.4 1748.47 1932 1744.93 1929.2 1742.4C1926.53 1739.73 1922.8 1738.4 1918 1738.4C1913.33 1738.4 1908.67 1739.2 1904 1740.8C1899.47 1742.27 1895.53 1744.13 1892.2 1746.4L1883.4 1728.4C1887 1726 1891.73 1723.6 1897.6 1721.2C1903.6 1718.67 1910.33 1717.4 1917.8 1717.4C1924.73 1717.4 1930.73 1718.27 1935.8 1720C1941 1721.73 1945.27 1724.2 1948.6 1727.4C1951.93 1730.47 1954.4 1734.13 1956 1738.4C1957.6 1742.67 1958.4 1747.27 1958.4 1752.2C1958.4 1757.13 1957 1761.87 1954.2 1766.4C1951.4 1770.93 1947.67 1774.4 1943 1776.8C1949.4 1779.47 1954.33 1783.4 1957.8 1788.6C1961.4 1793.8 1963.2 1800 1963.2 1807.2C1963.2 1812.93 1962.27 1818.2 1960.4 1823C1958.53 1827.8 1955.67 1832 1951.8 1835.6C1947.93 1839.07 1943 1841.8 1937 1843.8C1931 1845.67 1923.87 1846.6 1915.6 1846.6Z" fill="white"/>
<rect x="2532" y="1324" width="200" height="200" rx="20" fill="#FF8266"/>
<path d="M2630.2 1431.2C2627.67 1431.2 2625.07 1431.47 2622.4 1432C2619.73 1432.53 2617.53 1433.27 2615.8 1434.2C2615.67 1435.4 2615.53 1436.6 2615.4 1437.8C2615.4 1439 2615.4 1440.27 2615.4 1441.6C2615.4 1445.47 2615.67 1449.2 2616.2 1452.8C2616.73 1456.27 2617.67 1459.4 2619 1462.2C2620.33 1465 2622.13 1467.27 2624.4 1469C2626.8 1470.6 2629.73 1471.4 2633.2 1471.4C2636 1471.4 2638.4 1470.73 2640.4 1469.4C2642.4 1468.07 2644 1466.4 2645.2 1464.4C2646.53 1462.4 2647.47 1460.2 2648 1457.8C2648.67 1455.4 2649 1453.07 2649 1450.8C2649 1444.53 2647.6 1439.73 2644.8 1436.4C2642 1432.93 2637.13 1431.2 2630.2 1431.2ZM2633.4 1410.8C2640.6 1410.8 2646.67 1411.87 2651.6 1414C2656.67 1416.13 2660.8 1419 2664 1422.6C2667.2 1426.2 2669.47 1430.4 2670.8 1435.2C2672.27 1440 2673 1445.07 2673 1450.4C2673 1455.2 2672.2 1460.07 2670.6 1465C2669.13 1469.93 2666.8 1474.47 2663.6 1478.6C2660.4 1482.73 2656.33 1486.13 2651.4 1488.8C2646.47 1491.33 2640.6 1492.6 2633.8 1492.6C2619.93 1492.6 2609.33 1488.33 2602 1479.8C2594.8 1471.13 2591.2 1457.67 2591.2 1439.4C2591.2 1427.4 2592.93 1416.8 2596.4 1407.6C2600 1398.4 2605.07 1390.67 2611.6 1384.4C2618.13 1378.13 2626 1373.4 2635.2 1370.2C2644.4 1367 2654.6 1365.4 2665.8 1365.4L2667.2 1386.4C2661.87 1386.53 2656.67 1387.07 2651.6 1388C2646.53 1388.93 2641.87 1390.53 2637.6 1392.8C2633.33 1394.93 2629.6 1397.73 2626.4 1401.2C2623.33 1404.67 2621.07 1409 2619.6 1414.2C2622.13 1413.13 2624.6 1412.33 2627 1411.8C2629.4 1411.13 2631.53 1410.8 2633.4 1410.8Z" fill="white"/>
<rect x="2296" y="1678" width="200" height="200" rx="20" fill="#FF9D66"/>
<path d="M2432.8 1752.8C2432.8 1757.07 2432 1761.2 2430.4 1765.2C2428.8 1769.07 2426.67 1772.87 2424 1776.6C2421.33 1780.33 2418.33 1783.93 2415 1787.4C2411.67 1790.87 2408.27 1794.2 2404.8 1797.4C2403.07 1799 2401.07 1800.93 2398.8 1803.2C2396.53 1805.33 2394.4 1807.6 2392.4 1810C2390.4 1812.27 2388.67 1814.6 2387.2 1817C2385.87 1819.4 2385.2 1821.6 2385.2 1823.6H2438.4V1844H2357.6C2357.2 1842.67 2357 1841 2357 1839C2357.13 1837 2357.2 1835.6 2357.2 1834.8C2357.2 1828.13 2358.4 1822 2360.8 1816.4C2363.33 1810.8 2366.47 1805.67 2370.2 1801C2374.07 1796.2 2378.13 1791.8 2382.4 1787.8C2386.8 1783.67 2390.87 1779.73 2394.6 1776C2398.47 1772.27 2401.6 1768.67 2404 1765.2C2406.53 1761.73 2407.8 1758.2 2407.8 1754.6C2407.8 1749.53 2406.27 1745.67 2403.2 1743C2400.13 1740.2 2396.27 1738.8 2391.6 1738.8C2387.73 1738.8 2383.67 1739.73 2379.4 1741.6C2375.13 1743.47 2370.93 1746.6 2366.8 1751L2354.6 1733.8C2359.93 1728.2 2366.07 1724.07 2373 1721.4C2380.07 1718.73 2387.07 1717.4 2394 1717.4C2399.07 1717.4 2403.93 1718.13 2408.6 1719.6C2413.27 1721.07 2417.4 1723.27 2421 1726.2C2424.6 1729.13 2427.47 1732.87 2429.6 1737.4C2431.73 1741.8 2432.8 1746.93 2432.8 1752.8Z" fill="white"/>
<path d="M1842.25 1299.48L1890.18 1227.35L1928.68 1304.92L1842.25 1299.48Z" fill="#FF6F66"/>
<path d="M1997.18 1233.74L1913.88 1275.09L1904.99 1257.18L1988.29 1215.83L1997.18 1233.74Z" fill="#FF6F66"/>
<path d="M1513.09 1663.69L1514.7 1577.11L1588.88 1621.8L1513.09 1663.69Z" fill="#FF8266"/>
<path d="M1597.78 1542.51L1560.36 1604.61L1543.23 1594.29L1580.65 1532.19L1597.78 1542.51Z" fill="#FF8266"/>
<path d="M2457.09 1663.69L2458.7 1577.11L2532.88 1621.8L2457.09 1663.69Z" fill="#FF8266"/>
<path d="M2541.78 1542.51L2504.36 1604.61L2487.23 1594.29L2524.65 1532.19L2541.78 1542.51Z" fill="#FF8266"/>
<path d="M2808.21 1663.69L2806.6 1577.11L2732.42 1621.8L2808.21 1663.69Z" fill="#FF8266"/>
<path d="M2723.52 1542.51L2760.94 1604.61L2778.07 1594.29L2740.66 1532.19L2723.52 1542.51Z" fill="#FF8266"/>
<path d="M1862.21 1663.69L1860.6 1577.11L1786.42 1621.8L1862.21 1663.69Z" fill="#FF8266"/>
<path d="M1777.52 1542.51L1814.94 1604.61L1832.07 1594.29L1794.66 1532.19L1777.52 1542.51Z" fill="#FF8266"/>
<path d="M2476.73 1301.48L2428.81 1229.35L2390.3 1306.92L2476.73 1301.48Z" fill="#FF6F66"/>
<path d="M2321.81 1235.74L2405.11 1277.09L2414 1259.18L2330.7 1217.83L2321.81 1235.74Z" fill="#FF6F66"/>
<rect x="1325" y="2252" width="200" height="200" rx="20" fill="#F841C4"/>
<path d="M1427.2 2352.2C1429.73 2352.2 1432.4 2351.93 1435.2 2351.4C1438 2350.87 1440.27 2350.13 1442 2349.2C1442.13 2348.13 1442.2 2346.87 1442.2 2345.4C1442.33 2343.8 1442.4 2342.27 1442.4 2340.8C1442.4 2337.47 1442.07 2334.13 1441.4 2330.8C1440.87 2327.33 1439.87 2324.2 1438.4 2321.4C1437.07 2318.6 1435.2 2316.33 1432.8 2314.6C1430.53 2312.87 1427.67 2312 1424.2 2312C1421.27 2312 1418.73 2312.6 1416.6 2313.8C1414.6 2314.87 1412.93 2316.33 1411.6 2318.2C1410.4 2320.07 1409.47 2322.27 1408.8 2324.8C1408.27 2327.33 1408 2330 1408 2332.8C1408 2339.07 1409.47 2343.87 1412.4 2347.2C1415.33 2350.53 1420.27 2352.2 1427.2 2352.2ZM1424 2372.6C1416.8 2372.6 1410.67 2371.6 1405.6 2369.6C1400.53 2367.47 1396.4 2364.6 1393.2 2361C1390 2357.4 1387.67 2353.27 1386.2 2348.6C1384.73 2343.8 1384 2338.67 1384 2333.2C1384 2328.4 1384.8 2323.53 1386.4 2318.6C1388.13 2313.53 1390.6 2309 1393.8 2305C1397.13 2300.87 1401.27 2297.53 1406.2 2295C1411.13 2292.33 1416.93 2291 1423.6 2291C1437.47 2291 1448.07 2295.67 1455.4 2305C1462.73 2314.33 1466.4 2327.33 1466.4 2344C1466.4 2356 1464.67 2366.67 1461.2 2376C1457.73 2385.2 1452.73 2392.93 1446.2 2399.2C1439.8 2405.47 1432 2410.27 1422.8 2413.6C1413.73 2416.8 1403.6 2418.4 1392.4 2418.4L1391.6 2397.2C1402.27 2397.07 1411.8 2394.8 1420.2 2390.4C1428.6 2385.87 1434.53 2378.8 1438 2369.2C1432.8 2371.47 1428.13 2372.6 1424 2372.6Z" fill="white"/>
<rect x="852" y="1942" width="200" height="200" rx="20" fill="#FF6F66"/>
<path d="M991.2 2013.6C991.2 2019.33 989.8 2025 987 2030.6C984.2 2036.07 979.8 2040.67 973.8 2044.4C981.4 2048.8 986.733 2053.6 989.8 2058.8C993 2064 994.6 2069.73 994.6 2076C994.6 2080 993.8 2084.07 992.2 2088.2C990.733 2092.33 988.267 2096.07 984.8 2099.4C981.467 2102.6 977.067 2105.27 971.6 2107.4C966.133 2109.53 959.4 2110.6 951.4 2110.6C945.133 2110.6 939.4 2109.8 934.2 2108.2C929.133 2106.73 924.733 2104.6 921 2101.8C917.4 2098.87 914.6 2095.33 912.6 2091.2C910.6 2086.93 909.6 2082.2 909.6 2077C909.6 2070.73 911.067 2064.87 914 2059.4C916.933 2053.8 921.533 2048.87 927.8 2044.6C921.933 2040.6 917.933 2036.33 915.8 2031.8C913.667 2027.27 912.6 2022.47 912.6 2017.4C912.6 2013.4 913.267 2009.27 914.6 2005C916.067 2000.6 918.333 1996.67 921.4 1993.2C924.467 1989.73 928.533 1986.87 933.6 1984.6C938.667 1982.33 944.933 1981.2 952.4 1981.2C964.267 1981.2 973.667 1984.13 980.6 1990C987.667 1995.87 991.2 2003.73 991.2 2013.6ZM971.4 2075.6C971.4 2072.93 970.867 2070.6 969.8 2068.6C968.867 2066.6 967.267 2064.8 965 2063.2C962.867 2061.47 960.067 2059.8 956.6 2058.2C953.133 2056.47 949 2054.67 944.2 2052.8C940.467 2055.87 937.6 2059.33 935.6 2063.2C933.6 2066.93 932.6 2070.53 932.6 2074C932.6 2079.33 934.467 2083.4 938.2 2086.2C942.067 2088.87 946.6 2090.2 951.8 2090.2C957.8 2090.2 962.533 2088.8 966 2086C969.6 2083.07 971.4 2079.6 971.4 2075.6ZM952 2001.6C947.733 2001.6 943.933 2002.8 940.6 2005.2C937.4 2007.6 935.8 2011.13 935.8 2015.8C935.8 2020.47 937.333 2024.27 940.4 2027.2C943.467 2030.13 948.867 2033.2 956.6 2036.4C960.733 2033.33 963.667 2030 965.4 2026.4C967.133 2022.67 968 2019.07 968 2015.6C968 2010.93 966.4 2007.47 963.2 2005.2C960.133 2002.8 956.4 2001.6 952 2001.6Z" fill="white"/>
<rect x="379" y="2252" width="200" height="200" rx="20" fill="#FF8266"/>
<path d="M486 2325C483.6 2328.07 481.133 2331.33 478.6 2334.8C476.067 2338.27 473.533 2341.93 471 2345.8C468.6 2349.53 466.267 2353.33 464 2357.2C461.733 2361.07 459.733 2364.87 458 2368.6H486V2325ZM510.6 2294.2V2368.6H524V2388.8H510.6V2418H486V2388.8H434.4V2370.8C436.933 2365.6 440.2 2359.73 444.2 2353.2C448.2 2346.53 452.6 2339.73 457.4 2332.8C462.2 2325.87 467.267 2319.07 472.6 2312.4C477.933 2305.6 483.267 2299.53 488.6 2294.2H510.6Z" fill="white"/>
<rect x="143" y="2606" width="200" height="200" rx="20" fill="#FF9D66"/>
<path d="M235.6 2774.6C232.533 2774.6 229.267 2774.33 225.8 2773.8C222.467 2773.4 219.2 2772.87 216 2772.2C212.933 2771.53 210.067 2770.8 207.4 2770C204.733 2769.2 202.667 2768.47 201.2 2767.8L206 2747.2C209.067 2748.53 213 2749.93 217.8 2751.4C222.733 2752.87 228.6 2753.6 235.4 2753.6C243.8 2753.6 249.667 2751.8 253 2748.2C256.467 2744.6 258.2 2740.13 258.2 2734.8C258.2 2728.27 255.6 2723.73 250.4 2721.2C245.2 2718.53 238.6 2717.2 230.6 2717.2H223V2696.8H232.2C234.733 2696.8 237.267 2696.53 239.8 2696C242.333 2695.47 244.6 2694.6 246.6 2693.4C248.6 2692.2 250.2 2690.6 251.4 2688.6C252.733 2686.6 253.4 2684.07 253.4 2681C253.4 2676.47 252 2672.93 249.2 2670.4C246.533 2667.73 242.8 2666.4 238 2666.4C233.333 2666.4 228.667 2667.2 224 2668.8C219.467 2670.27 215.533 2672.13 212.2 2674.4L203.4 2656.4C207 2654 211.733 2651.6 217.6 2649.2C223.6 2646.67 230.333 2645.4 237.8 2645.4C244.733 2645.4 250.733 2646.27 255.8 2648C261 2649.73 265.267 2652.2 268.6 2655.4C271.933 2658.47 274.4 2662.13 276 2666.4C277.6 2670.67 278.4 2675.27 278.4 2680.2C278.4 2685.13 277 2689.87 274.2 2694.4C271.4 2698.93 267.667 2702.4 263 2704.8C269.4 2707.47 274.333 2711.4 277.8 2716.6C281.4 2721.8 283.2 2728 283.2 2735.2C283.2 2740.93 282.267 2746.2 280.4 2751C278.533 2755.8 275.667 2760 271.8 2763.6C267.933 2767.07 263 2769.8 257 2771.8C251 2773.67 243.867 2774.6 235.6 2774.6Z" fill="white"/>
<rect x="616" y="2606" width="200" height="200" rx="20" fill="#FF9D66"/>
<path d="M708.6 2774.6C705.533 2774.6 702.267 2774.33 698.8 2773.8C695.467 2773.4 692.2 2772.87 689 2772.2C685.933 2771.53 683.067 2770.8 680.4 2770C677.733 2769.2 675.667 2768.47 674.2 2767.8L679 2747.2C682.067 2748.53 686 2749.93 690.8 2751.4C695.733 2752.87 701.6 2753.6 708.4 2753.6C716.8 2753.6 722.667 2751.8 726 2748.2C729.467 2744.6 731.2 2740.13 731.2 2734.8C731.2 2728.27 728.6 2723.73 723.4 2721.2C718.2 2718.53 711.6 2717.2 703.6 2717.2H696V2696.8H705.2C707.733 2696.8 710.267 2696.53 712.8 2696C715.333 2695.47 717.6 2694.6 719.6 2693.4C721.6 2692.2 723.2 2690.6 724.4 2688.6C725.733 2686.6 726.4 2684.07 726.4 2681C726.4 2676.47 725 2672.93 722.2 2670.4C719.533 2667.73 715.8 2666.4 711 2666.4C706.333 2666.4 701.667 2667.2 697 2668.8C692.467 2670.27 688.533 2672.13 685.2 2674.4L676.4 2656.4C680 2654 684.733 2651.6 690.6 2649.2C696.6 2646.67 703.333 2645.4 710.8 2645.4C717.733 2645.4 723.733 2646.27 728.8 2648C734 2649.73 738.267 2652.2 741.6 2655.4C744.933 2658.47 747.4 2662.13 749 2666.4C750.6 2670.67 751.4 2675.27 751.4 2680.2C751.4 2685.13 750 2689.87 747.2 2694.4C744.4 2698.93 740.667 2702.4 736 2704.8C742.4 2707.47 747.333 2711.4 750.8 2716.6C754.4 2721.8 756.2 2728 756.2 2735.2C756.2 2740.93 755.267 2746.2 753.4 2751C751.533 2755.8 748.667 2760 744.8 2763.6C740.933 2767.07 736 2769.8 730 2771.8C724 2773.67 716.867 2774.6 708.6 2774.6Z" fill="white"/>
<rect x="1563" y="2606" width="200" height="200" rx="20" fill="#FF8266"/>
<path d="M1661.2 2713.2C1658.67 2713.2 1656.07 2713.47 1653.4 2714C1650.73 2714.53 1648.53 2715.27 1646.8 2716.2C1646.67 2717.4 1646.53 2718.6 1646.4 2719.8C1646.4 2721 1646.4 2722.27 1646.4 2723.6C1646.4 2727.47 1646.67 2731.2 1647.2 2734.8C1647.73 2738.27 1648.67 2741.4 1650 2744.2C1651.33 2747 1653.13 2749.27 1655.4 2751C1657.8 2752.6 1660.73 2753.4 1664.2 2753.4C1667 2753.4 1669.4 2752.73 1671.4 2751.4C1673.4 2750.07 1675 2748.4 1676.2 2746.4C1677.53 2744.4 1678.47 2742.2 1679 2739.8C1679.67 2737.4 1680 2735.07 1680 2732.8C1680 2726.53 1678.6 2721.73 1675.8 2718.4C1673 2714.93 1668.13 2713.2 1661.2 2713.2ZM1664.4 2692.8C1671.6 2692.8 1677.67 2693.87 1682.6 2696C1687.67 2698.13 1691.8 2701 1695 2704.6C1698.2 2708.2 1700.47 2712.4 1701.8 2717.2C1703.27 2722 1704 2727.07 1704 2732.4C1704 2737.2 1703.2 2742.07 1701.6 2747C1700.13 2751.93 1697.8 2756.47 1694.6 2760.6C1691.4 2764.73 1687.33 2768.13 1682.4 2770.8C1677.47 2773.33 1671.6 2774.6 1664.8 2774.6C1650.93 2774.6 1640.33 2770.33 1633 2761.8C1625.8 2753.13 1622.2 2739.67 1622.2 2721.4C1622.2 2709.4 1623.93 2698.8 1627.4 2689.6C1631 2680.4 1636.07 2672.67 1642.6 2666.4C1649.13 2660.13 1657 2655.4 1666.2 2652.2C1675.4 2649 1685.6 2647.4 1696.8 2647.4L1698.2 2668.4C1692.87 2668.53 1687.67 2669.07 1682.6 2670C1677.53 2670.93 1672.87 2672.53 1668.6 2674.8C1664.33 2676.93 1660.6 2679.73 1657.4 2683.2C1654.33 2686.67 1652.07 2691 1650.6 2696.2C1653.13 2695.13 1655.6 2694.33 1658 2693.8C1660.4 2693.13 1662.53 2692.8 1664.4 2692.8Z" fill="white"/>
<rect x="1089" y="2606" width="200" height="200" rx="20" fill="#FF9D66"/>
<path d="M1225.8 2680.8C1225.8 2685.07 1225 2689.2 1223.4 2693.2C1221.8 2697.07 1219.67 2700.87 1217 2704.6C1214.33 2708.33 1211.33 2711.93 1208 2715.4C1204.67 2718.87 1201.27 2722.2 1197.8 2725.4C1196.07 2727 1194.07 2728.93 1191.8 2731.2C1189.53 2733.33 1187.4 2735.6 1185.4 2738C1183.4 2740.27 1181.67 2742.6 1180.2 2745C1178.87 2747.4 1178.2 2749.6 1178.2 2751.6H1231.4V2772H1150.6C1150.2 2770.67 1150 2769 1150 2767C1150.13 2765 1150.2 2763.6 1150.2 2762.8C1150.2 2756.13 1151.4 2750 1153.8 2744.4C1156.33 2738.8 1159.47 2733.67 1163.2 2729C1167.07 2724.2 1171.13 2719.8 1175.4 2715.8C1179.8 2711.67 1183.87 2707.73 1187.6 2704C1191.47 2700.27 1194.6 2696.67 1197 2693.2C1199.53 2689.73 1200.8 2686.2 1200.8 2682.6C1200.8 2677.53 1199.27 2673.67 1196.2 2671C1193.13 2668.2 1189.27 2666.8 1184.6 2666.8C1180.73 2666.8 1176.67 2667.73 1172.4 2669.6C1168.13 2671.47 1163.93 2674.6 1159.8 2679L1147.6 2661.8C1152.93 2656.2 1159.07 2652.07 1166 2649.4C1173.07 2646.73 1180.07 2645.4 1187 2645.4C1192.07 2645.4 1196.93 2646.13 1201.6 2647.6C1206.27 2649.07 1210.4 2651.27 1214 2654.2C1217.6 2657.13 1220.47 2660.87 1222.6 2665.4C1224.73 2669.8 1225.8 2674.93 1225.8 2680.8Z" fill="white"/>
<path d="M635.253 2227.48L683.178 2155.35L721.685 2232.92L635.253 2227.48Z" fill="#FF6F66"/>
<path d="M790.179 2161.74L706.878 2203.09L697.985 2185.18L781.287 2143.83L790.179 2161.74Z" fill="#FF6F66"/>
<path d="M306.09 2591.69L307.705 2505.11L381.884 2549.8L306.09 2591.69Z" fill="#FF8266"/>
<path d="M390.778 2470.51L353.36 2532.61L336.229 2522.29L373.647 2460.19L390.778 2470.51Z" fill="#FF8266"/>
<path d="M1250.09 2591.69L1251.7 2505.11L1325.88 2549.8L1250.09 2591.69Z" fill="#FF8266"/>
<path d="M1334.78 2470.51L1297.36 2532.61L1280.23 2522.29L1317.65 2460.19L1334.78 2470.51Z" fill="#FF8266"/>
<path d="M1601.21 2591.69L1599.6 2505.11L1525.42 2549.8L1601.21 2591.69Z" fill="#FF8266"/>
<path d="M1516.52 2470.51L1553.94 2532.61L1571.07 2522.29L1533.66 2460.19L1516.52 2470.51Z" fill="#FF8266"/>
<path d="M655.213 2591.69L653.598 2505.11L579.418 2549.8L655.213 2591.69Z" fill="#FF8266"/>
<path d="M570.524 2470.51L607.942 2532.61L625.073 2522.29L587.655 2460.19L570.524 2470.51Z" fill="#FF8266"/>
<path d="M1269.73 2229.48L1221.81 2157.35L1183.3 2234.92L1269.73 2229.48Z" fill="#FF6F66"/>
<path d="M1114.81 2163.74L1198.11 2205.09L1207 2187.18L1123.7 2145.83L1114.81 2163.74Z" fill="#FF6F66"/>
<path d="M2100.4 284L2096.7 267.8H2072.9L2069.3 284H2060.9C2062.03 279.6 2063.3 274.833 2064.7 269.7C2066.1 264.567 2067.6 259.3 2069.2 253.9C2070.87 248.5 2072.6 243.1 2074.4 237.7C2076.2 232.233 2078.1 227.033 2080.1 222.1H2090.3C2092.23 227.033 2094.07 232.233 2095.8 237.7C2097.6 243.1 2099.27 248.5 2100.8 253.9C2102.4 259.3 2103.9 264.567 2105.3 269.7C2106.7 274.833 2107.97 279.6 2109.1 284H2100.4ZM2084.9 229.3C2083.37 233.5 2081.7 238.367 2079.9 243.9C2078.1 249.433 2076.4 255.133 2074.8 261H2094.8C2093.27 255 2091.6 249.233 2089.8 243.7C2088.07 238.1 2086.43 233.3 2084.9 229.3ZM2144.6 247.4C2143.67 246.533 2142.3 245.733 2140.5 245C2138.7 244.2 2136.83 243.8 2134.9 243.8C2132.7 243.8 2130.8 244.233 2129.2 245.1C2127.67 245.967 2126.4 247.167 2125.4 248.7C2124.4 250.167 2123.67 251.967 2123.2 254.1C2122.73 256.167 2122.5 258.4 2122.5 260.8C2122.5 266.2 2123.77 270.367 2126.3 273.3C2128.83 276.233 2132.13 277.7 2136.2 277.7C2138.27 277.7 2140 277.6 2141.4 277.4C2142.87 277.2 2143.93 277 2144.6 276.8V247.4ZM2144.6 216.1L2152.9 214.7V282.7C2151.1 283.233 2148.8 283.767 2146 284.3C2143.2 284.833 2139.93 285.1 2136.2 285.1C2132.87 285.1 2129.83 284.533 2127.1 283.4C2124.37 282.267 2122.03 280.667 2120.1 278.6C2118.17 276.467 2116.67 273.9 2115.6 270.9C2114.53 267.9 2114 264.533 2114 260.8C2114 257.2 2114.43 253.933 2115.3 251C2116.23 248 2117.57 245.433 2119.3 243.3C2121.03 241.167 2123.1 239.5 2125.5 238.3C2127.97 237.1 2130.77 236.5 2133.9 236.5C2136.37 236.5 2138.53 236.8 2140.4 237.4C2142.27 238 2143.67 238.633 2144.6 239.3V216.1ZM2194.6 247.4C2193.67 246.533 2192.3 245.733 2190.5 245C2188.7 244.2 2186.83 243.8 2184.9 243.8C2182.7 243.8 2180.8 244.233 2179.2 245.1C2177.67 245.967 2176.4 247.167 2175.4 248.7C2174.4 250.167 2173.67 251.967 2173.2 254.1C2172.73 256.167 2172.5 258.4 2172.5 260.8C2172.5 266.2 2173.77 270.367 2176.3 273.3C2178.83 276.233 2182.13 277.7 2186.2 277.7C2188.27 277.7 2190 277.6 2191.4 277.4C2192.87 277.2 2193.93 277 2194.6 276.8V247.4ZM2194.6 216.1L2202.9 214.7V282.7C2201.1 283.233 2198.8 283.767 2196 284.3C2193.2 284.833 2189.93 285.1 2186.2 285.1C2182.87 285.1 2179.83 284.533 2177.1 283.4C2174.37 282.267 2172.03 280.667 2170.1 278.6C2168.17 276.467 2166.67 273.9 2165.6 270.9C2164.53 267.9 2164 264.533 2164 260.8C2164 257.2 2164.43 253.933 2165.3 251C2166.23 248 2167.57 245.433 2169.3 243.3C2171.03 241.167 2173.1 239.5 2175.5 238.3C2177.97 237.1 2180.77 236.5 2183.9 236.5C2186.37 236.5 2188.53 236.8 2190.4 237.4C2192.27 238 2193.67 238.633 2194.6 239.3V216.1Z" fill="#404040"/>
<path d="M1738.94 2564.97L1778.55 2511.06L1712.05 2503.72L1738.94 2564.97Z" fill="#F841C4"/>
<path d="M1570.25 2358.1L1631.02 2330.15L1624.84 2396.76L1570.25 2358.1Z" fill="#F841C4"/>
<path d="M1627.97 2362.47C1704.59 2370.26 1754.55 2429.69 1746.6 2507.94" stroke="#F841C4" stroke-width="20"/>
<path d="M1703.42 836.722L1816.12 872.167L1790.47 756.847L1703.42 836.722Z" fill="#F841C4"/>
<path d="M2058.88 601.693C1962.42 781.096 1803.11 816.99 1803.11 816.99" stroke="#F841C4" stroke-width="20"/>
<rect x="2159" y="2867" width="200" height="200" rx="20" fill="#F841C4"/>
<path d="M2261.2 2967.2C2263.73 2967.2 2266.4 2966.93 2269.2 2966.4C2272 2965.87 2274.27 2965.13 2276 2964.2C2276.13 2963.13 2276.2 2961.87 2276.2 2960.4C2276.33 2958.8 2276.4 2957.27 2276.4 2955.8C2276.4 2952.47 2276.07 2949.13 2275.4 2945.8C2274.87 2942.33 2273.87 2939.2 2272.4 2936.4C2271.07 2933.6 2269.2 2931.33 2266.8 2929.6C2264.53 2927.87 2261.67 2927 2258.2 2927C2255.27 2927 2252.73 2927.6 2250.6 2928.8C2248.6 2929.87 2246.93 2931.33 2245.6 2933.2C2244.4 2935.07 2243.47 2937.27 2242.8 2939.8C2242.27 2942.33 2242 2945 2242 2947.8C2242 2954.07 2243.47 2958.87 2246.4 2962.2C2249.33 2965.53 2254.27 2967.2 2261.2 2967.2ZM2258 2987.6C2250.8 2987.6 2244.67 2986.6 2239.6 2984.6C2234.53 2982.47 2230.4 2979.6 2227.2 2976C2224 2972.4 2221.67 2968.27 2220.2 2963.6C2218.73 2958.8 2218 2953.67 2218 2948.2C2218 2943.4 2218.8 2938.53 2220.4 2933.6C2222.13 2928.53 2224.6 2924 2227.8 2920C2231.13 2915.87 2235.27 2912.53 2240.2 2910C2245.13 2907.33 2250.93 2906 2257.6 2906C2271.47 2906 2282.07 2910.67 2289.4 2920C2296.73 2929.33 2300.4 2942.33 2300.4 2959C2300.4 2971 2298.67 2981.67 2295.2 2991C2291.73 3000.2 2286.73 3007.93 2280.2 3014.2C2273.8 3020.47 2266 3025.27 2256.8 3028.6C2247.73 3031.8 2237.6 3033.4 2226.4 3033.4L2225.6 3012.2C2236.27 3012.07 2245.8 3009.8 2254.2 3005.4C2262.6 3000.87 2268.53 2993.8 2272 2984.2C2266.8 2986.47 2262.13 2987.6 2258 2987.6Z" fill="white"/>
<rect x="1686" y="3177" width="200" height="200" rx="20" fill="#FF8266"/>
<path d="M1793 3250C1790.6 3253.07 1788.13 3256.33 1785.6 3259.8C1783.07 3263.27 1780.53 3266.93 1778 3270.8C1775.6 3274.53 1773.27 3278.33 1771 3282.2C1768.73 3286.07 1766.73 3289.87 1765 3293.6H1793V3250ZM1817.6 3219.2V3293.6H1831V3313.8H1817.6V3343H1793V3313.8H1741.4V3295.8C1743.93 3290.6 1747.2 3284.73 1751.2 3278.2C1755.2 3271.53 1759.6 3264.73 1764.4 3257.8C1769.2 3250.87 1774.27 3244.07 1779.6 3237.4C1784.93 3230.6 1790.27 3224.53 1795.6 3219.2H1817.6Z" fill="white"/>
<rect x="1450" y="3531" width="200" height="200" rx="20" fill="#FF9D66"/>
<path d="M1542.6 3699.6C1539.53 3699.6 1536.27 3699.33 1532.8 3698.8C1529.47 3698.4 1526.2 3697.87 1523 3697.2C1519.93 3696.53 1517.07 3695.8 1514.4 3695C1511.73 3694.2 1509.67 3693.47 1508.2 3692.8L1513 3672.2C1516.07 3673.53 1520 3674.93 1524.8 3676.4C1529.73 3677.87 1535.6 3678.6 1542.4 3678.6C1550.8 3678.6 1556.67 3676.8 1560 3673.2C1563.47 3669.6 1565.2 3665.13 1565.2 3659.8C1565.2 3653.27 1562.6 3648.73 1557.4 3646.2C1552.2 3643.53 1545.6 3642.2 1537.6 3642.2H1530V3621.8H1539.2C1541.73 3621.8 1544.27 3621.53 1546.8 3621C1549.33 3620.47 1551.6 3619.6 1553.6 3618.4C1555.6 3617.2 1557.2 3615.6 1558.4 3613.6C1559.73 3611.6 1560.4 3609.07 1560.4 3606C1560.4 3601.47 1559 3597.93 1556.2 3595.4C1553.53 3592.73 1549.8 3591.4 1545 3591.4C1540.33 3591.4 1535.67 3592.2 1531 3593.8C1526.47 3595.27 1522.53 3597.13 1519.2 3599.4L1510.4 3581.4C1514 3579 1518.73 3576.6 1524.6 3574.2C1530.6 3571.67 1537.33 3570.4 1544.8 3570.4C1551.73 3570.4 1557.73 3571.27 1562.8 3573C1568 3574.73 1572.27 3577.2 1575.6 3580.4C1578.93 3583.47 1581.4 3587.13 1583 3591.4C1584.6 3595.67 1585.4 3600.27 1585.4 3605.2C1585.4 3610.13 1584 3614.87 1581.2 3619.4C1578.4 3623.93 1574.67 3627.4 1570 3629.8C1576.4 3632.47 1581.33 3636.4 1584.8 3641.6C1588.4 3646.8 1590.2 3653 1590.2 3660.2C1590.2 3665.93 1589.27 3671.2 1587.4 3676C1585.53 3680.8 1582.67 3685 1578.8 3688.6C1574.93 3692.07 1570 3694.8 1564 3696.8C1558 3698.67 1550.87 3699.6 1542.6 3699.6Z" fill="white"/>
<rect x="1923" y="3531" width="200" height="200" rx="20" fill="#FF9D66"/>
<path d="M2015.6 3699.6C2012.53 3699.6 2009.27 3699.33 2005.8 3698.8C2002.47 3698.4 1999.2 3697.87 1996 3697.2C1992.93 3696.53 1990.07 3695.8 1987.4 3695C1984.73 3694.2 1982.67 3693.47 1981.2 3692.8L1986 3672.2C1989.07 3673.53 1993 3674.93 1997.8 3676.4C2002.73 3677.87 2008.6 3678.6 2015.4 3678.6C2023.8 3678.6 2029.67 3676.8 2033 3673.2C2036.47 3669.6 2038.2 3665.13 2038.2 3659.8C2038.2 3653.27 2035.6 3648.73 2030.4 3646.2C2025.2 3643.53 2018.6 3642.2 2010.6 3642.2H2003V3621.8H2012.2C2014.73 3621.8 2017.27 3621.53 2019.8 3621C2022.33 3620.47 2024.6 3619.6 2026.6 3618.4C2028.6 3617.2 2030.2 3615.6 2031.4 3613.6C2032.73 3611.6 2033.4 3609.07 2033.4 3606C2033.4 3601.47 2032 3597.93 2029.2 3595.4C2026.53 3592.73 2022.8 3591.4 2018 3591.4C2013.33 3591.4 2008.67 3592.2 2004 3593.8C1999.47 3595.27 1995.53 3597.13 1992.2 3599.4L1983.4 3581.4C1987 3579 1991.73 3576.6 1997.6 3574.2C2003.6 3571.67 2010.33 3570.4 2017.8 3570.4C2024.73 3570.4 2030.73 3571.27 2035.8 3573C2041 3574.73 2045.27 3577.2 2048.6 3580.4C2051.93 3583.47 2054.4 3587.13 2056 3591.4C2057.6 3595.67 2058.4 3600.27 2058.4 3605.2C2058.4 3610.13 2057 3614.87 2054.2 3619.4C2051.4 3623.93 2047.67 3627.4 2043 3629.8C2049.4 3632.47 2054.33 3636.4 2057.8 3641.6C2061.4 3646.8 2063.2 3653 2063.2 3660.2C2063.2 3665.93 2062.27 3671.2 2060.4 3676C2058.53 3680.8 2055.67 3685 2051.8 3688.6C2047.93 3692.07 2043 3694.8 2037 3696.8C2031 3698.67 2023.87 3699.6 2015.6 3699.6Z" fill="white"/>
<rect x="2870" y="3531" width="200" height="200" rx="20" fill="#FF8266"/>
<path d="M2968.2 3638.2C2965.67 3638.2 2963.07 3638.47 2960.4 3639C2957.73 3639.53 2955.53 3640.27 2953.8 3641.2C2953.67 3642.4 2953.53 3643.6 2953.4 3644.8C2953.4 3646 2953.4 3647.27 2953.4 3648.6C2953.4 3652.47 2953.67 3656.2 2954.2 3659.8C2954.73 3663.27 2955.67 3666.4 2957 3669.2C2958.33 3672 2960.13 3674.27 2962.4 3676C2964.8 3677.6 2967.73 3678.4 2971.2 3678.4C2974 3678.4 2976.4 3677.73 2978.4 3676.4C2980.4 3675.07 2982 3673.4 2983.2 3671.4C2984.53 3669.4 2985.47 3667.2 2986 3664.8C2986.67 3662.4 2987 3660.07 2987 3657.8C2987 3651.53 2985.6 3646.73 2982.8 3643.4C2980 3639.93 2975.13 3638.2 2968.2 3638.2ZM2971.4 3617.8C2978.6 3617.8 2984.67 3618.87 2989.6 3621C2994.67 3623.13 2998.8 3626 3002 3629.6C3005.2 3633.2 3007.47 3637.4 3008.8 3642.2C3010.27 3647 3011 3652.07 3011 3657.4C3011 3662.2 3010.2 3667.07 3008.6 3672C3007.13 3676.93 3004.8 3681.47 3001.6 3685.6C2998.4 3689.73 2994.33 3693.13 2989.4 3695.8C2984.47 3698.33 2978.6 3699.6 2971.8 3699.6C2957.93 3699.6 2947.33 3695.33 2940 3686.8C2932.8 3678.13 2929.2 3664.67 2929.2 3646.4C2929.2 3634.4 2930.93 3623.8 2934.4 3614.6C2938 3605.4 2943.07 3597.67 2949.6 3591.4C2956.13 3585.13 2964 3580.4 2973.2 3577.2C2982.4 3574 2992.6 3572.4 3003.8 3572.4L3005.2 3593.4C2999.87 3593.53 2994.67 3594.07 2989.6 3595C2984.53 3595.93 2979.87 3597.53 2975.6 3599.8C2971.33 3601.93 2967.6 3604.73 2964.4 3608.2C2961.33 3611.67 2959.07 3616 2957.6 3621.2C2960.13 3620.13 2962.6 3619.33 2965 3618.8C2967.4 3618.13 2969.53 3617.8 2971.4 3617.8Z" fill="white"/>
<rect x="2396" y="3531" width="200" height="200" rx="20" fill="#FF9D66"/>
<path d="M2532.8 3605.8C2532.8 3610.07 2532 3614.2 2530.4 3618.2C2528.8 3622.07 2526.67 3625.87 2524 3629.6C2521.33 3633.33 2518.33 3636.93 2515 3640.4C2511.67 3643.87 2508.27 3647.2 2504.8 3650.4C2503.07 3652 2501.07 3653.93 2498.8 3656.2C2496.53 3658.33 2494.4 3660.6 2492.4 3663C2490.4 3665.27 2488.67 3667.6 2487.2 3670C2485.87 3672.4 2485.2 3674.6 2485.2 3676.6H2538.4V3697H2457.6C2457.2 3695.67 2457 3694 2457 3692C2457.13 3690 2457.2 3688.6 2457.2 3687.8C2457.2 3681.13 2458.4 3675 2460.8 3669.4C2463.33 3663.8 2466.47 3658.67 2470.2 3654C2474.07 3649.2 2478.13 3644.8 2482.4 3640.8C2486.8 3636.67 2490.87 3632.73 2494.6 3629C2498.47 3625.27 2501.6 3621.67 2504 3618.2C2506.53 3614.73 2507.8 3611.2 2507.8 3607.6C2507.8 3602.53 2506.27 3598.67 2503.2 3596C2500.13 3593.2 2496.27 3591.8 2491.6 3591.8C2487.73 3591.8 2483.67 3592.73 2479.4 3594.6C2475.13 3596.47 2470.93 3599.6 2466.8 3604L2454.6 3586.8C2459.93 3581.2 2466.07 3577.07 2473 3574.4C2480.07 3571.73 2487.07 3570.4 2494 3570.4C2499.07 3570.4 2503.93 3571.13 2508.6 3572.6C2513.27 3574.07 2517.4 3576.27 2521 3579.2C2524.6 3582.13 2527.47 3585.87 2529.6 3590.4C2531.73 3594.8 2532.8 3599.93 2532.8 3605.8Z" fill="white"/>
<path d="M1942.25 3152.48L1990.18 3080.35L2028.68 3157.92L1942.25 3152.48Z" fill="#FF6F66"/>
<path d="M2097.18 3086.74L2013.88 3128.09L2004.99 3110.18L2088.29 3068.83L2097.18 3086.74Z" fill="#FF6F66"/>
<path d="M1613.09 3516.69L1614.7 3430.11L1688.88 3474.8L1613.09 3516.69Z" fill="#FF8266"/>
<path d="M1697.78 3395.51L1660.36 3457.61L1643.23 3447.29L1680.65 3385.19L1697.78 3395.51Z" fill="#FF8266"/>
<path d="M2557.09 3516.69L2558.7 3430.11L2632.88 3474.8L2557.09 3516.69Z" fill="#FF8266"/>
<path d="M2641.78 3395.51L2604.36 3457.61L2587.23 3447.29L2624.65 3385.19L2641.78 3395.51Z" fill="#FF8266"/>
<path d="M2908.21 3516.69L2906.6 3430.11L2832.42 3474.8L2908.21 3516.69Z" fill="#FF8266"/>
<path d="M2823.52 3395.51L2860.94 3457.61L2878.07 3447.29L2840.66 3385.19L2823.52 3395.51Z" fill="#FF8266"/>
<path d="M1962.21 3516.69L1960.6 3430.11L1886.42 3474.8L1962.21 3516.69Z" fill="#FF8266"/>
<path d="M1877.52 3395.51L1914.94 3457.61L1932.07 3447.29L1894.66 3385.19L1877.52 3395.51Z" fill="#FF8266"/>
<path d="M2576.73 3154.48L2528.81 3082.35L2490.3 3159.92L2576.73 3154.48Z" fill="#FF6F66"/>
<path d="M2421.81 3088.74L2505.11 3130.09L2514 3112.18L2430.7 3070.83L2421.81 3088.74Z" fill="#FF6F66"/>
<path d="M2648.08 3100.61L2668.17 3036.8L2602.87 3051.31L2648.08 3100.61Z" fill="#F841C4"/>
<path d="M2421.65 2959.26L2470.15 2913.19L2485.8 2978.23L2421.65 2959.26Z" fill="#F841C4"/>
<path d="M2477.7 2944.76C2552.73 2927.4 2619.2 2967.53 2636.93 3044.16" stroke="#F841C4" stroke-width="20"/>
<rect x="2632" y="3177" width="200" height="200" rx="20" fill="#FF6F66"/>
<path d="M2770.2 3248.6C2770.2 3254.33 2768.8 3260 2766 3265.6C2763.2 3271.07 2758.8 3275.67 2752.8 3279.4C2760.4 3283.8 2765.73 3288.6 2768.8 3293.8C2772 3299 2773.6 3304.73 2773.6 3311C2773.6 3315 2772.8 3319.07 2771.2 3323.2C2769.73 3327.33 2767.27 3331.07 2763.8 3334.4C2760.47 3337.6 2756.07 3340.27 2750.6 3342.4C2745.13 3344.53 2738.4 3345.6 2730.4 3345.6C2724.13 3345.6 2718.4 3344.8 2713.2 3343.2C2708.13 3341.73 2703.73 3339.6 2700 3336.8C2696.4 3333.87 2693.6 3330.33 2691.6 3326.2C2689.6 3321.93 2688.6 3317.2 2688.6 3312C2688.6 3305.73 2690.07 3299.87 2693 3294.4C2695.93 3288.8 2700.53 3283.87 2706.8 3279.6C2700.93 3275.6 2696.93 3271.33 2694.8 3266.8C2692.67 3262.27 2691.6 3257.47 2691.6 3252.4C2691.6 3248.4 2692.27 3244.27 2693.6 3240C2695.07 3235.6 2697.33 3231.67 2700.4 3228.2C2703.47 3224.73 2707.53 3221.87 2712.6 3219.6C2717.67 3217.33 2723.93 3216.2 2731.4 3216.2C2743.27 3216.2 2752.67 3219.13 2759.6 3225C2766.67 3230.87 2770.2 3238.73 2770.2 3248.6ZM2750.4 3310.6C2750.4 3307.93 2749.87 3305.6 2748.8 3303.6C2747.87 3301.6 2746.27 3299.8 2744 3298.2C2741.87 3296.47 2739.07 3294.8 2735.6 3293.2C2732.13 3291.47 2728 3289.67 2723.2 3287.8C2719.47 3290.87 2716.6 3294.33 2714.6 3298.2C2712.6 3301.93 2711.6 3305.53 2711.6 3309C2711.6 3314.33 2713.47 3318.4 2717.2 3321.2C2721.07 3323.87 2725.6 3325.2 2730.8 3325.2C2736.8 3325.2 2741.53 3323.8 2745 3321C2748.6 3318.07 2750.4 3314.6 2750.4 3310.6ZM2731 3236.6C2726.73 3236.6 2722.93 3237.8 2719.6 3240.2C2716.4 3242.6 2714.8 3246.13 2714.8 3250.8C2714.8 3255.47 2716.33 3259.27 2719.4 3262.2C2722.47 3265.13 2727.87 3268.2 2735.6 3271.4C2739.73 3268.33 2742.67 3265 2744.4 3261.4C2746.13 3257.67 2747 3254.07 2747 3250.6C2747 3245.93 2745.4 3242.47 2742.2 3240.2C2739.13 3237.8 2735.4 3236.6 2731 3236.6Z" fill="white"/>
</svg>
