<svg width="1929" height="1065" viewBox="0 0 1929 1065" fill="none" xmlns="http://www.w3.org/2000/svg">
<rect x="864" y="101" width="200" height="200" rx="20" fill="#FF6F66"/>
<path d="M966.2 201.2C968.733 201.2 971.4 200.933 974.2 200.4C977 199.867 979.267 199.133 981 198.2C981.133 197.133 981.2 195.867 981.2 194.4C981.333 192.8 981.4 191.267 981.4 189.8C981.4 186.467 981.067 183.133 980.4 179.8C979.867 176.333 978.867 173.2 977.4 170.4C976.067 167.6 974.2 165.333 971.8 163.6C969.533 161.867 966.667 161 963.2 161C960.267 161 957.733 161.6 955.6 162.8C953.6 163.867 951.933 165.333 950.6 167.2C949.4 169.067 948.467 171.267 947.8 173.8C947.267 176.333 947 179 947 181.8C947 188.067 948.467 192.867 951.4 196.2C954.333 199.533 959.267 201.2 966.2 201.2ZM963 221.6C955.8 221.6 949.667 220.6 944.6 218.6C939.533 216.467 935.4 213.6 932.2 210C929 206.4 926.667 202.267 925.2 197.6C923.733 192.8 923 187.667 923 182.2C923 177.4 923.8 172.533 925.4 167.6C927.133 162.533 929.6 158 932.8 154C936.133 149.867 940.267 146.533 945.2 144C950.133 141.333 955.933 140 962.6 140C976.467 140 987.067 144.667 994.4 154C1001.73 163.333 1005.4 176.333 1005.4 193C1005.4 205 1003.67 215.667 1000.2 225C996.733 234.2 991.733 241.933 985.2 248.2C978.8 254.467 971 259.267 961.8 262.6C952.733 265.8 942.6 267.4 931.4 267.4L930.6 246.2C941.267 246.067 950.8 243.8 959.2 239.4C967.6 234.867 973.533 227.8 977 218.2C971.8 220.467 967.133 221.6 963 221.6Z" fill="white"/>
<rect x="391" y="411" width="200" height="200" rx="20" fill="#FF8266"/>
<path d="M498 484C495.6 487.067 493.133 490.333 490.6 493.8C488.067 497.267 485.533 500.933 483 504.8C480.6 508.533 478.267 512.333 476 516.2C473.733 520.067 471.733 523.867 470 527.6H498V484ZM522.6 453.2V527.6H536V547.8H522.6V577H498V547.8H446.4V529.8C448.933 524.6 452.2 518.733 456.2 512.2C460.2 505.533 464.6 498.733 469.4 491.8C474.2 484.867 479.267 478.067 484.6 471.4C489.933 464.6 495.267 458.533 500.6 453.2H522.6Z" fill="white"/>
<rect x="155" y="765" width="200" height="200" rx="20" fill="#FF9D66"/>
<path d="M247.6 933.6C244.533 933.6 241.267 933.333 237.8 932.8C234.467 932.4 231.2 931.867 228 931.2C224.933 930.533 222.067 929.8 219.4 929C216.733 928.2 214.667 927.467 213.2 926.8L218 906.2C221.067 907.533 225 908.933 229.8 910.4C234.733 911.867 240.6 912.6 247.4 912.6C255.8 912.6 261.667 910.8 265 907.2C268.467 903.6 270.2 899.133 270.2 893.8C270.2 887.267 267.6 882.733 262.4 880.2C257.2 877.533 250.6 876.2 242.6 876.2H235V855.8H244.2C246.733 855.8 249.267 855.533 251.8 855C254.333 854.467 256.6 853.6 258.6 852.4C260.6 851.2 262.2 849.6 263.4 847.6C264.733 845.6 265.4 843.067 265.4 840C265.4 835.467 264 831.933 261.2 829.4C258.533 826.733 254.8 825.4 250 825.4C245.333 825.4 240.667 826.2 236 827.8C231.467 829.267 227.533 831.133 224.2 833.4L215.4 815.4C219 813 223.733 810.6 229.6 808.2C235.6 805.667 242.333 804.4 249.8 804.4C256.733 804.4 262.733 805.267 267.8 807C273 808.733 277.267 811.2 280.6 814.4C283.933 817.467 286.4 821.133 288 825.4C289.6 829.667 290.4 834.267 290.4 839.2C290.4 844.133 289 848.867 286.2 853.4C283.4 857.933 279.667 861.4 275 863.8C281.4 866.467 286.333 870.4 289.8 875.6C293.4 880.8 295.2 887 295.2 894.2C295.2 899.933 294.267 905.2 292.4 910C290.533 914.8 287.667 919 283.8 922.6C279.933 926.067 275 928.8 269 930.8C263 932.667 255.867 933.6 247.6 933.6Z" fill="white"/>
<rect x="628" y="765" width="200" height="200" rx="20" fill="#FF9D66"/>
<path d="M720.6 933.6C717.533 933.6 714.267 933.333 710.8 932.8C707.467 932.4 704.2 931.867 701 931.2C697.933 930.533 695.067 929.8 692.4 929C689.733 928.2 687.667 927.467 686.2 926.8L691 906.2C694.067 907.533 698 908.933 702.8 910.4C707.733 911.867 713.6 912.6 720.4 912.6C728.8 912.6 734.667 910.8 738 907.2C741.467 903.6 743.2 899.133 743.2 893.8C743.2 887.267 740.6 882.733 735.4 880.2C730.2 877.533 723.6 876.2 715.6 876.2H708V855.8H717.2C719.733 855.8 722.267 855.533 724.8 855C727.333 854.467 729.6 853.6 731.6 852.4C733.6 851.2 735.2 849.6 736.4 847.6C737.733 845.6 738.4 843.067 738.4 840C738.4 835.467 737 831.933 734.2 829.4C731.533 826.733 727.8 825.4 723 825.4C718.333 825.4 713.667 826.2 709 827.8C704.467 829.267 700.533 831.133 697.2 833.4L688.4 815.4C692 813 696.733 810.6 702.6 808.2C708.6 805.667 715.333 804.4 722.8 804.4C729.733 804.4 735.733 805.267 740.8 807C746 808.733 750.267 811.2 753.6 814.4C756.933 817.467 759.4 821.133 761 825.4C762.6 829.667 763.4 834.267 763.4 839.2C763.4 844.133 762 848.867 759.2 853.4C756.4 857.933 752.667 861.4 748 863.8C754.4 866.467 759.333 870.4 762.8 875.6C766.4 880.8 768.2 887 768.2 894.2C768.2 899.933 767.267 905.2 765.4 910C763.533 914.8 760.667 919 756.8 922.6C752.933 926.067 748 928.8 742 930.8C736 932.667 728.867 933.6 720.6 933.6Z" fill="white"/>
<rect x="1337" y="411" width="200" height="200" rx="20" fill="#FF8266"/>
<path d="M1476.2 482.6C1476.2 488.333 1474.8 494 1472 499.6C1469.2 505.067 1464.8 509.667 1458.8 513.4C1466.4 517.8 1471.73 522.6 1474.8 527.8C1478 533 1479.6 538.733 1479.6 545C1479.6 549 1478.8 553.067 1477.2 557.2C1475.73 561.333 1473.27 565.067 1469.8 568.4C1466.47 571.6 1462.07 574.267 1456.6 576.4C1451.13 578.533 1444.4 579.6 1436.4 579.6C1430.13 579.6 1424.4 578.8 1419.2 577.2C1414.13 575.733 1409.73 573.6 1406 570.8C1402.4 567.867 1399.6 564.333 1397.6 560.2C1395.6 555.933 1394.6 551.2 1394.6 546C1394.6 539.733 1396.07 533.867 1399 528.4C1401.93 522.8 1406.53 517.867 1412.8 513.6C1406.93 509.6 1402.93 505.333 1400.8 500.8C1398.67 496.267 1397.6 491.467 1397.6 486.4C1397.6 482.4 1398.27 478.267 1399.6 474C1401.07 469.6 1403.33 465.667 1406.4 462.2C1409.47 458.733 1413.53 455.867 1418.6 453.6C1423.67 451.333 1429.93 450.2 1437.4 450.2C1449.27 450.2 1458.67 453.133 1465.6 459C1472.67 464.867 1476.2 472.733 1476.2 482.6ZM1456.4 544.6C1456.4 541.933 1455.87 539.6 1454.8 537.6C1453.87 535.6 1452.27 533.8 1450 532.2C1447.87 530.467 1445.07 528.8 1441.6 527.2C1438.13 525.467 1434 523.667 1429.2 521.8C1425.47 524.867 1422.6 528.333 1420.6 532.2C1418.6 535.933 1417.6 539.533 1417.6 543C1417.6 548.333 1419.47 552.4 1423.2 555.2C1427.07 557.867 1431.6 559.2 1436.8 559.2C1442.8 559.2 1447.53 557.8 1451 555C1454.6 552.067 1456.4 548.6 1456.4 544.6ZM1437 470.6C1432.73 470.6 1428.93 471.8 1425.6 474.2C1422.4 476.6 1420.8 480.133 1420.8 484.8C1420.8 489.467 1422.33 493.267 1425.4 496.2C1428.47 499.133 1433.87 502.2 1441.6 505.4C1445.73 502.333 1448.67 499 1450.4 495.4C1452.13 491.667 1453 488.067 1453 484.6C1453 479.933 1451.4 476.467 1448.2 474.2C1445.13 471.8 1441.4 470.6 1437 470.6Z" fill="white"/>
<rect x="1101" y="765" width="200" height="200" rx="20" fill="#FF9D66"/>
<path d="M1237.8 839.8C1237.8 844.067 1237 848.2 1235.4 852.2C1233.8 856.067 1231.67 859.867 1229 863.6C1226.33 867.333 1223.33 870.933 1220 874.4C1216.67 877.867 1213.27 881.2 1209.8 884.4C1208.07 886 1206.07 887.933 1203.8 890.2C1201.53 892.333 1199.4 894.6 1197.4 897C1195.4 899.267 1193.67 901.6 1192.2 904C1190.87 906.4 1190.2 908.6 1190.2 910.6H1243.4V931H1162.6C1162.2 929.667 1162 928 1162 926C1162.13 924 1162.2 922.6 1162.2 921.8C1162.2 915.133 1163.4 909 1165.8 903.4C1168.33 897.8 1171.47 892.667 1175.2 888C1179.07 883.2 1183.13 878.8 1187.4 874.8C1191.8 870.667 1195.87 866.733 1199.6 863C1203.47 859.267 1206.6 855.667 1209 852.2C1211.53 848.733 1212.8 845.2 1212.8 841.6C1212.8 836.533 1211.27 832.667 1208.2 830C1205.13 827.2 1201.27 825.8 1196.6 825.8C1192.73 825.8 1188.67 826.733 1184.4 828.6C1180.13 830.467 1175.93 833.6 1171.8 838L1159.6 820.8C1164.93 815.2 1171.07 811.067 1178 808.4C1185.07 805.733 1192.07 804.4 1199 804.4C1204.07 804.4 1208.93 805.133 1213.6 806.6C1218.27 808.067 1222.4 810.267 1226 813.2C1229.6 816.133 1232.47 819.867 1234.6 824.4C1236.73 828.8 1237.8 833.933 1237.8 839.8Z" fill="white"/>
<rect x="1574" y="765" width="200" height="200" rx="20" fill="#FF9D66"/>
<path d="M1650.4 931C1650.8 922.467 1652.2 913.467 1654.6 904C1657 894.4 1659.87 884.933 1663.2 875.6C1666.67 866.267 1670.4 857.467 1674.4 849.2C1678.4 840.8 1682.2 833.6 1685.8 827.6H1633.8V807.2H1714.6V825.8C1711 829.933 1707.07 835.733 1702.8 843.2C1698.53 850.667 1694.47 859.133 1690.6 868.6C1686.87 878.067 1683.53 888.2 1680.6 899C1677.8 909.667 1676.07 920.333 1675.4 931H1650.4Z" fill="white"/>
<path d="M647.253 386.484L695.178 314.351L733.685 391.922L647.253 386.484Z" fill="#FF6F66"/>
<path d="M802.179 320.743L718.878 362.093L709.985 344.179L793.287 302.828L802.179 320.743Z" fill="#FF6F66"/>
<path d="M318.09 750.693L319.705 664.106L393.884 708.798L318.09 750.693Z" fill="#FF8266"/>
<path d="M402.778 629.507L365.36 691.613L348.229 681.291L385.647 619.186L402.778 629.507Z" fill="#FF8266"/>
<path d="M1262.09 750.693L1263.7 664.106L1337.88 708.798L1262.09 750.693Z" fill="#FF8266"/>
<path d="M1346.78 629.507L1309.36 691.613L1292.23 681.291L1329.65 619.186L1346.78 629.507Z" fill="#FF8266"/>
<path d="M1613.21 750.693L1611.6 664.106L1537.42 708.798L1613.21 750.693Z" fill="#FF8266"/>
<path d="M1528.52 629.507L1565.94 691.613L1583.07 681.291L1545.66 619.186L1528.52 629.507Z" fill="#FF8266"/>
<path d="M667.213 750.693L665.598 664.106L591.418 708.798L667.213 750.693Z" fill="#FF8266"/>
<path d="M582.524 629.507L619.942 691.613L637.073 681.291L599.655 619.186L582.524 629.507Z" fill="#FF8266"/>
<path d="M1281.73 388.484L1233.81 316.351L1195.3 393.922L1281.73 388.484Z" fill="#FF6F66"/>
<path d="M1126.81 322.743L1210.11 364.093L1219 346.179L1135.7 304.828L1126.81 322.743Z" fill="#FF6F66"/>
</svg>
