<svg width="2880" height="3099" viewBox="0 0 2880 3099" fill="none" xmlns="http://www.w3.org/2000/svg">
<rect x="864" y="117" width="200" height="200" rx="20" fill="#FF6F66"/>
<path d="M966.2 217.2C968.733 217.2 971.4 216.933 974.2 216.4C977 215.867 979.267 215.133 981 214.2C981.133 213.133 981.2 211.867 981.2 210.4C981.333 208.8 981.4 207.267 981.4 205.8C981.4 202.467 981.067 199.133 980.4 195.8C979.867 192.333 978.867 189.2 977.4 186.4C976.067 183.6 974.2 181.333 971.8 179.6C969.533 177.867 966.667 177 963.2 177C960.267 177 957.733 177.6 955.6 178.8C953.6 179.867 951.933 181.333 950.6 183.2C949.4 185.067 948.467 187.267 947.8 189.8C947.267 192.333 947 195 947 197.8C947 204.067 948.467 208.867 951.4 212.2C954.333 215.533 959.267 217.2 966.2 217.2ZM963 237.6C955.8 237.6 949.667 236.6 944.6 234.6C939.533 232.467 935.4 229.6 932.2 226C929 222.4 926.667 218.267 925.2 213.6C923.733 208.8 923 203.667 923 198.2C923 193.4 923.8 188.533 925.4 183.6C927.133 178.533 929.6 174 932.8 170C936.133 165.867 940.267 162.533 945.2 160C950.133 157.333 955.933 156 962.6 156C976.467 156 987.067 160.667 994.4 170C1001.73 179.333 1005.4 192.333 1005.4 209C1005.4 221 1003.67 231.667 1000.2 241C996.733 250.2 991.733 257.933 985.2 264.2C978.8 270.467 971 275.267 961.8 278.6C952.733 281.8 942.6 283.4 931.4 283.4L930.6 262.2C941.267 262.067 950.8 259.8 959.2 255.4C967.6 250.867 973.533 243.8 977 234.2C971.8 236.467 967.133 237.6 963 237.6Z" fill="white"/>
<rect x="391" y="427" width="200" height="200" rx="20" fill="#FF8266"/>
<path d="M498 500C495.6 503.067 493.133 506.333 490.6 509.8C488.067 513.267 485.533 516.933 483 520.8C480.6 524.533 478.267 528.333 476 532.2C473.733 536.067 471.733 539.867 470 543.6H498V500ZM522.6 469.2V543.6H536V563.8H522.6V593H498V563.8H446.4V545.8C448.933 540.6 452.2 534.733 456.2 528.2C460.2 521.533 464.6 514.733 469.4 507.8C474.2 500.867 479.267 494.067 484.6 487.4C489.933 480.6 495.267 474.533 500.6 469.2H522.6Z" fill="white"/>
<rect x="155" y="781" width="200" height="200" rx="20" fill="#FF9D66"/>
<path d="M247.6 949.6C244.533 949.6 241.267 949.333 237.8 948.8C234.467 948.4 231.2 947.867 228 947.2C224.933 946.533 222.067 945.8 219.4 945C216.733 944.2 214.667 943.467 213.2 942.8L218 922.2C221.067 923.533 225 924.933 229.8 926.4C234.733 927.867 240.6 928.6 247.4 928.6C255.8 928.6 261.667 926.8 265 923.2C268.467 919.6 270.2 915.133 270.2 909.8C270.2 903.267 267.6 898.733 262.4 896.2C257.2 893.533 250.6 892.2 242.6 892.2H235V871.8H244.2C246.733 871.8 249.267 871.533 251.8 871C254.333 870.467 256.6 869.6 258.6 868.4C260.6 867.2 262.2 865.6 263.4 863.6C264.733 861.6 265.4 859.067 265.4 856C265.4 851.467 264 847.933 261.2 845.4C258.533 842.733 254.8 841.4 250 841.4C245.333 841.4 240.667 842.2 236 843.8C231.467 845.267 227.533 847.133 224.2 849.4L215.4 831.4C219 829 223.733 826.6 229.6 824.2C235.6 821.667 242.333 820.4 249.8 820.4C256.733 820.4 262.733 821.267 267.8 823C273 824.733 277.267 827.2 280.6 830.4C283.933 833.467 286.4 837.133 288 841.4C289.6 845.667 290.4 850.267 290.4 855.2C290.4 860.133 289 864.867 286.2 869.4C283.4 873.933 279.667 877.4 275 879.8C281.4 882.467 286.333 886.4 289.8 891.6C293.4 896.8 295.2 903 295.2 910.2C295.2 915.933 294.267 921.2 292.4 926C290.533 930.8 287.667 935 283.8 938.6C279.933 942.067 275 944.8 269 946.8C263 948.667 255.867 949.6 247.6 949.6Z" fill="white"/>
<rect x="628" y="781" width="200" height="200" rx="20" fill="#FF9D66"/>
<path d="M720.6 949.6C717.533 949.6 714.267 949.333 710.8 948.8C707.467 948.4 704.2 947.867 701 947.2C697.933 946.533 695.067 945.8 692.4 945C689.733 944.2 687.667 943.467 686.2 942.8L691 922.2C694.067 923.533 698 924.933 702.8 926.4C707.733 927.867 713.6 928.6 720.4 928.6C728.8 928.6 734.667 926.8 738 923.2C741.467 919.6 743.2 915.133 743.2 909.8C743.2 903.267 740.6 898.733 735.4 896.2C730.2 893.533 723.6 892.2 715.6 892.2H708V871.8H717.2C719.733 871.8 722.267 871.533 724.8 871C727.333 870.467 729.6 869.6 731.6 868.4C733.6 867.2 735.2 865.6 736.4 863.6C737.733 861.6 738.4 859.067 738.4 856C738.4 851.467 737 847.933 734.2 845.4C731.533 842.733 727.8 841.4 723 841.4C718.333 841.4 713.667 842.2 709 843.8C704.467 845.267 700.533 847.133 697.2 849.4L688.4 831.4C692 829 696.733 826.6 702.6 824.2C708.6 821.667 715.333 820.4 722.8 820.4C729.733 820.4 735.733 821.267 740.8 823C746 824.733 750.267 827.2 753.6 830.4C756.933 833.467 759.4 837.133 761 841.4C762.6 845.667 763.4 850.267 763.4 855.2C763.4 860.133 762 864.867 759.2 869.4C756.4 873.933 752.667 877.4 748 879.8C754.4 882.467 759.333 886.4 762.8 891.6C766.4 896.8 768.2 903 768.2 910.2C768.2 915.933 767.267 921.2 765.4 926C763.533 930.8 760.667 935 756.8 938.6C752.933 942.067 748 944.8 742 946.8C736 948.667 728.867 949.6 720.6 949.6Z" fill="white"/>
<rect x="1337" y="427" width="200" height="200" rx="20" fill="#FF8266"/>
<path d="M1476.2 498.6C1476.2 504.333 1474.8 510 1472 515.6C1469.2 521.067 1464.8 525.667 1458.8 529.4C1466.4 533.8 1471.73 538.6 1474.8 543.8C1478 549 1479.6 554.733 1479.6 561C1479.6 565 1478.8 569.067 1477.2 573.2C1475.73 577.333 1473.27 581.067 1469.8 584.4C1466.47 587.6 1462.07 590.267 1456.6 592.4C1451.13 594.533 1444.4 595.6 1436.4 595.6C1430.13 595.6 1424.4 594.8 1419.2 593.2C1414.13 591.733 1409.73 589.6 1406 586.8C1402.4 583.867 1399.6 580.333 1397.6 576.2C1395.6 571.933 1394.6 567.2 1394.6 562C1394.6 555.733 1396.07 549.867 1399 544.4C1401.93 538.8 1406.53 533.867 1412.8 529.6C1406.93 525.6 1402.93 521.333 1400.8 516.8C1398.67 512.267 1397.6 507.467 1397.6 502.4C1397.6 498.4 1398.27 494.267 1399.6 490C1401.07 485.6 1403.33 481.667 1406.4 478.2C1409.47 474.733 1413.53 471.867 1418.6 469.6C1423.67 467.333 1429.93 466.2 1437.4 466.2C1449.27 466.2 1458.67 469.133 1465.6 475C1472.67 480.867 1476.2 488.733 1476.2 498.6ZM1456.4 560.6C1456.4 557.933 1455.87 555.6 1454.8 553.6C1453.87 551.6 1452.27 549.8 1450 548.2C1447.87 546.467 1445.07 544.8 1441.6 543.2C1438.13 541.467 1434 539.667 1429.2 537.8C1425.47 540.867 1422.6 544.333 1420.6 548.2C1418.6 551.933 1417.6 555.533 1417.6 559C1417.6 564.333 1419.47 568.4 1423.2 571.2C1427.07 573.867 1431.6 575.2 1436.8 575.2C1442.8 575.2 1447.53 573.8 1451 571C1454.6 568.067 1456.4 564.6 1456.4 560.6ZM1437 486.6C1432.73 486.6 1428.93 487.8 1425.6 490.2C1422.4 492.6 1420.8 496.133 1420.8 500.8C1420.8 505.467 1422.33 509.267 1425.4 512.2C1428.47 515.133 1433.87 518.2 1441.6 521.4C1445.73 518.333 1448.67 515 1450.4 511.4C1452.13 507.667 1453 504.067 1453 500.6C1453 495.933 1451.4 492.467 1448.2 490.2C1445.13 487.8 1441.4 486.6 1437 486.6Z" fill="white"/>
<rect x="1101" y="781" width="200" height="200" rx="20" fill="#FF9D66"/>
<path d="M1237.8 855.8C1237.8 860.067 1237 864.2 1235.4 868.2C1233.8 872.067 1231.67 875.867 1229 879.6C1226.33 883.333 1223.33 886.933 1220 890.4C1216.67 893.867 1213.27 897.2 1209.8 900.4C1208.07 902 1206.07 903.933 1203.8 906.2C1201.53 908.333 1199.4 910.6 1197.4 913C1195.4 915.267 1193.67 917.6 1192.2 920C1190.87 922.4 1190.2 924.6 1190.2 926.6H1243.4V947H1162.6C1162.2 945.667 1162 944 1162 942C1162.13 940 1162.2 938.6 1162.2 937.8C1162.2 931.133 1163.4 925 1165.8 919.4C1168.33 913.8 1171.47 908.667 1175.2 904C1179.07 899.2 1183.13 894.8 1187.4 890.8C1191.8 886.667 1195.87 882.733 1199.6 879C1203.47 875.267 1206.6 871.667 1209 868.2C1211.53 864.733 1212.8 861.2 1212.8 857.6C1212.8 852.533 1211.27 848.667 1208.2 846C1205.13 843.2 1201.27 841.8 1196.6 841.8C1192.73 841.8 1188.67 842.733 1184.4 844.6C1180.13 846.467 1175.93 849.6 1171.8 854L1159.6 836.8C1164.93 831.2 1171.07 827.067 1178 824.4C1185.07 821.733 1192.07 820.4 1199 820.4C1204.07 820.4 1208.93 821.133 1213.6 822.6C1218.27 824.067 1222.4 826.267 1226 829.2C1229.6 832.133 1232.47 835.867 1234.6 840.4C1236.73 844.8 1237.8 849.933 1237.8 855.8Z" fill="white"/>
<rect x="1574" y="781" width="200" height="200" rx="20" fill="#FF9D66"/>
<path d="M1650.4 947C1650.8 938.467 1652.2 929.467 1654.6 920C1657 910.4 1659.87 900.933 1663.2 891.6C1666.67 882.267 1670.4 873.467 1674.4 865.2C1678.4 856.8 1682.2 849.6 1685.8 843.6H1633.8V823.2H1714.6V841.8C1711 845.933 1707.07 851.733 1702.8 859.2C1698.53 866.667 1694.47 875.133 1690.6 884.6C1686.87 894.067 1683.53 904.2 1680.6 915C1677.8 925.667 1676.07 936.333 1675.4 947H1650.4Z" fill="white"/>
<path d="M647.253 402.484L695.178 330.351L733.685 407.922L647.253 402.484Z" fill="#FF6F66"/>
<path d="M802.179 336.743L718.878 378.093L709.985 360.179L793.287 318.828L802.179 336.743Z" fill="#FF6F66"/>
<path d="M318.09 766.693L319.705 680.106L393.884 724.798L318.09 766.693Z" fill="#FF8266"/>
<path d="M402.778 645.507L365.36 707.613L348.229 697.291L385.647 635.186L402.778 645.507Z" fill="#FF8266"/>
<path d="M1262.09 766.693L1263.7 680.106L1337.88 724.798L1262.09 766.693Z" fill="#FF8266"/>
<path d="M1346.78 645.507L1309.36 707.613L1292.23 697.291L1329.65 635.186L1346.78 645.507Z" fill="#FF8266"/>
<path d="M1613.21 766.693L1611.6 680.106L1537.42 724.798L1613.21 766.693Z" fill="#FF8266"/>
<path d="M1528.52 645.507L1565.94 707.613L1583.07 697.291L1545.66 635.186L1528.52 645.507Z" fill="#FF8266"/>
<path d="M667.213 766.693L665.598 680.106L591.418 724.798L667.213 766.693Z" fill="#FF8266"/>
<path d="M582.524 645.507L619.942 707.613L637.073 697.291L599.655 635.186L582.524 645.507Z" fill="#FF8266"/>
<path d="M1281.73 404.484L1233.81 332.351L1195.3 409.922L1281.73 404.484Z" fill="#FF6F66"/>
<path d="M1126.81 338.743L1210.11 380.093L1219 362.179L1135.7 320.828L1126.81 338.743Z" fill="#FF6F66"/>
<path d="M802 378.213L1125.21 55M1125.21 378.213L802 55" stroke="#FF0000" stroke-width="30"/>
<rect x="1611" y="1396" width="200" height="200" rx="20" fill="#FF8266"/>
<path d="M1718 1469C1715.6 1472.07 1713.13 1475.33 1710.6 1478.8C1708.07 1482.27 1705.53 1485.93 1703 1489.8C1700.6 1493.53 1698.27 1497.33 1696 1501.2C1693.73 1505.07 1691.73 1508.87 1690 1512.6H1718V1469ZM1742.6 1438.2V1512.6H1756V1532.8H1742.6V1562H1718V1532.8H1666.4V1514.8C1668.93 1509.6 1672.2 1503.73 1676.2 1497.2C1680.2 1490.53 1684.6 1483.73 1689.4 1476.8C1694.2 1469.87 1699.27 1463.07 1704.6 1456.4C1709.93 1449.6 1715.27 1443.53 1720.6 1438.2H1742.6Z" fill="white"/>
<rect x="1375" y="1750" width="200" height="200" rx="20" fill="#FF9D66"/>
<path d="M1467.6 1918.6C1464.53 1918.6 1461.27 1918.33 1457.8 1917.8C1454.47 1917.4 1451.2 1916.87 1448 1916.2C1444.93 1915.53 1442.07 1914.8 1439.4 1914C1436.73 1913.2 1434.67 1912.47 1433.2 1911.8L1438 1891.2C1441.07 1892.53 1445 1893.93 1449.8 1895.4C1454.73 1896.87 1460.6 1897.6 1467.4 1897.6C1475.8 1897.6 1481.67 1895.8 1485 1892.2C1488.47 1888.6 1490.2 1884.13 1490.2 1878.8C1490.2 1872.27 1487.6 1867.73 1482.4 1865.2C1477.2 1862.53 1470.6 1861.2 1462.6 1861.2H1455V1840.8H1464.2C1466.73 1840.8 1469.27 1840.53 1471.8 1840C1474.33 1839.47 1476.6 1838.6 1478.6 1837.4C1480.6 1836.2 1482.2 1834.6 1483.4 1832.6C1484.73 1830.6 1485.4 1828.07 1485.4 1825C1485.4 1820.47 1484 1816.93 1481.2 1814.4C1478.53 1811.73 1474.8 1810.4 1470 1810.4C1465.33 1810.4 1460.67 1811.2 1456 1812.8C1451.47 1814.27 1447.53 1816.13 1444.2 1818.4L1435.4 1800.4C1439 1798 1443.73 1795.6 1449.6 1793.2C1455.6 1790.67 1462.33 1789.4 1469.8 1789.4C1476.73 1789.4 1482.73 1790.27 1487.8 1792C1493 1793.73 1497.27 1796.2 1500.6 1799.4C1503.93 1802.47 1506.4 1806.13 1508 1810.4C1509.6 1814.67 1510.4 1819.27 1510.4 1824.2C1510.4 1829.13 1509 1833.87 1506.2 1838.4C1503.4 1842.93 1499.67 1846.4 1495 1848.8C1501.4 1851.47 1506.33 1855.4 1509.8 1860.6C1513.4 1865.8 1515.2 1872 1515.2 1879.2C1515.2 1884.93 1514.27 1890.2 1512.4 1895C1510.53 1899.8 1507.67 1904 1503.8 1907.6C1499.93 1911.07 1495 1913.8 1489 1915.8C1483 1917.67 1475.87 1918.6 1467.6 1918.6Z" fill="white"/>
<rect x="1848" y="1750" width="200" height="200" rx="20" fill="#FF9D66"/>
<path d="M1940.6 1918.6C1937.53 1918.6 1934.27 1918.33 1930.8 1917.8C1927.47 1917.4 1924.2 1916.87 1921 1916.2C1917.93 1915.53 1915.07 1914.8 1912.4 1914C1909.73 1913.2 1907.67 1912.47 1906.2 1911.8L1911 1891.2C1914.07 1892.53 1918 1893.93 1922.8 1895.4C1927.73 1896.87 1933.6 1897.6 1940.4 1897.6C1948.8 1897.6 1954.67 1895.8 1958 1892.2C1961.47 1888.6 1963.2 1884.13 1963.2 1878.8C1963.2 1872.27 1960.6 1867.73 1955.4 1865.2C1950.2 1862.53 1943.6 1861.2 1935.6 1861.2H1928V1840.8H1937.2C1939.73 1840.8 1942.27 1840.53 1944.8 1840C1947.33 1839.47 1949.6 1838.6 1951.6 1837.4C1953.6 1836.2 1955.2 1834.6 1956.4 1832.6C1957.73 1830.6 1958.4 1828.07 1958.4 1825C1958.4 1820.47 1957 1816.93 1954.2 1814.4C1951.53 1811.73 1947.8 1810.4 1943 1810.4C1938.33 1810.4 1933.67 1811.2 1929 1812.8C1924.47 1814.27 1920.53 1816.13 1917.2 1818.4L1908.4 1800.4C1912 1798 1916.73 1795.6 1922.6 1793.2C1928.6 1790.67 1935.33 1789.4 1942.8 1789.4C1949.73 1789.4 1955.73 1790.27 1960.8 1792C1966 1793.73 1970.27 1796.2 1973.6 1799.4C1976.93 1802.47 1979.4 1806.13 1981 1810.4C1982.6 1814.67 1983.4 1819.27 1983.4 1824.2C1983.4 1829.13 1982 1833.87 1979.2 1838.4C1976.4 1842.93 1972.67 1846.4 1968 1848.8C1974.4 1851.47 1979.33 1855.4 1982.8 1860.6C1986.4 1865.8 1988.2 1872 1988.2 1879.2C1988.2 1884.93 1987.27 1890.2 1985.4 1895C1983.53 1899.8 1980.67 1904 1976.8 1907.6C1972.93 1911.07 1968 1913.8 1962 1915.8C1956 1917.67 1948.87 1918.6 1940.6 1918.6Z" fill="white"/>
<rect x="2557" y="1396" width="200" height="200" rx="20" fill="#FF8266"/>
<path d="M2696.2 1467.6C2696.2 1473.33 2694.8 1479 2692 1484.6C2689.2 1490.07 2684.8 1494.67 2678.8 1498.4C2686.4 1502.8 2691.73 1507.6 2694.8 1512.8C2698 1518 2699.6 1523.73 2699.6 1530C2699.6 1534 2698.8 1538.07 2697.2 1542.2C2695.73 1546.33 2693.27 1550.07 2689.8 1553.4C2686.47 1556.6 2682.07 1559.27 2676.6 1561.4C2671.13 1563.53 2664.4 1564.6 2656.4 1564.6C2650.13 1564.6 2644.4 1563.8 2639.2 1562.2C2634.13 1560.73 2629.73 1558.6 2626 1555.8C2622.4 1552.87 2619.6 1549.33 2617.6 1545.2C2615.6 1540.93 2614.6 1536.2 2614.6 1531C2614.6 1524.73 2616.07 1518.87 2619 1513.4C2621.93 1507.8 2626.53 1502.87 2632.8 1498.6C2626.93 1494.6 2622.93 1490.33 2620.8 1485.8C2618.67 1481.27 2617.6 1476.47 2617.6 1471.4C2617.6 1467.4 2618.27 1463.27 2619.6 1459C2621.07 1454.6 2623.33 1450.67 2626.4 1447.2C2629.47 1443.73 2633.53 1440.87 2638.6 1438.6C2643.67 1436.33 2649.93 1435.2 2657.4 1435.2C2669.27 1435.2 2678.67 1438.13 2685.6 1444C2692.67 1449.87 2696.2 1457.73 2696.2 1467.6ZM2676.4 1529.6C2676.4 1526.93 2675.87 1524.6 2674.8 1522.6C2673.87 1520.6 2672.27 1518.8 2670 1517.2C2667.87 1515.47 2665.07 1513.8 2661.6 1512.2C2658.13 1510.47 2654 1508.67 2649.2 1506.8C2645.47 1509.87 2642.6 1513.33 2640.6 1517.2C2638.6 1520.93 2637.6 1524.53 2637.6 1528C2637.6 1533.33 2639.47 1537.4 2643.2 1540.2C2647.07 1542.87 2651.6 1544.2 2656.8 1544.2C2662.8 1544.2 2667.53 1542.8 2671 1540C2674.6 1537.07 2676.4 1533.6 2676.4 1529.6ZM2657 1455.6C2652.73 1455.6 2648.93 1456.8 2645.6 1459.2C2642.4 1461.6 2640.8 1465.13 2640.8 1469.8C2640.8 1474.47 2642.33 1478.27 2645.4 1481.2C2648.47 1484.13 2653.87 1487.2 2661.6 1490.4C2665.73 1487.33 2668.67 1484 2670.4 1480.4C2672.13 1476.67 2673 1473.07 2673 1469.6C2673 1464.93 2671.4 1461.47 2668.2 1459.2C2665.13 1456.8 2661.4 1455.6 2657 1455.6Z" fill="white"/>
<rect x="2321" y="1750" width="200" height="200" rx="20" fill="#FF9D66"/>
<path d="M2457.8 1824.8C2457.8 1829.07 2457 1833.2 2455.4 1837.2C2453.8 1841.07 2451.67 1844.87 2449 1848.6C2446.33 1852.33 2443.33 1855.93 2440 1859.4C2436.67 1862.87 2433.27 1866.2 2429.8 1869.4C2428.07 1871 2426.07 1872.93 2423.8 1875.2C2421.53 1877.33 2419.4 1879.6 2417.4 1882C2415.4 1884.27 2413.67 1886.6 2412.2 1889C2410.87 1891.4 2410.2 1893.6 2410.2 1895.6H2463.4V1916H2382.6C2382.2 1914.67 2382 1913 2382 1911C2382.13 1909 2382.2 1907.6 2382.2 1906.8C2382.2 1900.13 2383.4 1894 2385.8 1888.4C2388.33 1882.8 2391.47 1877.67 2395.2 1873C2399.07 1868.2 2403.13 1863.8 2407.4 1859.8C2411.8 1855.67 2415.87 1851.73 2419.6 1848C2423.47 1844.27 2426.6 1840.67 2429 1837.2C2431.53 1833.73 2432.8 1830.2 2432.8 1826.6C2432.8 1821.53 2431.27 1817.67 2428.2 1815C2425.13 1812.2 2421.27 1810.8 2416.6 1810.8C2412.73 1810.8 2408.67 1811.73 2404.4 1813.6C2400.13 1815.47 2395.93 1818.6 2391.8 1823L2379.6 1805.8C2384.93 1800.2 2391.07 1796.07 2398 1793.4C2405.07 1790.73 2412.07 1789.4 2419 1789.4C2424.07 1789.4 2428.93 1790.13 2433.6 1791.6C2438.27 1793.07 2442.4 1795.27 2446 1798.2C2449.6 1801.13 2452.47 1804.87 2454.6 1809.4C2456.73 1813.8 2457.8 1818.93 2457.8 1824.8Z" fill="white"/>
<path d="M1867.25 1371.48L1915.18 1299.35L1953.69 1376.92L1867.25 1371.48Z" fill="#FF6F66"/>
<path d="M2022.18 1305.74L1938.88 1347.09L1929.99 1329.18L2013.29 1287.83L2022.18 1305.74Z" fill="#FF6F66"/>
<path d="M1538.09 1735.69L1539.7 1649.11L1613.88 1693.8L1538.09 1735.69Z" fill="#FF8266"/>
<path d="M1622.78 1614.51L1585.36 1676.61L1568.23 1666.29L1605.65 1604.19L1622.78 1614.51Z" fill="#FF8266"/>
<path d="M2482.09 1735.69L2483.7 1649.11L2557.88 1693.8L2482.09 1735.69Z" fill="#FF8266"/>
<path d="M2566.78 1614.51L2529.36 1676.61L2512.23 1666.29L2549.65 1604.19L2566.78 1614.51Z" fill="#FF8266"/>
<path d="M1887.21 1735.69L1885.6 1649.11L1811.42 1693.8L1887.21 1735.69Z" fill="#FF8266"/>
<path d="M1802.52 1614.51L1839.94 1676.61L1857.07 1666.29L1819.66 1604.19L1802.52 1614.51Z" fill="#FF8266"/>
<path d="M2501.73 1373.48L2453.81 1301.35L2415.3 1378.92L2501.73 1373.48Z" fill="#FF6F66"/>
<path d="M2346.81 1307.74L2430.11 1349.09L2439 1331.18L2355.7 1289.83L2346.81 1307.74Z" fill="#FF6F66"/>
<rect x="2084" y="1086" width="200" height="200" rx="20" fill="#FF9D66"/>
<path d="M2160.4 1252C2160.8 1243.47 2162.2 1234.47 2164.6 1225C2167 1215.4 2169.87 1205.93 2173.2 1196.6C2176.67 1187.27 2180.4 1178.47 2184.4 1170.2C2188.4 1161.8 2192.2 1154.6 2195.8 1148.6H2143.8V1128.2H2224.6V1146.8C2221 1150.93 2217.07 1156.73 2212.8 1164.2C2208.53 1171.67 2204.47 1180.13 2200.6 1189.6C2196.87 1199.07 2193.53 1209.2 2190.6 1220C2187.8 1230.67 2186.07 1241.33 2185.4 1252H2160.4Z" fill="white"/>
<rect x="391" y="2414" width="200" height="200" rx="20" fill="#FF8266"/>
<path d="M498 2487C495.6 2490.07 493.133 2493.33 490.6 2496.8C488.067 2500.27 485.533 2503.93 483 2507.8C480.6 2511.53 478.267 2515.33 476 2519.2C473.733 2523.07 471.733 2526.87 470 2530.6H498V2487ZM522.6 2456.2V2530.6H536V2550.8H522.6V2580H498V2550.8H446.4V2532.8C448.933 2527.6 452.2 2521.73 456.2 2515.2C460.2 2508.53 464.6 2501.73 469.4 2494.8C474.2 2487.87 479.267 2481.07 484.6 2474.4C489.933 2467.6 495.267 2461.53 500.6 2456.2H522.6Z" fill="white"/>
<rect x="155" y="2768" width="200" height="200" rx="20" fill="#FF9D66"/>
<path d="M247.6 2936.6C244.533 2936.6 241.267 2936.33 237.8 2935.8C234.467 2935.4 231.2 2934.87 228 2934.2C224.933 2933.53 222.067 2932.8 219.4 2932C216.733 2931.2 214.667 2930.47 213.2 2929.8L218 2909.2C221.067 2910.53 225 2911.93 229.8 2913.4C234.733 2914.87 240.6 2915.6 247.4 2915.6C255.8 2915.6 261.667 2913.8 265 2910.2C268.467 2906.6 270.2 2902.13 270.2 2896.8C270.2 2890.27 267.6 2885.73 262.4 2883.2C257.2 2880.53 250.6 2879.2 242.6 2879.2H235V2858.8H244.2C246.733 2858.8 249.267 2858.53 251.8 2858C254.333 2857.47 256.6 2856.6 258.6 2855.4C260.6 2854.2 262.2 2852.6 263.4 2850.6C264.733 2848.6 265.4 2846.07 265.4 2843C265.4 2838.47 264 2834.93 261.2 2832.4C258.533 2829.73 254.8 2828.4 250 2828.4C245.333 2828.4 240.667 2829.2 236 2830.8C231.467 2832.27 227.533 2834.13 224.2 2836.4L215.4 2818.4C219 2816 223.733 2813.6 229.6 2811.2C235.6 2808.67 242.333 2807.4 249.8 2807.4C256.733 2807.4 262.733 2808.27 267.8 2810C273 2811.73 277.267 2814.2 280.6 2817.4C283.933 2820.47 286.4 2824.13 288 2828.4C289.6 2832.67 290.4 2837.27 290.4 2842.2C290.4 2847.13 289 2851.87 286.2 2856.4C283.4 2860.93 279.667 2864.4 275 2866.8C281.4 2869.47 286.333 2873.4 289.8 2878.6C293.4 2883.8 295.2 2890 295.2 2897.2C295.2 2902.93 294.267 2908.2 292.4 2913C290.533 2917.8 287.667 2922 283.8 2925.6C279.933 2929.07 275 2931.8 269 2933.8C263 2935.67 255.867 2936.6 247.6 2936.6Z" fill="white"/>
<rect x="628" y="2768" width="200" height="200" rx="20" fill="#FF9D66"/>
<path d="M720.6 2936.6C717.533 2936.6 714.267 2936.33 710.8 2935.8C707.467 2935.4 704.2 2934.87 701 2934.2C697.933 2933.53 695.067 2932.8 692.4 2932C689.733 2931.2 687.667 2930.47 686.2 2929.8L691 2909.2C694.067 2910.53 698 2911.93 702.8 2913.4C707.733 2914.87 713.6 2915.6 720.4 2915.6C728.8 2915.6 734.667 2913.8 738 2910.2C741.467 2906.6 743.2 2902.13 743.2 2896.8C743.2 2890.27 740.6 2885.73 735.4 2883.2C730.2 2880.53 723.6 2879.2 715.6 2879.2H708V2858.8H717.2C719.733 2858.8 722.267 2858.53 724.8 2858C727.333 2857.47 729.6 2856.6 731.6 2855.4C733.6 2854.2 735.2 2852.6 736.4 2850.6C737.733 2848.6 738.4 2846.07 738.4 2843C738.4 2838.47 737 2834.93 734.2 2832.4C731.533 2829.73 727.8 2828.4 723 2828.4C718.333 2828.4 713.667 2829.2 709 2830.8C704.467 2832.27 700.533 2834.13 697.2 2836.4L688.4 2818.4C692 2816 696.733 2813.6 702.6 2811.2C708.6 2808.67 715.333 2807.4 722.8 2807.4C729.733 2807.4 735.733 2808.27 740.8 2810C746 2811.73 750.267 2814.2 753.6 2817.4C756.933 2820.47 759.4 2824.13 761 2828.4C762.6 2832.67 763.4 2837.27 763.4 2842.2C763.4 2847.13 762 2851.87 759.2 2856.4C756.4 2860.93 752.667 2864.4 748 2866.8C754.4 2869.47 759.333 2873.4 762.8 2878.6C766.4 2883.8 768.2 2890 768.2 2897.2C768.2 2902.93 767.267 2908.2 765.4 2913C763.533 2917.8 760.667 2922 756.8 2925.6C752.933 2929.07 748 2931.8 742 2933.8C736 2935.67 728.867 2936.6 720.6 2936.6Z" fill="white"/>
<rect x="864" y="2104" width="200" height="200" rx="20" fill="#FF8266"/>
<path d="M1003.2 2175.6C1003.2 2181.33 1001.8 2187 999 2192.6C996.2 2198.07 991.8 2202.67 985.8 2206.4C993.4 2210.8 998.733 2215.6 1001.8 2220.8C1005 2226 1006.6 2231.73 1006.6 2238C1006.6 2242 1005.8 2246.07 1004.2 2250.2C1002.73 2254.33 1000.27 2258.07 996.8 2261.4C993.467 2264.6 989.067 2267.27 983.6 2269.4C978.133 2271.53 971.4 2272.6 963.4 2272.6C957.133 2272.6 951.4 2271.8 946.2 2270.2C941.133 2268.73 936.733 2266.6 933 2263.8C929.4 2260.87 926.6 2257.33 924.6 2253.2C922.6 2248.93 921.6 2244.2 921.6 2239C921.6 2232.73 923.067 2226.87 926 2221.4C928.933 2215.8 933.533 2210.87 939.8 2206.6C933.933 2202.6 929.933 2198.33 927.8 2193.8C925.667 2189.27 924.6 2184.47 924.6 2179.4C924.6 2175.4 925.267 2171.27 926.6 2167C928.067 2162.6 930.333 2158.67 933.4 2155.2C936.467 2151.73 940.533 2148.87 945.6 2146.6C950.667 2144.33 956.933 2143.2 964.4 2143.2C976.267 2143.2 985.667 2146.13 992.6 2152C999.667 2157.87 1003.2 2165.73 1003.2 2175.6ZM983.4 2237.6C983.4 2234.93 982.867 2232.6 981.8 2230.6C980.867 2228.6 979.267 2226.8 977 2225.2C974.867 2223.47 972.067 2221.8 968.6 2220.2C965.133 2218.47 961 2216.67 956.2 2214.8C952.467 2217.87 949.6 2221.33 947.6 2225.2C945.6 2228.93 944.6 2232.53 944.6 2236C944.6 2241.33 946.467 2245.4 950.2 2248.2C954.067 2250.87 958.6 2252.2 963.8 2252.2C969.8 2252.2 974.533 2250.8 978 2248C981.6 2245.07 983.4 2241.6 983.4 2237.6ZM964 2163.6C959.733 2163.6 955.933 2164.8 952.6 2167.2C949.4 2169.6 947.8 2173.13 947.8 2177.8C947.8 2182.47 949.333 2186.27 952.4 2189.2C955.467 2192.13 960.867 2195.2 968.6 2198.4C972.733 2195.33 975.667 2192 977.4 2188.4C979.133 2184.67 980 2181.07 980 2177.6C980 2172.93 978.4 2169.47 975.2 2167.2C972.133 2164.8 968.4 2163.6 964 2163.6Z" fill="white"/>
<rect x="1101" y="2768" width="200" height="200" rx="20" fill="#FF9D66"/>
<path d="M1237.8 2842.8C1237.8 2847.07 1237 2851.2 1235.4 2855.2C1233.8 2859.07 1231.67 2862.87 1229 2866.6C1226.33 2870.33 1223.33 2873.93 1220 2877.4C1216.67 2880.87 1213.27 2884.2 1209.8 2887.4C1208.07 2889 1206.07 2890.93 1203.8 2893.2C1201.53 2895.33 1199.4 2897.6 1197.4 2900C1195.4 2902.27 1193.67 2904.6 1192.2 2907C1190.87 2909.4 1190.2 2911.6 1190.2 2913.6H1243.4V2934H1162.6C1162.2 2932.67 1162 2931 1162 2929C1162.13 2927 1162.2 2925.6 1162.2 2924.8C1162.2 2918.13 1163.4 2912 1165.8 2906.4C1168.33 2900.8 1171.47 2895.67 1175.2 2891C1179.07 2886.2 1183.13 2881.8 1187.4 2877.8C1191.8 2873.67 1195.87 2869.73 1199.6 2866C1203.47 2862.27 1206.6 2858.67 1209 2855.2C1211.53 2851.73 1212.8 2848.2 1212.8 2844.6C1212.8 2839.53 1211.27 2835.67 1208.2 2833C1205.13 2830.2 1201.27 2828.8 1196.6 2828.8C1192.73 2828.8 1188.67 2829.73 1184.4 2831.6C1180.13 2833.47 1175.93 2836.6 1171.8 2841L1159.6 2823.8C1164.93 2818.2 1171.07 2814.07 1178 2811.4C1185.07 2808.73 1192.07 2807.4 1199 2807.4C1204.07 2807.4 1208.93 2808.13 1213.6 2809.6C1218.27 2811.07 1222.4 2813.27 1226 2816.2C1229.6 2819.13 1232.47 2822.87 1234.6 2827.4C1236.73 2831.8 1237.8 2836.93 1237.8 2842.8Z" fill="white"/>
<path d="M647.253 2389.48L695.179 2317.35L733.685 2394.92L647.253 2389.48Z" fill="#FF6F66"/>
<path d="M802.18 2323.74L718.878 2365.09L709.986 2347.18L793.287 2305.83L802.18 2323.74Z" fill="#FF6F66"/>
<path d="M318.09 2753.69L319.705 2667.11L393.884 2711.8L318.09 2753.69Z" fill="#FF8266"/>
<path d="M402.778 2632.51L365.36 2694.61L348.229 2684.29L385.647 2622.19L402.778 2632.51Z" fill="#FF8266"/>
<path d="M1262.09 2753.69L1263.7 2667.11L1337.88 2711.8L1262.09 2753.69Z" fill="#FF8266"/>
<path d="M1346.78 2632.51L1309.36 2694.61L1292.23 2684.29L1329.65 2622.19L1346.78 2632.51Z" fill="#FF8266"/>
<path d="M667.213 2753.69L665.598 2667.11L591.418 2711.8L667.213 2753.69Z" fill="#FF8266"/>
<path d="M582.524 2632.51L619.942 2694.61L637.073 2684.29L599.655 2622.19L582.524 2632.51Z" fill="#FF8266"/>
<path d="M1281.73 2391.48L1233.81 2319.35L1195.3 2396.92L1281.73 2391.48Z" fill="#FF6F66"/>
<path d="M1126.81 2325.74L1210.11 2367.09L1219 2349.18L1135.7 2307.83L1126.81 2325.74Z" fill="#FF6F66"/>
<rect x="1336" y="2414" width="200" height="200" rx="20" fill="#FF9D66"/>
<path d="M1413.4 2580C1413.8 2571.47 1415.2 2562.47 1417.6 2553C1420 2543.4 1422.87 2533.93 1426.2 2524.6C1429.67 2515.27 1433.4 2506.47 1437.4 2498.2C1441.4 2489.8 1445.2 2482.6 1448.8 2476.6H1396.8V2456.2H1477.6V2474.8C1474 2478.93 1470.07 2484.73 1465.8 2492.2C1461.53 2499.67 1457.47 2508.13 1453.6 2517.6C1449.87 2527.07 1446.53 2537.2 1443.6 2548C1440.8 2558.67 1439.07 2569.33 1438.4 2580H1413.4Z" fill="white"/>
<path d="M1195.44 214.216L1291.46 277.657L1298.39 162.782L1195.44 214.216Z" fill="#F841C4"/>
<path d="M1294.14 221.62C1546.92 236.834 1719.09 425.32 1703.56 683.472" stroke="#F841C4" stroke-width="20"/>
<path d="M1379.08 2319.61L1399.17 2255.8L1333.87 2270.31L1379.08 2319.61Z" fill="#F841C4"/>
<path d="M1152.65 2178.26L1201.15 2132.19L1216.8 2197.23L1152.65 2178.26Z" fill="#F841C4"/>
<path d="M1208.7 2163.76C1283.73 2146.4 1350.2 2186.53 1367.93 2263.16" stroke="#F841C4" stroke-width="20"/>
</svg>
