<svg width="1929" height="1065" viewBox="0 0 1929 1065" fill="none" xmlns="http://www.w3.org/2000/svg">
<rect x="864" y="101" width="200" height="200" rx="20" fill="#FF6F66"/>
<path d="M956.6 269.6C953.533 269.6 950.267 269.333 946.8 268.8C943.467 268.4 940.2 267.867 937 267.2C933.933 266.533 931.067 265.8 928.4 265C925.733 264.2 923.667 263.467 922.2 262.8L927 242.2C930.067 243.533 934 244.933 938.8 246.4C943.733 247.867 949.6 248.6 956.4 248.6C964.8 248.6 970.667 246.8 974 243.2C977.467 239.6 979.2 235.133 979.2 229.8C979.2 223.267 976.6 218.733 971.4 216.2C966.2 213.533 959.6 212.2 951.6 212.2H944V191.8H953.2C955.733 191.8 958.267 191.533 960.8 191C963.333 190.467 965.6 189.6 967.6 188.4C969.6 187.2 971.2 185.6 972.4 183.6C973.733 181.6 974.4 179.067 974.4 176C974.4 171.467 973 167.933 970.2 165.4C967.533 162.733 963.8 161.4 959 161.4C954.333 161.4 949.667 162.2 945 163.8C940.467 165.267 936.533 167.133 933.2 169.4L924.4 151.4C928 149 932.733 146.6 938.6 144.2C944.6 141.667 951.333 140.4 958.8 140.4C965.733 140.4 971.733 141.267 976.8 143C982 144.733 986.267 147.2 989.6 150.4C992.933 153.467 995.4 157.133 997 161.4C998.6 165.667 999.4 170.267 999.4 175.2C999.4 180.133 998 184.867 995.2 189.4C992.4 193.933 988.667 197.4 984 199.8C990.4 202.467 995.333 206.4 998.8 211.6C1002.4 216.8 1004.2 223 1004.2 230.2C1004.2 235.933 1003.27 241.2 1001.4 246C999.533 250.8 996.667 255 992.8 258.6C988.933 262.067 984 264.8 978 266.8C972 268.667 964.867 269.6 956.6 269.6Z" fill="white"/>
<rect x="391" y="411" width="200" height="200" rx="20" fill="#FF8266"/>
<path d="M498 484C495.6 487.067 493.133 490.333 490.6 493.8C488.067 497.267 485.533 500.933 483 504.8C480.6 508.533 478.267 512.333 476 516.2C473.733 520.067 471.733 523.867 470 527.6H498V484ZM522.6 453.2V527.6H536V547.8H522.6V577H498V547.8H446.4V529.8C448.933 524.6 452.2 518.733 456.2 512.2C460.2 505.533 464.6 498.733 469.4 491.8C474.2 484.867 479.267 478.067 484.6 471.4C489.933 464.6 495.267 458.533 500.6 453.2H522.6Z" fill="white"/>
<rect x="155" y="765" width="200" height="200" rx="20" fill="#FF9D66"/>
<path d="M262 838C259.6 841.067 257.133 844.333 254.6 847.8C252.067 851.267 249.533 854.933 247 858.8C244.6 862.533 242.267 866.333 240 870.2C237.733 874.067 235.733 877.867 234 881.6H262V838ZM286.6 807.2V881.6H300V901.8H286.6V931H262V901.8H210.4V883.8C212.933 878.6 216.2 872.733 220.2 866.2C224.2 859.533 228.6 852.733 233.4 845.8C238.2 838.867 243.267 832.067 248.6 825.4C253.933 818.6 259.267 812.533 264.6 807.2H286.6Z" fill="white"/>
<rect x="628" y="765" width="200" height="200" rx="20" fill="#FF9D66"/>
<path d="M704.4 931C704.8 922.467 706.2 913.467 708.6 904C711 894.4 713.867 884.933 717.2 875.6C720.667 866.267 724.4 857.467 728.4 849.2C732.4 840.8 736.2 833.6 739.8 827.6H687.8V807.2H768.6V825.8C765 829.933 761.067 835.733 756.8 843.2C752.533 850.667 748.467 859.133 744.6 868.6C740.867 878.067 737.533 888.2 734.6 899C731.8 909.667 730.067 920.333 729.4 931H704.4Z" fill="white"/>
<rect x="1337" y="411" width="200" height="200" rx="20" fill="#FF8266"/>
<path d="M1429.6 579.6C1426.53 579.6 1423.27 579.333 1419.8 578.8C1416.47 578.4 1413.2 577.867 1410 577.2C1406.93 576.533 1404.07 575.8 1401.4 575C1398.73 574.2 1396.67 573.467 1395.2 572.8L1400 552.2C1403.07 553.533 1407 554.933 1411.8 556.4C1416.73 557.867 1422.6 558.6 1429.4 558.6C1437.8 558.6 1443.67 556.8 1447 553.2C1450.47 549.6 1452.2 545.133 1452.2 539.8C1452.2 533.267 1449.6 528.733 1444.4 526.2C1439.2 523.533 1432.6 522.2 1424.6 522.2H1417V501.8H1426.2C1428.73 501.8 1431.27 501.533 1433.8 501C1436.33 500.467 1438.6 499.6 1440.6 498.4C1442.6 497.2 1444.2 495.6 1445.4 493.6C1446.73 491.6 1447.4 489.067 1447.4 486C1447.4 481.467 1446 477.933 1443.2 475.4C1440.53 472.733 1436.8 471.4 1432 471.4C1427.33 471.4 1422.67 472.2 1418 473.8C1413.47 475.267 1409.53 477.133 1406.2 479.4L1397.4 461.4C1401 459 1405.73 456.6 1411.6 454.2C1417.6 451.667 1424.33 450.4 1431.8 450.4C1438.73 450.4 1444.73 451.267 1449.8 453C1455 454.733 1459.27 457.2 1462.6 460.4C1465.93 463.467 1468.4 467.133 1470 471.4C1471.6 475.667 1472.4 480.267 1472.4 485.2C1472.4 490.133 1471 494.867 1468.2 499.4C1465.4 503.933 1461.67 507.4 1457 509.8C1463.4 512.467 1468.33 516.4 1471.8 521.6C1475.4 526.8 1477.2 533 1477.2 540.2C1477.2 545.933 1476.27 551.2 1474.4 556C1472.53 560.8 1469.67 565 1465.8 568.6C1461.93 572.067 1457 574.8 1451 576.8C1445 578.667 1437.87 579.6 1429.6 579.6Z" fill="white"/>
<rect x="1101" y="765" width="200" height="200" rx="20" fill="#FF9D66"/>
<path d="M1240.2 836.6C1240.2 842.333 1238.8 848 1236 853.6C1233.2 859.067 1228.8 863.667 1222.8 867.4C1230.4 871.8 1235.73 876.6 1238.8 881.8C1242 887 1243.6 892.733 1243.6 899C1243.6 903 1242.8 907.067 1241.2 911.2C1239.73 915.333 1237.27 919.067 1233.8 922.4C1230.47 925.6 1226.07 928.267 1220.6 930.4C1215.13 932.533 1208.4 933.6 1200.4 933.6C1194.13 933.6 1188.4 932.8 1183.2 931.2C1178.13 929.733 1173.73 927.6 1170 924.8C1166.4 921.867 1163.6 918.333 1161.6 914.2C1159.6 909.933 1158.6 905.2 1158.6 900C1158.6 893.733 1160.07 887.867 1163 882.4C1165.93 876.8 1170.53 871.867 1176.8 867.6C1170.93 863.6 1166.93 859.333 1164.8 854.8C1162.67 850.267 1161.6 845.467 1161.6 840.4C1161.6 836.4 1162.27 832.267 1163.6 828C1165.07 823.6 1167.33 819.667 1170.4 816.2C1173.47 812.733 1177.53 809.867 1182.6 807.6C1187.67 805.333 1193.93 804.2 1201.4 804.2C1213.27 804.2 1222.67 807.133 1229.6 813C1236.67 818.867 1240.2 826.733 1240.2 836.6ZM1220.4 898.6C1220.4 895.933 1219.87 893.6 1218.8 891.6C1217.87 889.6 1216.27 887.8 1214 886.2C1211.87 884.467 1209.07 882.8 1205.6 881.2C1202.13 879.467 1198 877.667 1193.2 875.8C1189.47 878.867 1186.6 882.333 1184.6 886.2C1182.6 889.933 1181.6 893.533 1181.6 897C1181.6 902.333 1183.47 906.4 1187.2 909.2C1191.07 911.867 1195.6 913.2 1200.8 913.2C1206.8 913.2 1211.53 911.8 1215 909C1218.6 906.067 1220.4 902.6 1220.4 898.6ZM1201 824.6C1196.73 824.6 1192.93 825.8 1189.6 828.2C1186.4 830.6 1184.8 834.133 1184.8 838.8C1184.8 843.467 1186.33 847.267 1189.4 850.2C1192.47 853.133 1197.87 856.2 1205.6 859.4C1209.73 856.333 1212.67 853 1214.4 849.4C1216.13 845.667 1217 842.067 1217 838.6C1217 833.933 1215.4 830.467 1212.2 828.2C1209.13 825.8 1205.4 824.6 1201 824.6Z" fill="white"/>
<rect x="1574" y="765" width="200" height="200" rx="20" fill="#FF9D66"/>
<path d="M1688.2 894.6C1688.2 891.133 1687.6 888 1686.4 885.2C1685.33 882.267 1683.07 879.8 1679.6 877.8C1676.27 875.667 1671.47 874.067 1665.2 873C1658.93 871.8 1650.73 871.2 1640.6 871.2C1641.93 860 1643 849.067 1643.8 838.4C1644.6 827.6 1645.2 817.2 1645.6 807.2H1708.8V827.6H1666.2C1665.93 831.867 1665.6 836.333 1665.2 841C1664.8 845.667 1664.47 849.467 1664.2 852.4C1680.73 853.467 1693.07 857.467 1701.2 864.4C1709.33 871.333 1713.4 881.067 1713.4 893.6C1713.4 899.333 1712.4 904.667 1710.4 909.6C1708.4 914.4 1705.33 918.6 1701.2 922.2C1697.07 925.8 1691.93 928.6 1685.8 930.6C1679.67 932.6 1672.53 933.6 1664.4 933.6C1661.2 933.6 1657.93 933.4 1654.6 933C1651.27 932.6 1648.07 932.067 1645 931.4C1641.93 930.867 1639.13 930.2 1636.6 929.4C1634.2 928.6 1632.33 927.867 1631 927.2L1636 906.8C1638.93 908.267 1642.67 909.6 1647.2 910.8C1651.73 912 1657.4 912.6 1664.2 912.6C1669 912.6 1672.93 912.067 1676 911C1679.2 909.933 1681.67 908.6 1683.4 907C1685.27 905.267 1686.53 903.333 1687.2 901.2C1687.87 899.067 1688.2 896.867 1688.2 894.6Z" fill="white"/>
<path d="M647.253 386.484L695.178 314.351L733.685 391.922L647.253 386.484Z" fill="#FF6F66"/>
<path d="M802.179 320.743L718.878 362.093L709.985 344.179L793.287 302.828L802.179 320.743Z" fill="#FF6F66"/>
<path d="M318.09 750.693L319.705 664.106L393.884 708.798L318.09 750.693Z" fill="#FF8266"/>
<path d="M402.778 629.507L365.36 691.613L348.229 681.291L385.647 619.186L402.778 629.507Z" fill="#FF8266"/>
<path d="M1262.09 750.693L1263.7 664.106L1337.88 708.798L1262.09 750.693Z" fill="#FF8266"/>
<path d="M1346.78 629.507L1309.36 691.613L1292.23 681.291L1329.65 619.186L1346.78 629.507Z" fill="#FF8266"/>
<path d="M1613.21 750.693L1611.6 664.106L1537.42 708.798L1613.21 750.693Z" fill="#FF8266"/>
<path d="M1528.52 629.507L1565.94 691.613L1583.07 681.291L1545.66 619.186L1528.52 629.507Z" fill="#FF8266"/>
<path d="M667.213 750.693L665.598 664.106L591.418 708.798L667.213 750.693Z" fill="#FF8266"/>
<path d="M582.524 629.507L619.942 691.613L637.073 681.291L599.655 619.186L582.524 629.507Z" fill="#FF8266"/>
<path d="M1281.73 388.484L1233.81 316.351L1195.3 393.922L1281.73 388.484Z" fill="#FF6F66"/>
<path d="M1126.81 322.743L1210.11 364.093L1219 346.179L1135.7 304.828L1126.81 322.743Z" fill="#FF6F66"/>
</svg>
