<svg width="1920" height="1080" viewBox="0 0 1920 1080" preserveAspectRatio="xMidYMid slice" fill="none" xmlns="http://www.w3.org/2000/svg">
<g clip-path="url(#clip0_0_3)">
<rect width="1920" height="1080" fill="#8062EC"/>
<path d="M123 602C123 403 335 -38 955.5 -38C1467 -38 1700.5 232 1700.5 603.5C1700.5 864 1497 1173 1199 1173C1043.5 1173 825.5 1078.71 641 1008.5C348 897 123 810.5 123 602Z" fill="#9C81FF"/>
<g filter="url(#filter0_d_0_3)">
<rect x="750.017" y="644.922" width="58.5225" height="20.4829" rx="10.2414" transform="rotate(-8.32767 750.017 644.922)" fill="#C3B3FF"/>
<rect x="900.143" y="498.74" width="73.1531" height="20.4829" rx="10.2414" transform="rotate(-8.32767 900.143 498.74)" fill="#A88FFF"/>
<rect x="779.989" y="516.328" width="109.73" height="20.4829" rx="10.2414" transform="rotate(-8.32767 779.989 516.328)" fill="#B39EFF"/>
<rect x="939.657" y="617.163" width="36.5765" height="20.4829" rx="10.2414" transform="rotate(-8.32767 939.657 617.163)" fill="#B39EFF"/>
<rect x="738.15" y="563.854" width="87.7837" height="20.4829" rx="10.2414" transform="rotate(-8.32767 738.15 563.854)" fill="#B39EFF"/>
<rect x="856.999" y="587.86" width="36.5765" height="20.4829" rx="10.2414" transform="rotate(-8.32767 856.999 587.86)" fill="#B39EFF"/>
<rect x="744.084" y="604.388" width="102.414" height="20.4829" rx="10.2414" transform="rotate(-8.32767 744.084 604.388)" fill="#A88FFF"/>
<rect x="975.562" y="529.103" width="102.414" height="20.4829" rx="10.2414" transform="rotate(-8.32767 975.562 529.103)" fill="#B39EFF"/>
<rect x="732.217" y="523.321" width="36.5765" height="20.4829" rx="10.2414" transform="rotate(-8.32767 732.217 523.321)" fill="#C3B3FF"/>
<rect x="836.589" y="549.445" width="58.5225" height="20.4829" rx="10.2414" transform="rotate(-8.32767 836.589 549.445)" fill="#C3B3FF"/>
<rect x="988.734" y="568.577" width="43.8919" height="20.4829" rx="10.2414" transform="rotate(-8.32767 988.734 568.577)" fill="#C3B3FF"/>
<rect x="906.076" y="539.274" width="58.5225" height="20.4829" rx="10.2414" transform="rotate(-8.32767 906.076 539.274)" fill="#A88FFF"/>
<rect x="904.771" y="580.867" width="73.1531" height="20.4829" rx="10.2414" transform="rotate(-8.32767 904.771 580.867)" fill="#A88FFF"/>
<rect x="819.503" y="634.751" width="109.73" height="20.4829" rx="10.2414" transform="rotate(-8.32767 819.503 634.751)" fill="#A88FFF"/>
<rect x="755.95" y="685.456" width="109.73" height="20.4829" rx="10.2414" transform="rotate(-8.32767 755.95 685.456)" fill="#A88FFF"/>
<path fill-rule="evenodd" clip-rule="evenodd" d="M1108.21 354.427L661.614 419.799L668.819 469.019L1115.41 403.647L1108.21 354.427ZM700.754 429.596C701.632 435.592 697.482 441.164 691.486 442.042C685.49 442.92 679.917 438.77 679.039 432.774C678.162 426.778 682.311 421.205 688.307 420.328C694.304 419.45 699.876 423.599 700.754 429.596ZM733.326 424.828C734.204 430.824 730.054 436.397 724.058 437.274C718.061 438.152 712.489 434.003 711.611 428.006C710.734 422.01 714.883 416.438 720.879 415.56C726.876 414.682 732.448 418.832 733.326 424.828ZM756.63 432.507C762.626 431.629 766.775 426.056 765.898 420.06C765.02 414.064 759.447 409.914 753.451 410.792C747.455 411.67 743.305 417.242 744.183 423.239C745.061 429.235 750.633 433.384 756.63 432.507Z" fill="#B39EFF"/>
<rect x="656" y="411.749" width="460.865" height="383.322" rx="30" transform="rotate(-8.32767 656 411.749)" stroke="#B39EFF" stroke-width="28"/>
</g>
<g filter="url(#filter1_d_0_3)">
<path d="M1436.96 407.936C1387.56 405.268 1353.58 401.32 1297.3 396.871C1293.48 396.569 1292.9 400.858 1295.58 402.763C1308.02 411.575 1363.72 417.709 1368.73 417.979C1372.9 418.205 1373.79 421.069 1378.67 421.333L1436.07 424.43L1494.16 427.569C1499.03 427.832 1500.23 425.08 1504.4 425.306C1509.41 425.576 1565.45 425.479 1578.76 418.058C1581.64 416.453 1581.52 412.127 1577.69 412.016C1521.26 410.375 1486.36 410.605 1436.96 407.936Z" fill="#B39EFF"/>
<path d="M1441.54 245.546C1447.15 225.783 1468.07 219.52 1464.3 179.537C1479 197.933 1470.05 219.275 1460.14 237.046C1446.62 261.31 1454.58 275.469 1459.49 294.392C1455.14 290.988 1433.58 273.63 1441.54 245.546Z" fill="#B39EFF"/>
<path d="M1422.54 242.055C1424 215.028 1452.1 217.954 1455.34 183.981C1459.85 190.914 1458.7 205.637 1448.63 217.766C1438.55 229.895 1426.5 233.468 1431.65 267.189C1425.6 260.385 1421.9 253.989 1422.54 242.055Z" fill="#B39EFF"/>
<path d="M1537.31 307.044C1534.87 306.913 1534.46 305.483 1534.58 303.377L1531.27 321.856C1532.06 320.138 1532.84 318.772 1534.92 318.885C1547.1 319.542 1560.92 322.049 1560.01 338.898C1559.4 350.13 1538.23 373.98 1516.66 372.815C1514.92 372.721 1510.03 372.809 1513.06 368.396L1492.15 387.332C1497.17 384.787 1500.25 385.853 1508.3 385.389C1520.9 384.661 1570.21 369.723 1572.05 335.676C1572.88 320.231 1560.61 308.304 1537.31 307.044Z" fill="#B39EFF"/>
<path d="M1534.79 301.98L1351.46 292.075C1353.3 335.475 1358.68 364.984 1391.04 386.094C1392.8 387.245 1394.75 388.407 1394.65 390.162C1394.33 396.129 1392.66 401.319 1398.22 401.619L1476.49 405.848C1482.06 406.149 1480.95 400.808 1481.28 394.841C1481.37 393.086 1483.43 392.142 1485.31 391.187C1519.38 373.876 1528.09 345.553 1534.58 303.377C1534.65 302.913 1534.72 302.447 1534.79 301.98Z" fill="#B39EFF"/>
</g>
<g filter="url(#filter2_d_0_3)">
<rect x="567" y="126.76" width="189.507" height="189.507" rx="50" transform="rotate(-4.46715 567 126.76)" fill="#B39EFF"/>
<path d="M630.187 205.634L600.526 179.87L635.783 188.78L654.998 180.367L731.845 246.077L684.612 249.767L685.854 265.654L739.098 261.494L737.924 246.466L764.599 270.251C759.582 283.558 753.604 291.092 742.128 298.113C738.509 300.327 732.983 303.532 724.169 304.436L704.995 306.064L603.082 218.119L630.187 205.634Z" fill="#B7A3FF"/>
<path d="M737.857 245.607L684.612 249.767L685.854 265.654L739.098 261.494L737.857 245.607Z" fill="#C3B2FF"/>
<path d="M654.569 180.4L599.285 163.983L600.492 179.441L636.212 188.747L602.371 203.487L603.579 218.945L655.642 194.141L655.105 187.271L654.569 180.4Z" fill="#C3B2FF"/>
</g>
<path d="M1384.32 488.859L1381.56 502.35C1380.9 505.597 1383 508.755 1386.23 509.479C1409.99 514.792 1423.58 521.849 1417.21 553.009C1405.1 612.192 1368.22 656.166 1399.75 703.99C1401.76 707.043 1400.9 711.251 1397.85 713.269C1350.08 744.874 1366.74 799.797 1354.63 858.98C1348.26 890.14 1332.99 891.295 1309.05 886.855C1305.8 886.25 1302.62 888.329 1301.96 891.576L1299.2 905.067C1298.58 908.095 1300.37 911.121 1303.36 911.889C1343.35 922.146 1371.38 905.636 1379.01 868.346C1392.22 803.753 1374.84 730.821 1438.27 728.195C1441.15 728.076 1443.7 726.087 1444.28 723.261L1445.33 718.144L1446.37 713.027C1446.95 710.201 1445.39 707.371 1442.78 706.13C1385.48 678.813 1430.09 618.558 1443.3 553.964C1450.93 516.675 1431.63 490.484 1390.83 484.22C1387.77 483.751 1384.94 485.831 1384.32 488.859Z" fill="#B39EFF"/>
<path d="M457.627 437.933L459.353 451.595C459.768 454.883 457.43 457.872 454.151 458.348C430.058 461.84 415.972 467.844 419.958 499.398C427.528 559.329 460.96 605.979 425.887 651.268C423.648 654.16 424.186 658.421 427.074 660.665C472.307 695.81 451.525 749.308 459.096 809.24C463.081 840.794 478.218 843.106 502.422 840.498C505.717 840.143 508.724 842.458 509.14 845.745L510.866 859.407C511.253 862.474 509.237 865.354 506.194 865.893C465.548 873.081 438.849 854.488 434.08 816.727C425.817 751.315 448.685 679.915 385.639 672.476C382.775 672.138 380.385 669.961 380.023 667.1L379.369 661.918L378.714 656.736C378.353 653.874 380.127 651.171 382.817 650.132C442.033 627.249 402.129 563.778 393.866 498.367C389.096 460.605 410.333 435.957 451.49 432.813C454.571 432.578 457.24 434.866 457.627 437.933Z" fill="#B39EFF"/>
<circle cx="123" cy="112" r="60" fill="#9C81FF"/>
<circle cx="1800" cy="306" r="48" fill="#9C81FF"/>
<circle cx="1774.5" cy="956.5" r="73.5" fill="#9C81FF"/>
<circle cx="202.5" cy="937.5" r="42.5" fill="#9C81FF"/>
<circle cx="478.5" cy="263.5" r="46.5" fill="#8062EC"/>
<circle cx="1274.5" cy="224.5" r="52.5" fill="#8062EC"/>
<circle cx="717" cy="957" r="27" fill="#8062EC"/>
<path d="M804.259 940.408L805.347 932.503L822.456 924.803L822.489 924.565L808.094 912.531L809.182 904.625L830.081 922.642L829.247 928.705L804.259 940.408ZM839.9 945.311L840.988 937.406L858.097 929.706L858.129 929.468L843.735 917.434L844.823 909.528L865.722 927.545L864.888 933.608L839.9 945.311ZM908.907 956.682L914.239 917.927L922.977 919.129L920.924 934.049L931.504 935.504L933.557 920.585L942.295 921.787L936.963 960.542L928.225 959.34L930.45 943.172L919.869 941.716L917.645 957.884L908.907 956.682ZM960.261 964.473C957.963 964.157 955.85 963.523 953.921 962.572C952.038 961.586 950.453 960.338 949.167 958.829C947.881 957.319 946.952 955.556 946.382 953.54C945.817 951.484 945.703 949.227 946.041 946.77C946.374 944.353 947.087 942.251 948.181 940.463C949.32 938.641 950.692 937.175 952.299 936.063C953.911 934.912 955.674 934.125 957.59 933.702C959.551 933.245 961.522 933.153 963.503 933.426C965.762 933.736 967.714 934.368 969.359 935.321C971.005 936.275 972.315 937.464 973.289 938.89C974.304 940.322 974.988 941.95 975.343 943.776C975.703 945.561 975.744 947.465 975.466 949.486C975.357 950.278 975.191 951.043 974.969 951.779C974.791 952.482 974.638 953.006 974.51 953.352L954.419 950.588C954.561 952.788 955.316 954.486 956.686 955.684C958.055 956.882 959.949 957.647 962.366 957.98C963.713 958.165 965.006 958.161 966.244 957.968C967.521 957.78 968.86 957.44 970.26 956.946L972.445 962.637C970.594 963.472 968.595 964.065 966.447 964.416C964.304 964.727 962.243 964.746 960.261 964.473ZM962.884 940.124C961.141 939.884 959.612 940.138 958.298 940.886C957.023 941.639 956.04 942.917 955.348 944.719L967.949 946.453C968.02 942.708 966.332 940.598 962.884 940.124ZM999.766 969.908C996.041 969.396 993.377 967.919 991.775 965.478C990.218 963.002 989.698 959.882 990.216 956.118L993.413 932.877L984.141 931.601L985.089 924.706L1003.1 927.184L998.905 957.677C998.779 958.588 998.792 959.377 998.942 960.044C999.138 960.676 999.427 961.221 999.808 961.677C1000.23 962.099 1000.71 962.427 1001.25 962.662C1001.82 962.903 1002.42 963.066 1003.06 963.154C1003.73 963.246 1004.43 963.282 1005.16 963.261C1005.94 963.206 1006.8 963.063 1007.76 962.832L1008.84 969.522C1008.02 969.65 1007.25 969.767 1006.55 969.873C1005.85 969.978 1005.16 970.044 1004.47 970.07C1003.77 970.136 1003.04 970.157 1002.28 970.133C1001.51 970.108 1000.68 970.033 999.766 969.908ZM1035.41 974.811C1031.68 974.299 1029.02 972.822 1027.42 970.381C1025.86 967.905 1025.34 964.785 1025.86 961.021L1029.05 937.78L1019.78 936.504L1020.73 929.609L1038.74 932.087L1034.55 962.58C1034.42 963.491 1034.43 964.28 1034.58 964.947C1034.78 965.579 1035.07 966.124 1035.45 966.58C1035.88 967.002 1036.36 967.331 1036.89 967.565C1037.46 967.806 1038.06 967.969 1038.7 968.057C1039.37 968.149 1040.07 968.185 1040.8 968.164C1041.58 968.11 1042.45 967.966 1043.41 967.735L1044.48 974.425C1043.66 974.553 1042.9 974.67 1042.19 974.776C1041.49 974.881 1040.8 974.947 1040.11 974.973C1039.41 975.039 1038.68 975.06 1037.92 975.036C1037.16 975.011 1036.32 974.936 1035.41 974.811ZM1065.4 978.937C1063.46 978.67 1061.62 978.074 1059.89 977.15C1058.21 976.191 1056.74 974.96 1055.5 973.456C1054.29 971.958 1053.4 970.2 1052.83 968.184C1052.26 966.127 1052.15 963.871 1052.49 961.414C1052.83 958.957 1053.54 956.835 1054.64 955.047C1055.74 953.22 1057.07 951.748 1058.64 950.631C1060.24 949.52 1061.98 948.75 1063.86 948.322C1065.78 947.859 1067.71 947.761 1069.65 948.028C1071.59 948.296 1073.41 948.908 1075.09 949.867C1076.82 950.791 1078.29 952.003 1079.5 953.501C1080.75 955.005 1081.65 956.785 1082.22 958.842C1082.79 960.858 1082.9 963.095 1082.57 965.552C1082.23 968.009 1081.51 970.151 1080.41 971.978C1079.32 973.765 1077.97 975.215 1076.36 976.326C1074.79 977.443 1073.05 978.233 1071.13 978.695C1069.25 979.124 1067.34 979.204 1065.4 978.937ZM1066.37 971.864C1068.39 972.142 1070 971.596 1071.2 970.227C1072.44 968.863 1073.24 966.893 1073.59 964.317C1073.94 961.741 1073.71 959.63 1072.89 957.982C1072.1 956.34 1070.7 955.38 1068.68 955.102C1066.66 954.824 1065.03 955.367 1063.79 956.731C1062.59 958.1 1061.82 960.073 1061.46 962.649C1061.11 965.225 1061.32 967.333 1062.11 968.976C1062.93 970.623 1064.35 971.586 1066.37 971.864ZM1094.55 995.363L1093.05 989.949C1095.83 989.403 1097.96 988.484 1099.43 987.192C1100.93 985.945 1101.77 984.405 1101.94 982.571C1101.78 982.589 1101.56 982.579 1101.28 982.541C1100.45 982.426 1099.65 982.196 1098.89 981.849C1098.18 981.468 1097.56 980.979 1097.04 980.382C1096.51 979.785 1096.12 979.086 1095.87 978.284C1095.62 977.482 1095.56 976.586 1095.7 975.595C1095.95 973.732 1096.79 972.334 1098.21 971.398C1099.67 970.469 1101.33 970.132 1103.2 970.388C1105.65 970.726 1107.37 971.891 1108.35 973.883C1109.33 975.835 1109.6 978.416 1109.16 981.626C1108.64 985.43 1107.14 988.495 1104.68 990.822C1102.22 993.148 1098.85 994.662 1094.55 995.363ZM1160 991.224L1160.16 951.758L1169.25 953.009L1167.6 973.798C1167.42 975.468 1167.21 977.076 1167 978.621C1166.83 980.132 1166.65 981.782 1166.44 983.571L1166.68 983.604C1167.2 981.859 1167.73 980.255 1168.25 978.793C1168.82 977.296 1169.38 975.738 1169.92 974.117L1174.03 963.659L1179.61 964.427L1180.56 975.581C1180.66 977.249 1180.75 978.878 1180.86 980.467C1180.96 982.056 1181.05 983.764 1181.12 985.591L1181.36 985.623C1181.65 983.846 1181.89 982.184 1182.11 980.639C1182.36 979.099 1182.64 977.522 1182.94 975.908L1186.85 955.429L1195.35 956.599L1185.26 994.699L1175.87 993.407L1175.26 981.09C1175.19 979.829 1175.15 978.55 1175.12 977.255C1175.1 975.96 1175.13 974.732 1175.21 973.572L1175.03 973.548C1174.75 974.68 1174.45 975.87 1174.11 977.116C1173.78 978.362 1173.41 979.583 1173 980.779L1169.09 992.475L1160 991.224ZM1207.96 998.55C1206.02 998.282 1204.19 997.687 1202.46 996.762C1200.77 995.804 1199.31 994.572 1198.06 993.068C1196.85 991.57 1195.96 989.812 1195.39 987.796C1194.83 985.74 1194.71 983.483 1195.05 981.026C1195.39 978.569 1196.11 976.447 1197.2 974.66C1198.3 972.832 1199.63 971.36 1201.2 970.243C1202.81 969.132 1204.55 968.362 1206.42 967.934C1208.34 967.471 1210.27 967.374 1212.22 967.641C1214.16 967.908 1215.97 968.521 1217.66 969.479C1219.39 970.404 1220.86 971.615 1222.06 973.114C1223.31 974.617 1224.21 976.398 1224.78 978.454C1225.35 980.47 1225.47 982.707 1225.13 985.164C1224.79 987.621 1224.07 989.763 1222.97 991.59C1221.88 993.378 1220.53 994.827 1218.92 995.939C1217.36 997.055 1215.61 997.845 1213.69 998.308C1211.81 998.736 1209.91 998.817 1207.96 998.55ZM1208.94 991.476C1210.96 991.754 1212.57 991.208 1213.77 989.839C1215 988.475 1215.8 986.505 1216.15 983.929C1216.51 981.353 1216.27 979.242 1215.45 977.594C1214.67 975.952 1213.26 974.992 1211.24 974.714C1209.22 974.436 1207.59 974.979 1206.36 976.343C1205.16 977.713 1204.38 979.685 1204.03 982.261C1203.67 984.837 1203.89 986.946 1204.67 988.588C1205.49 990.235 1206.92 991.198 1208.94 991.476ZM1232.77 1001.23L1236.82 971.752L1243.95 972.734L1243.79 979.251L1243.96 979.276C1245.76 977.06 1247.77 975.52 1249.99 974.654C1252.21 973.749 1254.51 973.46 1256.89 973.787C1258.2 973.967 1259.24 974.21 1260 974.517C1260.81 974.83 1261.62 975.244 1262.43 975.76L1259.65 982.826C1258.77 982.423 1257.97 982.111 1257.23 981.888C1256.54 981.632 1255.64 981.427 1254.53 981.275C1252.71 981.024 1250.83 981.311 1248.9 982.135C1247.01 982.965 1245.25 984.621 1243.61 987.101L1241.5 1002.44L1232.77 1001.23ZM1284.89 1009.13C1281.17 1008.62 1278.5 1007.14 1276.9 1004.7C1275.34 1002.23 1274.83 999.107 1275.34 995.342L1278.54 972.101L1269.27 970.826L1270.22 963.931L1288.23 966.408L1284.03 996.901C1283.91 997.812 1283.92 998.601 1284.07 999.268C1284.27 999.901 1284.55 1000.45 1284.94 1000.9C1285.36 1001.32 1285.84 1001.65 1286.37 1001.89C1286.95 1002.13 1287.55 1002.29 1288.18 1002.38C1288.86 1002.47 1289.56 1002.51 1290.29 1002.49C1291.06 1002.43 1291.93 1002.29 1292.89 1002.06L1293.97 1008.75C1293.15 1008.87 1292.38 1008.99 1291.68 1009.1C1290.98 1009.2 1290.28 1009.27 1289.59 1009.29C1288.9 1009.36 1288.17 1009.38 1287.41 1009.36C1286.64 1009.33 1285.8 1009.26 1284.89 1009.13ZM1312.27 1012.9C1310.41 1012.64 1308.75 1012.05 1307.31 1011.13C1305.9 1010.21 1304.73 1009.01 1303.8 1007.55C1302.92 1006.06 1302.31 1004.32 1301.97 1002.34C1301.64 1000.35 1301.64 998.153 1301.97 995.735C1302.31 993.318 1302.96 991.208 1303.94 989.404C1304.91 987.6 1306.06 986.123 1307.39 984.973C1308.77 983.79 1310.26 982.945 1311.86 982.438C1313.46 981.932 1315.08 981.791 1316.7 982.015C1318.37 982.244 1319.73 982.714 1320.81 983.427C1321.89 984.101 1322.85 985.02 1323.7 986.187L1323.94 986.22L1324.15 981.586L1325.53 971.54L1334.27 972.742L1328.54 1014.41L1321.4 1013.43L1321.17 1010.31L1320.99 1010.28C1319.73 1011.2 1318.34 1011.92 1316.82 1012.43C1315.29 1012.95 1313.78 1013.11 1312.27 1012.9ZM1315.51 1006.08C1316.5 1006.21 1317.44 1006.14 1318.33 1005.86C1319.22 1005.54 1320.13 1004.94 1321.06 1004.05L1322.7 992.106C1322.01 991.284 1321.26 990.677 1320.47 990.285C1319.72 989.859 1318.91 989.586 1318.04 989.466C1316.41 989.243 1314.91 989.723 1313.54 990.907C1312.21 992.096 1311.35 994.077 1310.97 996.851C1310.56 999.784 1310.76 1001.99 1311.57 1003.48C1312.37 1004.96 1313.69 1005.83 1315.51 1006.08ZM1349.86 1001.9L1350.98 984.973L1351.77 977.027L1360.44 978.22L1359.06 986.085L1355.56 1002.68L1349.86 1001.9ZM1350.53 1018.16C1348.82 1017.93 1347.47 1017.18 1346.48 1015.91C1345.53 1014.61 1345.17 1013.06 1345.42 1011.28C1345.66 1009.5 1346.41 1008.15 1347.67 1007.23C1348.97 1006.28 1350.48 1005.92 1352.18 1006.15C1353.88 1006.39 1355.21 1007.14 1356.17 1008.4C1357.17 1009.63 1357.55 1011.13 1357.31 1012.92C1357.06 1014.7 1356.28 1016.09 1354.98 1017.08C1353.71 1018.03 1352.23 1018.4 1350.53 1018.16Z" fill="#B39EFF"/>
<path d="M769.897 71.0992C768.461 70.7995 767.213 70.2529 766.153 69.4594C765.098 68.6399 764.268 67.5947 763.661 66.3239C763.055 65.0532 762.686 63.5595 762.554 61.843C762.448 60.1319 762.616 58.2192 763.057 56.1048C763.499 53.9904 764.107 52.1833 764.884 50.6836C765.686 49.1894 766.617 47.9944 767.675 47.0985C768.74 46.1766 769.913 45.5772 771.197 45.3004C772.486 44.9975 773.849 44.9959 775.284 45.2957C776.72 45.5954 777.968 46.142 779.028 46.9355C780.094 47.7028 780.93 48.7219 781.536 49.9926C782.148 51.2373 782.51 52.7021 782.621 54.3871C782.759 56.0775 782.606 57.9799 782.165 60.0944C781.724 62.2088 781.099 64.0261 780.291 65.5464C779.509 67.0722 778.586 68.2961 777.522 69.218C776.458 70.14 775.279 70.7655 773.984 71.0945C772.695 71.3974 771.333 71.399 769.897 71.0992ZM770.829 66.6355C771.455 66.7663 772.06 66.7426 772.642 66.5645C773.25 66.3918 773.818 66.02 774.345 65.4492C774.879 64.8523 775.375 64.0432 775.833 63.022C776.297 61.9747 776.698 60.6418 777.036 59.0234C777.374 57.4049 777.537 56.0361 777.525 54.9168C777.514 53.7975 777.378 52.8837 777.117 52.1754C776.862 51.4411 776.487 50.8862 775.993 50.5107C775.526 50.1406 774.979 49.8902 774.352 49.7594C773.726 49.6286 773.111 49.6365 772.509 49.7831C771.932 49.9351 771.38 50.2965 770.852 50.8674C770.33 51.4121 769.839 52.1951 769.381 53.2163C768.923 54.2375 768.524 55.5573 768.186 57.1757C767.849 58.7942 767.683 60.1761 767.689 61.3215C767.7 62.4408 767.831 63.3807 768.081 64.1411C768.336 64.8755 768.695 65.4407 769.157 65.8369C769.645 66.2385 770.202 66.5047 770.829 66.6355ZM772.006 60.9971C771.171 60.8227 770.52 60.4145 770.055 59.7725C769.621 59.1099 769.5 58.3217 769.691 57.4081C769.881 56.4945 770.305 55.8338 770.963 55.4262C771.651 54.9979 772.413 54.871 773.249 55.0454C774.084 55.2198 774.719 55.6383 775.152 56.301C775.618 56.943 775.755 57.7208 775.564 58.6344C775.373 59.548 774.934 60.219 774.245 60.6473C773.588 61.0549 772.841 61.1715 772.006 60.9971ZM793.375 76.0013C791.939 75.7015 790.691 75.1549 789.631 74.3615C788.576 73.5419 787.746 72.4968 787.139 71.226C786.533 69.9552 786.164 68.4616 786.032 66.745C785.926 65.034 786.094 63.1212 786.535 61.0068C786.977 58.8924 787.585 57.0854 788.362 55.5857C789.164 54.0915 790.095 52.8964 791.153 52.0006C792.218 51.0786 793.392 50.4793 794.675 50.2024C795.964 49.8995 797.327 49.8979 798.762 50.1977C800.198 50.4975 801.446 51.0441 802.506 51.8375C803.572 52.6049 804.408 53.6239 805.014 54.8947C805.626 56.1393 805.988 57.6042 806.099 59.2891C806.237 60.9796 806.085 62.882 805.643 64.9964C805.202 67.1108 804.577 68.9282 803.769 70.4485C802.988 71.9743 802.065 73.1981 801 74.1201C799.936 75.042 798.757 75.6675 797.462 75.9965C796.173 76.2995 794.811 76.301 793.375 76.0013ZM794.307 71.5375C794.933 71.6683 795.538 71.6447 796.12 71.4665C796.728 71.2938 797.296 70.9221 797.824 70.3512C798.357 69.7543 798.853 68.9452 799.311 67.924C799.775 66.8767 800.176 65.5439 800.514 63.9254C800.852 62.307 801.015 60.9381 801.003 59.8188C800.992 58.6995 800.856 57.7857 800.595 57.0775C800.34 56.3431 799.965 55.7882 799.472 55.4127C799.004 55.0427 798.457 54.7923 797.83 54.6615C797.204 54.5306 796.589 54.5385 795.987 54.6851C795.41 54.8371 794.858 55.1986 794.33 55.7694C793.808 56.3142 793.317 57.0971 792.859 58.1183C792.401 59.1395 792.002 60.4593 791.665 62.0778C791.327 63.6962 791.161 65.0781 791.167 66.2235C791.178 67.3429 791.309 68.2827 791.559 69.0432C791.814 69.7775 792.173 70.3428 792.635 70.7389C793.123 71.1405 793.68 71.4067 794.307 71.5375ZM795.484 65.8991C794.649 65.7247 793.999 65.3165 793.533 64.6745C793.1 64.0119 792.978 63.2238 793.169 62.3101C793.36 61.3965 793.784 60.7359 794.441 60.3283C795.129 59.9 795.891 59.7731 796.727 59.9475C797.562 60.1219 798.197 60.5404 798.63 61.203C799.096 61.845 799.233 62.6228 799.042 63.5364C798.851 64.4501 798.412 65.121 797.723 65.5493C797.066 65.9569 796.319 66.0735 795.484 65.8991ZM808.298 78.6267L809.271 73.9672L815.966 75.3652L818.967 60.995L813.446 59.8423L814.19 56.2792C815.052 56.323 815.823 56.3479 816.503 56.3536C817.215 56.3387 817.863 56.2971 818.45 56.2288C819.036 56.1605 819.586 56.071 820.099 55.9603C820.644 55.8289 821.182 55.6687 821.712 55.4797L825.941 56.3626L821.722 76.5669L827.36 77.7442L826.388 82.4037L808.298 78.6267ZM831.776 83.5287L832.749 78.8692L839.444 80.2672L842.445 65.8971L836.924 64.7444L837.668 61.1812C838.53 61.2251 839.301 61.2499 839.981 61.2556C840.693 61.2407 841.342 61.1991 841.928 61.1309C842.514 61.0626 843.064 60.9731 843.578 60.8624C844.123 60.731 844.66 60.5708 845.19 60.3817L849.419 61.2647L845.2 81.469L850.839 82.6462L849.866 87.3058L831.776 83.5287ZM878.732 93.3328L879.705 88.6733L886.4 90.0713L889.401 75.7012L883.88 74.5485L884.624 70.9853C885.486 71.0292 886.258 71.054 886.937 71.0597C887.649 71.0448 888.298 71.0032 888.884 70.935C889.47 70.8667 890.02 70.7772 890.534 70.6665C891.079 70.5351 891.616 70.3749 892.146 70.1858L896.375 71.0688L892.156 91.2731L897.795 92.4503L896.822 97.1099L878.732 93.3328ZM910.765 100.512C909.33 100.212 908.082 99.6651 907.021 98.8717C905.967 98.0522 905.136 97.007 904.53 95.7362C903.923 94.4655 903.554 92.9718 903.422 91.2553C903.316 89.5442 903.484 87.6314 903.926 85.517C904.367 83.4026 904.976 81.5956 905.752 80.0959C906.554 78.6017 907.485 77.4067 908.544 76.5108C909.608 75.5889 910.782 74.9895 912.066 74.7127C913.355 74.4098 914.717 74.4082 916.153 74.7079C917.589 75.0077 918.837 75.5543 919.897 76.3478C920.962 77.1151 921.798 78.1341 922.405 79.4049C923.017 80.6496 923.378 82.1144 923.49 83.7994C923.627 85.4898 923.475 87.3922 923.033 89.5066C922.592 91.621 921.967 93.4384 921.16 94.9587C920.378 96.4845 919.455 97.7084 918.391 98.6303C917.327 99.5523 916.147 100.178 914.853 100.507C913.563 100.81 912.201 100.811 910.765 100.512ZM911.697 96.0478C912.324 96.1786 912.928 96.1549 913.51 95.9768C914.118 95.8041 914.686 95.4323 915.214 94.8615C915.747 94.2645 916.243 93.4555 916.701 92.4343C917.165 91.387 917.566 90.0541 917.904 88.4357C918.242 86.8172 918.405 85.4484 918.394 84.329C918.382 83.2097 918.246 82.296 917.985 81.5877C917.73 80.8534 917.356 80.2985 916.862 79.923C916.394 79.5529 915.847 79.3025 915.221 79.1717C914.594 79.0409 913.98 79.0488 913.377 79.1954C912.801 79.3474 912.248 79.7088 911.721 80.2797C911.198 80.8244 910.708 81.6074 910.249 82.6286C909.791 83.6498 909.393 84.9696 909.055 86.588C908.717 88.2064 908.551 89.5884 908.557 90.7338C908.569 91.8531 908.699 92.793 908.949 93.5534C909.204 94.2878 909.563 94.853 910.025 95.2492C910.513 95.6508 911.071 95.917 911.697 96.0478ZM912.875 90.4094C912.039 90.2349 911.389 89.8267 910.924 89.1848C910.49 88.5221 910.368 87.734 910.559 86.8204C910.75 85.9067 911.174 85.2461 911.831 84.8385C912.52 84.4102 913.282 84.2833 914.117 84.4577C914.953 84.6321 915.587 85.0506 916.021 85.7133C916.486 86.3552 916.623 87.133 916.433 88.0467C916.242 88.9603 915.802 89.6313 915.113 90.0595C914.456 90.4672 913.71 90.5838 912.875 90.4094ZM925.688 103.137L926.661 98.4774L933.357 99.8754L936.357 85.5053L930.836 84.3525L931.58 80.7894C932.443 80.8333 933.214 80.8581 933.894 80.8638C934.605 80.8489 935.254 80.8073 935.84 80.739C936.426 80.6708 936.976 80.5813 937.49 80.4706C938.035 80.3392 938.572 80.179 939.102 79.9899L943.331 80.8729L939.112 101.077L944.751 102.254L943.778 106.914L925.688 103.137ZM949.166 108.039L950.139 103.379L956.835 104.777L959.835 90.4073L954.314 89.2546L955.058 85.6914C955.921 85.7353 956.692 85.7601 957.372 85.7659C958.083 85.751 958.732 85.7094 959.318 85.6411C959.905 85.5728 960.454 85.4833 960.968 85.3726C961.513 85.2412 962.05 85.081 962.58 84.892L966.809 85.7749L962.591 105.979L968.229 107.156L967.256 111.816L949.166 108.039ZM996.122 117.843L997.095 113.184L1003.79 114.582L1006.79 100.211L1001.27 99.0587L1002.01 95.4955C1002.88 95.5394 1003.65 95.5642 1004.33 95.57C1005.04 95.5551 1005.69 95.5135 1006.27 95.4452C1006.86 95.3769 1007.41 95.2874 1007.92 95.1767C1008.47 95.0453 1009.01 94.8851 1009.54 94.6961L1013.77 95.579L1009.55 115.783L1015.19 116.961L1014.21 121.62L996.122 117.843ZM1019.6 122.745L1020.57 118.086L1027.27 119.484L1030.27 105.113L1024.75 103.961L1025.49 100.398C1026.35 100.441 1027.13 100.466 1027.81 100.472C1028.52 100.457 1029.17 100.416 1029.75 100.347C1030.34 100.279 1030.89 100.189 1031.4 100.079C1031.95 99.9474 1032.48 99.7872 1033.01 99.5981L1037.24 100.481L1033.02 120.685L1038.66 121.863L1037.69 126.522L1019.6 122.745ZM1051.63 129.924C1050.2 129.624 1048.95 129.077 1047.89 128.284C1046.84 127.464 1046 126.419 1045.4 125.149C1044.79 123.878 1044.42 122.384 1044.29 120.668C1044.18 118.956 1044.35 117.044 1044.79 114.929C1045.24 112.815 1045.84 111.008 1046.62 109.508C1047.42 108.014 1048.35 106.819 1049.41 105.923C1050.48 105.001 1051.65 104.402 1052.93 104.125C1054.22 103.822 1055.59 103.82 1057.02 104.12C1058.46 104.42 1059.71 104.967 1060.77 105.76C1061.83 106.527 1062.67 107.546 1063.27 108.817C1063.89 110.062 1064.25 111.527 1064.36 113.212C1064.5 114.902 1064.34 116.805 1063.9 118.919C1063.46 121.033 1062.84 122.851 1062.03 124.371C1061.25 125.897 1060.32 127.121 1059.26 128.043C1058.19 128.965 1057.02 129.59 1055.72 129.919C1054.43 130.222 1053.07 130.224 1051.63 129.924ZM1052.57 125.46C1053.19 125.591 1053.8 125.567 1054.38 125.389C1054.99 125.216 1055.55 124.845 1056.08 124.274C1056.62 123.677 1057.11 122.868 1057.57 121.847C1058.03 120.799 1058.43 119.466 1058.77 117.848C1059.11 116.23 1059.27 114.861 1059.26 113.741C1059.25 112.622 1059.11 111.708 1058.85 111C1058.6 110.266 1058.22 109.711 1057.73 109.335C1057.26 108.965 1056.72 108.715 1056.09 108.584C1055.46 108.453 1054.85 108.461 1054.25 108.608C1053.67 108.76 1053.12 109.121 1052.59 109.692C1052.07 110.237 1051.58 111.02 1051.12 112.041C1050.66 113.062 1050.26 114.382 1049.92 116C1049.59 117.619 1049.42 119.001 1049.43 120.146C1049.44 121.265 1049.57 122.205 1049.82 122.966C1050.07 123.7 1050.43 124.265 1050.89 124.661C1051.38 125.063 1051.94 125.329 1052.57 125.46ZM1053.74 119.822C1052.91 119.647 1052.26 119.239 1051.79 118.597C1051.36 117.934 1051.24 117.146 1051.43 116.233C1051.62 115.319 1052.04 114.658 1052.7 114.251C1053.39 113.823 1054.15 113.696 1054.99 113.87C1055.82 114.044 1056.46 114.463 1056.89 115.126C1057.35 115.768 1057.49 116.545 1057.3 117.459C1057.11 118.373 1056.67 119.044 1055.98 119.472C1055.32 119.879 1054.58 119.996 1053.74 119.822ZM1075.11 134.826C1073.68 134.526 1072.43 133.979 1071.37 133.186C1070.31 132.366 1069.48 131.321 1068.88 130.051C1068.27 128.78 1067.9 127.286 1067.77 125.57C1067.66 123.859 1067.83 121.946 1068.27 119.831C1068.71 117.717 1069.32 115.91 1070.1 114.41C1070.9 112.916 1071.83 111.721 1072.89 110.825C1073.95 109.903 1075.13 109.304 1076.41 109.027C1077.7 108.724 1079.06 108.723 1080.5 109.022C1081.94 109.322 1083.18 109.869 1084.24 110.662C1085.31 111.429 1086.15 112.448 1086.75 113.719C1087.36 114.964 1087.72 116.429 1087.84 118.114C1087.97 119.804 1087.82 121.707 1087.38 123.821C1086.94 125.935 1086.31 127.753 1085.51 129.273C1084.72 130.799 1083.8 132.023 1082.74 132.945C1081.67 133.867 1080.49 134.492 1079.2 134.821C1077.91 135.124 1076.55 135.126 1075.11 134.826ZM1076.04 130.362C1076.67 130.493 1077.27 130.469 1077.86 130.291C1078.46 130.118 1079.03 129.747 1079.56 129.176C1080.09 128.579 1080.59 127.77 1081.05 126.749C1081.51 125.701 1081.91 124.368 1082.25 122.75C1082.59 121.132 1082.75 119.763 1082.74 118.643C1082.73 117.524 1082.59 116.61 1082.33 115.902C1082.08 115.168 1081.7 114.613 1081.21 114.237C1080.74 113.867 1080.19 113.617 1079.57 113.486C1078.94 113.355 1078.33 113.363 1077.72 113.51C1077.15 113.662 1076.59 114.023 1076.07 114.594C1075.54 115.139 1075.05 115.922 1074.6 116.943C1074.14 117.964 1073.74 119.284 1073.4 120.902C1073.06 122.521 1072.9 123.903 1072.9 125.048C1072.92 126.167 1073.05 127.107 1073.3 127.868C1073.55 128.602 1073.91 129.167 1074.37 129.563C1074.86 129.965 1075.42 130.231 1076.04 130.362ZM1077.22 124.724C1076.39 124.549 1075.74 124.141 1075.27 123.499C1074.84 122.836 1074.71 122.048 1074.91 121.135C1075.1 120.221 1075.52 119.56 1076.18 119.153C1076.87 118.725 1077.63 118.598 1078.46 118.772C1079.3 118.946 1079.93 119.365 1080.37 120.028C1080.83 120.67 1080.97 121.447 1080.78 122.361C1080.59 123.275 1080.15 123.946 1079.46 124.374C1078.8 124.781 1078.06 124.898 1077.22 124.724ZM1122.07 144.63C1120.63 144.33 1119.38 143.784 1118.32 142.99C1117.27 142.171 1116.44 141.125 1115.83 139.855C1115.23 138.584 1114.86 137.09 1114.72 135.374C1114.62 133.663 1114.79 131.75 1115.23 129.635C1115.67 127.521 1116.28 125.714 1117.05 124.214C1117.86 122.72 1118.79 121.525 1119.85 120.629C1120.91 119.707 1122.08 119.108 1123.37 118.831C1124.66 118.528 1126.02 118.527 1127.46 118.826C1128.89 119.126 1130.14 119.673 1131.2 120.466C1132.27 121.234 1133.1 122.253 1133.71 123.523C1134.32 124.768 1134.68 126.233 1134.79 127.918C1134.93 129.608 1134.78 131.511 1134.34 133.625C1133.89 135.739 1133.27 137.557 1132.46 139.077C1131.68 140.603 1130.76 141.827 1129.69 142.749C1128.63 143.671 1127.45 144.296 1126.16 144.625C1124.87 144.928 1123.5 144.93 1122.07 144.63ZM1123 140.166C1123.63 140.297 1124.23 140.273 1124.81 140.095C1125.42 139.923 1125.99 139.551 1126.52 138.98C1127.05 138.383 1127.55 137.574 1128 136.553C1128.47 135.505 1128.87 134.173 1129.21 132.554C1129.54 130.936 1129.71 129.567 1129.7 128.447C1129.69 127.328 1129.55 126.414 1129.29 125.706C1129.03 124.972 1128.66 124.417 1128.16 124.041C1127.7 123.671 1127.15 123.421 1126.52 123.29C1125.9 123.159 1125.28 123.167 1124.68 123.314C1124.1 123.466 1123.55 123.827 1123.02 124.398C1122.5 124.943 1122.01 125.726 1121.55 126.747C1121.09 127.768 1120.7 129.088 1120.36 130.706C1120.02 132.325 1119.85 133.707 1119.86 134.852C1119.87 135.972 1120 136.911 1120.25 137.672C1120.51 138.406 1120.87 138.971 1121.33 139.368C1121.82 139.769 1122.37 140.035 1123 140.166ZM1124.18 134.528C1123.34 134.353 1122.69 133.945 1122.23 133.303C1121.79 132.641 1121.67 131.852 1121.86 130.939C1122.05 130.025 1122.48 129.365 1123.13 128.957C1123.82 128.529 1124.58 128.402 1125.42 128.576C1126.26 128.751 1126.89 129.169 1127.32 129.832C1127.79 130.474 1127.93 131.251 1127.74 132.165C1127.54 133.079 1127.1 133.75 1126.42 134.178C1125.76 134.586 1125.01 134.702 1124.18 134.528ZM1145.55 149.532C1144.11 149.232 1142.86 148.686 1141.8 147.892C1140.75 147.073 1139.92 146.027 1139.31 144.757C1138.7 143.486 1138.33 141.992 1138.2 140.276C1138.1 138.565 1138.26 136.652 1138.71 134.538C1139.15 132.423 1139.76 130.616 1140.53 129.116C1141.34 127.622 1142.27 126.427 1143.32 125.531C1144.39 124.609 1145.56 124.01 1146.85 123.733C1148.14 123.43 1149.5 123.429 1150.93 123.728C1152.37 124.028 1153.62 124.575 1154.68 125.368C1155.74 126.136 1156.58 127.155 1157.19 128.425C1157.8 129.67 1158.16 131.135 1158.27 132.82C1158.41 134.51 1158.26 136.413 1157.81 138.527C1157.37 140.642 1156.75 142.459 1155.94 143.979C1155.16 145.505 1154.24 146.729 1153.17 147.651C1152.11 148.573 1150.93 149.198 1149.63 149.527C1148.34 149.83 1146.98 149.832 1145.55 149.532ZM1146.48 145.068C1147.1 145.199 1147.71 145.175 1148.29 144.997C1148.9 144.825 1149.47 144.453 1149.99 143.882C1150.53 143.285 1151.02 142.476 1151.48 141.455C1151.95 140.407 1152.35 139.075 1152.68 137.456C1153.02 135.838 1153.19 134.469 1153.17 133.35C1153.16 132.23 1153.03 131.316 1152.77 130.608C1152.51 129.874 1152.14 129.319 1151.64 128.943C1151.18 128.573 1150.63 128.323 1150 128.192C1149.38 128.061 1148.76 128.069 1148.16 128.216C1147.58 128.368 1147.03 128.729 1146.5 129.3C1145.98 129.845 1145.49 130.628 1145.03 131.649C1144.57 132.67 1144.17 133.99 1143.84 135.608C1143.5 137.227 1143.33 138.609 1143.34 139.754C1143.35 140.874 1143.48 141.813 1143.73 142.574C1143.99 143.308 1144.34 143.873 1144.81 144.27C1145.29 144.671 1145.85 144.937 1146.48 145.068ZM1147.66 139.43C1146.82 139.255 1146.17 138.847 1145.7 138.205C1145.27 137.543 1145.15 136.754 1145.34 135.841C1145.53 134.927 1145.95 134.267 1146.61 133.859C1147.3 133.431 1148.06 133.304 1148.9 133.478C1149.73 133.653 1150.37 134.071 1150.8 134.734C1151.27 135.376 1151.4 136.154 1151.21 137.067C1151.02 137.981 1150.58 138.652 1149.89 139.08C1149.24 139.488 1148.49 139.604 1147.66 139.43ZM1160.47 152.157L1161.44 147.498L1168.14 148.896L1171.14 134.526L1165.62 133.373L1166.36 129.81C1167.22 129.854 1167.99 129.879 1168.67 129.884C1169.39 129.869 1170.03 129.828 1170.62 129.76C1171.21 129.691 1171.76 129.602 1172.27 129.491C1172.82 129.36 1173.35 129.199 1173.88 129.01L1178.11 129.893L1173.89 150.098L1179.53 151.275L1178.56 155.934L1160.47 152.157ZM1192.5 159.336C1191.07 159.036 1189.82 158.49 1188.76 157.696C1187.7 156.877 1186.87 155.832 1186.27 154.561C1185.66 153.29 1185.29 151.796 1185.16 150.08C1185.05 148.369 1185.22 146.456 1185.66 144.342C1186.1 142.227 1186.71 140.42 1187.49 138.92C1188.29 137.426 1189.22 136.231 1190.28 135.335C1191.34 134.413 1192.52 133.814 1193.8 133.537C1195.09 133.234 1196.45 133.233 1197.89 133.533C1199.33 133.832 1200.57 134.379 1201.63 135.172C1202.7 135.94 1203.54 136.959 1204.14 138.229C1204.75 139.474 1205.12 140.939 1205.23 142.624C1205.36 144.314 1205.21 146.217 1204.77 148.331C1204.33 150.446 1203.7 152.263 1202.9 153.783C1202.11 155.309 1201.19 156.533 1200.13 157.455C1199.06 158.377 1197.88 159.002 1196.59 159.331C1195.3 159.634 1193.94 159.636 1192.5 159.336ZM1193.43 154.872C1194.06 155.003 1194.66 154.979 1195.25 154.801C1195.86 154.629 1196.42 154.257 1196.95 153.686C1197.48 153.089 1197.98 152.28 1198.44 151.259C1198.9 150.212 1199.3 148.879 1199.64 147.26C1199.98 145.642 1200.14 144.273 1200.13 143.154C1200.12 142.034 1199.98 141.121 1199.72 140.412C1199.47 139.678 1199.09 139.123 1198.6 138.748C1198.13 138.377 1197.58 138.127 1196.96 137.996C1196.33 137.865 1195.72 137.873 1195.11 138.02C1194.54 138.172 1193.99 138.533 1193.46 139.104C1192.94 139.649 1192.44 140.432 1191.99 141.453C1191.53 142.474 1191.13 143.794 1190.79 145.413C1190.45 147.031 1190.29 148.413 1190.29 149.558C1190.31 150.678 1190.44 151.618 1190.69 152.378C1190.94 153.112 1191.3 153.678 1191.76 154.074C1192.25 154.475 1192.81 154.742 1193.43 154.872ZM1194.61 149.234C1193.78 149.06 1193.13 148.651 1192.66 148.009C1192.23 147.347 1192.11 146.559 1192.3 145.645C1192.49 144.731 1192.91 144.071 1193.57 143.663C1194.26 143.235 1195.02 143.108 1195.85 143.282C1196.69 143.457 1197.32 143.875 1197.76 144.538C1198.22 145.18 1198.36 145.958 1198.17 146.871C1197.98 147.785 1197.54 148.456 1196.85 148.884C1196.19 149.292 1195.45 149.408 1194.61 149.234Z" fill="#B39EFF"/>
</g>
<defs>
<filter id="filter0_d_0_3" x="646.023" y="335.023" width="541.477" height="475.984" filterUnits="userSpaceOnUse" color-interpolation-filters="sRGB">
<feFlood flood-opacity="0" result="BackgroundImageFix"/>
<feColorMatrix in="SourceAlpha" type="matrix" values="0 0 0 0 0 0 0 0 0 0 0 0 0 0 0 0 0 0 127 0" result="hardAlpha"/>
<feOffset dx="10" dy="10"/>
<feComposite in2="hardAlpha" operator="out"/>
<feColorMatrix type="matrix" values="0 0 0 0 0.670588 0 0 0 0 0.580392 0 0 0 0 1 0 0 0 1 0"/>
<feBlend mode="normal" in2="BackgroundImageFix" result="effect1_dropShadow_0_3"/>
<feBlend mode="normal" in="SourceGraphic" in2="effect1_dropShadow_0_3" result="shape"/>
</filter>
<filter id="filter1_d_0_3" x="1293.92" y="179.537" width="294.836" height="256.049" filterUnits="userSpaceOnUse" color-interpolation-filters="sRGB">
<feFlood flood-opacity="0" result="BackgroundImageFix"/>
<feColorMatrix in="SourceAlpha" type="matrix" values="0 0 0 0 0 0 0 0 0 0 0 0 0 0 0 0 0 0 127 0" result="hardAlpha"/>
<feOffset dx="8" dy="8"/>
<feComposite in2="hardAlpha" operator="out"/>
<feColorMatrix type="matrix" values="0 0 0 0 0.670588 0 0 0 0 0.580392 0 0 0 0 1 0 0 0 1 0"/>
<feBlend mode="normal" in2="BackgroundImageFix" result="effect1_dropShadow_0_3"/>
<feBlend mode="normal" in="SourceGraphic" in2="effect1_dropShadow_0_3" result="shape"/>
</filter>
<filter id="filter2_d_0_3" x="570.74" y="115.74" width="210.211" height="210.211" filterUnits="userSpaceOnUse" color-interpolation-filters="sRGB">
<feFlood flood-opacity="0" result="BackgroundImageFix"/>
<feColorMatrix in="SourceAlpha" type="matrix" values="0 0 0 0 0 0 0 0 0 0 0 0 0 0 0 0 0 0 127 0" result="hardAlpha"/>
<feOffset dx="14" dy="14"/>
<feComposite in2="hardAlpha" operator="out"/>
<feColorMatrix type="matrix" values="0 0 0 0 0.670275 0 0 0 0 0.579167 0 0 0 0 1 0 0 0 1 0"/>
<feBlend mode="normal" in2="BackgroundImageFix" result="effect1_dropShadow_0_3"/>
<feBlend mode="normal" in="SourceGraphic" in2="effect1_dropShadow_0_3" result="shape"/>
</filter>
<clipPath id="clip0_0_3">
<rect width="1920" height="1080" fill="white"/>
</clipPath>
</defs>
</svg>
