<svg width="1929" height="1065" viewBox="0 0 1929 1065" fill="none" xmlns="http://www.w3.org/2000/svg">
<rect x="864" y="101" width="200" height="200" rx="20" fill="#FF6F66"/>
<path d="M978.2 230.6C978.2 227.133 977.6 224 976.4 221.2C975.333 218.267 973.067 215.8 969.6 213.8C966.267 211.667 961.467 210.067 955.2 209C948.933 207.8 940.733 207.2 930.6 207.2C931.933 196 933 185.067 933.8 174.4C934.6 163.6 935.2 153.2 935.6 143.2H998.8V163.6H956.2C955.933 167.867 955.6 172.333 955.2 177C954.8 181.667 954.467 185.467 954.2 188.4C970.733 189.467 983.067 193.467 991.2 200.4C999.333 207.333 1003.4 217.067 1003.4 229.6C1003.4 235.333 1002.4 240.667 1000.4 245.6C998.4 250.4 995.333 254.6 991.2 258.2C987.067 261.8 981.933 264.6 975.8 266.6C969.667 268.6 962.533 269.6 954.4 269.6C951.2 269.6 947.933 269.4 944.6 269C941.267 268.6 938.067 268.067 935 267.4C931.933 266.867 929.133 266.2 926.6 265.4C924.2 264.6 922.333 263.867 921 263.2L926 242.8C928.933 244.267 932.667 245.6 937.2 246.8C941.733 248 947.4 248.6 954.2 248.6C959 248.6 962.933 248.067 966 247C969.2 245.933 971.667 244.6 973.4 243C975.267 241.267 976.533 239.333 977.2 237.2C977.867 235.067 978.2 232.867 978.2 230.6Z" fill="white"/>
<rect x="391" y="411" width="200" height="200" rx="20" fill="#FF8266"/>
<path d="M505.2 540.6C505.2 537.133 504.6 534 503.4 531.2C502.333 528.267 500.067 525.8 496.6 523.8C493.267 521.667 488.467 520.067 482.2 519C475.933 517.8 467.733 517.2 457.6 517.2C458.933 506 460 495.067 460.8 484.4C461.6 473.6 462.2 463.2 462.6 453.2H525.8V473.6H483.2C482.933 477.867 482.6 482.333 482.2 487C481.8 491.667 481.467 495.467 481.2 498.4C497.733 499.467 510.067 503.467 518.2 510.4C526.333 517.333 530.4 527.067 530.4 539.6C530.4 545.333 529.4 550.667 527.4 555.6C525.4 560.4 522.333 564.6 518.2 568.2C514.067 571.8 508.933 574.6 502.8 576.6C496.667 578.6 489.533 579.6 481.4 579.6C478.2 579.6 474.933 579.4 471.6 579C468.267 578.6 465.067 578.067 462 577.4C458.933 576.867 456.133 576.2 453.6 575.4C451.2 574.6 449.333 573.867 448 573.2L453 552.8C455.933 554.267 459.667 555.6 464.2 556.8C468.733 558 474.4 558.6 481.2 558.6C486 558.6 489.933 558.067 493 557C496.2 555.933 498.667 554.6 500.4 553C502.267 551.267 503.533 549.333 504.2 547.2C504.867 545.067 505.2 542.867 505.2 540.6Z" fill="white"/>
<rect x="155" y="765" width="200" height="200" rx="20" fill="#FF9D66"/>
<path d="M253.2 872.2C250.667 872.2 248.067 872.467 245.4 873C242.733 873.533 240.533 874.267 238.8 875.2C238.667 876.4 238.533 877.6 238.4 878.8C238.4 880 238.4 881.267 238.4 882.6C238.4 886.467 238.667 890.2 239.2 893.8C239.733 897.267 240.667 900.4 242 903.2C243.333 906 245.133 908.267 247.4 910C249.8 911.6 252.733 912.4 256.2 912.4C259 912.4 261.4 911.733 263.4 910.4C265.4 909.067 267 907.4 268.2 905.4C269.533 903.4 270.467 901.2 271 898.8C271.667 896.4 272 894.067 272 891.8C272 885.533 270.6 880.733 267.8 877.4C265 873.933 260.133 872.2 253.2 872.2ZM256.4 851.8C263.6 851.8 269.667 852.867 274.6 855C279.667 857.133 283.8 860 287 863.6C290.2 867.2 292.467 871.4 293.8 876.2C295.267 881 296 886.067 296 891.4C296 896.2 295.2 901.067 293.6 906C292.133 910.933 289.8 915.467 286.6 919.6C283.4 923.733 279.333 927.133 274.4 929.8C269.467 932.333 263.6 933.6 256.8 933.6C242.933 933.6 232.333 929.333 225 920.8C217.8 912.133 214.2 898.667 214.2 880.4C214.2 868.4 215.933 857.8 219.4 848.6C223 839.4 228.067 831.667 234.6 825.4C241.133 819.133 249 814.4 258.2 811.2C267.4 808 277.6 806.4 288.8 806.4L290.2 827.4C284.867 827.533 279.667 828.067 274.6 829C269.533 829.933 264.867 831.533 260.6 833.8C256.333 835.933 252.6 838.733 249.4 842.2C246.333 845.667 244.067 850 242.6 855.2C245.133 854.133 247.6 853.333 250 852.8C252.4 852.133 254.533 851.8 256.4 851.8Z" fill="white"/>
<rect x="628" y="765" width="200" height="200" rx="20" fill="#FF9D66"/>
<path d="M742.2 894.6C742.2 891.133 741.6 888 740.4 885.2C739.333 882.267 737.067 879.8 733.6 877.8C730.267 875.667 725.467 874.067 719.2 873C712.933 871.8 704.733 871.2 694.6 871.2C695.933 860 697 849.067 697.8 838.4C698.6 827.6 699.2 817.2 699.6 807.2H762.8V827.6H720.2C719.933 831.867 719.6 836.333 719.2 841C718.8 845.667 718.467 849.467 718.2 852.4C734.733 853.467 747.067 857.467 755.2 864.4C763.333 871.333 767.4 881.067 767.4 893.6C767.4 899.333 766.4 904.667 764.4 909.6C762.4 914.4 759.333 918.6 755.2 922.2C751.067 925.8 745.933 928.6 739.8 930.6C733.667 932.6 726.533 933.6 718.4 933.6C715.2 933.6 711.933 933.4 708.6 933C705.267 932.6 702.067 932.067 699 931.4C695.933 930.867 693.133 930.2 690.6 929.4C688.2 928.6 686.333 927.867 685 927.2L690 906.8C692.933 908.267 696.667 909.6 701.2 910.8C705.733 912 711.4 912.6 718.2 912.6C723 912.6 726.933 912.067 730 911C733.2 909.933 735.667 908.6 737.4 907C739.267 905.267 740.533 903.333 741.2 901.2C741.867 899.067 742.2 896.867 742.2 894.6Z" fill="white"/>
<rect x="1337" y="411" width="200" height="200" rx="20" fill="#FF8266"/>
<path d="M1476.2 482.6C1476.2 488.333 1474.8 494 1472 499.6C1469.2 505.067 1464.8 509.667 1458.8 513.4C1466.4 517.8 1471.73 522.6 1474.8 527.8C1478 533 1479.6 538.733 1479.6 545C1479.6 549 1478.8 553.067 1477.2 557.2C1475.73 561.333 1473.27 565.067 1469.8 568.4C1466.47 571.6 1462.07 574.267 1456.6 576.4C1451.13 578.533 1444.4 579.6 1436.4 579.6C1430.13 579.6 1424.4 578.8 1419.2 577.2C1414.13 575.733 1409.73 573.6 1406 570.8C1402.4 567.867 1399.6 564.333 1397.6 560.2C1395.6 555.933 1394.6 551.2 1394.6 546C1394.6 539.733 1396.07 533.867 1399 528.4C1401.93 522.8 1406.53 517.867 1412.8 513.6C1406.93 509.6 1402.93 505.333 1400.8 500.8C1398.67 496.267 1397.6 491.467 1397.6 486.4C1397.6 482.4 1398.27 478.267 1399.6 474C1401.07 469.6 1403.33 465.667 1406.4 462.2C1409.47 458.733 1413.53 455.867 1418.6 453.6C1423.67 451.333 1429.93 450.2 1437.4 450.2C1449.27 450.2 1458.67 453.133 1465.6 459C1472.67 464.867 1476.2 472.733 1476.2 482.6ZM1456.4 544.6C1456.4 541.933 1455.87 539.6 1454.8 537.6C1453.87 535.6 1452.27 533.8 1450 532.2C1447.87 530.467 1445.07 528.8 1441.6 527.2C1438.13 525.467 1434 523.667 1429.2 521.8C1425.47 524.867 1422.6 528.333 1420.6 532.2C1418.6 535.933 1417.6 539.533 1417.6 543C1417.6 548.333 1419.47 552.4 1423.2 555.2C1427.07 557.867 1431.6 559.2 1436.8 559.2C1442.8 559.2 1447.53 557.8 1451 555C1454.6 552.067 1456.4 548.6 1456.4 544.6ZM1437 470.6C1432.73 470.6 1428.93 471.8 1425.6 474.2C1422.4 476.6 1420.8 480.133 1420.8 484.8C1420.8 489.467 1422.33 493.267 1425.4 496.2C1428.47 499.133 1433.87 502.2 1441.6 505.4C1445.73 502.333 1448.67 499 1450.4 495.4C1452.13 491.667 1453 488.067 1453 484.6C1453 479.933 1451.4 476.467 1448.2 474.2C1445.13 471.8 1441.4 470.6 1437 470.6Z" fill="white"/>
<rect x="1101" y="765" width="200" height="200" rx="20" fill="#FF9D66"/>
<path d="M1177.4 931C1177.8 922.467 1179.2 913.467 1181.6 904C1184 894.4 1186.87 884.933 1190.2 875.6C1193.67 866.267 1197.4 857.467 1201.4 849.2C1205.4 840.8 1209.2 833.6 1212.8 827.6H1160.8V807.2H1241.6V825.8C1238 829.933 1234.07 835.733 1229.8 843.2C1225.53 850.667 1221.47 859.133 1217.6 868.6C1213.87 878.067 1210.53 888.2 1207.6 899C1204.8 909.667 1203.07 920.333 1202.4 931H1177.4Z" fill="white"/>
<rect x="1574" y="765" width="200" height="200" rx="20" fill="#FF9D66"/>
<path d="M1676.2 865.2C1678.73 865.2 1681.4 864.933 1684.2 864.4C1687 863.867 1689.27 863.133 1691 862.2C1691.13 861.133 1691.2 859.867 1691.2 858.4C1691.33 856.8 1691.4 855.267 1691.4 853.8C1691.4 850.467 1691.07 847.133 1690.4 843.8C1689.87 840.333 1688.87 837.2 1687.4 834.4C1686.07 831.6 1684.2 829.333 1681.8 827.6C1679.53 825.867 1676.67 825 1673.2 825C1670.27 825 1667.73 825.6 1665.6 826.8C1663.6 827.867 1661.93 829.333 1660.6 831.2C1659.4 833.067 1658.47 835.267 1657.8 837.8C1657.27 840.333 1657 843 1657 845.8C1657 852.067 1658.47 856.867 1661.4 860.2C1664.33 863.533 1669.27 865.2 1676.2 865.2ZM1673 885.6C1665.8 885.6 1659.67 884.6 1654.6 882.6C1649.53 880.467 1645.4 877.6 1642.2 874C1639 870.4 1636.67 866.267 1635.2 861.6C1633.73 856.8 1633 851.667 1633 846.2C1633 841.4 1633.8 836.533 1635.4 831.6C1637.13 826.533 1639.6 822 1642.8 818C1646.13 813.867 1650.27 810.533 1655.2 808C1660.13 805.333 1665.93 804 1672.6 804C1686.47 804 1697.07 808.667 1704.4 818C1711.73 827.333 1715.4 840.333 1715.4 857C1715.4 869 1713.67 879.667 1710.2 889C1706.73 898.2 1701.73 905.933 1695.2 912.2C1688.8 918.467 1681 923.267 1671.8 926.6C1662.73 929.8 1652.6 931.4 1641.4 931.4L1640.6 910.2C1651.27 910.067 1660.8 907.8 1669.2 903.4C1677.6 898.867 1683.53 891.8 1687 882.2C1681.8 884.467 1677.13 885.6 1673 885.6Z" fill="white"/>
<path d="M647.253 386.484L695.178 314.351L733.685 391.922L647.253 386.484Z" fill="#FF6F66"/>
<path d="M802.179 320.743L718.878 362.093L709.985 344.179L793.287 302.828L802.179 320.743Z" fill="#FF6F66"/>
<path d="M318.09 750.693L319.705 664.106L393.884 708.798L318.09 750.693Z" fill="#FF8266"/>
<path d="M402.778 629.507L365.36 691.613L348.229 681.291L385.647 619.186L402.778 629.507Z" fill="#FF8266"/>
<path d="M1262.09 750.693L1263.7 664.106L1337.88 708.798L1262.09 750.693Z" fill="#FF8266"/>
<path d="M1346.78 629.507L1309.36 691.613L1292.23 681.291L1329.65 619.186L1346.78 629.507Z" fill="#FF8266"/>
<path d="M1613.21 750.693L1611.6 664.106L1537.42 708.798L1613.21 750.693Z" fill="#FF8266"/>
<path d="M1528.52 629.507L1565.94 691.613L1583.07 681.291L1545.66 619.186L1528.52 629.507Z" fill="#FF8266"/>
<path d="M667.213 750.693L665.598 664.106L591.418 708.798L667.213 750.693Z" fill="#FF8266"/>
<path d="M582.524 629.507L619.942 691.613L637.073 681.291L599.655 619.186L582.524 629.507Z" fill="#FF8266"/>
<path d="M1281.73 388.484L1233.81 316.351L1195.3 393.922L1281.73 388.484Z" fill="#FF6F66"/>
<path d="M1126.81 322.743L1210.11 364.093L1219 346.179L1135.7 304.828L1126.81 322.743Z" fill="#FF6F66"/>
</svg>
