<svg width="1548" height="935" viewBox="0 0 1548 935" fill="none" xmlns="http://www.w3.org/2000/svg">
<rect x="687" y="451" width="200" height="200" rx="20" fill="#FF8266"/>
<rect x="924" y="451" width="200" height="200" rx="20" fill="#FF8B66"/>
<rect x="1161" y="451" width="200" height="200" rx="20" fill="#FF9D66"/>
<rect x="450" y="451" width="200" height="200" rx="20" fill="#FF7866"/>
<rect x="213" y="451" width="200" height="200" rx="20" fill="#FF6F66"/>
<path d="M315.2 551.2C317.733 551.2 320.4 550.933 323.2 550.4C326 549.867 328.267 549.133 330 548.2C330.133 547.133 330.2 545.867 330.2 544.4C330.333 542.8 330.4 541.267 330.4 539.8C330.4 536.467 330.067 533.133 329.4 529.8C328.867 526.333 327.867 523.2 326.4 520.4C325.067 517.6 323.2 515.333 320.8 513.6C318.533 511.867 315.667 511 312.2 511C309.267 511 306.733 511.6 304.6 512.8C302.6 513.867 300.933 515.333 299.6 517.2C298.4 519.067 297.467 521.267 296.8 523.8C296.267 526.333 296 529 296 531.8C296 538.067 297.467 542.867 300.4 546.2C303.333 549.533 308.267 551.2 315.2 551.2ZM312 571.6C304.8 571.6 298.667 570.6 293.6 568.6C288.533 566.467 284.4 563.6 281.2 560C278 556.4 275.667 552.267 274.2 547.6C272.733 542.8 272 537.667 272 532.2C272 527.4 272.8 522.533 274.4 517.6C276.133 512.533 278.6 508 281.8 504C285.133 499.867 289.267 496.533 294.2 494C299.133 491.333 304.933 490 311.6 490C325.467 490 336.067 494.667 343.4 504C350.733 513.333 354.4 526.333 354.4 543C354.4 555 352.667 565.667 349.2 575C345.733 584.2 340.733 591.933 334.2 598.2C327.8 604.467 320 609.267 310.8 612.6C301.733 615.8 291.6 617.4 280.4 617.4L279.6 596.2C290.267 596.067 299.8 593.8 308.2 589.4C316.6 584.867 322.533 577.8 326 568.2C320.8 570.467 316.133 571.6 312 571.6Z" fill="white"/>
<path d="M542.6 596.6V527.4C538.867 530.067 534.6 532.467 529.8 534.6C525 536.6 520.933 538.2 517.6 539.4L509.6 519C512.8 517.8 516.267 516.267 520 514.4C523.733 512.533 527.467 510.467 531.2 508.2C534.933 505.933 538.467 503.533 541.8 501C545.133 498.467 548 495.867 550.4 493.2H567.2V596.6H591.8V617H516.6V596.6H542.6Z" fill="white"/>
<path d="M823.8 525.8C823.8 530.067 823 534.2 821.4 538.2C819.8 542.067 817.667 545.867 815 549.6C812.333 553.333 809.333 556.933 806 560.4C802.667 563.867 799.267 567.2 795.8 570.4C794.067 572 792.067 573.933 789.8 576.2C787.533 578.333 785.4 580.6 783.4 583C781.4 585.267 779.667 587.6 778.2 590C776.867 592.4 776.2 594.6 776.2 596.6H829.4V617H748.6C748.2 615.667 748 614 748 612C748.133 610 748.2 608.6 748.2 607.8C748.2 601.133 749.4 595 751.8 589.4C754.333 583.8 757.467 578.667 761.2 574C765.067 569.2 769.133 564.8 773.4 560.8C777.8 556.667 781.867 552.733 785.6 549C789.467 545.267 792.6 541.667 795 538.2C797.533 534.733 798.8 531.2 798.8 527.6C798.8 522.533 797.267 518.667 794.2 516C791.133 513.2 787.267 511.8 782.6 511.8C778.733 511.8 774.667 512.733 770.4 514.6C766.133 516.467 761.933 519.6 757.8 524L745.6 506.8C750.933 501.2 757.067 497.067 764 494.4C771.067 491.733 778.067 490.4 785 490.4C790.067 490.4 794.933 491.133 799.6 492.6C804.267 494.067 808.4 496.267 812 499.2C815.6 502.133 818.467 505.867 820.6 510.4C822.733 514.8 823.8 519.933 823.8 525.8Z" fill="white"/>
<path d="M1038.2 580.6C1038.2 577.133 1037.6 574 1036.4 571.2C1035.33 568.267 1033.07 565.8 1029.6 563.8C1026.27 561.667 1021.47 560.067 1015.2 559C1008.93 557.8 1000.73 557.2 990.6 557.2C991.933 546 993 535.067 993.8 524.4C994.6 513.6 995.2 503.2 995.6 493.2H1058.8V513.6H1016.2C1015.93 517.867 1015.6 522.333 1015.2 527C1014.8 531.667 1014.47 535.467 1014.2 538.4C1030.73 539.467 1043.07 543.467 1051.2 550.4C1059.33 557.333 1063.4 567.067 1063.4 579.6C1063.4 585.333 1062.4 590.667 1060.4 595.6C1058.4 600.4 1055.33 604.6 1051.2 608.2C1047.07 611.8 1041.93 614.6 1035.8 616.6C1029.67 618.6 1022.53 619.6 1014.4 619.6C1011.2 619.6 1007.93 619.4 1004.6 619C1001.27 618.6 998.067 618.067 995 617.4C991.933 616.867 989.133 616.2 986.6 615.4C984.2 614.6 982.333 613.867 981 613.2L986 592.8C988.933 594.267 992.667 595.6 997.2 596.8C1001.73 598 1007.4 598.6 1014.2 598.6C1019 598.6 1022.93 598.067 1026 597C1029.2 595.933 1031.67 594.6 1033.4 593C1035.27 591.267 1036.53 589.333 1037.2 587.2C1037.87 585.067 1038.2 582.867 1038.2 580.6Z" fill="white"/>
<path d="M1268 524C1265.6 527.067 1263.13 530.333 1260.6 533.8C1258.07 537.267 1255.53 540.933 1253 544.8C1250.6 548.533 1248.27 552.333 1246 556.2C1243.73 560.067 1241.73 563.867 1240 567.6H1268V524ZM1292.6 493.2V567.6H1306V587.8H1292.6V617H1268V587.8H1216.4V569.8C1218.93 564.6 1222.2 558.733 1226.2 552.2C1230.2 545.533 1234.6 538.733 1239.4 531.8C1244.2 524.867 1249.27 518.067 1254.6 511.4C1259.93 504.6 1265.27 498.533 1270.6 493.2H1292.6Z" fill="white"/>
<path d="M1239.6 749.6C1240.73 746.933 1242.27 743.867 1244.2 740.4C1246.2 736.933 1248.43 733.367 1250.9 729.7C1253.37 725.967 1256 722.333 1258.8 718.8C1261.6 715.2 1264.43 711.967 1267.3 709.1H1275.3V748.4H1282.6V755.2H1275.3V771H1267.3V755.2H1239.6V749.6ZM1267.3 718.9C1265.5 720.833 1263.67 722.967 1261.8 725.3C1260 727.633 1258.23 730.1 1256.5 732.7C1254.77 735.233 1253.13 737.833 1251.6 740.5C1250.13 743.167 1248.8 745.8 1247.6 748.4H1267.3V718.9Z" fill="#404040"/>
<path d="M1020.2 765C1025.47 765 1029.2 763.967 1031.4 761.9C1033.67 759.767 1034.8 756.933 1034.8 753.4C1034.8 751.133 1034.33 749.233 1033.4 747.7C1032.47 746.167 1031.23 744.933 1029.7 744C1028.17 743.067 1026.4 742.4 1024.4 742C1022.4 741.6 1020.3 741.4 1018.1 741.4H1016V734.7H1018.9C1020.37 734.7 1021.87 734.567 1023.4 734.3C1025 733.967 1026.43 733.433 1027.7 732.7C1029.03 731.9 1030.1 730.833 1030.9 729.5C1031.7 728.167 1032.1 726.467 1032.1 724.4C1032.1 721 1031.03 718.6 1028.9 717.2C1026.83 715.733 1024.4 715 1021.6 715C1018.73 715 1016.3 715.433 1014.3 716.3C1012.3 717.1 1010.63 717.933 1009.3 718.8L1006.1 712.5C1007.5 711.5 1009.6 710.467 1012.4 709.4C1015.27 708.267 1018.43 707.7 1021.9 707.7C1025.17 707.7 1027.97 708.1 1030.3 708.9C1032.63 709.7 1034.53 710.833 1036 712.3C1037.53 713.767 1038.67 715.5 1039.4 717.5C1040.13 719.433 1040.5 721.567 1040.5 723.9C1040.5 727.167 1039.63 729.933 1037.9 732.2C1036.23 734.467 1034.07 736.2 1031.4 737.4C1034.6 738.333 1037.37 740.167 1039.7 742.9C1042.03 745.567 1043.2 749.133 1043.2 753.6C1043.2 756.267 1042.73 758.767 1041.8 761.1C1040.93 763.367 1039.57 765.333 1037.7 767C1035.9 768.667 1033.53 769.967 1030.6 770.9C1027.73 771.833 1024.3 772.3 1020.3 772.3C1018.77 772.3 1017.17 772.167 1015.5 771.9C1013.9 771.7 1012.4 771.4 1011 771C1009.6 770.667 1008.33 770.333 1007.2 770C1006.13 769.6 1005.37 769.3 1004.9 769.1L1006.5 762C1007.57 762.533 1009.27 763.167 1011.6 763.9C1013.93 764.633 1016.8 765 1020.2 765Z" fill="#404040"/>
<path d="M318.8 738.9C318.8 740.633 318.267 742.133 317.2 743.4C316.2 744.667 314.867 745.3 313.2 745.3C311.467 745.3 310.067 744.667 309 743.4C307.933 742.133 307.4 740.633 307.4 738.9C307.4 737.167 307.933 735.633 309 734.3C310.067 732.967 311.467 732.3 313.2 732.3C314.867 732.3 316.2 732.967 317.2 734.3C318.267 735.633 318.8 737.167 318.8 738.9ZM292.6 740C292.6 729.6 294.367 721.633 297.9 716.1C301.5 710.5 306.533 707.7 313 707.7C319.533 707.7 324.567 710.5 328.1 716.1C331.633 721.633 333.4 729.6 333.4 740C333.4 750.4 331.633 758.4 328.1 764C324.567 769.533 319.533 772.3 313 772.3C306.533 772.3 301.5 769.533 297.9 764C294.367 758.4 292.6 750.4 292.6 740ZM325 740C325 736.6 324.8 733.4 324.4 730.4C324 727.333 323.333 724.667 322.4 722.4C321.467 720.133 320.233 718.333 318.7 717C317.167 715.667 315.267 715 313 715C310.733 715 308.833 715.667 307.3 717C305.767 718.333 304.533 720.133 303.6 722.4C302.667 724.667 302 727.333 301.6 730.4C301.2 733.4 301 736.6 301 740C301 743.4 301.2 746.633 301.6 749.7C302 752.7 302.667 755.333 303.6 757.6C304.533 759.867 305.767 761.667 307.3 763C308.833 764.333 310.733 765 313 765C315.267 765 317.167 764.333 318.7 763C320.233 761.667 321.467 759.867 322.4 757.6C323.333 755.333 324 752.7 324.4 749.7C324.8 746.633 325 743.4 325 740Z" fill="#404040"/>
<path d="M532.5 721.9C535.9 720.567 539.2 718.9 542.4 716.9C545.6 714.833 548.567 712.233 551.3 709.1H557.1V764H568.8V771H535.5V764H548.9V720.6C548.167 721.267 547.267 721.967 546.2 722.7C545.2 723.367 544.067 724.033 542.8 724.7C541.6 725.367 540.333 726 539 726.6C537.667 727.2 536.367 727.7 535.1 728.1L532.5 721.9Z" fill="#404040"/>
<path d="M804 724.9C804 727.033 803.567 729.1 802.7 731.1C801.9 733.1 800.8 735.067 799.4 737C798.067 738.933 796.533 740.833 794.8 742.7C793.067 744.567 791.3 746.4 789.5 748.2C788.5 749.2 787.333 750.4 786 751.8C784.667 753.2 783.4 754.633 782.2 756.1C781 757.567 780 759 779.2 760.4C778.4 761.8 778 763 778 764H806.5V771H769C768.933 770.667 768.9 770.333 768.9 770C768.9 769.6 768.9 769.233 768.9 768.9C768.9 766.1 769.367 763.5 770.3 761.1C771.233 758.7 772.433 756.433 773.9 754.3C775.367 752.167 777 750.167 778.8 748.3C780.667 746.367 782.5 744.5 784.3 742.7C785.767 741.233 787.167 739.8 788.5 738.4C789.9 737 791.1 735.6 792.1 734.2C793.167 732.8 794 731.367 794.6 729.9C795.267 728.367 795.6 726.8 795.6 725.2C795.6 723.4 795.3 721.867 794.7 720.6C794.167 719.333 793.4 718.3 792.4 717.5C791.467 716.633 790.367 716 789.1 715.6C787.833 715.2 786.467 715 785 715C783.267 715 781.667 715.233 780.2 715.7C778.8 716.167 777.533 716.733 776.4 717.4C775.333 718.067 774.4 718.733 773.6 719.4C772.8 720 772.2 720.5 771.8 720.9L767.7 715.1C768.233 714.5 769.033 713.767 770.1 712.9C771.167 712.033 772.433 711.233 773.9 710.5C775.433 709.7 777.133 709.033 779 708.5C780.867 707.967 782.867 707.7 785 707.7C791.467 707.7 796.233 709.2 799.3 712.2C802.433 715.133 804 719.367 804 724.9Z" fill="#404040"/>
<path d="M1261.3 414L1218 339L1304.6 339L1261.3 414Z" fill="#FF9D66"/>
<path d="M1271.3 284L1271.3 339L1251.3 339L1251.3 284L1271.3 284Z" fill="#FF9D66"/>
<path d="M313.301 414L270 339L356.603 339L313.301 414Z" fill="#FF6F66"/>
<path d="M323.301 284L323.301 339L303.301 339L303.301 284L323.301 284Z" fill="#FF6F66"/>
<path d="M197.1 240V178.1H232.2V185.1H205.3V204.4H229V211.3H205.3V240H197.1ZM248.7 240V196.1C255.5 193.767 262.367 192.6 269.3 192.6C271.433 192.6 273.467 192.7 275.4 192.9C277.333 193.033 279.467 193.367 281.8 193.9L280.3 201.2C278.167 200.6 276.267 200.233 274.6 200.1C273 199.9 271.233 199.8 269.3 199.8C265.233 199.8 261.1 200.367 256.9 201.5V240H248.7ZM334 216.8C334 220.467 333.467 223.8 332.4 226.8C331.4 229.733 329.967 232.267 328.1 234.4C326.233 236.533 324 238.2 321.4 239.4C318.8 240.533 315.967 241.1 312.9 241.1C309.9 241.1 307.1 240.533 304.5 239.4C301.967 238.2 299.767 236.533 297.9 234.4C296.033 232.267 294.567 229.733 293.5 226.8C292.5 223.8 292 220.467 292 216.8C292 213.133 292.5 209.8 293.5 206.8C294.567 203.8 296.033 201.267 297.9 199.2C299.767 197.067 301.967 195.433 304.5 194.3C307.1 193.1 309.9 192.5 312.9 192.5C315.967 192.5 318.8 193.1 321.4 194.3C324 195.433 326.233 197.067 328.1 199.2C329.967 201.267 331.4 203.8 332.4 206.8C333.467 209.8 334 213.133 334 216.8ZM325.5 216.8C325.5 211.533 324.367 207.4 322.1 204.4C319.833 201.333 316.767 199.8 312.9 199.8C309.1 199.8 306.067 201.333 303.8 204.4C301.6 207.4 300.5 211.533 300.5 216.8C300.5 222 301.6 226.133 303.8 229.2C306.067 232.2 309.1 233.7 312.9 233.7C316.767 233.7 319.833 232.2 322.1 229.2C324.367 226.133 325.5 222 325.5 216.8ZM345.1 194.9C348.1 194.167 351.067 193.6 354 193.2C357 192.8 359.8 192.6 362.4 192.6C368.6 192.6 373.267 194.2 376.4 197.4C379.6 200.6 381.2 205.733 381.2 212.8V240H373V214.3C373 211.3 372.733 208.867 372.2 207C371.667 205.133 370.9 203.7 369.9 202.7C368.967 201.633 367.8 200.9 366.4 200.5C365.067 200.1 363.6 199.9 362 199.9C360.667 199.9 359.233 200 357.7 200.2C356.233 200.333 354.8 200.533 353.4 200.8V240H345.1V194.9ZM412.3 193.6H431.9V200.5H412.3V222.1C412.3 224.433 412.467 226.333 412.8 227.8C413.133 229.267 413.667 230.467 414.4 231.4C415.2 232.267 416.2 232.867 417.4 233.2C418.6 233.533 420.067 233.7 421.8 233.7C424.2 233.7 426.133 233.5 427.6 233.1C429.067 232.7 430.467 232.167 431.8 231.5L433 238.5C432.067 238.9 430.567 239.433 428.5 240.1C426.5 240.767 424 241.1 421 241.1C417.533 241.1 414.7 240.7 412.5 239.9C410.3 239.1 408.567 237.9 407.3 236.3C406.1 234.7 405.267 232.733 404.8 230.4C404.333 228 404.1 225.233 404.1 222.1V200.5H394.3V193.6H404.1V180.6L412.3 179.2V193.6Z" fill="#404040"/>
<path d="M1181.4 230.5C1180.4 230.5 1179.23 230.467 1177.9 230.4C1176.57 230.333 1175.23 230.233 1173.9 230.1C1172.57 230.033 1171.23 229.9 1169.9 229.7C1168.57 229.5 1167.4 229.267 1166.4 229V169C1167.4 168.733 1168.53 168.5 1169.8 168.3C1171.13 168.1 1172.47 167.967 1173.8 167.9C1175.2 167.767 1176.53 167.667 1177.8 167.6C1179.13 167.533 1180.33 167.5 1181.4 167.5C1184.47 167.5 1187.33 167.767 1190 168.3C1192.67 168.833 1194.97 169.733 1196.9 171C1198.9 172.267 1200.43 173.933 1201.5 176C1202.63 178.067 1203.2 180.633 1203.2 183.7C1203.2 185.167 1202.97 186.6 1202.5 188C1202.03 189.333 1201.37 190.6 1200.5 191.8C1199.7 193 1198.73 194.067 1197.6 195C1196.53 195.867 1195.37 196.533 1194.1 197C1197.5 197.933 1200.33 199.667 1202.6 202.2C1204.93 204.667 1206.1 207.9 1206.1 211.9C1206.1 218.033 1204.13 222.667 1200.2 225.8C1196.27 228.933 1190 230.5 1181.4 230.5ZM1174.6 201.1V223.2C1174.73 223.267 1175.47 223.367 1176.8 223.5C1178.2 223.567 1179.93 223.6 1182 223.6C1184.07 223.6 1186.03 223.433 1187.9 223.1C1189.83 222.767 1191.53 222.167 1193 221.3C1194.47 220.367 1195.63 219.167 1196.5 217.7C1197.43 216.233 1197.9 214.333 1197.9 212C1197.9 209.933 1197.47 208.2 1196.6 206.8C1195.8 205.4 1194.7 204.3 1193.3 203.5C1191.97 202.633 1190.4 202.033 1188.6 201.7C1186.8 201.3 1184.93 201.1 1183 201.1H1174.6ZM1174.6 194.3H1181.1C1182.77 194.3 1184.43 194.133 1186.1 193.8C1187.77 193.467 1189.27 192.933 1190.6 192.2C1191.93 191.467 1193 190.467 1193.8 189.2C1194.6 187.933 1195 186.333 1195 184.4C1195 182.6 1194.63 181.067 1193.9 179.8C1193.17 178.533 1192.2 177.5 1191 176.7C1189.8 175.9 1188.4 175.333 1186.8 175C1185.27 174.667 1183.63 174.5 1181.9 174.5C1180.17 174.5 1178.63 174.533 1177.3 174.6C1176.03 174.6 1175.13 174.667 1174.6 174.8V194.3ZM1236.5 224.1C1238.57 224.1 1240.4 224.033 1242 223.9C1243.67 223.767 1245.03 223.6 1246.1 223.4V209.6C1245.03 209.267 1243.73 209 1242.2 208.8C1240.73 208.6 1239.17 208.5 1237.5 208.5C1235.97 208.5 1234.47 208.633 1233 208.9C1231.53 209.1 1230.23 209.5 1229.1 210.1C1227.97 210.7 1227.03 211.5 1226.3 212.5C1225.57 213.433 1225.2 214.633 1225.2 216.1C1225.2 219.1 1226.2 221.2 1228.2 222.4C1230.27 223.533 1233.03 224.1 1236.5 224.1ZM1235.7 182.5C1239.17 182.5 1242.07 182.933 1244.4 183.8C1246.8 184.667 1248.73 185.867 1250.2 187.4C1251.67 188.933 1252.7 190.8 1253.3 193C1253.9 195.2 1254.2 197.6 1254.2 200.2V229.2C1252.27 229.533 1249.7 229.933 1246.5 230.4C1243.37 230.867 1240.13 231.1 1236.8 231.1C1234.27 231.1 1231.8 230.867 1229.4 230.4C1227 230 1224.87 229.267 1223 228.2C1221.13 227.067 1219.63 225.533 1218.5 223.6C1217.37 221.667 1216.8 219.2 1216.8 216.2C1216.8 213.533 1217.37 211.3 1218.5 209.5C1219.7 207.633 1221.2 206.133 1223 205C1224.87 203.867 1226.97 203.067 1229.3 202.6C1231.7 202.067 1234.1 201.8 1236.5 201.8C1239.77 201.8 1242.97 202.167 1246.1 202.9V200.6C1246.1 199.2 1245.93 197.867 1245.6 196.6C1245.33 195.267 1244.77 194.067 1243.9 193C1243.1 191.933 1241.97 191.1 1240.5 190.5C1239.1 189.833 1237.27 189.5 1235 189.5C1232.13 189.5 1229.63 189.7 1227.5 190.1C1225.37 190.5 1223.73 190.9 1222.6 191.3L1221.6 184.5C1222.73 183.967 1224.6 183.5 1227.2 183.1C1229.87 182.7 1232.7 182.5 1235.7 182.5ZM1265.9 206.9C1265.9 202.7 1266.57 199.067 1267.9 196C1269.23 192.933 1271.07 190.4 1273.4 188.4C1275.73 186.4 1278.43 184.933 1281.5 184C1284.63 183 1287.97 182.5 1291.5 182.5C1293.77 182.5 1296 182.667 1298.2 183C1300.47 183.267 1302.87 183.8 1305.4 184.6L1303.5 191.7C1301.3 190.9 1299.27 190.4 1297.4 190.2C1295.6 189.933 1293.77 189.8 1291.9 189.8C1289.5 189.8 1287.23 190.133 1285.1 190.8C1282.97 191.4 1281.1 192.4 1279.5 193.8C1277.97 195.133 1276.73 196.9 1275.8 199.1C1274.87 201.233 1274.4 203.833 1274.4 206.9C1274.4 209.833 1274.83 212.367 1275.7 214.5C1276.57 216.567 1277.77 218.3 1279.3 219.7C1280.9 221.033 1282.8 222.033 1285 222.7C1287.2 223.367 1289.63 223.7 1292.3 223.7C1294.43 223.7 1296.47 223.6 1298.4 223.4C1300.4 223.133 1302.57 222.6 1304.9 221.8L1306.1 228.7C1303.77 229.567 1301.4 230.167 1299 230.5C1296.6 230.9 1294 231.1 1291.2 231.1C1287.47 231.1 1284.03 230.6 1280.9 229.6C1277.83 228.533 1275.17 227 1272.9 225C1270.7 223 1268.97 220.5 1267.7 217.5C1266.5 214.433 1265.9 210.9 1265.9 206.9ZM1334.8 204.5C1336.6 205.833 1338.63 207.533 1340.9 209.6C1343.17 211.6 1345.4 213.767 1347.6 216.1C1349.87 218.433 1352 220.833 1354 223.3C1356 225.7 1357.6 227.933 1358.8 230H1349C1347.73 227.933 1346.17 225.833 1344.3 223.7C1342.43 221.5 1340.43 219.4 1338.3 217.4C1336.23 215.4 1334.13 213.567 1332 211.9C1329.93 210.233 1328.07 208.833 1326.4 207.7V230H1318.1V162.1L1326.4 160.7V203C1330.07 199.8 1333.73 196.633 1337.4 193.5C1341.07 190.3 1344.37 187 1347.3 183.6H1357C1354.13 187 1350.67 190.5 1346.6 194.1C1342.6 197.7 1338.67 201.167 1334.8 204.5Z" fill="#404040"/>
</svg>
