<svg width="1682" height="1655" viewBox="0 0 1682 1655" fill="none" xmlns="http://www.w3.org/2000/svg">
<rect x="844" y="408" width="200" height="200" rx="20" fill="#FF8266"/>
<rect x="1081" y="408" width="200" height="200" rx="20" fill="#FF8B66"/>
<rect x="1318" y="408" width="200" height="200" rx="20" fill="#FF9D66"/>
<rect x="607" y="408" width="200" height="200" rx="20" fill="#FF7866"/>
<rect x="370" y="408" width="200" height="200" rx="20" fill="#FF6F66"/>
<path d="M472.2 508.2C474.733 508.2 477.4 507.933 480.2 507.4C483 506.867 485.267 506.133 487 505.2C487.133 504.133 487.2 502.867 487.2 501.4C487.333 499.8 487.4 498.267 487.4 496.8C487.4 493.467 487.067 490.133 486.4 486.8C485.867 483.333 484.867 480.2 483.4 477.4C482.067 474.6 480.2 472.333 477.8 470.6C475.533 468.867 472.667 468 469.2 468C466.267 468 463.733 468.6 461.6 469.8C459.6 470.867 457.933 472.333 456.6 474.2C455.4 476.067 454.467 478.267 453.8 480.8C453.267 483.333 453 486 453 488.8C453 495.067 454.467 499.867 457.4 503.2C460.333 506.533 465.267 508.2 472.2 508.2ZM469 528.6C461.8 528.6 455.667 527.6 450.6 525.6C445.533 523.467 441.4 520.6 438.2 517C435 513.4 432.667 509.267 431.2 504.6C429.733 499.8 429 494.667 429 489.2C429 484.4 429.8 479.533 431.4 474.6C433.133 469.533 435.6 465 438.8 461C442.133 456.867 446.267 453.533 451.2 451C456.133 448.333 461.933 447 468.6 447C482.467 447 493.067 451.667 500.4 461C507.733 470.333 511.4 483.333 511.4 500C511.4 512 509.667 522.667 506.2 532C502.733 541.2 497.733 548.933 491.2 555.2C484.8 561.467 477 566.267 467.8 569.6C458.733 572.8 448.6 574.4 437.4 574.4L436.6 553.2C447.267 553.067 456.8 550.8 465.2 546.4C473.6 541.867 479.533 534.8 483 525.2C477.8 527.467 473.133 528.6 469 528.6Z" fill="white"/>
<path d="M699.6 553.6V484.4C695.867 487.067 691.6 489.467 686.8 491.6C682 493.6 677.933 495.2 674.6 496.4L666.6 476C669.8 474.8 673.267 473.267 677 471.4C680.733 469.533 684.467 467.467 688.2 465.2C691.933 462.933 695.467 460.533 698.8 458C702.133 455.467 705 452.867 707.4 450.2H724.2V553.6H748.8V574H673.6V553.6H699.6Z" fill="white"/>
<path d="M980.8 482.8C980.8 487.067 980 491.2 978.4 495.2C976.8 499.067 974.667 502.867 972 506.6C969.333 510.333 966.333 513.933 963 517.4C959.667 520.867 956.267 524.2 952.8 527.4C951.067 529 949.067 530.933 946.8 533.2C944.533 535.333 942.4 537.6 940.4 540C938.4 542.267 936.667 544.6 935.2 547C933.867 549.4 933.2 551.6 933.2 553.6H986.4V574H905.6C905.2 572.667 905 571 905 569C905.133 567 905.2 565.6 905.2 564.8C905.2 558.133 906.4 552 908.8 546.4C911.333 540.8 914.467 535.667 918.2 531C922.067 526.2 926.133 521.8 930.4 517.8C934.8 513.667 938.867 509.733 942.6 506C946.467 502.267 949.6 498.667 952 495.2C954.533 491.733 955.8 488.2 955.8 484.6C955.8 479.533 954.267 475.667 951.2 473C948.133 470.2 944.267 468.8 939.6 468.8C935.733 468.8 931.667 469.733 927.4 471.6C923.133 473.467 918.933 476.6 914.8 481L902.6 463.8C907.933 458.2 914.067 454.067 921 451.4C928.067 448.733 935.067 447.4 942 447.4C947.067 447.4 951.933 448.133 956.6 449.6C961.267 451.067 965.4 453.267 969 456.2C972.6 459.133 975.467 462.867 977.6 467.4C979.733 471.8 980.8 476.933 980.8 482.8Z" fill="white"/>
<path d="M1195.2 537.6C1195.2 534.133 1194.6 531 1193.4 528.2C1192.33 525.267 1190.07 522.8 1186.6 520.8C1183.27 518.667 1178.47 517.067 1172.2 516C1165.93 514.8 1157.73 514.2 1147.6 514.2C1148.93 503 1150 492.067 1150.8 481.4C1151.6 470.6 1152.2 460.2 1152.6 450.2H1215.8V470.6H1173.2C1172.93 474.867 1172.6 479.333 1172.2 484C1171.8 488.667 1171.47 492.467 1171.2 495.4C1187.73 496.467 1200.07 500.467 1208.2 507.4C1216.33 514.333 1220.4 524.067 1220.4 536.6C1220.4 542.333 1219.4 547.667 1217.4 552.6C1215.4 557.4 1212.33 561.6 1208.2 565.2C1204.07 568.8 1198.93 571.6 1192.8 573.6C1186.67 575.6 1179.53 576.6 1171.4 576.6C1168.2 576.6 1164.93 576.4 1161.6 576C1158.27 575.6 1155.07 575.067 1152 574.4C1148.93 573.867 1146.13 573.2 1143.6 572.4C1141.2 571.6 1139.33 570.867 1138 570.2L1143 549.8C1145.93 551.267 1149.67 552.6 1154.2 553.8C1158.73 555 1164.4 555.6 1171.2 555.6C1176 555.6 1179.93 555.067 1183 554C1186.2 552.933 1188.67 551.6 1190.4 550C1192.27 548.267 1193.53 546.333 1194.2 544.2C1194.87 542.067 1195.2 539.867 1195.2 537.6Z" fill="white"/>
<path d="M1425 481C1422.6 484.067 1420.13 487.333 1417.6 490.8C1415.07 494.267 1412.53 497.933 1410 501.8C1407.6 505.533 1405.27 509.333 1403 513.2C1400.73 517.067 1398.73 520.867 1397 524.6H1425V481ZM1449.6 450.2V524.6H1463V544.8H1449.6V574H1425V544.8H1373.4V526.8C1375.93 521.6 1379.2 515.733 1383.2 509.2C1387.2 502.533 1391.6 495.733 1396.4 488.8C1401.2 481.867 1406.27 475.067 1411.6 468.4C1416.93 461.6 1422.27 455.533 1427.6 450.2H1449.6Z" fill="white"/>
<path d="M1396.6 706.6C1397.73 703.933 1399.27 700.867 1401.2 697.4C1403.2 693.933 1405.43 690.367 1407.9 686.7C1410.37 682.967 1413 679.333 1415.8 675.8C1418.6 672.2 1421.43 668.967 1424.3 666.1H1432.3V705.4H1439.6V712.2H1432.3V728H1424.3V712.2H1396.6V706.6ZM1424.3 675.9C1422.5 677.833 1420.67 679.967 1418.8 682.3C1417 684.633 1415.23 687.1 1413.5 689.7C1411.77 692.233 1410.13 694.833 1408.6 697.5C1407.13 700.167 1405.8 702.8 1404.6 705.4H1424.3V675.9Z" fill="#404040"/>
<path d="M1177.2 722C1182.47 722 1186.2 720.967 1188.4 718.9C1190.67 716.767 1191.8 713.933 1191.8 710.4C1191.8 708.133 1191.33 706.233 1190.4 704.7C1189.47 703.167 1188.23 701.933 1186.7 701C1185.17 700.067 1183.4 699.4 1181.4 699C1179.4 698.6 1177.3 698.4 1175.1 698.4H1173V691.7H1175.9C1177.37 691.7 1178.87 691.567 1180.4 691.3C1182 690.967 1183.43 690.433 1184.7 689.7C1186.03 688.9 1187.1 687.833 1187.9 686.5C1188.7 685.167 1189.1 683.467 1189.1 681.4C1189.1 678 1188.03 675.6 1185.9 674.2C1183.83 672.733 1181.4 672 1178.6 672C1175.73 672 1173.3 672.433 1171.3 673.3C1169.3 674.1 1167.63 674.933 1166.3 675.8L1163.1 669.5C1164.5 668.5 1166.6 667.467 1169.4 666.4C1172.27 665.267 1175.43 664.7 1178.9 664.7C1182.17 664.7 1184.97 665.1 1187.3 665.9C1189.63 666.7 1191.53 667.833 1193 669.3C1194.53 670.767 1195.67 672.5 1196.4 674.5C1197.13 676.433 1197.5 678.567 1197.5 680.9C1197.5 684.167 1196.63 686.933 1194.9 689.2C1193.23 691.467 1191.07 693.2 1188.4 694.4C1191.6 695.333 1194.37 697.167 1196.7 699.9C1199.03 702.567 1200.2 706.133 1200.2 710.6C1200.2 713.267 1199.73 715.767 1198.8 718.1C1197.93 720.367 1196.57 722.333 1194.7 724C1192.9 725.667 1190.53 726.967 1187.6 727.9C1184.73 728.833 1181.3 729.3 1177.3 729.3C1175.77 729.3 1174.17 729.167 1172.5 728.9C1170.9 728.7 1169.4 728.4 1168 728C1166.6 727.667 1165.33 727.333 1164.2 727C1163.13 726.6 1162.37 726.3 1161.9 726.1L1163.5 719C1164.57 719.533 1166.27 720.167 1168.6 720.9C1170.93 721.633 1173.8 722 1177.2 722Z" fill="#404040"/>
<path d="M475.8 695.9C475.8 697.633 475.267 699.133 474.2 700.4C473.2 701.667 471.867 702.3 470.2 702.3C468.467 702.3 467.067 701.667 466 700.4C464.933 699.133 464.4 697.633 464.4 695.9C464.4 694.167 464.933 692.633 466 691.3C467.067 689.967 468.467 689.3 470.2 689.3C471.867 689.3 473.2 689.967 474.2 691.3C475.267 692.633 475.8 694.167 475.8 695.9ZM449.6 697C449.6 686.6 451.367 678.633 454.9 673.1C458.5 667.5 463.533 664.7 470 664.7C476.533 664.7 481.567 667.5 485.1 673.1C488.633 678.633 490.4 686.6 490.4 697C490.4 707.4 488.633 715.4 485.1 721C481.567 726.533 476.533 729.3 470 729.3C463.533 729.3 458.5 726.533 454.9 721C451.367 715.4 449.6 707.4 449.6 697ZM482 697C482 693.6 481.8 690.4 481.4 687.4C481 684.333 480.333 681.667 479.4 679.4C478.467 677.133 477.233 675.333 475.7 674C474.167 672.667 472.267 672 470 672C467.733 672 465.833 672.667 464.3 674C462.767 675.333 461.533 677.133 460.6 679.4C459.667 681.667 459 684.333 458.6 687.4C458.2 690.4 458 693.6 458 697C458 700.4 458.2 703.633 458.6 706.7C459 709.7 459.667 712.333 460.6 714.6C461.533 716.867 462.767 718.667 464.3 720C465.833 721.333 467.733 722 470 722C472.267 722 474.167 721.333 475.7 720C477.233 718.667 478.467 716.867 479.4 714.6C480.333 712.333 481 709.7 481.4 706.7C481.8 703.633 482 700.4 482 697Z" fill="#404040"/>
<path d="M689.5 678.9C692.9 677.567 696.2 675.9 699.4 673.9C702.6 671.833 705.567 669.233 708.3 666.1H714.1V721H725.8V728H692.5V721H705.9V677.6C705.167 678.267 704.267 678.967 703.2 679.7C702.2 680.367 701.067 681.033 699.8 681.7C698.6 682.367 697.333 683 696 683.6C694.667 684.2 693.367 684.7 692.1 685.1L689.5 678.9Z" fill="#404040"/>
<path d="M961 681.9C961 684.033 960.567 686.1 959.7 688.1C958.9 690.1 957.8 692.067 956.4 694C955.067 695.933 953.533 697.833 951.8 699.7C950.067 701.567 948.3 703.4 946.5 705.2C945.5 706.2 944.333 707.4 943 708.8C941.667 710.2 940.4 711.633 939.2 713.1C938 714.567 937 716 936.2 717.4C935.4 718.8 935 720 935 721H963.5V728H926C925.933 727.667 925.9 727.333 925.9 727C925.9 726.6 925.9 726.233 925.9 725.9C925.9 723.1 926.367 720.5 927.3 718.1C928.233 715.7 929.433 713.433 930.9 711.3C932.367 709.167 934 707.167 935.8 705.3C937.667 703.367 939.5 701.5 941.3 699.7C942.767 698.233 944.167 696.8 945.5 695.4C946.9 694 948.1 692.6 949.1 691.2C950.167 689.8 951 688.367 951.6 686.9C952.267 685.367 952.6 683.8 952.6 682.2C952.6 680.4 952.3 678.867 951.7 677.6C951.167 676.333 950.4 675.3 949.4 674.5C948.467 673.633 947.367 673 946.1 672.6C944.833 672.2 943.467 672 942 672C940.267 672 938.667 672.233 937.2 672.7C935.8 673.167 934.533 673.733 933.4 674.4C932.333 675.067 931.4 675.733 930.6 676.4C929.8 677 929.2 677.5 928.8 677.9L924.7 672.1C925.233 671.5 926.033 670.767 927.1 669.9C928.167 669.033 929.433 668.233 930.9 667.5C932.433 666.7 934.133 666.033 936 665.5C937.867 664.967 939.867 664.7 942 664.7C948.467 664.7 953.233 666.2 956.3 669.2C959.433 672.133 961 676.367 961 681.9Z" fill="#404040"/>
<path d="M1418.3 371L1375 296L1461.6 296L1418.3 371Z" fill="#FF9D66"/>
<path d="M1428.3 241L1428.3 296L1408.3 296L1408.3 241L1428.3 241Z" fill="#FF9D66"/>
<path d="M470.301 371L427 296L513.603 296L470.301 371Z" fill="#FF6F66"/>
<path d="M480.301 241L480.301 296L460.301 296L460.301 241L480.301 241Z" fill="#FF6F66"/>
<path d="M354.1 197V135.1H389.2V142.1H362.3V161.4H386V168.3H362.3V197H354.1ZM405.7 197V153.1C412.5 150.767 419.367 149.6 426.3 149.6C428.433 149.6 430.467 149.7 432.4 149.9C434.333 150.033 436.467 150.367 438.8 150.9L437.3 158.2C435.167 157.6 433.267 157.233 431.6 157.1C430 156.9 428.233 156.8 426.3 156.8C422.233 156.8 418.1 157.367 413.9 158.5V197H405.7ZM491 173.8C491 177.467 490.467 180.8 489.4 183.8C488.4 186.733 486.967 189.267 485.1 191.4C483.233 193.533 481 195.2 478.4 196.4C475.8 197.533 472.967 198.1 469.9 198.1C466.9 198.1 464.1 197.533 461.5 196.4C458.967 195.2 456.767 193.533 454.9 191.4C453.033 189.267 451.567 186.733 450.5 183.8C449.5 180.8 449 177.467 449 173.8C449 170.133 449.5 166.8 450.5 163.8C451.567 160.8 453.033 158.267 454.9 156.2C456.767 154.067 458.967 152.433 461.5 151.3C464.1 150.1 466.9 149.5 469.9 149.5C472.967 149.5 475.8 150.1 478.4 151.3C481 152.433 483.233 154.067 485.1 156.2C486.967 158.267 488.4 160.8 489.4 163.8C490.467 166.8 491 170.133 491 173.8ZM482.5 173.8C482.5 168.533 481.367 164.4 479.1 161.4C476.833 158.333 473.767 156.8 469.9 156.8C466.1 156.8 463.067 158.333 460.8 161.4C458.6 164.4 457.5 168.533 457.5 173.8C457.5 179 458.6 183.133 460.8 186.2C463.067 189.2 466.1 190.7 469.9 190.7C473.767 190.7 476.833 189.2 479.1 186.2C481.367 183.133 482.5 179 482.5 173.8ZM502.1 151.9C505.1 151.167 508.067 150.6 511 150.2C514 149.8 516.8 149.6 519.4 149.6C525.6 149.6 530.267 151.2 533.4 154.4C536.6 157.6 538.2 162.733 538.2 169.8V197H530V171.3C530 168.3 529.733 165.867 529.2 164C528.667 162.133 527.9 160.7 526.9 159.7C525.967 158.633 524.8 157.9 523.4 157.5C522.067 157.1 520.6 156.9 519 156.9C517.667 156.9 516.233 157 514.7 157.2C513.233 157.333 511.8 157.533 510.4 157.8V197H502.1V151.9ZM569.3 150.6H588.9V157.5H569.3V179.1C569.3 181.433 569.467 183.333 569.8 184.8C570.133 186.267 570.667 187.467 571.4 188.4C572.2 189.267 573.2 189.867 574.4 190.2C575.6 190.533 577.067 190.7 578.8 190.7C581.2 190.7 583.133 190.5 584.6 190.1C586.067 189.7 587.467 189.167 588.8 188.5L590 195.5C589.067 195.9 587.567 196.433 585.5 197.1C583.5 197.767 581 198.1 578 198.1C574.533 198.1 571.7 197.7 569.5 196.9C567.3 196.1 565.567 194.9 564.3 193.3C563.1 191.7 562.267 189.733 561.8 187.4C561.333 185 561.1 182.233 561.1 179.1V157.5H551.3V150.6H561.1V137.6L569.3 136.2V150.6Z" fill="#404040"/>
<path d="M1338.4 187.5C1337.4 187.5 1336.23 187.467 1334.9 187.4C1333.57 187.333 1332.23 187.233 1330.9 187.1C1329.57 187.033 1328.23 186.9 1326.9 186.7C1325.57 186.5 1324.4 186.267 1323.4 186V126C1324.4 125.733 1325.53 125.5 1326.8 125.3C1328.13 125.1 1329.47 124.967 1330.8 124.9C1332.2 124.767 1333.53 124.667 1334.8 124.6C1336.13 124.533 1337.33 124.5 1338.4 124.5C1341.47 124.5 1344.33 124.767 1347 125.3C1349.67 125.833 1351.97 126.733 1353.9 128C1355.9 129.267 1357.43 130.933 1358.5 133C1359.63 135.067 1360.2 137.633 1360.2 140.7C1360.2 142.167 1359.97 143.6 1359.5 145C1359.03 146.333 1358.37 147.6 1357.5 148.8C1356.7 150 1355.73 151.067 1354.6 152C1353.53 152.867 1352.37 153.533 1351.1 154C1354.5 154.933 1357.33 156.667 1359.6 159.2C1361.93 161.667 1363.1 164.9 1363.1 168.9C1363.1 175.033 1361.13 179.667 1357.2 182.8C1353.27 185.933 1347 187.5 1338.4 187.5ZM1331.6 158.1V180.2C1331.73 180.267 1332.47 180.367 1333.8 180.5C1335.2 180.567 1336.93 180.6 1339 180.6C1341.07 180.6 1343.03 180.433 1344.9 180.1C1346.83 179.767 1348.53 179.167 1350 178.3C1351.47 177.367 1352.63 176.167 1353.5 174.7C1354.43 173.233 1354.9 171.333 1354.9 169C1354.9 166.933 1354.47 165.2 1353.6 163.8C1352.8 162.4 1351.7 161.3 1350.3 160.5C1348.97 159.633 1347.4 159.033 1345.6 158.7C1343.8 158.3 1341.93 158.1 1340 158.1H1331.6ZM1331.6 151.3H1338.1C1339.77 151.3 1341.43 151.133 1343.1 150.8C1344.77 150.467 1346.27 149.933 1347.6 149.2C1348.93 148.467 1350 147.467 1350.8 146.2C1351.6 144.933 1352 143.333 1352 141.4C1352 139.6 1351.63 138.067 1350.9 136.8C1350.17 135.533 1349.2 134.5 1348 133.7C1346.8 132.9 1345.4 132.333 1343.8 132C1342.27 131.667 1340.63 131.5 1338.9 131.5C1337.17 131.5 1335.63 131.533 1334.3 131.6C1333.03 131.6 1332.13 131.667 1331.6 131.8V151.3ZM1393.5 181.1C1395.57 181.1 1397.4 181.033 1399 180.9C1400.67 180.767 1402.03 180.6 1403.1 180.4V166.6C1402.03 166.267 1400.73 166 1399.2 165.8C1397.73 165.6 1396.17 165.5 1394.5 165.5C1392.97 165.5 1391.47 165.633 1390 165.9C1388.53 166.1 1387.23 166.5 1386.1 167.1C1384.97 167.7 1384.03 168.5 1383.3 169.5C1382.57 170.433 1382.2 171.633 1382.2 173.1C1382.2 176.1 1383.2 178.2 1385.2 179.4C1387.27 180.533 1390.03 181.1 1393.5 181.1ZM1392.7 139.5C1396.17 139.5 1399.07 139.933 1401.4 140.8C1403.8 141.667 1405.73 142.867 1407.2 144.4C1408.67 145.933 1409.7 147.8 1410.3 150C1410.9 152.2 1411.2 154.6 1411.2 157.2V186.2C1409.27 186.533 1406.7 186.933 1403.5 187.4C1400.37 187.867 1397.13 188.1 1393.8 188.1C1391.27 188.1 1388.8 187.867 1386.4 187.4C1384 187 1381.87 186.267 1380 185.2C1378.13 184.067 1376.63 182.533 1375.5 180.6C1374.37 178.667 1373.8 176.2 1373.8 173.2C1373.8 170.533 1374.37 168.3 1375.5 166.5C1376.7 164.633 1378.2 163.133 1380 162C1381.87 160.867 1383.97 160.067 1386.3 159.6C1388.7 159.067 1391.1 158.8 1393.5 158.8C1396.77 158.8 1399.97 159.167 1403.1 159.9V157.6C1403.1 156.2 1402.93 154.867 1402.6 153.6C1402.33 152.267 1401.77 151.067 1400.9 150C1400.1 148.933 1398.97 148.1 1397.5 147.5C1396.1 146.833 1394.27 146.5 1392 146.5C1389.13 146.5 1386.63 146.7 1384.5 147.1C1382.37 147.5 1380.73 147.9 1379.6 148.3L1378.6 141.5C1379.73 140.967 1381.6 140.5 1384.2 140.1C1386.87 139.7 1389.7 139.5 1392.7 139.5ZM1422.9 163.9C1422.9 159.7 1423.57 156.067 1424.9 153C1426.23 149.933 1428.07 147.4 1430.4 145.4C1432.73 143.4 1435.43 141.933 1438.5 141C1441.63 140 1444.97 139.5 1448.5 139.5C1450.77 139.5 1453 139.667 1455.2 140C1457.47 140.267 1459.87 140.8 1462.4 141.6L1460.5 148.7C1458.3 147.9 1456.27 147.4 1454.4 147.2C1452.6 146.933 1450.77 146.8 1448.9 146.8C1446.5 146.8 1444.23 147.133 1442.1 147.8C1439.97 148.4 1438.1 149.4 1436.5 150.8C1434.97 152.133 1433.73 153.9 1432.8 156.1C1431.87 158.233 1431.4 160.833 1431.4 163.9C1431.4 166.833 1431.83 169.367 1432.7 171.5C1433.57 173.567 1434.77 175.3 1436.3 176.7C1437.9 178.033 1439.8 179.033 1442 179.7C1444.2 180.367 1446.63 180.7 1449.3 180.7C1451.43 180.7 1453.47 180.6 1455.4 180.4C1457.4 180.133 1459.57 179.6 1461.9 178.8L1463.1 185.7C1460.77 186.567 1458.4 187.167 1456 187.5C1453.6 187.9 1451 188.1 1448.2 188.1C1444.47 188.1 1441.03 187.6 1437.9 186.6C1434.83 185.533 1432.17 184 1429.9 182C1427.7 180 1425.97 177.5 1424.7 174.5C1423.5 171.433 1422.9 167.9 1422.9 163.9ZM1491.8 161.5C1493.6 162.833 1495.63 164.533 1497.9 166.6C1500.17 168.6 1502.4 170.767 1504.6 173.1C1506.87 175.433 1509 177.833 1511 180.3C1513 182.7 1514.6 184.933 1515.8 187H1506C1504.73 184.933 1503.17 182.833 1501.3 180.7C1499.43 178.5 1497.43 176.4 1495.3 174.4C1493.23 172.4 1491.13 170.567 1489 168.9C1486.93 167.233 1485.07 165.833 1483.4 164.7V187H1475.1V119.1L1483.4 117.7V160C1487.07 156.8 1490.73 153.633 1494.4 150.5C1498.07 147.3 1501.37 144 1504.3 140.6H1514C1511.13 144 1507.67 147.5 1503.6 151.1C1499.6 154.7 1495.67 158.167 1491.8 161.5Z" fill="#404040"/>
<path d="M1405.3 1102L1362 1027L1448.6 1027L1405.3 1102Z" fill="#FF9D66"/>
<path d="M1415.3 972L1415.3 1027L1395.3 1027L1395.3 972L1415.3 972Z" fill="#FF9D66"/>
<path d="M1325.4 918.5C1324.4 918.5 1323.23 918.467 1321.9 918.4C1320.57 918.333 1319.23 918.233 1317.9 918.1C1316.57 918.033 1315.23 917.9 1313.9 917.7C1312.57 917.5 1311.4 917.267 1310.4 917V857C1311.4 856.733 1312.53 856.5 1313.8 856.3C1315.13 856.1 1316.47 855.967 1317.8 855.9C1319.2 855.767 1320.53 855.667 1321.8 855.6C1323.13 855.533 1324.33 855.5 1325.4 855.5C1328.47 855.5 1331.33 855.767 1334 856.3C1336.67 856.833 1338.97 857.733 1340.9 859C1342.9 860.267 1344.43 861.933 1345.5 864C1346.63 866.067 1347.2 868.633 1347.2 871.7C1347.2 873.167 1346.97 874.6 1346.5 876C1346.03 877.333 1345.37 878.6 1344.5 879.8C1343.7 881 1342.73 882.067 1341.6 883C1340.53 883.867 1339.37 884.533 1338.1 885C1341.5 885.933 1344.33 887.667 1346.6 890.2C1348.93 892.667 1350.1 895.9 1350.1 899.9C1350.1 906.033 1348.13 910.667 1344.2 913.8C1340.27 916.933 1334 918.5 1325.4 918.5ZM1318.6 889.1V911.2C1318.73 911.267 1319.47 911.367 1320.8 911.5C1322.2 911.567 1323.93 911.6 1326 911.6C1328.07 911.6 1330.03 911.433 1331.9 911.1C1333.83 910.767 1335.53 910.167 1337 909.3C1338.47 908.367 1339.63 907.167 1340.5 905.7C1341.43 904.233 1341.9 902.333 1341.9 900C1341.9 897.933 1341.47 896.2 1340.6 894.8C1339.8 893.4 1338.7 892.3 1337.3 891.5C1335.97 890.633 1334.4 890.033 1332.6 889.7C1330.8 889.3 1328.93 889.1 1327 889.1H1318.6ZM1318.6 882.3H1325.1C1326.77 882.3 1328.43 882.133 1330.1 881.8C1331.77 881.467 1333.27 880.933 1334.6 880.2C1335.93 879.467 1337 878.467 1337.8 877.2C1338.6 875.933 1339 874.333 1339 872.4C1339 870.6 1338.63 869.067 1337.9 867.8C1337.17 866.533 1336.2 865.5 1335 864.7C1333.8 863.9 1332.4 863.333 1330.8 863C1329.27 862.667 1327.63 862.5 1325.9 862.5C1324.17 862.5 1322.63 862.533 1321.3 862.6C1320.03 862.6 1319.13 862.667 1318.6 862.8V882.3ZM1380.5 912.1C1382.57 912.1 1384.4 912.033 1386 911.9C1387.67 911.767 1389.03 911.6 1390.1 911.4V897.6C1389.03 897.267 1387.73 897 1386.2 896.8C1384.73 896.6 1383.17 896.5 1381.5 896.5C1379.97 896.5 1378.47 896.633 1377 896.9C1375.53 897.1 1374.23 897.5 1373.1 898.1C1371.97 898.7 1371.03 899.5 1370.3 900.5C1369.57 901.433 1369.2 902.633 1369.2 904.1C1369.2 907.1 1370.2 909.2 1372.2 910.4C1374.27 911.533 1377.03 912.1 1380.5 912.1ZM1379.7 870.5C1383.17 870.5 1386.07 870.933 1388.4 871.8C1390.8 872.667 1392.73 873.867 1394.2 875.4C1395.67 876.933 1396.7 878.8 1397.3 881C1397.9 883.2 1398.2 885.6 1398.2 888.2V917.2C1396.27 917.533 1393.7 917.933 1390.5 918.4C1387.37 918.867 1384.13 919.1 1380.8 919.1C1378.27 919.1 1375.8 918.867 1373.4 918.4C1371 918 1368.87 917.267 1367 916.2C1365.13 915.067 1363.63 913.533 1362.5 911.6C1361.37 909.667 1360.8 907.2 1360.8 904.2C1360.8 901.533 1361.37 899.3 1362.5 897.5C1363.7 895.633 1365.2 894.133 1367 893C1368.87 891.867 1370.97 891.067 1373.3 890.6C1375.7 890.067 1378.1 889.8 1380.5 889.8C1383.77 889.8 1386.97 890.167 1390.1 890.9V888.6C1390.1 887.2 1389.93 885.867 1389.6 884.6C1389.33 883.267 1388.77 882.067 1387.9 881C1387.1 879.933 1385.97 879.1 1384.5 878.5C1383.1 877.833 1381.27 877.5 1379 877.5C1376.13 877.5 1373.63 877.7 1371.5 878.1C1369.37 878.5 1367.73 878.9 1366.6 879.3L1365.6 872.5C1366.73 871.967 1368.6 871.5 1371.2 871.1C1373.87 870.7 1376.7 870.5 1379.7 870.5ZM1409.9 894.9C1409.9 890.7 1410.57 887.067 1411.9 884C1413.23 880.933 1415.07 878.4 1417.4 876.4C1419.73 874.4 1422.43 872.933 1425.5 872C1428.63 871 1431.97 870.5 1435.5 870.5C1437.77 870.5 1440 870.667 1442.2 871C1444.47 871.267 1446.87 871.8 1449.4 872.6L1447.5 879.7C1445.3 878.9 1443.27 878.4 1441.4 878.2C1439.6 877.933 1437.77 877.8 1435.9 877.8C1433.5 877.8 1431.23 878.133 1429.1 878.8C1426.97 879.4 1425.1 880.4 1423.5 881.8C1421.97 883.133 1420.73 884.9 1419.8 887.1C1418.87 889.233 1418.4 891.833 1418.4 894.9C1418.4 897.833 1418.83 900.367 1419.7 902.5C1420.57 904.567 1421.77 906.3 1423.3 907.7C1424.9 909.033 1426.8 910.033 1429 910.7C1431.2 911.367 1433.63 911.7 1436.3 911.7C1438.43 911.7 1440.47 911.6 1442.4 911.4C1444.4 911.133 1446.57 910.6 1448.9 909.8L1450.1 916.7C1447.77 917.567 1445.4 918.167 1443 918.5C1440.6 918.9 1438 919.1 1435.2 919.1C1431.47 919.1 1428.03 918.6 1424.9 917.6C1421.83 916.533 1419.17 915 1416.9 913C1414.7 911 1412.97 908.5 1411.7 905.5C1410.5 902.433 1409.9 898.9 1409.9 894.9ZM1478.8 892.5C1480.6 893.833 1482.63 895.533 1484.9 897.6C1487.17 899.6 1489.4 901.767 1491.6 904.1C1493.87 906.433 1496 908.833 1498 911.3C1500 913.7 1501.6 915.933 1502.8 918H1493C1491.73 915.933 1490.17 913.833 1488.3 911.7C1486.43 909.5 1484.43 907.4 1482.3 905.4C1480.23 903.4 1478.13 901.567 1476 899.9C1473.93 898.233 1472.07 896.833 1470.4 895.7V918H1462.1V850.1L1470.4 848.7V891C1474.07 887.8 1477.73 884.633 1481.4 881.5C1485.07 878.3 1488.37 875 1491.3 871.6H1501C1498.13 875 1494.67 878.5 1490.6 882.1C1486.6 885.7 1482.67 889.167 1478.8 892.5Z" fill="#404040"/>
<rect x="831" y="1139" width="200" height="200" rx="20" fill="#FF8266"/>
<rect x="1068" y="1139" width="200" height="200" rx="20" fill="#FF8B66"/>
<rect x="1305" y="1139" width="200" height="200" rx="20" fill="#FF9D66"/>
<rect x="594" y="1139" width="200" height="200" rx="20" fill="#FF7866"/>
<rect x="242.834" y="1285.91" width="200" height="200" rx="20" transform="rotate(-19.7616 242.834 1285.91)" fill="#FF6F66"/>
<path d="M372.894 1345.66C375.278 1344.8 377.697 1343.65 380.152 1342.2C382.607 1340.75 384.492 1339.29 385.808 1337.83C385.573 1336.78 385.207 1335.57 384.711 1334.19C384.296 1332.64 383.84 1331.17 383.344 1329.79C382.217 1326.65 380.776 1323.63 379.022 1320.72C377.348 1317.63 375.347 1315.02 373.02 1312.88C370.819 1310.7 368.296 1309.2 365.451 1308.38C362.732 1307.51 359.741 1307.67 356.478 1308.84C353.718 1309.83 351.537 1311.25 349.935 1313.1C348.413 1314.78 347.34 1316.73 346.717 1318.93C346.219 1321.1 346.084 1323.48 346.313 1326.09C346.668 1328.66 347.318 1331.26 348.265 1333.89C350.384 1339.79 353.387 1343.81 357.275 1345.96C361.162 1348.1 366.369 1348 372.894 1345.66ZM376.78 1365.94C370.004 1368.37 363.893 1369.51 358.449 1369.34C352.959 1369.04 348.1 1367.74 343.871 1365.44C339.643 1363.13 336.049 1360.03 333.091 1356.13C330.088 1352.11 327.662 1347.53 325.814 1342.38C324.191 1337.87 323.298 1333.02 323.136 1327.83C323.054 1322.48 323.843 1317.38 325.502 1312.53C327.242 1307.51 330.004 1302.98 333.791 1298.93C337.532 1294.75 342.539 1291.53 348.814 1289.28C361.864 1284.59 373.417 1285.4 383.474 1291.7C393.531 1298.01 401.378 1309 407.013 1324.69C411.07 1335.98 413.045 1346.6 412.938 1356.56C412.786 1366.39 410.696 1375.36 406.666 1383.47C402.762 1391.53 397.044 1398.68 389.513 1404.93C382.062 1411.01 373.066 1415.94 362.526 1419.73L354.605 1400.04C364.599 1396.31 372.804 1390.96 379.222 1383.97C385.594 1376.87 388.789 1368.21 388.806 1358C384.678 1361.9 380.669 1364.54 376.78 1365.94Z" fill="white"/>
<path d="M686.6 1284.6V1215.4C682.867 1218.07 678.6 1220.47 673.8 1222.6C669 1224.6 664.933 1226.2 661.6 1227.4L653.6 1207C656.8 1205.8 660.267 1204.27 664 1202.4C667.733 1200.53 671.467 1198.47 675.2 1196.2C678.933 1193.93 682.467 1191.53 685.8 1189C689.133 1186.47 692 1183.87 694.4 1181.2H711.2V1284.6H735.8V1305H660.6V1284.6H686.6Z" fill="white"/>
<path d="M967.8 1213.8C967.8 1218.07 967 1222.2 965.4 1226.2C963.8 1230.07 961.667 1233.87 959 1237.6C956.333 1241.33 953.333 1244.93 950 1248.4C946.667 1251.87 943.267 1255.2 939.8 1258.4C938.067 1260 936.067 1261.93 933.8 1264.2C931.533 1266.33 929.4 1268.6 927.4 1271C925.4 1273.27 923.667 1275.6 922.2 1278C920.867 1280.4 920.2 1282.6 920.2 1284.6H973.4V1305H892.6C892.2 1303.67 892 1302 892 1300C892.133 1298 892.2 1296.6 892.2 1295.8C892.2 1289.13 893.4 1283 895.8 1277.4C898.333 1271.8 901.467 1266.67 905.2 1262C909.067 1257.2 913.133 1252.8 917.4 1248.8C921.8 1244.67 925.867 1240.73 929.6 1237C933.467 1233.27 936.6 1229.67 939 1226.2C941.533 1222.73 942.8 1219.2 942.8 1215.6C942.8 1210.53 941.267 1206.67 938.2 1204C935.133 1201.2 931.267 1199.8 926.6 1199.8C922.733 1199.8 918.667 1200.73 914.4 1202.6C910.133 1204.47 905.933 1207.6 901.8 1212L889.6 1194.8C894.933 1189.2 901.067 1185.07 908 1182.4C915.067 1179.73 922.067 1178.4 929 1178.4C934.067 1178.4 938.933 1179.13 943.6 1180.6C948.267 1182.07 952.4 1184.27 956 1187.2C959.6 1190.13 962.467 1193.87 964.6 1198.4C966.733 1202.8 967.8 1207.93 967.8 1213.8Z" fill="white"/>
<path d="M1182.2 1268.6C1182.2 1265.13 1181.6 1262 1180.4 1259.2C1179.33 1256.27 1177.07 1253.8 1173.6 1251.8C1170.27 1249.67 1165.47 1248.07 1159.2 1247C1152.93 1245.8 1144.73 1245.2 1134.6 1245.2C1135.93 1234 1137 1223.07 1137.8 1212.4C1138.6 1201.6 1139.2 1191.2 1139.6 1181.2H1202.8V1201.6H1160.2C1159.93 1205.87 1159.6 1210.33 1159.2 1215C1158.8 1219.67 1158.47 1223.47 1158.2 1226.4C1174.73 1227.47 1187.07 1231.47 1195.2 1238.4C1203.33 1245.33 1207.4 1255.07 1207.4 1267.6C1207.4 1273.33 1206.4 1278.67 1204.4 1283.6C1202.4 1288.4 1199.33 1292.6 1195.2 1296.2C1191.07 1299.8 1185.93 1302.6 1179.8 1304.6C1173.67 1306.6 1166.53 1307.6 1158.4 1307.6C1155.2 1307.6 1151.93 1307.4 1148.6 1307C1145.27 1306.6 1142.07 1306.07 1139 1305.4C1135.93 1304.87 1133.13 1304.2 1130.6 1303.4C1128.2 1302.6 1126.33 1301.87 1125 1301.2L1130 1280.8C1132.93 1282.27 1136.67 1283.6 1141.2 1284.8C1145.73 1286 1151.4 1286.6 1158.2 1286.6C1163 1286.6 1166.93 1286.07 1170 1285C1173.2 1283.93 1175.67 1282.6 1177.4 1281C1179.27 1279.27 1180.53 1277.33 1181.2 1275.2C1181.87 1273.07 1182.2 1270.87 1182.2 1268.6Z" fill="white"/>
<path d="M1412 1212C1409.6 1215.07 1407.13 1218.33 1404.6 1221.8C1402.07 1225.27 1399.53 1228.93 1397 1232.8C1394.6 1236.53 1392.27 1240.33 1390 1244.2C1387.73 1248.07 1385.73 1251.87 1384 1255.6H1412V1212ZM1436.6 1181.2V1255.6H1450V1275.8H1436.6V1305H1412V1275.8H1360.4V1257.8C1362.93 1252.6 1366.2 1246.73 1370.2 1240.2C1374.2 1233.53 1378.6 1226.73 1383.4 1219.8C1388.2 1212.87 1393.27 1206.07 1398.6 1199.4C1403.93 1192.6 1409.27 1186.53 1414.6 1181.2H1436.6Z" fill="white"/>
<path d="M1401.2 1453C1406.47 1453 1410.2 1451.97 1412.4 1449.9C1414.67 1447.77 1415.8 1444.93 1415.8 1441.4C1415.8 1439.13 1415.33 1437.23 1414.4 1435.7C1413.47 1434.17 1412.23 1432.93 1410.7 1432C1409.17 1431.07 1407.4 1430.4 1405.4 1430C1403.4 1429.6 1401.3 1429.4 1399.1 1429.4H1397V1422.7H1399.9C1401.37 1422.7 1402.87 1422.57 1404.4 1422.3C1406 1421.97 1407.43 1421.43 1408.7 1420.7C1410.03 1419.9 1411.1 1418.83 1411.9 1417.5C1412.7 1416.17 1413.1 1414.47 1413.1 1412.4C1413.1 1409 1412.03 1406.6 1409.9 1405.2C1407.83 1403.73 1405.4 1403 1402.6 1403C1399.73 1403 1397.3 1403.43 1395.3 1404.3C1393.3 1405.1 1391.63 1405.93 1390.3 1406.8L1387.1 1400.5C1388.5 1399.5 1390.6 1398.47 1393.4 1397.4C1396.27 1396.27 1399.43 1395.7 1402.9 1395.7C1406.17 1395.7 1408.97 1396.1 1411.3 1396.9C1413.63 1397.7 1415.53 1398.83 1417 1400.3C1418.53 1401.77 1419.67 1403.5 1420.4 1405.5C1421.13 1407.43 1421.5 1409.57 1421.5 1411.9C1421.5 1415.17 1420.63 1417.93 1418.9 1420.2C1417.23 1422.47 1415.07 1424.2 1412.4 1425.4C1415.6 1426.33 1418.37 1428.17 1420.7 1430.9C1423.03 1433.57 1424.2 1437.13 1424.2 1441.6C1424.2 1444.27 1423.73 1446.77 1422.8 1449.1C1421.93 1451.37 1420.57 1453.33 1418.7 1455C1416.9 1456.67 1414.53 1457.97 1411.6 1458.9C1408.73 1459.83 1405.3 1460.3 1401.3 1460.3C1399.77 1460.3 1398.17 1460.17 1396.5 1459.9C1394.9 1459.7 1393.4 1459.4 1392 1459C1390.6 1458.67 1389.33 1458.33 1388.2 1458C1387.13 1457.6 1386.37 1457.3 1385.9 1457.1L1387.5 1450C1388.57 1450.53 1390.27 1451.17 1392.6 1451.9C1394.93 1452.63 1397.8 1453 1401.2 1453Z" fill="#404040"/>
<path d="M699.8 1426.9C699.8 1428.63 699.267 1430.13 698.2 1431.4C697.2 1432.67 695.867 1433.3 694.2 1433.3C692.467 1433.3 691.067 1432.67 690 1431.4C688.933 1430.13 688.4 1428.63 688.4 1426.9C688.4 1425.17 688.933 1423.63 690 1422.3C691.067 1420.97 692.467 1420.3 694.2 1420.3C695.867 1420.3 697.2 1420.97 698.2 1422.3C699.267 1423.63 699.8 1425.17 699.8 1426.9ZM673.6 1428C673.6 1417.6 675.367 1409.63 678.9 1404.1C682.5 1398.5 687.533 1395.7 694 1395.7C700.533 1395.7 705.567 1398.5 709.1 1404.1C712.633 1409.63 714.4 1417.6 714.4 1428C714.4 1438.4 712.633 1446.4 709.1 1452C705.567 1457.53 700.533 1460.3 694 1460.3C687.533 1460.3 682.5 1457.53 678.9 1452C675.367 1446.4 673.6 1438.4 673.6 1428ZM706 1428C706 1424.6 705.8 1421.4 705.4 1418.4C705 1415.33 704.333 1412.67 703.4 1410.4C702.467 1408.13 701.233 1406.33 699.7 1405C698.167 1403.67 696.267 1403 694 1403C691.733 1403 689.833 1403.67 688.3 1405C686.767 1406.33 685.533 1408.13 684.6 1410.4C683.667 1412.67 683 1415.33 682.6 1418.4C682.2 1421.4 682 1424.6 682 1428C682 1431.4 682.2 1434.63 682.6 1437.7C683 1440.7 683.667 1443.33 684.6 1445.6C685.533 1447.87 686.767 1449.67 688.3 1451C689.833 1452.33 691.733 1453 694 1453C696.267 1453 698.167 1452.33 699.7 1451C701.233 1449.67 702.467 1447.87 703.4 1445.6C704.333 1443.33 705 1440.7 705.4 1437.7C705.8 1434.63 706 1431.4 706 1428Z" fill="#404040"/>
<path d="M913.5 1409.9C916.9 1408.57 920.2 1406.9 923.4 1404.9C926.6 1402.83 929.567 1400.23 932.3 1397.1H938.1V1452H949.8V1459H916.5V1452H929.9V1408.6C929.167 1409.27 928.267 1409.97 927.2 1410.7C926.2 1411.37 925.067 1412.03 923.8 1412.7C922.6 1413.37 921.333 1414 920 1414.6C918.667 1415.2 917.367 1415.7 916.1 1416.1L913.5 1409.9Z" fill="#404040"/>
<path d="M1185 1412.9C1185 1415.03 1184.57 1417.1 1183.7 1419.1C1182.9 1421.1 1181.8 1423.07 1180.4 1425C1179.07 1426.93 1177.53 1428.83 1175.8 1430.7C1174.07 1432.57 1172.3 1434.4 1170.5 1436.2C1169.5 1437.2 1168.33 1438.4 1167 1439.8C1165.67 1441.2 1164.4 1442.63 1163.2 1444.1C1162 1445.57 1161 1447 1160.2 1448.4C1159.4 1449.8 1159 1451 1159 1452H1187.5V1459H1150C1149.93 1458.67 1149.9 1458.33 1149.9 1458C1149.9 1457.6 1149.9 1457.23 1149.9 1456.9C1149.9 1454.1 1150.37 1451.5 1151.3 1449.1C1152.23 1446.7 1153.43 1444.43 1154.9 1442.3C1156.37 1440.17 1158 1438.17 1159.8 1436.3C1161.67 1434.37 1163.5 1432.5 1165.3 1430.7C1166.77 1429.23 1168.17 1427.8 1169.5 1426.4C1170.9 1425 1172.1 1423.6 1173.1 1422.2C1174.17 1420.8 1175 1419.37 1175.6 1417.9C1176.27 1416.37 1176.6 1414.8 1176.6 1413.2C1176.6 1411.4 1176.3 1409.87 1175.7 1408.6C1175.17 1407.33 1174.4 1406.3 1173.4 1405.5C1172.47 1404.63 1171.37 1404 1170.1 1403.6C1168.83 1403.2 1167.47 1403 1166 1403C1164.27 1403 1162.67 1403.23 1161.2 1403.7C1159.8 1404.17 1158.53 1404.73 1157.4 1405.4C1156.33 1406.07 1155.4 1406.73 1154.6 1407.4C1153.8 1408 1153.2 1408.5 1152.8 1408.9L1148.7 1403.1C1149.23 1402.5 1150.03 1401.77 1151.1 1400.9C1152.17 1400.03 1153.43 1399.23 1154.9 1398.5C1156.43 1397.7 1158.13 1397.03 1160 1396.5C1161.87 1395.97 1163.87 1395.7 1166 1395.7C1172.47 1395.7 1177.23 1397.2 1180.3 1400.2C1183.43 1403.13 1185 1407.37 1185 1412.9Z" fill="#404040"/>
<path d="M667.511 1096.49L597.913 1044.95L677.345 1010.45L667.511 1096.49Z" fill="#FF6F66"/>
<path d="M624.888 973.268L646.801 1023.71L628.457 1031.68L606.544 981.236L624.888 973.268Z" fill="#FF6F66"/>
<path d="M490.324 963.477L476.563 903.126L510.785 895.323L512.341 902.147L486.114 908.127L490.404 926.944L513.511 921.676L515.045 928.403L491.938 933.672L498.318 961.654L490.324 963.477ZM540.632 952.006L530.873 909.204C536.984 905.417 543.42 902.754 550.18 901.212C552.26 900.738 554.264 900.383 556.194 900.149C558.108 899.849 560.262 899.7 562.656 899.701L562.816 907.152C560.603 907.041 558.669 907.106 557.014 907.346C555.41 907.507 553.665 907.802 551.78 908.232C547.815 909.136 543.911 910.607 540.069 912.646L548.627 950.183L540.632 952.006ZM618.641 910.423C619.456 913.998 619.677 917.367 619.304 920.529C618.981 923.611 618.146 926.4 616.801 928.895C615.455 931.39 613.648 933.511 611.38 935.259C609.097 936.942 606.46 938.124 603.471 938.806C600.546 939.473 597.69 939.543 594.903 939.016C592.166 938.409 589.651 937.273 587.356 935.608C585.062 933.943 583.069 931.799 581.377 929.177C579.735 926.474 578.507 923.335 577.691 919.76C576.876 916.185 576.623 912.824 576.931 909.677C577.304 906.515 578.171 903.719 579.531 901.289C580.877 898.794 582.659 896.713 584.877 895.044C587.145 893.297 589.742 892.089 592.666 891.422C595.656 890.74 598.552 890.696 601.354 891.288C604.141 891.814 606.681 892.91 608.976 894.575C611.255 896.175 613.216 898.327 614.858 901.029C616.564 903.717 617.825 906.849 618.641 910.423ZM610.353 912.313C609.182 907.178 607.159 903.4 604.282 900.979C601.39 898.493 598.059 897.68 594.289 898.539C590.584 899.384 587.968 901.554 586.44 905.047C584.962 908.461 584.808 912.736 585.979 917.871C587.135 922.941 589.126 926.726 591.953 929.227C594.83 931.648 598.121 932.436 601.825 931.591C605.595 930.732 608.252 928.587 609.795 925.159C611.323 921.665 611.509 917.383 610.353 912.313ZM624.594 886.604C627.356 885.222 630.123 884.01 632.894 882.968C635.73 881.911 638.415 881.094 640.95 880.516C646.995 879.137 651.901 879.66 655.667 882.083C659.498 884.492 662.199 889.141 663.77 896.031L669.817 922.55L661.822 924.373L656.109 899.316C655.442 896.391 654.641 894.078 653.706 892.377C652.771 890.675 651.705 889.448 650.508 888.695C649.361 887.863 648.06 887.407 646.606 887.329C645.217 887.235 643.743 887.366 642.183 887.722C640.883 888.018 639.508 888.434 638.057 888.97C636.657 889.426 635.304 889.94 633.998 890.511L642.713 928.73L634.62 930.575L624.594 886.604ZM689.824 870.397L708.933 866.04L710.467 872.768L691.358 877.125L696.159 898.184C696.678 900.459 697.263 902.275 697.914 903.63C698.565 904.986 699.352 906.038 700.274 906.785C701.247 907.452 702.355 907.815 703.599 907.873C704.843 907.931 706.311 907.767 708 907.382C710.34 906.849 712.181 906.224 713.522 905.508C714.863 904.792 716.109 903.96 717.261 903.014L719.987 909.572C719.166 910.17 717.822 911.023 715.956 912.133C714.154 913.227 711.79 914.108 708.866 914.775C705.486 915.545 702.634 915.785 700.311 915.494C697.989 915.203 696.032 914.419 694.441 913.14C692.916 911.847 691.666 910.115 690.692 907.944C689.704 905.708 688.861 903.062 688.165 900.007L683.363 878.948L673.808 881.126L672.274 874.399L681.829 872.22L678.939 859.546L686.623 856.358L689.824 870.397Z" fill="#404040"/>
<path d="M272.281 1552.46L467.178 1139M576.459 1443.18L163 1248.28" stroke="#FF0000" stroke-width="30"/>
</svg>
