<svg width="1842" height="1655" viewBox="0 0 1842 1655" fill="none" xmlns="http://www.w3.org/2000/svg">
<rect x="721" y="446" width="200" height="200" rx="20" fill="#FF8266"/>
<rect x="958" y="446" width="200" height="200" rx="20" fill="#FF8B66"/>
<rect x="1195" y="446" width="200" height="200" rx="20" fill="#FF9D66"/>
<rect x="484" y="446" width="200" height="200" rx="20" fill="#FF7866"/>
<rect x="247" y="446" width="200" height="200" rx="20" fill="#FF6F66"/>
<path d="M349.2 546.2C351.733 546.2 354.4 545.933 357.2 545.4C360 544.867 362.267 544.133 364 543.2C364.133 542.133 364.2 540.867 364.2 539.4C364.333 537.8 364.4 536.267 364.4 534.8C364.4 531.467 364.067 528.133 363.4 524.8C362.867 521.333 361.867 518.2 360.4 515.4C359.067 512.6 357.2 510.333 354.8 508.6C352.533 506.867 349.667 506 346.2 506C343.267 506 340.733 506.6 338.6 507.8C336.6 508.867 334.933 510.333 333.6 512.2C332.4 514.067 331.467 516.267 330.8 518.8C330.267 521.333 330 524 330 526.8C330 533.067 331.467 537.867 334.4 541.2C337.333 544.533 342.267 546.2 349.2 546.2ZM346 566.6C338.8 566.6 332.667 565.6 327.6 563.6C322.533 561.467 318.4 558.6 315.2 555C312 551.4 309.667 547.267 308.2 542.6C306.733 537.8 306 532.667 306 527.2C306 522.4 306.8 517.533 308.4 512.6C310.133 507.533 312.6 503 315.8 499C319.133 494.867 323.267 491.533 328.2 489C333.133 486.333 338.933 485 345.6 485C359.467 485 370.067 489.667 377.4 499C384.733 508.333 388.4 521.333 388.4 538C388.4 550 386.667 560.667 383.2 570C379.733 579.2 374.733 586.933 368.2 593.2C361.8 599.467 354 604.267 344.8 607.6C335.733 610.8 325.6 612.4 314.4 612.4L313.6 591.2C324.267 591.067 333.8 588.8 342.2 584.4C350.6 579.867 356.533 572.8 360 563.2C354.8 565.467 350.133 566.6 346 566.6Z" fill="white"/>
<path d="M576.6 591.6V522.4C572.867 525.067 568.6 527.467 563.8 529.6C559 531.6 554.933 533.2 551.6 534.4L543.6 514C546.8 512.8 550.267 511.267 554 509.4C557.733 507.533 561.467 505.467 565.2 503.2C568.933 500.933 572.467 498.533 575.8 496C579.133 493.467 582 490.867 584.4 488.2H601.2V591.6H625.8V612H550.6V591.6H576.6Z" fill="white"/>
<path d="M857.8 520.8C857.8 525.067 857 529.2 855.4 533.2C853.8 537.067 851.667 540.867 849 544.6C846.333 548.333 843.333 551.933 840 555.4C836.667 558.867 833.267 562.2 829.8 565.4C828.067 567 826.067 568.933 823.8 571.2C821.533 573.333 819.4 575.6 817.4 578C815.4 580.267 813.667 582.6 812.2 585C810.867 587.4 810.2 589.6 810.2 591.6H863.4V612H782.6C782.2 610.667 782 609 782 607C782.133 605 782.2 603.6 782.2 602.8C782.2 596.133 783.4 590 785.8 584.4C788.333 578.8 791.467 573.667 795.2 569C799.067 564.2 803.133 559.8 807.4 555.8C811.8 551.667 815.867 547.733 819.6 544C823.467 540.267 826.6 536.667 829 533.2C831.533 529.733 832.8 526.2 832.8 522.6C832.8 517.533 831.267 513.667 828.2 511C825.133 508.2 821.267 506.8 816.6 506.8C812.733 506.8 808.667 507.733 804.4 509.6C800.133 511.467 795.933 514.6 791.8 519L779.6 501.8C784.933 496.2 791.067 492.067 798 489.4C805.067 486.733 812.067 485.4 819 485.4C824.067 485.4 828.933 486.133 833.6 487.6C838.267 489.067 842.4 491.267 846 494.2C849.6 497.133 852.467 500.867 854.6 505.4C856.733 509.8 857.8 514.933 857.8 520.8Z" fill="white"/>
<path d="M1072.2 575.6C1072.2 572.133 1071.6 569 1070.4 566.2C1069.33 563.267 1067.07 560.8 1063.6 558.8C1060.27 556.667 1055.47 555.067 1049.2 554C1042.93 552.8 1034.73 552.2 1024.6 552.2C1025.93 541 1027 530.067 1027.8 519.4C1028.6 508.6 1029.2 498.2 1029.6 488.2H1092.8V508.6H1050.2C1049.93 512.867 1049.6 517.333 1049.2 522C1048.8 526.667 1048.47 530.467 1048.2 533.4C1064.73 534.467 1077.07 538.467 1085.2 545.4C1093.33 552.333 1097.4 562.067 1097.4 574.6C1097.4 580.333 1096.4 585.667 1094.4 590.6C1092.4 595.4 1089.33 599.6 1085.2 603.2C1081.07 606.8 1075.93 609.6 1069.8 611.6C1063.67 613.6 1056.53 614.6 1048.4 614.6C1045.2 614.6 1041.93 614.4 1038.6 614C1035.27 613.6 1032.07 613.067 1029 612.4C1025.93 611.867 1023.13 611.2 1020.6 610.4C1018.2 609.6 1016.33 608.867 1015 608.2L1020 587.8C1022.93 589.267 1026.67 590.6 1031.2 591.8C1035.73 593 1041.4 593.6 1048.2 593.6C1053 593.6 1056.93 593.067 1060 592C1063.2 590.933 1065.67 589.6 1067.4 588C1069.27 586.267 1070.53 584.333 1071.2 582.2C1071.87 580.067 1072.2 577.867 1072.2 575.6Z" fill="white"/>
<path d="M1302 519C1299.6 522.067 1297.13 525.333 1294.6 528.8C1292.07 532.267 1289.53 535.933 1287 539.8C1284.6 543.533 1282.27 547.333 1280 551.2C1277.73 555.067 1275.73 558.867 1274 562.6H1302V519ZM1326.6 488.2V562.6H1340V582.8H1326.6V612H1302V582.8H1250.4V564.8C1252.93 559.6 1256.2 553.733 1260.2 547.2C1264.2 540.533 1268.6 533.733 1273.4 526.8C1278.2 519.867 1283.27 513.067 1288.6 506.4C1293.93 499.6 1299.27 493.533 1304.6 488.2H1326.6Z" fill="white"/>
<path d="M1273.6 744.6C1274.73 741.933 1276.27 738.867 1278.2 735.4C1280.2 731.933 1282.43 728.367 1284.9 724.7C1287.37 720.967 1290 717.333 1292.8 713.8C1295.6 710.2 1298.43 706.967 1301.3 704.1H1309.3V743.4H1316.6V750.2H1309.3V766H1301.3V750.2H1273.6V744.6ZM1301.3 713.9C1299.5 715.833 1297.67 717.967 1295.8 720.3C1294 722.633 1292.23 725.1 1290.5 727.7C1288.77 730.233 1287.13 732.833 1285.6 735.5C1284.13 738.167 1282.8 740.8 1281.6 743.4H1301.3V713.9Z" fill="#404040"/>
<path d="M1054.2 760C1059.47 760 1063.2 758.967 1065.4 756.9C1067.67 754.767 1068.8 751.933 1068.8 748.4C1068.8 746.133 1068.33 744.233 1067.4 742.7C1066.47 741.167 1065.23 739.933 1063.7 739C1062.17 738.067 1060.4 737.4 1058.4 737C1056.4 736.6 1054.3 736.4 1052.1 736.4H1050V729.7H1052.9C1054.37 729.7 1055.87 729.567 1057.4 729.3C1059 728.967 1060.43 728.433 1061.7 727.7C1063.03 726.9 1064.1 725.833 1064.9 724.5C1065.7 723.167 1066.1 721.467 1066.1 719.4C1066.1 716 1065.03 713.6 1062.9 712.2C1060.83 710.733 1058.4 710 1055.6 710C1052.73 710 1050.3 710.433 1048.3 711.3C1046.3 712.1 1044.63 712.933 1043.3 713.8L1040.1 707.5C1041.5 706.5 1043.6 705.467 1046.4 704.4C1049.27 703.267 1052.43 702.7 1055.9 702.7C1059.17 702.7 1061.97 703.1 1064.3 703.9C1066.63 704.7 1068.53 705.833 1070 707.3C1071.53 708.767 1072.67 710.5 1073.4 712.5C1074.13 714.433 1074.5 716.567 1074.5 718.9C1074.5 722.167 1073.63 724.933 1071.9 727.2C1070.23 729.467 1068.07 731.2 1065.4 732.4C1068.6 733.333 1071.37 735.167 1073.7 737.9C1076.03 740.567 1077.2 744.133 1077.2 748.6C1077.2 751.267 1076.73 753.767 1075.8 756.1C1074.93 758.367 1073.57 760.333 1071.7 762C1069.9 763.667 1067.53 764.967 1064.6 765.9C1061.73 766.833 1058.3 767.3 1054.3 767.3C1052.77 767.3 1051.17 767.167 1049.5 766.9C1047.9 766.7 1046.4 766.4 1045 766C1043.6 765.667 1042.33 765.333 1041.2 765C1040.13 764.6 1039.37 764.3 1038.9 764.1L1040.5 757C1041.57 757.533 1043.27 758.167 1045.6 758.9C1047.93 759.633 1050.8 760 1054.2 760Z" fill="#404040"/>
<path d="M352.8 733.9C352.8 735.633 352.267 737.133 351.2 738.4C350.2 739.667 348.867 740.3 347.2 740.3C345.467 740.3 344.067 739.667 343 738.4C341.933 737.133 341.4 735.633 341.4 733.9C341.4 732.167 341.933 730.633 343 729.3C344.067 727.967 345.467 727.3 347.2 727.3C348.867 727.3 350.2 727.967 351.2 729.3C352.267 730.633 352.8 732.167 352.8 733.9ZM326.6 735C326.6 724.6 328.367 716.633 331.9 711.1C335.5 705.5 340.533 702.7 347 702.7C353.533 702.7 358.567 705.5 362.1 711.1C365.633 716.633 367.4 724.6 367.4 735C367.4 745.4 365.633 753.4 362.1 759C358.567 764.533 353.533 767.3 347 767.3C340.533 767.3 335.5 764.533 331.9 759C328.367 753.4 326.6 745.4 326.6 735ZM359 735C359 731.6 358.8 728.4 358.4 725.4C358 722.333 357.333 719.667 356.4 717.4C355.467 715.133 354.233 713.333 352.7 712C351.167 710.667 349.267 710 347 710C344.733 710 342.833 710.667 341.3 712C339.767 713.333 338.533 715.133 337.6 717.4C336.667 719.667 336 722.333 335.6 725.4C335.2 728.4 335 731.6 335 735C335 738.4 335.2 741.633 335.6 744.7C336 747.7 336.667 750.333 337.6 752.6C338.533 754.867 339.767 756.667 341.3 758C342.833 759.333 344.733 760 347 760C349.267 760 351.167 759.333 352.7 758C354.233 756.667 355.467 754.867 356.4 752.6C357.333 750.333 358 747.7 358.4 744.7C358.8 741.633 359 738.4 359 735Z" fill="#404040"/>
<path d="M566.5 716.9C569.9 715.567 573.2 713.9 576.4 711.9C579.6 709.833 582.567 707.233 585.3 704.1H591.1V759H602.8V766H569.5V759H582.9V715.6C582.167 716.267 581.267 716.967 580.2 717.7C579.2 718.367 578.067 719.033 576.8 719.7C575.6 720.367 574.333 721 573 721.6C571.667 722.2 570.367 722.7 569.1 723.1L566.5 716.9Z" fill="#404040"/>
<path d="M838 719.9C838 722.033 837.567 724.1 836.7 726.1C835.9 728.1 834.8 730.067 833.4 732C832.067 733.933 830.533 735.833 828.8 737.7C827.067 739.567 825.3 741.4 823.5 743.2C822.5 744.2 821.333 745.4 820 746.8C818.667 748.2 817.4 749.633 816.2 751.1C815 752.567 814 754 813.2 755.4C812.4 756.8 812 758 812 759H840.5V766H803C802.933 765.667 802.9 765.333 802.9 765C802.9 764.6 802.9 764.233 802.9 763.9C802.9 761.1 803.367 758.5 804.3 756.1C805.233 753.7 806.433 751.433 807.9 749.3C809.367 747.167 811 745.167 812.8 743.3C814.667 741.367 816.5 739.5 818.3 737.7C819.767 736.233 821.167 734.8 822.5 733.4C823.9 732 825.1 730.6 826.1 729.2C827.167 727.8 828 726.367 828.6 724.9C829.267 723.367 829.6 721.8 829.6 720.2C829.6 718.4 829.3 716.867 828.7 715.6C828.167 714.333 827.4 713.3 826.4 712.5C825.467 711.633 824.367 711 823.1 710.6C821.833 710.2 820.467 710 819 710C817.267 710 815.667 710.233 814.2 710.7C812.8 711.167 811.533 711.733 810.4 712.4C809.333 713.067 808.4 713.733 807.6 714.4C806.8 715 806.2 715.5 805.8 715.9L801.7 710.1C802.233 709.5 803.033 708.767 804.1 707.9C805.167 707.033 806.433 706.233 807.9 705.5C809.433 704.7 811.133 704.033 813 703.5C814.867 702.967 816.867 702.7 819 702.7C825.467 702.7 830.233 704.2 833.3 707.2C836.433 710.133 838 714.367 838 719.9Z" fill="#404040"/>
<path d="M1295.3 409L1252 334L1338.6 334L1295.3 409Z" fill="#FF9D66"/>
<path d="M1305.3 279L1305.3 334L1285.3 334L1285.3 279L1305.3 279Z" fill="#FF9D66"/>
<path d="M347.301 409L304 334L390.603 334L347.301 409Z" fill="#FF6F66"/>
<path d="M357.301 279L357.301 334L337.301 334L337.301 279L357.301 279Z" fill="#FF6F66"/>
<path d="M231.1 235V173.1H266.2V180.1H239.3V199.4H263V206.3H239.3V235H231.1ZM282.7 235V191.1C289.5 188.767 296.367 187.6 303.3 187.6C305.433 187.6 307.467 187.7 309.4 187.9C311.333 188.033 313.467 188.367 315.8 188.9L314.3 196.2C312.167 195.6 310.267 195.233 308.6 195.1C307 194.9 305.233 194.8 303.3 194.8C299.233 194.8 295.1 195.367 290.9 196.5V235H282.7ZM368 211.8C368 215.467 367.467 218.8 366.4 221.8C365.4 224.733 363.967 227.267 362.1 229.4C360.233 231.533 358 233.2 355.4 234.4C352.8 235.533 349.967 236.1 346.9 236.1C343.9 236.1 341.1 235.533 338.5 234.4C335.967 233.2 333.767 231.533 331.9 229.4C330.033 227.267 328.567 224.733 327.5 221.8C326.5 218.8 326 215.467 326 211.8C326 208.133 326.5 204.8 327.5 201.8C328.567 198.8 330.033 196.267 331.9 194.2C333.767 192.067 335.967 190.433 338.5 189.3C341.1 188.1 343.9 187.5 346.9 187.5C349.967 187.5 352.8 188.1 355.4 189.3C358 190.433 360.233 192.067 362.1 194.2C363.967 196.267 365.4 198.8 366.4 201.8C367.467 204.8 368 208.133 368 211.8ZM359.5 211.8C359.5 206.533 358.367 202.4 356.1 199.4C353.833 196.333 350.767 194.8 346.9 194.8C343.1 194.8 340.067 196.333 337.8 199.4C335.6 202.4 334.5 206.533 334.5 211.8C334.5 217 335.6 221.133 337.8 224.2C340.067 227.2 343.1 228.7 346.9 228.7C350.767 228.7 353.833 227.2 356.1 224.2C358.367 221.133 359.5 217 359.5 211.8ZM379.1 189.9C382.1 189.167 385.067 188.6 388 188.2C391 187.8 393.8 187.6 396.4 187.6C402.6 187.6 407.267 189.2 410.4 192.4C413.6 195.6 415.2 200.733 415.2 207.8V235H407V209.3C407 206.3 406.733 203.867 406.2 202C405.667 200.133 404.9 198.7 403.9 197.7C402.967 196.633 401.8 195.9 400.4 195.5C399.067 195.1 397.6 194.9 396 194.9C394.667 194.9 393.233 195 391.7 195.2C390.233 195.333 388.8 195.533 387.4 195.8V235H379.1V189.9ZM446.3 188.6H465.9V195.5H446.3V217.1C446.3 219.433 446.467 221.333 446.8 222.8C447.133 224.267 447.667 225.467 448.4 226.4C449.2 227.267 450.2 227.867 451.4 228.2C452.6 228.533 454.067 228.7 455.8 228.7C458.2 228.7 460.133 228.5 461.6 228.1C463.067 227.7 464.467 227.167 465.8 226.5L467 233.5C466.067 233.9 464.567 234.433 462.5 235.1C460.5 235.767 458 236.1 455 236.1C451.533 236.1 448.7 235.7 446.5 234.9C444.3 234.1 442.567 232.9 441.3 231.3C440.1 229.7 439.267 227.733 438.8 225.4C438.333 223 438.1 220.233 438.1 217.1V195.5H428.3V188.6H438.1V175.6L446.3 174.2V188.6Z" fill="#404040"/>
<path d="M1215.4 225.5C1214.4 225.5 1213.23 225.467 1211.9 225.4C1210.57 225.333 1209.23 225.233 1207.9 225.1C1206.57 225.033 1205.23 224.9 1203.9 224.7C1202.57 224.5 1201.4 224.267 1200.4 224V164C1201.4 163.733 1202.53 163.5 1203.8 163.3C1205.13 163.1 1206.47 162.967 1207.8 162.9C1209.2 162.767 1210.53 162.667 1211.8 162.6C1213.13 162.533 1214.33 162.5 1215.4 162.5C1218.47 162.5 1221.33 162.767 1224 163.3C1226.67 163.833 1228.97 164.733 1230.9 166C1232.9 167.267 1234.43 168.933 1235.5 171C1236.63 173.067 1237.2 175.633 1237.2 178.7C1237.2 180.167 1236.97 181.6 1236.5 183C1236.03 184.333 1235.37 185.6 1234.5 186.8C1233.7 188 1232.73 189.067 1231.6 190C1230.53 190.867 1229.37 191.533 1228.1 192C1231.5 192.933 1234.33 194.667 1236.6 197.2C1238.93 199.667 1240.1 202.9 1240.1 206.9C1240.1 213.033 1238.13 217.667 1234.2 220.8C1230.27 223.933 1224 225.5 1215.4 225.5ZM1208.6 196.1V218.2C1208.73 218.267 1209.47 218.367 1210.8 218.5C1212.2 218.567 1213.93 218.6 1216 218.6C1218.07 218.6 1220.03 218.433 1221.9 218.1C1223.83 217.767 1225.53 217.167 1227 216.3C1228.47 215.367 1229.63 214.167 1230.5 212.7C1231.43 211.233 1231.9 209.333 1231.9 207C1231.9 204.933 1231.47 203.2 1230.6 201.8C1229.8 200.4 1228.7 199.3 1227.3 198.5C1225.97 197.633 1224.4 197.033 1222.6 196.7C1220.8 196.3 1218.93 196.1 1217 196.1H1208.6ZM1208.6 189.3H1215.1C1216.77 189.3 1218.43 189.133 1220.1 188.8C1221.77 188.467 1223.27 187.933 1224.6 187.2C1225.93 186.467 1227 185.467 1227.8 184.2C1228.6 182.933 1229 181.333 1229 179.4C1229 177.6 1228.63 176.067 1227.9 174.8C1227.17 173.533 1226.2 172.5 1225 171.7C1223.8 170.9 1222.4 170.333 1220.8 170C1219.27 169.667 1217.63 169.5 1215.9 169.5C1214.17 169.5 1212.63 169.533 1211.3 169.6C1210.03 169.6 1209.13 169.667 1208.6 169.8V189.3ZM1270.5 219.1C1272.57 219.1 1274.4 219.033 1276 218.9C1277.67 218.767 1279.03 218.6 1280.1 218.4V204.6C1279.03 204.267 1277.73 204 1276.2 203.8C1274.73 203.6 1273.17 203.5 1271.5 203.5C1269.97 203.5 1268.47 203.633 1267 203.9C1265.53 204.1 1264.23 204.5 1263.1 205.1C1261.97 205.7 1261.03 206.5 1260.3 207.5C1259.57 208.433 1259.2 209.633 1259.2 211.1C1259.2 214.1 1260.2 216.2 1262.2 217.4C1264.27 218.533 1267.03 219.1 1270.5 219.1ZM1269.7 177.5C1273.17 177.5 1276.07 177.933 1278.4 178.8C1280.8 179.667 1282.73 180.867 1284.2 182.4C1285.67 183.933 1286.7 185.8 1287.3 188C1287.9 190.2 1288.2 192.6 1288.2 195.2V224.2C1286.27 224.533 1283.7 224.933 1280.5 225.4C1277.37 225.867 1274.13 226.1 1270.8 226.1C1268.27 226.1 1265.8 225.867 1263.4 225.4C1261 225 1258.87 224.267 1257 223.2C1255.13 222.067 1253.63 220.533 1252.5 218.6C1251.37 216.667 1250.8 214.2 1250.8 211.2C1250.8 208.533 1251.37 206.3 1252.5 204.5C1253.7 202.633 1255.2 201.133 1257 200C1258.87 198.867 1260.97 198.067 1263.3 197.6C1265.7 197.067 1268.1 196.8 1270.5 196.8C1273.77 196.8 1276.97 197.167 1280.1 197.9V195.6C1280.1 194.2 1279.93 192.867 1279.6 191.6C1279.33 190.267 1278.77 189.067 1277.9 188C1277.1 186.933 1275.97 186.1 1274.5 185.5C1273.1 184.833 1271.27 184.5 1269 184.5C1266.13 184.5 1263.63 184.7 1261.5 185.1C1259.37 185.5 1257.73 185.9 1256.6 186.3L1255.6 179.5C1256.73 178.967 1258.6 178.5 1261.2 178.1C1263.87 177.7 1266.7 177.5 1269.7 177.5ZM1299.9 201.9C1299.9 197.7 1300.57 194.067 1301.9 191C1303.23 187.933 1305.07 185.4 1307.4 183.4C1309.73 181.4 1312.43 179.933 1315.5 179C1318.63 178 1321.97 177.5 1325.5 177.5C1327.77 177.5 1330 177.667 1332.2 178C1334.47 178.267 1336.87 178.8 1339.4 179.6L1337.5 186.7C1335.3 185.9 1333.27 185.4 1331.4 185.2C1329.6 184.933 1327.77 184.8 1325.9 184.8C1323.5 184.8 1321.23 185.133 1319.1 185.8C1316.97 186.4 1315.1 187.4 1313.5 188.8C1311.97 190.133 1310.73 191.9 1309.8 194.1C1308.87 196.233 1308.4 198.833 1308.4 201.9C1308.4 204.833 1308.83 207.367 1309.7 209.5C1310.57 211.567 1311.77 213.3 1313.3 214.7C1314.9 216.033 1316.8 217.033 1319 217.7C1321.2 218.367 1323.63 218.7 1326.3 218.7C1328.43 218.7 1330.47 218.6 1332.4 218.4C1334.4 218.133 1336.57 217.6 1338.9 216.8L1340.1 223.7C1337.77 224.567 1335.4 225.167 1333 225.5C1330.6 225.9 1328 226.1 1325.2 226.1C1321.47 226.1 1318.03 225.6 1314.9 224.6C1311.83 223.533 1309.17 222 1306.9 220C1304.7 218 1302.97 215.5 1301.7 212.5C1300.5 209.433 1299.9 205.9 1299.9 201.9ZM1368.8 199.5C1370.6 200.833 1372.63 202.533 1374.9 204.6C1377.17 206.6 1379.4 208.767 1381.6 211.1C1383.87 213.433 1386 215.833 1388 218.3C1390 220.7 1391.6 222.933 1392.8 225H1383C1381.73 222.933 1380.17 220.833 1378.3 218.7C1376.43 216.5 1374.43 214.4 1372.3 212.4C1370.23 210.4 1368.13 208.567 1366 206.9C1363.93 205.233 1362.07 203.833 1360.4 202.7V225H1352.1V157.1L1360.4 155.7V198C1364.07 194.8 1367.73 191.633 1371.4 188.5C1375.07 185.3 1378.37 182 1381.3 178.6H1391C1388.13 182 1384.67 185.5 1380.6 189.1C1376.6 192.7 1372.67 196.167 1368.8 199.5Z" fill="#404040"/>
<rect x="708" y="1177" width="200" height="200" rx="20" fill="#FF8266"/>
<rect x="945" y="1177" width="200" height="200" rx="20" fill="#FF8B66"/>
<rect x="1182" y="1177" width="200" height="200" rx="20" fill="#FF9D66"/>
<rect x="471" y="1177" width="200" height="200" rx="20" fill="#FF7866"/>
<rect x="234" y="1177" width="200" height="200" rx="20" fill="#FF6F66"/>
<path d="M336.2 1277.2C338.733 1277.2 341.4 1276.93 344.2 1276.4C347 1275.87 349.267 1275.13 351 1274.2C351.133 1273.13 351.2 1271.87 351.2 1270.4C351.333 1268.8 351.4 1267.27 351.4 1265.8C351.4 1262.47 351.067 1259.13 350.4 1255.8C349.867 1252.33 348.867 1249.2 347.4 1246.4C346.067 1243.6 344.2 1241.33 341.8 1239.6C339.533 1237.87 336.667 1237 333.2 1237C330.267 1237 327.733 1237.6 325.6 1238.8C323.6 1239.87 321.933 1241.33 320.6 1243.2C319.4 1245.07 318.467 1247.27 317.8 1249.8C317.267 1252.33 317 1255 317 1257.8C317 1264.07 318.467 1268.87 321.4 1272.2C324.333 1275.53 329.267 1277.2 336.2 1277.2ZM333 1297.6C325.8 1297.6 319.667 1296.6 314.6 1294.6C309.533 1292.47 305.4 1289.6 302.2 1286C299 1282.4 296.667 1278.27 295.2 1273.6C293.733 1268.8 293 1263.67 293 1258.2C293 1253.4 293.8 1248.53 295.4 1243.6C297.133 1238.53 299.6 1234 302.8 1230C306.133 1225.87 310.267 1222.53 315.2 1220C320.133 1217.33 325.933 1216 332.6 1216C346.467 1216 357.067 1220.67 364.4 1230C371.733 1239.33 375.4 1252.33 375.4 1269C375.4 1281 373.667 1291.67 370.2 1301C366.733 1310.2 361.733 1317.93 355.2 1324.2C348.8 1330.47 341 1335.27 331.8 1338.6C322.733 1341.8 312.6 1343.4 301.4 1343.4L300.6 1322.2C311.267 1322.07 320.8 1319.8 329.2 1315.4C337.6 1310.87 343.533 1303.8 347 1294.2C341.8 1296.47 337.133 1297.6 333 1297.6Z" fill="white"/>
<path d="M563.6 1322.6V1253.4C559.867 1256.07 555.6 1258.47 550.8 1260.6C546 1262.6 541.933 1264.2 538.6 1265.4L530.6 1245C533.8 1243.8 537.267 1242.27 541 1240.4C544.733 1238.53 548.467 1236.47 552.2 1234.2C555.933 1231.93 559.467 1229.53 562.8 1227C566.133 1224.47 569 1221.87 571.4 1219.2H588.2V1322.6H612.8V1343H537.6V1322.6H563.6Z" fill="white"/>
<path d="M844.8 1251.8C844.8 1256.07 844 1260.2 842.4 1264.2C840.8 1268.07 838.667 1271.87 836 1275.6C833.333 1279.33 830.333 1282.93 827 1286.4C823.667 1289.87 820.267 1293.2 816.8 1296.4C815.067 1298 813.067 1299.93 810.8 1302.2C808.533 1304.33 806.4 1306.6 804.4 1309C802.4 1311.27 800.667 1313.6 799.2 1316C797.867 1318.4 797.2 1320.6 797.2 1322.6H850.4V1343H769.6C769.2 1341.67 769 1340 769 1338C769.133 1336 769.2 1334.6 769.2 1333.8C769.2 1327.13 770.4 1321 772.8 1315.4C775.333 1309.8 778.467 1304.67 782.2 1300C786.067 1295.2 790.133 1290.8 794.4 1286.8C798.8 1282.67 802.867 1278.73 806.6 1275C810.467 1271.27 813.6 1267.67 816 1264.2C818.533 1260.73 819.8 1257.2 819.8 1253.6C819.8 1248.53 818.267 1244.67 815.2 1242C812.133 1239.2 808.267 1237.8 803.6 1237.8C799.733 1237.8 795.667 1238.73 791.4 1240.6C787.133 1242.47 782.933 1245.6 778.8 1250L766.6 1232.8C771.933 1227.2 778.067 1223.07 785 1220.4C792.067 1217.73 799.067 1216.4 806 1216.4C811.067 1216.4 815.933 1217.13 820.6 1218.6C825.267 1220.07 829.4 1222.27 833 1225.2C836.6 1228.13 839.467 1231.87 841.6 1236.4C843.733 1240.8 844.8 1245.93 844.8 1251.8Z" fill="white"/>
<path d="M1059.2 1306.6C1059.2 1303.13 1058.6 1300 1057.4 1297.2C1056.33 1294.27 1054.07 1291.8 1050.6 1289.8C1047.27 1287.67 1042.47 1286.07 1036.2 1285C1029.93 1283.8 1021.73 1283.2 1011.6 1283.2C1012.93 1272 1014 1261.07 1014.8 1250.4C1015.6 1239.6 1016.2 1229.2 1016.6 1219.2H1079.8V1239.6H1037.2C1036.93 1243.87 1036.6 1248.33 1036.2 1253C1035.8 1257.67 1035.47 1261.47 1035.2 1264.4C1051.73 1265.47 1064.07 1269.47 1072.2 1276.4C1080.33 1283.33 1084.4 1293.07 1084.4 1305.6C1084.4 1311.33 1083.4 1316.67 1081.4 1321.6C1079.4 1326.4 1076.33 1330.6 1072.2 1334.2C1068.07 1337.8 1062.93 1340.6 1056.8 1342.6C1050.67 1344.6 1043.53 1345.6 1035.4 1345.6C1032.2 1345.6 1028.93 1345.4 1025.6 1345C1022.27 1344.6 1019.07 1344.07 1016 1343.4C1012.93 1342.87 1010.13 1342.2 1007.6 1341.4C1005.2 1340.6 1003.33 1339.87 1002 1339.2L1007 1318.8C1009.93 1320.27 1013.67 1321.6 1018.2 1322.8C1022.73 1324 1028.4 1324.6 1035.2 1324.6C1040 1324.6 1043.93 1324.07 1047 1323C1050.2 1321.93 1052.67 1320.6 1054.4 1319C1056.27 1317.27 1057.53 1315.33 1058.2 1313.2C1058.87 1311.07 1059.2 1308.87 1059.2 1306.6Z" fill="white"/>
<path d="M1289 1250C1286.6 1253.07 1284.13 1256.33 1281.6 1259.8C1279.07 1263.27 1276.53 1266.93 1274 1270.8C1271.6 1274.53 1269.27 1278.33 1267 1282.2C1264.73 1286.07 1262.73 1289.87 1261 1293.6H1289V1250ZM1313.6 1219.2V1293.6H1327V1313.8H1313.6V1343H1289V1313.8H1237.4V1295.8C1239.93 1290.6 1243.2 1284.73 1247.2 1278.2C1251.2 1271.53 1255.6 1264.73 1260.4 1257.8C1265.2 1250.87 1270.27 1244.07 1275.6 1237.4C1280.93 1230.6 1286.27 1224.53 1291.6 1219.2H1313.6Z" fill="white"/>
<path d="M1260.6 1475.6C1261.73 1472.93 1263.27 1469.87 1265.2 1466.4C1267.2 1462.93 1269.43 1459.37 1271.9 1455.7C1274.37 1451.97 1277 1448.33 1279.8 1444.8C1282.6 1441.2 1285.43 1437.97 1288.3 1435.1H1296.3V1474.4H1303.6V1481.2H1296.3V1497H1288.3V1481.2H1260.6V1475.6ZM1288.3 1444.9C1286.5 1446.83 1284.67 1448.97 1282.8 1451.3C1281 1453.63 1279.23 1456.1 1277.5 1458.7C1275.77 1461.23 1274.13 1463.83 1272.6 1466.5C1271.13 1469.17 1269.8 1471.8 1268.6 1474.4H1288.3V1444.9Z" fill="#404040"/>
<path d="M1041.2 1491C1046.47 1491 1050.2 1489.97 1052.4 1487.9C1054.67 1485.77 1055.8 1482.93 1055.8 1479.4C1055.8 1477.13 1055.33 1475.23 1054.4 1473.7C1053.47 1472.17 1052.23 1470.93 1050.7 1470C1049.17 1469.07 1047.4 1468.4 1045.4 1468C1043.4 1467.6 1041.3 1467.4 1039.1 1467.4H1037V1460.7H1039.9C1041.37 1460.7 1042.87 1460.57 1044.4 1460.3C1046 1459.97 1047.43 1459.43 1048.7 1458.7C1050.03 1457.9 1051.1 1456.83 1051.9 1455.5C1052.7 1454.17 1053.1 1452.47 1053.1 1450.4C1053.1 1447 1052.03 1444.6 1049.9 1443.2C1047.83 1441.73 1045.4 1441 1042.6 1441C1039.73 1441 1037.3 1441.43 1035.3 1442.3C1033.3 1443.1 1031.63 1443.93 1030.3 1444.8L1027.1 1438.5C1028.5 1437.5 1030.6 1436.47 1033.4 1435.4C1036.27 1434.27 1039.43 1433.7 1042.9 1433.7C1046.17 1433.7 1048.97 1434.1 1051.3 1434.9C1053.63 1435.7 1055.53 1436.83 1057 1438.3C1058.53 1439.77 1059.67 1441.5 1060.4 1443.5C1061.13 1445.43 1061.5 1447.57 1061.5 1449.9C1061.5 1453.17 1060.63 1455.93 1058.9 1458.2C1057.23 1460.47 1055.07 1462.2 1052.4 1463.4C1055.6 1464.33 1058.37 1466.17 1060.7 1468.9C1063.03 1471.57 1064.2 1475.13 1064.2 1479.6C1064.2 1482.27 1063.73 1484.77 1062.8 1487.1C1061.93 1489.37 1060.57 1491.33 1058.7 1493C1056.9 1494.67 1054.53 1495.97 1051.6 1496.9C1048.73 1497.83 1045.3 1498.3 1041.3 1498.3C1039.77 1498.3 1038.17 1498.17 1036.5 1497.9C1034.9 1497.7 1033.4 1497.4 1032 1497C1030.6 1496.67 1029.33 1496.33 1028.2 1496C1027.13 1495.6 1026.37 1495.3 1025.9 1495.1L1027.5 1488C1028.57 1488.53 1030.27 1489.17 1032.6 1489.9C1034.93 1490.63 1037.8 1491 1041.2 1491Z" fill="#404040"/>
<path d="M339.8 1464.9C339.8 1466.63 339.267 1468.13 338.2 1469.4C337.2 1470.67 335.867 1471.3 334.2 1471.3C332.467 1471.3 331.067 1470.67 330 1469.4C328.933 1468.13 328.4 1466.63 328.4 1464.9C328.4 1463.17 328.933 1461.63 330 1460.3C331.067 1458.97 332.467 1458.3 334.2 1458.3C335.867 1458.3 337.2 1458.97 338.2 1460.3C339.267 1461.63 339.8 1463.17 339.8 1464.9ZM313.6 1466C313.6 1455.6 315.367 1447.63 318.9 1442.1C322.5 1436.5 327.533 1433.7 334 1433.7C340.533 1433.7 345.567 1436.5 349.1 1442.1C352.633 1447.63 354.4 1455.6 354.4 1466C354.4 1476.4 352.633 1484.4 349.1 1490C345.567 1495.53 340.533 1498.3 334 1498.3C327.533 1498.3 322.5 1495.53 318.9 1490C315.367 1484.4 313.6 1476.4 313.6 1466ZM346 1466C346 1462.6 345.8 1459.4 345.4 1456.4C345 1453.33 344.333 1450.67 343.4 1448.4C342.467 1446.13 341.233 1444.33 339.7 1443C338.167 1441.67 336.267 1441 334 1441C331.733 1441 329.833 1441.67 328.3 1443C326.767 1444.33 325.533 1446.13 324.6 1448.4C323.667 1450.67 323 1453.33 322.6 1456.4C322.2 1459.4 322 1462.6 322 1466C322 1469.4 322.2 1472.63 322.6 1475.7C323 1478.7 323.667 1481.33 324.6 1483.6C325.533 1485.87 326.767 1487.67 328.3 1489C329.833 1490.33 331.733 1491 334 1491C336.267 1491 338.167 1490.33 339.7 1489C341.233 1487.67 342.467 1485.87 343.4 1483.6C344.333 1481.33 345 1478.7 345.4 1475.7C345.8 1472.63 346 1469.4 346 1466Z" fill="#404040"/>
<path d="M553.5 1447.9C556.9 1446.57 560.2 1444.9 563.4 1442.9C566.6 1440.83 569.567 1438.23 572.3 1435.1H578.1V1490H589.8V1497H556.5V1490H569.9V1446.6C569.167 1447.27 568.267 1447.97 567.2 1448.7C566.2 1449.37 565.067 1450.03 563.8 1450.7C562.6 1451.37 561.333 1452 560 1452.6C558.667 1453.2 557.367 1453.7 556.1 1454.1L553.5 1447.9Z" fill="#404040"/>
<path d="M825 1450.9C825 1453.03 824.567 1455.1 823.7 1457.1C822.9 1459.1 821.8 1461.07 820.4 1463C819.067 1464.93 817.533 1466.83 815.8 1468.7C814.067 1470.57 812.3 1472.4 810.5 1474.2C809.5 1475.2 808.333 1476.4 807 1477.8C805.667 1479.2 804.4 1480.63 803.2 1482.1C802 1483.57 801 1485 800.2 1486.4C799.4 1487.8 799 1489 799 1490H827.5V1497H790C789.933 1496.67 789.9 1496.33 789.9 1496C789.9 1495.6 789.9 1495.23 789.9 1494.9C789.9 1492.1 790.367 1489.5 791.3 1487.1C792.233 1484.7 793.433 1482.43 794.9 1480.3C796.367 1478.17 798 1476.17 799.8 1474.3C801.667 1472.37 803.5 1470.5 805.3 1468.7C806.767 1467.23 808.167 1465.8 809.5 1464.4C810.9 1463 812.1 1461.6 813.1 1460.2C814.167 1458.8 815 1457.37 815.6 1455.9C816.267 1454.37 816.6 1452.8 816.6 1451.2C816.6 1449.4 816.3 1447.87 815.7 1446.6C815.167 1445.33 814.4 1444.3 813.4 1443.5C812.467 1442.63 811.367 1442 810.1 1441.6C808.833 1441.2 807.467 1441 806 1441C804.267 1441 802.667 1441.23 801.2 1441.7C799.8 1442.17 798.533 1442.73 797.4 1443.4C796.333 1444.07 795.4 1444.73 794.6 1445.4C793.8 1446 793.2 1446.5 792.8 1446.9L788.7 1441.1C789.233 1440.5 790.033 1439.77 791.1 1438.9C792.167 1438.03 793.433 1437.23 794.9 1436.5C796.433 1435.7 798.133 1435.03 800 1434.5C801.867 1433.97 803.867 1433.7 806 1433.7C812.467 1433.7 817.233 1435.2 820.3 1438.2C823.433 1441.13 825 1445.37 825 1450.9Z" fill="#404040"/>
<path d="M334.301 1140L291 1065L377.603 1065L334.301 1140Z" fill="#FF6F66"/>
<path d="M344.301 1010L344.301 1065L324.301 1065L324.301 1010L344.301 1010Z" fill="#FF6F66"/>
<path d="M218.1 966V904.1H253.2V911.1H226.3V930.4H250V937.3H226.3V966H218.1ZM269.7 966V922.1C276.5 919.767 283.367 918.6 290.3 918.6C292.433 918.6 294.467 918.7 296.4 918.9C298.333 919.033 300.467 919.367 302.8 919.9L301.3 927.2C299.167 926.6 297.267 926.233 295.6 926.1C294 925.9 292.233 925.8 290.3 925.8C286.233 925.8 282.1 926.367 277.9 927.5V966H269.7ZM355 942.8C355 946.467 354.467 949.8 353.4 952.8C352.4 955.733 350.967 958.267 349.1 960.4C347.233 962.533 345 964.2 342.4 965.4C339.8 966.533 336.967 967.1 333.9 967.1C330.9 967.1 328.1 966.533 325.5 965.4C322.967 964.2 320.767 962.533 318.9 960.4C317.033 958.267 315.567 955.733 314.5 952.8C313.5 949.8 313 946.467 313 942.8C313 939.133 313.5 935.8 314.5 932.8C315.567 929.8 317.033 927.267 318.9 925.2C320.767 923.067 322.967 921.433 325.5 920.3C328.1 919.1 330.9 918.5 333.9 918.5C336.967 918.5 339.8 919.1 342.4 920.3C345 921.433 347.233 923.067 349.1 925.2C350.967 927.267 352.4 929.8 353.4 932.8C354.467 935.8 355 939.133 355 942.8ZM346.5 942.8C346.5 937.533 345.367 933.4 343.1 930.4C340.833 927.333 337.767 925.8 333.9 925.8C330.1 925.8 327.067 927.333 324.8 930.4C322.6 933.4 321.5 937.533 321.5 942.8C321.5 948 322.6 952.133 324.8 955.2C327.067 958.2 330.1 959.7 333.9 959.7C337.767 959.7 340.833 958.2 343.1 955.2C345.367 952.133 346.5 948 346.5 942.8ZM366.1 920.9C369.1 920.167 372.067 919.6 375 919.2C378 918.8 380.8 918.6 383.4 918.6C389.6 918.6 394.267 920.2 397.4 923.4C400.6 926.6 402.2 931.733 402.2 938.8V966H394V940.3C394 937.3 393.733 934.867 393.2 933C392.667 931.133 391.9 929.7 390.9 928.7C389.967 927.633 388.8 926.9 387.4 926.5C386.067 926.1 384.6 925.9 383 925.9C381.667 925.9 380.233 926 378.7 926.2C377.233 926.333 375.8 926.533 374.4 926.8V966H366.1V920.9ZM433.3 919.6H452.9V926.5H433.3V948.1C433.3 950.433 433.467 952.333 433.8 953.8C434.133 955.267 434.667 956.467 435.4 957.4C436.2 958.267 437.2 958.867 438.4 959.2C439.6 959.533 441.067 959.7 442.8 959.7C445.2 959.7 447.133 959.5 448.6 959.1C450.067 958.7 451.467 958.167 452.8 957.5L454 964.5C453.067 964.9 451.567 965.433 449.5 966.1C447.5 966.767 445 967.1 442 967.1C438.533 967.1 435.7 966.7 433.5 965.9C431.3 965.1 429.567 963.9 428.3 962.3C427.1 960.7 426.267 958.733 425.8 956.4C425.333 954 425.1 951.233 425.1 948.1V926.5H415.3V919.6H425.1V906.6L433.3 905.2V919.6Z" fill="#404040"/>
<rect x="1404.72" y="1110.69" width="200" height="200" rx="20" transform="rotate(-8.90593 1404.72 1110.69)" fill="#FFB171"/>
<path d="M1522.31 1262.92C1519.28 1263.39 1516.01 1263.64 1512.5 1263.65C1509.15 1263.77 1505.84 1263.75 1502.57 1263.58C1499.44 1263.4 1496.5 1263.12 1493.74 1262.74C1490.98 1262.36 1488.82 1261.96 1487.27 1261.53L1488.82 1240.43C1492.06 1241.27 1496.16 1242.05 1501.13 1242.75C1506.23 1243.44 1512.14 1243.26 1518.86 1242.2C1527.16 1240.9 1532.68 1238.22 1535.41 1234.14C1538.28 1230.05 1539.3 1225.37 1538.48 1220.1C1537.46 1213.65 1534.19 1209.57 1528.66 1207.87C1523.11 1206.04 1516.39 1205.75 1508.48 1206.98L1500.98 1208.16L1497.82 1188.01L1506.91 1186.58C1509.41 1186.19 1511.87 1185.54 1514.29 1184.62C1516.71 1183.7 1518.82 1182.49 1520.61 1180.99C1522.4 1179.5 1523.73 1177.67 1524.61 1175.51C1525.61 1173.33 1525.88 1170.72 1525.4 1167.69C1524.7 1163.21 1522.77 1159.94 1519.61 1157.87C1516.57 1155.65 1512.67 1154.91 1507.93 1155.65C1503.32 1156.37 1498.83 1157.89 1494.47 1160.19C1490.22 1162.34 1486.62 1164.79 1483.68 1167.55L1472.2 1151.13C1475.38 1148.2 1479.69 1145.1 1485.11 1141.82C1490.65 1138.39 1497.1 1136.09 1504.48 1134.94C1511.33 1133.86 1517.39 1133.79 1522.67 1134.72C1528.07 1135.63 1532.67 1137.4 1536.46 1140.05C1540.23 1142.56 1543.23 1145.8 1545.47 1149.77C1547.71 1153.74 1549.22 1158.16 1549.98 1163.03C1550.74 1167.9 1550.09 1172.8 1548.03 1177.71C1545.96 1182.62 1542.81 1186.62 1538.57 1189.72C1545.31 1191.36 1550.79 1194.48 1555.02 1199.08C1559.38 1203.66 1562.12 1209.51 1563.24 1216.62C1564.12 1222.29 1564.02 1227.64 1562.92 1232.67C1561.81 1237.7 1559.63 1242.29 1556.37 1246.45C1553.09 1250.47 1548.64 1253.93 1543.02 1256.84C1537.38 1259.61 1530.48 1261.64 1522.31 1262.92Z" fill="white"/>
<path d="M1512.6 1459C1521.53 1459.33 1528.03 1461.3 1532.1 1464.9C1536.17 1468.5 1538.2 1473.33 1538.2 1479.4C1538.2 1482.13 1537.77 1484.67 1536.9 1487C1536.03 1489.33 1534.67 1491.33 1532.8 1493C1531 1494.67 1528.67 1495.97 1525.8 1496.9C1523 1497.83 1519.67 1498.3 1515.8 1498.3C1514.2 1498.3 1512.6 1498.17 1511 1497.9C1509.47 1497.7 1508 1497.43 1506.6 1497.1C1505.2 1496.77 1503.97 1496.43 1502.9 1496.1C1501.83 1495.7 1501.07 1495.37 1500.6 1495.1L1502.2 1488C1503.27 1488.53 1504.9 1489.17 1507.1 1489.9C1509.37 1490.63 1512.2 1491 1515.6 1491C1518.27 1491 1520.5 1490.7 1522.3 1490.1C1524.1 1489.5 1525.53 1488.7 1526.6 1487.7C1527.73 1486.63 1528.53 1485.43 1529 1484.1C1529.53 1482.77 1529.8 1481.37 1529.8 1479.9C1529.8 1477.63 1529.4 1475.63 1528.6 1473.9C1527.87 1472.1 1526.53 1470.6 1524.6 1469.4C1522.73 1468.2 1520.13 1467.3 1516.8 1466.7C1513.53 1466.03 1509.4 1465.7 1504.4 1465.7C1504.8 1462.77 1505.1 1460.03 1505.3 1457.5C1505.57 1454.9 1505.77 1452.4 1505.9 1450C1506.1 1447.53 1506.23 1445.1 1506.3 1442.7C1506.43 1440.3 1506.57 1437.77 1506.7 1435.1H1536.5V1442.1H1513.9C1513.83 1443.03 1513.73 1444.27 1513.6 1445.8C1513.53 1447.27 1513.43 1448.83 1513.3 1450.5C1513.17 1452.17 1513.03 1453.77 1512.9 1455.3C1512.77 1456.83 1512.67 1458.07 1512.6 1459Z" fill="#404040"/>
<path d="M1431.95 1074.83L1353.95 1037.2L1425.54 988.466L1431.95 1074.83Z" fill="#FFB171"/>
<path d="M1367.06 961.739L1398.01 1007.2L1381.48 1018.46L1350.53 972.994L1367.06 961.739Z" fill="#FFB171"/>
<path d="M1260.65 953.79C1259.68 954.041 1258.54 954.3 1257.23 954.57C1255.93 954.839 1254.61 955.076 1253.29 955.28C1251.98 955.549 1250.65 955.754 1249.31 955.894C1247.97 956.034 1246.78 956.1 1245.75 956.092L1230.73 898.002C1231.64 897.493 1232.67 896.984 1233.85 896.473C1235.09 895.946 1236.35 895.483 1237.62 895.085C1238.95 894.605 1240.21 894.175 1241.42 893.793C1242.7 893.395 1243.85 893.062 1244.88 892.795C1247.85 892.028 1250.69 891.569 1253.41 891.418C1256.12 891.267 1258.58 891.562 1260.76 892.305C1263.02 893.031 1264.92 894.26 1266.47 895.994C1268.08 897.712 1269.27 900.055 1270.04 903.024C1270.41 904.444 1270.54 905.89 1270.44 907.362C1270.32 908.77 1269.99 910.163 1269.45 911.542C1268.98 912.904 1268.31 914.179 1267.45 915.366C1266.63 916.472 1265.67 917.409 1264.56 918.178C1268.09 918.231 1271.26 919.2 1274.09 921.085C1276.97 922.89 1278.91 925.728 1279.91 929.601C1281.44 935.539 1280.7 940.517 1277.67 944.535C1274.65 948.553 1268.97 951.638 1260.65 953.79ZM1246.71 927.028L1252.24 948.425C1252.38 948.456 1253.12 948.369 1254.44 948.164C1255.81 947.879 1257.5 947.477 1259.5 946.96C1261.5 946.443 1263.37 945.789 1265.09 944.999C1266.88 944.193 1268.37 943.186 1269.58 941.98C1270.76 940.709 1271.59 939.256 1272.06 937.619C1272.6 935.965 1272.58 934.009 1271.99 931.75C1271.48 929.749 1270.62 928.179 1269.43 927.041C1268.31 925.885 1266.97 925.096 1265.41 924.671C1263.9 924.166 1262.24 923.977 1260.41 924.105C1258.57 924.168 1256.71 924.442 1254.84 924.926L1246.71 927.028ZM1245 920.444L1251.3 918.817C1252.91 918.4 1254.48 917.822 1256.01 917.082C1257.54 916.342 1258.86 915.45 1259.97 914.407C1261.08 913.363 1261.86 912.128 1262.32 910.701C1262.77 909.275 1262.76 907.626 1262.28 905.754C1261.83 904.011 1261.09 902.618 1260.06 901.576C1259.03 900.533 1257.84 899.774 1256.48 899.3C1255.12 898.826 1253.62 898.627 1251.99 898.705C1250.42 898.766 1248.8 899.014 1247.12 899.447C1245.44 899.881 1243.96 900.297 1242.69 900.695C1241.46 901.012 1240.61 901.302 1240.12 901.565L1245 920.444ZM1312.39 933.804C1314.39 933.287 1316.15 932.764 1317.67 932.234C1319.25 931.688 1320.53 931.185 1321.51 930.724L1318.06 917.363C1316.94 917.308 1315.62 917.375 1314.08 917.565C1312.61 917.738 1311.07 918.034 1309.46 918.451C1307.97 918.834 1306.55 919.339 1305.2 919.964C1303.83 920.525 1302.67 921.237 1301.72 922.102C1300.78 922.966 1300.07 923.975 1299.61 925.126C1299.14 926.213 1299.08 927.467 1299.45 928.887C1300.2 931.792 1301.69 933.574 1303.93 934.236C1306.22 934.816 1309.04 934.672 1312.39 933.804ZM1301.21 893.729C1304.56 892.861 1307.48 892.555 1309.96 892.81C1312.5 893.048 1314.67 893.726 1316.47 894.844C1318.28 895.961 1319.74 897.51 1320.87 899.49C1322.01 901.47 1322.9 903.718 1323.55 906.235L1330.81 934.312C1329.02 935.119 1326.63 936.149 1323.65 937.401C1320.73 938.637 1317.66 939.672 1314.44 940.507C1311.98 941.141 1309.54 941.532 1307.1 941.681C1304.67 941.894 1302.42 941.718 1300.35 941.153C1298.26 940.522 1296.42 939.413 1294.84 937.825C1293.26 936.237 1292.09 933.991 1291.34 931.086C1290.68 928.504 1290.66 926.2 1291.31 924.174C1292.01 922.066 1293.08 920.239 1294.54 918.691C1296.07 917.126 1297.9 915.826 1300.04 914.791C1302.23 913.674 1304.49 912.815 1306.81 912.214C1309.97 911.397 1313.16 910.951 1316.38 910.877L1315.81 908.65C1315.46 907.294 1314.96 906.045 1314.32 904.902C1313.73 903.678 1312.88 902.658 1311.77 901.842C1310.73 901.01 1309.43 900.487 1307.86 900.273C1306.33 899.978 1304.48 900.114 1302.28 900.681C1299.51 901.398 1297.14 902.218 1295.17 903.139C1293.2 904.06 1291.72 904.856 1290.73 905.527L1288.06 899.194C1289.02 898.394 1290.71 897.475 1293.13 896.437C1295.61 895.382 1298.3 894.479 1301.21 893.729ZM1336.55 909.794C1335.5 905.728 1335.24 902.043 1335.76 898.74C1336.28 895.438 1337.43 892.526 1339.18 890.006C1340.94 887.485 1343.19 885.39 1345.93 883.719C1348.71 881.966 1351.81 880.648 1355.23 879.764C1357.43 879.196 1359.63 878.799 1361.84 878.571C1364.1 878.262 1366.56 878.178 1369.21 878.318L1369.15 885.668C1366.82 885.444 1364.73 885.469 1362.87 885.742C1361.06 885.934 1359.25 886.264 1357.45 886.731C1355.12 887.332 1353.01 888.222 1351.11 889.401C1349.2 890.516 1347.64 891.951 1346.44 893.707C1345.29 895.382 1344.54 897.401 1344.19 899.765C1343.82 902.064 1344.01 904.698 1344.78 907.667C1345.52 910.507 1346.57 912.851 1347.94 914.7C1349.3 916.484 1350.89 917.861 1352.73 918.833C1354.61 919.724 1356.7 920.216 1359 920.311C1361.3 920.406 1363.74 920.12 1366.32 919.452C1368.38 918.919 1370.33 918.313 1372.15 917.635C1374.02 916.877 1375.98 915.818 1378.04 914.46L1380.93 920.84C1378.89 922.263 1376.75 923.436 1374.51 924.359C1372.28 925.347 1369.81 926.191 1367.1 926.892C1363.49 927.827 1360.04 928.202 1356.76 928.018C1353.52 927.752 1350.55 926.935 1347.86 925.566C1345.23 924.18 1342.93 922.194 1340.95 919.606C1339.02 916.937 1337.55 913.667 1336.55 909.794ZM1402.66 890.227C1404.74 891.068 1407.13 892.205 1409.84 893.638C1412.54 895.007 1415.24 896.546 1417.96 898.255C1420.73 899.946 1423.4 901.736 1425.95 903.624C1428.49 905.447 1430.6 907.209 1432.28 908.909L1422.79 911.362C1421.05 909.678 1419 908.037 1416.66 906.439C1414.3 904.776 1411.84 903.243 1409.28 901.841C1406.78 900.422 1404.28 899.172 1401.8 898.092C1399.38 896.996 1397.22 896.108 1395.33 895.428L1400.91 917.018L1392.87 919.095L1375.88 853.356L1383.57 849.923L1394.15 890.877C1396.9 886.861 1399.66 882.878 1402.42 878.926C1405.17 874.911 1407.54 870.89 1409.53 866.864L1418.92 864.436C1417 868.446 1414.52 872.702 1411.48 877.205C1408.51 881.691 1405.57 886.032 1402.66 890.227Z" fill="#404040"/>
</svg>
