<svg width="800" height="1080" viewBox="0 0 800 1080" fill="none" xmlns="http://www.w3.org/2000/svg">
<rect x="100" y="858" width="600" height="150" rx="20" fill="#FF6666"/>
<path d="M216.896 954V930.448H210.304V923.92H216.896V922.192C216.896 919.76 217.237 917.755 217.92 916.176C218.645 914.555 219.605 913.275 220.8 912.336C221.995 911.355 223.36 910.672 224.896 910.288C226.432 909.861 228.011 909.648 229.632 909.648C231.296 909.648 233.003 909.797 234.752 910.096C236.501 910.395 238.08 910.885 239.488 911.568L238.144 917.968C237.163 917.627 235.925 917.285 234.432 916.944C232.981 916.56 231.595 916.368 230.272 916.368C229.547 916.368 228.843 916.432 228.16 916.56C227.52 916.688 226.944 916.965 226.432 917.392C225.963 917.819 225.579 918.437 225.28 919.248C224.981 920.016 224.832 921.04 224.832 922.32V923.92H237.184V930.448H224.832V954H216.896ZM256.064 948.368C256.917 948.368 257.749 948.368 258.56 948.368C259.371 948.325 260.075 948.261 260.672 948.176V941.264C260.16 941.179 259.541 941.115 258.816 941.072C258.091 940.987 257.429 940.944 256.832 940.944C256.021 940.944 255.232 941.008 254.464 941.136C253.696 941.221 253.013 941.392 252.416 941.648C251.861 941.904 251.413 942.267 251.072 942.736C250.731 943.205 250.56 943.824 250.56 944.592C250.56 945.957 251.072 946.939 252.096 947.536C253.12 948.091 254.443 948.368 256.064 948.368ZM255.36 923.152C257.835 923.152 259.883 923.451 261.504 924.048C263.168 924.603 264.491 925.413 265.472 926.48C266.453 927.504 267.157 928.784 267.584 930.32C268.011 931.813 268.224 933.499 268.224 935.376V953.296C267.072 953.552 265.365 953.851 263.104 954.192C260.843 954.533 258.304 954.704 255.488 954.704C253.568 954.704 251.819 954.533 250.24 954.192C248.704 953.851 247.381 953.296 246.272 952.528C245.163 951.717 244.309 950.693 243.712 949.456C243.115 948.176 242.816 946.619 242.816 944.784C242.816 943.035 243.157 941.563 243.84 940.368C244.523 939.173 245.44 938.213 246.592 937.488C247.744 936.763 249.067 936.251 250.56 935.952C252.053 935.611 253.611 935.44 255.232 935.44C257.28 935.44 259.093 935.611 260.672 935.952V934.992C260.672 933.499 260.203 932.261 259.264 931.28C258.325 930.256 256.704 929.744 254.4 929.744C252.907 929.744 251.456 929.851 250.048 930.064C248.683 930.277 247.573 930.533 246.72 930.832L245.632 924.496C246.613 924.155 248 923.856 249.792 923.6C251.584 923.301 253.44 923.152 255.36 923.152ZM274.816 938.96C274.816 936.784 275.157 934.736 275.84 932.816C276.523 930.896 277.568 929.232 278.976 927.824C280.384 926.373 282.155 925.243 284.288 924.432C286.464 923.579 289.045 923.152 292.032 923.152C293.824 923.152 295.445 923.28 296.896 923.536C298.347 923.792 299.819 924.219 301.312 924.816L299.584 931.152C298.731 930.853 297.771 930.597 296.704 930.384C295.68 930.128 294.357 930 292.736 930C290.859 930 289.28 930.235 288 930.704C286.763 931.131 285.76 931.749 284.992 932.56C284.224 933.328 283.669 934.267 283.328 935.376C282.987 936.485 282.816 937.68 282.816 938.96C282.816 941.733 283.584 943.909 285.12 945.488C286.699 947.067 289.365 947.856 293.12 947.856C294.357 947.856 295.637 947.771 296.96 947.6C298.325 947.429 299.563 947.152 300.672 946.768L301.824 953.232C300.715 953.659 299.371 954 297.792 954.256C296.213 954.555 294.357 954.704 292.224 954.704C289.152 954.704 286.507 954.299 284.288 953.488C282.112 952.677 280.32 951.568 278.912 950.16C277.504 948.752 276.459 947.088 275.776 945.168C275.136 943.248 274.816 941.179 274.816 938.96ZM313.152 930.448H306.304V923.92H313.152V916.368L321.024 915.088V923.92H333.632V930.448H321.024V942.608C321.024 943.717 321.131 944.613 321.344 945.296C321.557 945.979 321.856 946.512 322.24 946.896C322.624 947.28 323.093 947.536 323.648 947.664C324.203 947.792 324.821 947.856 325.504 947.856C326.229 947.856 326.891 947.835 327.488 947.792C328.128 947.749 328.725 947.685 329.28 947.6C329.877 947.472 330.475 947.301 331.072 947.088C331.712 946.875 332.395 946.597 333.12 946.256L334.208 953.04C332.757 953.637 331.179 954.064 329.472 954.32C327.808 954.576 326.187 954.704 324.608 954.704C322.773 954.704 321.152 954.555 319.744 954.256C318.336 953.957 317.141 953.381 316.16 952.528C315.179 951.675 314.432 950.48 313.92 948.944C313.408 947.365 313.152 945.317 313.152 942.8V930.448ZM366.208 938.896C366.208 941.285 365.867 943.461 365.184 945.424C364.501 947.344 363.541 949.008 362.304 950.416C361.067 951.824 359.573 952.912 357.824 953.68C356.117 954.448 354.197 954.832 352.064 954.832C349.931 954.832 347.989 954.448 346.24 953.68C344.533 952.912 343.04 951.824 341.76 950.416C340.523 949.008 339.563 947.344 338.88 945.424C338.197 943.461 337.856 941.285 337.856 938.896C337.856 936.549 338.197 934.416 338.88 932.496C339.605 930.533 340.587 928.869 341.824 927.504C343.104 926.096 344.619 925.029 346.368 924.304C348.117 923.536 350.016 923.152 352.064 923.152C354.155 923.152 356.053 923.536 357.76 924.304C359.509 925.029 361.003 926.096 362.24 927.504C363.52 928.869 364.501 930.533 365.184 932.496C365.867 934.416 366.208 936.549 366.208 938.896ZM345.856 938.96C345.856 941.648 346.325 943.824 347.264 945.488C348.245 947.152 349.803 947.984 351.936 947.984C353.984 947.984 355.52 947.152 356.544 945.488C357.611 943.824 358.144 941.648 358.144 938.96C358.144 936.272 357.653 934.117 356.672 932.496C355.733 930.832 354.197 930 352.064 930C350.016 930 348.459 930.832 347.392 932.496C346.368 934.117 345.856 936.272 345.856 938.96ZM395.968 931.92C395.456 931.792 394.837 931.664 394.112 931.536C393.429 931.408 392.725 931.301 392 931.216C391.275 931.088 390.571 931.003 389.888 930.96C389.205 930.917 388.629 930.896 388.16 930.896C387.051 930.896 385.963 930.96 384.896 931.088C383.829 931.173 382.741 931.365 381.632 931.664V954H373.696V925.904C375.787 925.136 377.92 924.517 380.096 924.048C382.315 923.579 384.896 923.344 387.84 923.344C388.267 923.344 388.864 923.365 389.632 923.408C390.443 923.451 391.296 923.536 392.192 923.664C393.088 923.749 393.984 923.877 394.88 924.048C395.819 924.176 396.651 924.368 397.376 924.624L395.968 931.92ZM418.176 915.28C418.176 916.816 417.685 918.032 416.704 918.928C415.723 919.824 414.549 920.272 413.184 920.272C411.819 920.272 410.645 919.824 409.664 918.928C408.725 918.032 408.256 916.816 408.256 915.28C408.256 913.701 408.725 912.464 409.664 911.568C410.645 910.672 411.819 910.224 413.184 910.224C414.549 910.224 415.723 910.672 416.704 911.568C417.685 912.464 418.176 913.701 418.176 915.28ZM429.888 952.72C428.267 953.488 426.731 954 425.28 954.256C423.872 954.555 422.571 954.704 421.376 954.704C419.328 954.704 417.6 954.405 416.192 953.808C414.827 953.211 413.717 952.357 412.864 951.248C412.053 950.096 411.477 948.709 411.136 947.088C410.795 945.467 410.624 943.611 410.624 941.52V930.448H402.304V923.92H418.496V942.544C418.496 944.336 418.816 945.68 419.456 946.576C420.139 947.429 421.248 947.856 422.784 947.856C423.509 947.856 424.384 947.771 425.408 947.6C426.432 947.387 427.584 946.981 428.864 946.384L429.888 952.72ZM448.064 948.368C448.917 948.368 449.749 948.368 450.56 948.368C451.371 948.325 452.075 948.261 452.672 948.176V941.264C452.16 941.179 451.541 941.115 450.816 941.072C450.091 940.987 449.429 940.944 448.832 940.944C448.021 940.944 447.232 941.008 446.464 941.136C445.696 941.221 445.013 941.392 444.416 941.648C443.861 941.904 443.413 942.267 443.072 942.736C442.731 943.205 442.56 943.824 442.56 944.592C442.56 945.957 443.072 946.939 444.096 947.536C445.12 948.091 446.443 948.368 448.064 948.368ZM447.36 923.152C449.835 923.152 451.883 923.451 453.504 924.048C455.168 924.603 456.491 925.413 457.472 926.48C458.453 927.504 459.157 928.784 459.584 930.32C460.011 931.813 460.224 933.499 460.224 935.376V953.296C459.072 953.552 457.365 953.851 455.104 954.192C452.843 954.533 450.304 954.704 447.488 954.704C445.568 954.704 443.819 954.533 442.24 954.192C440.704 953.851 439.381 953.296 438.272 952.528C437.163 951.717 436.309 950.693 435.712 949.456C435.115 948.176 434.816 946.619 434.816 944.784C434.816 943.035 435.157 941.563 435.84 940.368C436.523 939.173 437.44 938.213 438.592 937.488C439.744 936.763 441.067 936.251 442.56 935.952C444.053 935.611 445.611 935.44 447.232 935.44C449.28 935.44 451.093 935.611 452.672 935.952V934.992C452.672 933.499 452.203 932.261 451.264 931.28C450.325 930.256 448.704 929.744 446.4 929.744C444.907 929.744 443.456 929.851 442.048 930.064C440.683 930.277 439.573 930.533 438.72 930.832L437.632 924.496C438.613 924.155 440 923.856 441.792 923.6C443.584 923.301 445.44 923.152 447.36 923.152ZM493.888 952.72C493.76 952.805 493.461 952.955 492.992 953.168C492.565 953.381 491.989 953.616 491.264 953.872C490.539 954.085 489.643 954.277 488.576 954.448C487.552 954.619 486.379 954.704 485.056 954.704C481.429 954.704 478.784 953.637 477.12 951.504C475.456 949.328 474.624 946.171 474.624 942.032V916.496H466.304V909.968H482.496V942.608C482.496 944.656 482.901 946.043 483.712 946.768C484.523 947.493 485.547 947.856 486.784 947.856C488.363 947.856 489.685 947.643 490.752 947.216C491.819 946.789 492.523 946.512 492.864 946.384L493.888 952.72ZM509.312 936.976C509.312 942.224 510.464 946.789 512.768 950.672C515.115 954.512 518.336 957.627 522.432 960.016L518.784 964.88C512.981 961.68 508.736 957.691 506.048 952.912C503.36 948.133 502.016 942.821 502.016 936.976C502.016 931.088 503.403 925.691 506.176 920.784C508.949 915.835 513.237 911.76 519.04 908.56L522.688 913.424C518.592 915.813 515.328 919.013 512.896 923.024C510.507 927.035 509.312 931.685 509.312 936.976ZM532.032 924.88C533.44 924.496 535.168 924.133 537.216 923.792C539.307 923.451 541.568 923.28 544 923.28C546.389 923.28 548.373 923.621 549.952 924.304C551.531 924.944 552.768 925.883 553.664 927.12C554.603 928.315 555.264 929.765 555.648 931.472C556.032 933.136 556.224 934.992 556.224 937.04V954H548.352V938.064C548.352 935.248 548.032 933.221 547.392 931.984C546.752 930.747 545.451 930.128 543.488 930.128C542.891 930.128 542.293 930.149 541.696 930.192C541.141 930.235 540.544 930.299 539.904 930.384V954H532.032V924.88ZM578.816 936.976C578.816 931.685 577.6 927.035 575.168 923.024C572.779 919.013 569.536 915.813 565.44 913.424L569.088 908.56C574.891 911.76 579.179 915.835 581.952 920.784C584.725 925.691 586.112 931.088 586.112 936.976C586.112 942.821 584.768 948.133 582.08 952.912C579.392 957.691 575.147 961.68 569.344 964.88L565.696 960.016C569.792 957.627 572.992 954.512 575.296 950.672C577.643 946.789 578.816 942.224 578.816 936.976Z" fill="white"/>
<path d="M396.536 808C398.075 805.333 401.925 805.333 403.464 808L420.785 838C422.324 840.667 420.4 844 417.321 844H382.679C379.6 844 377.676 840.667 379.215 838L396.536 808Z" fill="#FF6666"/>
<rect x="100" y="640" width="600" height="150" rx="20" fill="#FF7866"/>
<path d="M184.896 736V712.448H178.304V705.92H184.896V704.192C184.896 701.76 185.237 699.755 185.92 698.176C186.645 696.555 187.605 695.275 188.8 694.336C189.995 693.355 191.36 692.672 192.896 692.288C194.432 691.861 196.011 691.648 197.632 691.648C199.296 691.648 201.003 691.797 202.752 692.096C204.501 692.395 206.08 692.885 207.488 693.568L206.144 699.968C205.163 699.627 203.925 699.285 202.432 698.944C200.981 698.56 199.595 698.368 198.272 698.368C197.547 698.368 196.843 698.432 196.16 698.56C195.52 698.688 194.944 698.965 194.432 699.392C193.963 699.819 193.579 700.437 193.28 701.248C192.981 702.016 192.832 703.04 192.832 704.32V705.92H205.184V712.448H192.832V736H184.896ZM224.064 730.368C224.917 730.368 225.749 730.368 226.56 730.368C227.371 730.325 228.075 730.261 228.672 730.176V723.264C228.16 723.179 227.541 723.115 226.816 723.072C226.091 722.987 225.429 722.944 224.832 722.944C224.021 722.944 223.232 723.008 222.464 723.136C221.696 723.221 221.013 723.392 220.416 723.648C219.861 723.904 219.413 724.267 219.072 724.736C218.731 725.205 218.56 725.824 218.56 726.592C218.56 727.957 219.072 728.939 220.096 729.536C221.12 730.091 222.443 730.368 224.064 730.368ZM223.36 705.152C225.835 705.152 227.883 705.451 229.504 706.048C231.168 706.603 232.491 707.413 233.472 708.48C234.453 709.504 235.157 710.784 235.584 712.32C236.011 713.813 236.224 715.499 236.224 717.376V735.296C235.072 735.552 233.365 735.851 231.104 736.192C228.843 736.533 226.304 736.704 223.488 736.704C221.568 736.704 219.819 736.533 218.24 736.192C216.704 735.851 215.381 735.296 214.272 734.528C213.163 733.717 212.309 732.693 211.712 731.456C211.115 730.176 210.816 728.619 210.816 726.784C210.816 725.035 211.157 723.563 211.84 722.368C212.523 721.173 213.44 720.213 214.592 719.488C215.744 718.763 217.067 718.251 218.56 717.952C220.053 717.611 221.611 717.44 223.232 717.44C225.28 717.44 227.093 717.611 228.672 717.952V716.992C228.672 715.499 228.203 714.261 227.264 713.28C226.325 712.256 224.704 711.744 222.4 711.744C220.907 711.744 219.456 711.851 218.048 712.064C216.683 712.277 215.573 712.533 214.72 712.832L213.632 706.496C214.613 706.155 216 705.856 217.792 705.6C219.584 705.301 221.44 705.152 223.36 705.152ZM242.816 720.96C242.816 718.784 243.157 716.736 243.84 714.816C244.523 712.896 245.568 711.232 246.976 709.824C248.384 708.373 250.155 707.243 252.288 706.432C254.464 705.579 257.045 705.152 260.032 705.152C261.824 705.152 263.445 705.28 264.896 705.536C266.347 705.792 267.819 706.219 269.312 706.816L267.584 713.152C266.731 712.853 265.771 712.597 264.704 712.384C263.68 712.128 262.357 712 260.736 712C258.859 712 257.28 712.235 256 712.704C254.763 713.131 253.76 713.749 252.992 714.56C252.224 715.328 251.669 716.267 251.328 717.376C250.987 718.485 250.816 719.68 250.816 720.96C250.816 723.733 251.584 725.909 253.12 727.488C254.699 729.067 257.365 729.856 261.12 729.856C262.357 729.856 263.637 729.771 264.96 729.6C266.325 729.429 267.563 729.152 268.672 728.768L269.824 735.232C268.715 735.659 267.371 736 265.792 736.256C264.213 736.555 262.357 736.704 260.224 736.704C257.152 736.704 254.507 736.299 252.288 735.488C250.112 734.677 248.32 733.568 246.912 732.16C245.504 730.752 244.459 729.088 243.776 727.168C243.136 725.248 242.816 723.179 242.816 720.96ZM281.152 712.448H274.304V705.92H281.152V698.368L289.024 697.088V705.92H301.632V712.448H289.024V724.608C289.024 725.717 289.131 726.613 289.344 727.296C289.557 727.979 289.856 728.512 290.24 728.896C290.624 729.28 291.093 729.536 291.648 729.664C292.203 729.792 292.821 729.856 293.504 729.856C294.229 729.856 294.891 729.835 295.488 729.792C296.128 729.749 296.725 729.685 297.28 729.6C297.877 729.472 298.475 729.301 299.072 729.088C299.712 728.875 300.395 728.597 301.12 728.256L302.208 735.04C300.757 735.637 299.179 736.064 297.472 736.32C295.808 736.576 294.187 736.704 292.608 736.704C290.773 736.704 289.152 736.555 287.744 736.256C286.336 735.957 285.141 735.381 284.16 734.528C283.179 733.675 282.432 732.48 281.92 730.944C281.408 729.365 281.152 727.317 281.152 724.8V712.448ZM334.208 720.896C334.208 723.285 333.867 725.461 333.184 727.424C332.501 729.344 331.541 731.008 330.304 732.416C329.067 733.824 327.573 734.912 325.824 735.68C324.117 736.448 322.197 736.832 320.064 736.832C317.931 736.832 315.989 736.448 314.24 735.68C312.533 734.912 311.04 733.824 309.76 732.416C308.523 731.008 307.563 729.344 306.88 727.424C306.197 725.461 305.856 723.285 305.856 720.896C305.856 718.549 306.197 716.416 306.88 714.496C307.605 712.533 308.587 710.869 309.824 709.504C311.104 708.096 312.619 707.029 314.368 706.304C316.117 705.536 318.016 705.152 320.064 705.152C322.155 705.152 324.053 705.536 325.76 706.304C327.509 707.029 329.003 708.096 330.24 709.504C331.52 710.869 332.501 712.533 333.184 714.496C333.867 716.416 334.208 718.549 334.208 720.896ZM313.856 720.96C313.856 723.648 314.325 725.824 315.264 727.488C316.245 729.152 317.803 729.984 319.936 729.984C321.984 729.984 323.52 729.152 324.544 727.488C325.611 725.824 326.144 723.648 326.144 720.96C326.144 718.272 325.653 716.117 324.672 714.496C323.733 712.832 322.197 712 320.064 712C318.016 712 316.459 712.832 315.392 714.496C314.368 716.117 313.856 718.272 313.856 720.96ZM363.968 713.92C363.456 713.792 362.837 713.664 362.112 713.536C361.429 713.408 360.725 713.301 360 713.216C359.275 713.088 358.571 713.003 357.888 712.96C357.205 712.917 356.629 712.896 356.16 712.896C355.051 712.896 353.963 712.96 352.896 713.088C351.829 713.173 350.741 713.365 349.632 713.664V736H341.696V707.904C343.787 707.136 345.92 706.517 348.096 706.048C350.315 705.579 352.896 705.344 355.84 705.344C356.267 705.344 356.864 705.365 357.632 705.408C358.443 705.451 359.296 705.536 360.192 705.664C361.088 705.749 361.984 705.877 362.88 706.048C363.819 706.176 364.651 706.368 365.376 706.624L363.968 713.92ZM386.176 697.28C386.176 698.816 385.685 700.032 384.704 700.928C383.723 701.824 382.549 702.272 381.184 702.272C379.819 702.272 378.645 701.824 377.664 700.928C376.725 700.032 376.256 698.816 376.256 697.28C376.256 695.701 376.725 694.464 377.664 693.568C378.645 692.672 379.819 692.224 381.184 692.224C382.549 692.224 383.723 692.672 384.704 693.568C385.685 694.464 386.176 695.701 386.176 697.28ZM397.888 734.72C396.267 735.488 394.731 736 393.28 736.256C391.872 736.555 390.571 736.704 389.376 736.704C387.328 736.704 385.6 736.405 384.192 735.808C382.827 735.211 381.717 734.357 380.864 733.248C380.053 732.096 379.477 730.709 379.136 729.088C378.795 727.467 378.624 725.611 378.624 723.52V712.448H370.304V705.92H386.496V724.544C386.496 726.336 386.816 727.68 387.456 728.576C388.139 729.429 389.248 729.856 390.784 729.856C391.509 729.856 392.384 729.771 393.408 729.6C394.432 729.387 395.584 728.981 396.864 728.384L397.888 734.72ZM416.064 730.368C416.917 730.368 417.749 730.368 418.56 730.368C419.371 730.325 420.075 730.261 420.672 730.176V723.264C420.16 723.179 419.541 723.115 418.816 723.072C418.091 722.987 417.429 722.944 416.832 722.944C416.021 722.944 415.232 723.008 414.464 723.136C413.696 723.221 413.013 723.392 412.416 723.648C411.861 723.904 411.413 724.267 411.072 724.736C410.731 725.205 410.56 725.824 410.56 726.592C410.56 727.957 411.072 728.939 412.096 729.536C413.12 730.091 414.443 730.368 416.064 730.368ZM415.36 705.152C417.835 705.152 419.883 705.451 421.504 706.048C423.168 706.603 424.491 707.413 425.472 708.48C426.453 709.504 427.157 710.784 427.584 712.32C428.011 713.813 428.224 715.499 428.224 717.376V735.296C427.072 735.552 425.365 735.851 423.104 736.192C420.843 736.533 418.304 736.704 415.488 736.704C413.568 736.704 411.819 736.533 410.24 736.192C408.704 735.851 407.381 735.296 406.272 734.528C405.163 733.717 404.309 732.693 403.712 731.456C403.115 730.176 402.816 728.619 402.816 726.784C402.816 725.035 403.157 723.563 403.84 722.368C404.523 721.173 405.44 720.213 406.592 719.488C407.744 718.763 409.067 718.251 410.56 717.952C412.053 717.611 413.611 717.44 415.232 717.44C417.28 717.44 419.093 717.611 420.672 717.952V716.992C420.672 715.499 420.203 714.261 419.264 713.28C418.325 712.256 416.704 711.744 414.4 711.744C412.907 711.744 411.456 711.851 410.048 712.064C408.683 712.277 407.573 712.533 406.72 712.832L405.632 706.496C406.613 706.155 408 705.856 409.792 705.6C411.584 705.301 413.44 705.152 415.36 705.152ZM461.888 734.72C461.76 734.805 461.461 734.955 460.992 735.168C460.565 735.381 459.989 735.616 459.264 735.872C458.539 736.085 457.643 736.277 456.576 736.448C455.552 736.619 454.379 736.704 453.056 736.704C449.429 736.704 446.784 735.637 445.12 733.504C443.456 731.328 442.624 728.171 442.624 724.032V698.496H434.304V691.968H450.496V724.608C450.496 726.656 450.901 728.043 451.712 728.768C452.523 729.493 453.547 729.856 454.784 729.856C456.363 729.856 457.685 729.643 458.752 729.216C459.819 728.789 460.523 728.512 460.864 728.384L461.888 734.72ZM477.312 718.976C477.312 724.224 478.464 728.789 480.768 732.672C483.115 736.512 486.336 739.627 490.432 742.016L486.784 746.88C480.981 743.68 476.736 739.691 474.048 734.912C471.36 730.133 470.016 724.821 470.016 718.976C470.016 713.088 471.403 707.691 474.176 702.784C476.949 697.835 481.237 693.76 487.04 690.56L490.688 695.424C486.592 697.813 483.328 701.013 480.896 705.024C478.507 709.035 477.312 713.685 477.312 718.976ZM500.032 706.88C501.44 706.496 503.168 706.133 505.216 705.792C507.307 705.451 509.568 705.28 512 705.28C514.389 705.28 516.373 705.621 517.952 706.304C519.531 706.944 520.768 707.883 521.664 709.12C522.603 710.315 523.264 711.765 523.648 713.472C524.032 715.136 524.224 716.992 524.224 719.04V736H516.352V720.064C516.352 717.248 516.032 715.221 515.392 713.984C514.752 712.747 513.451 712.128 511.488 712.128C510.891 712.128 510.293 712.149 509.696 712.192C509.141 712.235 508.544 712.299 507.904 712.384V736H500.032V706.88ZM535.232 715.712H552.768V723.456H535.232V715.712ZM573.632 729.472V707.328C572.437 708.181 571.072 708.949 569.536 709.632C568 710.272 566.699 710.784 565.632 711.168L563.072 704.64C564.096 704.256 565.205 703.765 566.4 703.168C567.595 702.571 568.789 701.909 569.984 701.184C571.179 700.459 572.309 699.691 573.376 698.88C574.443 698.069 575.36 697.237 576.128 696.384H581.504V729.472H589.376V736H565.312V729.472H573.632ZM610.816 718.976C610.816 713.685 609.6 709.035 607.168 705.024C604.779 701.013 601.536 697.813 597.44 695.424L601.088 690.56C606.891 693.76 611.179 697.835 613.952 702.784C616.725 707.691 618.112 713.088 618.112 718.976C618.112 724.821 616.768 730.133 614.08 734.912C611.392 739.691 607.147 743.68 601.344 746.88L597.696 742.016C601.792 739.627 604.992 736.512 607.296 732.672C609.643 728.789 610.816 724.224 610.816 718.976Z" fill="white"/>
<path d="M396.536 590C398.075 587.333 401.925 587.333 403.464 590L420.785 620C422.324 622.667 420.4 626 417.321 626H382.679C379.6 626 377.676 622.667 379.215 620L396.536 590Z" fill="#FF7866"/>
<rect x="100" y="289" width="600" height="150" rx="20" fill="#FF9C71"/>
<path d="M216.896 385V361.448H210.304V354.92H216.896V353.192C216.896 350.76 217.237 348.755 217.92 347.176C218.645 345.555 219.605 344.275 220.8 343.336C221.995 342.355 223.36 341.672 224.896 341.288C226.432 340.861 228.011 340.648 229.632 340.648C231.296 340.648 233.003 340.797 234.752 341.096C236.501 341.395 238.08 341.885 239.488 342.568L238.144 348.968C237.163 348.627 235.925 348.285 234.432 347.944C232.981 347.56 231.595 347.368 230.272 347.368C229.547 347.368 228.843 347.432 228.16 347.56C227.52 347.688 226.944 347.965 226.432 348.392C225.963 348.819 225.579 349.437 225.28 350.248C224.981 351.016 224.832 352.04 224.832 353.32V354.92H237.184V361.448H224.832V385H216.896ZM256.064 379.368C256.917 379.368 257.749 379.368 258.56 379.368C259.371 379.325 260.075 379.261 260.672 379.176V372.264C260.16 372.179 259.541 372.115 258.816 372.072C258.091 371.987 257.429 371.944 256.832 371.944C256.021 371.944 255.232 372.008 254.464 372.136C253.696 372.221 253.013 372.392 252.416 372.648C251.861 372.904 251.413 373.267 251.072 373.736C250.731 374.205 250.56 374.824 250.56 375.592C250.56 376.957 251.072 377.939 252.096 378.536C253.12 379.091 254.443 379.368 256.064 379.368ZM255.36 354.152C257.835 354.152 259.883 354.451 261.504 355.048C263.168 355.603 264.491 356.413 265.472 357.48C266.453 358.504 267.157 359.784 267.584 361.32C268.011 362.813 268.224 364.499 268.224 366.376V384.296C267.072 384.552 265.365 384.851 263.104 385.192C260.843 385.533 258.304 385.704 255.488 385.704C253.568 385.704 251.819 385.533 250.24 385.192C248.704 384.851 247.381 384.296 246.272 383.528C245.163 382.717 244.309 381.693 243.712 380.456C243.115 379.176 242.816 377.619 242.816 375.784C242.816 374.035 243.157 372.563 243.84 371.368C244.523 370.173 245.44 369.213 246.592 368.488C247.744 367.763 249.067 367.251 250.56 366.952C252.053 366.611 253.611 366.44 255.232 366.44C257.28 366.44 259.093 366.611 260.672 366.952V365.992C260.672 364.499 260.203 363.261 259.264 362.28C258.325 361.256 256.704 360.744 254.4 360.744C252.907 360.744 251.456 360.851 250.048 361.064C248.683 361.277 247.573 361.533 246.72 361.832L245.632 355.496C246.613 355.155 248 354.856 249.792 354.6C251.584 354.301 253.44 354.152 255.36 354.152ZM274.816 369.96C274.816 367.784 275.157 365.736 275.84 363.816C276.523 361.896 277.568 360.232 278.976 358.824C280.384 357.373 282.155 356.243 284.288 355.432C286.464 354.579 289.045 354.152 292.032 354.152C293.824 354.152 295.445 354.28 296.896 354.536C298.347 354.792 299.819 355.219 301.312 355.816L299.584 362.152C298.731 361.853 297.771 361.597 296.704 361.384C295.68 361.128 294.357 361 292.736 361C290.859 361 289.28 361.235 288 361.704C286.763 362.131 285.76 362.749 284.992 363.56C284.224 364.328 283.669 365.267 283.328 366.376C282.987 367.485 282.816 368.68 282.816 369.96C282.816 372.733 283.584 374.909 285.12 376.488C286.699 378.067 289.365 378.856 293.12 378.856C294.357 378.856 295.637 378.771 296.96 378.6C298.325 378.429 299.563 378.152 300.672 377.768L301.824 384.232C300.715 384.659 299.371 385 297.792 385.256C296.213 385.555 294.357 385.704 292.224 385.704C289.152 385.704 286.507 385.299 284.288 384.488C282.112 383.677 280.32 382.568 278.912 381.16C277.504 379.752 276.459 378.088 275.776 376.168C275.136 374.248 274.816 372.179 274.816 369.96ZM313.152 361.448H306.304V354.92H313.152V347.368L321.024 346.088V354.92H333.632V361.448H321.024V373.608C321.024 374.717 321.131 375.613 321.344 376.296C321.557 376.979 321.856 377.512 322.24 377.896C322.624 378.28 323.093 378.536 323.648 378.664C324.203 378.792 324.821 378.856 325.504 378.856C326.229 378.856 326.891 378.835 327.488 378.792C328.128 378.749 328.725 378.685 329.28 378.6C329.877 378.472 330.475 378.301 331.072 378.088C331.712 377.875 332.395 377.597 333.12 377.256L334.208 384.04C332.757 384.637 331.179 385.064 329.472 385.32C327.808 385.576 326.187 385.704 324.608 385.704C322.773 385.704 321.152 385.555 319.744 385.256C318.336 384.957 317.141 384.381 316.16 383.528C315.179 382.675 314.432 381.48 313.92 379.944C313.408 378.365 313.152 376.317 313.152 373.8V361.448ZM366.208 369.896C366.208 372.285 365.867 374.461 365.184 376.424C364.501 378.344 363.541 380.008 362.304 381.416C361.067 382.824 359.573 383.912 357.824 384.68C356.117 385.448 354.197 385.832 352.064 385.832C349.931 385.832 347.989 385.448 346.24 384.68C344.533 383.912 343.04 382.824 341.76 381.416C340.523 380.008 339.563 378.344 338.88 376.424C338.197 374.461 337.856 372.285 337.856 369.896C337.856 367.549 338.197 365.416 338.88 363.496C339.605 361.533 340.587 359.869 341.824 358.504C343.104 357.096 344.619 356.029 346.368 355.304C348.117 354.536 350.016 354.152 352.064 354.152C354.155 354.152 356.053 354.536 357.76 355.304C359.509 356.029 361.003 357.096 362.24 358.504C363.52 359.869 364.501 361.533 365.184 363.496C365.867 365.416 366.208 367.549 366.208 369.896ZM345.856 369.96C345.856 372.648 346.325 374.824 347.264 376.488C348.245 378.152 349.803 378.984 351.936 378.984C353.984 378.984 355.52 378.152 356.544 376.488C357.611 374.824 358.144 372.648 358.144 369.96C358.144 367.272 357.653 365.117 356.672 363.496C355.733 361.832 354.197 361 352.064 361C350.016 361 348.459 361.832 347.392 363.496C346.368 365.117 345.856 367.272 345.856 369.96ZM395.968 362.92C395.456 362.792 394.837 362.664 394.112 362.536C393.429 362.408 392.725 362.301 392 362.216C391.275 362.088 390.571 362.003 389.888 361.96C389.205 361.917 388.629 361.896 388.16 361.896C387.051 361.896 385.963 361.96 384.896 362.088C383.829 362.173 382.741 362.365 381.632 362.664V385H373.696V356.904C375.787 356.136 377.92 355.517 380.096 355.048C382.315 354.579 384.896 354.344 387.84 354.344C388.267 354.344 388.864 354.365 389.632 354.408C390.443 354.451 391.296 354.536 392.192 354.664C393.088 354.749 393.984 354.877 394.88 355.048C395.819 355.176 396.651 355.368 397.376 355.624L395.968 362.92ZM418.176 346.28C418.176 347.816 417.685 349.032 416.704 349.928C415.723 350.824 414.549 351.272 413.184 351.272C411.819 351.272 410.645 350.824 409.664 349.928C408.725 349.032 408.256 347.816 408.256 346.28C408.256 344.701 408.725 343.464 409.664 342.568C410.645 341.672 411.819 341.224 413.184 341.224C414.549 341.224 415.723 341.672 416.704 342.568C417.685 343.464 418.176 344.701 418.176 346.28ZM429.888 383.72C428.267 384.488 426.731 385 425.28 385.256C423.872 385.555 422.571 385.704 421.376 385.704C419.328 385.704 417.6 385.405 416.192 384.808C414.827 384.211 413.717 383.357 412.864 382.248C412.053 381.096 411.477 379.709 411.136 378.088C410.795 376.467 410.624 374.611 410.624 372.52V361.448H402.304V354.92H418.496V373.544C418.496 375.336 418.816 376.68 419.456 377.576C420.139 378.429 421.248 378.856 422.784 378.856C423.509 378.856 424.384 378.771 425.408 378.6C426.432 378.387 427.584 377.981 428.864 377.384L429.888 383.72ZM448.064 379.368C448.917 379.368 449.749 379.368 450.56 379.368C451.371 379.325 452.075 379.261 452.672 379.176V372.264C452.16 372.179 451.541 372.115 450.816 372.072C450.091 371.987 449.429 371.944 448.832 371.944C448.021 371.944 447.232 372.008 446.464 372.136C445.696 372.221 445.013 372.392 444.416 372.648C443.861 372.904 443.413 373.267 443.072 373.736C442.731 374.205 442.56 374.824 442.56 375.592C442.56 376.957 443.072 377.939 444.096 378.536C445.12 379.091 446.443 379.368 448.064 379.368ZM447.36 354.152C449.835 354.152 451.883 354.451 453.504 355.048C455.168 355.603 456.491 356.413 457.472 357.48C458.453 358.504 459.157 359.784 459.584 361.32C460.011 362.813 460.224 364.499 460.224 366.376V384.296C459.072 384.552 457.365 384.851 455.104 385.192C452.843 385.533 450.304 385.704 447.488 385.704C445.568 385.704 443.819 385.533 442.24 385.192C440.704 384.851 439.381 384.296 438.272 383.528C437.163 382.717 436.309 381.693 435.712 380.456C435.115 379.176 434.816 377.619 434.816 375.784C434.816 374.035 435.157 372.563 435.84 371.368C436.523 370.173 437.44 369.213 438.592 368.488C439.744 367.763 441.067 367.251 442.56 366.952C444.053 366.611 445.611 366.44 447.232 366.44C449.28 366.44 451.093 366.611 452.672 366.952V365.992C452.672 364.499 452.203 363.261 451.264 362.28C450.325 361.256 448.704 360.744 446.4 360.744C444.907 360.744 443.456 360.851 442.048 361.064C440.683 361.277 439.573 361.533 438.72 361.832L437.632 355.496C438.613 355.155 440 354.856 441.792 354.6C443.584 354.301 445.44 354.152 447.36 354.152ZM493.888 383.72C493.76 383.805 493.461 383.955 492.992 384.168C492.565 384.381 491.989 384.616 491.264 384.872C490.539 385.085 489.643 385.277 488.576 385.448C487.552 385.619 486.379 385.704 485.056 385.704C481.429 385.704 478.784 384.637 477.12 382.504C475.456 380.328 474.624 377.171 474.624 373.032V347.496H466.304V340.968H482.496V373.608C482.496 375.656 482.901 377.043 483.712 377.768C484.523 378.493 485.547 378.856 486.784 378.856C488.363 378.856 489.685 378.643 490.752 378.216C491.819 377.789 492.523 377.512 492.864 377.384L493.888 383.72ZM509.312 367.976C509.312 373.224 510.464 377.789 512.768 381.672C515.115 385.512 518.336 388.627 522.432 391.016L518.784 395.88C512.981 392.68 508.736 388.691 506.048 383.912C503.36 379.133 502.016 373.821 502.016 367.976C502.016 362.088 503.403 356.691 506.176 351.784C508.949 346.835 513.237 342.76 519.04 339.56L522.688 344.424C518.592 346.813 515.328 350.013 512.896 354.024C510.507 358.035 509.312 362.685 509.312 367.976ZM555.776 355.816C555.776 357.181 555.52 358.504 555.008 359.784C554.496 361.021 553.813 362.237 552.96 363.432C552.107 364.627 551.147 365.779 550.08 366.888C549.013 367.997 547.925 369.064 546.816 370.088C546.261 370.6 545.621 371.219 544.896 371.944C544.171 372.627 543.488 373.352 542.848 374.12C542.208 374.845 541.653 375.592 541.184 376.36C540.757 377.128 540.544 377.832 540.544 378.472H557.568V385H531.712C531.584 384.573 531.52 384.04 531.52 383.4C531.563 382.76 531.584 382.312 531.584 382.056C531.584 379.923 531.968 377.96 532.736 376.168C533.547 374.376 534.549 372.733 535.744 371.24C536.981 369.704 538.283 368.296 539.648 367.016C541.056 365.693 542.357 364.435 543.552 363.24C544.789 362.045 545.792 360.893 546.56 359.784C547.371 358.675 547.776 357.544 547.776 356.392C547.776 354.771 547.285 353.533 546.304 352.68C545.323 351.784 544.085 351.336 542.592 351.336C541.355 351.336 540.053 351.635 538.688 352.232C537.323 352.829 535.979 353.832 534.656 355.24L530.752 349.736C532.459 347.944 534.421 346.621 536.64 345.768C538.901 344.915 541.141 344.488 543.36 344.488C544.981 344.488 546.539 344.723 548.032 345.192C549.525 345.661 550.848 346.365 552 347.304C553.152 348.243 554.069 349.437 554.752 350.888C555.435 352.296 555.776 353.939 555.776 355.816ZM578.816 367.976C578.816 362.685 577.6 358.035 575.168 354.024C572.779 350.013 569.536 346.813 565.44 344.424L569.088 339.56C574.891 342.76 579.179 346.835 581.952 351.784C584.725 356.691 586.112 362.088 586.112 367.976C586.112 373.821 584.768 379.133 582.08 383.912C579.392 388.691 575.147 392.68 569.344 395.88L565.696 391.016C569.792 388.627 572.992 385.512 575.296 381.672C577.643 377.789 578.816 373.224 578.816 367.976Z" fill="white"/>
<path d="M396.536 239C398.075 236.333 401.925 236.333 403.464 239L420.785 269C422.324 271.667 420.4 275 417.321 275H382.679C379.6 275 377.676 271.667 379.215 269L396.536 239Z" fill="#FF9C71"/>
<rect x="100" y="71" width="600" height="150" rx="20" fill="#FFB171"/>
<path d="M216.896 167V143.448H210.304V136.92H216.896V135.192C216.896 132.76 217.237 130.755 217.92 129.176C218.645 127.555 219.605 126.275 220.8 125.336C221.995 124.355 223.36 123.672 224.896 123.288C226.432 122.861 228.011 122.648 229.632 122.648C231.296 122.648 233.003 122.797 234.752 123.096C236.501 123.395 238.08 123.885 239.488 124.568L238.144 130.968C237.163 130.627 235.925 130.285 234.432 129.944C232.981 129.56 231.595 129.368 230.272 129.368C229.547 129.368 228.843 129.432 228.16 129.56C227.52 129.688 226.944 129.965 226.432 130.392C225.963 130.819 225.579 131.437 225.28 132.248C224.981 133.016 224.832 134.04 224.832 135.32V136.92H237.184V143.448H224.832V167H216.896ZM256.064 161.368C256.917 161.368 257.749 161.368 258.56 161.368C259.371 161.325 260.075 161.261 260.672 161.176V154.264C260.16 154.179 259.541 154.115 258.816 154.072C258.091 153.987 257.429 153.944 256.832 153.944C256.021 153.944 255.232 154.008 254.464 154.136C253.696 154.221 253.013 154.392 252.416 154.648C251.861 154.904 251.413 155.267 251.072 155.736C250.731 156.205 250.56 156.824 250.56 157.592C250.56 158.957 251.072 159.939 252.096 160.536C253.12 161.091 254.443 161.368 256.064 161.368ZM255.36 136.152C257.835 136.152 259.883 136.451 261.504 137.048C263.168 137.603 264.491 138.413 265.472 139.48C266.453 140.504 267.157 141.784 267.584 143.32C268.011 144.813 268.224 146.499 268.224 148.376V166.296C267.072 166.552 265.365 166.851 263.104 167.192C260.843 167.533 258.304 167.704 255.488 167.704C253.568 167.704 251.819 167.533 250.24 167.192C248.704 166.851 247.381 166.296 246.272 165.528C245.163 164.717 244.309 163.693 243.712 162.456C243.115 161.176 242.816 159.619 242.816 157.784C242.816 156.035 243.157 154.563 243.84 153.368C244.523 152.173 245.44 151.213 246.592 150.488C247.744 149.763 249.067 149.251 250.56 148.952C252.053 148.611 253.611 148.44 255.232 148.44C257.28 148.44 259.093 148.611 260.672 148.952V147.992C260.672 146.499 260.203 145.261 259.264 144.28C258.325 143.256 256.704 142.744 254.4 142.744C252.907 142.744 251.456 142.851 250.048 143.064C248.683 143.277 247.573 143.533 246.72 143.832L245.632 137.496C246.613 137.155 248 136.856 249.792 136.6C251.584 136.301 253.44 136.152 255.36 136.152ZM274.816 151.96C274.816 149.784 275.157 147.736 275.84 145.816C276.523 143.896 277.568 142.232 278.976 140.824C280.384 139.373 282.155 138.243 284.288 137.432C286.464 136.579 289.045 136.152 292.032 136.152C293.824 136.152 295.445 136.28 296.896 136.536C298.347 136.792 299.819 137.219 301.312 137.816L299.584 144.152C298.731 143.853 297.771 143.597 296.704 143.384C295.68 143.128 294.357 143 292.736 143C290.859 143 289.28 143.235 288 143.704C286.763 144.131 285.76 144.749 284.992 145.56C284.224 146.328 283.669 147.267 283.328 148.376C282.987 149.485 282.816 150.68 282.816 151.96C282.816 154.733 283.584 156.909 285.12 158.488C286.699 160.067 289.365 160.856 293.12 160.856C294.357 160.856 295.637 160.771 296.96 160.6C298.325 160.429 299.563 160.152 300.672 159.768L301.824 166.232C300.715 166.659 299.371 167 297.792 167.256C296.213 167.555 294.357 167.704 292.224 167.704C289.152 167.704 286.507 167.299 284.288 166.488C282.112 165.677 280.32 164.568 278.912 163.16C277.504 161.752 276.459 160.088 275.776 158.168C275.136 156.248 274.816 154.179 274.816 151.96ZM313.152 143.448H306.304V136.92H313.152V129.368L321.024 128.088V136.92H333.632V143.448H321.024V155.608C321.024 156.717 321.131 157.613 321.344 158.296C321.557 158.979 321.856 159.512 322.24 159.896C322.624 160.28 323.093 160.536 323.648 160.664C324.203 160.792 324.821 160.856 325.504 160.856C326.229 160.856 326.891 160.835 327.488 160.792C328.128 160.749 328.725 160.685 329.28 160.6C329.877 160.472 330.475 160.301 331.072 160.088C331.712 159.875 332.395 159.597 333.12 159.256L334.208 166.04C332.757 166.637 331.179 167.064 329.472 167.32C327.808 167.576 326.187 167.704 324.608 167.704C322.773 167.704 321.152 167.555 319.744 167.256C318.336 166.957 317.141 166.381 316.16 165.528C315.179 164.675 314.432 163.48 313.92 161.944C313.408 160.365 313.152 158.317 313.152 155.8V143.448ZM366.208 151.896C366.208 154.285 365.867 156.461 365.184 158.424C364.501 160.344 363.541 162.008 362.304 163.416C361.067 164.824 359.573 165.912 357.824 166.68C356.117 167.448 354.197 167.832 352.064 167.832C349.931 167.832 347.989 167.448 346.24 166.68C344.533 165.912 343.04 164.824 341.76 163.416C340.523 162.008 339.563 160.344 338.88 158.424C338.197 156.461 337.856 154.285 337.856 151.896C337.856 149.549 338.197 147.416 338.88 145.496C339.605 143.533 340.587 141.869 341.824 140.504C343.104 139.096 344.619 138.029 346.368 137.304C348.117 136.536 350.016 136.152 352.064 136.152C354.155 136.152 356.053 136.536 357.76 137.304C359.509 138.029 361.003 139.096 362.24 140.504C363.52 141.869 364.501 143.533 365.184 145.496C365.867 147.416 366.208 149.549 366.208 151.896ZM345.856 151.96C345.856 154.648 346.325 156.824 347.264 158.488C348.245 160.152 349.803 160.984 351.936 160.984C353.984 160.984 355.52 160.152 356.544 158.488C357.611 156.824 358.144 154.648 358.144 151.96C358.144 149.272 357.653 147.117 356.672 145.496C355.733 143.832 354.197 143 352.064 143C350.016 143 348.459 143.832 347.392 145.496C346.368 147.117 345.856 149.272 345.856 151.96ZM395.968 144.92C395.456 144.792 394.837 144.664 394.112 144.536C393.429 144.408 392.725 144.301 392 144.216C391.275 144.088 390.571 144.003 389.888 143.96C389.205 143.917 388.629 143.896 388.16 143.896C387.051 143.896 385.963 143.96 384.896 144.088C383.829 144.173 382.741 144.365 381.632 144.664V167H373.696V138.904C375.787 138.136 377.92 137.517 380.096 137.048C382.315 136.579 384.896 136.344 387.84 136.344C388.267 136.344 388.864 136.365 389.632 136.408C390.443 136.451 391.296 136.536 392.192 136.664C393.088 136.749 393.984 136.877 394.88 137.048C395.819 137.176 396.651 137.368 397.376 137.624L395.968 144.92ZM418.176 128.28C418.176 129.816 417.685 131.032 416.704 131.928C415.723 132.824 414.549 133.272 413.184 133.272C411.819 133.272 410.645 132.824 409.664 131.928C408.725 131.032 408.256 129.816 408.256 128.28C408.256 126.701 408.725 125.464 409.664 124.568C410.645 123.672 411.819 123.224 413.184 123.224C414.549 123.224 415.723 123.672 416.704 124.568C417.685 125.464 418.176 126.701 418.176 128.28ZM429.888 165.72C428.267 166.488 426.731 167 425.28 167.256C423.872 167.555 422.571 167.704 421.376 167.704C419.328 167.704 417.6 167.405 416.192 166.808C414.827 166.211 413.717 165.357 412.864 164.248C412.053 163.096 411.477 161.709 411.136 160.088C410.795 158.467 410.624 156.611 410.624 154.52V143.448H402.304V136.92H418.496V155.544C418.496 157.336 418.816 158.68 419.456 159.576C420.139 160.429 421.248 160.856 422.784 160.856C423.509 160.856 424.384 160.771 425.408 160.6C426.432 160.387 427.584 159.981 428.864 159.384L429.888 165.72ZM448.064 161.368C448.917 161.368 449.749 161.368 450.56 161.368C451.371 161.325 452.075 161.261 452.672 161.176V154.264C452.16 154.179 451.541 154.115 450.816 154.072C450.091 153.987 449.429 153.944 448.832 153.944C448.021 153.944 447.232 154.008 446.464 154.136C445.696 154.221 445.013 154.392 444.416 154.648C443.861 154.904 443.413 155.267 443.072 155.736C442.731 156.205 442.56 156.824 442.56 157.592C442.56 158.957 443.072 159.939 444.096 160.536C445.12 161.091 446.443 161.368 448.064 161.368ZM447.36 136.152C449.835 136.152 451.883 136.451 453.504 137.048C455.168 137.603 456.491 138.413 457.472 139.48C458.453 140.504 459.157 141.784 459.584 143.32C460.011 144.813 460.224 146.499 460.224 148.376V166.296C459.072 166.552 457.365 166.851 455.104 167.192C452.843 167.533 450.304 167.704 447.488 167.704C445.568 167.704 443.819 167.533 442.24 167.192C440.704 166.851 439.381 166.296 438.272 165.528C437.163 164.717 436.309 163.693 435.712 162.456C435.115 161.176 434.816 159.619 434.816 157.784C434.816 156.035 435.157 154.563 435.84 153.368C436.523 152.173 437.44 151.213 438.592 150.488C439.744 149.763 441.067 149.251 442.56 148.952C444.053 148.611 445.611 148.44 447.232 148.44C449.28 148.44 451.093 148.611 452.672 148.952V147.992C452.672 146.499 452.203 145.261 451.264 144.28C450.325 143.256 448.704 142.744 446.4 142.744C444.907 142.744 443.456 142.851 442.048 143.064C440.683 143.277 439.573 143.533 438.72 143.832L437.632 137.496C438.613 137.155 440 136.856 441.792 136.6C443.584 136.301 445.44 136.152 447.36 136.152ZM493.888 165.72C493.76 165.805 493.461 165.955 492.992 166.168C492.565 166.381 491.989 166.616 491.264 166.872C490.539 167.085 489.643 167.277 488.576 167.448C487.552 167.619 486.379 167.704 485.056 167.704C481.429 167.704 478.784 166.637 477.12 164.504C475.456 162.328 474.624 159.171 474.624 155.032V129.496H466.304V122.968H482.496V155.608C482.496 157.656 482.901 159.043 483.712 159.768C484.523 160.493 485.547 160.856 486.784 160.856C488.363 160.856 489.685 160.643 490.752 160.216C491.819 159.789 492.523 159.512 492.864 159.384L493.888 165.72ZM509.312 149.976C509.312 155.224 510.464 159.789 512.768 163.672C515.115 167.512 518.336 170.627 522.432 173.016L518.784 177.88C512.981 174.68 508.736 170.691 506.048 165.912C503.36 161.133 502.016 155.821 502.016 149.976C502.016 144.088 503.403 138.691 506.176 133.784C508.949 128.835 513.237 124.76 519.04 121.56L522.688 126.424C518.592 128.813 515.328 132.013 512.896 136.024C510.507 140.035 509.312 144.685 509.312 149.976ZM541.632 160.472V138.328C540.437 139.181 539.072 139.949 537.536 140.632C536 141.272 534.699 141.784 533.632 142.168L531.072 135.64C532.096 135.256 533.205 134.765 534.4 134.168C535.595 133.571 536.789 132.909 537.984 132.184C539.179 131.459 540.309 130.691 541.376 129.88C542.443 129.069 543.36 128.237 544.128 127.384H549.504V160.472H557.376V167H533.312V160.472H541.632ZM578.816 149.976C578.816 144.685 577.6 140.035 575.168 136.024C572.779 132.013 569.536 128.813 565.44 126.424L569.088 121.56C574.891 124.76 579.179 128.835 581.952 133.784C584.725 138.691 586.112 144.088 586.112 149.976C586.112 155.821 584.768 161.133 582.08 165.912C579.392 170.691 575.147 174.68 569.344 177.88L565.696 173.016C569.792 170.627 572.992 167.512 575.296 163.672C577.643 159.789 578.816 155.224 578.816 149.976Z" fill="white"/>
<path d="M373.76 509.944C373.76 511.821 373.184 513.251 372.032 514.232C370.88 515.213 369.557 515.704 368.064 515.704C367.296 515.704 366.571 515.576 365.888 515.32C365.205 515.064 364.587 514.701 364.032 514.232C363.52 513.72 363.093 513.123 362.752 512.44C362.453 511.715 362.304 510.883 362.304 509.944C362.304 509.048 362.453 508.259 362.752 507.576C363.093 506.851 363.52 506.253 364.032 505.784C364.587 505.315 365.205 504.952 365.888 504.696C366.571 504.44 367.296 504.312 368.064 504.312C369.557 504.312 370.88 504.803 372.032 505.784C373.184 506.765 373.76 508.152 373.76 509.944ZM405.76 509.944C405.76 511.821 405.184 513.251 404.032 514.232C402.88 515.213 401.557 515.704 400.064 515.704C399.296 515.704 398.571 515.576 397.888 515.32C397.205 515.064 396.587 514.701 396.032 514.232C395.52 513.72 395.093 513.123 394.752 512.44C394.453 511.715 394.304 510.883 394.304 509.944C394.304 509.048 394.453 508.259 394.752 507.576C395.093 506.851 395.52 506.253 396.032 505.784C396.587 505.315 397.205 504.952 397.888 504.696C398.571 504.44 399.296 504.312 400.064 504.312C401.557 504.312 402.88 504.803 404.032 505.784C405.184 506.765 405.76 508.152 405.76 509.944ZM437.76 509.944C437.76 511.821 437.184 513.251 436.032 514.232C434.88 515.213 433.557 515.704 432.064 515.704C431.296 515.704 430.571 515.576 429.888 515.32C429.205 515.064 428.587 514.701 428.032 514.232C427.52 513.72 427.093 513.123 426.752 512.44C426.453 511.715 426.304 510.883 426.304 509.944C426.304 509.048 426.453 508.259 426.752 507.576C427.093 506.851 427.52 506.253 428.032 505.784C428.587 505.315 429.205 504.952 429.888 504.696C430.571 504.44 431.296 504.312 432.064 504.312C433.557 504.312 434.88 504.803 436.032 505.784C437.184 506.765 437.76 508.152 437.76 509.944Z" fill="#FF8B71"/>
</svg>
