<svg width="1842" height="1655" viewBox="0 0 1842 1655" fill="none" xmlns="http://www.w3.org/2000/svg">
<rect x="721" y="446" width="200" height="200" rx="20" fill="#FF8266"/>
<rect x="958" y="446" width="200" height="200" rx="20" fill="#FF8B66"/>
<rect x="1195" y="446" width="200" height="200" rx="20" fill="#FF9D66"/>
<rect x="484" y="446" width="200" height="200" rx="20" fill="#FF7866"/>
<rect x="247" y="446" width="200" height="200" rx="20" fill="#FF6F66"/>
<path d="M349.2 546.2C351.733 546.2 354.4 545.933 357.2 545.4C360 544.867 362.267 544.133 364 543.2C364.133 542.133 364.2 540.867 364.2 539.4C364.333 537.8 364.4 536.267 364.4 534.8C364.4 531.467 364.067 528.133 363.4 524.8C362.867 521.333 361.867 518.2 360.4 515.4C359.067 512.6 357.2 510.333 354.8 508.6C352.533 506.867 349.667 506 346.2 506C343.267 506 340.733 506.6 338.6 507.8C336.6 508.867 334.933 510.333 333.6 512.2C332.4 514.067 331.467 516.267 330.8 518.8C330.267 521.333 330 524 330 526.8C330 533.067 331.467 537.867 334.4 541.2C337.333 544.533 342.267 546.2 349.2 546.2ZM346 566.6C338.8 566.6 332.667 565.6 327.6 563.6C322.533 561.467 318.4 558.6 315.2 555C312 551.4 309.667 547.267 308.2 542.6C306.733 537.8 306 532.667 306 527.2C306 522.4 306.8 517.533 308.4 512.6C310.133 507.533 312.6 503 315.8 499C319.133 494.867 323.267 491.533 328.2 489C333.133 486.333 338.933 485 345.6 485C359.467 485 370.067 489.667 377.4 499C384.733 508.333 388.4 521.333 388.4 538C388.4 550 386.667 560.667 383.2 570C379.733 579.2 374.733 586.933 368.2 593.2C361.8 599.467 354 604.267 344.8 607.6C335.733 610.8 325.6 612.4 314.4 612.4L313.6 591.2C324.267 591.067 333.8 588.8 342.2 584.4C350.6 579.867 356.533 572.8 360 563.2C354.8 565.467 350.133 566.6 346 566.6Z" fill="white"/>
<path d="M576.6 591.6V522.4C572.867 525.067 568.6 527.467 563.8 529.6C559 531.6 554.933 533.2 551.6 534.4L543.6 514C546.8 512.8 550.267 511.267 554 509.4C557.733 507.533 561.467 505.467 565.2 503.2C568.933 500.933 572.467 498.533 575.8 496C579.133 493.467 582 490.867 584.4 488.2H601.2V591.6H625.8V612H550.6V591.6H576.6Z" fill="white"/>
<path d="M857.8 520.8C857.8 525.067 857 529.2 855.4 533.2C853.8 537.067 851.667 540.867 849 544.6C846.333 548.333 843.333 551.933 840 555.4C836.667 558.867 833.267 562.2 829.8 565.4C828.067 567 826.067 568.933 823.8 571.2C821.533 573.333 819.4 575.6 817.4 578C815.4 580.267 813.667 582.6 812.2 585C810.867 587.4 810.2 589.6 810.2 591.6H863.4V612H782.6C782.2 610.667 782 609 782 607C782.133 605 782.2 603.6 782.2 602.8C782.2 596.133 783.4 590 785.8 584.4C788.333 578.8 791.467 573.667 795.2 569C799.067 564.2 803.133 559.8 807.4 555.8C811.8 551.667 815.867 547.733 819.6 544C823.467 540.267 826.6 536.667 829 533.2C831.533 529.733 832.8 526.2 832.8 522.6C832.8 517.533 831.267 513.667 828.2 511C825.133 508.2 821.267 506.8 816.6 506.8C812.733 506.8 808.667 507.733 804.4 509.6C800.133 511.467 795.933 514.6 791.8 519L779.6 501.8C784.933 496.2 791.067 492.067 798 489.4C805.067 486.733 812.067 485.4 819 485.4C824.067 485.4 828.933 486.133 833.6 487.6C838.267 489.067 842.4 491.267 846 494.2C849.6 497.133 852.467 500.867 854.6 505.4C856.733 509.8 857.8 514.933 857.8 520.8Z" fill="white"/>
<path d="M1072.2 575.6C1072.2 572.133 1071.6 569 1070.4 566.2C1069.33 563.267 1067.07 560.8 1063.6 558.8C1060.27 556.667 1055.47 555.067 1049.2 554C1042.93 552.8 1034.73 552.2 1024.6 552.2C1025.93 541 1027 530.067 1027.8 519.4C1028.6 508.6 1029.2 498.2 1029.6 488.2H1092.8V508.6H1050.2C1049.93 512.867 1049.6 517.333 1049.2 522C1048.8 526.667 1048.47 530.467 1048.2 533.4C1064.73 534.467 1077.07 538.467 1085.2 545.4C1093.33 552.333 1097.4 562.067 1097.4 574.6C1097.4 580.333 1096.4 585.667 1094.4 590.6C1092.4 595.4 1089.33 599.6 1085.2 603.2C1081.07 606.8 1075.93 609.6 1069.8 611.6C1063.67 613.6 1056.53 614.6 1048.4 614.6C1045.2 614.6 1041.93 614.4 1038.6 614C1035.27 613.6 1032.07 613.067 1029 612.4C1025.93 611.867 1023.13 611.2 1020.6 610.4C1018.2 609.6 1016.33 608.867 1015 608.2L1020 587.8C1022.93 589.267 1026.67 590.6 1031.2 591.8C1035.73 593 1041.4 593.6 1048.2 593.6C1053 593.6 1056.93 593.067 1060 592C1063.2 590.933 1065.67 589.6 1067.4 588C1069.27 586.267 1070.53 584.333 1071.2 582.2C1071.87 580.067 1072.2 577.867 1072.2 575.6Z" fill="white"/>
<path d="M1302 519C1299.6 522.067 1297.13 525.333 1294.6 528.8C1292.07 532.267 1289.53 535.933 1287 539.8C1284.6 543.533 1282.27 547.333 1280 551.2C1277.73 555.067 1275.73 558.867 1274 562.6H1302V519ZM1326.6 488.2V562.6H1340V582.8H1326.6V612H1302V582.8H1250.4V564.8C1252.93 559.6 1256.2 553.733 1260.2 547.2C1264.2 540.533 1268.6 533.733 1273.4 526.8C1278.2 519.867 1283.27 513.067 1288.6 506.4C1293.93 499.6 1299.27 493.533 1304.6 488.2H1326.6Z" fill="white"/>
<path d="M1273.6 744.6C1274.73 741.933 1276.27 738.867 1278.2 735.4C1280.2 731.933 1282.43 728.367 1284.9 724.7C1287.37 720.967 1290 717.333 1292.8 713.8C1295.6 710.2 1298.43 706.967 1301.3 704.1H1309.3V743.4H1316.6V750.2H1309.3V766H1301.3V750.2H1273.6V744.6ZM1301.3 713.9C1299.5 715.833 1297.67 717.967 1295.8 720.3C1294 722.633 1292.23 725.1 1290.5 727.7C1288.77 730.233 1287.13 732.833 1285.6 735.5C1284.13 738.167 1282.8 740.8 1281.6 743.4H1301.3V713.9Z" fill="#404040"/>
<path d="M1054.2 760C1059.47 760 1063.2 758.967 1065.4 756.9C1067.67 754.767 1068.8 751.933 1068.8 748.4C1068.8 746.133 1068.33 744.233 1067.4 742.7C1066.47 741.167 1065.23 739.933 1063.7 739C1062.17 738.067 1060.4 737.4 1058.4 737C1056.4 736.6 1054.3 736.4 1052.1 736.4H1050V729.7H1052.9C1054.37 729.7 1055.87 729.567 1057.4 729.3C1059 728.967 1060.43 728.433 1061.7 727.7C1063.03 726.9 1064.1 725.833 1064.9 724.5C1065.7 723.167 1066.1 721.467 1066.1 719.4C1066.1 716 1065.03 713.6 1062.9 712.2C1060.83 710.733 1058.4 710 1055.6 710C1052.73 710 1050.3 710.433 1048.3 711.3C1046.3 712.1 1044.63 712.933 1043.3 713.8L1040.1 707.5C1041.5 706.5 1043.6 705.467 1046.4 704.4C1049.27 703.267 1052.43 702.7 1055.9 702.7C1059.17 702.7 1061.97 703.1 1064.3 703.9C1066.63 704.7 1068.53 705.833 1070 707.3C1071.53 708.767 1072.67 710.5 1073.4 712.5C1074.13 714.433 1074.5 716.567 1074.5 718.9C1074.5 722.167 1073.63 724.933 1071.9 727.2C1070.23 729.467 1068.07 731.2 1065.4 732.4C1068.6 733.333 1071.37 735.167 1073.7 737.9C1076.03 740.567 1077.2 744.133 1077.2 748.6C1077.2 751.267 1076.73 753.767 1075.8 756.1C1074.93 758.367 1073.57 760.333 1071.7 762C1069.9 763.667 1067.53 764.967 1064.6 765.9C1061.73 766.833 1058.3 767.3 1054.3 767.3C1052.77 767.3 1051.17 767.167 1049.5 766.9C1047.9 766.7 1046.4 766.4 1045 766C1043.6 765.667 1042.33 765.333 1041.2 765C1040.13 764.6 1039.37 764.3 1038.9 764.1L1040.5 757C1041.57 757.533 1043.27 758.167 1045.6 758.9C1047.93 759.633 1050.8 760 1054.2 760Z" fill="#404040"/>
<path d="M352.8 733.9C352.8 735.633 352.267 737.133 351.2 738.4C350.2 739.667 348.867 740.3 347.2 740.3C345.467 740.3 344.067 739.667 343 738.4C341.933 737.133 341.4 735.633 341.4 733.9C341.4 732.167 341.933 730.633 343 729.3C344.067 727.967 345.467 727.3 347.2 727.3C348.867 727.3 350.2 727.967 351.2 729.3C352.267 730.633 352.8 732.167 352.8 733.9ZM326.6 735C326.6 724.6 328.367 716.633 331.9 711.1C335.5 705.5 340.533 702.7 347 702.7C353.533 702.7 358.567 705.5 362.1 711.1C365.633 716.633 367.4 724.6 367.4 735C367.4 745.4 365.633 753.4 362.1 759C358.567 764.533 353.533 767.3 347 767.3C340.533 767.3 335.5 764.533 331.9 759C328.367 753.4 326.6 745.4 326.6 735ZM359 735C359 731.6 358.8 728.4 358.4 725.4C358 722.333 357.333 719.667 356.4 717.4C355.467 715.133 354.233 713.333 352.7 712C351.167 710.667 349.267 710 347 710C344.733 710 342.833 710.667 341.3 712C339.767 713.333 338.533 715.133 337.6 717.4C336.667 719.667 336 722.333 335.6 725.4C335.2 728.4 335 731.6 335 735C335 738.4 335.2 741.633 335.6 744.7C336 747.7 336.667 750.333 337.6 752.6C338.533 754.867 339.767 756.667 341.3 758C342.833 759.333 344.733 760 347 760C349.267 760 351.167 759.333 352.7 758C354.233 756.667 355.467 754.867 356.4 752.6C357.333 750.333 358 747.7 358.4 744.7C358.8 741.633 359 738.4 359 735Z" fill="#404040"/>
<path d="M566.5 716.9C569.9 715.567 573.2 713.9 576.4 711.9C579.6 709.833 582.567 707.233 585.3 704.1H591.1V759H602.8V766H569.5V759H582.9V715.6C582.167 716.267 581.267 716.967 580.2 717.7C579.2 718.367 578.067 719.033 576.8 719.7C575.6 720.367 574.333 721 573 721.6C571.667 722.2 570.367 722.7 569.1 723.1L566.5 716.9Z" fill="#404040"/>
<path d="M838 719.9C838 722.033 837.567 724.1 836.7 726.1C835.9 728.1 834.8 730.067 833.4 732C832.067 733.933 830.533 735.833 828.8 737.7C827.067 739.567 825.3 741.4 823.5 743.2C822.5 744.2 821.333 745.4 820 746.8C818.667 748.2 817.4 749.633 816.2 751.1C815 752.567 814 754 813.2 755.4C812.4 756.8 812 758 812 759H840.5V766H803C802.933 765.667 802.9 765.333 802.9 765C802.9 764.6 802.9 764.233 802.9 763.9C802.9 761.1 803.367 758.5 804.3 756.1C805.233 753.7 806.433 751.433 807.9 749.3C809.367 747.167 811 745.167 812.8 743.3C814.667 741.367 816.5 739.5 818.3 737.7C819.767 736.233 821.167 734.8 822.5 733.4C823.9 732 825.1 730.6 826.1 729.2C827.167 727.8 828 726.367 828.6 724.9C829.267 723.367 829.6 721.8 829.6 720.2C829.6 718.4 829.3 716.867 828.7 715.6C828.167 714.333 827.4 713.3 826.4 712.5C825.467 711.633 824.367 711 823.1 710.6C821.833 710.2 820.467 710 819 710C817.267 710 815.667 710.233 814.2 710.7C812.8 711.167 811.533 711.733 810.4 712.4C809.333 713.067 808.4 713.733 807.6 714.4C806.8 715 806.2 715.5 805.8 715.9L801.7 710.1C802.233 709.5 803.033 708.767 804.1 707.9C805.167 707.033 806.433 706.233 807.9 705.5C809.433 704.7 811.133 704.033 813 703.5C814.867 702.967 816.867 702.7 819 702.7C825.467 702.7 830.233 704.2 833.3 707.2C836.433 710.133 838 714.367 838 719.9Z" fill="#404040"/>
<path d="M1295.3 409L1252 334L1338.6 334L1295.3 409Z" fill="#FF9D66"/>
<path d="M1305.3 279L1305.3 334L1285.3 334L1285.3 279L1305.3 279Z" fill="#FF9D66"/>
<path d="M347.301 409L304 334L390.603 334L347.301 409Z" fill="#FF6F66"/>
<path d="M357.301 279L357.301 334L337.301 334L337.301 279L357.301 279Z" fill="#FF6F66"/>
<path d="M217.4 235.5C216.4 235.5 215.233 235.467 213.9 235.4C212.567 235.333 211.233 235.233 209.9 235.1C208.567 235.033 207.233 234.9 205.9 234.7C204.567 234.5 203.4 234.267 202.4 234V174C203.4 173.733 204.533 173.5 205.8 173.3C207.133 173.1 208.467 172.967 209.8 172.9C211.2 172.767 212.533 172.667 213.8 172.6C215.133 172.533 216.333 172.5 217.4 172.5C220.467 172.5 223.333 172.767 226 173.3C228.667 173.833 230.967 174.733 232.9 176C234.9 177.267 236.433 178.933 237.5 181C238.633 183.067 239.2 185.633 239.2 188.7C239.2 190.167 238.967 191.6 238.5 193C238.033 194.333 237.367 195.6 236.5 196.8C235.7 198 234.733 199.067 233.6 200C232.533 200.867 231.367 201.533 230.1 202C233.5 202.933 236.333 204.667 238.6 207.2C240.933 209.667 242.1 212.9 242.1 216.9C242.1 223.033 240.133 227.667 236.2 230.8C232.267 233.933 226 235.5 217.4 235.5ZM210.6 206.1V228.2C210.733 228.267 211.467 228.367 212.8 228.5C214.2 228.567 215.933 228.6 218 228.6C220.067 228.6 222.033 228.433 223.9 228.1C225.833 227.767 227.533 227.167 229 226.3C230.467 225.367 231.633 224.167 232.5 222.7C233.433 221.233 233.9 219.333 233.9 217C233.9 214.933 233.467 213.2 232.6 211.8C231.8 210.4 230.7 209.3 229.3 208.5C227.967 207.633 226.4 207.033 224.6 206.7C222.8 206.3 220.933 206.1 219 206.1H210.6ZM210.6 199.3H217.1C218.767 199.3 220.433 199.133 222.1 198.8C223.767 198.467 225.267 197.933 226.6 197.2C227.933 196.467 229 195.467 229.8 194.2C230.6 192.933 231 191.333 231 189.4C231 187.6 230.633 186.067 229.9 184.8C229.167 183.533 228.2 182.5 227 181.7C225.8 180.9 224.4 180.333 222.8 180C221.267 179.667 219.633 179.5 217.9 179.5C216.167 179.5 214.633 179.533 213.3 179.6C212.033 179.6 211.133 179.667 210.6 179.8V199.3ZM293 211.8C293 215.467 292.467 218.8 291.4 221.8C290.4 224.733 288.967 227.267 287.1 229.4C285.233 231.533 283 233.2 280.4 234.4C277.8 235.533 274.967 236.1 271.9 236.1C268.9 236.1 266.1 235.533 263.5 234.4C260.967 233.2 258.767 231.533 256.9 229.4C255.033 227.267 253.567 224.733 252.5 221.8C251.5 218.8 251 215.467 251 211.8C251 208.133 251.5 204.8 252.5 201.8C253.567 198.8 255.033 196.267 256.9 194.2C258.767 192.067 260.967 190.433 263.5 189.3C266.1 188.1 268.9 187.5 271.9 187.5C274.967 187.5 277.8 188.1 280.4 189.3C283 190.433 285.233 192.067 287.1 194.2C288.967 196.267 290.4 198.8 291.4 201.8C292.467 204.8 293 208.133 293 211.8ZM284.5 211.8C284.5 206.533 283.367 202.4 281.1 199.4C278.833 196.333 275.767 194.8 271.9 194.8C268.1 194.8 265.067 196.333 262.8 199.4C260.6 202.4 259.5 206.533 259.5 211.8C259.5 217 260.6 221.133 262.8 224.2C265.067 227.2 268.1 228.7 271.9 228.7C275.767 228.7 278.833 227.2 281.1 224.2C283.367 221.133 284.5 217 284.5 211.8ZM321.3 188.6H340.9V195.5H321.3V217.1C321.3 219.433 321.467 221.333 321.8 222.8C322.133 224.267 322.667 225.467 323.4 226.4C324.2 227.267 325.2 227.867 326.4 228.2C327.6 228.533 329.067 228.7 330.8 228.7C333.2 228.7 335.133 228.5 336.6 228.1C338.067 227.7 339.467 227.167 340.8 226.5L342 233.5C341.067 233.9 339.567 234.433 337.5 235.1C335.5 235.767 333 236.1 330 236.1C326.533 236.1 323.7 235.7 321.5 234.9C319.3 234.1 317.567 232.9 316.3 231.3C315.1 229.7 314.267 227.733 313.8 225.4C313.333 223 313.1 220.233 313.1 217.1V195.5H303.3V188.6H313.1V175.6L321.3 174.2V188.6ZM371.3 188.6H390.9V195.5H371.3V217.1C371.3 219.433 371.467 221.333 371.8 222.8C372.133 224.267 372.667 225.467 373.4 226.4C374.2 227.267 375.2 227.867 376.4 228.2C377.6 228.533 379.067 228.7 380.8 228.7C383.2 228.7 385.133 228.5 386.6 228.1C388.067 227.7 389.467 227.167 390.8 226.5L392 233.5C391.067 233.9 389.567 234.433 387.5 235.1C385.5 235.767 383 236.1 380 236.1C376.533 236.1 373.7 235.7 371.5 234.9C369.3 234.1 367.567 232.9 366.3 231.3C365.1 229.7 364.267 227.733 363.8 225.4C363.333 223 363.1 220.233 363.1 217.1V195.5H353.3V188.6H363.1V175.6L371.3 174.2V188.6ZM443 211.8C443 215.467 442.467 218.8 441.4 221.8C440.4 224.733 438.967 227.267 437.1 229.4C435.233 231.533 433 233.2 430.4 234.4C427.8 235.533 424.967 236.1 421.9 236.1C418.9 236.1 416.1 235.533 413.5 234.4C410.967 233.2 408.767 231.533 406.9 229.4C405.033 227.267 403.567 224.733 402.5 221.8C401.5 218.8 401 215.467 401 211.8C401 208.133 401.5 204.8 402.5 201.8C403.567 198.8 405.033 196.267 406.9 194.2C408.767 192.067 410.967 190.433 413.5 189.3C416.1 188.1 418.9 187.5 421.9 187.5C424.967 187.5 427.8 188.1 430.4 189.3C433 190.433 435.233 192.067 437.1 194.2C438.967 196.267 440.4 198.8 441.4 201.8C442.467 204.8 443 208.133 443 211.8ZM434.5 211.8C434.5 206.533 433.367 202.4 431.1 199.4C428.833 196.333 425.767 194.8 421.9 194.8C418.1 194.8 415.067 196.333 412.8 199.4C410.6 202.4 409.5 206.533 409.5 211.8C409.5 217 410.6 221.133 412.8 224.2C415.067 227.2 418.1 228.7 421.9 228.7C425.767 228.7 428.833 227.2 431.1 224.2C433.367 221.133 434.5 217 434.5 211.8ZM451.1 189.9C455.1 188.367 458.867 187.6 462.4 187.6C464.333 187.6 466.133 187.9 467.8 188.5C469.533 189.033 471 189.9 472.2 191.1C475.067 188.767 478.133 187.6 481.4 187.6C483 187.6 484.5 187.9 485.9 188.5C487.367 189.1 488.633 190 489.7 191.2C490.833 192.4 491.733 193.9 492.4 195.7C493.067 197.5 493.4 199.6 493.4 202V235H485.9V201.8C485.9 199.4 485.367 197.567 484.3 196.3C483.233 195.033 481.9 194.4 480.3 194.4C479.5 194.4 478.667 194.6 477.8 195C476.933 195.4 476.133 196.033 475.4 196.9C475.8 198.433 476 200.133 476 202V217.1H468.5V201.9C468.5 199.567 468.133 197.733 467.4 196.4C466.667 195.067 465.233 194.4 463.1 194.4C461.767 194.4 460.267 194.7 458.6 195.3V235H451.1V189.9Z" fill="#404040"/>
<path d="M1266.1 163.1V170.1H1249.1V225H1240.9V170.1H1223.9V163.1H1266.1ZM1316 201.8C1316 205.467 1315.47 208.8 1314.4 211.8C1313.4 214.733 1311.97 217.267 1310.1 219.4C1308.23 221.533 1306 223.2 1303.4 224.4C1300.8 225.533 1297.97 226.1 1294.9 226.1C1291.9 226.1 1289.1 225.533 1286.5 224.4C1283.97 223.2 1281.77 221.533 1279.9 219.4C1278.03 217.267 1276.57 214.733 1275.5 211.8C1274.5 208.8 1274 205.467 1274 201.8C1274 198.133 1274.5 194.8 1275.5 191.8C1276.57 188.8 1278.03 186.267 1279.9 184.2C1281.77 182.067 1283.97 180.433 1286.5 179.3C1289.1 178.1 1291.9 177.5 1294.9 177.5C1297.97 177.5 1300.8 178.1 1303.4 179.3C1306 180.433 1308.23 182.067 1310.1 184.2C1311.97 186.267 1313.4 188.8 1314.4 191.8C1315.47 194.8 1316 198.133 1316 201.8ZM1307.5 201.8C1307.5 196.533 1306.37 192.4 1304.1 189.4C1301.83 186.333 1298.77 184.8 1294.9 184.8C1291.1 184.8 1288.07 186.333 1285.8 189.4C1283.6 192.4 1282.5 196.533 1282.5 201.8C1282.5 207 1283.6 211.133 1285.8 214.2C1288.07 217.2 1291.1 218.7 1294.9 218.7C1298.77 218.7 1301.83 217.2 1304.1 214.2C1306.37 211.133 1307.5 207 1307.5 201.8ZM1357.5 201.9C1357.5 196.5 1356.23 192.333 1353.7 189.4C1351.17 186.4 1347.87 184.9 1343.8 184.9C1341.53 184.9 1339.73 185 1338.4 185.2C1337.13 185.4 1336.13 185.633 1335.4 185.9V215.2C1336.33 216.067 1337.7 216.867 1339.5 217.6C1341.3 218.333 1343.17 218.7 1345.1 218.7C1347.3 218.7 1349.17 218.267 1350.7 217.4C1352.3 216.533 1353.6 215.367 1354.6 213.9C1355.6 212.367 1356.33 210.6 1356.8 208.6C1357.27 206.533 1357.5 204.3 1357.5 201.9ZM1366 201.9C1366 205.433 1365.53 208.7 1364.6 211.7C1363.73 214.633 1362.43 217.167 1360.7 219.3C1359.03 221.433 1356.97 223.1 1354.5 224.3C1352.03 225.5 1349.23 226.1 1346.1 226.1C1343.63 226.1 1341.47 225.8 1339.6 225.2C1337.73 224.6 1336.33 223.933 1335.4 223.2V241.5H1327.1V180C1328.9 179.467 1331.2 178.933 1334 178.4C1336.87 177.867 1340.13 177.6 1343.8 177.6C1347.13 177.6 1350.17 178.167 1352.9 179.3C1355.63 180.433 1357.97 182.067 1359.9 184.2C1361.83 186.267 1363.33 188.8 1364.4 191.8C1365.47 194.8 1366 198.167 1366 201.9Z" fill="#404040"/>
<rect x="708" y="1177" width="200" height="200" rx="20" fill="#FF8266"/>
<rect x="945" y="1177" width="200" height="200" rx="20" fill="#FF8B66"/>
<rect x="1182" y="1177" width="200" height="200" rx="20" fill="#FF9D66"/>
<rect x="471" y="1177" width="200" height="200" rx="20" fill="#FF7866"/>
<rect x="234" y="1177" width="200" height="200" rx="20" fill="#FF6F66"/>
<path d="M336.2 1277.2C338.733 1277.2 341.4 1276.93 344.2 1276.4C347 1275.87 349.267 1275.13 351 1274.2C351.133 1273.13 351.2 1271.87 351.2 1270.4C351.333 1268.8 351.4 1267.27 351.4 1265.8C351.4 1262.47 351.067 1259.13 350.4 1255.8C349.867 1252.33 348.867 1249.2 347.4 1246.4C346.067 1243.6 344.2 1241.33 341.8 1239.6C339.533 1237.87 336.667 1237 333.2 1237C330.267 1237 327.733 1237.6 325.6 1238.8C323.6 1239.87 321.933 1241.33 320.6 1243.2C319.4 1245.07 318.467 1247.27 317.8 1249.8C317.267 1252.33 317 1255 317 1257.8C317 1264.07 318.467 1268.87 321.4 1272.2C324.333 1275.53 329.267 1277.2 336.2 1277.2ZM333 1297.6C325.8 1297.6 319.667 1296.6 314.6 1294.6C309.533 1292.47 305.4 1289.6 302.2 1286C299 1282.4 296.667 1278.27 295.2 1273.6C293.733 1268.8 293 1263.67 293 1258.2C293 1253.4 293.8 1248.53 295.4 1243.6C297.133 1238.53 299.6 1234 302.8 1230C306.133 1225.87 310.267 1222.53 315.2 1220C320.133 1217.33 325.933 1216 332.6 1216C346.467 1216 357.067 1220.67 364.4 1230C371.733 1239.33 375.4 1252.33 375.4 1269C375.4 1281 373.667 1291.67 370.2 1301C366.733 1310.2 361.733 1317.93 355.2 1324.2C348.8 1330.47 341 1335.27 331.8 1338.6C322.733 1341.8 312.6 1343.4 301.4 1343.4L300.6 1322.2C311.267 1322.07 320.8 1319.8 329.2 1315.4C337.6 1310.87 343.533 1303.8 347 1294.2C341.8 1296.47 337.133 1297.6 333 1297.6Z" fill="white"/>
<path d="M563.6 1322.6V1253.4C559.867 1256.07 555.6 1258.47 550.8 1260.6C546 1262.6 541.933 1264.2 538.6 1265.4L530.6 1245C533.8 1243.8 537.267 1242.27 541 1240.4C544.733 1238.53 548.467 1236.47 552.2 1234.2C555.933 1231.93 559.467 1229.53 562.8 1227C566.133 1224.47 569 1221.87 571.4 1219.2H588.2V1322.6H612.8V1343H537.6V1322.6H563.6Z" fill="white"/>
<path d="M844.8 1251.8C844.8 1256.07 844 1260.2 842.4 1264.2C840.8 1268.07 838.667 1271.87 836 1275.6C833.333 1279.33 830.333 1282.93 827 1286.4C823.667 1289.87 820.267 1293.2 816.8 1296.4C815.067 1298 813.067 1299.93 810.8 1302.2C808.533 1304.33 806.4 1306.6 804.4 1309C802.4 1311.27 800.667 1313.6 799.2 1316C797.867 1318.4 797.2 1320.6 797.2 1322.6H850.4V1343H769.6C769.2 1341.67 769 1340 769 1338C769.133 1336 769.2 1334.6 769.2 1333.8C769.2 1327.13 770.4 1321 772.8 1315.4C775.333 1309.8 778.467 1304.67 782.2 1300C786.067 1295.2 790.133 1290.8 794.4 1286.8C798.8 1282.67 802.867 1278.73 806.6 1275C810.467 1271.27 813.6 1267.67 816 1264.2C818.533 1260.73 819.8 1257.2 819.8 1253.6C819.8 1248.53 818.267 1244.67 815.2 1242C812.133 1239.2 808.267 1237.8 803.6 1237.8C799.733 1237.8 795.667 1238.73 791.4 1240.6C787.133 1242.47 782.933 1245.6 778.8 1250L766.6 1232.8C771.933 1227.2 778.067 1223.07 785 1220.4C792.067 1217.73 799.067 1216.4 806 1216.4C811.067 1216.4 815.933 1217.13 820.6 1218.6C825.267 1220.07 829.4 1222.27 833 1225.2C836.6 1228.13 839.467 1231.87 841.6 1236.4C843.733 1240.8 844.8 1245.93 844.8 1251.8Z" fill="white"/>
<path d="M1059.2 1306.6C1059.2 1303.13 1058.6 1300 1057.4 1297.2C1056.33 1294.27 1054.07 1291.8 1050.6 1289.8C1047.27 1287.67 1042.47 1286.07 1036.2 1285C1029.93 1283.8 1021.73 1283.2 1011.6 1283.2C1012.93 1272 1014 1261.07 1014.8 1250.4C1015.6 1239.6 1016.2 1229.2 1016.6 1219.2H1079.8V1239.6H1037.2C1036.93 1243.87 1036.6 1248.33 1036.2 1253C1035.8 1257.67 1035.47 1261.47 1035.2 1264.4C1051.73 1265.47 1064.07 1269.47 1072.2 1276.4C1080.33 1283.33 1084.4 1293.07 1084.4 1305.6C1084.4 1311.33 1083.4 1316.67 1081.4 1321.6C1079.4 1326.4 1076.33 1330.6 1072.2 1334.2C1068.07 1337.8 1062.93 1340.6 1056.8 1342.6C1050.67 1344.6 1043.53 1345.6 1035.4 1345.6C1032.2 1345.6 1028.93 1345.4 1025.6 1345C1022.27 1344.6 1019.07 1344.07 1016 1343.4C1012.93 1342.87 1010.13 1342.2 1007.6 1341.4C1005.2 1340.6 1003.33 1339.87 1002 1339.2L1007 1318.8C1009.93 1320.27 1013.67 1321.6 1018.2 1322.8C1022.73 1324 1028.4 1324.6 1035.2 1324.6C1040 1324.6 1043.93 1324.07 1047 1323C1050.2 1321.93 1052.67 1320.6 1054.4 1319C1056.27 1317.27 1057.53 1315.33 1058.2 1313.2C1058.87 1311.07 1059.2 1308.87 1059.2 1306.6Z" fill="white"/>
<path d="M1289 1250C1286.6 1253.07 1284.13 1256.33 1281.6 1259.8C1279.07 1263.27 1276.53 1266.93 1274 1270.8C1271.6 1274.53 1269.27 1278.33 1267 1282.2C1264.73 1286.07 1262.73 1289.87 1261 1293.6H1289V1250ZM1313.6 1219.2V1293.6H1327V1313.8H1313.6V1343H1289V1313.8H1237.4V1295.8C1239.93 1290.6 1243.2 1284.73 1247.2 1278.2C1251.2 1271.53 1255.6 1264.73 1260.4 1257.8C1265.2 1250.87 1270.27 1244.07 1275.6 1237.4C1280.93 1230.6 1286.27 1224.53 1291.6 1219.2H1313.6Z" fill="white"/>
<path d="M1260.6 1475.6C1261.73 1472.93 1263.27 1469.87 1265.2 1466.4C1267.2 1462.93 1269.43 1459.37 1271.9 1455.7C1274.37 1451.97 1277 1448.33 1279.8 1444.8C1282.6 1441.2 1285.43 1437.97 1288.3 1435.1H1296.3V1474.4H1303.6V1481.2H1296.3V1497H1288.3V1481.2H1260.6V1475.6ZM1288.3 1444.9C1286.5 1446.83 1284.67 1448.97 1282.8 1451.3C1281 1453.63 1279.23 1456.1 1277.5 1458.7C1275.77 1461.23 1274.13 1463.83 1272.6 1466.5C1271.13 1469.17 1269.8 1471.8 1268.6 1474.4H1288.3V1444.9Z" fill="#404040"/>
<path d="M1041.2 1491C1046.47 1491 1050.2 1489.97 1052.4 1487.9C1054.67 1485.77 1055.8 1482.93 1055.8 1479.4C1055.8 1477.13 1055.33 1475.23 1054.4 1473.7C1053.47 1472.17 1052.23 1470.93 1050.7 1470C1049.17 1469.07 1047.4 1468.4 1045.4 1468C1043.4 1467.6 1041.3 1467.4 1039.1 1467.4H1037V1460.7H1039.9C1041.37 1460.7 1042.87 1460.57 1044.4 1460.3C1046 1459.97 1047.43 1459.43 1048.7 1458.7C1050.03 1457.9 1051.1 1456.83 1051.9 1455.5C1052.7 1454.17 1053.1 1452.47 1053.1 1450.4C1053.1 1447 1052.03 1444.6 1049.9 1443.2C1047.83 1441.73 1045.4 1441 1042.6 1441C1039.73 1441 1037.3 1441.43 1035.3 1442.3C1033.3 1443.1 1031.63 1443.93 1030.3 1444.8L1027.1 1438.5C1028.5 1437.5 1030.6 1436.47 1033.4 1435.4C1036.27 1434.27 1039.43 1433.7 1042.9 1433.7C1046.17 1433.7 1048.97 1434.1 1051.3 1434.9C1053.63 1435.7 1055.53 1436.83 1057 1438.3C1058.53 1439.77 1059.67 1441.5 1060.4 1443.5C1061.13 1445.43 1061.5 1447.57 1061.5 1449.9C1061.5 1453.17 1060.63 1455.93 1058.9 1458.2C1057.23 1460.47 1055.07 1462.2 1052.4 1463.4C1055.6 1464.33 1058.37 1466.17 1060.7 1468.9C1063.03 1471.57 1064.2 1475.13 1064.2 1479.6C1064.2 1482.27 1063.73 1484.77 1062.8 1487.1C1061.93 1489.37 1060.57 1491.33 1058.7 1493C1056.9 1494.67 1054.53 1495.97 1051.6 1496.9C1048.73 1497.83 1045.3 1498.3 1041.3 1498.3C1039.77 1498.3 1038.17 1498.17 1036.5 1497.9C1034.9 1497.7 1033.4 1497.4 1032 1497C1030.6 1496.67 1029.33 1496.33 1028.2 1496C1027.13 1495.6 1026.37 1495.3 1025.9 1495.1L1027.5 1488C1028.57 1488.53 1030.27 1489.17 1032.6 1489.9C1034.93 1490.63 1037.8 1491 1041.2 1491Z" fill="#404040"/>
<path d="M339.8 1464.9C339.8 1466.63 339.267 1468.13 338.2 1469.4C337.2 1470.67 335.867 1471.3 334.2 1471.3C332.467 1471.3 331.067 1470.67 330 1469.4C328.933 1468.13 328.4 1466.63 328.4 1464.9C328.4 1463.17 328.933 1461.63 330 1460.3C331.067 1458.97 332.467 1458.3 334.2 1458.3C335.867 1458.3 337.2 1458.97 338.2 1460.3C339.267 1461.63 339.8 1463.17 339.8 1464.9ZM313.6 1466C313.6 1455.6 315.367 1447.63 318.9 1442.1C322.5 1436.5 327.533 1433.7 334 1433.7C340.533 1433.7 345.567 1436.5 349.1 1442.1C352.633 1447.63 354.4 1455.6 354.4 1466C354.4 1476.4 352.633 1484.4 349.1 1490C345.567 1495.53 340.533 1498.3 334 1498.3C327.533 1498.3 322.5 1495.53 318.9 1490C315.367 1484.4 313.6 1476.4 313.6 1466ZM346 1466C346 1462.6 345.8 1459.4 345.4 1456.4C345 1453.33 344.333 1450.67 343.4 1448.4C342.467 1446.13 341.233 1444.33 339.7 1443C338.167 1441.67 336.267 1441 334 1441C331.733 1441 329.833 1441.67 328.3 1443C326.767 1444.33 325.533 1446.13 324.6 1448.4C323.667 1450.67 323 1453.33 322.6 1456.4C322.2 1459.4 322 1462.6 322 1466C322 1469.4 322.2 1472.63 322.6 1475.7C323 1478.7 323.667 1481.33 324.6 1483.6C325.533 1485.87 326.767 1487.67 328.3 1489C329.833 1490.33 331.733 1491 334 1491C336.267 1491 338.167 1490.33 339.7 1489C341.233 1487.67 342.467 1485.87 343.4 1483.6C344.333 1481.33 345 1478.7 345.4 1475.7C345.8 1472.63 346 1469.4 346 1466Z" fill="#404040"/>
<path d="M553.5 1447.9C556.9 1446.57 560.2 1444.9 563.4 1442.9C566.6 1440.83 569.567 1438.23 572.3 1435.1H578.1V1490H589.8V1497H556.5V1490H569.9V1446.6C569.167 1447.27 568.267 1447.97 567.2 1448.7C566.2 1449.37 565.067 1450.03 563.8 1450.7C562.6 1451.37 561.333 1452 560 1452.6C558.667 1453.2 557.367 1453.7 556.1 1454.1L553.5 1447.9Z" fill="#404040"/>
<path d="M825 1450.9C825 1453.03 824.567 1455.1 823.7 1457.1C822.9 1459.1 821.8 1461.07 820.4 1463C819.067 1464.93 817.533 1466.83 815.8 1468.7C814.067 1470.57 812.3 1472.4 810.5 1474.2C809.5 1475.2 808.333 1476.4 807 1477.8C805.667 1479.2 804.4 1480.63 803.2 1482.1C802 1483.57 801 1485 800.2 1486.4C799.4 1487.8 799 1489 799 1490H827.5V1497H790C789.933 1496.67 789.9 1496.33 789.9 1496C789.9 1495.6 789.9 1495.23 789.9 1494.9C789.9 1492.1 790.367 1489.5 791.3 1487.1C792.233 1484.7 793.433 1482.43 794.9 1480.3C796.367 1478.17 798 1476.17 799.8 1474.3C801.667 1472.37 803.5 1470.5 805.3 1468.7C806.767 1467.23 808.167 1465.8 809.5 1464.4C810.9 1463 812.1 1461.6 813.1 1460.2C814.167 1458.8 815 1457.37 815.6 1455.9C816.267 1454.37 816.6 1452.8 816.6 1451.2C816.6 1449.4 816.3 1447.87 815.7 1446.6C815.167 1445.33 814.4 1444.3 813.4 1443.5C812.467 1442.63 811.367 1442 810.1 1441.6C808.833 1441.2 807.467 1441 806 1441C804.267 1441 802.667 1441.23 801.2 1441.7C799.8 1442.17 798.533 1442.73 797.4 1443.4C796.333 1444.07 795.4 1444.73 794.6 1445.4C793.8 1446 793.2 1446.5 792.8 1446.9L788.7 1441.1C789.233 1440.5 790.033 1439.77 791.1 1438.9C792.167 1438.03 793.433 1437.23 794.9 1436.5C796.433 1435.7 798.133 1435.03 800 1434.5C801.867 1433.97 803.867 1433.7 806 1433.7C812.467 1433.7 817.233 1435.2 820.3 1438.2C823.433 1441.13 825 1445.37 825 1450.9Z" fill="#404040"/>
<path d="M334.301 1140L291 1065L377.603 1065L334.301 1140Z" fill="#FF6F66"/>
<path d="M344.301 1010L344.301 1065L324.301 1065L324.301 1010L344.301 1010Z" fill="#FF6F66"/>
<path d="M204.4 966.5C203.4 966.5 202.233 966.467 200.9 966.4C199.567 966.333 198.233 966.233 196.9 966.1C195.567 966.033 194.233 965.9 192.9 965.7C191.567 965.5 190.4 965.267 189.4 965V905C190.4 904.733 191.533 904.5 192.8 904.3C194.133 904.1 195.467 903.967 196.8 903.9C198.2 903.767 199.533 903.667 200.8 903.6C202.133 903.533 203.333 903.5 204.4 903.5C207.467 903.5 210.333 903.767 213 904.3C215.667 904.833 217.967 905.733 219.9 907C221.9 908.267 223.433 909.933 224.5 912C225.633 914.067 226.2 916.633 226.2 919.7C226.2 921.167 225.967 922.6 225.5 924C225.033 925.333 224.367 926.6 223.5 927.8C222.7 929 221.733 930.067 220.6 931C219.533 931.867 218.367 932.533 217.1 933C220.5 933.933 223.333 935.667 225.6 938.2C227.933 940.667 229.1 943.9 229.1 947.9C229.1 954.033 227.133 958.667 223.2 961.8C219.267 964.933 213 966.5 204.4 966.5ZM197.6 937.1V959.2C197.733 959.267 198.467 959.367 199.8 959.5C201.2 959.567 202.933 959.6 205 959.6C207.067 959.6 209.033 959.433 210.9 959.1C212.833 958.767 214.533 958.167 216 957.3C217.467 956.367 218.633 955.167 219.5 953.7C220.433 952.233 220.9 950.333 220.9 948C220.9 945.933 220.467 944.2 219.6 942.8C218.8 941.4 217.7 940.3 216.3 939.5C214.967 938.633 213.4 938.033 211.6 937.7C209.8 937.3 207.933 937.1 206 937.1H197.6ZM197.6 930.3H204.1C205.767 930.3 207.433 930.133 209.1 929.8C210.767 929.467 212.267 928.933 213.6 928.2C214.933 927.467 216 926.467 216.8 925.2C217.6 923.933 218 922.333 218 920.4C218 918.6 217.633 917.067 216.9 915.8C216.167 914.533 215.2 913.5 214 912.7C212.8 911.9 211.4 911.333 209.8 911C208.267 910.667 206.633 910.5 204.9 910.5C203.167 910.5 201.633 910.533 200.3 910.6C199.033 910.6 198.133 910.667 197.6 910.8V930.3ZM280 942.8C280 946.467 279.467 949.8 278.4 952.8C277.4 955.733 275.967 958.267 274.1 960.4C272.233 962.533 270 964.2 267.4 965.4C264.8 966.533 261.967 967.1 258.9 967.1C255.9 967.1 253.1 966.533 250.5 965.4C247.967 964.2 245.767 962.533 243.9 960.4C242.033 958.267 240.567 955.733 239.5 952.8C238.5 949.8 238 946.467 238 942.8C238 939.133 238.5 935.8 239.5 932.8C240.567 929.8 242.033 927.267 243.9 925.2C245.767 923.067 247.967 921.433 250.5 920.3C253.1 919.1 255.9 918.5 258.9 918.5C261.967 918.5 264.8 919.1 267.4 920.3C270 921.433 272.233 923.067 274.1 925.2C275.967 927.267 277.4 929.8 278.4 932.8C279.467 935.8 280 939.133 280 942.8ZM271.5 942.8C271.5 937.533 270.367 933.4 268.1 930.4C265.833 927.333 262.767 925.8 258.9 925.8C255.1 925.8 252.067 927.333 249.8 930.4C247.6 933.4 246.5 937.533 246.5 942.8C246.5 948 247.6 952.133 249.8 955.2C252.067 958.2 255.1 959.7 258.9 959.7C262.767 959.7 265.833 958.2 268.1 955.2C270.367 952.133 271.5 948 271.5 942.8ZM308.3 919.6H327.9V926.5H308.3V948.1C308.3 950.433 308.467 952.333 308.8 953.8C309.133 955.267 309.667 956.467 310.4 957.4C311.2 958.267 312.2 958.867 313.4 959.2C314.6 959.533 316.067 959.7 317.8 959.7C320.2 959.7 322.133 959.5 323.6 959.1C325.067 958.7 326.467 958.167 327.8 957.5L329 964.5C328.067 964.9 326.567 965.433 324.5 966.1C322.5 966.767 320 967.1 317 967.1C313.533 967.1 310.7 966.7 308.5 965.9C306.3 965.1 304.567 963.9 303.3 962.3C302.1 960.7 301.267 958.733 300.8 956.4C300.333 954 300.1 951.233 300.1 948.1V926.5H290.3V919.6H300.1V906.6L308.3 905.2V919.6ZM358.3 919.6H377.9V926.5H358.3V948.1C358.3 950.433 358.467 952.333 358.8 953.8C359.133 955.267 359.667 956.467 360.4 957.4C361.2 958.267 362.2 958.867 363.4 959.2C364.6 959.533 366.067 959.7 367.8 959.7C370.2 959.7 372.133 959.5 373.6 959.1C375.067 958.7 376.467 958.167 377.8 957.5L379 964.5C378.067 964.9 376.567 965.433 374.5 966.1C372.5 966.767 370 967.1 367 967.1C363.533 967.1 360.7 966.7 358.5 965.9C356.3 965.1 354.567 963.9 353.3 962.3C352.1 960.7 351.267 958.733 350.8 956.4C350.333 954 350.1 951.233 350.1 948.1V926.5H340.3V919.6H350.1V906.6L358.3 905.2V919.6ZM430 942.8C430 946.467 429.467 949.8 428.4 952.8C427.4 955.733 425.967 958.267 424.1 960.4C422.233 962.533 420 964.2 417.4 965.4C414.8 966.533 411.967 967.1 408.9 967.1C405.9 967.1 403.1 966.533 400.5 965.4C397.967 964.2 395.767 962.533 393.9 960.4C392.033 958.267 390.567 955.733 389.5 952.8C388.5 949.8 388 946.467 388 942.8C388 939.133 388.5 935.8 389.5 932.8C390.567 929.8 392.033 927.267 393.9 925.2C395.767 923.067 397.967 921.433 400.5 920.3C403.1 919.1 405.9 918.5 408.9 918.5C411.967 918.5 414.8 919.1 417.4 920.3C420 921.433 422.233 923.067 424.1 925.2C425.967 927.267 427.4 929.8 428.4 932.8C429.467 935.8 430 939.133 430 942.8ZM421.5 942.8C421.5 937.533 420.367 933.4 418.1 930.4C415.833 927.333 412.767 925.8 408.9 925.8C405.1 925.8 402.067 927.333 399.8 930.4C397.6 933.4 396.5 937.533 396.5 942.8C396.5 948 397.6 952.133 399.8 955.2C402.067 958.2 405.1 959.7 408.9 959.7C412.767 959.7 415.833 958.2 418.1 955.2C420.367 952.133 421.5 948 421.5 942.8ZM438.1 920.9C442.1 919.367 445.867 918.6 449.4 918.6C451.333 918.6 453.133 918.9 454.8 919.5C456.533 920.033 458 920.9 459.2 922.1C462.067 919.767 465.133 918.6 468.4 918.6C470 918.6 471.5 918.9 472.9 919.5C474.367 920.1 475.633 921 476.7 922.2C477.833 923.4 478.733 924.9 479.4 926.7C480.067 928.5 480.4 930.6 480.4 933V966H472.9V932.8C472.9 930.4 472.367 928.567 471.3 927.3C470.233 926.033 468.9 925.4 467.3 925.4C466.5 925.4 465.667 925.6 464.8 926C463.933 926.4 463.133 927.033 462.4 927.9C462.8 929.433 463 931.133 463 933V948.1H455.5V932.9C455.5 930.567 455.133 928.733 454.4 927.4C453.667 926.067 452.233 925.4 450.1 925.4C448.767 925.4 447.267 925.7 445.6 926.3V966H438.1V920.9Z" fill="#404040"/>
<rect x="1404.72" y="1110.69" width="200" height="200" rx="20" transform="rotate(-8.90593 1404.72 1110.69)" fill="#FFB171"/>
<path d="M1522.31 1262.92C1519.28 1263.39 1516.01 1263.64 1512.5 1263.65C1509.15 1263.77 1505.84 1263.75 1502.57 1263.58C1499.44 1263.4 1496.5 1263.12 1493.74 1262.74C1490.98 1262.36 1488.82 1261.96 1487.27 1261.53L1488.82 1240.43C1492.06 1241.27 1496.16 1242.05 1501.13 1242.75C1506.23 1243.44 1512.14 1243.26 1518.86 1242.2C1527.16 1240.9 1532.68 1238.22 1535.41 1234.14C1538.28 1230.05 1539.3 1225.37 1538.48 1220.1C1537.46 1213.65 1534.19 1209.57 1528.66 1207.87C1523.11 1206.04 1516.39 1205.75 1508.48 1206.98L1500.98 1208.16L1497.82 1188.01L1506.91 1186.58C1509.41 1186.19 1511.87 1185.54 1514.29 1184.62C1516.71 1183.7 1518.82 1182.49 1520.61 1180.99C1522.4 1179.5 1523.73 1177.67 1524.61 1175.51C1525.61 1173.33 1525.88 1170.72 1525.4 1167.69C1524.7 1163.21 1522.77 1159.94 1519.61 1157.87C1516.57 1155.65 1512.67 1154.91 1507.93 1155.65C1503.32 1156.37 1498.83 1157.89 1494.47 1160.19C1490.22 1162.34 1486.62 1164.79 1483.68 1167.55L1472.2 1151.13C1475.38 1148.2 1479.69 1145.1 1485.11 1141.82C1490.65 1138.39 1497.1 1136.09 1504.48 1134.94C1511.33 1133.86 1517.39 1133.79 1522.67 1134.72C1528.07 1135.63 1532.67 1137.4 1536.46 1140.05C1540.23 1142.56 1543.23 1145.8 1545.47 1149.77C1547.71 1153.74 1549.22 1158.16 1549.98 1163.03C1550.74 1167.9 1550.09 1172.8 1548.03 1177.71C1545.96 1182.62 1542.81 1186.62 1538.57 1189.72C1545.31 1191.36 1550.79 1194.48 1555.02 1199.08C1559.38 1203.66 1562.12 1209.51 1563.24 1216.62C1564.12 1222.29 1564.02 1227.64 1562.92 1232.67C1561.81 1237.7 1559.63 1242.29 1556.37 1246.45C1553.09 1250.47 1548.64 1253.93 1543.02 1256.84C1537.38 1259.61 1530.48 1261.64 1522.31 1262.92Z" fill="white"/>
<path d="M1512.6 1459C1521.53 1459.33 1528.03 1461.3 1532.1 1464.9C1536.17 1468.5 1538.2 1473.33 1538.2 1479.4C1538.2 1482.13 1537.77 1484.67 1536.9 1487C1536.03 1489.33 1534.67 1491.33 1532.8 1493C1531 1494.67 1528.67 1495.97 1525.8 1496.9C1523 1497.83 1519.67 1498.3 1515.8 1498.3C1514.2 1498.3 1512.6 1498.17 1511 1497.9C1509.47 1497.7 1508 1497.43 1506.6 1497.1C1505.2 1496.77 1503.97 1496.43 1502.9 1496.1C1501.83 1495.7 1501.07 1495.37 1500.6 1495.1L1502.2 1488C1503.27 1488.53 1504.9 1489.17 1507.1 1489.9C1509.37 1490.63 1512.2 1491 1515.6 1491C1518.27 1491 1520.5 1490.7 1522.3 1490.1C1524.1 1489.5 1525.53 1488.7 1526.6 1487.7C1527.73 1486.63 1528.53 1485.43 1529 1484.1C1529.53 1482.77 1529.8 1481.37 1529.8 1479.9C1529.8 1477.63 1529.4 1475.63 1528.6 1473.9C1527.87 1472.1 1526.53 1470.6 1524.6 1469.4C1522.73 1468.2 1520.13 1467.3 1516.8 1466.7C1513.53 1466.03 1509.4 1465.7 1504.4 1465.7C1504.8 1462.77 1505.1 1460.03 1505.3 1457.5C1505.57 1454.9 1505.77 1452.4 1505.9 1450C1506.1 1447.53 1506.23 1445.1 1506.3 1442.7C1506.43 1440.3 1506.57 1437.77 1506.7 1435.1H1536.5V1442.1H1513.9C1513.83 1443.03 1513.73 1444.27 1513.6 1445.8C1513.53 1447.27 1513.43 1448.83 1513.3 1450.5C1513.17 1452.17 1513.03 1453.77 1512.9 1455.3C1512.77 1456.83 1512.67 1458.07 1512.6 1459Z" fill="#404040"/>
<path d="M1440.95 1062.83L1362.95 1025.2L1434.54 976.466L1440.95 1062.83Z" fill="#FFB171"/>
<path d="M1376.06 949.739L1407.01 995.205L1390.48 1006.46L1359.53 960.994L1376.06 949.739Z" fill="#FFB171"/>
<path d="M1294.91 874.431L1296.67 881.208L1280.21 885.463L1293.95 938.616L1286.01 940.668L1272.27 887.515L1255.81 891.77L1254.06 884.992L1294.91 874.431ZM1352.91 899.411C1353.83 902.961 1354.15 906.322 1353.86 909.494C1353.63 912.584 1352.88 915.395 1351.6 917.928C1350.33 920.46 1348.58 922.633 1346.37 924.445C1344.13 926.193 1341.53 927.451 1338.56 928.219C1335.66 928.969 1332.81 929.122 1330.01 928.675C1327.25 928.147 1324.71 927.084 1322.36 925.486C1320.02 923.888 1317.97 921.802 1316.2 919.229C1314.48 916.575 1313.17 913.472 1312.25 909.922C1311.33 906.372 1310.98 903.02 1311.2 899.865C1311.48 896.694 1312.26 893.874 1313.56 891.406C1314.83 888.873 1316.55 886.741 1318.72 885.01C1320.94 883.198 1323.5 881.916 1326.4 881.165C1329.37 880.398 1332.26 880.27 1335.08 880.781C1337.88 881.227 1340.45 882.25 1342.79 883.848C1345.12 885.382 1347.14 887.476 1348.86 890.13C1350.64 892.768 1351.99 895.861 1352.91 899.411ZM1344.68 901.539C1343.36 896.44 1341.23 892.721 1338.29 890.384C1335.32 887.982 1331.97 887.265 1328.23 888.233C1324.55 889.184 1322 891.428 1320.57 894.964C1319.19 898.419 1319.16 902.696 1320.48 907.795C1321.78 912.83 1323.88 916.556 1326.78 918.975C1329.72 921.312 1333.03 922.005 1336.71 921.054C1340.46 920.086 1343.05 917.867 1344.49 914.395C1345.92 910.859 1345.98 906.573 1344.68 901.539ZM1393.12 889.122C1391.76 883.894 1389.49 880.177 1386.31 877.971C1383.1 875.7 1379.53 875.074 1375.6 876.092C1373.4 876.659 1371.68 877.206 1370.44 877.734C1369.27 878.244 1368.36 878.72 1367.71 879.162L1375.05 907.53C1376.17 908.135 1377.69 908.568 1379.62 908.827C1381.54 909.087 1383.44 908.975 1385.31 908.491C1387.44 907.94 1389.14 907.054 1390.41 905.831C1391.74 904.591 1392.71 903.136 1393.31 901.466C1393.9 899.731 1394.16 897.837 1394.11 895.784C1394.05 893.666 1393.72 891.446 1393.12 889.122ZM1401.34 886.995C1402.23 890.416 1402.59 893.695 1402.44 896.833C1402.34 899.89 1401.71 902.668 1400.57 905.168C1399.49 907.65 1397.9 909.781 1395.82 911.56C1393.73 913.339 1391.17 914.621 1388.13 915.405C1385.75 916.022 1383.57 916.274 1381.62 916.16C1379.66 916.047 1378.14 915.752 1377.05 915.275L1381.63 932.993L1373.59 935.07L1358.2 875.527C1359.81 874.56 1361.9 873.468 1364.48 872.251C1367.12 871.017 1370.22 869.942 1373.77 869.024C1377 868.19 1380.08 867.979 1383.01 868.393C1385.94 868.806 1388.6 869.803 1391.01 871.385C1393.4 872.902 1395.48 874.979 1397.27 877.617C1399.05 880.254 1400.41 883.38 1401.34 886.995Z" fill="#404040"/>
</svg>
