<svg width="1548" height="935" viewBox="0 0 1548 935" fill="none" xmlns="http://www.w3.org/2000/svg">
<rect x="687" y="451" width="200" height="200" rx="20" fill="#FF8266"/>
<rect x="924" y="451" width="200" height="200" rx="20" fill="#FF8B66"/>
<rect x="1161" y="451" width="200" height="200" rx="20" fill="#FF9D66"/>
<rect x="450" y="451" width="200" height="200" rx="20" fill="#FF7866"/>
<rect x="213" y="451" width="200" height="200" rx="20" fill="#FF6F66"/>
<path d="M315.2 551.2C317.733 551.2 320.4 550.933 323.2 550.4C326 549.867 328.267 549.133 330 548.2C330.133 547.133 330.2 545.867 330.2 544.4C330.333 542.8 330.4 541.267 330.4 539.8C330.4 536.467 330.067 533.133 329.4 529.8C328.867 526.333 327.867 523.2 326.4 520.4C325.067 517.6 323.2 515.333 320.8 513.6C318.533 511.867 315.667 511 312.2 511C309.267 511 306.733 511.6 304.6 512.8C302.6 513.867 300.933 515.333 299.6 517.2C298.4 519.067 297.467 521.267 296.8 523.8C296.267 526.333 296 529 296 531.8C296 538.067 297.467 542.867 300.4 546.2C303.333 549.533 308.267 551.2 315.2 551.2ZM312 571.6C304.8 571.6 298.667 570.6 293.6 568.6C288.533 566.467 284.4 563.6 281.2 560C278 556.4 275.667 552.267 274.2 547.6C272.733 542.8 272 537.667 272 532.2C272 527.4 272.8 522.533 274.4 517.6C276.133 512.533 278.6 508 281.8 504C285.133 499.867 289.267 496.533 294.2 494C299.133 491.333 304.933 490 311.6 490C325.467 490 336.067 494.667 343.4 504C350.733 513.333 354.4 526.333 354.4 543C354.4 555 352.667 565.667 349.2 575C345.733 584.2 340.733 591.933 334.2 598.2C327.8 604.467 320 609.267 310.8 612.6C301.733 615.8 291.6 617.4 280.4 617.4L279.6 596.2C290.267 596.067 299.8 593.8 308.2 589.4C316.6 584.867 322.533 577.8 326 568.2C320.8 570.467 316.133 571.6 312 571.6Z" fill="white"/>
<path d="M542.6 596.6V527.4C538.867 530.067 534.6 532.467 529.8 534.6C525 536.6 520.933 538.2 517.6 539.4L509.6 519C512.8 517.8 516.267 516.267 520 514.4C523.733 512.533 527.467 510.467 531.2 508.2C534.933 505.933 538.467 503.533 541.8 501C545.133 498.467 548 495.867 550.4 493.2H567.2V596.6H591.8V617H516.6V596.6H542.6Z" fill="white"/>
<path d="M823.8 525.8C823.8 530.067 823 534.2 821.4 538.2C819.8 542.067 817.667 545.867 815 549.6C812.333 553.333 809.333 556.933 806 560.4C802.667 563.867 799.267 567.2 795.8 570.4C794.067 572 792.067 573.933 789.8 576.2C787.533 578.333 785.4 580.6 783.4 583C781.4 585.267 779.667 587.6 778.2 590C776.867 592.4 776.2 594.6 776.2 596.6H829.4V617H748.6C748.2 615.667 748 614 748 612C748.133 610 748.2 608.6 748.2 607.8C748.2 601.133 749.4 595 751.8 589.4C754.333 583.8 757.467 578.667 761.2 574C765.067 569.2 769.133 564.8 773.4 560.8C777.8 556.667 781.867 552.733 785.6 549C789.467 545.267 792.6 541.667 795 538.2C797.533 534.733 798.8 531.2 798.8 527.6C798.8 522.533 797.267 518.667 794.2 516C791.133 513.2 787.267 511.8 782.6 511.8C778.733 511.8 774.667 512.733 770.4 514.6C766.133 516.467 761.933 519.6 757.8 524L745.6 506.8C750.933 501.2 757.067 497.067 764 494.4C771.067 491.733 778.067 490.4 785 490.4C790.067 490.4 794.933 491.133 799.6 492.6C804.267 494.067 808.4 496.267 812 499.2C815.6 502.133 818.467 505.867 820.6 510.4C822.733 514.8 823.8 519.933 823.8 525.8Z" fill="white"/>
<path d="M1038.2 580.6C1038.2 577.133 1037.6 574 1036.4 571.2C1035.33 568.267 1033.07 565.8 1029.6 563.8C1026.27 561.667 1021.47 560.067 1015.2 559C1008.93 557.8 1000.73 557.2 990.6 557.2C991.933 546 993 535.067 993.8 524.4C994.6 513.6 995.2 503.2 995.6 493.2H1058.8V513.6H1016.2C1015.93 517.867 1015.6 522.333 1015.2 527C1014.8 531.667 1014.47 535.467 1014.2 538.4C1030.73 539.467 1043.07 543.467 1051.2 550.4C1059.33 557.333 1063.4 567.067 1063.4 579.6C1063.4 585.333 1062.4 590.667 1060.4 595.6C1058.4 600.4 1055.33 604.6 1051.2 608.2C1047.07 611.8 1041.93 614.6 1035.8 616.6C1029.67 618.6 1022.53 619.6 1014.4 619.6C1011.2 619.6 1007.93 619.4 1004.6 619C1001.27 618.6 998.067 618.067 995 617.4C991.933 616.867 989.133 616.2 986.6 615.4C984.2 614.6 982.333 613.867 981 613.2L986 592.8C988.933 594.267 992.667 595.6 997.2 596.8C1001.73 598 1007.4 598.6 1014.2 598.6C1019 598.6 1022.93 598.067 1026 597C1029.2 595.933 1031.67 594.6 1033.4 593C1035.27 591.267 1036.53 589.333 1037.2 587.2C1037.87 585.067 1038.2 582.867 1038.2 580.6Z" fill="white"/>
<path d="M1268 524C1265.6 527.067 1263.13 530.333 1260.6 533.8C1258.07 537.267 1255.53 540.933 1253 544.8C1250.6 548.533 1248.27 552.333 1246 556.2C1243.73 560.067 1241.73 563.867 1240 567.6H1268V524ZM1292.6 493.2V567.6H1306V587.8H1292.6V617H1268V587.8H1216.4V569.8C1218.93 564.6 1222.2 558.733 1226.2 552.2C1230.2 545.533 1234.6 538.733 1239.4 531.8C1244.2 524.867 1249.27 518.067 1254.6 511.4C1259.93 504.6 1265.27 498.533 1270.6 493.2H1292.6Z" fill="white"/>
<path d="M1239.6 749.6C1240.73 746.933 1242.27 743.867 1244.2 740.4C1246.2 736.933 1248.43 733.367 1250.9 729.7C1253.37 725.967 1256 722.333 1258.8 718.8C1261.6 715.2 1264.43 711.967 1267.3 709.1H1275.3V748.4H1282.6V755.2H1275.3V771H1267.3V755.2H1239.6V749.6ZM1267.3 718.9C1265.5 720.833 1263.67 722.967 1261.8 725.3C1260 727.633 1258.23 730.1 1256.5 732.7C1254.77 735.233 1253.13 737.833 1251.6 740.5C1250.13 743.167 1248.8 745.8 1247.6 748.4H1267.3V718.9Z" fill="#404040"/>
<path d="M1020.2 765C1025.47 765 1029.2 763.967 1031.4 761.9C1033.67 759.767 1034.8 756.933 1034.8 753.4C1034.8 751.133 1034.33 749.233 1033.4 747.7C1032.47 746.167 1031.23 744.933 1029.7 744C1028.17 743.067 1026.4 742.4 1024.4 742C1022.4 741.6 1020.3 741.4 1018.1 741.4H1016V734.7H1018.9C1020.37 734.7 1021.87 734.567 1023.4 734.3C1025 733.967 1026.43 733.433 1027.7 732.7C1029.03 731.9 1030.1 730.833 1030.9 729.5C1031.7 728.167 1032.1 726.467 1032.1 724.4C1032.1 721 1031.03 718.6 1028.9 717.2C1026.83 715.733 1024.4 715 1021.6 715C1018.73 715 1016.3 715.433 1014.3 716.3C1012.3 717.1 1010.63 717.933 1009.3 718.8L1006.1 712.5C1007.5 711.5 1009.6 710.467 1012.4 709.4C1015.27 708.267 1018.43 707.7 1021.9 707.7C1025.17 707.7 1027.97 708.1 1030.3 708.9C1032.63 709.7 1034.53 710.833 1036 712.3C1037.53 713.767 1038.67 715.5 1039.4 717.5C1040.13 719.433 1040.5 721.567 1040.5 723.9C1040.5 727.167 1039.63 729.933 1037.9 732.2C1036.23 734.467 1034.07 736.2 1031.4 737.4C1034.6 738.333 1037.37 740.167 1039.7 742.9C1042.03 745.567 1043.2 749.133 1043.2 753.6C1043.2 756.267 1042.73 758.767 1041.8 761.1C1040.93 763.367 1039.57 765.333 1037.7 767C1035.9 768.667 1033.53 769.967 1030.6 770.9C1027.73 771.833 1024.3 772.3 1020.3 772.3C1018.77 772.3 1017.17 772.167 1015.5 771.9C1013.9 771.7 1012.4 771.4 1011 771C1009.6 770.667 1008.33 770.333 1007.2 770C1006.13 769.6 1005.37 769.3 1004.9 769.1L1006.5 762C1007.57 762.533 1009.27 763.167 1011.6 763.9C1013.93 764.633 1016.8 765 1020.2 765Z" fill="#404040"/>
<path d="M318.8 738.9C318.8 740.633 318.267 742.133 317.2 743.4C316.2 744.667 314.867 745.3 313.2 745.3C311.467 745.3 310.067 744.667 309 743.4C307.933 742.133 307.4 740.633 307.4 738.9C307.4 737.167 307.933 735.633 309 734.3C310.067 732.967 311.467 732.3 313.2 732.3C314.867 732.3 316.2 732.967 317.2 734.3C318.267 735.633 318.8 737.167 318.8 738.9ZM292.6 740C292.6 729.6 294.367 721.633 297.9 716.1C301.5 710.5 306.533 707.7 313 707.7C319.533 707.7 324.567 710.5 328.1 716.1C331.633 721.633 333.4 729.6 333.4 740C333.4 750.4 331.633 758.4 328.1 764C324.567 769.533 319.533 772.3 313 772.3C306.533 772.3 301.5 769.533 297.9 764C294.367 758.4 292.6 750.4 292.6 740ZM325 740C325 736.6 324.8 733.4 324.4 730.4C324 727.333 323.333 724.667 322.4 722.4C321.467 720.133 320.233 718.333 318.7 717C317.167 715.667 315.267 715 313 715C310.733 715 308.833 715.667 307.3 717C305.767 718.333 304.533 720.133 303.6 722.4C302.667 724.667 302 727.333 301.6 730.4C301.2 733.4 301 736.6 301 740C301 743.4 301.2 746.633 301.6 749.7C302 752.7 302.667 755.333 303.6 757.6C304.533 759.867 305.767 761.667 307.3 763C308.833 764.333 310.733 765 313 765C315.267 765 317.167 764.333 318.7 763C320.233 761.667 321.467 759.867 322.4 757.6C323.333 755.333 324 752.7 324.4 749.7C324.8 746.633 325 743.4 325 740Z" fill="#404040"/>
<path d="M532.5 721.9C535.9 720.567 539.2 718.9 542.4 716.9C545.6 714.833 548.567 712.233 551.3 709.1H557.1V764H568.8V771H535.5V764H548.9V720.6C548.167 721.267 547.267 721.967 546.2 722.7C545.2 723.367 544.067 724.033 542.8 724.7C541.6 725.367 540.333 726 539 726.6C537.667 727.2 536.367 727.7 535.1 728.1L532.5 721.9Z" fill="#404040"/>
<path d="M804 724.9C804 727.033 803.567 729.1 802.7 731.1C801.9 733.1 800.8 735.067 799.4 737C798.067 738.933 796.533 740.833 794.8 742.7C793.067 744.567 791.3 746.4 789.5 748.2C788.5 749.2 787.333 750.4 786 751.8C784.667 753.2 783.4 754.633 782.2 756.1C781 757.567 780 759 779.2 760.4C778.4 761.8 778 763 778 764H806.5V771H769C768.933 770.667 768.9 770.333 768.9 770C768.9 769.6 768.9 769.233 768.9 768.9C768.9 766.1 769.367 763.5 770.3 761.1C771.233 758.7 772.433 756.433 773.9 754.3C775.367 752.167 777 750.167 778.8 748.3C780.667 746.367 782.5 744.5 784.3 742.7C785.767 741.233 787.167 739.8 788.5 738.4C789.9 737 791.1 735.6 792.1 734.2C793.167 732.8 794 731.367 794.6 729.9C795.267 728.367 795.6 726.8 795.6 725.2C795.6 723.4 795.3 721.867 794.7 720.6C794.167 719.333 793.4 718.3 792.4 717.5C791.467 716.633 790.367 716 789.1 715.6C787.833 715.2 786.467 715 785 715C783.267 715 781.667 715.233 780.2 715.7C778.8 716.167 777.533 716.733 776.4 717.4C775.333 718.067 774.4 718.733 773.6 719.4C772.8 720 772.2 720.5 771.8 720.9L767.7 715.1C768.233 714.5 769.033 713.767 770.1 712.9C771.167 712.033 772.433 711.233 773.9 710.5C775.433 709.7 777.133 709.033 779 708.5C780.867 707.967 782.867 707.7 785 707.7C791.467 707.7 796.233 709.2 799.3 712.2C802.433 715.133 804 719.367 804 724.9Z" fill="#404040"/>
<path d="M1261.3 414L1218 339L1304.6 339L1261.3 414Z" fill="#FF9D66"/>
<path d="M1271.3 284L1271.3 339L1251.3 339L1251.3 284L1271.3 284Z" fill="#FF9D66"/>
<path d="M313.301 414L270 339L356.603 339L313.301 414Z" fill="#FF6F66"/>
<path d="M323.301 284L323.301 339L303.301 339L303.301 284L323.301 284Z" fill="#FF6F66"/>
<path d="M183.4 240.5C182.4 240.5 181.233 240.467 179.9 240.4C178.567 240.333 177.233 240.233 175.9 240.1C174.567 240.033 173.233 239.9 171.9 239.7C170.567 239.5 169.4 239.267 168.4 239V179C169.4 178.733 170.533 178.5 171.8 178.3C173.133 178.1 174.467 177.967 175.8 177.9C177.2 177.767 178.533 177.667 179.8 177.6C181.133 177.533 182.333 177.5 183.4 177.5C186.467 177.5 189.333 177.767 192 178.3C194.667 178.833 196.967 179.733 198.9 181C200.9 182.267 202.433 183.933 203.5 186C204.633 188.067 205.2 190.633 205.2 193.7C205.2 195.167 204.967 196.6 204.5 198C204.033 199.333 203.367 200.6 202.5 201.8C201.7 203 200.733 204.067 199.6 205C198.533 205.867 197.367 206.533 196.1 207C199.5 207.933 202.333 209.667 204.6 212.2C206.933 214.667 208.1 217.9 208.1 221.9C208.1 228.033 206.133 232.667 202.2 235.8C198.267 238.933 192 240.5 183.4 240.5ZM176.6 211.1V233.2C176.733 233.267 177.467 233.367 178.8 233.5C180.2 233.567 181.933 233.6 184 233.6C186.067 233.6 188.033 233.433 189.9 233.1C191.833 232.767 193.533 232.167 195 231.3C196.467 230.367 197.633 229.167 198.5 227.7C199.433 226.233 199.9 224.333 199.9 222C199.9 219.933 199.467 218.2 198.6 216.8C197.8 215.4 196.7 214.3 195.3 213.5C193.967 212.633 192.4 212.033 190.6 211.7C188.8 211.3 186.933 211.1 185 211.1H176.6ZM176.6 204.3H183.1C184.767 204.3 186.433 204.133 188.1 203.8C189.767 203.467 191.267 202.933 192.6 202.2C193.933 201.467 195 200.467 195.8 199.2C196.6 197.933 197 196.333 197 194.4C197 192.6 196.633 191.067 195.9 189.8C195.167 188.533 194.2 187.5 193 186.7C191.8 185.9 190.4 185.333 188.8 185C187.267 184.667 185.633 184.5 183.9 184.5C182.167 184.5 180.633 184.533 179.3 184.6C178.033 184.6 177.133 184.667 176.6 184.8V204.3ZM259 216.8C259 220.467 258.467 223.8 257.4 226.8C256.4 229.733 254.967 232.267 253.1 234.4C251.233 236.533 249 238.2 246.4 239.4C243.8 240.533 240.967 241.1 237.9 241.1C234.9 241.1 232.1 240.533 229.5 239.4C226.967 238.2 224.767 236.533 222.9 234.4C221.033 232.267 219.567 229.733 218.5 226.8C217.5 223.8 217 220.467 217 216.8C217 213.133 217.5 209.8 218.5 206.8C219.567 203.8 221.033 201.267 222.9 199.2C224.767 197.067 226.967 195.433 229.5 194.3C232.1 193.1 234.9 192.5 237.9 192.5C240.967 192.5 243.8 193.1 246.4 194.3C249 195.433 251.233 197.067 253.1 199.2C254.967 201.267 256.4 203.8 257.4 206.8C258.467 209.8 259 213.133 259 216.8ZM250.5 216.8C250.5 211.533 249.367 207.4 247.1 204.4C244.833 201.333 241.767 199.8 237.9 199.8C234.1 199.8 231.067 201.333 228.8 204.4C226.6 207.4 225.5 211.533 225.5 216.8C225.5 222 226.6 226.133 228.8 229.2C231.067 232.2 234.1 233.7 237.9 233.7C241.767 233.7 244.833 232.2 247.1 229.2C249.367 226.133 250.5 222 250.5 216.8ZM287.3 193.6H306.9V200.5H287.3V222.1C287.3 224.433 287.467 226.333 287.8 227.8C288.133 229.267 288.667 230.467 289.4 231.4C290.2 232.267 291.2 232.867 292.4 233.2C293.6 233.533 295.067 233.7 296.8 233.7C299.2 233.7 301.133 233.5 302.6 233.1C304.067 232.7 305.467 232.167 306.8 231.5L308 238.5C307.067 238.9 305.567 239.433 303.5 240.1C301.5 240.767 299 241.1 296 241.1C292.533 241.1 289.7 240.7 287.5 239.9C285.3 239.1 283.567 237.9 282.3 236.3C281.1 234.7 280.267 232.733 279.8 230.4C279.333 228 279.1 225.233 279.1 222.1V200.5H269.3V193.6H279.1V180.6L287.3 179.2V193.6ZM337.3 193.6H356.9V200.5H337.3V222.1C337.3 224.433 337.467 226.333 337.8 227.8C338.133 229.267 338.667 230.467 339.4 231.4C340.2 232.267 341.2 232.867 342.4 233.2C343.6 233.533 345.067 233.7 346.8 233.7C349.2 233.7 351.133 233.5 352.6 233.1C354.067 232.7 355.467 232.167 356.8 231.5L358 238.5C357.067 238.9 355.567 239.433 353.5 240.1C351.5 240.767 349 241.1 346 241.1C342.533 241.1 339.7 240.7 337.5 239.9C335.3 239.1 333.567 237.9 332.3 236.3C331.1 234.7 330.267 232.733 329.8 230.4C329.333 228 329.1 225.233 329.1 222.1V200.5H319.3V193.6H329.1V180.6L337.3 179.2V193.6ZM409 216.8C409 220.467 408.467 223.8 407.4 226.8C406.4 229.733 404.967 232.267 403.1 234.4C401.233 236.533 399 238.2 396.4 239.4C393.8 240.533 390.967 241.1 387.9 241.1C384.9 241.1 382.1 240.533 379.5 239.4C376.967 238.2 374.767 236.533 372.9 234.4C371.033 232.267 369.567 229.733 368.5 226.8C367.5 223.8 367 220.467 367 216.8C367 213.133 367.5 209.8 368.5 206.8C369.567 203.8 371.033 201.267 372.9 199.2C374.767 197.067 376.967 195.433 379.5 194.3C382.1 193.1 384.9 192.5 387.9 192.5C390.967 192.5 393.8 193.1 396.4 194.3C399 195.433 401.233 197.067 403.1 199.2C404.967 201.267 406.4 203.8 407.4 206.8C408.467 209.8 409 213.133 409 216.8ZM400.5 216.8C400.5 211.533 399.367 207.4 397.1 204.4C394.833 201.333 391.767 199.8 387.9 199.8C384.1 199.8 381.067 201.333 378.8 204.4C376.6 207.4 375.5 211.533 375.5 216.8C375.5 222 376.6 226.133 378.8 229.2C381.067 232.2 384.1 233.7 387.9 233.7C391.767 233.7 394.833 232.2 397.1 229.2C399.367 226.133 400.5 222 400.5 216.8ZM417.1 194.9C421.1 193.367 424.867 192.6 428.4 192.6C430.333 192.6 432.133 192.9 433.8 193.5C435.533 194.033 437 194.9 438.2 196.1C441.067 193.767 444.133 192.6 447.4 192.6C449 192.6 450.5 192.9 451.9 193.5C453.367 194.1 454.633 195 455.7 196.2C456.833 197.4 457.733 198.9 458.4 200.7C459.067 202.5 459.4 204.6 459.4 207V240H451.9V206.8C451.9 204.4 451.367 202.567 450.3 201.3C449.233 200.033 447.9 199.4 446.3 199.4C445.5 199.4 444.667 199.6 443.8 200C442.933 200.4 442.133 201.033 441.4 201.9C441.8 203.433 442 205.133 442 207V222.1H434.5V206.9C434.5 204.567 434.133 202.733 433.4 201.4C432.667 200.067 431.233 199.4 429.1 199.4C427.767 199.4 426.267 199.7 424.6 200.3V240H417.1V194.9Z" fill="#404040"/>
<path d="M1232.1 168.1V175.1H1215.1V230H1206.9V175.1H1189.9V168.1H1232.1ZM1282 206.8C1282 210.467 1281.47 213.8 1280.4 216.8C1279.4 219.733 1277.97 222.267 1276.1 224.4C1274.23 226.533 1272 228.2 1269.4 229.4C1266.8 230.533 1263.97 231.1 1260.9 231.1C1257.9 231.1 1255.1 230.533 1252.5 229.4C1249.97 228.2 1247.77 226.533 1245.9 224.4C1244.03 222.267 1242.57 219.733 1241.5 216.8C1240.5 213.8 1240 210.467 1240 206.8C1240 203.133 1240.5 199.8 1241.5 196.8C1242.57 193.8 1244.03 191.267 1245.9 189.2C1247.77 187.067 1249.97 185.433 1252.5 184.3C1255.1 183.1 1257.9 182.5 1260.9 182.5C1263.97 182.5 1266.8 183.1 1269.4 184.3C1272 185.433 1274.23 187.067 1276.1 189.2C1277.97 191.267 1279.4 193.8 1280.4 196.8C1281.47 199.8 1282 203.133 1282 206.8ZM1273.5 206.8C1273.5 201.533 1272.37 197.4 1270.1 194.4C1267.83 191.333 1264.77 189.8 1260.9 189.8C1257.1 189.8 1254.07 191.333 1251.8 194.4C1249.6 197.4 1248.5 201.533 1248.5 206.8C1248.5 212 1249.6 216.133 1251.8 219.2C1254.07 222.2 1257.1 223.7 1260.9 223.7C1264.77 223.7 1267.83 222.2 1270.1 219.2C1272.37 216.133 1273.5 212 1273.5 206.8ZM1323.5 206.9C1323.5 201.5 1322.23 197.333 1319.7 194.4C1317.17 191.4 1313.87 189.9 1309.8 189.9C1307.53 189.9 1305.73 190 1304.4 190.2C1303.13 190.4 1302.13 190.633 1301.4 190.9V220.2C1302.33 221.067 1303.7 221.867 1305.5 222.6C1307.3 223.333 1309.17 223.7 1311.1 223.7C1313.3 223.7 1315.17 223.267 1316.7 222.4C1318.3 221.533 1319.6 220.367 1320.6 218.9C1321.6 217.367 1322.33 215.6 1322.8 213.6C1323.27 211.533 1323.5 209.3 1323.5 206.9ZM1332 206.9C1332 210.433 1331.53 213.7 1330.6 216.7C1329.73 219.633 1328.43 222.167 1326.7 224.3C1325.03 226.433 1322.97 228.1 1320.5 229.3C1318.03 230.5 1315.23 231.1 1312.1 231.1C1309.63 231.1 1307.47 230.8 1305.6 230.2C1303.73 229.6 1302.33 228.933 1301.4 228.2V246.5H1293.1V185C1294.9 184.467 1297.2 183.933 1300 183.4C1302.87 182.867 1306.13 182.6 1309.8 182.6C1313.13 182.6 1316.17 183.167 1318.9 184.3C1321.63 185.433 1323.97 187.067 1325.9 189.2C1327.83 191.267 1329.33 193.8 1330.4 196.8C1331.47 199.8 1332 203.167 1332 206.9Z" fill="#404040"/>
</svg>
